{
  "title" : "",
  "description" : "",
  "author" : "",
  "width" : 1280.0,
  "height" : 720.0,
  "version" : "0.5",
  "editRate" : 30,
  "authoringClientName" :  {
    "name" : "Camtasia Studio",
    "platform" : "Windows",
    "version" : "9.0"
  },
  "sourceBin" : [
    {
      "id" : 1,
      "src" : "C:\\Abqus Tutorials\\XFEM\\2018-03-01_18-42-25.mp4",
      "rect" : [0, 0, 1280, 720],
      "lastMod" : "20180301T184225",
      "sourceTracks" : [
        {
          "range" : [0, 167333333],
          "type" : 0,
          "editRate" : 10000000,
          "trackRect" : [0, 0, 1280, 720],
          "sampleRate" : "2000000/135681",
          "bitDepth" : 24,
          "numChannels" : 0,
          "metaData" : ""
        },
        {
          "range" : [0, 167333333],
          "type" : 2,
          "editRate" : 10000000,
          "trackRect" : [0, 0, 0, 0],
          "sampleRate" : 44100,
          "bitDepth" : 16,
          "numChannels" : 1,
          "metaData" : ""
        }
      ]
    },
    {
      "id" : 2,
      "src" : "C:\\Abqus Tutorials\\XFEM\\2018-03-01_18-46-53.mp4",
      "rect" : [0, 0, 1280, 720],
      "lastMod" : "20180301T184653",
      "sourceTracks" : [
        {
          "range" : [0, 2108000000],
          "type" : 0,
          "editRate" : 10000000,
          "trackRect" : [0, 0, 1280, 720],
          "sampleRate" : "5000000/335807",
          "bitDepth" : 24,
          "numChannels" : 0,
          "metaData" : ""
        },
        {
          "range" : [0, 2108000000],
          "type" : 2,
          "editRate" : 10000000,
          "trackRect" : [0, 0, 0, 0],
          "sampleRate" : 44100,
          "bitDepth" : 16,
          "numChannels" : 1,
          "metaData" : ""
        }
      ]
    },
    {
      "id" : 3,
      "src" : "C:\\Abqus Tutorials\\XFEM\\2018-03-01_17-56-29.mp4",
      "rect" : [0, 0, 1280, 720],
      "lastMod" : "20180301T175629",
      "sourceTracks" : [
        {
          "range" : [0, 12453666667],
          "type" : 0,
          "editRate" : 10000000,
          "trackRect" : [0, 0, 1280, 720],
          "sampleRate" : "10000000/670399",
          "bitDepth" : 24,
          "numChannels" : 0,
          "metaData" : ""
        },
        {
          "range" : [0, 12453666667],
          "type" : 2,
          "editRate" : 10000000,
          "trackRect" : [0, 0, 0, 0],
          "sampleRate" : 44100,
          "bitDepth" : 16,
          "numChannels" : 1,
          "metaData" : ""
        }
      ]
    },
    {
      "id" : 4,
      "src" : "C:\\Abqus Tutorials\\XFEM\\2018-03-01_18-32-05.mp4",
      "rect" : [0, 0, 1280, 720],
      "lastMod" : "20180301T183205",
      "sourceTracks" : [
        {
          "range" : [0, 1610000000],
          "type" : 0,
          "editRate" : 10000000,
          "trackRect" : [0, 0, 1280, 720],
          "sampleRate" : "100000/6707",
          "bitDepth" : 24,
          "numChannels" : 0,
          "metaData" : ""
        },
        {
          "range" : [0, 1610000000],
          "type" : 2,
          "editRate" : 10000000,
          "trackRect" : [0, 0, 0, 0],
          "sampleRate" : 44100,
          "bitDepth" : 16,
          "numChannels" : 1,
          "metaData" : ""
        }
      ]
    },
    {
      "id" : 5,
      "src" : "C:\\Abqus Tutorials\\XFEM\\2018-03-01_18-41-04.mp4",
      "rect" : [0, 0, 1280, 720],
      "lastMod" : "20180301T184104",
      "sourceTracks" : [
        {
          "range" : [0, 2883333333],
          "type" : 0,
          "editRate" : 10000000,
          "trackRect" : [0, 0, 1280, 720],
          "sampleRate" : "10000000/670339",
          "bitDepth" : 24,
          "numChannels" : 0,
          "metaData" : ""
        },
        {
          "range" : [0, 2883333333],
          "type" : 2,
          "editRate" : 10000000,
          "trackRect" : [0, 0, 0, 0],
          "sampleRate" : 44100,
          "bitDepth" : 16,
          "numChannels" : 1,
          "metaData" : ""
        }
      ]
    },
    {
      "id" : 6,
      "src" : "C:\\Abqus Tutorials\\XFEM\\Section-1.m4a",
      "rect" : [0, 0, 0, 0],
      "lastMod" : "20180301T190602",
      "sourceTracks" : [
        {
          "range" : [0, 115666667],
          "type" : 2,
          "editRate" : 10000000,
          "trackRect" : [0, 0, 0, 0],
          "sampleRate" : 44100,
          "bitDepth" : 16,
          "numChannels" : 2,
          "metaData" : ""
        }
      ]
    },
    {
      "id" : 7,
      "src" : "C:\\Abqus Tutorials\\XFEM\\section-2.m4a",
      "rect" : [0, 0, 0, 0],
      "lastMod" : "20180301T190811",
      "sourceTracks" : [
        {
          "range" : [0, 517666667],
          "type" : 2,
          "editRate" : 10000000,
          "trackRect" : [0, 0, 0, 0],
          "sampleRate" : 44100,
          "bitDepth" : 16,
          "numChannels" : 2,
          "metaData" : ""
        }
      ]
    },
    {
      "id" : 8,
      "src" : "C:\\Abqus Tutorials\\XFEM\\Section-3.m4a",
      "rect" : [0, 0, 0, 0],
      "lastMod" : "20180301T190947",
      "sourceTracks" : [
        {
          "range" : [0, 385000000],
          "type" : 2,
          "editRate" : 10000000,
          "trackRect" : [0, 0, 0, 0],
          "sampleRate" : 44100,
          "bitDepth" : 16,
          "numChannels" : 2,
          "metaData" : ""
        }
      ]
    },
    {
      "id" : 9,
      "src" : "C:\\Abqus Tutorials\\XFEM\\Section-4.m4a",
      "rect" : [0, 0, 0, 0],
      "lastMod" : "20180301T191220",
      "sourceTracks" : [
        {
          "range" : [0, 467666667],
          "type" : 2,
          "editRate" : 10000000,
          "trackRect" : [0, 0, 0, 0],
          "sampleRate" : 44100,
          "bitDepth" : 16,
          "numChannels" : 2,
          "metaData" : ""
        }
      ]
    },
    {
      "id" : 10,
      "src" : "C:\\Abqus Tutorials\\XFEM\\section-5.m4a",
      "rect" : [0, 0, 0, 0],
      "lastMod" : "20180301T191420",
      "sourceTracks" : [
        {
          "range" : [0, 300000000],
          "type" : 2,
          "editRate" : 10000000,
          "trackRect" : [0, 0, 0, 0],
          "sampleRate" : 44100,
          "bitDepth" : 16,
          "numChannels" : 2,
          "metaData" : ""
        }
      ]
    },
    {
      "id" : 11,
      "src" : "C:\\Abqus Tutorials\\XFEM\\section-6.m4a",
      "rect" : [0, 0, 0, 0],
      "lastMod" : "20180301T191557",
      "sourceTracks" : [
        {
          "range" : [0, 245000000],
          "type" : 2,
          "editRate" : 10000000,
          "trackRect" : [0, 0, 0, 0],
          "sampleRate" : 44100,
          "bitDepth" : 16,
          "numChannels" : 2,
          "metaData" : ""
        }
      ]
    },
    {
      "id" : 12,
      "src" : "C:\\Abqus Tutorials\\XFEM\\section-7.m4a",
      "rect" : [0, 0, 0, 0],
      "lastMod" : "20180301T191710",
      "sourceTracks" : [
        {
          "range" : [0, 440000000],
          "type" : 2,
          "editRate" : 10000000,
          "trackRect" : [0, 0, 0, 0],
          "sampleRate" : 44100,
          "bitDepth" : 16,
          "numChannels" : 2,
          "metaData" : ""
        }
      ]
    },
    {
      "id" : 13,
      "src" : "C:\\Abqus Tutorials\\XFEM\\section-8.m4a",
      "rect" : [0, 0, 0, 0],
      "lastMod" : "20180301T191939",
      "sourceTracks" : [
        {
          "range" : [0, 1155666667],
          "type" : 2,
          "editRate" : 10000000,
          "trackRect" : [0, 0, 0, 0],
          "sampleRate" : 44100,
          "bitDepth" : 16,
          "numChannels" : 2,
          "metaData" : ""
        }
      ]
    },
    {
      "id" : 14,
      "src" : "C:\\Abqus Tutorials\\XFEM\\section-9.m4a",
      "rect" : [0, 0, 0, 0],
      "lastMod" : "20180301T192350",
      "sourceTracks" : [
        {
          "range" : [0, 1928000000],
          "type" : 2,
          "editRate" : 10000000,
          "trackRect" : [0, 0, 0, 0],
          "sampleRate" : 44100,
          "bitDepth" : 16,
          "numChannels" : 2,
          "metaData" : ""
        }
      ]
    },
    {
      "id" : 15,
      "src" : "C:\\Abqus Tutorials\\XFEM\\section-10.m4a",
      "rect" : [0, 0, 0, 0],
      "lastMod" : "20180301T192700",
      "sourceTracks" : [
        {
          "range" : [0, 1572666667],
          "type" : 2,
          "editRate" : 10000000,
          "trackRect" : [0, 0, 0, 0],
          "sampleRate" : 44100,
          "bitDepth" : 16,
          "numChannels" : 2,
          "metaData" : ""
        }
      ]
    },
    {
      "id" : 16,
      "src" : "C:\\Abqus Tutorials\\XFEM\\section-11.m4a",
      "rect" : [0, 0, 0, 0],
      "lastMod" : "20180301T193451",
      "sourceTracks" : [
        {
          "range" : [0, 563000000],
          "type" : 2,
          "editRate" : 10000000,
          "trackRect" : [0, 0, 0, 0],
          "sampleRate" : 44100,
          "bitDepth" : 16,
          "numChannels" : 2,
          "metaData" : ""
        }
      ]
    },
    {
      "id" : 17,
      "src" : "C:\\Abqus Tutorials\\XFEM\\section-12.m4a",
      "rect" : [0, 0, 0, 0],
      "lastMod" : "20180301T194231",
      "sourceTracks" : [
        {
          "range" : [0, 907333333],
          "type" : 2,
          "editRate" : 10000000,
          "trackRect" : [0, 0, 0, 0],
          "sampleRate" : 44100,
          "bitDepth" : 16,
          "numChannels" : 2,
          "metaData" : ""
        }
      ]
    },
    {
      "id" : 18,
      "src" : "C:\\Abqus Tutorials\\XFEM\\section-13.m4a",
      "rect" : [0, 0, 0, 0],
      "lastMod" : "20180301T194352",
      "sourceTracks" : [
        {
          "range" : [0, 438333333],
          "type" : 2,
          "editRate" : 10000000,
          "trackRect" : [0, 0, 0, 0],
          "sampleRate" : 44100,
          "bitDepth" : 16,
          "numChannels" : 2,
          "metaData" : ""
        }
      ]
    },
    {
      "id" : 19,
      "src" : "C:\\Abqus Tutorials\\XFEM\\section-14.m4a",
      "rect" : [0, 0, 0, 0],
      "lastMod" : "20180301T194542",
      "sourceTracks" : [
        {
          "range" : [0, 368000000],
          "type" : 2,
          "editRate" : 10000000,
          "trackRect" : [0, 0, 0, 0],
          "sampleRate" : 44100,
          "bitDepth" : 16,
          "numChannels" : 2,
          "metaData" : ""
        }
      ]
    },
    {
      "id" : 20,
      "src" : "C:\\Abqus Tutorials\\XFEM\\section-15.m4a",
      "rect" : [0, 0, 0, 0],
      "lastMod" : "20180301T194841",
      "sourceTracks" : [
        {
          "range" : [0, 1208000000],
          "type" : 2,
          "editRate" : 10000000,
          "trackRect" : [0, 0, 0, 0],
          "sampleRate" : 44100,
          "bitDepth" : 16,
          "numChannels" : 2,
          "metaData" : ""
        }
      ]
    },
    {
      "id" : 21,
      "src" : "C:\\Abqus Tutorials\\XFEM\\section-16.m4a",
      "rect" : [0, 0, 0, 0],
      "lastMod" : "20180301T195131",
      "sourceTracks" : [
        {
          "range" : [0, 708000000],
          "type" : 2,
          "editRate" : 10000000,
          "trackRect" : [0, 0, 0, 0],
          "sampleRate" : 44100,
          "bitDepth" : 16,
          "numChannels" : 2,
          "metaData" : ""
        }
      ]
    },
    {
      "id" : 22,
      "src" : "C:\\Abqus Tutorials\\XFEM\\section-17.m4a",
      "rect" : [0, 0, 0, 0],
      "lastMod" : "20180301T195321",
      "sourceTracks" : [
        {
          "range" : [0, 910666667],
          "type" : 2,
          "editRate" : 10000000,
          "trackRect" : [0, 0, 0, 0],
          "sampleRate" : 44100,
          "bitDepth" : 16,
          "numChannels" : 2,
          "metaData" : ""
        }
      ]
    },
    {
      "id" : 23,
      "src" : "C:\\Abqus Tutorials\\XFEM\\section-18.m4a",
      "rect" : [0, 0, 0, 0],
      "lastMod" : "20180301T195624",
      "sourceTracks" : [
        {
          "range" : [0, 810000000],
          "type" : 2,
          "editRate" : 10000000,
          "trackRect" : [0, 0, 0, 0],
          "sampleRate" : 44100,
          "bitDepth" : 16,
          "numChannels" : 2,
          "metaData" : ""
        }
      ]
    },
    {
      "id" : 24,
      "src" : "C:\\Abqus Tutorials\\XFEM\\section-19.m4a",
      "rect" : [0, 0, 0, 0],
      "lastMod" : "20180301T200046",
      "sourceTracks" : [
        {
          "range" : [0, 2225000000],
          "type" : 2,
          "editRate" : 10000000,
          "trackRect" : [0, 0, 0, 0],
          "sampleRate" : 44100,
          "bitDepth" : 16,
          "numChannels" : 2,
          "metaData" : ""
        }
      ]
    },
    {
      "id" : 25,
      "src" : "C:\\Abqus Tutorials\\XFEM\\section-20.m4a",
      "rect" : [0, 0, 0, 0],
      "lastMod" : "20180301T200318",
      "sourceTracks" : [
        {
          "range" : [0, 980333333],
          "type" : 2,
          "editRate" : 10000000,
          "trackRect" : [0, 0, 0, 0],
          "sampleRate" : 44100,
          "bitDepth" : 16,
          "numChannels" : 2,
          "metaData" : ""
        }
      ]
    },
    {
      "id" : 26,
      "src" : "C:\\Abqus Tutorials\\XFEM\\section-21.m4a",
      "rect" : [0, 0, 0, 0],
      "lastMod" : "20180301T200348",
      "sourceTracks" : [
        {
          "range" : [0, 113000000],
          "type" : 2,
          "editRate" : 10000000,
          "trackRect" : [0, 0, 0, 0],
          "sampleRate" : 44100,
          "bitDepth" : 16,
          "numChannels" : 2,
          "metaData" : ""
        }
      ]
    },
    {
      "id" : 27,
      "src" : "C:\\Abqus Tutorials\\XFEM\\section-22.m4a",
      "rect" : [0, 0, 0, 0],
      "lastMod" : "20180301T200536",
      "sourceTracks" : [
        {
          "range" : [0, 900333333],
          "type" : 2,
          "editRate" : 10000000,
          "trackRect" : [0, 0, 0, 0],
          "sampleRate" : 44100,
          "bitDepth" : 16,
          "numChannels" : 2,
          "metaData" : ""
        }
      ]
    },
    {
      "id" : 28,
      "src" : "C:\\Abqus Tutorials\\XFEM\\section-23.m4a",
      "rect" : [0, 0, 0, 0],
      "lastMod" : "20180301T200737",
      "sourceTracks" : [
        {
          "range" : [0, 713000000],
          "type" : 2,
          "editRate" : 10000000,
          "trackRect" : [0, 0, 0, 0],
          "sampleRate" : 44100,
          "bitDepth" : 16,
          "numChannels" : 2,
          "metaData" : ""
        }
      ]
    },
    {
      "id" : 29,
      "src" : "C:\\Abqus Tutorials\\XFEM\\section-24.m4a",
      "rect" : [0, 0, 0, 0],
      "lastMod" : "20180301T200927",
      "sourceTracks" : [
        {
          "range" : [0, 843000000],
          "type" : 2,
          "editRate" : 10000000,
          "trackRect" : [0, 0, 0, 0],
          "sampleRate" : 44100,
          "bitDepth" : 16,
          "numChannels" : 2,
          "metaData" : ""
        }
      ]
    },
    {
      "id" : 30,
      "src" : "C:\\Abqus Tutorials\\XFEM\\2018-03-01_20-16-18.mp4",
      "rect" : [0, 0, 1282, 722],
      "lastMod" : "20180301T201618",
      "sourceTracks" : [
        {
          "range" : [0, 1865000000],
          "type" : 0,
          "editRate" : 10000000,
          "trackRect" : [0, 0, 1282, 722],
          "sampleRate" : "5000000/335249",
          "bitDepth" : 24,
          "numChannels" : 0,
          "metaData" : ""
        },
        {
          "range" : [0, 1865000000],
          "type" : 2,
          "editRate" : 10000000,
          "trackRect" : [0, 0, 0, 0],
          "sampleRate" : 44100,
          "bitDepth" : 16,
          "numChannels" : 1,
          "metaData" : ""
        }
      ]
    },
    {
      "id" : 31,
      "src" : "C:\\Abqus Tutorials\\XFEM\\2018-03-01_20-21-31.mp4",
      "rect" : [0, 0, 1280, 720],
      "lastMod" : "20180301T202131",
      "sourceTracks" : [
        {
          "range" : [0, 560666667],
          "type" : 0,
          "editRate" : 10000000,
          "trackRect" : [0, 0, 1280, 720],
          "sampleRate" : "1000000/67229",
          "bitDepth" : 24,
          "numChannels" : 0,
          "metaData" : ""
        },
        {
          "range" : [0, 560666667],
          "type" : 2,
          "editRate" : 10000000,
          "trackRect" : [0, 0, 0, 0],
          "sampleRate" : 44100,
          "bitDepth" : 16,
          "numChannels" : 1,
          "metaData" : ""
        }
      ]
    },
    {
      "id" : 32,
      "src" : "C:\\Abqus Tutorials\\XFEM\\section-25.m4a",
      "rect" : [0, 0, 0, 0],
      "lastMod" : "20180301T202744",
      "sourceTracks" : [
        {
          "range" : [0, 1500000000],
          "type" : 2,
          "editRate" : 10000000,
          "trackRect" : [0, 0, 0, 0],
          "sampleRate" : 44100,
          "bitDepth" : 16,
          "numChannels" : 2,
          "metaData" : ""
        }
      ]
    },
    {
      "id" : 33,
      "src" : "C:\\Abqus Tutorials\\XFEM\\section-26.m4a",
      "rect" : [0, 0, 0, 0],
      "lastMod" : "20180301T203005",
      "sourceTracks" : [
        {
          "range" : [0, 1100666667],
          "type" : 2,
          "editRate" : 10000000,
          "trackRect" : [0, 0, 0, 0],
          "sampleRate" : 44100,
          "bitDepth" : 16,
          "numChannels" : 2,
          "metaData" : ""
        }
      ]
    }
  ],
  "timeline" : {
    "id" : 34,
    "sceneTrack" : {
      "scenes" : [
        {
          "duration" : 2005.33333333333,
          "title" : "",
          "type" : "",
          "csml" : {
            "tracks" : [
              {
                "trackIndex" : 0,
                "medias" : [
                  {
                    "id" : 35,
                    "_type" : "UnifiedMedia",
                    "video" : 
                        {
                          "id" : 36,
                          "_type" : "VMFile",
                          "src" : 1,
                          "trackNumber" : 0,
                          "attributes" : {
                            "ident" : "2018-03-01_18-42-25"
                          },
                          "effects" : [

                          ],
                          "start" : 0,
                          "duration" : 364,
                          "mediaStart" : 0,
                          "mediaDuration" : 364,
                          "scalar" : 1,
                          "animationTracks" : {

                          }
                        },
                    "audio" : 
                        {
                          "id" : 37,
                          "_type" : "AMFile",
                          "src" : 1,
                          "trackNumber" : 1,
                          "attributes" : {
                            "ident" : "",
                            "sampleRate" : 44100,
                            "bitDepth" : 16,
                            "gain" : 1.0,
                            "mixToMono" : false
                          },
                            "channelNumber" : "0",
                          "effects" : [

                          ],
                          "start" : 0,
                          "duration" : 364,
                          "mediaStart" : 0,
                          "mediaDuration" : 364,
                          "scalar" : 1,
                          "animationTracks" : {

                          }
                        }
,
                    "start" : 0,
                    "duration" : 364,
                    "mediaStart" : 0,
                    "mediaDuration" : 501,
                    "scalar" : 1,
                    "metadata" : {
                      "WinSubProjectDisplayName" : "",
                      "clipSpeedAttribute" : false
                    }
                  },
                  {
                    "id" : 38,
                    "_type" : "StitchedMedia",
                    "minMediaStart" : 0,
                    "attributes" : {
                      "ident" : "2018-03-01_18-46-53",
                      "gain" : 1.0,
                      "mixToMono" : false
                    },
                    "parameters" : {
                      "volume" : 1.0,
                      "cursorOpacity" : {
                        "type" : "double",
                        "defaultValue" : 1.0,
                        "interp" : "linr"
                      },
                      "cursorScale" : {
                        "type" : "double",
                        "defaultValue" : 1.0,
                        "interp" : "linr"
                      }
                    },
                    "medias" : [
                        {
                          "id" : 39,
                          "_type" : "UnifiedMedia",
                          "video" : 
                              {
                                "id" : 40,
                                "_type" : "VMFile",
                                "src" : 2,
                                "trackNumber" : 0,
                                "attributes" : {
                                  "ident" : "2018-03-01_18-46-53"
                                },
                                "effects" : [

                                ],
                                "start" : 0,
                                "duration" : 2920,
                                "mediaStart" : 0,
                                "mediaDuration" : 2920,
                                "scalar" : 1,
                                "animationTracks" : {

                                }
                              },
                          "audio" : 
                              {
                                "id" : 41,
                                "_type" : "AMFile",
                                "src" : 2,
                                "trackNumber" : 1,
                                "attributes" : {
                                  "ident" : "",
                                  "sampleRate" : 44100,
                                  "bitDepth" : 16,
                                  "gain" : 1.0,
                                  "mixToMono" : false
                                },
                                  "channelNumber" : "0",
                                "effects" : [

                                ],
                                "start" : 0,
                                "duration" : 2920,
                                "mediaStart" : 0,
                                "mediaDuration" : 2920,
                                "scalar" : 1,
                                "animationTracks" : {

                                }
                              }
,
                          "start" : 0,
                          "duration" : 2920,
                          "mediaStart" : 0,
                          "mediaDuration" : 6324,
                          "scalar" : 1,
                          "metadata" : {
                            "WinSubProjectDisplayName" : "",
                            "clipSpeedAttribute" : false
                          }
                        },
                        {
                          "id" : 42,
                          "_type" : "UnifiedMedia",
                          "video" : 
                              {
                                "id" : 43,
                                "_type" : "VMFile",
                                "src" : 2,
                                "trackNumber" : 0,
                                "attributes" : {
                                  "ident" : "2018-03-01_18-46-53"
                                },
                                "effects" : [

                                ],
                                "start" : 2920,
                                "duration" : 877,
                                "mediaStart" : 3219,
                                "mediaDuration" : 877,
                                "scalar" : 1,
                                "animationTracks" : {

                                }
                              },
                          "audio" : 
                              {
                                "id" : 44,
                                "_type" : "AMFile",
                                "src" : 2,
                                "trackNumber" : 1,
                                "attributes" : {
                                  "ident" : "",
                                  "sampleRate" : 44100,
                                  "bitDepth" : 16,
                                  "gain" : 1.0,
                                  "mixToMono" : false
                                },
                                  "channelNumber" : "0",
                                "effects" : [

                                ],
                                "start" : 2920,
                                "duration" : 877,
                                "mediaStart" : 3219,
                                "mediaDuration" : 877,
                                "scalar" : 1,
                                "animationTracks" : {

                                }
                              }
,
                          "start" : 2920,
                          "duration" : 877,
                          "mediaStart" : 0,
                          "mediaDuration" : 6324,
                          "scalar" : 1,
                          "metadata" : {
                            "WinSubProjectDisplayName" : "",
                            "clipSpeedAttribute" : false
                          }
                        },
                        {
                          "id" : 45,
                          "_type" : "UnifiedMedia",
                          "video" : 
                              {
                                "id" : 46,
                                "_type" : "VMFile",
                                "src" : 2,
                                "trackNumber" : 0,
                                "attributes" : {
                                  "ident" : "2018-03-01_18-46-53"
                                },
                                "effects" : [

                                ],
                                "start" : 3797,
                                "duration" : 717,
                                "mediaStart" : 4335,
                                "mediaDuration" : 717,
                                "scalar" : 1,
                                "animationTracks" : {

                                }
                              },
                          "audio" : 
                              {
                                "id" : 47,
                                "_type" : "AMFile",
                                "src" : 2,
                                "trackNumber" : 1,
                                "attributes" : {
                                  "ident" : "",
                                  "sampleRate" : 44100,
                                  "bitDepth" : 16,
                                  "gain" : 1.0,
                                  "mixToMono" : false
                                },
                                  "channelNumber" : "0",
                                "effects" : [

                                ],
                                "start" : 3797,
                                "duration" : 717,
                                "mediaStart" : 4335,
                                "mediaDuration" : 717,
                                "scalar" : 1,
                                "animationTracks" : {

                                }
                              }
,
                          "start" : 3797,
                          "duration" : 717,
                          "mediaStart" : 0,
                          "mediaDuration" : 6324,
                          "scalar" : 1,
                          "metadata" : {
                            "WinSubProjectDisplayName" : "",
                            "clipSpeedAttribute" : false
                          }
                        },
                        {
                          "id" : 48,
                          "_type" : "UnifiedMedia",
                          "video" : 
                              {
                                "id" : 49,
                                "_type" : "VMFile",
                                "src" : 2,
                                "trackNumber" : 0,
                                "attributes" : {
                                  "ident" : "2018-03-01_18-46-53"
                                },
                                "effects" : [

                                ],
                                "start" : 4514,
                                "duration" : 1053,
                                "mediaStart" : 5271,
                                "mediaDuration" : 1053,
                                "scalar" : 1,
                                "animationTracks" : {

                                }
                              },
                          "audio" : 
                              {
                                "id" : 50,
                                "_type" : "AMFile",
                                "src" : 2,
                                "trackNumber" : 1,
                                "attributes" : {
                                  "ident" : "",
                                  "sampleRate" : 44100,
                                  "bitDepth" : 16,
                                  "gain" : 1.0,
                                  "mixToMono" : false
                                },
                                  "channelNumber" : "0",
                                "effects" : [

                                ],
                                "start" : 4514,
                                "duration" : 1053,
                                "mediaStart" : 5271,
                                "mediaDuration" : 1053,
                                "scalar" : 1,
                                "animationTracks" : {

                                }
                              }
,
                          "start" : 4514,
                          "duration" : 1053,
                          "mediaStart" : 0,
                          "mediaDuration" : 6324,
                          "scalar" : 1,
                          "metadata" : {
                            "WinSubProjectDisplayName" : "",
                            "clipSpeedAttribute" : false
                          }
                        }
                    ],
                    "effects" : [

                    ],
                    "start" : 364,
                    "duration" : 5418,
                    "mediaStart" : 149,
                    "mediaDuration" : 5418,
                    "scalar" : 1,
                    "metadata" : {
                      "WinSubProjectDisplayName" : "",
                      "clipSpeedAttribute" : false
                    },
                    "animationTracks" : {

                    }
                  },
                  {
                    "id" : 51,
                    "_type" : "Callout",
                    "def" : {
                      "kind" : "remix",
                      "shape" : "text-rectangle",
                      "style" : "basic",
                      "fill-color-blue" : 1.0,
                      "fill-color-green" : 1.0,
                      "fill-color-opacity" : 1.0,
                      "fill-color-red" : 1.0,
                      "height" : 719.999999999891,
                      "stroke-color-blue" : 0.56078431372549,
                      "stroke-color-green" : 0.686274509803922,
                      "stroke-color-opacity" : 1.0,
                      "stroke-color-red" : 0.0196078431372549,
                      "stroke-width" : 2.0,
                      "tail-x" : 2.44995135290083e-11,
                      "tail-y" : -19.9999999999923,
                      "width" : 1279.99999999973,
                      "word-wrap" : 1.0,
                      "fill-style" : "solid",
                      "horizontal-alignment" : "center",
                      "stroke-style" : "solid",
                      "text" : "Geometry",
                      "vertical-alignment" : "center",
                      "font" : {
                        "color-blue" : 0.266666666666667,
                        "color-green" : 0.231372549019608,
                        "color-opacity" : 1.0,
                        "color-red" : 0.184313725490196,
                        "size" : 64.0,
                        "tracking" : 0.0,
                        "name" : "Montserrat",
                        "weight" : "Regular"
                      },
                      "textAttributes" : {
                        "type" : "textAttributeList",
                        "keyframes" : [
                          {
                            "time" : 0,
                            "value" : [{"name":"fontSize","rangeEnd":8,"rangeStart":0,"value":64,"valueType":"double"},{"name":"fgColor","rangeEnd":8,"rangeStart":0,"value":"(47,59,68,255)","valueType":"color"},{"name":"fontName","rangeEnd":8,"rangeStart":0,"value":"Montserrat","valueType":"string"},{"name":"underline","rangeEnd":8,"rangeStart":0,"value":0,"valueType":"int"},{"name":"fontItalic","rangeEnd":8,"rangeStart":0,"value":0,"valueType":"int"},{"name":"fontWeight","rangeEnd":8,"rangeStart":0,"value":100,"valueType":"int"},{"name":"strikethrough","rangeEnd":8,"rangeStart":0,"value":0,"valueType":"int"}],
                            "duration" : 0
                          }
                        ]
                      }
                    },
                    "attributes" : {
                      "autoRotateText" : true
                    },
                    "parameters" : {
                      "translation0" : -2.44995135290083e-11,
                      "translation1" : -7.67386154620908e-12
                    },
                    "effects" : [
                        {
                          "effectName" : "DropShadow",
                          "parameters" : {
                            "angle" : 5.49778714378214,
                            "blur" : 10.0,
                            "color-alpha" : 1.0,
                            "color-blue" : 0.1216,
                            "color-green" : 0.1216,
                            "color-red" : 0.1216,
                            "enabled" : 1,
                            "offset" : 10.0,
                            "opacity" : 0.4
                          }
                        }
                    ],
                    "start" : 5782,
                    "duration" : 267,
                    "mediaStart" : 0,
                    "mediaDuration" : 267,
                    "scalar" : 1,
                    "metadata" : {
                      "WinSubProjectDisplayName" : "",
                      "clipSpeedAttribute" : false,
                      "default-HAlign" : "center",
                      "default-VAlign" : "center",
                      "default-text-attributes" : null
                    },
                    "animationTracks" : {

                    }
                  },
                  {
                    "id" : 52,
                    "_type" : "Callout",
                    "def" : {
                      "kind" : "remix",
                      "shape" : "text-rectangle",
                      "style" : "basic",
                      "fill-color-blue" : {
                        "type" : "double",
                        "defaultValue" : 1.0,
                        "interp" : "linr"
                      },
                      "fill-color-green" : {
                        "type" : "double",
                        "defaultValue" : 1.0,
                        "interp" : "linr"
                      },
                      "fill-color-opacity" : {
                        "type" : "double",
                        "defaultValue" : 1.0,
                        "interp" : "linr"
                      },
                      "fill-color-red" : {
                        "type" : "double",
                        "defaultValue" : 1.0,
                        "interp" : "linr"
                      },
                      "height" : {
                        "type" : "double",
                        "defaultValue" : 719.999999999891,
                        "interp" : "linr"
                      },
                      "stroke-color-blue" : {
                        "type" : "double",
                        "defaultValue" : 0.56078431372549,
                        "interp" : "linr"
                      },
                      "stroke-color-green" : {
                        "type" : "double",
                        "defaultValue" : 0.686274509803922,
                        "interp" : "linr"
                      },
                      "stroke-color-opacity" : {
                        "type" : "double",
                        "defaultValue" : 1.0,
                        "interp" : "linr"
                      },
                      "stroke-color-red" : {
                        "type" : "double",
                        "defaultValue" : 0.0196078431372549,
                        "interp" : "linr"
                      },
                      "stroke-width" : {
                        "type" : "double",
                        "defaultValue" : 2.0,
                        "interp" : "linr"
                      },
                      "tail-x" : {
                        "type" : "double",
                        "defaultValue" : 2.44995135290083e-11,
                        "interp" : "linr"
                      },
                      "tail-y" : {
                        "type" : "double",
                        "defaultValue" : -19.9999999999923,
                        "interp" : "linr"
                      },
                      "width" : {
                        "type" : "double",
                        "defaultValue" : 1279.99999999973,
                        "interp" : "linr"
                      },
                      "word-wrap" : {
                        "type" : "double",
                        "defaultValue" : 1.0,
                        "interp" : "linr"
                      },
                      "fill-style" : "solid",
                      "horizontal-alignment" : "center",
                      "stroke-style" : "solid",
                      "text" : "Geometry",
                      "vertical-alignment" : "center",
                      "font" : {
                        "color-blue" : {
                          "type" : "double",
                          "defaultValue" : 0.266666666666667,
                          "interp" : "linr"
                        },
                        "color-green" : {
                          "type" : "double",
                          "defaultValue" : 0.231372549019608,
                          "interp" : "linr"
                        },
                        "color-opacity" : {
                          "type" : "double",
                          "defaultValue" : 1.0,
                          "interp" : "linr"
                        },
                        "color-red" : {
                          "type" : "double",
                          "defaultValue" : 0.184313725490196,
                          "interp" : "linr"
                        },
                        "size" : {
                          "type" : "double",
                          "defaultValue" : 64.0,
                          "interp" : "linr"
                        },
                        "tracking" : {
                          "type" : "double",
                          "defaultValue" : 0.0,
                          "interp" : "linr"
                        },
                        "name" : "Montserrat",
                        "weight" : "Regular"
                      },
                      "textAttributes" : {
                        "type" : "textAttributeList",
                        "keyframes" : [
                          {
                            "time" : 0,
                            "value" : [{"name":"fontSize","rangeEnd":8,"rangeStart":0,"value":64,"valueType":"double"},{"name":"fgColor","rangeEnd":8,"rangeStart":0,"value":"(47,59,68,255)","valueType":"color"},{"name":"fontName","rangeEnd":8,"rangeStart":0,"value":"Montserrat","valueType":"string"},{"name":"underline","rangeEnd":8,"rangeStart":0,"value":0,"valueType":"int"},{"name":"fontItalic","rangeEnd":8,"rangeStart":0,"value":0,"valueType":"int"},{"name":"fontWeight","rangeEnd":8,"rangeStart":0,"value":100,"valueType":"int"},{"name":"strikethrough","rangeEnd":8,"rangeStart":0,"value":0,"valueType":"int"}],
                            "duration" : 0
                          }
                        ]
                      }
                    },
                    "attributes" : {
                      "autoRotateText" : true
                    },
                    "parameters" : {
                      "translation0" : {
                        "type" : "double",
                        "defaultValue" : -2.44995135290083e-11,
                        "interp" : "eioe"
                      },
                      "translation1" : {
                        "type" : "double",
                        "defaultValue" : -7.67386154620908e-12,
                        "interp" : "eioe"
                      }
                    },
                    "effects" : [
                        {
                          "effectName" : "DropShadow",
                          "parameters" : {
                            "angle" : {
                              "type" : "double",
                              "defaultValue" : 5.49778714378214,
                              "interp" : "linr",
                              "uiHints" : {
                                "userInterfaceType" : 0,
                                "unitType" : 0
                              }
                            },
                            "blur" : {
                              "type" : "double",
                              "defaultValue" : 10.0,
                              "interp" : "linr",
                              "uiHints" : {
                                "userInterfaceType" : 0,
                                "unitType" : 0
                              }
                            },
                            "color-alpha" : {
                              "type" : "double",
                              "defaultValue" : 1.0,
                              "interp" : "linr",
                              "uiHints" : {
                                "userInterfaceType" : 0,
                                "unitType" : 0
                              }
                            },
                            "color-blue" : {
                              "type" : "double",
                              "defaultValue" : 0.1216,
                              "interp" : "linr",
                              "uiHints" : {
                                "userInterfaceType" : 0,
                                "unitType" : 0
                              }
                            },
                            "color-green" : {
                              "type" : "double",
                              "defaultValue" : 0.1216,
                              "interp" : "linr",
                              "uiHints" : {
                                "userInterfaceType" : 0,
                                "unitType" : 0
                              }
                            },
                            "color-red" : {
                              "type" : "double",
                              "defaultValue" : 0.1216,
                              "interp" : "linr",
                              "uiHints" : {
                                "userInterfaceType" : 0,
                                "unitType" : 0
                              }
                            },
                            "enabled" : 1,
                            "offset" : {
                              "type" : "double",
                              "defaultValue" : 10.0,
                              "interp" : "linr",
                              "uiHints" : {
                                "userInterfaceType" : 0,
                                "unitType" : 0
                              }
                            },
                            "opacity" : {
                              "type" : "double",
                              "defaultValue" : 0.4,
                              "interp" : "linr",
                              "uiHints" : {
                                "userInterfaceType" : 0,
                                "unitType" : 0
                              }
                            }
                          }
                        }
                    ],
                    "start" : 6049,
                    "duration" : 67,
                    "mediaStart" : 382,
                    "mediaDuration" : 67,
                    "scalar" : 1,
                    "metadata" : {
                      "WinSubProjectDisplayName" : "",
                      "clipSpeedAttribute" : false,
                      "default-HAlign" : "center",
                      "default-VAlign" : "center",
                      "default-text-attributes" : null
                    },
                    "animationTracks" : {

                    }
                  },
                  {
                    "id" : 53,
                    "_type" : "UnifiedMedia",
                    "video" : 
                        {
                          "id" : 54,
                          "_type" : "VMFile",
                          "src" : 3,
                          "trackNumber" : 0,
                          "attributes" : {
                            "ident" : "2018-03-01_17-56-29"
                          },
                          "effects" : [

                          ],
                          "start" : 6116,
                          "duration" : 9316,
                          "mediaStart" : 0,
                          "mediaDuration" : 9316,
                          "scalar" : 1,
                          "animationTracks" : {

                          }
                        },
                    "audio" : 
                        {
                          "id" : 55,
                          "_type" : "AMFile",
                          "src" : 3,
                          "trackNumber" : 1,
                          "attributes" : {
                            "ident" : "",
                            "sampleRate" : 44100,
                            "bitDepth" : 16,
                            "gain" : 1.0,
                            "mixToMono" : false
                          },
                            "channelNumber" : "0",
                          "effects" : [

                          ],
                          "start" : 6116,
                          "duration" : 9316,
                          "mediaStart" : 0,
                          "mediaDuration" : 9316,
                          "scalar" : 1,
                          "animationTracks" : {

                          }
                        }
,
                    "start" : 6116,
                    "duration" : 9316,
                    "mediaStart" : 0,
                    "mediaDuration" : 37361,
                    "scalar" : 1,
                    "metadata" : {
                      "WinSubProjectDisplayName" : "",
                      "clipSpeedAttribute" : false
                    }
                  },
                  {
                    "id" : 56,
                    "_type" : "Callout",
                    "def" : {
                      "kind" : "remix",
                      "shape" : "text-rectangle",
                      "style" : "basic",
                      "fill-color-blue" : 1.0,
                      "fill-color-green" : 1.0,
                      "fill-color-opacity" : 1.0,
                      "fill-color-red" : 1.0,
                      "height" : 719.999999999866,
                      "stroke-color-blue" : 0.56078431372549,
                      "stroke-color-green" : 0.686274509803922,
                      "stroke-color-opacity" : 1.0,
                      "stroke-color-red" : 0.0196078431372549,
                      "stroke-width" : 2.0,
                      "tail-x" : 2.00941485672956e-11,
                      "tail-y" : -19.9999999999719,
                      "width" : 1279.99999999972,
                      "word-wrap" : 1.0,
                      "fill-style" : "solid",
                      "horizontal-alignment" : "center",
                      "stroke-style" : "solid",
                      "text" : "Material",
                      "vertical-alignment" : "center",
                      "font" : {
                        "color-blue" : 0.266666666666667,
                        "color-green" : 0.231372549019608,
                        "color-opacity" : 1.0,
                        "color-red" : 0.184313725490196,
                        "size" : 64.0,
                        "tracking" : 0.0,
                        "name" : "Montserrat",
                        "weight" : "Regular"
                      },
                      "textAttributes" : {
                        "type" : "textAttributeList",
                        "keyframes" : [
                          {
                            "time" : 0,
                            "value" : [{"name":"fgColor","rangeEnd":8,"rangeStart":0,"value":"(47,59,68,255)","valueType":"color"},{"name":"fontName","rangeEnd":8,"rangeStart":0,"value":"Montserrat","valueType":"string"},{"name":"fontItalic","rangeEnd":8,"rangeStart":0,"value":0,"valueType":"int"},{"name":"underline","rangeEnd":8,"rangeStart":0,"value":0,"valueType":"int"},{"name":"fontWeight","rangeEnd":8,"rangeStart":0,"value":100,"valueType":"int"},{"name":"fontSize","rangeEnd":8,"rangeStart":0,"value":64,"valueType":"double"},{"name":"strikethrough","rangeEnd":8,"rangeStart":0,"value":0,"valueType":"int"}],
                            "duration" : 0
                          }
                        ]
                      }
                    },
                    "attributes" : {
                      "autoRotateText" : true
                    },
                    "parameters" : {
                      "translation0" : -2.00941485672956e-11,
                      "translation1" : -2.80522272078088e-11
                    },
                    "effects" : [
                        {
                          "effectName" : "DropShadow",
                          "parameters" : {
                            "angle" : 5.49778714378214,
                            "blur" : 10.0,
                            "color-alpha" : 1.0,
                            "color-blue" : 0.1216,
                            "color-green" : 0.1216,
                            "color-red" : 0.1216,
                            "enabled" : 1,
                            "offset" : 10.0,
                            "opacity" : 0.4
                          }
                        }
                    ],
                    "start" : 15432,
                    "duration" : 264,
                    "mediaStart" : 0,
                    "mediaDuration" : 264,
                    "scalar" : 1,
                    "metadata" : {
                      "WinSubProjectDisplayName" : "",
                      "clipSpeedAttribute" : false,
                      "default-HAlign" : "center",
                      "default-VAlign" : "center",
                      "default-text-attributes" : null
                    },
                    "animationTracks" : {

                    }
                  },
                  {
                    "id" : 57,
                    "_type" : "UnifiedMedia",
                    "video" : 
                        {
                          "id" : 58,
                          "_type" : "VMFile",
                          "src" : 3,
                          "trackNumber" : 0,
                          "attributes" : {
                            "ident" : "2018-03-01_17-56-29"
                          },
                          "effects" : [

                          ],
                          "start" : 15696,
                          "duration" : 7522,
                          "mediaStart" : 9316,
                          "mediaDuration" : 7522,
                          "scalar" : 1,
                          "animationTracks" : {

                          }
                        },
                    "audio" : 
                        {
                          "id" : 59,
                          "_type" : "AMFile",
                          "src" : 3,
                          "trackNumber" : 1,
                          "attributes" : {
                            "ident" : "",
                            "sampleRate" : 44100,
                            "bitDepth" : 16,
                            "gain" : 1.0,
                            "mixToMono" : false
                          },
                            "channelNumber" : "0",
                          "effects" : [

                          ],
                          "start" : 15696,
                          "duration" : 7522,
                          "mediaStart" : 9316,
                          "mediaDuration" : 7522,
                          "scalar" : 1,
                          "animationTracks" : {

                          }
                        }
,
                    "start" : 15696,
                    "duration" : 7522,
                    "mediaStart" : 0,
                    "mediaDuration" : 37361,
                    "scalar" : 1,
                    "metadata" : {
                      "WinSubProjectDisplayName" : "",
                      "clipSpeedAttribute" : false
                    }
                  },
                  {
                    "id" : 60,
                    "_type" : "Callout",
                    "def" : {
                      "kind" : "remix",
                      "shape" : "text-rectangle",
                      "style" : "basic",
                      "fill-color-blue" : 1.0,
                      "fill-color-green" : 1.0,
                      "fill-color-opacity" : 1.0,
                      "fill-color-red" : 1.0,
                      "height" : 719.999999999866,
                      "stroke-color-blue" : 0.56078431372549,
                      "stroke-color-green" : 0.686274509803922,
                      "stroke-color-opacity" : 1.0,
                      "stroke-color-red" : 0.0196078431372549,
                      "stroke-width" : 2.0,
                      "tail-x" : 2.00941485672956e-11,
                      "tail-y" : -19.9999999999719,
                      "width" : 1279.99999999972,
                      "word-wrap" : 1.0,
                      "fill-style" : "solid",
                      "horizontal-alignment" : "center",
                      "stroke-style" : "solid",
                      "text" : "Assembely",
                      "vertical-alignment" : "center",
                      "font" : {
                        "color-blue" : 0.266666666666667,
                        "color-green" : 0.231372549019608,
                        "color-opacity" : 1.0,
                        "color-red" : 0.184313725490196,
                        "size" : 64.0,
                        "tracking" : 0.0,
                        "name" : "Montserrat",
                        "weight" : "Regular"
                      },
                      "textAttributes" : {
                        "type" : "textAttributeList",
                        "keyframes" : [
                          {
                            "time" : 0,
                            "value" : [{"name":"underline","rangeEnd":9,"rangeStart":0,"value":0,"valueType":"int"},{"name":"fontWeight","rangeEnd":9,"rangeStart":0,"value":100,"valueType":"int"},{"name":"strikethrough","rangeEnd":9,"rangeStart":0,"value":0,"valueType":"int"},{"name":"fontItalic","rangeEnd":9,"rangeStart":0,"value":0,"valueType":"int"},{"name":"fgColor","rangeEnd":9,"rangeStart":0,"value":"(47,59,68,255)","valueType":"color"},{"name":"fontSize","rangeEnd":9,"rangeStart":0,"value":64,"valueType":"double"},{"name":"fontName","rangeEnd":9,"rangeStart":0,"value":"Montserrat","valueType":"string"}],
                            "duration" : 0
                          }
                        ]
                      }
                    },
                    "attributes" : {
                      "autoRotateText" : true
                    },
                    "parameters" : {
                      "translation0" : -2.00941485672956e-11,
                      "translation1" : -2.80522272078088e-11
                    },
                    "effects" : [
                        {
                          "effectName" : "DropShadow",
                          "parameters" : {
                            "angle" : 5.49778714378214,
                            "blur" : 10.0,
                            "color-alpha" : 1.0,
                            "color-blue" : 0.1216,
                            "color-green" : 0.1216,
                            "color-red" : 0.1216,
                            "enabled" : 1,
                            "offset" : 10.0,
                            "opacity" : 0.4
                          }
                        }
                    ],
                    "start" : 23218,
                    "duration" : 429,
                    "mediaStart" : 0,
                    "mediaDuration" : 429,
                    "scalar" : 1,
                    "metadata" : {
                      "WinSubProjectDisplayName" : "",
                      "clipSpeedAttribute" : false,
                      "default-HAlign" : "center",
                      "default-VAlign" : "center",
                      "default-text-attributes" : null
                    },
                    "animationTracks" : {

                    }
                  },
                  {
                    "id" : 61,
                    "_type" : "UnifiedMedia",
                    "video" : 
                        {
                          "id" : 62,
                          "_type" : "VMFile",
                          "src" : 3,
                          "trackNumber" : 0,
                          "attributes" : {
                            "ident" : "2018-03-01_17-56-29"
                          },
                          "effects" : [

                          ],
                          "start" : 23647,
                          "duration" : 766,
                          "mediaStart" : 16838,
                          "mediaDuration" : 766,
                          "scalar" : 1,
                          "animationTracks" : {

                          }
                        },
                    "audio" : 
                        {
                          "id" : 63,
                          "_type" : "AMFile",
                          "src" : 3,
                          "trackNumber" : 1,
                          "attributes" : {
                            "ident" : "",
                            "sampleRate" : 44100,
                            "bitDepth" : 16,
                            "gain" : 1.0,
                            "mixToMono" : false
                          },
                            "channelNumber" : "0",
                          "effects" : [

                          ],
                          "start" : 23647,
                          "duration" : 766,
                          "mediaStart" : 16838,
                          "mediaDuration" : 766,
                          "scalar" : 1,
                          "animationTracks" : {

                          }
                        }
,
                    "start" : 23647,
                    "duration" : 766,
                    "mediaStart" : 0,
                    "mediaDuration" : 37361,
                    "scalar" : 1,
                    "metadata" : {
                      "WinSubProjectDisplayName" : "",
                      "clipSpeedAttribute" : false
                    }
                  },
                  {
                    "id" : 64,
                    "_type" : "Callout",
                    "def" : {
                      "kind" : "remix",
                      "shape" : "text-rectangle",
                      "style" : "basic",
                      "fill-color-blue" : 1.0,
                      "fill-color-green" : 1.0,
                      "fill-color-opacity" : 1.0,
                      "fill-color-red" : 1.0,
                      "height" : 719.999999999866,
                      "stroke-color-blue" : 0.56078431372549,
                      "stroke-color-green" : 0.686274509803922,
                      "stroke-color-opacity" : 1.0,
                      "stroke-color-red" : 0.0196078431372549,
                      "stroke-width" : 2.0,
                      "tail-x" : -9.03810359886847e-12,
                      "tail-y" : -19.9999999999719,
                      "width" : 1279.99999999978,
                      "word-wrap" : 1.0,
                      "fill-style" : "solid",
                      "horizontal-alignment" : "center",
                      "stroke-style" : "solid",
                      "text" : "Step",
                      "vertical-alignment" : "center",
                      "font" : {
                        "color-blue" : 0.266666666666667,
                        "color-green" : 0.231372549019608,
                        "color-opacity" : 1.0,
                        "color-red" : 0.184313725490196,
                        "size" : 64.0,
                        "tracking" : 0.0,
                        "name" : "Montserrat",
                        "weight" : "Regular"
                      },
                      "textAttributes" : {
                        "type" : "textAttributeList",
                        "keyframes" : [
                          {
                            "time" : 0,
                            "value" : [{"name":"strikethrough","rangeEnd":4,"rangeStart":0,"value":0,"valueType":"int"},{"name":"fontSize","rangeEnd":4,"rangeStart":0,"value":64,"valueType":"double"},{"name":"fontItalic","rangeEnd":4,"rangeStart":0,"value":0,"valueType":"int"},{"name":"fgColor","rangeEnd":4,"rangeStart":0,"value":"(47,59,68,255)","valueType":"color"},{"name":"fontName","rangeEnd":4,"rangeStart":0,"value":"Montserrat","valueType":"string"},{"name":"fontWeight","rangeEnd":4,"rangeStart":0,"value":100,"valueType":"int"},{"name":"underline","rangeEnd":4,"rangeStart":0,"value":0,"valueType":"int"}],
                            "duration" : 0
                          }
                        ]
                      }
                    },
                    "attributes" : {
                      "autoRotateText" : true
                    },
                    "parameters" : {
                      "translation0" : 9.03810359886847e-12,
                      "translation1" : -2.80522272078088e-11
                    },
                    "effects" : [
                        {
                          "effectName" : "DropShadow",
                          "parameters" : {
                            "angle" : 5.49778714378214,
                            "blur" : 10.0,
                            "color-alpha" : 1.0,
                            "color-blue" : 0.1216,
                            "color-green" : 0.1216,
                            "color-red" : 0.1216,
                            "enabled" : 1,
                            "offset" : 10.0,
                            "opacity" : 0.4
                          }
                        }
                    ],
                    "start" : 24413,
                    "duration" : 156,
                    "mediaStart" : 0,
                    "mediaDuration" : 156,
                    "scalar" : 1,
                    "metadata" : {
                      "WinSubProjectDisplayName" : "",
                      "clipSpeedAttribute" : false,
                      "default-HAlign" : "center",
                      "default-VAlign" : "center",
                      "default-text-attributes" : null
                    },
                    "animationTracks" : {

                    }
                  },
                  {
                    "id" : 65,
                    "_type" : "UnifiedMedia",
                    "video" : 
                        {
                          "id" : 66,
                          "_type" : "VMFile",
                          "src" : 3,
                          "trackNumber" : 0,
                          "attributes" : {
                            "ident" : "2018-03-01_17-56-29"
                          },
                          "effects" : [

                          ],
                          "start" : 24569,
                          "duration" : 3338,
                          "mediaStart" : 17604,
                          "mediaDuration" : 3338,
                          "scalar" : 1,
                          "animationTracks" : {

                          }
                        },
                    "audio" : 
                        {
                          "id" : 67,
                          "_type" : "AMFile",
                          "src" : 3,
                          "trackNumber" : 1,
                          "attributes" : {
                            "ident" : "",
                            "sampleRate" : 44100,
                            "bitDepth" : 16,
                            "gain" : 1.0,
                            "mixToMono" : false
                          },
                            "channelNumber" : "0",
                          "effects" : [

                          ],
                          "start" : 24569,
                          "duration" : 3338,
                          "mediaStart" : 17604,
                          "mediaDuration" : 3338,
                          "scalar" : 1,
                          "animationTracks" : {

                          }
                        }
,
                    "start" : 24569,
                    "duration" : 3338,
                    "mediaStart" : 0,
                    "mediaDuration" : 37361,
                    "scalar" : 1,
                    "metadata" : {
                      "WinSubProjectDisplayName" : "",
                      "clipSpeedAttribute" : false
                    }
                  },
                  {
                    "id" : 68,
                    "_type" : "Callout",
                    "def" : {
                      "kind" : "remix",
                      "shape" : "text-rectangle",
                      "style" : "basic",
                      "fill-color-blue" : 1.0,
                      "fill-color-green" : 1.0,
                      "fill-color-opacity" : 1.0,
                      "fill-color-red" : 1.0,
                      "height" : 719.999999999866,
                      "stroke-color-blue" : 0.56078431372549,
                      "stroke-color-green" : 0.686274509803922,
                      "stroke-color-opacity" : 1.0,
                      "stroke-color-red" : 0.0196078431372549,
                      "stroke-width" : 2.0,
                      "tail-x" : 2.00941485672956e-11,
                      "tail-y" : -19.9999999999719,
                      "width" : 1279.99999999972,
                      "word-wrap" : 1.0,
                      "fill-style" : "solid",
                      "horizontal-alignment" : "center",
                      "stroke-style" : "solid",
                      "text" : "Contact",
                      "vertical-alignment" : "center",
                      "font" : {
                        "color-blue" : 0.266666666666667,
                        "color-green" : 0.231372549019608,
                        "color-opacity" : 1.0,
                        "color-red" : 0.184313725490196,
                        "size" : 64.0,
                        "tracking" : 0.0,
                        "name" : "Montserrat",
                        "weight" : "Regular"
                      },
                      "textAttributes" : {
                        "type" : "textAttributeList",
                        "keyframes" : [
                          {
                            "time" : 0,
                            "value" : [{"name":"fontSize","rangeEnd":7,"rangeStart":0,"value":64,"valueType":"double"},{"name":"fgColor","rangeEnd":7,"rangeStart":0,"value":"(47,59,68,255)","valueType":"color"},{"name":"strikethrough","rangeEnd":7,"rangeStart":0,"value":0,"valueType":"int"},{"name":"fontItalic","rangeEnd":7,"rangeStart":0,"value":0,"valueType":"int"},{"name":"underline","rangeEnd":7,"rangeStart":0,"value":0,"valueType":"int"},{"name":"fontWeight","rangeEnd":7,"rangeStart":0,"value":100,"valueType":"int"},{"name":"fontName","rangeEnd":7,"rangeStart":0,"value":"Montserrat","valueType":"string"}],
                            "duration" : 0
                          }
                        ]
                      }
                    },
                    "attributes" : {
                      "autoRotateText" : true
                    },
                    "parameters" : {
                      "translation0" : -2.00941485672956e-11,
                      "translation1" : -2.80522272078088e-11
                    },
                    "effects" : [
                        {
                          "effectName" : "DropShadow",
                          "parameters" : {
                            "angle" : 5.49778714378214,
                            "blur" : 10.0,
                            "color-alpha" : 1.0,
                            "color-blue" : 0.1216,
                            "color-green" : 0.1216,
                            "color-red" : 0.1216,
                            "enabled" : 1,
                            "offset" : 10.0,
                            "opacity" : 0.4
                          }
                        }
                    ],
                    "start" : 27907,
                    "duration" : 289,
                    "mediaStart" : 0,
                    "mediaDuration" : 289,
                    "scalar" : 1,
                    "metadata" : {
                      "WinSubProjectDisplayName" : "",
                      "clipSpeedAttribute" : false,
                      "default-HAlign" : "center",
                      "default-VAlign" : "center",
                      "default-text-attributes" : null
                    },
                    "animationTracks" : {

                    }
                  },
                  {
                    "id" : 69,
                    "_type" : "UnifiedMedia",
                    "video" : 
                        {
                          "id" : 70,
                          "_type" : "VMFile",
                          "src" : 4,
                          "trackNumber" : 0,
                          "attributes" : {
                            "ident" : "2018-03-01_18-32-05"
                          },
                          "effects" : [

                          ],
                          "start" : 28196,
                          "duration" : 4830,
                          "mediaStart" : 0,
                          "mediaDuration" : 4830,
                          "scalar" : 1,
                          "animationTracks" : {

                          }
                        },
                    "audio" : 
                        {
                          "id" : 71,
                          "_type" : "AMFile",
                          "src" : 4,
                          "trackNumber" : 1,
                          "attributes" : {
                            "ident" : "",
                            "sampleRate" : 44100,
                            "bitDepth" : 16,
                            "gain" : 1.0,
                            "mixToMono" : false
                          },
                            "channelNumber" : "0",
                          "effects" : [

                          ],
                          "start" : 28196,
                          "duration" : 4830,
                          "mediaStart" : 0,
                          "mediaDuration" : 4830,
                          "scalar" : 1,
                          "animationTracks" : {

                          }
                        }
,
                    "start" : 28196,
                    "duration" : 4830,
                    "mediaStart" : 0,
                    "mediaDuration" : 4830,
                    "scalar" : 1,
                    "metadata" : {
                      "WinSubProjectDisplayName" : "",
                      "clipSpeedAttribute" : false
                    }
                  },
                  {
                    "id" : 72,
                    "_type" : "Callout",
                    "def" : {
                      "kind" : "remix",
                      "shape" : "text-rectangle",
                      "style" : "basic",
                      "fill-color-blue" : 1.0,
                      "fill-color-green" : 1.0,
                      "fill-color-opacity" : 1.0,
                      "fill-color-red" : 1.0,
                      "height" : 719.999999999866,
                      "stroke-color-blue" : 0.56078431372549,
                      "stroke-color-green" : 0.686274509803922,
                      "stroke-color-opacity" : 1.0,
                      "stroke-color-red" : 0.0196078431372549,
                      "stroke-width" : 2.0,
                      "tail-x" : 2.00088834390044e-11,
                      "tail-y" : -19.9999999999719,
                      "width" : 1279.99999999972,
                      "word-wrap" : 1.0,
                      "fill-style" : "solid",
                      "horizontal-alignment" : "center",
                      "stroke-style" : "solid",
                      "text" : "Load",
                      "vertical-alignment" : "center",
                      "font" : {
                        "color-blue" : 0.266666666666667,
                        "color-green" : 0.231372549019608,
                        "color-opacity" : 1.0,
                        "color-red" : 0.184313725490196,
                        "size" : 64.0,
                        "tracking" : 0.0,
                        "name" : "Montserrat",
                        "weight" : "Regular"
                      },
                      "textAttributes" : {
                        "type" : "textAttributeList",
                        "keyframes" : [
                          {
                            "time" : 0,
                            "value" : [{"name":"strikethrough","rangeEnd":4,"rangeStart":0,"value":0,"valueType":"int"},{"name":"fgColor","rangeEnd":4,"rangeStart":0,"value":"(47,59,68,255)","valueType":"color"},{"name":"underline","rangeEnd":4,"rangeStart":0,"value":0,"valueType":"int"},{"name":"fontItalic","rangeEnd":4,"rangeStart":0,"value":0,"valueType":"int"},{"name":"fontWeight","rangeEnd":4,"rangeStart":0,"value":100,"valueType":"int"},{"name":"fontSize","rangeEnd":4,"rangeStart":0,"value":64,"valueType":"double"},{"name":"fontName","rangeEnd":4,"rangeStart":0,"value":"Montserrat","valueType":"string"}],
                            "duration" : 0
                          }
                        ]
                      }
                    },
                    "attributes" : {
                      "autoRotateText" : true
                    },
                    "parameters" : {
                      "translation0" : -2.00088834390044e-11,
                      "translation1" : -2.80522272078088e-11
                    },
                    "effects" : [
                        {
                          "effectName" : "DropShadow",
                          "parameters" : {
                            "angle" : 5.49778714378214,
                            "blur" : 10.0,
                            "color-alpha" : 1.0,
                            "color-blue" : 0.1216,
                            "color-green" : 0.1216,
                            "color-red" : 0.1216,
                            "enabled" : 1,
                            "offset" : 10.0,
                            "opacity" : 0.4
                          }
                        }
                    ],
                    "start" : 33026,
                    "duration" : 26,
                    "mediaStart" : 0,
                    "mediaDuration" : 26,
                    "scalar" : 1,
                    "metadata" : {
                      "WinSubProjectDisplayName" : "",
                      "clipSpeedAttribute" : false,
                      "default-HAlign" : "center",
                      "default-VAlign" : "center",
                      "default-text-attributes" : null
                    },
                    "animationTracks" : {

                    }
                  },
                  {
                    "id" : 73,
                    "_type" : "Callout",
                    "def" : {
                      "kind" : "remix",
                      "shape" : "text-rectangle",
                      "style" : "basic",
                      "fill-color-blue" : {
                        "type" : "double",
                        "defaultValue" : 1.0,
                        "interp" : "linr"
                      },
                      "fill-color-green" : {
                        "type" : "double",
                        "defaultValue" : 1.0,
                        "interp" : "linr"
                      },
                      "fill-color-opacity" : {
                        "type" : "double",
                        "defaultValue" : 1.0,
                        "interp" : "linr"
                      },
                      "fill-color-red" : {
                        "type" : "double",
                        "defaultValue" : 1.0,
                        "interp" : "linr"
                      },
                      "height" : {
                        "type" : "double",
                        "defaultValue" : 719.999999999866,
                        "interp" : "linr"
                      },
                      "stroke-color-blue" : {
                        "type" : "double",
                        "defaultValue" : 0.56078431372549,
                        "interp" : "linr"
                      },
                      "stroke-color-green" : {
                        "type" : "double",
                        "defaultValue" : 0.686274509803922,
                        "interp" : "linr"
                      },
                      "stroke-color-opacity" : {
                        "type" : "double",
                        "defaultValue" : 1.0,
                        "interp" : "linr"
                      },
                      "stroke-color-red" : {
                        "type" : "double",
                        "defaultValue" : 0.0196078431372549,
                        "interp" : "linr"
                      },
                      "stroke-width" : {
                        "type" : "double",
                        "defaultValue" : 2.0,
                        "interp" : "linr"
                      },
                      "tail-x" : {
                        "type" : "double",
                        "defaultValue" : 2.00088834390044e-11,
                        "interp" : "linr"
                      },
                      "tail-y" : {
                        "type" : "double",
                        "defaultValue" : -19.9999999999719,
                        "interp" : "linr"
                      },
                      "width" : {
                        "type" : "double",
                        "defaultValue" : 1279.99999999972,
                        "interp" : "linr"
                      },
                      "word-wrap" : {
                        "type" : "double",
                        "defaultValue" : 1.0,
                        "interp" : "linr"
                      },
                      "fill-style" : "solid",
                      "horizontal-alignment" : "center",
                      "stroke-style" : "solid",
                      "text" : "Load",
                      "vertical-alignment" : "center",
                      "font" : {
                        "color-blue" : {
                          "type" : "double",
                          "defaultValue" : 0.266666666666667,
                          "interp" : "linr"
                        },
                        "color-green" : {
                          "type" : "double",
                          "defaultValue" : 0.231372549019608,
                          "interp" : "linr"
                        },
                        "color-opacity" : {
                          "type" : "double",
                          "defaultValue" : 1.0,
                          "interp" : "linr"
                        },
                        "color-red" : {
                          "type" : "double",
                          "defaultValue" : 0.184313725490196,
                          "interp" : "linr"
                        },
                        "size" : {
                          "type" : "double",
                          "defaultValue" : 64.0,
                          "interp" : "linr"
                        },
                        "tracking" : {
                          "type" : "double",
                          "defaultValue" : 0.0,
                          "interp" : "linr"
                        },
                        "name" : "Montserrat",
                        "weight" : "Regular"
                      },
                      "textAttributes" : {
                        "type" : "textAttributeList",
                        "keyframes" : [
                          {
                            "time" : 0,
                            "value" : [{"name":"strikethrough","rangeEnd":4,"rangeStart":0,"value":0,"valueType":"int"},{"name":"fgColor","rangeEnd":4,"rangeStart":0,"value":"(47,59,68,255)","valueType":"color"},{"name":"underline","rangeEnd":4,"rangeStart":0,"value":0,"valueType":"int"},{"name":"fontItalic","rangeEnd":4,"rangeStart":0,"value":0,"valueType":"int"},{"name":"fontWeight","rangeEnd":4,"rangeStart":0,"value":100,"valueType":"int"},{"name":"fontSize","rangeEnd":4,"rangeStart":0,"value":64,"valueType":"double"},{"name":"fontName","rangeEnd":4,"rangeStart":0,"value":"Montserrat","valueType":"string"}],
                            "duration" : 0
                          }
                        ]
                      }
                    },
                    "attributes" : {
                      "autoRotateText" : true
                    },
                    "parameters" : {
                      "translation0" : {
                        "type" : "double",
                        "defaultValue" : -2.00088834390044e-11,
                        "interp" : "eioe"
                      },
                      "translation1" : {
                        "type" : "double",
                        "defaultValue" : -2.80522272078088e-11,
                        "interp" : "eioe"
                      }
                    },
                    "effects" : [
                        {
                          "effectName" : "DropShadow",
                          "parameters" : {
                            "angle" : {
                              "type" : "double",
                              "defaultValue" : 5.49778714378214,
                              "interp" : "linr",
                              "uiHints" : {
                                "userInterfaceType" : 0,
                                "unitType" : 0
                              }
                            },
                            "blur" : {
                              "type" : "double",
                              "defaultValue" : 10.0,
                              "interp" : "linr",
                              "uiHints" : {
                                "userInterfaceType" : 0,
                                "unitType" : 0
                              }
                            },
                            "color-alpha" : {
                              "type" : "double",
                              "defaultValue" : 1.0,
                              "interp" : "linr",
                              "uiHints" : {
                                "userInterfaceType" : 0,
                                "unitType" : 0
                              }
                            },
                            "color-blue" : {
                              "type" : "double",
                              "defaultValue" : 0.1216,
                              "interp" : "linr",
                              "uiHints" : {
                                "userInterfaceType" : 0,
                                "unitType" : 0
                              }
                            },
                            "color-green" : {
                              "type" : "double",
                              "defaultValue" : 0.1216,
                              "interp" : "linr",
                              "uiHints" : {
                                "userInterfaceType" : 0,
                                "unitType" : 0
                              }
                            },
                            "color-red" : {
                              "type" : "double",
                              "defaultValue" : 0.1216,
                              "interp" : "linr",
                              "uiHints" : {
                                "userInterfaceType" : 0,
                                "unitType" : 0
                              }
                            },
                            "enabled" : 1,
                            "offset" : {
                              "type" : "double",
                              "defaultValue" : 10.0,
                              "interp" : "linr",
                              "uiHints" : {
                                "userInterfaceType" : 0,
                                "unitType" : 0
                              }
                            },
                            "opacity" : {
                              "type" : "double",
                              "defaultValue" : 0.4,
                              "interp" : "linr",
                              "uiHints" : {
                                "userInterfaceType" : 0,
                                "unitType" : 0
                              }
                            }
                          }
                        }
                    ],
                    "start" : 33052,
                    "duration" : 186,
                    "mediaStart" : 67,
                    "mediaDuration" : 186,
                    "scalar" : 1,
                    "metadata" : {
                      "WinSubProjectDisplayName" : "",
                      "clipSpeedAttribute" : false,
                      "default-HAlign" : "center",
                      "default-VAlign" : "center",
                      "default-text-attributes" : null
                    },
                    "animationTracks" : {

                    }
                  },
                  {
                    "id" : 74,
                    "_type" : "StitchedMedia",
                    "minMediaStart" : 0,
                    "attributes" : {
                      "ident" : "2018-03-01_17-56-29",
                      "gain" : 1.0,
                      "mixToMono" : false
                    },
                    "parameters" : {
                      "volume" : 1.0,
                      "cursorOpacity" : 1.0,
                      "cursorScale" : 1.0
                    },
                    "medias" : [
                        {
                          "id" : 75,
                          "_type" : "UnifiedMedia",
                          "video" : 
                              {
                                "id" : 76,
                                "_type" : "VMFile",
                                "src" : 3,
                                "trackNumber" : 0,
                                "attributes" : {
                                  "ident" : "2018-03-01_17-56-29"
                                },
                                "effects" : [

                                ],
                                "start" : 0,
                                "duration" : 20949,
                                "mediaStart" : 0,
                                "mediaDuration" : 20949,
                                "scalar" : 1,
                                "animationTracks" : {

                                }
                              },
                          "audio" : 
                              {
                                "id" : 77,
                                "_type" : "AMFile",
                                "src" : 3,
                                "trackNumber" : 1,
                                "attributes" : {
                                  "ident" : "",
                                  "sampleRate" : 44100,
                                  "bitDepth" : 16,
                                  "gain" : 1.0,
                                  "mixToMono" : false
                                },
                                  "channelNumber" : "0",
                                "effects" : [

                                ],
                                "start" : 0,
                                "duration" : 20949,
                                "mediaStart" : 0,
                                "mediaDuration" : 20949,
                                "scalar" : 1,
                                "animationTracks" : {

                                }
                              }
,
                          "start" : 0,
                          "duration" : 20949,
                          "mediaStart" : 0,
                          "mediaDuration" : 37361,
                          "scalar" : 1,
                          "metadata" : {
                            "WinSubProjectDisplayName" : "",
                            "clipSpeedAttribute" : false
                          }
                        },
                        {
                          "id" : 78,
                          "_type" : "UnifiedMedia",
                          "video" : 
                              {
                                "id" : 79,
                                "_type" : "VMFile",
                                "src" : 3,
                                "trackNumber" : 0,
                                "attributes" : {
                                  "ident" : "2018-03-01_17-56-29"
                                },
                                "effects" : [

                                ],
                                "start" : 20949,
                                "duration" : 13422,
                                "mediaStart" : 23939,
                                "mediaDuration" : 13422,
                                "scalar" : 1,
                                "animationTracks" : {

                                }
                              },
                          "audio" : 
                              {
                                "id" : 80,
                                "_type" : "AMFile",
                                "src" : 3,
                                "trackNumber" : 1,
                                "attributes" : {
                                  "ident" : "",
                                  "sampleRate" : 44100,
                                  "bitDepth" : 16,
                                  "gain" : 1.0,
                                  "mixToMono" : false
                                },
                                  "channelNumber" : "0",
                                "effects" : [

                                ],
                                "start" : 20949,
                                "duration" : 13422,
                                "mediaStart" : 23939,
                                "mediaDuration" : 13422,
                                "scalar" : 1,
                                "animationTracks" : {

                                }
                              }
,
                          "start" : 20949,
                          "duration" : 13422,
                          "mediaStart" : 0,
                          "mediaDuration" : 37361,
                          "scalar" : 1,
                          "metadata" : {
                            "WinSubProjectDisplayName" : "",
                            "clipSpeedAttribute" : false
                          }
                        }
                    ],
                    "effects" : [

                    ],
                    "start" : 33238,
                    "duration" : 2198,
                    "mediaStart" : 20942,
                    "mediaDuration" : 2198,
                    "scalar" : 1,
                    "metadata" : {
                      "WinSubProjectDisplayName" : "",
                      "clipSpeedAttribute" : false
                    },
                    "animationTracks" : {

                    }
                  },
                  {
                    "id" : 81,
                    "_type" : "Callout",
                    "def" : {
                      "kind" : "remix",
                      "shape" : "text-rectangle",
                      "style" : "basic",
                      "fill-color-blue" : 1.0,
                      "fill-color-green" : 1.0,
                      "fill-color-opacity" : 1.0,
                      "fill-color-red" : 1.0,
                      "height" : 719.999999999866,
                      "stroke-color-blue" : 0.56078431372549,
                      "stroke-color-green" : 0.686274509803922,
                      "stroke-color-opacity" : 1.0,
                      "stroke-color-red" : 0.0196078431372549,
                      "stroke-width" : 2.0,
                      "tail-x" : 2.00941485672956e-11,
                      "tail-y" : -19.9999999999719,
                      "width" : 1279.99999999972,
                      "word-wrap" : 1.0,
                      "fill-style" : "solid",
                      "horizontal-alignment" : "center",
                      "stroke-style" : "solid",
                      "text" : "Mesh",
                      "vertical-alignment" : "center",
                      "font" : {
                        "color-blue" : 0.266666666666667,
                        "color-green" : 0.231372549019608,
                        "color-opacity" : 1.0,
                        "color-red" : 0.184313725490196,
                        "size" : 64.0,
                        "tracking" : 0.0,
                        "name" : "Montserrat",
                        "weight" : "Regular"
                      },
                      "textAttributes" : {
                        "type" : "textAttributeList",
                        "keyframes" : [
                          {
                            "time" : 0,
                            "value" : [{"name":"fgColor","rangeEnd":4,"rangeStart":0,"value":"(47,59,68,255)","valueType":"color"},{"name":"fontName","rangeEnd":4,"rangeStart":0,"value":"Montserrat","valueType":"string"},{"name":"fontSize","rangeEnd":4,"rangeStart":0,"value":64,"valueType":"double"},{"name":"fontItalic","rangeEnd":4,"rangeStart":0,"value":0,"valueType":"int"},{"name":"underline","rangeEnd":4,"rangeStart":0,"value":0,"valueType":"int"},{"name":"fontWeight","rangeEnd":4,"rangeStart":0,"value":100,"valueType":"int"},{"name":"strikethrough","rangeEnd":4,"rangeStart":0,"value":0,"valueType":"int"}],
                            "duration" : 0
                          }
                        ]
                      }
                    },
                    "attributes" : {
                      "autoRotateText" : true
                    },
                    "parameters" : {
                      "translation0" : -2.00941485672956e-11,
                      "translation1" : -2.80522272078088e-11
                    },
                    "effects" : [
                        {
                          "effectName" : "DropShadow",
                          "parameters" : {
                            "angle" : 5.49778714378214,
                            "blur" : 10.0,
                            "color-alpha" : 1.0,
                            "color-blue" : 0.1216,
                            "color-green" : 0.1216,
                            "color-red" : 0.1216,
                            "enabled" : 1,
                            "offset" : 10.0,
                            "opacity" : 0.4
                          }
                        }
                    ],
                    "start" : 35436,
                    "duration" : 212,
                    "mediaStart" : 0,
                    "mediaDuration" : 212,
                    "scalar" : 1,
                    "metadata" : {
                      "WinSubProjectDisplayName" : "",
                      "clipSpeedAttribute" : false,
                      "default-HAlign" : "center",
                      "default-VAlign" : "center",
                      "default-text-attributes" : null
                    },
                    "animationTracks" : {

                    }
                  },
                  {
                    "id" : 82,
                    "_type" : "Callout",
                    "def" : {
                      "kind" : "remix",
                      "shape" : "text-rectangle",
                      "style" : "basic",
                      "fill-color-blue" : {
                        "type" : "double",
                        "defaultValue" : 1.0,
                        "interp" : "linr"
                      },
                      "fill-color-green" : {
                        "type" : "double",
                        "defaultValue" : 1.0,
                        "interp" : "linr"
                      },
                      "fill-color-opacity" : {
                        "type" : "double",
                        "defaultValue" : 1.0,
                        "interp" : "linr"
                      },
                      "fill-color-red" : {
                        "type" : "double",
                        "defaultValue" : 1.0,
                        "interp" : "linr"
                      },
                      "height" : {
                        "type" : "double",
                        "defaultValue" : 719.999999999866,
                        "interp" : "linr"
                      },
                      "stroke-color-blue" : {
                        "type" : "double",
                        "defaultValue" : 0.56078431372549,
                        "interp" : "linr"
                      },
                      "stroke-color-green" : {
                        "type" : "double",
                        "defaultValue" : 0.686274509803922,
                        "interp" : "linr"
                      },
                      "stroke-color-opacity" : {
                        "type" : "double",
                        "defaultValue" : 1.0,
                        "interp" : "linr"
                      },
                      "stroke-color-red" : {
                        "type" : "double",
                        "defaultValue" : 0.0196078431372549,
                        "interp" : "linr"
                      },
                      "stroke-width" : {
                        "type" : "double",
                        "defaultValue" : 2.0,
                        "interp" : "linr"
                      },
                      "tail-x" : {
                        "type" : "double",
                        "defaultValue" : 2.00941485672956e-11,
                        "interp" : "linr"
                      },
                      "tail-y" : {
                        "type" : "double",
                        "defaultValue" : -19.9999999999719,
                        "interp" : "linr"
                      },
                      "width" : {
                        "type" : "double",
                        "defaultValue" : 1279.99999999972,
                        "interp" : "linr"
                      },
                      "word-wrap" : {
                        "type" : "double",
                        "defaultValue" : 1.0,
                        "interp" : "linr"
                      },
                      "fill-style" : "solid",
                      "horizontal-alignment" : "center",
                      "stroke-style" : "solid",
                      "text" : "Mesh",
                      "vertical-alignment" : "center",
                      "font" : {
                        "color-blue" : {
                          "type" : "double",
                          "defaultValue" : 0.266666666666667,
                          "interp" : "linr"
                        },
                        "color-green" : {
                          "type" : "double",
                          "defaultValue" : 0.231372549019608,
                          "interp" : "linr"
                        },
                        "color-opacity" : {
                          "type" : "double",
                          "defaultValue" : 1.0,
                          "interp" : "linr"
                        },
                        "color-red" : {
                          "type" : "double",
                          "defaultValue" : 0.184313725490196,
                          "interp" : "linr"
                        },
                        "size" : {
                          "type" : "double",
                          "defaultValue" : 64.0,
                          "interp" : "linr"
                        },
                        "tracking" : {
                          "type" : "double",
                          "defaultValue" : 0.0,
                          "interp" : "linr"
                        },
                        "name" : "Montserrat",
                        "weight" : "Regular"
                      },
                      "textAttributes" : {
                        "type" : "textAttributeList",
                        "keyframes" : [
                          {
                            "time" : 0,
                            "value" : [{"name":"fgColor","rangeEnd":4,"rangeStart":0,"value":"(47,59,68,255)","valueType":"color"},{"name":"fontName","rangeEnd":4,"rangeStart":0,"value":"Montserrat","valueType":"string"},{"name":"fontSize","rangeEnd":4,"rangeStart":0,"value":64,"valueType":"double"},{"name":"fontItalic","rangeEnd":4,"rangeStart":0,"value":0,"valueType":"int"},{"name":"underline","rangeEnd":4,"rangeStart":0,"value":0,"valueType":"int"},{"name":"fontWeight","rangeEnd":4,"rangeStart":0,"value":100,"valueType":"int"},{"name":"strikethrough","rangeEnd":4,"rangeStart":0,"value":0,"valueType":"int"}],
                            "duration" : 0
                          }
                        ]
                      }
                    },
                    "attributes" : {
                      "autoRotateText" : true
                    },
                    "parameters" : {
                      "translation0" : {
                        "type" : "double",
                        "defaultValue" : -2.00941485672956e-11,
                        "interp" : "eioe"
                      },
                      "translation1" : {
                        "type" : "double",
                        "defaultValue" : -2.80522272078088e-11,
                        "interp" : "eioe"
                      }
                    },
                    "effects" : [
                        {
                          "effectName" : "DropShadow",
                          "parameters" : {
                            "angle" : {
                              "type" : "double",
                              "defaultValue" : 5.49778714378214,
                              "interp" : "linr",
                              "uiHints" : {
                                "userInterfaceType" : 0,
                                "unitType" : 0
                              }
                            },
                            "blur" : {
                              "type" : "double",
                              "defaultValue" : 10.0,
                              "interp" : "linr",
                              "uiHints" : {
                                "userInterfaceType" : 0,
                                "unitType" : 0
                              }
                            },
                            "color-alpha" : {
                              "type" : "double",
                              "defaultValue" : 1.0,
                              "interp" : "linr",
                              "uiHints" : {
                                "userInterfaceType" : 0,
                                "unitType" : 0
                              }
                            },
                            "color-blue" : {
                              "type" : "double",
                              "defaultValue" : 0.1216,
                              "interp" : "linr",
                              "uiHints" : {
                                "userInterfaceType" : 0,
                                "unitType" : 0
                              }
                            },
                            "color-green" : {
                              "type" : "double",
                              "defaultValue" : 0.1216,
                              "interp" : "linr",
                              "uiHints" : {
                                "userInterfaceType" : 0,
                                "unitType" : 0
                              }
                            },
                            "color-red" : {
                              "type" : "double",
                              "defaultValue" : 0.1216,
                              "interp" : "linr",
                              "uiHints" : {
                                "userInterfaceType" : 0,
                                "unitType" : 0
                              }
                            },
                            "enabled" : 1,
                            "offset" : {
                              "type" : "double",
                              "defaultValue" : 10.0,
                              "interp" : "linr",
                              "uiHints" : {
                                "userInterfaceType" : 0,
                                "unitType" : 0
                              }
                            },
                            "opacity" : {
                              "type" : "double",
                              "defaultValue" : 0.4,
                              "interp" : "linr",
                              "uiHints" : {
                                "userInterfaceType" : 0,
                                "unitType" : 0
                              }
                            }
                          }
                        }
                    ],
                    "start" : 35648,
                    "duration" : 3,
                    "mediaStart" : 346,
                    "mediaDuration" : 3,
                    "scalar" : 1,
                    "metadata" : {
                      "WinSubProjectDisplayName" : "",
                      "clipSpeedAttribute" : false,
                      "default-HAlign" : "center",
                      "default-VAlign" : "center",
                      "default-text-attributes" : null
                    },
                    "animationTracks" : {

                    }
                  },
                  {
                    "id" : 83,
                    "_type" : "StitchedMedia",
                    "minMediaStart" : 0,
                    "attributes" : {
                      "ident" : "2018-03-01_17-56-29",
                      "gain" : 1.0,
                      "mixToMono" : false
                    },
                    "parameters" : {
                      "volume" : 1.0,
                      "cursorOpacity" : {
                        "type" : "double",
                        "defaultValue" : 1.0,
                        "interp" : "linr"
                      },
                      "cursorScale" : {
                        "type" : "double",
                        "defaultValue" : 1.0,
                        "interp" : "linr"
                      }
                    },
                    "medias" : [
                        {
                          "id" : 84,
                          "_type" : "UnifiedMedia",
                          "video" : 
                              {
                                "id" : 85,
                                "_type" : "VMFile",
                                "src" : 3,
                                "trackNumber" : 0,
                                "attributes" : {
                                  "ident" : "2018-03-01_17-56-29"
                                },
                                "effects" : [

                                ],
                                "start" : 0,
                                "duration" : 20949,
                                "mediaStart" : 0,
                                "mediaDuration" : 20949,
                                "scalar" : 1,
                                "animationTracks" : {

                                }
                              },
                          "audio" : 
                              {
                                "id" : 86,
                                "_type" : "AMFile",
                                "src" : 3,
                                "trackNumber" : 1,
                                "attributes" : {
                                  "ident" : "",
                                  "sampleRate" : 44100,
                                  "bitDepth" : 16,
                                  "gain" : 1.0,
                                  "mixToMono" : false
                                },
                                  "channelNumber" : "0",
                                "effects" : [

                                ],
                                "start" : 0,
                                "duration" : 20949,
                                "mediaStart" : 0,
                                "mediaDuration" : 20949,
                                "scalar" : 1,
                                "animationTracks" : {

                                }
                              }
,
                          "start" : 0,
                          "duration" : 20949,
                          "mediaStart" : 0,
                          "mediaDuration" : 37361,
                          "scalar" : 1,
                          "metadata" : {
                            "WinSubProjectDisplayName" : "",
                            "clipSpeedAttribute" : false
                          }
                        },
                        {
                          "id" : 87,
                          "_type" : "UnifiedMedia",
                          "video" : 
                              {
                                "id" : 88,
                                "_type" : "VMFile",
                                "src" : 3,
                                "trackNumber" : 0,
                                "attributes" : {
                                  "ident" : "2018-03-01_17-56-29"
                                },
                                "effects" : [

                                ],
                                "start" : 20949,
                                "duration" : 13422,
                                "mediaStart" : 23939,
                                "mediaDuration" : 13422,
                                "scalar" : 1,
                                "animationTracks" : {

                                }
                              },
                          "audio" : 
                              {
                                "id" : 89,
                                "_type" : "AMFile",
                                "src" : 3,
                                "trackNumber" : 1,
                                "attributes" : {
                                  "ident" : "",
                                  "sampleRate" : 44100,
                                  "bitDepth" : 16,
                                  "gain" : 1.0,
                                  "mixToMono" : false
                                },
                                  "channelNumber" : "0",
                                "effects" : [

                                ],
                                "start" : 20949,
                                "duration" : 13422,
                                "mediaStart" : 23939,
                                "mediaDuration" : 13422,
                                "scalar" : 1,
                                "animationTracks" : {

                                }
                              }
,
                          "start" : 20949,
                          "duration" : 13422,
                          "mediaStart" : 0,
                          "mediaDuration" : 37361,
                          "scalar" : 1,
                          "metadata" : {
                            "WinSubProjectDisplayName" : "",
                            "clipSpeedAttribute" : false
                          }
                        }
                    ],
                    "effects" : [

                    ],
                    "start" : 35651,
                    "duration" : 6447,
                    "mediaStart" : 23140,
                    "mediaDuration" : 6447,
                    "scalar" : 1,
                    "metadata" : {
                      "WinSubProjectDisplayName" : "",
                      "clipSpeedAttribute" : false
                    },
                    "animationTracks" : {

                    }
                  },
                  {
                    "id" : 90,
                    "_type" : "Callout",
                    "def" : {
                      "kind" : "remix",
                      "shape" : "text-rectangle",
                      "style" : "basic",
                      "fill-color-blue" : 1.0,
                      "fill-color-green" : 1.0,
                      "fill-color-opacity" : 1.0,
                      "fill-color-red" : 1.0,
                      "height" : 719.999999999846,
                      "stroke-color-blue" : 0.56078431372549,
                      "stroke-color-green" : 0.686274509803922,
                      "stroke-color-opacity" : 1.0,
                      "stroke-color-red" : 0.0196078431372549,
                      "stroke-width" : 2.0,
                      "tail-x" : -5.17275111633353e-12,
                      "tail-y" : -19.999999999982,
                      "width" : 1279.99999999977,
                      "word-wrap" : 1.0,
                      "fill-style" : "solid",
                      "horizontal-alignment" : "center",
                      "stroke-style" : "solid",
                      "text" : "Job",
                      "vertical-alignment" : "center",
                      "font" : {
                        "color-blue" : 0.266666666666667,
                        "color-green" : 0.231372549019608,
                        "color-opacity" : 1.0,
                        "color-red" : 0.184313725490196,
                        "size" : 64.0,
                        "tracking" : 0.0,
                        "name" : "Montserrat",
                        "weight" : "Regular"
                      },
                      "textAttributes" : {
                        "type" : "textAttributeList",
                        "keyframes" : [
                          {
                            "time" : 0,
                            "value" : [{"name":"underline","rangeEnd":3,"rangeStart":0,"value":0,"valueType":"int"},{"name":"fgColor","rangeEnd":3,"rangeStart":0,"value":"(47,59,68,255)","valueType":"color"},{"name":"fontItalic","rangeEnd":3,"rangeStart":0,"value":0,"valueType":"int"},{"name":"strikethrough","rangeEnd":3,"rangeStart":0,"value":0,"valueType":"int"},{"name":"fontWeight","rangeEnd":3,"rangeStart":0,"value":100,"valueType":"int"},{"name":"fontSize","rangeEnd":3,"rangeStart":0,"value":64,"valueType":"double"},{"name":"fontName","rangeEnd":3,"rangeStart":0,"value":"Montserrat","valueType":"string"}],
                            "duration" : 0
                          }
                        ]
                      }
                    },
                    "attributes" : {
                      "autoRotateText" : true
                    },
                    "parameters" : {
                      "translation0" : 5.17275111633353e-12,
                      "translation1" : -1.79625203600153e-11
                    },
                    "effects" : [
                        {
                          "effectName" : "DropShadow",
                          "parameters" : {
                            "angle" : 5.49778714378214,
                            "blur" : 10.0,
                            "color-alpha" : 1.0,
                            "color-blue" : 0.1216,
                            "color-green" : 0.1216,
                            "color-red" : 0.1216,
                            "enabled" : 1,
                            "offset" : 10.0,
                            "opacity" : 0.4
                          }
                        }
                    ],
                    "start" : 42098,
                    "duration" : 191,
                    "mediaStart" : 0,
                    "mediaDuration" : 191,
                    "scalar" : 1,
                    "metadata" : {
                      "WinSubProjectDisplayName" : "",
                      "clipSpeedAttribute" : false,
                      "default-HAlign" : "center",
                      "default-VAlign" : "center",
                      "default-text-attributes" : null
                    },
                    "animationTracks" : {

                    }
                  },
                  {
                    "id" : 91,
                    "_type" : "StitchedMedia",
                    "minMediaStart" : 0,
                    "attributes" : {
                      "ident" : "2018-03-01_17-56-29",
                      "gain" : 1.0,
                      "mixToMono" : false
                    },
                    "parameters" : {
                      "volume" : 1.0,
                      "cursorOpacity" : {
                        "type" : "double",
                        "defaultValue" : 1.0,
                        "interp" : "linr"
                      },
                      "cursorScale" : {
                        "type" : "double",
                        "defaultValue" : 1.0,
                        "interp" : "linr"
                      }
                    },
                    "medias" : [
                        {
                          "id" : 92,
                          "_type" : "UnifiedMedia",
                          "video" : 
                              {
                                "id" : 93,
                                "_type" : "VMFile",
                                "src" : 3,
                                "trackNumber" : 0,
                                "attributes" : {
                                  "ident" : "2018-03-01_17-56-29"
                                },
                                "effects" : [

                                ],
                                "start" : 0,
                                "duration" : 20949,
                                "mediaStart" : 0,
                                "mediaDuration" : 20949,
                                "scalar" : 1,
                                "animationTracks" : {

                                }
                              },
                          "audio" : 
                              {
                                "id" : 94,
                                "_type" : "AMFile",
                                "src" : 3,
                                "trackNumber" : 1,
                                "attributes" : {
                                  "ident" : "",
                                  "sampleRate" : 44100,
                                  "bitDepth" : 16,
                                  "gain" : 1.0,
                                  "mixToMono" : false
                                },
                                  "channelNumber" : "0",
                                "effects" : [

                                ],
                                "start" : 0,
                                "duration" : 20949,
                                "mediaStart" : 0,
                                "mediaDuration" : 20949,
                                "scalar" : 1,
                                "animationTracks" : {

                                }
                              }
,
                          "start" : 0,
                          "duration" : 20949,
                          "mediaStart" : 0,
                          "mediaDuration" : 37361,
                          "scalar" : 1,
                          "metadata" : {
                            "WinSubProjectDisplayName" : "",
                            "clipSpeedAttribute" : false
                          }
                        },
                        {
                          "id" : 95,
                          "_type" : "UnifiedMedia",
                          "video" : 
                              {
                                "id" : 96,
                                "_type" : "VMFile",
                                "src" : 3,
                                "trackNumber" : 0,
                                "attributes" : {
                                  "ident" : "2018-03-01_17-56-29"
                                },
                                "effects" : [

                                ],
                                "start" : 20949,
                                "duration" : 13422,
                                "mediaStart" : 23939,
                                "mediaDuration" : 13422,
                                "scalar" : 1,
                                "animationTracks" : {

                                }
                              },
                          "audio" : 
                              {
                                "id" : 97,
                                "_type" : "AMFile",
                                "src" : 3,
                                "trackNumber" : 1,
                                "attributes" : {
                                  "ident" : "",
                                  "sampleRate" : 44100,
                                  "bitDepth" : 16,
                                  "gain" : 1.0,
                                  "mixToMono" : false
                                },
                                  "channelNumber" : "0",
                                "effects" : [

                                ],
                                "start" : 20949,
                                "duration" : 13422,
                                "mediaStart" : 23939,
                                "mediaDuration" : 13422,
                                "scalar" : 1,
                                "animationTracks" : {

                                }
                              }
,
                          "start" : 20949,
                          "duration" : 13422,
                          "mediaStart" : 0,
                          "mediaDuration" : 37361,
                          "scalar" : 1,
                          "metadata" : {
                            "WinSubProjectDisplayName" : "",
                            "clipSpeedAttribute" : false
                          }
                        }
                    ],
                    "effects" : [

                    ],
                    "start" : 42289,
                    "duration" : 2930,
                    "mediaStart" : 29587,
                    "mediaDuration" : 2930,
                    "scalar" : 1,
                    "metadata" : {
                      "WinSubProjectDisplayName" : "",
                      "clipSpeedAttribute" : false
                    },
                    "animationTracks" : {

                    }
                  },
                  {
                    "id" : 98,
                    "_type" : "Callout",
                    "def" : {
                      "kind" : "remix",
                      "shape" : "text-rectangle",
                      "style" : "basic",
                      "fill-color-blue" : 1.0,
                      "fill-color-green" : 1.0,
                      "fill-color-opacity" : 1.0,
                      "fill-color-red" : 1.0,
                      "height" : 719.999999999866,
                      "stroke-color-blue" : 0.56078431372549,
                      "stroke-color-green" : 0.686274509803922,
                      "stroke-color-opacity" : 1.0,
                      "stroke-color-red" : 0.0196078431372549,
                      "stroke-width" : 2.0,
                      "tail-x" : 2.00088834390044e-11,
                      "tail-y" : -19.9999999999719,
                      "width" : 1279.99999999972,
                      "word-wrap" : 1.0,
                      "fill-style" : "solid",
                      "horizontal-alignment" : "center",
                      "stroke-style" : "solid",
                      "text" : "Results",
                      "vertical-alignment" : "center",
                      "font" : {
                        "color-blue" : 0.266666666666667,
                        "color-green" : 0.231372549019608,
                        "color-opacity" : 1.0,
                        "color-red" : 0.184313725490196,
                        "size" : 64.0,
                        "tracking" : 0.0,
                        "name" : "Montserrat",
                        "weight" : "Regular"
                      },
                      "textAttributes" : {
                        "type" : "textAttributeList",
                        "keyframes" : [
                          {
                            "time" : 0,
                            "value" : [{"name":"fgColor","rangeEnd":7,"rangeStart":0,"value":"(47,59,68,255)","valueType":"color"},{"name":"fontSize","rangeEnd":7,"rangeStart":0,"value":64,"valueType":"double"},{"name":"fontName","rangeEnd":7,"rangeStart":0,"value":"Montserrat","valueType":"string"},{"name":"fontItalic","rangeEnd":7,"rangeStart":0,"value":0,"valueType":"int"},{"name":"fontWeight","rangeEnd":7,"rangeStart":0,"value":100,"valueType":"int"},{"name":"strikethrough","rangeEnd":7,"rangeStart":0,"value":0,"valueType":"int"},{"name":"underline","rangeEnd":7,"rangeStart":0,"value":0,"valueType":"int"}],
                            "duration" : 0
                          }
                        ]
                      }
                    },
                    "attributes" : {
                      "autoRotateText" : true
                    },
                    "parameters" : {
                      "translation0" : -2.00088834390044e-11,
                      "translation1" : -2.80522272078088e-11
                    },
                    "effects" : [
                        {
                          "effectName" : "DropShadow",
                          "parameters" : {
                            "angle" : 5.49778714378214,
                            "blur" : 10.0,
                            "color-alpha" : 1.0,
                            "color-blue" : 0.1216,
                            "color-green" : 0.1216,
                            "color-red" : 0.1216,
                            "enabled" : 1,
                            "offset" : 10.0,
                            "opacity" : 0.4
                          }
                        }
                    ],
                    "start" : 45219,
                    "duration" : 106,
                    "mediaStart" : 0,
                    "mediaDuration" : 106,
                    "scalar" : 1,
                    "metadata" : {
                      "WinSubProjectDisplayName" : "",
                      "clipSpeedAttribute" : false,
                      "default-HAlign" : "center",
                      "default-VAlign" : "center",
                      "default-text-attributes" : null
                    },
                    "animationTracks" : {

                    }
                  },
                  {
                    "id" : 99,
                    "_type" : "UnifiedMedia",
                    "video" : 
                        {
                          "id" : 100,
                          "_type" : "VMFile",
                          "src" : 5,
                          "trackNumber" : 0,
                          "attributes" : {
                            "ident" : "2018-03-01_18-41-04"
                          },
                          "effects" : [

                          ],
                          "start" : 45325,
                          "duration" : 7602,
                          "mediaStart" : 1047,
                          "mediaDuration" : 7602,
                          "scalar" : 1,
                          "animationTracks" : {

                          }
                        },
                    "audio" : 
                        {
                          "id" : 101,
                          "_type" : "AMFile",
                          "src" : 5,
                          "trackNumber" : 1,
                          "attributes" : {
                            "ident" : "",
                            "sampleRate" : 44100,
                            "bitDepth" : 16,
                            "gain" : 1.0,
                            "mixToMono" : false
                          },
                            "channelNumber" : "0",
                          "effects" : [

                          ],
                          "start" : 45325,
                          "duration" : 7602,
                          "mediaStart" : 1047,
                          "mediaDuration" : 7602,
                          "scalar" : 1,
                          "animationTracks" : {

                          }
                        }
,
                    "start" : 45325,
                    "duration" : 7602,
                    "mediaStart" : 0,
                    "mediaDuration" : 8649,
                    "scalar" : 1,
                    "metadata" : {
                      "WinSubProjectDisplayName" : "",
                      "clipSpeedAttribute" : false
                    }
                  },
                  {
                    "id" : 102,
                    "_type" : "UnifiedMedia",
                    "video" : 
                        {
                          "id" : 103,
                          "_type" : "VMFile",
                          "src" : 30,
                          "trackNumber" : 0,
                          "attributes" : {
                            "ident" : "2018-03-01_20-16-18"
                          },
                          "parameters" : {
                            "scale0" : {
                              "type" : "double",
                              "defaultValue" : 0.997229916897507,
                              "interp" : "eioe"
                            },
                            "scale1" : {
                              "type" : "double",
                              "defaultValue" : 0.997229916897507,
                              "interp" : "eioe"
                            }
                          },
                          "effects" : [

                          ],
                          "start" : 52927,
                          "duration" : 5595,
                          "mediaStart" : 0,
                          "mediaDuration" : 5595,
                          "scalar" : 1,
                          "animationTracks" : {

                          }
                        },
                    "audio" : 
                        {
                          "id" : 104,
                          "_type" : "AMFile",
                          "src" : 30,
                          "trackNumber" : 1,
                          "attributes" : {
                            "ident" : "",
                            "sampleRate" : 44100,
                            "bitDepth" : 16,
                            "gain" : 1.0,
                            "mixToMono" : false
                          },
                            "channelNumber" : "0",
                          "parameters" : {
                            "volume" : 0.0
                          },
                          "effects" : [
                              {
                                "effectName" : "WinCompression",
                                "parameters" : {
                                  "attack" : 0.0,
                                  "gain" : 9.0,
                                  "preset" : 1,
                                  "ratio" : 10.0,
                                  "release" : 3500.0,
                                  "threshold" : -20.0
                                },
                                "metadata" : {
                                  "effectIndex" : "0"
                                }
                              }
                          ],
                          "start" : 52927,
                          "duration" : 5595,
                          "mediaStart" : 0,
                          "mediaDuration" : 5595,
                          "scalar" : 1,
                          "animationTracks" : {

                          }
                        }
,
                    "start" : 52927,
                    "duration" : 5595,
                    "mediaStart" : 0,
                    "mediaDuration" : 5595,
                    "scalar" : 1,
                    "metadata" : {
                      "WinSubProjectDisplayName" : "",
                      "clipSpeedAttribute" : false
                    }
                  },
                  {
                    "id" : 105,
                    "_type" : "StitchedMedia",
                    "minMediaStart" : 0,
                    "attributes" : {
                      "ident" : "2018-03-01_20-21-31",
                      "gain" : 1.0,
                      "mixToMono" : false
                    },
                    "parameters" : {
                      "volume" : 0.0,
                      "cursorOpacity" : 1.0,
                      "cursorScale" : 1.0
                    },
                    "medias" : [
                        {
                          "id" : 106,
                          "_type" : "UnifiedMedia",
                          "video" : 
                              {
                                "id" : 107,
                                "_type" : "VMFile",
                                "src" : 31,
                                "trackNumber" : 0,
                                "attributes" : {
                                  "ident" : "2018-03-01_20-21-31"
                                },
                                "effects" : [

                                ],
                                "start" : 0,
                                "duration" : 192,
                                "mediaStart" : 0,
                                "mediaDuration" : 192,
                                "scalar" : 1,
                                "animationTracks" : {

                                }
                              },
                          "audio" : 
                              {
                                "id" : 108,
                                "_type" : "AMFile",
                                "src" : 31,
                                "trackNumber" : 1,
                                "attributes" : {
                                  "ident" : "",
                                  "sampleRate" : 44100,
                                  "bitDepth" : 16,
                                  "gain" : 1.0,
                                  "mixToMono" : false
                                },
                                  "channelNumber" : "0",
                                "effects" : [

                                ],
                                "start" : 0,
                                "duration" : 192,
                                "mediaStart" : 0,
                                "mediaDuration" : 192,
                                "scalar" : 1,
                                "animationTracks" : {

                                }
                              }
,
                          "start" : 0,
                          "duration" : 192,
                          "mediaStart" : 0,
                          "mediaDuration" : 1682,
                          "scalar" : 1,
                          "metadata" : {
                            "WinSubProjectDisplayName" : "",
                            "clipSpeedAttribute" : false
                          }
                        },
                        {
                          "id" : 109,
                          "_type" : "UnifiedMedia",
                          "video" : 
                              {
                                "id" : 110,
                                "_type" : "VMFile",
                                "src" : 31,
                                "trackNumber" : 0,
                                "attributes" : {
                                  "ident" : "2018-03-01_20-21-31"
                                },
                                "effects" : [

                                ],
                                "start" : 192,
                                "duration" : 1446,
                                "mediaStart" : 236,
                                "mediaDuration" : 1446,
                                "scalar" : 1,
                                "animationTracks" : {

                                }
                              },
                          "audio" : 
                              {
                                "id" : 111,
                                "_type" : "AMFile",
                                "src" : 31,
                                "trackNumber" : 1,
                                "attributes" : {
                                  "ident" : "",
                                  "sampleRate" : 44100,
                                  "bitDepth" : 16,
                                  "gain" : 1.0,
                                  "mixToMono" : false
                                },
                                  "channelNumber" : "0",
                                "effects" : [

                                ],
                                "start" : 192,
                                "duration" : 1446,
                                "mediaStart" : 236,
                                "mediaDuration" : 1446,
                                "scalar" : 1,
                                "animationTracks" : {

                                }
                              }
,
                          "start" : 192,
                          "duration" : 1446,
                          "mediaStart" : 0,
                          "mediaDuration" : 1682,
                          "scalar" : 1,
                          "metadata" : {
                            "WinSubProjectDisplayName" : "",
                            "clipSpeedAttribute" : false
                          }
                        }
                    ],
                    "effects" : [

                    ],
                    "start" : 58522,
                    "duration" : 1638,
                    "mediaStart" : 0,
                    "mediaDuration" : 1638,
                    "scalar" : 1,
                    "metadata" : {
                      "WinSubProjectDisplayName" : "",
                      "clipSpeedAttribute" : false
                    },
                    "animationTracks" : {

                    }
                  }
                ]
              },
              {
                "trackIndex" : 1,
                "medias" : [
                  {
                    "id" : 112,
                    "_type" : "AMFile",
                    "src" : 6,
                    "trackNumber" : 0,
                    "attributes" : {
                      "ident" : "Section-1",
                      "sampleRate" : 44100,
                      "bitDepth" : 16,
                      "gain" : 1.0,
                      "mixToMono" : false
                    },
                      "channelNumber" : "0,1",
                    "effects" : [
                        {
                          "effectName" : "WinCompression",
                          "parameters" : {
                            "attack" : 0.0,
                            "gain" : 9.0,
                            "preset" : 1,
                            "ratio" : 10.0,
                            "release" : 3500.0,
                            "threshold" : -20.0
                          }
                        },
                        {
                          "effectName" : "NoiseReduction",
                          "parameters" : {
                            "denoiserAmount" : 20.0,
                            "denoiserThreshold" : 0.0,
                            "noiseProfile" : "eUQ7QMHOMT/IB8k/MDiCP06xwT8MOoU/CneRP1KCjD829u8+IgvZPqjSCT6vRaY9ztFJPUMzjTzm\r\nO4M8VR2WPGlcGj18ILU8pXCuO63nHTzl0aw7I/qWO61NNDt2j/o71oMoPF7MwTtDYT07p9qhOzeG\r\nrzv6rsk7sLoJO3vxqjqwbHA7Cte4OWQPPzrBWYg6tjr8OfK7rjqAg+Q5PRuDOocTtjp0HF06lkZ6\r\nOv2L2zk70hQ62endOV0VFzowpoc6BhNxOvgSwjqmj1U5njiQOnpl2jnxXBM6K5gLOfzgzDkONmY5\r\nXWnPOeAJKzpLeic5gC17OdAgPTqI6zM5LktIOmnQHTqE5r05VAA7OoZkFjpYgDU6NQvGOc0oSzk+\r\nbo0556TPOf4YgzqisZ85NfxwOoyIaDpqsEI685tZOuVtYTrsAyk6yZMdOq6JFzrQ2z861QaROt9P\r\nnjoY3Q47hDlBOpCNAjrt2mI6cxTYOQLRFzr0rRI6uNPhOXiniTmxRCE5q0wvOfxAKTr3pjw5ZnXx\r\nObPtszndxOQ5t4w0OlVB3TlvRTs68FGUOkBchztrzQU7LDpPOnw2SzqZolM6gm3POavnNjvsYQU6\r\neWvBOlctFzpggoE6hPF/OmjsDTqD/RE6RX82OogNMjrKyoQ6M1lDOvkn+Tl/xXU6CoPVOaShzjmE\r\nOq05gM9MOV8L9TlSPOA5fEKROaMLRzknxRI5RvXMOapZfDpKlpM5QA2ZOVIpBDq+FOQ6ENDSOTh9\r\nODkvVrs6v1rIOaG9JjoaBuQ5Uz1iOvFCkDrSAEQ6jAAYOmVDkTq/9Qc6cN2iOqQBNToKphQ5mfMU\r\nOtu0VDn2nh46kUmdOLXWxTpD4ps6wK25OjRUhTlaGsU6PqX/Ou7t2zqIUDc6SWIQOkd4Pjpuh3k6\r\n2x2bOvUeMjnHIIg66TetORh/HjroHMc6sbvuOXhgijol8Js6IWvAOcZyUzl/CxU6VokhOsyMFjrA\r\nksE46AmpOY7kLDkyISM5iWgrOJzntzm+FK05VGZcORjosznDQmU64oyQOhKD/zqqm4o6gYglOt0Q\r\n4zlHSew5Ng9JOi71bDhNeKw5wmDWOY7/CTpS1bk3MMY9OfvMvjio9mw5iVz8OZR5njnWIvs5Cc3N\r\nOJ0NmDlOWpA4qCFJOfHF1TiGArA4JlXcOAWUuDi0Ft84mJQ0OVH8oTl4Xu04wFAtOUYMEjpYrJg5\r\n6yqVOcXaZjn3Pes4g329OKyiHjiwvkM51SzEOMRr1Dl0lgw6WPuAOqPRBDoWdt85OSOUOWz5WzmD\r\nlPQ5z5b6OC3YJDhXmu84ZNOOOGyiozkjqqY5tdnwOZyNxjluskk691L6OewdWjnll0g5L+wtOmRO\r\npTlaVzc6vZqxOdGkyTkHddM5spPUOXL0uznZjo85cWV7OWo7DzkI7Yg5/l0rOfy29TnaRqQ5ihUZ\r\nOcrmojkYXTI5/USNOE5gdTkoPJw593ITOabiCzh53oE4YHBEON+zyDiefd03z5tqOOPl0Dhhgj44\r\nZK59OVIcEDgGfsE4iPa2OKfPuThqbHM47ugBOTi6DzkduIU5JK7MOSIuvTkVxRM5AnjgOBRB3jjw\r\nM8w44o8NOKjnuziqnaU4tpIcOdnfCjj2tUc4ie3WNxrVGzi2RZk3Qy4IOPbHWzjNSI43V+W0OKbs\r\nhThW8Qk4WiuuOCdDRDiEjCY487H4N2I+DDgwSGc4wAcnOKCKIzhr1L44a6rPN+JXHDgDmOo3JrWO\r\nOCzPsTjlUR44w2c+ODR7+jfEjtE3wpoQOFl3/DeoA9E3gLduNzD6TjhSswY4c84bOOtGGjh41hs4\r\nIp+sN9xJCzialKw3tWxNODPcODh9TAY4sWS1Ny5Z6TeiqpU43qYxOAanxTfs5wI4bOP8N6g/PTiS\r\nx+k3en8VOE3eIThcoOA3BGINOIa+zDdItqA3r2rkN2gRFjgubK83u10JOMrLyzcgb0U43IiPOIoJ\r\nwTfSYeY3n14MONN49jcU3TE414QaODhWuzd8DAI4dDP5N6d4Djiebdo3JOB/OBIFQTjGr+w3iH2r\r\nN7TxkjgBTNU3DiftN2zINDhcOGE3G09DOHMirje9m/k3T8kKOGShnTf2dVg44AIYONhh9TdzcgA4\r\nfdF4N6+SMTfCNRM4hAspODwYUjiEkuA37DBrN8gAoThjxoU4wzHtN4MzUjgBVzc4o5gHOHb/8jdm\r\nf4M4BoWYN0dSkjj3rcs3xrQrOJICjTcxTw84mEKRN7b+kzfGFnk3de57N32HtzeDwfM3oijNN0HG\r\nxDfqknc4WcIUOGVF+je1cic4gYZ7OGCr2DcCuZk3ODFuOI6e3jfZp1Y4WiHjN9cszTdbBws4hZdE\r\nOOSouTfPLgI4uzYDOJsOnDei0YY4cJkpOI3xuzdG5Dc4T/cgOFt8azhgnaw3jEkYOONAmjergBE4\r\neoqsN848vDeBivo3zHHVN4pj6jfnqlU4Uu0IOJ5tMDe8afE3aE56OEZgtDiPXpU4LOc2OHIbqjjy\r\n1A04CLWvOFHmGDjw7VM4UnuoN0U4vzfMxV44S+YHOOKjKTgmaFY377SnN8EcCjhfX9U36N8aONEV\r\n5jeRZvU3EdYaOPy1wjcQCeA3OmrAOPARGDiTi/U3QG0BOJ7SkDcgW8o3FNDJN9je3DeE5fQ3o60M\r\nOO+mTTj8GPI3HbCmN5MhgTetjk84HnFtOGDkBjlxncc4WEAyODJ+tDjL8sA4OhLMN2DzBjgAmqA3\r\nbqpIOAbZwDewawA4Bdc9OBUzITic9MM3/OVOOGjPoTeUSBw4H8OgN/gycDfdOoM3xaegNyB7yjdW\r\nLxk4B4NBOKh3QDirujI4+rY4OA0mDjh++pk4dXWIOEWfDDiji6M3bxjON+2GljdQ4qw3+8IlOHIW\r\nuzdcAuc37qjDN9L6bjdrgtE3ihOqN3SktDcHFSY3iH8SOIdCnTeS8Bw4M63bN5XuHziYEMA3ri1y\r\nN+gPGjgMqQg4KJXSN6YQvTfkxlc4PBQuOBU5uTe3c4g3FXzgN3C+sTfGuL83pVYVOAnGCjjf7K03\r\nFcFJN4CP0jf/4uw3nCXaNwX12DePMlY4LLyKNzVGpjcHxD42i0zWN1py8jWYFJI3yhtJNlcX5Tbk\r\nKrA2VoM2Nns+tjaAHk41Sa+PNjpRITa9BjM2pWVFNiDQhDXFgWI2edscNjaaMDa86B42yvgGNmUD\r\n+zWVDkE2445KNgxD6jTlN2A2ZRAFNlrhPDZe4wo2EhDcNZtp3zXE1e01kPMlNkYbZDVlLwU23pVk\r\nNTJYATaOp5w1tHiiNUZ90zU6f6M1kF1RNZjz0DUkxsg1DkQKNuJ08jVQQVE2kXapNbNJsjWkpis2\r\n1mBeNgDb5jVuJvI1fEzvNWyRIjZszI81+C/hNSUs2DUiUvs1aC/SNSRsrDXkL4c2AlA4NqCdjjUM\r\nQ0I2r+7INQaTuzXavxY2UqMZNniwyTXzPzw28i4xNWLZlDU8QAM2/tO6NS4umzVOkcA1zkZtNfSu\r\nxjUXsNg1kDM5NV6x0jWM9N41LbCrNcSW8zU8V7M1oV6jNZvGsDWKoUc1lBlKNkK2izXSboY2uzoG\r\nNSr6pjV7TIk14qGMNRj56zVk3Ks1EsWINaRyuzW+wko2TfC7NYA09DUVabE1rLhkNYUTTjYap8g1\r\n3aT9NRIwxjU5xZ81aDPMNSEm+jWjSZU1e4IfNbH0czXTu5s1WE+uNaq9pjVTvy82kCmnNdoQkjVG\r\nFNE127nRNcxA6DUGRBQ1fMfvNPe5ujWa6k01DHOYNaHYVTXPBwA2o54iNlbzxjU5dBo2le54NuTV\r\nUDYR3NQ1OXPONUVCijUsEbE1Jpe3NcSLrjW1IeQ1CBcBNuZ+/jXnnYM10FS6NafoYzXN2Yg1aC/1\r\nNUaSzzX89bM1Pi2uNb0ipjUIlME1zqjTNd/RjTXodZo17N6cNe2IlzWQ6M01HxDMNc7OkzX1q6w1\r\nARR2NW3OPjakPQ42FOE4NUFpLTYyyho1ksqDNeqhTzWhx501BywTNWrcbzWfRJ41F70SNmhf+zST\r\n06s1n9kANoLKxzUlNIQ1nuWHNTFS4DUa+a01OzsONuu3VTUiSrY1WctRNVAM5zW6Bg41aqkqNemS\r\nfjWiS7g1EnXkNfDSeDXIHRc2NN+sNX+YejVIJyo1yuAiNcG7iDU+5bY1kHmMNYddtDWWQ2w1f4Kv\r\nNRLB9DXNsy81wFXdNTtV2TXirIE11lzHNZxIyjXFbD819wLcNaT61zW9FGs1FGPNNRWG3jWcS4o1\r\n+tOfNTPxszULjkE1fmX8NXPTrDVBvro1tlviNZUpmjV3EGY1yHFLNW3ZEjVywu019JnINdPYPDWs\r\nGKI1DJ6XNeUsujVfgAk2Gc6kNUO+mjWA6mM1agBQNc21GzUjq9s19H22NQtVVzXbEGI1f8gPNowL\r\n8jW3V8Y13srhNe3ZoDWUC3E1jrVANYTgwzXuFLg1UBvjNCl00DXaD+M1w6GfNfkWjDUBjQ41Roea\r\nNWbpHjUTN1o1UoqSNRP4vDWiyIY1bOOQNbEEqTXEAJc1NipYNYvd+zVCNVs1v0mvNQBpnzVbqco1\r\nEi+mNZK9yTRgIXc1zHwsNiPWljXqFYY1Z+rpNUstlTX+LY81dO/TNdo5vTU2OYo1E9kCNuNofTV7\r\nxVc1PrDENZvskzXsXgo2TrmsNdr7bjWnj7E1zprNNTWniDWp2lo1N7PaNJs5kzXT6cY19Cq4NYHe\r\naDX+IpQ16xyjNYXWDjUjq8Y1wu6lNbkWjjVN6Lk1OFd9NQYUjTXpHmM1yI/ONeePjzWahfw1FgWH\r\nNYAEozWgZng1gNS/NdUmZjVpGnU18IAZNQ7J9jVt80M1Pi62NQJBnTVsXLA1mJOJNWJMsTViHkE1\r\nu9nWNdJiLzVyIAU1F5gENr13AjasJUM1bJqqNVijwDRSr/M1pe4tNYHNCjYWd4c1ahlpNcmZRjUr\r\nC4M14BDDNfdM1DXTXes0P8VzNbZdTzUsQFI1QyOsNfWxXTUcLTI1LxCoNZ9lFzVvJXY1mbSeNZs4\r\nNTUHDZY1dm7CNamw+jUWGD01b2K6NSlRPzXmARA1TdKENQ4dojV+0AI10P8NNeK0XTXAwgI2jVCA\r\nNZ4PDja3nOw1P9doNYDWwzUVU9g0d5GnNTfpDDa8cbA1XNuKNb+KmjXyH0w1QT2JNY8PXTW9eI41\r\nrC+bNa4AxjUYCMM1EQBJNd4HsjVrJgg222VlNfuyqTX1Ot011blNNS0ydzVlLo41ByNINQLReDVh\r\nNYs1sMwiNTTNbDUQWAY11NLPNRZyWjUEyoo1x8/+Nf4lNDVfRYU1aCMJNky2sTXxsTc1/T6MNdQH\r\nqTT+xvk0V7KwNQYwjzVGANQ1KCXfNfr1mDUkTQI2M+nONFsr5jV8vzs1N29yNT5XnDWOc8007JWm\r\nNV0+TTUz+tM1HvRUNc+1gjXuKrw1CyrCNfN4qTUlyFg1yPxuNTFY0TVCWo81lbVmNQAgqzVL8U5A\r\nYpMjPbCIWDyuS387Kp+DO7TiDjssOuk6iRdSOhl/rToZ6yk6k4qdOuojNzrJFoo6im/ZOaulGzrO\r\nS2w5udV2OZpQ0TlMUZU5CJNCOVDmJznW2nI5+wAMObqMqji62AQ5vobTOKw+wTj/6RU5LK41OSw8\r\nhTgE3Ro5vCAjOdo0OjgHPMk4mGXtOAVOFTnGaTg5SynuOJhOrzgHyuc4NzMXOQp7qThqKfU49Pag\r\nODL9EjnUgj043ryhOKDyBTmeoKc4U3B2OPwa1jgJU2I4si+QODQivzgerJQ4PCJvOPgQrzghoI84\r\nKmozOJgDbTgBzkA4IXtcOO5znDjQxUs4vZ3vOBVbmzguPrY4ODZ5OBO+Gzi7PrY3mvr7NwodGDiQ\r\ng5I4L6C/OCIvaDgeDys4xQOEOJRkJjiSgJc44HsIOAgGYzhI5RM4zfyZOOxGTjjOI1A4Yr4BOB/b\r\nCDjvnJE3bl6AOGXtijgQ73w4uQJ8OKH9BDgYDiw4jbZIOMX9lTjpaRA43xKWN1BwZDgb5204ukip\r\nOClYBTi23Es4ygGSOOgASDjUVjA4MwxOOLSkIDiXfoc4NghLOPPuMDj5oEM487jgN1R9lzhgIO83\r\nHsr3Nzm6oTcOtwE5hItxONb5KTg5TBQ4r1LlNygbJzhYPYM4mtTXNxfCBDg03aE4HRnAN4WxezjY\r\nLJU4YviTOG9H1TfGKnY4FZhMOFOONTgDgIg4S1NfOOQhKTilIlc4sysDOLSapDghm0M44lx4ODog\r\nNjg5qFc4LG2wN6Hp+TdKFQU4P2BWOONFQTj4RxU49EQ1OJVKDzhlyK44pkVbOJmaLDg93zY4RSkh\r\nOB0MyDdwviE4lIm2N54cDzjiBIk4QBLVN7zI+jfO7hA4eo0wOIuNPDgzK+o3QKFkNwZqczeTqyY4\r\nNEqaN1l6MjhkTeI3j0tJOKyFHjg0W803yOoMODmRtDgUa803UPnFN5KZVzizGdE3lIR3OMP6Ezg+\r\nH6g3mtB6ONKbADhlnpU3dVbbN4qWijd16Qw4U7cZOOyT+DfgrQU4XocdOHrMNDiEGjQ4ar1GOAbC\r\n5TfbNtU3xV46OOmtEzjCEG03YGFGOE8ezzeizQk4OEb9N3mLMjgr6r43t78IODmBaThw6jg3iDBT\r\nOG44fTcw6lQ4dob9NxSgpzcAGIg3LvnTN0dDPjgeAyA48M0YOK9NAzj24u83PxpNOK+QITi4zMQ3\r\nW+afN7fLOzhcjOo3/bfUNyxW8zfoG9I34p0sOA1MYTiApaw3fuJKOGyFjTjK9dg3MCIMOI3T/jfS\r\nI8g3QJMaOLA6ozgiseQ3T04AOKacDDgGPrI3+VGuN06ETDfxvIY42mndNxHs7TcYy7k32wAdOLTR\r\nKTg8rYU4Z5WkN5w42jfgKZs3oAK/N2J+KjjQG3Q4m2kXOIqgCDggews4Twx5OLlfKDiDeXo4JSgD\r\nOKsl2Te0RJE3bx8COA6SSzhiW0U4WthWOPAX0zcgQ+M33PDYN6r8TDc8Owc4DuEFOP1rOzi8kAg4\r\nxe4fOH92DDhE/wU4iU5HON7UGThpkQw4mMmhNwmNpjdQbhU4K/2QN5jPUzd6KPI36itmNz7MQDgl\r\ng404J9bfNzlKdDdC4xw4H37MN+NvDDgSpLI3ASabN218wTfyWtM3+qR5N2BLkjcsp503Mxe4NwGS\r\nFTh8XYk3hfgTN602ajdsdag3wqeZN6KUCzgfyFM3tvWLOGyu9jdTs/43xpuMOD/b1zcdDU84Wqjz\r\nN0jF4zfObQg4/lpFODydWTcQh8w3hV/UN29vEzi7rhI4vlaeOL9DiDdgVM43iei9NyFeKTi/6K43\r\nAOj2NykW2zec6s434gzINzS1vjcNvOc3YlyrNxO2dTdtB184KIalN/TU9TdnTMI3Y9E+OIKEcjdV\r\njSs4eLjAN8KpJDhCAvU3IQFcN+Y+izd2CQc4/rklOBPtQzcvHa43Bjh2N/m7pTditfg3cJY8OJ6+\r\nFzgg1xI4qrAcOMvcBDjug7Q3A9lFN6VGrDcR9NE3xDIROHwZZzemegk4ADdpN7SGHDiJAR04QDsl\r\nOCPfAjhJJ5A3rvaYNzmoBjgY4Kw44zSVOEnxKziKbRQ4QougN+Z1wDdhBQE4v4aeN5EyjDekZWU4\r\n2gV0N1bdlDgN7yM4QnWcNxDvyzemWrA3TqE6OCCW+jfAePE3TKabN5VDMzhxPt83/7ALOBRgJTi3\r\nBbo3cBuVNxSHOjhdZ8E3zwM7OBB/cjcIO7w3e7sOOI8KOjhpYjM4rXG7N2JO6zdnmV84phXFNywK\r\n2DetzcM3GNSANzXlTjd8JIA3Io8DONa6uTeVSgo4PD6eNzgp8TfnX743/uSNN2Kjozd8ccE3crXW\r\nN+W2zzcj7s03lizMNxvWqTfnL+U3SgagNyzl5jcMP5434jqtNxZgsDfUZnw3PPe+N+v4WDjCVes3\r\n6AhNN2NBojdaRzE4GV7DNzqAITj/2x44RHP6N6OuhzdgGrs3+VmcN5xQijeXwto32HzvN0u38zex\r\nLA844Nb/N/f8FTgBuAw4WM68NyPNxDdQ89Q38JD8N0R+CTgnfxk4M2MxOHpcFDi4PJA3xPy+N+YH\r\nWjeRKq83I/QPOCBl0DeDbiM4v0b0NzevLDhJ7jM4LoNLOOaZFTiE7Ds3Mii0N+Y/lje5xrg3+zHB\r\nN9fB3TePiKg3lHD+NxTY9TdBLes3EN2cN49/kzd2goU3wCyIN9f1ujd/cVw3FkZLOAAodjc1IaY3\r\n1Y/9NxJpBjg85QQ4iALPN3PZ9zdSutg355jfN+IIcDcmnYo33hvEN2f5dzjcBvU3JhB+N4BiQzhE\r\n1AQ4k0/cN7IO5TcfXlo42glwOJPB9zcZ3xg4NnnmN2EopDd2E9k3D+YdN9lV7jeQXTQ4Aq2gNwZs\r\nTjht+CA42jrZN6LMcDgqbIc3WEwIODqK1jfK3q03JTjBN7pNtzf7cG83utraN85X4TelD6w31yKO\r\nNzU1Ejj6zJc3BD4OOLWVfjhNpho4ED7ON5+Xszc1Ex84n1CRNw1BkTdfHcc3oSlON1fNnjcSJ+g3\r\nvmSXNwLmLDjRRM43jwnFN9Uj5TcMs603mpLWNdtdLzW4nUA1h+zmNNsjIzXp6xM16XrnNHFNyjQg\r\n3Zg0R93mNEY7UzTyDgM1YGIVNaaTJDV2kCI1Kg1LNceppjRdjic1+MGQNK2fCjW0lew0rskXNc5K\r\nojS2KUM11rwLNYlp3jQ0ASw1XKIBNVMwsjRmPps0nHbGNFJcTDW5U3s0M0/mNA6uzTQTjg81G6qS\r\nNP7B/zRLLFQ06AnyNLHy0jTeggY1bMT6NOyIozR2Tug0t2QLNWLfujQOXLg0neXDNEuX+DT+uCk1\r\n5OAzNSNRADVQNA81zsXaNBIwMTQ0eK80tnb4M+bKKzWyQaM05848NTt3ODW+dTU0u206NXgDwjTM\r\nsnM0HkW5NO56OjRCfYo0rkv9NHE3ojSUCYc06WiFNNW3IDWj6PI01XwtNaquqzTqhdU0CoUHNT0I\r\n5DTinfA00+OeNJAQXDXDBvA0CQ8nNYnNRDQcQDE1Z0TRNAhT0zTSpgw1oxXQNN5CzDQydRo1QuB+\r\nNWMU/zTeOx80Ig7KNC9CojQ8C980zwcFNZWs/TRWlRs18QatNH7zsDSsdL80yq0CNSCU2zRCvTs0\r\n2xFgNFQfDDUMSMc0UsvlNMLgfzTPNN001VsINV+z3TSFxhs1AgsCNfUqfjQMU2Y18TjPNAh80DSe\r\nE9c0sCMKNYNznDTwS5Y019qpNB8RRTWtUhw1gBjgNACrBzXUppI0/1MYNdkNPTUGw8s0FOkgNc9/\r\n+jSs7e808sqYNBY07zRTQZQ0RQpvNLaIADWac/o0vkGUNNzO6jTTsc80+gjcNKyW/DRkEcE0qN/o\r\nNLdgTjUt4dA0XG0BNUYxcDUUCm01D/doNDrnLjWBexE1YXgYNW9AOTTiRhQ11AMTNaBizDTjBiU1\r\nMfUZNXgM3DSRRtk0WLmZNLhC6TTfBOo061oHNfAPzjRwu4s0S2C2NAqHMDVQALU0yGrFNNGgTDVh\r\nzcE0YbHINNKXSzQY6hY1PqnbNCiesDQXNxE1jCkANdwhtDRihBE1+UEWNbORfjQ4ABQ1nznSNLyH\r\nnTTbwX40aQSUNIBikDSLZ5c0jVanNMD64zS+bp00sLB7NfWrzTRBpRU1wuWlNAhO9TRUuxw18nfZ\r\nNKGZ1DQiuzY0Xk8NNWOVaDQjcp80mmp0NYVd3TSEZ900LEQONdN4qDSfbQE1zF9TNGHTEjVkzsg0\r\n+EbMNDz+izTU/JY0rnH9NGXQhTTaerA0U3PwNJK2zjQeeCw1JMvcNEc/HjWNSIg1WAGuNKJ0zjTe\r\nwgI1PbIQNSwDpzS5y4s1bCNFNOrAGTVSM4E0um/1NKm3rTT+IM00JNQ4NSH30jRni640Ijj6NI1M\r\noTT0cR017t2cNE5giDT0PCA1CqwjNfJFGzUgww41ZlDQNEnkjjSFUJA0ivX2NNPorDRq2pk0DVuo\r\nNDhvdzXi9ag0zmv7NBjO9TTciZ40ErvmNOlLejQC+as0OGzQNPAQqjTp89Q0wFPBNF1Q5jTD8bw0\r\n+pJnNX5LpjR2Bb40WKwQNWjwwzS8rlA0UdgHNRqwAzUuStw0KTzaNHK9mTTkmew0p00TNZfYvjSg\r\nPAM1al3JNNciETVW61o0fMA0NbjUtjTMTD41cHISNRshEjW4JgE1pCLHNDbLBDUYXTI1yYR3NNwk\r\nfTTLOsc0P6fkNHpf9DTy0fY0uLLHNHg/gzRfEIM0LtoUNRWxkjRfzYw0EGS6NG8zLTVCSJw0If+n\r\nNN0l0jTOWRw1JE2nNEViQDW6RWM1lKObNPyCOTTC0BE1Qg/BNDKOyzRpW5c0m0NcNbuLhTQrVRI1\r\n/KedNRZI6zRMhcc052oZNXMCEjWuyXE0u2wyNGtRzDQQAbM0FvpSNDrKwDShy480mokCNfHnnjTn\r\nsAs11kYHNQypizQCCx006giHNJTs6zTx0FQ0KgPcNIMizzRArMc0jEuFNLiLkDSv+eg0WVctNQFa\r\nCTWLjfQ0sJcCNfPQfzSKLKA0wF8BNadtIDVQ+iU1B3oNNUi07jTV/VA0n22UNUWgBTUm3II0epvU\r\nNBxQvjSUqSQ1fJ8ANd/NpzQPPTM141CMNDDJ+zTeN/AzgAddNcMpqDTq45Y0AnKTNEjbBDWuthQ1\r\n9vTCNJK9BTVMIaA0kceBNAfnCjUeiu802dxYNWhysTSw2hs1updCNHA8BjXvnBE12B0QNf1ZfzSU\r\ndB01jiYkNYLa6jRhJlo0/8yDNFiF2jTRQSw1+EWMNGyTjTR5O180tHjvNCq6zTRNctY0DkXYNEJE\r\nAjVAuLc08LqYNKQm7DQ53N40jePGNOKCIjUqGgc1B5wTNcBSTTSysA816LGNNA8iuDQwflU1XokE\r\nNfRZRTUotpE0whA8NAIKnDSKZl40QKqXNJLynTRORAQ15YweNTx5qTT0jqc0AACiMw==",
                            "noiseTrainingType" : "default"
                          }
                        }
                    ],
                    "start" : 0,
                    "duration" : 347,
                    "mediaStart" : 0,
                    "mediaDuration" : 347,
                    "scalar" : 1,
                    "metadata" : {
                      "WinSubProjectDisplayName" : "",
                      "clipSpeedAttribute" : false
                    },
                    "animationTracks" : {

                    }
                  },
                  {
                    "id" : 113,
                    "_type" : "AMFile",
                    "src" : 7,
                    "trackNumber" : 0,
                    "attributes" : {
                      "ident" : "section-2",
                      "sampleRate" : 44100,
                      "bitDepth" : 16,
                      "gain" : 1.0,
                      "mixToMono" : false
                    },
                      "channelNumber" : "0,1",
                    "parameters" : {
                      "volume" : {
                        "type" : "double",
                        "keyframes" : [
                          {
                            "time" : -1,
                            "value" : 1.0,
                            "duration" : 0
                          },
                          {
                            "time" : 0,
                            "value" : 0.87912087912088,
                            "duration" : 0
                          },
                          {
                            "time" : 169,
                            "value" : 0.945054945054946,
                            "duration" : 0
                          }
                        ]
                      }
                    },
                    "effects" : [
                        {
                          "effectName" : "WinCompression",
                          "parameters" : {
                            "attack" : 0.0,
                            "gain" : 9.0,
                            "preset" : 1,
                            "ratio" : 10.0,
                            "release" : 3500.0,
                            "threshold" : -20.0
                          }
                        },
                        {
                          "effectName" : "NoiseReduction",
                          "parameters" : {
                            "denoiserAmount" : 20.0,
                            "denoiserThreshold" : 0.0,
                            "noiseProfile" : "6npqQNhVWj3s7g89O0WoPA1bzzyEA2w8cYxLO8SgEDxv7uA6zgf1OjrJvTryi9s6a/BfOk/SBTpa\r\ni1U6RHxxOae0Czrg/TE6RlmbOZHkhDnyVG45CMe2OSJXpDmrUK45JnwYOlxS3zlcGoo50g4gOUJS\r\nRzmfPw46CsgMOY+3gDlq2Pg4JXHFOM17Ajlqm+k4EM7EOFxB8zhp4kg5yJuLOI4c5zgMBLQ4W170\r\nOCyS7jjXEDQ55SSqOCxYKjl2Tv84NxGmOHFARjiE+zE5qobUOMvC4jjPDeA41JyyOKy5cTgGd8s4\r\nuXPOOPRbfDhnXYU46vn/OKWjDjmssJ05ptAOOZT3EDme14c5CBlrOaIbOzkn7to4qrHCOb00ozj+\r\nuyw4l26uOMsdHTkxTA843B+3OGC9TDgnIRg4LrngODpxgDj7DAs5dr0dODNglzi44Nk4nDnHOKRq\r\n3Dj5rMo4WmTMOGkYsDiuB1Q4gGcBOUhqtTi0V5A4TtieOBZVgTjfbxk5iii+ONKdRDj9qDQ4VV80\r\nOKCd5Dh4YG44Zg80OHI5FDh293I4m/eHOB13szhXCEA4RRNlOLZ4+zc4mg046jfLOIOIkTiwr5Q4\r\nMvFBOEeIUTgxoRk4roVIOElruDh+go447jF0OPwpZjjsGuM31QjBOFWlATh2BCE4cG1kOBVQLDhw\r\n7D44ZYwzONPl/DeuU3s4Zi0FONlGEDilbOY4jvmUOPKIbDhtdhQ41aDYN7okmThOSlQ41DxEOIp5\r\nwDgcx0Y4cJ4gOHmDLTijpjY4gmdkOGchFziOQ8U4CsjnNwU/3jf2egw4fKgEOCATETifgRE4c3hq\r\nOISIrTeFwr43u2dEOHKtJTgfNag3hrHhN4y60Td/OWE4oMx6OGaBFzgy4jg4MuftN+JmADj+/Cc4\r\neBitN8KfkTjlzpU4lzzQN3KzaTj40lY4lq0KOKBZuzeI1Bw4YF77N6smhjdsIFg4nXT9N/mlUzg9\r\nqzo4BwcOOBivezcaf0g3CRxNOHqyLTjGdEA4OCgZOFgZFTiW8Vg4PpniN4DfZzi/64U3kTUBOO7m\r\nfzgv1g44vAQkOH6wgzhboEw4P+doOFJI9jfsbBw4F0dXOJX3CTguZAY47vdcOMXC3jdgtZE3C+ZS\r\nOL7TXjgqO+s3XkpFOB062DdlAvI3/ZFVOMDSgDg8N8Y3alsDOGXrbjh2iHI46xUAONv3XDiP5mE4\r\nyvyEOMpgVDh/pSg4XFg0OIS7WzgKpz44Th3kN5FX9TdZTzM4goinN/bObTjdFMc3+OD+N2Js1zeB\r\nzzQ47b7/N0P3zTcQ/j04iCQGOMzxTzdaXH83wNcLOPyE2jeFdAE3kUGJOD7jjzfObL83Kj/DN8rZ\r\n6Td+rbY3nBYDONNTTzhg/Q84TirBN7LVADgcPbk3EHYGOJKOBTiEXw049Qa0N9QRrjd9CsQ4NJgF\r\nOI9LwDcbzUQ4B9cgOPq83zeGuxQ4zk34N3bI1DfL1/U3cPBKOA37EDgvfak3FG8cOJ+WRjii51U4\r\nLTqpN2cE1Tc+7xw4fT5COCtJsTduZ7o3m5umNx1SRzigUt031oeoN87Arzevt4I4WMkPOJsU6zfV\r\nAOQ3r0xGOHr0IziOnAc4aP/TN6se0jfy36c3+FWiN+Y/Gjjp+0w4/OVmN7F3mTdyxo438rcYOESC\r\nVzi8elE4b4ZsN0tczzfs+wc4HJW+N4RjGTjkBQ84VeygNyBkTDiLaQ848IsDOGDuAzi2+Jw3lA13\r\nOC8TPzc8D6c4gHBOOAHp9TfGes03ZsSlN6gQLzh7RfQ3bL5OOHQxcTiHVqw3dMTPN6o9ajfEEJQ3\r\n4FU+OOx9LTh10yU4vRGhNzb8oDdw7RY32qbHN3LFETgQ1+83WL2/NwKJizf4Ero3p2SlN2LkrDei\r\nlyI393i9N5LsWzcxixI4mgm4NwMS+jc+8yM4ZtG/NxNWqjdnQ4c3cS4KOFYZ5TfA/344oSlLNyJE\r\n3zfzXAs48T0jON4JCjjb0b432niTN2i8zzdmdAE4Hj+wN0SPvzckc9U3QqHvN5ZU1zdfgZ83m9Gn\r\nN6xl6Td0QMs32M2QN+TS4jeeaRc4eR6AONDLnDfwaCo4OymYN57dADichyI4YAQeOOaDAzhwDrs3\r\nisjINyR3jDfJ9dU4ebojOL7QgjdZZgM3k4YuN4MCljdi5BY3TyznNwBrIjhkpMk3bm2mN8AmJjhB\r\nNas39RDhN9gaFDgilfs3MnnXN6YWDTjUkAM4BVgFOD+XxzfVLKc3NFnvN4qdzDdXDhU4Hs6TNzWq\r\nDjilmA44KdPTNyfYvzepxFo48sukN4Sr8zcpQvA3njAkOOD7bjdqa5k3kMQGOLDqFjdmfYU3j74g\r\nODdOkTf68AE44VXHN6fzRzf/5Fw3M6zgNwymeTfAgQk4sh8kOMLtyje284E3bv+QNw7U9DfQTpM3\r\nNCktOPAtBTjWYnk3Ye0ROH6vgje8hME3ezUyNz+oGDiEmeg3ZyOTNx3zDDg428I3oh+eN2CWBjjX\r\nHOE37HNyN41jyjdiNNw35vTrN/PkJziuv8c3O8wUOEpZ7TenJuY3ghHZN6Saozd5p8M35279NxvQ\r\nvjfApdE3XHeFN/dGrzczx3U4oOlCONz6YzgDYPQ3/usCOE/8wTfHYbk3VmEEOIG3Ijh3m4k4xoBV\r\nOFHFDzjHhgw4rhqoN1TLvjfoNdI3pugBOAKa6Tde68s3NmkTOGBM8zezigs4fk4bOJnP8zcAErg3\r\nq10oOHmJ2DdesYU3URMQONIY6DffnD44klbFN058nzdzJ0I3X1HTN8zsjTe7BbU3m47yN7xCxTco\r\nLQc4tp6ON6qFeThGC5U3accIONAMAjg+lgo4r30oONUvDzjCnp03ch8bOA4Ufjc9+uA35Ue7NzR3\r\n2zfaLtA3O1KxNy8wUThP2s03Dpq7N85lhje6BTM49wKCOOlqyTdZNqs3rxkPOMUzYDccgrA3xNSF\r\nN5Gs6zemajc4e1CdN67uDjiaQCY4hA8QOCTVUzcyRZk30LMoOKCamTcuU4c3TwJ4OKdu6TdYNms3\r\n15sBOOrfuTdDle831wGrN7znFzgCAwA44W1tN3QAFzYon7A1918XNZS1kjVuJlA1tQoXNZIXUTUg\r\nMlk1ttXrNPyKtTRPttA09GWZNVZwMDUVGD811pDJNLTWIzW6fj01o2O4NARS/DTcBgg1RTULNUVH\r\nEzVMPUk1RJFnNQu/ADXHDo40fEUbNe3kqzSp5gE1DhyONQIgsTSYARM1XvgDNQf3oDQwxdo0fqr8\r\nNBYgHDXxDp801A7YNI/UBDX05xk1gGVCNXjULzXKbSQ1iRwBNadFhDQ3zz41kW7aNIbtlTRXYVg1\r\nXizUNNJW/jSNaCk1U4qDNWTJvjSHqKo15C3QNIc00DTx4JQ0NZAvNZWP/zTKxYg1yXYCNduLRDWv\r\nkgQ1p2XWNFiolDRrwbA0yq3MNOQ/1jRw83I1swCnNT8k1TQI5DY17SpfNT7kqTTC2sA0PsEqNdNF\r\nKDU3AGA189cSNbqi4jRWhjU16jatNAIA1zT2/gQ1T/JzNRjNjjXS2IM1mrYVNQfeFDWBHzk1ypUo\r\nNblpHTU7mdQ0C3OSNQEdATUsTJM0cGN3NJ5oFDV4yxU1+RP/NO4HvzSD24s0Yta8NFzxBjWiZq40\r\nyQlGNVBHCzXaIgI1+iU1NSeQzTSi4pU0GTjtNP9t4TRKLvc07wwlNYaBIzVmyBA11+T9NGu/BjVP\r\nryM1flbtNEdYtDVAzwc1mGUBNXpW2zSGSqM0drUXNXlCszTjNRE13N7jNGQ3CzXHfQY1FjwaNUAr\r\nCTXYrN40KJDsNHGQ8DTU8NM0w8eWNDuqUDUFf6g0jQA8NYiMzTR38DU1P5G7NEjjDTVg2wc1bmJK\r\nNdM09zR6mdA0K8iXNIufJjUyFZI07WQDNeiMzjQC4qY0nk3JNGv+4jRSnpM0sNbmNEO5zjRn7cY0\r\nnALLNFYo6DTFPws1CiHWNHIk9DRbL+U0TirSNEizoDX5AZc0S7qENM9sMDVsObs0s2iVNA7/0zTP\r\nlaQ0pU+kNAAw7TTiEQU1g5smNbNfHzV4ihM16iUGNYBI3jRFqes0/n0NNZ+fCTU0GcU0/HuONPtE\r\nKjUObaQ0gcICNYjMDjUWcTU161+0NHKC3DSyBwc1tnTHNHwk0TRgo6c116KoNTIy1zS2y8M0XjDy\r\nNG0UkzQy1oQ0PXnmNIxjdzQ+2/I04TiONGSDdDWgQII0DRa1NJxECTV0Ppk0w0SINEDpAjW4dvY0\r\nBqs3NeyDtjToHNM0atkuNRrF2jTKjss06OrmNEP7zDS0uqg01pmZNBOOjzRV0xc1ikspNRO1lDRH\r\nSGk1d9TQNNSmKTX+B8g0zRaaNNhOsjS9EPE0Rb28NCIprjUW+wQ1mjstNSJ1zTQIIm81P2XFNO6R\r\ncjTgphU145orNT67wTR4lbw0QgMPNTSWAzXy/Gc0ChbRNFi1QjW19N40TqsJNa7eEDUb1JM0sdOK\r\nNG6kFzVYh2I1U7ITNSz4/DR+tYI0XZYFNTeFKzVlvgw1LAFdND7paTUyum81on26NVFGEzVw2Xc0\r\nf6oFNert8jQhSrc0p0npNBYO9zQCJmo1PrzFNA+SxTTiF9Y0ycwhNZAmdzQwsxM1NNeuNAYpUjX7\r\nOaI02JX5NDjpJjXMXtw0fjowNerUJDVki+o0GHUgNar0MTW+Qac05uScNCK12zS+D/w0pkADNY8T\r\nbDRNRx81unxONZbUyjRAXmk1cSqWNALZcTQp8uw0YaiaNMoidjXAyes09MzENP2/ADUIVSM1rK8B\r\nNeTLDjWdlNo0cp0LNeBLHzWS7Pg0NLajNOyqejSgbJk01rwhNbT7vzQz1eE0+UgANeMVXDTJTdc0\r\nbF+kNPrasDRmNWg1ipX/NLnvmTS6H6A0Rp0ANbBzyDQ8uJQ06gzsNKtV/TSKppY0cTonNSJQaDTR\r\npAw1IgsRNXHIEjVngbY0lqciNX+qxDRawQc1Pu4FNefv/TS9VwU1PlHpNMudBTV0OYY1mox5NAdZ\r\nuzRACps0cGLQNEOJADV2qus0nzksNb3IiTSuae00+Q1ANbIREzW3oAQ1REAJNbIL3TTcqhU1oRno\r\nNDkFKjXXJDA1u7wDNbwbpDWCf800Z3YpNTuY3jTBakc0Mhl/NDZwcDRKD6Y0lFniNAQClzSa72I1\r\nFM/DNOjY5jRdhtw0PyG4NEUd5TRS+KE0lgynNBjKBTVYUhY1LDneNKzzwzTAAts08xM5NaxODDXq\r\nL+80MD4jNQshGDXYN/w0f+mJNO7c1DSlExk1kr+QNCk/MzWf63I1hgO1NN1fgDTj0js1qWcBNTla\r\njTSnkAs1y7WZNPJL9DQIRxo1vwxGNXqgfDQasQo1xPKvNDtVNTXQmOg0uFMENUUxtjQy/+A02vcb\r\nNaTnXjVRvS416oG5NPS0JTWph700BHfANHRGDjX2UZw0TKexNCECaTTSmAc1DBA4NQCA3DS9HKhA\r\nLo6iPSP67TyZ7bw7u8X0O2tnQztW9wY7kK5MOiIyqTo/+I86W3IKOvtttzo4nSA6owD8OUx0rTk7\r\nK4c57TwVOsOeoTkT7qs53uatOabzEDnUK4o5SwizOXFcKjmoGVc5lG/vOGD/dzm8LEc5nQXOOBb+\r\nLDnEhm85YviiOPgpCznBW8Q4JdskOfKrzzjQHi04nDfEOBG4DDkxIZ04kAAJOS4QSjm3gGs5FSOj\r\nOD+B1TjBHhs4IqZFOTXzlDh+B2g4PfXBOOomlDi2Rbk4Su+qOKfttDihCME4XGrxOJJTvzieL0Y4\r\nJO6TOIlEtThuS5A4SQ6FONVqoDjsS6s3XUqWOMRbqTiyWH44CCaaOCybqDhCZZc4esxkONzQ8Tcg\r\n6KA40ttDOG5dLTj8HW84OiOoOAkdNTjuj4w4NIaBOOl3JDjsxyg4Ett5OFn1ZjjVjnk4M4tcOMKP\r\nGzjypiM4GzhXOPzmJTjKYxA4rJJcOCYAXjgtRbU4Q894OMQVlzhk5+Y3oc0ROEbUiDiy+bw39sul\r\nOMIUQTgv/vE3Ak58OOPOSThr0p44zAIBOL/zxzejzUI4b3IgOOf/mzjDVGg42udvOII2yzc2XD84\r\ncqWTOPh+NDjdu1s4wnJVOMxo3DcQCSY4uNK3OBz2HzhnEYA4DngWOHxZRDj5ILk3iq2uOGLlBjj4\r\nVRI49kwVOIKIBjhzSic4/5wROKgtAziKzuI3aa5KOGh+2jerOX84mjBfOE3uJjjT1jE43Wx6OMwW\r\n4zesiY83yHA5OKLukTeNgoc4bq8gOAZEHjjH0Iw4QpOUNyNxYjjSZOk3JhFdOIYXfjjxnHE4hhw8\r\nOKP4sDf6XWI4j44/OG0PMzhqjt43KeTtN1fDLTjSaS04nLpMOBrtNDiKIoM45vHbN+o3LTiL/ls4\r\nxhoAOO62NzjgGC84mVzFN/qHQzjMh8Q4AysrOC0FATjoBLA3xqisN7vs/TfBR404+gAVOKD10DfI\r\nQgk4FMkkOIqMzDep+lc4jCPrN34uDDhQzUA4LAFjOIC5XDiQKw04DtyxNwR8IjhfLiM4eBGFOMQO\r\n5zcxgAg4FkErOEGuWjimWKg30U/3N55w4zcCQq83XV20NxBR5jfK3y44ijVvN2BKbzimFLY3wXLq\r\nN7DbRjjyVcQ3NZ85OAjGiDiEik43gGArOO5yEjjbwBM4NKzFN0vqLTjhaIY3ZkoGOHYCkjdweSo4\r\nflbNN2QA/ze2lLU3wr/UNzDawDegnw04T4WaN+4CdzjG6WE4ufZUOLZQqTd+cuA31rwnOHwK1jdj\r\nPoE3Xhy3N9c7LjiHpMM3UG8hOP65Gjhhib03lIkMOGB84DcO6gk4iQYcOE67FTiM4hQ4mEHAN++n\r\nFzgArBs48yvJN7J4izeKu6831pPjNw5PiTciLZ03QTYWOHF1nzgt7RU4h072NxqNpDd67fQ3Ucwk\r\nOK5cBzih8UQ3eS3DNzAvijfYReg3dpM1OPnW6TfyKr433DZCOAjQVjghtFw3uWq5N1fiBjj3aCY4\r\n8fJmOFmnJDik0js4rfXZNxT9eDf3Hac3sRtrN1aW0DcFE7w3KV7dNy2V3zdUjrY3zOwzOGcJ3Tdm\r\n4NA3rzcYOFi3Hjj/3c43PMU6OD5fozf8YKA3RI0VOGGwSjg6z7s3oWLCN6ATrjeYVlY3H6BwN2nY\r\nDjhFvTM4JLVlOEcPwzfxYLE3Q+xFOHykQjgZAwA4faIrOH64gTfgaq03qlMdN4eHnjdb05w371ZK\r\nN5ozCDj4ohA4vRGdN2r1ujcE8uc3hQ/HOJTNFDiWBkg4kD/pN9YI7DeccP435ofBNzeBhDc8/sM3\r\nFOa7N3p9IjgIHrM3p2WwNwjDVDh8vK03JkXAN0jtRDhUUt03MtGvN41THjiQWKo38CWEN7CZADgG\r\n7YE3ICXjN/TRFThjrMY3Q/6tN1pa/DcJu4c3j8SNNyCEYTeprJk3z6goOI7DCzjmZoc4DteQN6UW\r\nqDd0ZR04TpdeN+aIvTctP6c3VnzgN+gpPDiefRQ4wNOuN/pb6TfeQ3o35fabN3rgyjda03U4iz4x\r\nOORQJDgkVxU4J/guOIQXjTcsPW04t2+1N/SGNDiNSvY32gM2OEJ15zed5OQ3+JnEN/5TYDjZ4IM3\r\noUGbN1UQqjfjxsU3zyuWN/hCCji1XZU3zHzbN/LEcze4pi44NyQCOKE2ojccX1k3KEyIN+7ubTfa\r\nOKk3HrY1OMLuITgsC9M3Rk4WOKoCDDg7jDo49VTkN4bxCjhYhzE43wvQN8u4qTdS8e038WC8NwL8\r\nszdIUk04iGAwOFVQsDfv8Gk4nJHtN8QmAzgM6kY4xAT/N20BBDiLM3o3IQK5N4TRgzeCPgA4LeLv\r\nNwuvwDd0k9U3ZefdN1ZGpjg6ef43SkbBN0MowDcSylw3KDxpN8pa+jeaD8A32gj4N9PG/TdDjgg4\r\n5jWjNxrtLDjXZGc3nweCOP2GfzeIJZ44boXpNk6zlzeujJM3sE75N19nPTjnuss38cuzN9CG7jcZ\r\ncok3Wuq7N7/VpzdRhDA4lDo4OPPhHDgRISc4/jAbOPRFrTco0u836MC+N0rA3zfgea03zp4+OJiP\r\n/DfXtRM4VtwZON+nDThAtuY3uDvTOIBbjTeNtBw4jVbQN3QeSjdgi7M3LmelN4ST7zdyxWE3guvz\r\nNzc0hDdy+P430h0/OCNwLDgUg8I317GvN/5m3zez0bA3yr2HNzxPETj5sos3HI6PNwDUqDf3TrY3\r\nFLnyNxYVxzcYrPg3XpuZNyqR8Dcavyc4lQHaN3gxAThuBgo4GFGENzYmqDcf5pw3USfNN81C2jcf\r\nMf83ItjnN1hKgDcOfNY3jsEWOLqNNzgeHcc3cDj8NzNdBTekxxg4DDmFN/zc4Df0yLs3OunhN5Lg\r\nhjf6OxE3RCglOIuScDc9usU3JTLMN7w+1zcYkiE4GF75N0TqgzeJX+c3aR62N6YZvjc8Iu03KUWa\r\nN4IrrjcXYPo3O/I8NwB+gjeaP/03kRb7N75+9Tetwa43DR4RN/NXHDgaSZA3hvTcNxSSJTi+7Aw4\r\nv1rnN5pYADj5sas3YmbDN38YvTeTVWo36guCNXCRfDX1PXQ1JI+CNc7rNTX5AoA1I04FNaZRvTSt\r\nv6I0o2rHNbLxCTUKZh41aTYUNcpFWTX3srQ0c3D/NKxfIzW2FUA1rsRENWbAaTWU9y810lrRNOO1\r\n/zTdE001MvD6NPpN3jS2NLE0jxr8NBvJTTW4Kxo1hKm4NLtiBDUqDiM1UusBNU8JGzWMDvE00f+I\r\nNOtcfzW8sj411gnQNW/l4TTOoLo1Ty0QNVtalDSqPrs0kwYMNYjmCDUU0wc1fJfoNMw58jTekqc0\r\niSexNB5J+zRHjRM1K8NLNUF4FDUfsMA0nRiMNJKjejQKnis1nKfiNABoAjURDRI1jWhSNfUYrjTp\r\nhMI0xuD2NHpzQDV+/w01zF0KNQcJEDU3BTw1NTDONKL2pzQHZ5A0ShITNWl74jSNIxA12RYfNZxF\r\n3DT4juE0A8MqNURI5DRoUc002ZXVNCTtijV8YtY0cpLANIrswTTSaqA0DRmzNAe7lDTYA/k06cQB\r\nNRu1tDQE/+Q0WwyMNJyzIjXDwIY114glNbwiDjUcmYM0106bNBONiTWUGNk0MvC/NNnp0zTYqZQ0\r\nwybDNDVOuTSmftM0duXUNLq01TSdBc80RiCiNJEbKTWUlz01Xlk+NaP4nTStJEU1XiGTNCsqNzWI\r\nUZk0akLYNL7AmzQOA340qK+nNInZDTWir/U0zUGmNBn75jRgS0k1o9+5NP6aKzUcoJI05FV8NHpV\r\n6jS/tfg00G2aNJhvETXn2580CJDUNJqh2zQ5KRo16R4ZNTMUrjQq8pw0PrwLNTwS0zT6Z3g1QwA4\r\nNRjgJjW5agI1vnrnNHA4ijR61w815xL4NO9jZTSRqbE0Q/nhNGip/jTIYVY0uKKmNOsSKDXByfU0\r\nqk7nNNbl9zRM01012HZjNCUTkTS58C41iNECNUxHnjRsILE09EcQNaJ/zzR2Oyc1vli7NPr2XDQD\r\nqJQ1xhu/NNWBKzURb5s045WCNIBEkjTkbXQ1xhOjNHqOrTSXuyk1SrpFNc2K1DR778w0taejNPC2\r\nMTU8tBA01imSNHYp8DSke480ISQgNdmDDzUOqCo1KW4xNT5LDTV+fu00bdcvNQlF7jR+WtM0FpcN\r\nNTaJsDSiCLc0qaVINMNHMjVICqk0DawjNaRjnzQ0hPI0lKkENaK/GjUFchA1E5KXNcHdmDTGugc1\r\nnvDCNAa1OzWaYCo1gKNQNBga6jTcPTI1oQQONe1HiTUhO4M0astkNcAnHzWwCE01N5t9NK6qFTUG\r\nOT812xgINaommjS8ZwE12LWbNImPhTVCZS81qpjYNAQygTRx1001zCWnNN7nVTUkcVk1jXZDNbZ+\r\noDSzKao0CmHzNAB1aDU9k9Y03OWkNO7RBjWr7dY0TpkHNY7HADWaAo80eKjfNPJTmTSXyA81qIou\r\nNVha0TQ89NI0V28SNXDDwTRssgU1kC2pNIA7DjVV34M0vnQFNfTRBzVQsE81BlRMNEPG5DSFl7U0\r\nk88ANURXxzS7xnI09UNwNBJjiTSASLs0Tl+bNEpIFjX12DM1OsLvNJUvHDWCevQ00ufRNLTtoDRk\r\nQtA0NxLgNFystTQUnjk1kPmANIgNGzVdnOo0vAfmNKrMgDVuikA1sYIQNDDaKTUlyAA1ha34NH0r\r\nPjUiotI0QrUBNb4PizRb3EQ0wo2gNAtgijXg59g0+VBZNW7yRzRg1aM1pvHVNMYIIjVIHeU09oy4\r\nNFSlnzS/RZw0Q6LyNJDYQTU6vhQ1rNgWNQ0wAjUCxdg0xO1yNB6fFjUmVeg00fGFNKPiwTS8upk0\r\nAMH8NL9ROjUHB7M0oHbaNEgArzQZ0AY1OKoANSv6kzSQG800y3XeNMKxATVq3QA1gaupNAO/JzWw\r\nk+w0cDqvNG/InjSyazo1Gu+iNET6HzVKM8k0nhFPNRgA0jTWDUk16g7cNF+1CDVL86c07ckkNcJC\r\nljTB9hc1bp05NaW8fDTVniY1zbvLNCPF9DQhuoo0cmKINEid8jTcMu40kdzkNEnNjTTeobQ1SUqa\r\nNJ01vzQh1bQ0R9DzNNbg9jS0Ns800SmbNBui8TQSHKg0ZmoyNSbZnzTrtx01stcTNdKL+DQ4jxU1\r\nHcfRNah8fDTOokQ00O4tNfoAwjTABbs0W51ONageszRd//40P6a7NALfPTXQhjU1bDs1NWxC/TQN\r\nQ5s07MyDNGqohTRZvRQ1AB8hNbYFCTXD/d40hEDXNG4HmzQfh640r0EVNZ+4njTt0sM0P/KPNHFz\r\npzSDduk0zXk4NZR/CzU+bgs1cImTNC+EYTUccYY1OqJCNQZoczSG/N40ZB24NHDONjVujcU0UrgF\r\nNXgIjzTwdog0vk72NG2ITDV9t980Red0NFp5KTUx8wI1tDnzNB6TGTXz/b80AAAQNQ==",
                            "noiseTrainingType" : "default"
                          }
                        }
                    ],
                    "start" : 364,
                    "duration" : 1390,
                    "mediaStart" : 163,
                    "mediaDuration" : 1390,
                    "scalar" : 1,
                    "metadata" : {
                      "WinSubProjectDisplayName" : "",
                      "clipSpeedAttribute" : false
                    },
                    "animationTracks" : {

                    }
                  },
                  {
                    "id" : 114,
                    "_type" : "AMFile",
                    "src" : 9,
                    "trackNumber" : 0,
                    "attributes" : {
                      "ident" : "Section-4",
                      "sampleRate" : 44100,
                      "bitDepth" : 16,
                      "gain" : 1.0,
                      "mixToMono" : false
                    },
                      "channelNumber" : "0,1",
                    "effects" : [
                        {
                          "effectName" : "WinCompression",
                          "parameters" : {
                            "attack" : 0.0,
                            "gain" : 9.0,
                            "preset" : 1,
                            "ratio" : 10.0,
                            "release" : 3500.0,
                            "threshold" : -20.0
                          }
                        },
                        {
                          "effectName" : "NoiseReduction",
                          "parameters" : {
                            "denoiserAmount" : 20.0,
                            "denoiserThreshold" : 0.0,
                            "noiseProfile" : "qO0aQDtwGT/PrT5AAVcOQCflaD+QURE/6GkiP/Covz6te6g+FSNiPoY4Ez5Xf30+q95DPrTCMT59\r\nejk+khgXPh47Kz4QvwE+IltHPUwzBT3IVoc8Mn4/Ozr/PztsuR07gm7GOuVmDDrxnBQ6BJ6LOQNR\r\nKjk9zfg559mNOVf0IDmoC+M4sbOJOQjuvTi4P3k5LzKTOcGeRjnSLrI5sMoDObSuEzmVrDU5z98K\r\nOkDFnDlAHhw5aWDvOIlkOTl/Z9E4qAbmOLEAuTn6bfI4TiwQOeMqYjle+uE42MT3OG4CFTkG2fU4\r\nSLCMODJ7LzlIDvg58V3gOM794zjkG2s4pOyQODYYZDlGmEM5hfi0OAplNDiBJZ04+I15ODbGEzkN\r\noSE5xFGAORbmIjm2BhM51sjhOCy3IjneAiA55tToOHnqIjk8Xg856c9/Odb3QjkxD6Q5yFmqOX9S\r\nmjkNA2I5dWE4OS4PeTkYi3o5W6ZfOSwOnDn1BYY5fAg9OWpPwzjgtvA4AMvmOMY59Ti4q604Oi0W\r\nOYhoCDkJbeU4hSI4ORdzfDg78DM4PLxaOALBvjj9inE5X9tuOOIFlThMGL84LEk4OUQQJTlXvsM4\r\nsXmsOH4BGzgrlJk4t8GYOO3v0ThaeKg4KFu2OEUPwzgACPA4BZJkOPoIAzlIGJA4aORmOLRaOzj1\r\nFMM42I/lOBgIhziMB4s4DqPhOG7Inzhlm604wLobOHrRZTg7+fI4vbMyOPvbNjhFMGI49ztFOC9e\r\nETjgBuY40ouPOGDfrDhmZLg4vtgFONgfHTh167Y4Ed2wOOlPWDhLgn04n2KKOBtEhDjKR5w4/R1l\r\nOKBA8TjpvkI4BOyLOKrd3zgfdzo48OR9OOk5FTh5vBI4KuX/OD4bLjgme5k4qZKIOGSPXjgCbe84\r\n66+OOHaxRTh6Tow4085fOHYw2DhWL0046a2ZODbleji6eJM4Cr0cOIBQUzh9DCc40pxXOD7MMTgI\r\n0/A4ZdotOIN22zcwEKg4rXjIOIainTg5p4w4splHOCEPgjeU53Q4J26TONTRgDjWtvU3jUXsOI+2\r\n+zeo+KE4tBofOJemkTh6AwM4P0ZxOHT1UDh3siQ4P5wdOHdIGTj9UBQ4VQeKOLLfLDhn+BQ43wKH\r\nOBT9GDgaUwY44lIUON/ykzgpRk84QHdEOKxxOjjyCRU4tKEMOAFt8jcFddY3rnovOJkKFDg4Y6U3\r\nz2x9OGZJrDjbaJU49j2ZOAJX7De8ZX84o0G3OB+TCzhJdcg3fcISOLLZFThi1aM3xkEoOCO9+zcC\r\nMqE4PZecOK94NzjTk0Q4d4oAOIfs0jcNEQE4ERfCN6f87DeatXA4hkAFOPUGGTgcUPk3YNbtN6DP\r\n9Te54/I3F1SXOG1zqDcgzgc4IewaOJJFlziO9mo4pulZOLxMCjgym843KGuGODAEfjhckT04c2hI\r\nOHTk7jcpXlQ4CkHoN3K9jjeEVZQ3GTSROK84yDfxciY4xqECOMy10DdUV4Y4yq4jODvALjiwIBI4\r\n4sABOOJOrzgt8IU4olv/N8ZxBDi8kgI4xlwgOAOpFDjMpi44Jc83OEzaIzj1w7k463aNONAxPzhs\r\nkw84dr6xOMEc6jfxI6c3pmJbOHBlBTgRgiY4rInxOOTRMjjc6mE3f6f4NzzUmDi0oyo4MdiCODqn\r\nJDjeQxI4lEGLOESFmjjhbxA4UhJdOBEjgziV3Pw3D4/gN4MIszcLIcg3L3SDOHPTvDddexQ4UCzi\r\nNwrdUTidxkI4XKC/OCYn4zhC3nw4oFgqOBr5uDe3vvQ3VuNFONIG1TeTBII3VL0qOGQH6TeJY8s4\r\ncoVoONSh2zcsLr04sesmODVpXTiJy8w32HLGNxzK7jdRBpo3pYI0OE4wFzj4KsY4ignjOIj4IDh2\r\nVj047vKaOEwekjgTCis4cpdnOCDHnDhSr3s4rOdyOOXbCDi+PK435B8lOEw7jzj3xho5aiNOOM/i\r\nTzjhCfw4WzdROEK+RjhEdoA4sXpLOBf0Fjj+ggE4lO/FOLEXJjgozj44n0P6N/jvOzjFJno4Zr6T\r\nOJrbujfq/UI38hoGOPcfrjdvEfU3wblBOCIttDfKNP83mMVHONXQNziBuB84OIo2OJDDozdrrpA4\r\n3iO2N0ejwjdLXMk3Ze7eN9oYATjKjkE4NeqzN9SahTgrqSQ4wmQAOFOwfTjiFfE3CP2xN1Nj8zfH\r\nXbs3wOLbNx2n+TfMvJE4je7yN53BWzhXhAw42b0MOHb2ujeqdco3OOaUOG27Qjf3Zs83/LAIOFX7\r\nIjjsbd03PD/CN/bgnjdHgu03DtLjN6pSGThOz8U3sikrOLQETzggEes3B/8VOCFbHDiKEck31GWf\r\nNx/oBjjQGGM3QhGwN+QBLjhbmDo4mfeYN/q5FjjgxaM3vcAFOLGlBjhHbDM4EgAxOML3FziibWQ4\r\nnGZyOG4fHTiNea03vcctOIhVOziYXp83Xh24OKapEDhz97Q31cG2N3yxyze5bR844VHENxoMATgO\r\nVUM4nHe6N0DSzDfLG6o3tgCZN/l2FTgqCJM4ljXKN6d6wTfyQ8s3NqvcN/o82TdQ97M3er4TOF06\r\nCTi3Z4U38rEBOI5xSDiRzbY3Fl68NwYQbDhKtOE3Dh3PN2EXpjdkTP43Pg+eNz170Tc65AM4RxEW\r\nOIimrTc9nYM3UUq/N0sflzeqohM4Ttj/N20UxTc6ttg3wqEQOEPxQzhiYao35B6nN6Fr8TcA/Qk4\r\nsPy3Ny2VEjhi+Ng3qeHdN7sq9DfBebE3OsbUNy3K4zemwaU3SoOAOGt4QTjE8vM3IapCOPS6Nzg+\r\n3mo4EV3AN+WTtjcNOSs4KN4fOBDNmTetTvs3yKuTN7oHhjd76u43sOdlN9GANDgm+rk3yNDBN6vb\r\n0zeP8yo4kmQlONBDrzcRcSI359UoOAN/4jdvmrM3yx+4NywXujcit903sfTSN8qn0DfhQwo4QrEL\r\nOF8wqTc7uoA3rqEGOIbUrTfLqy84MDPPNxaxOTjcLbc3k/gOOGiQkDerYDc4hT7fN+RQZTjeb4g3\r\n1/30Ny86ATgsAMU3rd0LONYX+jeGE8Q35yi+N3XWojbYGSE2pHymNXQmijUicAA1jYLWNZ+PGzWy\r\nLD81Q+WNNYHE7zQVz1Q1nvhaNQ/jCzUpj3U1/eVHNWkcLTUd1DA1xpSoNMr6RDWCpy818v/cNbPo\r\nDTV6rRQ1cttuNYqOpzX8Jz81QnYjNfuWrjVRbGk1O27aNIdDNzV/7gw1Nhi9NImF7zQGMFc1+O05\r\nNR2swTT+BvE0Gv1NNdr4+DTslRU1TAceNXO0pTRqcSY1yy/vNIwiGTVcmUM1Ea8GNfeR7jRrcdc0\r\n0l94NQjfLjWcTfE0OB/BNA5+YTXNxTA1gDJJNSC4STUlwm41U9n+NGC35DTGDyY1mhq1NLSHETVY\r\nqRM1m3eANb3+/TT3Tis1MwTfNALFcDS4pVI1/JlgNVeQIjVwXBE1mPfkNOyUGzXUTaI1GjkINSQU\r\nHTUPEEY1TlLyNBnwKDVrXIU0ukVoNSbGdzUWZrY0Vu3MNJ7UITWxzuc0xD9tNeDFIzV9nR81G8tN\r\nNcy2ojTvdqU0gSEtNcrWGTUyhM80GEafNXTjTDXkg6E1K5gRNdKffjRyECE1iVZlNcQzFTUFo5c0\r\n2mcTNRp5CTUYf9s0p3NoNdxxwTTmg101mnRnNf4oNTXm8DQ1ChSmNLMFQzXK+F80CGWBNbn85TSU\r\nbSw1CE8WNRAlSDW3gTA1rKTGNCSgozRfOQs1yEpKNcAdvjRRFj81Iyq8NFuBpzQUHmA1hnAkNQUn\r\n8DQtXog1Qq8DNZgw9jTHiRM1qBvlNGFagzXn6Qg1hGImNQpC3DTg8A01BWfpNDTcOzXJQcA06xrh\r\nNJe0pTS+Ug01khYWNYDBlDW3FuI0ozaiNMO5czT0c/I0hG4JNZEeGDUmurg0c4t/Nb/nYTWA6nU1\r\njCwwNVKBdTTqLcs0uSEENe94bjWf2TQ1cHQgNa9i6TRMGM80gj7fNGrQCDX6rlE1DyeGNKDbEjUw\r\nXwE1tIzXNCW4DDX9xdU0X2YONSsMbDWwqv00+zzHNP4nhjSMpuU0/Ka2NH+/MzW3taI00NO8NI1v\r\nqzRaH7U0x0MENX1jyzSYKDM1GnwxNR7A7jQv1s002iXKNBIdTDWMTYc0sp/YNJCiaDWaSFk1ybEo\r\nNQNwCDWwXj41LkPyNH7SUDXXpcU0dsykNBQW3TRkRnk0/znrNAqRRzS6uzg1mCMFNS8lSDU4RSE1\r\n31BpNZnSTzVOFwg1Ig/uNP2jKzWP3gE1+c8TNUSTNTUq2TQ1+dMRNc91GzU+law0ORxnNcKHNzTv\r\nJz01zqb/NG6E1zSUpWU1qBiXNPUiMTUCJ4I1rb8rNS8SDTU+4Tw1RmbENHPjUDWD5Bw1WmUINXx6\r\nBzXOYEs1DHJNNU6FWTUJYnU1BkH/NKuqWTV7Pw41eAv+NDcdjzUY8wE1YomJNCGCRjWL+O80KAQJ\r\nNbLyCTVot4A1auolNca10zQPgPY18FX/NMAJEjWr0XU1vdBcNV0wCTUwWyY1bn+yNPByUTXf5gU1\r\nZYOANA52gzT0YGU1JdUhNQLTKzX0Ubo0nJGwNMLP5TQO3iA13feONLEunzTluUA1x9ZeNKEMGjV3\r\nXcY0upMpNdbvYDWON9s1vunmNNoTvzQqhRo1I5AJNQ14VDSmxmQ1Ll28NHVD3DQP9t40LPsBNawK\r\n/jQ6zVc1Z9KwNFx+0jTSYvg0dxQVNWJn9jQ/AJY03bjDNKjAuTTDRio1ceyrNIFZgzRQYzU1Y9QW\r\nNaKqhjXpKWw1/e7qNIOqLTUSvD812Wm/NK62QDUNnSQ1SuAuNfiq5jQ7eHk1MAlzNcesETXsIcw0\r\nJG0KNXfXNzVIg4Y081LINGh3CjVEv/Q0uKCONeLpITW+QtQ0oDUWNWv9bDUz+wU1wCRLNZKJgTUV\r\nr3U0fJsLNWanijTlVQA1abCvNMzs+TRsnBM1g54ENUQJpTVXObQ0ZuJDNSsxDTWyBJ41v8X8NFB6\r\nqTSyb6I0pCcANQ0NXjXOxxo1dKduNTk2IjWqcxg1CIJHNdYfBTWYOY41B9OzNKrc8jORJts07729\r\nNf48XjTlyOw0y/eMNGKJnjX6r2I1ZK8sNY9EITUedSA17uqwNDtfjjQOo6s0gTDxNGMcpjUKlBI1\r\nsxadNFvN9jQdlZY0+iwyNXRrLzXnVYM1B/AYNe24tjS25UQ1m4QENU/wjzQegOY0xr8cNZgRpjSe\r\ncxQ1RoCfNfflLDXy/Tc1pA7ANJnjRzX4nCo1JAvrNMFgiTXqjbc18BkXNVv1gzWH6iM1kG0ZNRJ9\r\nkTTTTiQ1ou3jNH2eJDUCtjc1kgLMNL5DqTQ7ghQ1RbmVNL9cCzVoc4M1YzGXNavA6jSISWk1FJW6\r\nNLknGDXFfc80SUTqNPe5EDWOGM80LOxDNRqTPjXrsLU07WIMNWTrjTWFgDY1VmcXNQBANjW+pxZA\r\nxLHQPdN9oDzsRt47wCzbO6knODugXgk70pHsOrwMhToXEHM6ErCDOq9L7Dlk8406J3wIOkL28Tn2\r\nwaA5yCMHOk4sKzqQnpg5HN1dOdUg0zlDdQc54XDaOKVOtzms3Fk5Q5EnORK2TjksLxI5rjRuObvF\r\nFzm+MnM5wMQQOTGuyDgpiP04S3o7OfzfFTlaWX05x0+BOSKKPDlABUY5GJjFODXg2DgH6ws5CaUX\r\nOWpIAjkUfAg5FlHxONSLCDliCJ45/ADWOF185ji2YbM46jQgOZ86EjmQ3QA5OTO3OCd5HzgbZGY4\r\n1L8sOSZbjjh9M6Q47nRMOd8aVji+6Dc55y0sOZBmKjlQJCA5Ily2OPnP9jhW66k4ujrsOPOz+Dgl\r\nY+o4HWBMOYXE2jg7IkY5C07WOG0+uzgw7m45FF/4OOxiGTkvsy45sAA4Oax/tDmoUCI5z6slOfTm\r\n2TjsmoY5TjCUOax3iDmIPGQ5e52COSSTgDlMP9M4OqXNOBSF4zi1AOQ4PJw5OWXmNjm3/q44u+2W\r\nOKgeHTn+tyY5o7P4OB4bhziZXLY4llZTOH3zVjhDgoo4A3MAOVyfEDn+Hpc4F8euOEIYDDnzFoM4\r\nZu3OOHygmDjE/Ss5NN9nOLJM5ThzrMk4xN+eON6ixji8VOw4btpGOdODwDg8lZM4nUp/OAeZLzhh\r\n3tI4fjMhOOpbrzhC3r848lwyOK+20jg65w057bwtON9vhzhmJYI4buC2OF2iuTiyLUM4/PfOOO/l\r\ntjioB5Y4tM3OOLKVqzh6Wkc4chiWOOyqjjiuAtA4yh17OJLPHThOv6049SRxOA4VCThcfjM4UI7K\r\nOOoQZjgslZs4iEeEOBhtczh4RQ85XOLcOIom1Tixacs4FBSbOJ5nNzgLlDs4eip6OOLUPjhI4xI4\r\nYYKZOGGAhjjvNGI4en+FOLvtFjhy3aw4p9MgOLXIkjhqrxA4hjouOEW8CThBaS44iQoiOKzmlzjS\r\nYTs4MmePN8FtSTgQSTY4/Gp5OLiHADgpsAY4HsqfOIkgfzj4urc3OaTjN85FATh4O4w3wbI+OEbv\r\nxTfCOaw37p0AOCvo8jcyxb03nG0POOaFZzgiUUY4dZUYOI8YSDiak6M3tUTBN3jIETi8KEQ4c0Ej\r\nOMNPJDjL4RA4abWcN2s/fTe48vM3DA/+NwCfIzgvhN0307MhONLVFTi9MxE4Cp8rOCk7mzchGOc4\r\ns3ntNxQDKDgv1EE4fWrzN4i8fTfIzek3QKBNONmPSDhxgsQ3H3S8N0bubzjW5iA4KWSyN8RFvzfW\r\n25A4RKGFNxjFzTdespw3nQXWN/g+uDfGaXY4gdPnN4UCQDgxsTY4lpgnOJ0KyDd6J9s3m5P0N9y6\r\npTeKqP03+ZOCN+eN4jez8dA3+hy8N1HayDcSU3E39hsjOD/MIDh+h1U4vZiVNz6elTcubIw332oW\r\nOEdwLTjnigU4qZ0xOAsP8zcNmtA3LjQ5OPMd2zd5uT047PrLN9j9HTjLsPI3/tLpNwdw3TfZs903\r\ntIvFN+JS5jce3tY3p3WsN8pNpTcdkxU4jvpIOLZaRjeja4c3NALjN9KBsDemUhw4Xme7N8qBlDct\r\nnDo4jkgDODHrwDet0mw4qFUUOMAMCziuCOQ3SNKiN/4bmzeM02Q40V3ON2sevzdFrQc4hCEwOHzs\r\nkTdXAro3GwmJN+Tq2jfYAsI35ry+NwMMPzhQwMY3vnTNN1asnjfy0hU4Ynz1N2CuBjhU4so37MpT\r\nONS7LjgLfDE4JNnGNxwT9DcbmxE4zg8OOBAlEDhT46c3PJkMOOS3qDeFZzY4fceDN13arDfwPfM3\r\nq9nCNxN8GTi3J803fAQfOC+sRziGKak3IZQmN/c+KzgN8OM30yyAN6lrFThYO+Q3yhE5OGqFUTic\r\nEhk4yi/xN4cPvDd3NXw3axjWN4jCKTi0U+s3/GiSN76/VzfLVrE3uUgMONyBZjfMzm44KvmoN7Df\r\nRzijcIM3LLP+N0ywQzgkTcY3VVopOFz/4jcuCRM4UndjOBdLKDgwU+E3jxG1N+IGrzfW1WQ3/CCP\r\nN/+xujdnzds3YJ+aOLxZCjiIdZc4mOmEONv3YzicI8s3h4QxOCHgtzcEQg84ZM4WODyt2jdmAvo3\r\n5DuUNx6K6zcFqBM4lfGLN7fzEjjKmSw42JgSOBOmIDjE1Rw436OqN6mA+jdBnqY3b92PN5jK8ze8\r\nApU3nImoN7RDiziomo8325TEN9SCejeFIqk38G3aN7Jx0DdXoKE3EgnrN1IZCTgknyA4dqbQN80U\r\nHjhZib03Mm/LN5YpuzcQ+Pc37Ja2N9QLJzhq6ok3qHTMN2qEmDcc09U39zYJOGrB1DcwMP430Gwf\r\nOCidKDiOFvo38N+3N6/Xdjem+e03g81wN6x6GzhUq7g3xWULOD6aqzdP3qA3evyEN8yCYjggQOI3\r\nC9mdN1hdEziGKHs3HCXiN/wcAzh8oQs4QHLaNwNuLzjCNws4sDBAOBvX7DeJ8TA4itFPOKhWBjhC\r\nJrA323N6N0XggjetHbU3TbjUNySqNjg6vJw3QhziN8XnAzhpHY83j8mDN0yfvDdaLo03gGnoN5xr\r\nATjS0/U38NVKN76jHTiqbpU33UQpOF0GqDfApws44+PFN0kvSTjkXp03fU8DOGhXHzgshjA4GCEx\r\nN9/CyjcD2Lc3gxf8N3peuTenzzs4YGWRN2uh5jeE1b836JGFN7gJ8Te3rPQ3Vdh5OADyGDjg5WM3\r\nZYOrN5PeLjhwac435QXCN5uRgDc474M4T45EN9n/TzcV6As3Rqq+N+vlhTckk4A4WszgN8BDxjcD\r\nBhE4m+6QN0HhJjhJ27I3klaCNzR0nDdYrKg3td4bOKhJGTh0rTk4NbCmNyscXTeTjPM3EzCRN+im\r\nDjhnaTI3WbqRN6e30jdyS/w3RvUyN3EIpje3cMk3AcSUN8uU+DfGSzA4qpmoN51FijcrLAA44waE\r\nNwJXwDdGSf43f6ETOMzgvTeYnOs3h06FOMadqDeYTa8382QqODWvJjhld3k39QIlODRTsTdZMpw3\r\nQ3oXOIm+yDcMIYI3043VN0AYqjcI1Rw3WfRSNWQ2LTUNLgA1hUwjNeMBEjW7Kwc19l7/NOVQIDXM\r\nOuk0Lqu0NRgSODUU0p01F23nNCJeGDUZVUg16HrGNN6bYDRSu/w0m4/YNMg7HTWCPAo1Ann4NMti\r\nFzXDCes0lAedNLkWwjSYDbU0GcS8NEBGYjRFegE1kPmSNYaNCjXLgBY11436NL0xCTUKzms1FLjN\r\nNGPyHjVH+eo0dskCNSa3gDQLm+40HjARNRommTRUBvY0ClfENMwNXzUfg/00Tal8NCHi0TQXFqw0\r\nReLMNJjZ0TRt8hQ1wcPQNNS5HTXOWVc1sjPoNMdf6TTvfVU0meM0Ne8lHTUG1+k0BrU8NffGkjRU\r\nI9c07fO9NM4PIjUujXU1S3LCNKpY+TQVUs00vS/1NGMxQDUCN8E0UscFNcHJjTRJUsg0aI6NNFSJ\r\nEzU+8yY1JlcMNUsYjjQjRvIzaabNNOxaSTXoxGg0bzr/NAhfVzU/OyQ15IJxNIJK0zSS4hU1OtcL\r\nNSbcczR40U81LteBNCB5NDWm39w01PmqNLb5rTSeWeA0XZm3NO/2DjV/YxY146O6NH4nzzQKlgg1\r\nSqqANCHnCDVL8hA1X7OfNCeddjRcfeA0CAbCNB6vjzTbdwM1UL+YNFBkkTSoYkw1ltbQNDGIKzXp\r\nWMU0qJz9NMUzxzREaPg0NcRnNAM9ljT33Ck10+afNEJ1ATWGFoY0j/PaNN4LwTRs47U09B7zNKgT\r\nqDTFAAM18pIkNRALrjSekbI0/38KNZ0q4TR2/400FDLKNG8RvzQ/eZE0NrFmNRaVzDT02nU0AlSt\r\nNCdYUTW6E+Q0/vgRNaqX/DQG9eQ0Ume0NFB/GDVXL7U0QzgJNVACuTSi8Sk1N9qaNOMSBTXxgOA0\r\nUlOfNEBMgjSzBM80ysM7NUx6JzV4EFg0PYgbNeQxBzXuzTU1fFjLNDsB9TQwC880ngZINVFkJjXC\r\nLaM0rmXENMTxZzTtE5Q0loLONCR3DTW5cRc1bhOUNAW0CjUA88s0rxC/NGtS2jSRDvY0PVjzNOBM\r\nADXe7KU0WhmjNG9j2TT9PMg0MAKUNEDbCTVXTb00QsWKNGAL3TQ/pwQ1/zjoNK5zEDWn7+U0+AQe\r\nNQ6ELDUbKqY0K3GhNEIXjjQKQsg0TgwnNb8mGDX+0Bw1f8WKNJDO9TSfxL40APFYNW6X4TQaQL00\r\nqpaHNBgxAjU5BXY1GHgnNcfV5DQTvM80SqTPNGJfUTWx4Sc15vykNOJqpTTu+fo0GgoVNe5aCjW9\r\nnsw07HbkNL/4ADUL96Y0QXfBNNh8YDUt9f40nvOLNDNbRDVF5u40N5sJNc39+jRYH/A0nfzeNLMf\r\nBzVjPPU0rAmFNGdAADVeDco0Sz37NHSLOTSaiSk1O/x2NJj+szSe6Rw1ZOUVNd5zCjVLWyw1gRx9\r\nND+9vjTFqCM16LtgNIYOqDT096c0mGusNAJz4TRiAps0WoB7NW6/0zRO9wc18MaiNHIrUzQqTMg0\r\nuwPrNJmizDTMMm00MCHlNCIzWjQmYOQ0ylz1NKoGBTVBgIs0KmKsNPu6ADXCWng0nNWdNNHM8zTm\r\nVtM0v1t9NBAhtTQTSeY0A9oBNboWljR+kLI0ZFzjNG+bMDXwdOI0mO8lNajQszSmiVQ1aOhJNC+e\r\nFjXjgVU0OOl4NAZYtjRfJtY0clAlNbqViTS+UqY0OXjwNHNVqTTA74E0fRrwNOGXqjRfncA0QFbh\r\nNHl4oTRgqqU0/HV9NCpQBjXfzaM01mNlNFrD6jQmeAU1ow0yNbEP6jRAe880SEusNCjY2TQGwyM1\r\nTbiZNNNCMjXW7ps0KQAHNQZLwDRWyxU1Dh8/NEzArDQDYQE1C90ANWL+gDQTKfM04J8ONb6pyTSB\r\nvxI1P8A1NaRHsDTqSTc1cVfJNLrxEjXgUv803ujvNKMsozS0vXI0n/6jNHBwuTSZViQ1LuEENZDp\r\nAzX6oak0lMLNNKfSiTXliQ81mjcMNXIhHzXJZsw0EGoINbtnpzSLyo00C3gnNWzOADWgYQo1Guvc\r\nNOucNzWiTGs0nOcqNJJMADWeKes08L3BNFVC9TRPlqk0VCR2NAh9uTTAdXg0iPMTNc8IKDWCQKw0\r\niB+9NNrTEjW60dw0tKb8NC+UvTTY8Qg1HCujNFN17DSi9ZU09kBNNbCthDS0Xkc0ZC+ENftapjRq\r\n+us0UJcpNGWv0jQwtNA0mIYhNZw/OjUw/5c06I4XNZPDljUDybs0sCF/NUCcxDRY+bs0qllQNKIX\r\nFTV7jpc0shgMNcbTEjWkkg81FbYPNbJ9wzTiaUs0K+EeNUWZ4TQjbsA00FXENJf/gTRB1Gc0m1K/\r\nNC6yoDS0eRg1VdHfNCZePTWQhYU0/LXxNNP/3TSUcpI08wQkNSQ4mjRgp4s0AADINA==",
                            "noiseTrainingType" : "default"
                          }
                        }
                    ],
                    "start" : 1754,
                    "duration" : 1381,
                    "mediaStart" : 0,
                    "mediaDuration" : 1381,
                    "scalar" : 1,
                    "metadata" : {
                      "WinSubProjectDisplayName" : "",
                      "clipSpeedAttribute" : false
                    },
                    "animationTracks" : {

                    }
                  },
                  {
                    "id" : 115,
                    "_type" : "AMFile",
                    "src" : 10,
                    "trackNumber" : 0,
                    "attributes" : {
                      "ident" : "section-5",
                      "sampleRate" : 44100,
                      "bitDepth" : 16,
                      "gain" : 1.0,
                      "mixToMono" : false
                    },
                      "channelNumber" : "0,1",
                    "effects" : [
                        {
                          "effectName" : "WinCompression",
                          "parameters" : {
                            "attack" : 0.0,
                            "gain" : 9.0,
                            "preset" : 1,
                            "ratio" : 10.0,
                            "release" : 3500.0,
                            "threshold" : -20.0
                          }
                        },
                        {
                          "effectName" : "NoiseReduction",
                          "parameters" : {
                            "denoiserAmount" : 20.0,
                            "denoiserThreshold" : 0.0,
                            "noiseProfile" : "441MP9VVkz+EaJs/xtu5P4Muoj+u75Q/6JB3P746bz+YYoQ/MecwPw6J1D5Gib8+OqGaPiDhrD5Q\r\nuJg+4LdJPsrlKT5p8rw9cwOpPQWOvDzApLM8tmNdPHILgDtgsGE7GED0OpYTkzpea146RyqaO8o5\r\ntTonYYA6kT2uOrCTSDpXL0g66Gq4OcJQrDo1k186b4yDObXU1TmBW7455ojkOWMoMTrZf285FoCo\r\nOd/PXzkfNAo6fOSqOShcpjnLKLg5bSdSOTulSDmPkpM5BcalOQLfgTnLl0Y5+iB0Oe1QxjmJlYw5\r\nbjjAOXgcBDnK+5Y57UCdOU3NVzkRuYU5BytWOSlQIznlxoE5fuscOfbCUTnKSJM5TVW+OR0voDlc\r\nWb85ENR/OXjC1zm4mzU5jr2qOdqj1Dn/7ck5es2GOfTZnDkI5fo5BiYkOVgF7jkJrgE6pCYROpbe\r\n6jnqrgA7sUUPOxprtzl58Dc514siOuh87znglCA6aliZOXgsqDmy7uY5vOjOOT8o9jguGLM5cI2E\r\nOWBIjjkiI3A5teB4ONqHkDkjRCw5xJy3OVV2CTl1HRE5/GuBOVhzWjmu5kU5YhEYOVcKdjk+kz45\r\nxsIXOcMs1zjcNeI46bO/OH7sYzn4SmQ4ctrjOMnryzjuBPQ40cXwOCzlazln1c04+XlfOM/ijThi\r\nr8E4VAF1OFRRHTibKpI4TN8rORpxoTkSxQk5r6jmOFAQcTjd4YE4qme1OM3XlDjzfFk4NVaWOE5c\r\najgJgYA4XjxKObgy7zhKj504yp+cOFjExDibhrI40mU5ONpjJTgWSIg4M7jiOJeOeDjGdEI4oKSk\r\nOJ7jkjidQqE4mBt8OGk5jDj+tVo4jjoMObqP2TgtSDY4s81UOEqLljh0An44/KGaOBi4rTiGuqQ4\r\nLaG+OABqoziEzLs4c3JEOAxilDg++Ig4636JONrLWzkH6UU4sFstOdC0LjjQjsE4RFIeORnhfzga\r\nheM3nyAKOMQOHjh5Y4E4w7E6OAYzxDgosks4cKJlOC9iHDhMdQs4AFalOOT4kTg9rOo38JVbOMYT\r\nlTiMgoA40t1tOMPjEzgzrCE4LBosOH+TKDjFmBY4uDZZOMHTrDgJ8VU4ZGDlN0bvIDg/PPY3iFuJ\r\nOCJhijgHdq43hiA4OK4sczioo2o4Jh4YOIrhvzdcVdM3JOVsONkZEziGjqc36EuzOLe9MjjEg/w3\r\ntG8qOHQzKjjNado3YhS1OEN8YzjRCi04mEJTOB+jGzhI/pU4PHxuONO3+Tdch7Y3lmHpNwuZWzge\r\nIN03ZDn5NxJnkjeulmI4EtLQN10G2zcC8WY4E2QfOLykGDjsBjo4w91xOJpX5zfwJT84gFW0N95f\r\nJTg5ZUg4mU3LOAbrgTimQTQ4rvsKOGxp0TcoV8g3ddI3ONZtGzjQGQk46X3oN/Z23DeTzdA3rkRO\r\nOOy47DeTTSc4BB6KODLc7TfRnb83y7cDOM6sSzj+GlA3LL+JOPQRETj0WbU3jW4SOJrZlzfqZO43\r\n8UE0OGIb/zfnvm83TNUHOBv68zfEHxk4uX0WOCNJZji2T1I4e1M+OOW5Ezi6WJw30UQmOFm+Hji4\r\n7og4YvEfONzk1DdWVig4uDcgOJBgJjjqAkc4Z1HEN+q9rjfY9Uo4Vy85NwKzqTerkBE4OP4MODkm\r\n1zeIwBg4dvgqOKAF8jfeZaM33kUjOCGk9DfF6eI3oBT9N5lHrzci9IE3188cOIUNrDgzBg44ojDG\r\nN1EbAzg0gGA4SwYEOJ+mKDj2Qxw4+Bv4N2h+UjiedRg4uUFCODqnBzhfK8w3E6YCOGgiTThSaxE4\r\nD/7bN8WfNThCaMA3wiTyN+6MFTgIn7M3IYLbN/+emzfV2x44GzwUOAD1IzgUoWc4hi8oOI+W5jd7\r\n54E3imJHOIDSDzg8dC44wq8WOAC+czeRFzA4/BADOCxCHjjQfJw3vurrN1gACziIxec3mvsLOM2q\r\nPzhzwCw4EyYgOP7bZDimKJI36H0VODGgGDhmkdM37G2dN1wqBDj7Hws41wT9NymS2Df4XY43Cn2T\r\nN036Cjjqjr033a85OBUaODhHtyU4Zlc3OGSmPzjmlDg4SYO+N99hDjg/cyk44ldiN0kkzjdUtrM3\r\nSNJSN9QbQjg+bA44RNs7OLD/FDiBs/E3BXOBNyR3STgSjKE3WGS7N6Aa4Td/xOc3CJmUN/AY8Tes\r\nBx84hvfAN38kdjgFhw84Fe21N3IywDcodjg414fqN5eHnjeNXBU4JYjMN25RMzjYp9Q39rbnN/by\r\njzepWXk4QhgMOMVl6jcE6Ms3VI+HN+cYDDhGp6A3cn6pN9kBdjeSJQM4uDl/N7s6pzfc3rQ4mMuq\r\nN4L5DjjfVBE4WUIWODMZhTg3SwQ4cVqAN6m1yDcgoU84jEr7N1afDzhLYRM47nWWN5T3sTel9QA4\r\nr/r+NzqFojc+ieg3AXPFN+IUljcSauc3QGPcN5pdzTfm7wI4RBXFN7RrfDhtKy045rtJOFw6+zfW\r\nCl04fZDFN3xr1zewGIM3/z+YNwKuUjfmU6w3vfdKOJYAlzdoW8s3+DbYN2Zo3zdeMQA4pgpYOC68\r\nEzhM4Gc3nU6YN6T++TfApB03/AQSOKDpGjjIZQg4NF4sOMBhGTgGmlo4Yku7N6w2GThkOQ84cl/a\r\nNxYEBjgffsg3Rn68N2MqPjh+XMQ3NtCLN9uhDDhAFtQ3nRtoNxfiiTfGJxM4pcPSN7PaujcAUo43\r\n6XUAODtkkjf4Qvo3+sJEODkhcjexfI03xrjXN9I/MTdgFGs3TiEQOC+JuTe8vgQ4tBj5N5N0tzcq\r\ntpw3ceorOIa3Djha3KI3k3K4N8OS1DfUYoY3RFjiN/+9+TeoOMQ362pdONzOqTel+O02bgUfONRz\r\nTTfUzic49IskOHGKtTeOR0c46ZbKN1cJpTdINMA3eSabN8bglzdXQU03V/GNN9cQyTdqXZk3HKMS\r\nOG4BQDjXJXA3h7DDN6ZkyDccuoo4FseDN4HOnzfT00E3e/NIOBmJEDj1loU30xjNN6NalzdiaGI3\r\ngfuvN46hFjjRFX03Eb/MN6RW7zdzaao3ZXGdN1zJ2zXJLd01smCsNRsyiDVOLbA1F829NYRQYTXs\r\nR6E1XBxUNRg1rTWkv9o1hIhaNSxsaDVY3hA2mPC7NaZxezU6DmQ1cLmBNdrXGzU+0RY1QcALNTSk\r\ncTXJbwA2XGEHNWsKljVOqjM1H2A/NcVOjjWk1BE23JGINddKsDXun1o1zTySNbzFrTUG74s1de1a\r\nNXYkvDWxVBU1Msn/NTpb0DXqqlQ180F+NVXHgjXkIM41Y6FaNerDizXUTRE17vCLNTMmcjVWUyQ1\r\nrsvyNGTPxDVILTc10YKSNfb/GjVSAmc15MsMNbhkTjVe52Y13oWyNYjVQzXn70E1gsInNpbLjzVu\r\no3U1RPfzNb+NQjYLHlE1gh8INSvMrzX0RYw1jDU8NScjTDVTfDs1oiY7NaKTOjUDYnA1ClnBNeRZ\r\nTDXHvn01Urc2NUQ8nTVD9SM28I2YNQZ3pjUyBPA1Ek23NTb5IjVDyqI1ih9TNfgazjVEkkA18Lq4\r\nNXJfpzUlHjI1FZkDNdTOmjW4RMc1vQo3NZyspTUoRcg0L/GnNW+OEzXICNI1q95rNf48QTUWvys1\r\nkseENcBEkTUgDPU1HuzENO8wnDVmrG81hTeYNaohKTUcLoI15KFWNd/WWjXjIlg1mTE7NVz6UDXR\r\n4IY11vnGNcNTHDXKGVQ1eltyNSGUJTUtTN41ouKRNekX6jXJ6rA1hTBhNUzWSzXaTq81tp1jNWav\r\njTUGP/s0FiTqNZ5g3DWDCxc2/B2ZNSt8vzRFOxQ1ipYSNabaSzW2jNQ1oG4TNUcRmjU4IxM1ciMK\r\nNeSJUzUh+r81ndwKNQ7KHjU7WhA1M92BNS9KRzVdFUA1m2RKNViERjTu7jg1HXmkNZptBTW9VH01\r\nt3dfNZITQTW8dPA0lL1aNVefljXxFx81pIAyNWsyhDXBLxg1gLklNT4zeTUdUkA15gzoNeLccjU9\r\nI0g12DJENUaxTzXNglc1BAwZNeMZhTWoAGo1AA5eNfUCgzWYTtE1QXpbNUq5bjXMPW813mDWNRBF\r\nHzXRpig1sTMKNdjhzjW7qpc1bRBYNZL4nzUbGiQ10hp2NfXNjTXgmSw1I8coNlevnjWhO0E1GMkQ\r\nNfrGZTVIv/c0LowzNSbKEjUpTE81bGBnNTkrJTVwtMg14ezTNaFYjjUT2VY1KgGJNevfrzWeii01\r\nKW4jNR2gMDUcdwU2IrhbNZROuzWINCY1xSB7Nd61jTVerwI2mGKgNdGSRjVhKRY1QKRhNfcU9DRi\r\nIps1A2usNOu03DRj4TQ10V5lNXAwIjXmOZw1EWJdNZOgjTWFw8E0ljYuNUKOSDX4MNM1h34JNvR6\r\nZjWcTEE1aYeWNfojITWIEII1UdGBNYb9mDWMUqE1YYp3NaO7FTV8urQ1DS0lNaNdjTU73ew0kWsJ\r\nNuTMTjUptYQ1KzQ3NSyxzzUPrLM1b+IpNbzGQTUqF2M1n7OQNQpJmzVErno19gN1NTZPFzWfDNo0\r\nOjV8NVYCIjV4ta01JAGLNb8AhTV2+Sc1sPsKNd2aWzWQgKw16br6NMqevzSoGIs1cPFJNTpkQTXN\r\n+Fc1z1MGNUpFMzUoMsI0zneKNRZBVzV1TZQ1i0JaNZd3WTWXIxI1TpcrNR3eoDUGV2g1AEHiNFjR\r\nhjT50G41aeR1NZp85zSlS4s1VBpzNZ9CBzWPblQ1dx3fNbj6BjYYFoQ17zkHNeh1BzU0iVQ1vSif\r\nNTJHhjU9cjQ1WBggNcogZjUs/Ro1DK8XNbLsmzVKFDA1JX9jNQQ9YDWJtYg1hn76NJs4lzXHgEM1\r\nfqBrNZkmlDUiWCU1L5PVNUjZhDSyyJg18rrENHIaGjV/FnE1Mj4bNWWJ8DQieBs1PGM0NWmHrTUg\r\nwnQ1DlNZNTBsWDW0/d80PE7WNfiUBTV+jP40/5SXNUWtezU7tFQ16IZnNX7sQjUwXg01KCmSNX0n\r\nwjRZwww1xD0PNTxSlDXzWww1MitkNT0nKzXHYCc1m6EFNaJaTTXbU0c1VmOtNSmdbzUU6oE1ZBWw\r\nNbgxYzXW6RA1wDZcNczHsjWQ44c1ymccNULdlTUnWVE1gh0kNUX3pDWF+o81aMsONa9aWTUz8i81\r\nE9W5NJuPAzV9bks0Qu+KNRvYFzU1kP407zetNB0/PjXyQXc1YFdANdAUPzWWAbc1xt9RNSAKUTVG\r\niCo1i+C6NVZdGTW6vBI1R1TvNBm4MDXH9yI2xui8NTl/LzU5eRs1hxFhNU5LlDWITro0pitlNYk2\r\njTUNbxc1wdq2NUyeVTW3JY815VLYNRhjzjSUajI1Wt+CNaukJzVklsw1FYptNaJxGjWBJHI1+Er0\r\nNJD4IDV4Jrs0lBUaNdJYYDWrB2Y1mPMUNXIbUjXZLhw1bHhANY5hLDVQWC41+jnjNAAg0jUPjE0/\r\nO+MEPmIGdTz3iX47bs6uO1mZpjog5o46viIOOoM2izrN7S864UsIOtfLkDn+8Ho6/VQqOuN1Szpz\r\nygk5JOKKOUXVlDkZQHA67WscOhPBljn+N9U5w9NWOXo04jgYr5o5oEEyOYJuODlVBzA5P49GOQyN\r\nRjmolIs5pNc7OZpAIjnqwBw5LlzPOTJOsjmHxmk5Rdh/OZyJajmOkUU5+IlTOd/gbTitOGM5iNue\r\nOfLprTmEx3M5QUNrOfRkCTkmMho5NKnHOG6LNjmq8TE54tbDOIaeSzkFUKE44X6xODe/Mjlitsw4\r\n49IWOToQ6jgBDkY54GwdOCT2LTkaQd84jr+dOGjjhThj9ZU41uUMOV2b1TheMEU4VCATOexNszgK\r\nNs44y18lOHPKVTiLX5M4kQL6OEJxCTmRs4A4z7LuODQI6TjCbxk5hAIGORRZ/jiuXzI5tE4aOeBh\r\nvTjx7z45WK27Oai0STlqJk45Si4iOe7NZDnid844mP8qOb5jEDkxtIQ4pQGtOOpIsjjr9ug4zj+M\r\nOBA+ajj7E9Y4/vNIOCJzQjjLzR847MVIONmlNzg86Bk41/qTOBlWWDj9ta44WQESORpuBDh061k4\r\nQmv/OJr/9TgOHGQ4QlRZOMWWmjh6llE4FTx7OMIGaDjgHek43o37OHacezi9v204RI4EObI8fjiS\r\nsHA4KUsdONKxfziGSqs4DzOmOJh9sTgF5YU4w2vCOPgiajjyeJA4390EOZYdfjj9I7Q4bfZHOLJ2\r\nRTi48bI4lcCrODE3nTgC4EI4sJJgONzCfjj6jSU4FjeIOJOZLjgfImA4NuEnOAj+ojj45ig4lHjk\r\nNwjhxDdX8lQ43/FpOGNVgTjwEYE4y8QaOENxoziyskE4qN1KODQIhzi0Khw4+Y8cOH4QfDh5F5Q4\r\nGk0SODY8BTiNOZE4b+4/OO1PUDhZG6M4jNNmOMHItTgsHFc4IAwHON59JTjYeSM4TfuAOFRQ4TfJ\r\nO6o4pog8OHphQDghm/U39dWjOD0Dezgdjx84tjDTN4WrmTjwJRY4ZgNhOGEcNTi3hM84xpagOOxM\r\ndTjceRk4sJ0oOLv6sDc3SxU4p1/ZNwgdiTiMclM4ODgGOASIujdzjhg4Rh2BOL9UqjiwODU4EnTx\r\nN3ZD8zdPiiA4jMiXN3Clcjej1io4+jDYN1/FODjfUl04RB51OHdB7Ddxghk4LYIeOMYZDjhWdK83\r\n1loUOFYB6Te1cpw46L42OGA0VziMmbE3C8sVOJOH+Tf/MEE4Yvj3N+lA+TdjJpY3XH7gN063Ujj3\r\nSwU4ug1UNz03nDhH2/s31BZ5ONM0HziRBQU4FFoHODOMTTgonas36tsCOGul5zcVtww4zG36NzHk\r\niDcAStQ3wz8WOMjsPjgsd5E4wiUAOExkFDifYz44cNYpOCeBBjeqNyM4ZQ0NOJrdtzej/ak3c+/O\r\nNyEXqjf4cow33he5N77skDhbEwQ4QgwCOAmTKzhd8B84KTdjOJttNDgY1tY3zuIfOKBq5TdxQUM4\r\nyDsDOCab4DcjaJM3wEs0OGeuUDdqUUA4kq1vOMJo4TfqZGM4vgC0N7778TfAYEA4OTtVOEdGhzec\r\nWao3vljUN2YArTe05TU43SKjN/IFIjgADPU3UTKON6ldBDh70rI3JiYgOJhatze+B9U3OljAN7Vn\r\n/Dfcutc3EcuVN0fq1zdeSSE4mImnN6LjTjgAf/M3tLEfOOapLzgL0+83k0IGOB4aEDgWpqA34Wml\r\nOE03RDhOzGE3dZrYN/R4jjc9WQE4yozZNzvBnjgXCRc4xhXTNytFBzhvwRA4TCr+N7A5wDef1KM3\r\nZyAjOMi9NDiYsBA4FNOONzDiMThB2k83ozAUOPHM1Tc+cwA45IqgN8b3qTfSpQg4q3MgOIO6xTfx\r\nC0044u6gN0hnyTd65fo3sUb8N6C4MTf4RO83cG0COBeIMjiRzMI3HMUUOKR0PTiwWtM33u/bNzGp\r\nDzj9Gmg4Kgb6NxO9CjiqL9E3grXFN1A2wzdHyiI4ZJE3OOx0GDiAN4E3NUrcNzKNEDheLM83+N7e\r\nNxqzEjhUp/w3V1mqNwcvszeXJDw4Tv83N5iG+zf23iY4HhG7N06sATg/DtY3U7G0N9QnmTdAsL03\r\nPu1bOC7OtzecnAM4xAliOPDjjzdCQK83he/LN9zntDdi5R04YqZgN93r9zeXkcI35sGHN484Wjgg\r\niHw3Bo8wOB5kyTeKKtw3Ymm7N11uBDhE6Kk3rmN0NwURszeFtLw3eswhOB3CJTgBDQo4JquyN92z\r\nZjfgFyY4ulAOOHGGADhWXek3rB6HNxVFzDeTnYs3WeJ+N4JnSDdysKw3j0m5N7OPzTeJRdg3UP2t\r\nNzAy/TfnbXk30B8/OIeCijc8SZg3zNS1N9lZWje2ENs3oANeNxTreDdTMeU3ICdZNz8njjdlD/83\r\nOFunN6L8qTeAtQI4GuXUNxEMGjhQeYw3yKb3N0JKgDg0QRU4Zp6lNyNJ1zcGHQo4PdPbN9Q/tTe5\r\nMfs3HrDCN0SCpDdeHLA3qs0EOOjTiTc9FQY45GEdOO4HnjfhqtM36gZ5Nw8KEjh/09Q3AEOdN9su\r\nKDjZmRY4hEP7N3rH5jcOJbk3sD+bN7C0HTikcrA3bvCdN1ROJjht05A33ZfANxrXAThGiAk4E6eS\r\nOMyvxjdU204396ktOB1ndzcap7Y3nWFON1QiyDc/6iQ4pjLyN6bRqDfn/OA347axNwBEyzdcW+s3\r\nhifENyY55TZLib43hNoNODlhITdcuSU4kHhWN2iqjjcA9Mw3gy+QNyxNGTgpI4s3PGetN+y8Vjeq\r\n5yA4JO/QN2iaCDgiKHI4NRJ5Nz1xhzexiMY3sjpiN6T/uDdNECA4WCf9N/xrCjgAPSs4suO4Nz5S\r\nOTh3LLo38NeTN7qD1DeIKtU30FjTN31nyzeGkOI3ts2VN4YuNjey4R44ivPzN0aVmjf6zb03MzHC\r\nN6Il1jfHXaA3BV4GOGFn7zdEHjg47miXN4qACzg0vq43L3IdOM/WHThIDJ433earNzXJEDgWOI43\r\ng5SGN5yv9DesMRQ4yMyWN2LV1Tdb0Gk3htmuNa3FqzVOIfk0SEH5NAYM8TSVYL80bHeoNDkHizQo\r\n8NM0xJgrNcr5DzXAy8E0YiRMNby4RDVY7EY1iXN6NJ9O6jSQKs00pXwtNbRMGDWH2rA0PESNNOzz\r\nxTRu10E1EMLtNLiPtzQC4sY0FapmNL5fcjVqIgA15r2oNGtZjTSMEwM1OfrcNPgfoDTqJLY0OnkB\r\nNcxJxDQoaAQ1qy7SNLT68jS/DMY0jvoYNdxg4DSbKII0TFkcNe6EJDUgsXQ0GKMXNVSyCzUKnok0\r\ng727NOPfGzVIZrE0mlimNGK+SzSUuxY1DdOzNLi+HTV/yqY0fJWTNMB+eDSJ0do01gX2NCGQgzSn\r\nU680f1sBNaBgHDUKaBA11pmFNMhMwjSk7aM0Vje0NDDzazR7Hxw0KClINK/+BjVkCk80kOHZNNej\r\ntzQthLo0vjiQNA8Z1TRUlSU1KuAaNQd80TQDthw133XwNCvR1zQigaE0eXAANcToFDUssdg0hij3\r\nNJ7EKjWWkcA0xPi1NPoy+jQrp9Q0t+G6NEfyVTQoU6s0mfi+NDozpDRURxQ1ViXhNFSCGzUk61o0\r\nm5YrNYAF0jR1XgU12bu/NCj3xDRwPsw05PW5NHKFhzSg0ms0XD/4NPzPjjQ/jYU1HofvNN6b2jQU\r\nwB81bTkfNXa0gTRg0x01O5zQNELxtzQqSo00CLTTNLwAyjTwgqw0dN6cNQQR4TR2Nug07VN5NKrX\r\nqDSxXhM1rwZFNTRwizRKHPU0MeTANAc+CzWtLQI1yjzrNLmP/jTK1iU14Q8BNY5FCTVpGeg0Tu2I\r\nNPcyDTVYpuI02knzNKvbDTUc6fM0MrrWND/lJTU/iWc0Aik+NAxMWTTiUrU0i0qKNJzYDzVMWOE0\r\nM4RkNU/U3DRN9sc0jd7uNOj+2zT7cNc0VrIXNTdZ3zQAm8E0EuIaNZygLDXauhc0n6D7NOzyizS9\r\ncRM1QhfuNALBuDRN7FY0a+qGNIXByzQ+tgE14x6QNAFYkzTvq0U10bM2NeeMEDVpDPU0YtfiNIvd\r\nyTS6O4U0JTgFNWBKWzQ8I5k0KB7GNEGdMDXpPEQ1bJnzNGiW2zRtYt80zhf2NBKLMDUsPQg182u0\r\nNMtKiDTytbQ06V3YNFzt2zSMPXw0JD69NDjcxjToepc0zAkXNdYNbjVt48s0taYfNSjY5jTVpj41\r\nmCAINfu6nDT4aM00gCWcNNKEAjVE0x81/M/dNHcowjS1/I40TpW4NMU17DQ8eOM0n8fHNDQzHjWI\r\nkBo1Rm3HNDNWmjQIHBg192ixNBXnsjRtc2g0HDeLNDL72DRMo3c0Gtt7NObzIzUusp80PO/SNG3r\r\nvDQ3boA0DpdLNdLcLTUFwww1RafZNB2TCTWd+zQ1ohSXNIxLqjTvgJc0jh0kNcrIlDRJKik1zE00\r\nNSsyZjUR+Jw0YOnlNJ9yKjW1Hz41HsJ0NBCkhTTnUHo0jEesNBSvtDS2st40BgT8NEhmDzWMHYA0\r\n6jb1NCZBUDTLk6Y0PFaWNPJQeTQggW80Qhg4NTYepDQcS/Q0qlvrNF9H7jSA2Ac1/BwINU67QzQD\r\n0Us023mZNAWYADWKPf80IBgONU4ryDQE5sw0IXbVNLR67jTEBgI1Fzu6NCbhvTSebvk0tDR/NEqS\r\nwTQq3ok0+1kGNWmN3zQnrlk1pv/dNBulyzRrGLM0l/nhNFwwjjTmFPs0ny4qNZiVnTRcqvY0cXJ3\r\nNAEf6DSTFrQ03q28NHVOqDTmHa40XEoWNX0nnjS4v8s0ZoAGNQKgFjWdqNI0zYm3NMGKEzXAO6Q0\r\niH8wNaLjpTRUBs40bD/QNARj/zNptHk0yFS8NA7T1jTkMG80Hjb8NNbO6TRaKIU05iGJNPcRdzTF\r\n7hA16sHtNOqGkzRvPCY1n6YTNTSeSDXgydQ0LDJ6NFU3xTR19/80f+k9NdakhDX5kT01pN5GNRMG\r\nqTRMtn004ISyNNJeLzVyBOo0CZnyNJJPoDSSmak0oPXGNLILBjWvh6w0F1WnNDEAgjTIwtc0t/7w\r\nNPai5TSUgMc0HLp6NLoWCDTrwig1dtpUNcNt1TTiDwg1YC6LNMM3KDT8aL80vz+TNAklzzQzLbE0\r\nTo3LNCMZgjRBGYM0Y0/JNGShhTQXI940dq4mNT4+njQG5xE1znWtNNhNajSeULY0l6wtNR2lxTQ6\r\nNrI0xMKGNO6+2DQgfbQ0LNe7NFv6mDTVCS81uxKJNNJajjTCSSc1EVSrNDop0TTPlMo0CJhWNMiH\r\nIjXxsc80jmPLNHeXoDRU9X40kz9UNLNJATXsQvg0pmWlNJ1O1jRKFi40OScONVZGRzUZcAE1uzAG\r\nNY2HWjSYtis11YMZNbtJ4jRH61g0VNnmNGQO3DQ1uDY1TC4GNX8DCjUOCwU1AABENA==",
                            "noiseTrainingType" : "default"
                          }
                        }
                    ],
                    "start" : 3135,
                    "duration" : 877,
                    "mediaStart" : 0,
                    "mediaDuration" : 877,
                    "scalar" : 1,
                    "metadata" : {
                      "WinSubProjectDisplayName" : "",
                      "clipSpeedAttribute" : false
                    },
                    "animationTracks" : {

                    }
                  },
                  {
                    "id" : 116,
                    "_type" : "AMFile",
                    "src" : 11,
                    "trackNumber" : 0,
                    "attributes" : {
                      "ident" : "section-6",
                      "sampleRate" : 44100,
                      "bitDepth" : 16,
                      "gain" : 1.0,
                      "mixToMono" : false
                    },
                      "channelNumber" : "0,1",
                    "effects" : [
                        {
                          "effectName" : "WinCompression",
                          "parameters" : {
                            "attack" : 0.0,
                            "gain" : 9.0,
                            "preset" : 1,
                            "ratio" : 10.0,
                            "release" : 3500.0,
                            "threshold" : -20.0
                          }
                        },
                        {
                          "effectName" : "NoiseReduction",
                          "parameters" : {
                            "denoiserAmount" : 20.0,
                            "denoiserThreshold" : 0.0,
                            "noiseProfile" : "NU6vP8pHZT7nEIo+4mcoPkDemT3pP3E9EC1uPBla+jx6f+w7S5ikO9LGSDsX2hY7haHmOw/4mzsw\r\nrRM7brP+OyPYYDw/QOI7gyyRO523Wzq921k7nIC4Ojg6GDzWSKs7VUcKPA906jt9IRo7XRIjO+CE\r\n4jqJlsM6jLwnO9qYdDoxRow63B19OVPvsjk+AE06PB3bOUx07jlsI+E5xj03OjDFUTl4Xsk5BXUn\r\nOtqrYjlxMgY6d+aCOckV1znQYh05HVRmOZ740zma+Q85TXyVOZxUhzlyXc85uc2uOdhcLTl6MIk5\r\nnDNJOsdGkDmaEJc5i3qOOWNclzlDpic5O5+ZOaESjDk4bsA5P52vOXRcujrrYTc6m2ScOm6jPzuq\r\nXMQ6qbrpOWigPjqFhQA6LjMmOmBJjDpU04Q5+J9hOtVZqzrao4I5qssqOkEwuzrdXmo6IJ0JO9WL\r\nBzuSpZo6bROXO6TTwzpF8Po63leMO5gu/DpMilE6SC42OsZtnzpGdA066NpEOovoMTq9BRs6Qfnn\r\nOVoA3DkcvIs5LmgYOvaGRzq03Es6QgAsOuegpjqVqAo6Ugq/OhqFATtbtyc6Aks+OqD3kjr1uaU6\r\n0RYlOsQPPTpRsiw6lHpmOiR5KzpyiBo696+COU6KqjoQksA5fBiBOo7DSDo1JpM5tDSvOUaEXDoK\r\n70g5Pkc/Od4JSjruZhg6fpfhOX+RCzrzRwo6sNElOjwXPzqvMRM6PFTsOdDI5jlXakM6z8epOZpJ\r\n6zl3pEM5QD50OdZgHjotx4k6wEqLOub0DTrKkRs6j0vZOtPWxjq+DyU6tukSOvR0kTlAizo6rJAU\r\nOoaqajnlUtQ69eu+OVlgOjplMdY5o9TYOd4NwjlW2Mc5KN+YOednHzpwIoM5Hs2TOb1ciDnorlg5\r\nU9jjOQZ07jnf9JM5OQqDOVRmBTnqnFA6E+WQOcHWBDphhWA5slq+ONBpRznxRBE5lnlpOY/ADzmE\r\nld04zoMPOY9GmTivWtk4XYPJOAcYDjnkBrQ4CCIJOUauhjgzmBE5OztYOP4sQzjOUp84PHBROCoP\r\nFDgjTQY4ZAQgOMDFHjkuCXg4PseKOLL5lzh1cwE4SqeNOEEueTgscnE4AqvtN6V/AzglHi44PHqj\r\nODoM0Dikurc4bp0/OLMjmjhWWgw4fNeZOIBFhzizxgk42hd/OOMb2jiqqs04qG80ODuoUTjhs+o4\r\nmIXAOH6S0ThwMZ04aEawOFWxKDi+lzk4rIUoOOn+izgjDKg4SOZFOEBWcTh78IM4WxZ3OPnqfTiU\r\nox04NBfVOKyTtzitdMw4uL0COM6ENTjyFlI4OTeDOAwQfzjKHjA4kyAOOLQlVTjcMUE4phrEOIQ5\r\n5Deoe/g3vkIeOL+8PzgssyM4sRqRODejNzjwXAs4FbJgOC426DdcVZI4mB03OKXuIjj7EAo4abcY\r\nOWMF7jfmh3M4tFZPOCz3RzikSJk4cPttOMzqFjgGA8Y3SupiOHlsmDhokaA4xHzhNxyRezgSKgI4\r\nXr4QOPO6Wzh/QGg41fRqODLkGDi6gzg4gmw2OFOr4Thgp8A3z0mGOKdWFTgs05c37ZnFN1Bc0zeM\r\n+e03ye5COEyRwjgpz1U4Q686OFCTPDhyjLs31m66NxRCPDiMKLA3X48MOIFBIjibgyw4BmdgODE+\r\nBDg8qfo3Yzn8N5CSEzguwLA3xsftN/BxCTiIX1A4KCsmOF0cYDgkKXw4MYb7NwT9Wjit+B84Jh3Q\r\nNy2fYDeeA9Y3A5Y2OK6esze+xd43Kvs3OFs1rjh40Sc4R2gAOIja5DcUwW834FDQNwiKNjjuRwE4\r\nRjH6N45dmThOmic4ZYXVN9AkOTjXqFM4AfzXN5fXojiNzEo4n7PvN9r2DTgLmxQ4Inq1Nx0HIjgV\r\nVKQ3FLkiOGwsYjjSGqU41YUbOJo4/zc+LjU4wflcOCGQFDjFtIo3lcvdN93IUTg9OkI45LUIOHe1\r\nUzi9fxE4+pMJOEzKkDclusQ3J4uwN/DVYThM1uc3qBLLN9cEOjiYnZc3i6p9N27AxDeb2eY3PSVA\r\nNxTxLTj6SFc49X+LNyZmFjinTDU4nqSGOJpaMDivfIY4ibstN3+W4TfOkKU4qgeAOPITCThoviI4\r\nTrbWN2bgEDg3Q/Y3tePHN2KjGzhycKo3sktzOEV4vjco4Yo3fV05OK6aFTiEpO83Yi5yOKc1hzht\r\nqwo4yvtgOANfgjiZDI847LlIOJRoSjghL5M3siiRN5GJ+TcXjr43zJGsNxm8fjjZOBk4NkMFOHzl\r\nEjjaqeE30gFhOL8jwzdtTCo4ntPMN0QCBDiMgY83OSVpONIlzDdGHjo4niHRN2SQcTeyjdI3zwzy\r\nN3RvqTh8KgM4Jw6AN5Mg3zcP9hk4jLIlOBCRLzjiMOE370evN5s+kTee2VM3x50ZONaMCzhUT5E4\r\n+9dDOEJyEDg7piY4gkrhN6SAkTjD4LM3ZDw9OP66YDfAejQ4HvmDNzqgEDird903954KOIwlHDgf\r\nDNQ4zcQROPqA8jcVcg04fGI9OJVaFziOQt0332EMOJnljjheJuo4aLFTOLpefTcY+Uk4EptKN9m8\r\nyzfsQhg4UK7JN+jX9jdEGZM3k9ggOAU8+TcF1JU3p4kIOEoiZDhF3pE3Sjz5N8n9uTd+SgE4gjmk\r\nN3L3BjhWdfo3bLAyOJKblDiXTAI45qqhN3qcyTeMFro3xFQdON78+Td6uBI4A+pWOHd5NzgALVk4\r\nFNC4N0wG9TeDTZs3TXuENz9jrzeDUjs4n5YyOOv8EDgVnqk3uw0KODDN2zew9og4PK0OOI9VhDcM\r\nzr43bbgUOEXyBThrL6c3ECKEOPhjHDjN0YQ4MSEaOKbEhzj2eS44osORN0zbhjhoLf03nPCJN3UG\r\n6jfHPMM3zbhDOJqThThO74c3ivgKODOwTDicAdA3le+XNx2bLDjAPoQ3M2jJN8idcjh07rk3eNvo\r\nN34WjDfUyvo3QEJ8N6dFFThCAIc42DD3N+ZfKzhYo6Y3BPTwNzAAGTi5Ccc3oc0MOAynrjeIoVI3\r\nMAuyN6Pb0zedjqo3HfMOOB7sCjiQ/rk3a1QXN6RD0zXWE8I1kkDXNZbJgDWzGB028C3nNdg5QDWA\r\n4481t7kLNXW75DV1zoQ1KKTUNW7eajW8Hhc15yC1NbpxrDVbgcw12VtJNSB5CDWWVJs1/bfPNWHP\r\nnjV+7oQ1u52oNbjXGzUMnvQ0h7w2NaMJuTTyjH812remNQDGhTWzj0s1zgAvNYaJFzUEd2M1BqSe\r\nNfD2RTUQFDk1/pUWNSe4xzVpCtU0oGe9NUCyHTUuc1g1jGzzNBvtmjQ23RA13XbqNFAIKTVh0Co1\r\nZf4CNZZdMjVmQY01aLsfNSIdODWsSOc1qMSNNO6gpzUVFGM1toQHNeTYKTXOC+40aZWgNFxJTTWk\r\nJN80RzU3NSaaBTU5MN80jg3tNHAYCDXzYBU1NP3uNNasPDUJAi81oklmNVUhjzQl6BQ1WGF1NWTW\r\nKDXPQY81qIXnNJQ9hzXH/YM1FZEwNfqzqjR+qFE1zC7vNCBxKDVm6DY1inFWNRXTPzXTQEE1e1Qm\r\nNTJajDVVrw81cB+zNY62qjWCcpU1OfcfNbD0hTRX75o0R/jENCbdAzVmbtw0mFzhNN97pDV1m/Q0\r\nmsYtNd0eNjUXBUk1taUaNdKkLjRHA900riQXNab25jTXoUg1+A2tNDoPojTxy1k1GQJANR4wrDRS\r\ncZk1UP1sNZk1QjXvZMU0slFVNcBZETW52p81RkfhNOI5CzX/ASk1VAsENTu8QjQgiK00ps2HNNpL\r\nBjXgEQI1IgWpNH6PFDV+sd00pnGhNAygDTW29Rk1qjF3NVH8HzXVwhY1PW2yNdMi8DRYjtE0FYDc\r\nNGfffTUazwE19K3VNIriGTWpCfo0G5/bNFZILDUP3Rw1FE7yNOby+TQs0cQ0paQsNa1v/zSfBro1\r\nEhV0NUrh/DRs+R81BIjtNICXkzU8CZ40JNK3NHiJVjVCdR01CxQCNdBzDDX5IkM1CyGwNHQqtTRg\r\nqRM10p0KNfSMkjT0Vdk0lFEmNaVnITVCQ9w0tho8NfH96zRRarU0btiNNWfp+zQ/pnQ1HBwXNZKV\r\n4jRmGcI0iuj7NERujDWW+5M0SsooNernGTVg/BQ1pkm5NJajTTWxLho1XF1fNWTY2TQEcuM0swWR\r\nNPG2FTWeHGw1ywk2NRYpAjUSQzk1ekUYNVP3EDUtTQc1KzkENXBEzjRZG0Q19qybNF75zzU6nKE0\r\nI9AbNeopKzVQjq41BHVCNaA1ITU9XOg0vH4FNeA6BDWOa6k0GURnNLQ9qDUoGok0Nn3MNH4ATTRe\r\n8oU1RodHNeu0jDSikhw18kImNTHZAjW3q0g0Zk/gNIIwKDVrhyY16r4bNd+mUjV+JBM1VMcoNQzr\r\nLzUsKrU0bQMpNV/8dzUFhTY1spVGNVN6+jRBGiY1bseTNNRRVTRerzk1j2+hNOqO2zSuglY0sNZd\r\nNAAoHTVYzBU1/C0CNbzfwTS+gRw1mTazNKj7wjSwLw81wIRRNDVmGDVeWYM1adwJNTL7CzXFRhE1\r\nFML2NLVmWjXm1L40z7VDNfSMaTXMRiM1GPUgNZIqDDVOEOw0EosKNTpy7TWATug0ZXTiNNqQxjQe\r\n3eA0CpRfNYaJSDVH46o0AsMXNSXEyzRE/SA1C0EzNfcAKzUIQFU1ikmpNMGL8TR5adA0ZkLHNLr5\r\n+jTBt3g1glc4Ndf3BDWCPDc1w6bONBvnAjWAsqo0j0rZNM7B0jS5c700UuxVNZabMTVVlWc1wa9A\r\nNTpzMzXkqLs0L6jENBRgADU/ipQ0YDSnNKrBJjVaNZA175kcNbw3vTRhpzU1NXfTNN4YEzW6VnQ0\r\nYu4/NSNPBDV15xQ1TJr/NPoDfDSvRq00M2LDNBnnHTVpDyY1BsUhNTypEDXAhN40uDHwNKjbiTR8\r\nuQE1mPOjNCu7mjWGPK800ty3NBqstjTjnpM0v8ztNMIZCDV1FGE0a5EoNTGZrTQqfy41Rv/BNE6j\r\nWjUlrc80bnAxNc01QDVUOZA0bFydND7RIjU44yo1LpdTNW/VzTRENkE1gYyJNHUWATVSW5g0zP6O\r\nNP6mTjXyQHs1da8MNZ6+pzTuQe004XETNQHhJDUaH+40MO/INO6WuzT065A1GVEvNcGY0jTVgFs1\r\nt6gENTHZ5zTirH41NhULNfdrRjXdEac0RECcNXhD2DTDM6c0OyOsNAWAszRDNZk06N/+NN5diTRO\r\nTzQ1KlPSNNCIQjSqhi01dpG1NLTAPDUJfzk1v93XNFoC/TTRRKU1org9NT52yTSGZc80v9GeNArZ\r\nyzS2xMM03SjdNPRU0TRrgio1YPm9NPYfCjW93gs1dPztNKDZqTSQCSg0UKoTNXk3MzQg+os0GOrN\r\nNOrppjSYI880aaUkNVIwxDRVAvU0rLv/NCOg3zRcrxw1X144NC0nFTXJlJ80Rb8rNQAAojUgYfg/\r\ncpSnPZePkjxKGV87fCw+O9nrLjswges6PKCkOgyFsjrA2KA605yqOmST5zmdyQM6T1KsOTzXVDoL\r\nt3Y5rs0AOjzciznxKDs6r5TsOQJHUznA14o5OrWtOVpfJTkG6N04wgSEOUK27DiqujM5ckY0OVZT\r\nUDmtJj85Ns87OcyFEjkrSyc5GF2SOaRTJDktNWY5XBmxON4vQTnB8Aw5YpkSOZMO8jghlC85DE6p\r\nOPd9JDnU18041ua/OBTq5jiRxRI5cTAjORucADm2nf04LLAHOYRA7TibUTs5AAjLOFUDBTn898Q4\r\nKdbUOGH/dDl2h484agEyOaq7ZTjmf6M4mB3QOBkNyTiQjdE4QUW/OPBwFzlXYhQ5I7MUOaEoZTlJ\r\n/7Y4/YKFONQbUDkSeAI5dnTYOFxwgDlBeiw56N4EOb8IXjlZp5o5wlocORwbhDlA2UQ5fJpnOUig\r\nBDmuoGE5CLJWObL+rTl4nVk5lCjKOHqo0TjnWyw5DEsQOUiA6DhKVHA5yAPUOEKwwjjND2o4d34I\r\nOcCAxDiAefA4N9+BOAClMzgWObU4meWtOBA3zTgcGzo4mqmROJ79HjlcHM04eDBIOPWD3TiumsE4\r\n5H1/OCeuADlZmMU4hMGaONLP7zjG4Ic4/TJsOJJUNzkyxCQ5jgaZOIuynDjKr684cwTPOGYL6zjy\r\nPYA4nEq7OPCKPziQaoo5D4LeOJ/GnjgGaq84WLHJODnN1DgE8Wk47SxjOGx0mTj+43k4YBeJOB4z\r\nyjiF9hA4jhjoN1jzljhgj4Y4kHRJOKBcljh/V/Y39mk0OMugEjjgj/Y4M0h8OImEvTjGMYQ4kIc2\r\nOI8HAznfFFk5zL2nOOIKDDm3C4c4pLuWOGLbKjmqbDU4jZpnOAOzxDjRL5U4lDqFOMyPljiS/I04\r\nHujBOEGfeTjuK3I43nusODNwCTim3Ic4yh4QOMtPpDjOzWg4JJOKOHsJjjitSW44OYk5OKQPXjgw\r\n2cI4edCOONpxZDh04yE4m+BnOKlPOThOVtc3r4GNOOrcNjhkxUI4nokWOGewyzhF7BQ4xEzaN1pK\r\nFDgSMlI4eLCvNwTgGjjatQQ4SoOrOLdIJziwF+Q3VjZjONMZyTf/1uw3JNfaN/dVUjeIQug3ZhG2\r\nNyYZ9zdzbgc4idi3NwY+4jcK2kA4/IQSOEwpMjipxXg4ArCQOD8Y2zeQj4o4kvyhOJiqHTjS0Rs4\r\nKZQRONyzfzifuuo3yL+gN7ZmCjjS9UI4hlxoOLOPyzcDZXM4m6UyOMrHVThcvgw4LYpBOP3wPTgn\r\nyR84XBk4OGMFajjgj8U3pq2oN2wWnDe6cPQ3bZdNOAsXHTg3TQ44QOB0OIOwBji+Vcs32MGAOPac\r\n6jdPrN83ikbvN18rTzhMCuQ3r+GPNxgUQjgK6/c3mpi4N2zKgjiWseI3umwPOMXkDjhbMQk4dyHP\r\nN0iplTcCjvg3h5MNOJUZgjdGRYQ3IKLRN4lRpjf1Hek3CAgFONdtjjfdhd03FS/9N44KLDj990c3\r\nHu7zN2cf2je83j84MkjGN9mnJziLquo3UhrWN8QVIDgAApE3CZHJN4gvgTf6w103TO/iN4kz/jfq\r\nHds3GB2JN/jfFTh42WI4btI+OMsetjdDcJQ3FBTlN0ZyFThY5dM37RjHNzIjiDfUcJc3VlkGOLAl\r\nADisXNI3WrlTN4H0nzeVAhg4UPmXNwtHPziGPLU3A3a5NzAxvTc1vfs3708GOCfejjh4U0s46sf+\r\nN68AkTcknG03mP2gN3E3XjfNSLQ3RF0jOMo6lzihMNQ3HojmN8UgpDcc+j03ENYnOO13/jdS1nU3\r\ng+viN1CwAjj4i3s3nfUfOLkEIThpnhs4CpacNx/Ylzeo3Vs4XRedNyFAhDjoto03O4CiN/MYqzfU\r\nsA84sAWHOBCNHzi+E/w3BaKLNyA2Ajim/lk4gYQROO/e+Df2OYA3/G/iNzzz2zcru/03ggqcN4BM\r\n2zdHIoI3reV6N8pv4TeR58Q3MTPEN1hz4jdOkj84uHq0N54+szdGeds3FqHvN59buze4NLk3a3RZ\r\nOE8yFTiM9vw374eRN1pGojjlkIw4h9jZN3mwqjdhQKY3IEYBOOmYzTfyM6Y49oqoN823+zcqY4s3\r\nGswBOA3CGDj/UMw3DDuiN2qyZjfiV4U3ZerXNyjtNzjxyE447Ta+N9d2Izgl8aE3wkygN7cXqzeM\r\nPQM4beieOF6ZIzgbMtM32Mi7N8VRwTcGRdo3wc/2N4iB6jf2npY3IXt1N0DF4zdcr244hB3kNzzD\r\nfzfPni047CU6NwMOnDdGTYo3ZiqYNxcN7ze8apo3Z0m6N0hDBTglXhs4leSTN6htlzc0zZ03MpjK\r\nNyax+je/6yc401NeN5tKKTfmMew3pmcaNxkqBjjym2U4Qpb1N0B3CTgE/t43ImGLN8K9vjcefa83\r\n4Z/eN2VD2jeWF/Y3p7CXN47JaDgNh5M3AAfmN/m8/TeIWVo32ejbN7EovTcAzJc34A8SOK2+gDg2\r\n1h84CevGNxUDXTekgzw4iOZ/N2ntDDjNzLs3lm60N6zouTeMKaY3BRqBN9kGHDgMdtg38bYCOB6U\r\nzjdrKew3Xd6hN9BvrjeEEbY3NfsKOGfShzc2KRM4zPpQN5r/1jfr7JY3M1WoNwdJujegNtk3sHPP\r\nN8RZ4De0Q903xwN6N74mKTh00p4362ooOFwWZTiV/6c3PLEIOHM8Vzelq4s3MZfrNwAiAziP/Mw3\r\nlWtDOC5UczeXN/I3Lo6fN2Ic7TciyQM4bKDgN+kHozfhduI3xB/JN90s+zdRafw3Nm8bOAQAkjci\r\n9o04dSyyN444Gzh4AO03MpkeOBG77jdKlK839GE/OLx2KDjr1qo3bavtN6NlAjjd9NQ3/X6CN0R8\r\nUTiDAhE4S0fENzHUzDe4rg84wzHiN6JSijiun503dvgdOGsdFDgaVMo3KmU3OCxJzjfhjyw3zjOz\r\nNxQSAThiQ8k3JzHXN++RZTi0HpY3DzyaN9agoTdj6tM3qe+VN2gv/Tfg0ZY3e7lGN8Pzezf4K483\r\nBCsyOBIFrTc8XJY32lvgN3Yj2Tf+8fQ2JJsGNmzxVzUYEBo1ztpQNWmpVzVlw9s0opUPNZoetTSs\r\nkQA1+IRCNK1eTzWS7Gk1CrMsNQpBNjUsLQk1StZINTvDNDXa5jY18iMPNSbhFjUpPcY0TR0DNaW5\r\nPDXS2wQ1u+lYNUrX5DQrDoI0J6YKNf1cWDSiqBY1WkQDNSJoqDRYbmI1lKA6NbYNpDReftk0MYAd\r\nNaSzwjSODp80arfnNBY64DR8Xg81XqMUNeYu2zSiXrQ0oDSSNHzBBzWY7Zk0XAjxNGnWBzX+0x81\r\nixaFNFr6GTWrpOo0plLvNJY2ZzXIY5A03iEGNVTSBDWiy/c0MeBdNDh1wDT6R0c0rrZANWp3oTQL\r\nWlY1yHjUNABGajTEMQk1mEPaNBjenTSvtBE1ZE5kNHrJPjUqBtw0uYQ0NTOs0zQQoCg1aI6NNBSF\r\n8DTnoBc16/cANQEU9zStCFg1Umx0NFR2LTXmhDg0jamENOzQGjUKfB41T9EUNdVuNzR1OJw0LTR2\r\nNSgZ+zSC2W81O6UENdUZpDQ2CcY0F8FnNE9BEjVuJpU150+YNPZnNjXNX/40DeSDNdFulTTPHtQ0\r\nnvtpNIbzCTU5dyQ00NwdNaAqnzT4uKs0VPinNGah2zRZjYU0HimRNO9EzTRqCwQ1K07XNCVZGzXA\r\nUec0EZuaNFL8ojSqF8w04aXYNGBZ5TRXVA41kg1WNNIgwzRKvvs0TNClNfg1gTT4Og01NE7xNOrp\r\n4zSSAYU1Ae6YNC89sjRAmgE1IHh8NVEMLzVkzu00BMv2NDgivjTvYtA0hQwnNWnxgjRVUBA1x6C+\r\nNGR6JTUU/oo0w67mNEg8gTWArsE0g68eNRzp7zTbu5g0c60rNYy8yTR33fs0aINtNKJjnjT0sdg0\r\n59p5NINpozR0k0k13LimNHx3HTW5//g0OpmeNECu6TT/gAY1CEGVNGIl4zRsgBE1YBo+NRHpBjWl\r\nNqI0vhyzNKiWETUMOYc0kRSINR0SujS2meA0KP0JNWglwzRytD00QgzoNKsMtjTgxdQ0Yi0DNblt\r\n6jRGpwk1QXzWNLLDlDTyHrk0NX6iNELVWTWjpMk0MhsANQfhDDUeH3o0YabRND383jSyk4k0FrT3\r\nNFIqSDV6z640NgHrNNDuzDSjtIo0QfvNNHWsGzXguus0LTFLNDr2gTTpsuE0wyBPNY9GzzSU09E0\r\nRniYNF9FojQj1cg0xoYLNWeQdDRKNMI07BjhNKHt7DSsH7M0jtWUNH9KszTUPaI0LSDgNHNzyzQK\r\nVf0zN1DPNTnqYjQ4+Qc1dCRjNMA7LzXG/wo1Z2shNW5KyDRGixs1KEzSNAi6JzXM5kA1y+PYNMj6\r\nJzU8YvI0YK6nNL6k3DRT3P40QpS0NLAbtDRem+80KUD6NBIUojSc5QU1oIGiNGGO0TSoVdk0uWrQ\r\nNIdJ2zSO1y41gSW4NCQloDTFII000wZANMluBDU5VqA0OBPgNOKF6DS5XcA0htQWNXSQ+DQ45S41\r\nxbKyNCwp5zQAKAc1Lp2RNMuk3DRlLrc09uIHNbYScTV+jwQ1UKIjNXiMxzTR+YI15o18NK/g+jTC\r\nBdQ0mzCyNGoaSjWPAmI1DRIYNdYarDQ87xE1q5IWNQdJGTUDfM00tBQGNUqpKjXaVQk17ozpNJ2q\r\nmTRN/pQ0UrtqNQqfvjTfhAA1CFSNNI9n5jTYmsA0LsOgNLntzjQZroQ0P/wkNKRqhTQvB+c0TjGW\r\nNHzghTSd+8k0w7MiNGBBEzWYRs00liUNNTJOFzV6If80Dl1+NMRU8zS13D80CWnUNHofzjQEYgg1\r\ngvbzNCYzETXWyLU0KjhgNAm8zTR64Xg1lYLPNB5WuDQC64M0xsCoNBzdfzTiVSE16EXoNCJyAjWY\r\n+gI1cdnDNMrAxjQ9GAA12p2wNM9GqTWvUtc0pPvNNIAE3zQM36c0/dB0NKvn5TQ+npE0CH/XNA+Y\r\noTTFRkU1OA9LNKZO2TQ0dsg0K7E0NX7O3DSjGts0Drx1NDnWkTQYqyw1oMWtNKwY/zTCnp40WqC3\r\nNKugpjQna5g0l3KxNCbVcjSpobI0MAMONbjspzQS3Zo0SHe7NOkxSzVA+Bc1RtKZNB9ZFzUobFs0\r\nV7VUNNBqAzWygjg19havNAR32TRhSBE1DtscNbSaADX21CE13DuqNIvjqDQtALg0R5e8NNYQ4TQe\r\n9RU1+TOANKm28jTQxJ00LQ25NLqAejRNmLg0JMAkNKRLCjRxH6I0fGEPNQJ5WzVhjro0odWrNPMz\r\n+DRuPqM0n10hNTpZYzTKvAs1ZMjPNBJUqzR/1EA08+cJNU3BAjWlBw012YwpNY4f3TQ9Kg41aG/O\r\nNGCVlDROVME07FenNJmUFTUAyWE1fbL8NADKgzRGsB41RInYNITPHDX5ofI0AAAQNQ==",
                            "noiseTrainingType" : "default"
                          }
                        }
                    ],
                    "start" : 4012,
                    "duration" : 717,
                    "mediaStart" : 0,
                    "mediaDuration" : 717,
                    "scalar" : 1,
                    "metadata" : {
                      "WinSubProjectDisplayName" : "",
                      "clipSpeedAttribute" : false
                    },
                    "animationTracks" : {

                    }
                  },
                  {
                    "id" : 117,
                    "_type" : "AMFile",
                    "src" : 12,
                    "trackNumber" : 0,
                    "attributes" : {
                      "ident" : "section-7",
                      "sampleRate" : 44100,
                      "bitDepth" : 16,
                      "gain" : 1.0,
                      "mixToMono" : false
                    },
                      "channelNumber" : "0,1",
                    "effects" : [
                        {
                          "effectName" : "WinCompression",
                          "parameters" : {
                            "attack" : 0.0,
                            "gain" : 9.0,
                            "preset" : 1,
                            "ratio" : 10.0,
                            "release" : 3500.0,
                            "threshold" : -20.0
                          }
                        },
                        {
                          "effectName" : "NoiseReduction",
                          "parameters" : {
                            "denoiserAmount" : 20.0,
                            "denoiserThreshold" : 0.0,
                            "noiseProfile" : "QI+DQNYnBD6ZNm09rKS+Pb7n5DwDHhc8ccSZO+iQWTtD8KQ70e9qO5/K2jrtO7U6PtaVOrPv0Tok\r\n/9Y6PpmMOpR5EDsB4fM5w6ErOnfe9TmcME05lkmYOdY1gzjY7KQ5Qs3JOQZMvjmxmLM5PiUfOcTu\r\npzn6gkY5F8SmOYg2mzn1NRM68xYCOjFkuDmGSDQ5RxmlOQ+nPTmWuNQ4AYrKOSDxSjmW6xg5YtSn\r\nORh/ZTmQ3HA5uPw2OZZhdTkIrw05ZOJ+OWpj5jhjjx85GT4oOSD1LTn9c9Y4KKVHOUeMQDlKsc04\r\nhKpDOQRZODmk9bA4tutSObaarTjiAQw5Z4eNOPs8HDntY9E4x1MDOaDTFDmBgbk4pS4XObZ3DTns\r\nk+Y4D6k9OGNFozjsNZE4OjhKOYPPizkCCFs539pwOW7pETlCnKk41OPbOPiVjzluzRw56leoOYCr\r\nMDmG4uA4IbI2OamFFjqdfSg529SROVkuVDkwWR85i/2uOU7HTDkoQ8g4YvykOTzohjg4a3s5QYEV\r\nOeDk8DlgKIY5YlxHOUT1HzoxTgM6uAkmOsEWzDjaFIQ5+KQjOS07vTjwV5Q4o2LxOK1a6jjnXJE5\r\nsjIWOYxtvjkWlYw4RGAmOeLJ1ThX6Rc52ZYYOApvuThPN5c5c4CROfLBvDjkW0A5hgUrOWoSgTkb\r\ncrA46BcuOTxT8jhZmgA51KsBOkS1DDq5Pfk4MKF3OfIUOzqDlw45aw7TOPHsKTl0GeA52xVlOZ+C\r\nnDjGAqo484S7ORsFnjgEC5U4iMdBOr284TmewzI53+ZkOjIUFDsuG7E6EikdOvCcCDqy4Lg6u4eu\r\nOkdXbzpOBmk6drigOggkHjrWWcc501mWOTGx7Di/fFU4MlsDOStz2Di/tag53cOVOR3kkTgVAHA4\r\nPKcMOYvSDzmHtMU5AIOKOThGmThCHwM6mngoOrJoQTlTihQ65FgdOmz2KjopX8g55F2sOWD72Tg1\r\n5KA5OOVbOeJbijnzT7E553aaOUB91DgBgxg52hfEOAEXUDhTiz44K/aOOPSvOjg8xCs4Uqm6OIbB\r\nmDg+jEs4WgpvOFcgJzg4yDs4LJVYOC1OqTi/9uo3IqtdOMJDFDgJdBU4gUa6NwwXUDiEmwI5knEw\r\nOMK5eTizE004Oyq+OCNyHznIlYY4ZA8nOOMnfTjy6lI4J3BSOBPwjDhdIhg5psE5ONNTfzmuSIs5\r\nnd2VOHpjnzjI/Bc5lm7IOIBgvDhGtDk5FviMOBxWYzlaHic5vCC4OPeNjjg4Trg4OOYFOWqOHDgQ\r\nu384E1jFOEvy2zeuWQQ4F64yOKTUtziDrzk4HoxmONFY+DftgGI48+JXOPgnCzlcHIM4e/08OOBQ\r\nxjjiPdU4Cp8DOKjdnTegouE4MuGYOORJGThKI3I43MIwOXPPVzj93n048Ip8OOxqCziQoZQ4eoHN\r\nOErmDzhKeQg4W7azONbWEznilzk4371qOH/+6Td2FDs4LbYEOLDwVThQ1S84glI3OACf+zcifyU4\r\nKKpdOIZd0TfYVWk4YTluOB4ohTjYq/k3xefGN7iC/zcAlS44bLfKOL6+UjhMPGQ4+CB/ODgAmTgK\r\nvRE5tHZjOOcsjzhmR444morhN2yI+Ddfblg40ZKBOIoFkjdJTEQ4yOweOF0iHzisnwo4BCWgN/od\r\nWjgu1/83w3UNOC7lQDi3jUc3hpO9N91Gqzd2JeE3W388OIKX4jeX0OU397N0OCXV5zecvVY4+nX7\r\nN8LfyjdGPh445lr7N+r0Djigkuk3mpelNywZPzjfWM03w64SODKweDgfgCg4+rffN0pxizfBIw04\r\nsKg9ODT9+TcYKwg4ODnxNzNbWzhU//U36foKOCQNmjglcTg48JFeOHHihDejRMo3CWetN2w+AzhH\r\ncbU49k3wN0R7mzgtXuE3LWceOM7uyDfutzE4wbRJOPAKgzj88z44aMaFOCg2SDgv1Qk45R+MOKW5\r\nwDcryJo3WSFaN2YbLTjRV/I3LhH7N5qTRTf+axA4Is2KN4jgMDijV6E34iSdN3l14Te5OxU4c829\r\nNz4i/zcZuwo4HpoJOHilQDgktq83vGy/OL2kRTfxle433yk/ODR7AjiRdKs31An0N27qvTfDF8U3\r\n4j8QOCeAizcVxdY3R9JJOBn5IDhmRLE3/qkmOLK/yjdEpac3KyAxOAb9ijfpROM40zUKOWps7zgA\r\nqhk4DnqyOLK1tzhra9E4irgNONDV6DcwbMg3VVoOOABhljgkkRs5+d8sOeedCDgefJs4Zl6POLVu\r\nWTgx2Qs4MMuOOBkuUDj7dUw4TLe/N8iKijhsrnE4AumPOKrTEjj8UTo4Ct7hN6j5jTjwEko43Ovz\r\nNwQJ8jdNRyI4pAMPOIwyETh+A7g3dv2jN55KOzjnJdE3cc1EOPwhVTjSYxU4IX8LOFFWNTh/Kfc3\r\noVB2N3Luijff1KE3/qBBOJ7s9TdwOc83WmOjOAzgBjgsxRM48r3NN9NXJDhDnhc42MkuOHFNRDgE\r\n3yE45FbeOAdEFThkTw04G6FSOH3JWzggews4AoJzOKyCNzjwu703F41BOPCqLTgybmY4NiP5N9lA\r\ngTcs24M4SgARONTgmThmPuc3PkYZOHn62zcS2L44Gj/rN1sTATgZ9C84SVmgONdCwjcKIag4TmFB\r\nOL0BhDjwQzQ48r+aN5BGJDgp/+Y3h1zKN12MqDen6Ag4G6TXN3lOezjqckA4OpTCN1PJVjgAUtE3\r\nESiLN2iYJDihw603h0Y9OD2nojhaqNs3myAGOBa0DziMBaQ4JZXcNxIHgjjIKwM4NCWRNwXv2Ddo\r\nrCA4qj/sN0C3zTe6ck840d2oN7JOEDhEY403jM3ANwn+tjeeOoA3YbnENybzCjiqDMc3aGu3N742\r\nATgTGXI4SIfKNxjwxzcwAoY4uA6QN3js1DdUSII3+g0+OKWPYziCP9g3vukPOMELYzjEXco3rB+m\r\nN2dVwTe2Zj44EqUNOD6BQjibNj84U6bIN6izGTiN2LE3SiBGOPxBbDeMRzk4DVgVOG5FEDhjbZs3\r\n7p4UOMDU6TeM2yQ4Tn4sOHp6wjdDWZ03PYbSN7C1tDYjoaw19B2lNZTgujUneDk1joEvNZFPGzX6\r\n0jM1ARpMNbkpRDW0b4U0+VqkNE7R0zSuESU1sQdfNfNwZzQc5Rg1qSqvNEqRxzR3haE0YWCINEvt\r\nmzRm4141ce62NEogIDXqL/40PDTKNAYQ0zTBoVk1NCIrNfZupDTVA9s0uba9NCpzqzQjDrY0LLYA\r\nNajVZzXIJL40v/CoNPaoujQaAOU0+CgZNeNcKDWuNyE1CPSoNLPcGjXFFAU1ML0nNedNpTQULoc0\r\naUMlNVai8DSHjtg0tlDcNGi4pTTEl2o1bJLmNGPmCzVodW40PH0bNXRVBzVemLo0XyVWNAa8hzXk\r\n17I08MkjNZbgljRYdIo0TGTeNPFEAjVPYLU0i7ScNLCKnzQKl5w0BoHiNCDfxjQLHwU15KvxNI7S\r\nxjQOqgA1TnerNLxhDjXiJKc0CRLHNJwL8zQE16o0GpodNZbn1jSDrU41kBc/NRFk0DScs7M0LpgX\r\nNbAbLDUOxbU0OlnVNFZKrDQ5KwA1oIoGNVwRMTVyOZg0OSMoNbxZjzSeIh0162wJNTKOnDSUhrs0\r\n+rPDNKwV6zTojxk1ewbSNGqSjTTIbN40sD3QNOSwCzVsUDI1ft2xNDKCRTS08MI0BoHSNDjHIDU/\r\nbes0clnENPZQ9DQgMuc0I+puNMIDRDWM8RE1VNmjNI0J5zQDOzM1+O3yNBR/1zR+zq40q8LBNL4f\r\nCDXw/pI0VoXgNOYyITU4euE07xC6NFFdMDQ5KeI0SZSfNFJvzDRsgm80CNZTNf/AaTXhQew03E0/\r\nNcGEjzRcscM0+BaDNEgt+jS5iyg1ZkaSNcqDCzVZraM0iinSNIj7TjW+tDA1KSjBNEbUMTWmNtA0\r\nBe4TNUgpBzVcHA81eXYONSr3FzVKftk05oHBNOvQrzT0hBI10MN+NDd9wTQyhJs04X7ZNDegtTRb\r\n/8I0JR24NGfsCzXWuCI1iCD5NIsfjTROmsA0ujIlNa+a7DQytvc0+0LMNA0GizT2gCQ0s4L3NNSU\r\nizQMR6Q0bIbNNNdBmDQNNc40Ey4CNVB4yjT0LS016ixENUNuwDRhXxU1K7B6NQ5PGTWfjXk0ltSb\r\nNK4EXzQj5p40wJ9oNcw10TTi5YE04HOyNPY4kjQ0bC01xKbsNMnRITUdcJM1qOUvNQEP8jRvrPU0\r\nq8QGNRwLrDQ88A01e7sSNbpzoDTroe00D3QENVfoRTVDBrQ0CI/fNB62MTUQ5Q012aRFNb41sjRV\r\nJlY1ZJSvNMzGJjUO8M40yGyVNFT/0zRGrzo0ABvHNOxGAjV26xk1i9+ANIg/zTSvAL40jhbDNA6w\r\nATWWSAA1hFw5NQo24TSdaK00+LXFNNxBkzRa0IU0O1w2NQ4vzDQ1qss0cOktNWymyDQjqx016tCQ\r\nNLBFhDTRA+o0ONGmNLC2pDSbv6w04d44NT7JkDQyY8s07Q8WNLSoEjX5v5s0wLwdNb1OpjSm79M0\r\njsIwNcIVYjUVYwo0Z9AJNfl9BzXEQD01/Q+3NN7iATUkVKs0iRbbNN+J4DRoTF01PEvONJse+DSA\r\n0aE0yBb7NH15kTTW5Cc1bGJwNMIvHzVu1s002FKyNOzOrjRjFoY0LMrRNPScCTXkGW40yTWxNBJE\r\nmjQvOBA1WDmrNPk7BTVTgwA1TbcCNYoeyTRlZ/M0L4jPNMEjKDU20dQ0XhczNVvwIjUgjxg0QUUC\r\nNVHrIzVujL40az5WNKr2vjSCyDU1+QMkNTIdzjQm6cs09TBnNa6pqDS1M+80uqPaNOaPQDTjAYo0\r\nVRACNZqOFzQZIIU0QABENQqP4TSMGcc02Jq/NLVKeDT6XGk0FCyZNErwGzVnyBw1GLPdNNWFmzRh\r\n/Ko0STzMNJ5GzjTrqQQ1Cwl+NLpviDRTcJY0H6b1NLOYAzWVb0o05eGrNGVZkDSNiaU0ItGdNKXF\r\nlTSwqP404F8zNf+5njTArsM0Dv2RNBOTsTTUELE0LUvHNHTUOzXAALU0Mg63NKINnTQ/JYE0dKj5\r\nNNSSoDQenY40CC8WNas9DTUux7c0WvC9NHkneDSZOAQ1eXnCNOJbJzVLfb40AhUyNddkczTOKuM0\r\nYLxxNLREIDVAhrk0LxmzNPk20zSAW6g0mLWvNLTPAzUYzlI0CX6GNV4LvTSyPoo0rEIvNXbIkDSo\r\n2Ak1QxZgNaBVnDTaN201YIi+NB0cmjWRO6g0wkirNPH9rjSM/Rk1ihCVNPbH0jRXNQo1wDFPNTi2\r\nizRqGwk1cDmjNLvxxDRWc7g01aIDNcA5iTQ+uhk1zWWyNPU0vjRiDBI1acgjNfCEBjVoSAM1HmAE\r\nNQxBfjSNrQs1wWURNWyb+DR5a4A09B27NGh+EzXQSPg0Xmc9NVEu/DTZUKs0CLm3NAAAEDUTH2pA\r\n4ezMPREn1jxzDQs8PU3OOyeBWjuAWhg7FvmxOiT0sjoo94A6ROVTOhs+pDq+2EE6ABLIOZCaeDqb\r\nipQ5TID+OeD24DlqFwk6Vq1XOYKt8zmUqB85CC//OXFv7jkNFrc5UNTXOYBjtTkFRLc5Q0Z4OWU7\r\nujm2jb8528mNOfWjoTkyXtg56rU6ObotSTlBVS05uAJ5OVneVTlzyY056Op+OdJ45zjPyc05TLQ/\r\nOTuxTTl+Pfs4kvJtOOJWOjmRZIg50CkGOZ6JSjmjJMA4vGcYOchy4Tjeusg4HvWUOKCZ6Djc79k4\r\n7boMOYRYATn0AAU5talQOM+Ogjk3ml05Ysf9OBzeeji1NgQ5JNUNOWt6szgmD+U4lHRTOW0DEzk3\r\n8sQ4RjxEOSJDlDict+g4DrMFOlxYYjkqw3Y5r8kKOUOIAjnqqf04miMdOWj+7zhuMEU58BpVObXR\r\nCTlNpiQ6HXodOf4/mjksAGA5TmVaOXWIGTlN3xo5Ch5HOcB29ji9Jjc5CDrtOFworDgC6uk4CJJr\r\nOX39czga52M5jMPEOA6evzig6Lk4ZcvgOP2sjzjeT4Y5QIUMON3Joji+PYg4D8G1OMxYnTh4s404\r\nT1Q1OGzukjg+S7w4wwu5OGooNzjoM7c40/kOOUCeTzhaitA40sItOK8U7zhSmlM4GNePOHv9gThW\r\nfCY5NFrBOEjusDgBK5U4jochOaBrrThsHY44Wo0kOLQ9tDhpnTY5R0zDOG1ekDjCboc4YrDtONKQ\r\njzhi2tM4dtNJONchkjg6a6I4cMGdOIxGxjg9OyM4TYQSOZ0Fxji9Cmk4rvMdOM/eHzgfVIU4rt2i\r\nOBYCwjhpe0c4/SSdOH3yWDj07MY4jraxOJQjZzirvv43grBjOL5n+DjKBXU4W21tOH2zfTixmno4\r\npKG1OAUuujhg/C04keaAOKcUizg/g4I4PVwSOOoibDiWLIE4/RErOOGvrTj+Xk84J0WROKnblzhG\r\nOsM4sm8bOKGb1zfv9Fc4h5grOOwXBDjmpBE4Ah2NOE96XTh6+x84xhIOOOK7IDg3iQ44AFECOLIR\r\nfjiFV603p6cTOL6ZLjhZX+03MqcoOCNARTjp2sU3Z9brN2Sa+jdLcIY4GPdFOI7U7DcXT2s4ansL\r\nOLksEzgiA2c42X/MN9pcIDhVbx44/REKOCxpEzhC8X44klFLOFnytze1rDQ4ybFWOCgBMzhUR743\r\nEa7fN6N8Qjis72Q4ZZZyOBiIpjd4NMk3W0/tN3nVkDe3hiU4134WOG+FlThILT04pBMYOCqdHjjI\r\nnww4bNQuOJ4SJTh0mWg4GBLpNxgcqzeeck84klWWN8FiqzdS+K43LMbSNwG25zcStF04M/hAOIYy\r\nmDfmhOM3SE+ZN/pMFTj41rg3rpAfOL8tGjgKz5U3ODUQOM9yKDgixTY4pAzQN5DmaDdYvcU35ocC\r\nOCJE8zcCx+k3BKSLOPHAyDfwkYY4864MOPwkpTe65N83ORYHOOaHBjh09+A3WoBpOB4u3Td5NVM4\r\nmFNJN3Jb3DfxPug3be3RNypZJTfA4B44KveSN1qsRDgXXBk4Ds33N8IaLjghj/M3PdjgN4P3zjek\r\n6CY313qfN3XclDfXgyw4SroCOGS9QDi4E7Y3EjzWN7IvtDe0PbA3PTmMODApzzcW9Cc44u3bN4Hy\r\nKzfcP2s3L3eWNxDfdjdQ0PM3vuf6N/r3GDhlEig4+jYWOFPiSziFBHU4/tk4OMEFlDcsQAo4KY+9\r\nN9nAWjjInrw3NgJQN5OaBDgTGsM3W1GlNye8EjjmWtI3pLepN0rP7jdaFCQ4Ct6UN5R2tDeyzoU3\r\nbKUvOJyt8jesJPk3jHICOJn0vzfebmY3wqTJN9tOmDf2AMM3mvWqN0VnpjfYKwU42BUBOC3x7DcJ\r\nnA44HBbcN1MUUTgUeRI4uZNhOB7tDDg9GF04gY7JN7EtBTgC1sU3dLo5OAMMCjhwRQE47R7uNwA1\r\n6TfnXX03TDojOIDXODgyK7A3+zmkNwj4lDeYrRA403QAOJqeRjg/zVM3xMMhOGKz5jeHdks4lIsV\r\nOEjugTd++h84nu9sN57Z2zc78D84NIVjNwuwkjc1+gE4aAbLN8SBsTciGdY3IHYoOJmLyDe8apY3\r\nnvj0N/stDTjuCOw3D75SN1sgxzerSYo3/sExOH8hvjc4+zE4bXkFOKlP3TeOXO43ug7UN1P8qzer\r\nZ283ZGoSOFHz+Tcsewo43oHSN1Q32jdikhk4Xp8ZOIsL3DfmNDM47WQnOGQgxTesn7M3snwZOEZr\r\nQzdJcfQ3Kv2DN7ZwrTe+bZI3SNyJNyDLHDhfdBY4EI7gN0QgVjhD8a83+5slOLr+szeOHgI4thEw\r\nOAwalTfVnK83jhjON21s0Tc9k6k3j6YKOHDR1TcTofU36A6mN6QdAzg2BYI3wimpN4GLRzgxXyM4\r\n9AKPNyPV4Dedkd03PWGHN7YHnDcnhgo4fvZlOFrosDd+5LQ3IJU8NxmuVThJ/UU4iTKvN8jHrDcO\r\n2WM4grqzNwEKETjLis83HILgN7hRDDhxnXo38aWnN+jMrjdabN83zzthNziKrzerXww4VHgROKjs\r\n3DdQQkM45w2MNyecgDcFTNs3bhgEONFHEDgyHUg49Ey6N77vjjdePyw4nhYSOEQAjjf0yZc3l6HQ\r\nN26NjTfAVZ43WSL6N3pqLDcsHH83exyAN8o8GTiMx0I35rebN3YaIzcXEY03GSHeNwDiqzcIr5w3\r\nysa4N6iLbTeMtRc483bwNzG4izfscxQ4L1PON84ZQTi/Iw84Ha8DOBM4XDel9cs3WLQ0OLrB4De9\r\nj0A4ZqwHOI4Swze+q9Q3gtA+OHt1pDcfJyE4/nopN2nyOTi+38I341buN6VfuTcqxZI3v/rZN80V\r\nEThXYTM4szOIN/n8szfnBMQ3gcynN/g3fDdfesY3249fN3XHDjg6ncw3q+DaN6YNqDcCM5I3ZDQR\r\nOJjqyDehpJ83JsoNOFguJziFMgY4qPTPN9aVwzczS4A4GIJiN8ZN3De4g6s3ABjjN7mrzzfLKRU4\r\nTK2gN5y2mzfQiq83dIcnODHtkjcr3hY3ZIyGNeCAbTX8xI01n2edNQGw9jQK/ms1u6QcNVEI/TRN\r\n3Sg1rLzNNZKaizUwuDA171jGNDWsNDXYhXg1mlwNNWJLbjVeLyI14DpWNZsZczVtLQw1/sMjNQYT\r\nbjXkz4A1Ma2xNM9ZHzV4LiE1vcorNdxYUzVMSx41RDrENIE02zXkopg1vxXaNEOkrTSSuHw1cCHO\r\nNNCIQzVURRU1DoGINWjiCTVZoA81HuBANfjhZjV+j7w0rKwpNbK7sjSOiys1gI0ANdZVYjRrofk0\r\n2A2DNXZVBTVNk2g1m3OLNZId1jRI7640kpgmNQKwBzVoAVc1g5n6NEcndzQMbo401EsYNcir3zTs\r\nDS41eIH9NHLa1jQjJcM0tF/XNGwXUDVRrxA1fELVNK2GpTRdZPc0oqWpNDIn5jStHgk1UbYPNW3s\r\nAzW4YKg04SLoNMIkKDW31Ak12Fn3NCMtxzRKr2o1ydP3NNa8ezV9JAU1UBYONTVHHTUigQo1DrfV\r\nNHWOCzUfvr402tCWNUbC3zSQ8Q81AHCiNL70VjVxTjU1FVh6NHIA5TR28Mw0uJd5NZB32DQ884k1\r\nysfANKn0eDWUlbk0gjaLNbJRojSq/y410hkCNVKv7TRBRZ40NGUBNXIq+zQL4kk1/upBNfjaQzW4\r\now01xSQNNZd4qDSLQT81VJJnNHpJ8jQZNRg1n6EdNaHf9jRf+nA17J0rNRRqfTWiJBs1lGJoNbZ+\r\nMTWQYyw1ZGRpNMZykzQsPx01xrVXNVVmIjVJFoU18o0wNTL/7DRCuxI1nSraNDaW5jRwuGQ1XUP4\r\nNE9ilTWcUNE0OMYdNRaoqzQtvQw1izy5NH68UDX8qt80VovANPMDzjTzstI0qSomNd5IDDWazAs1\r\nXrFqNWUf4DTxy3w1PGb/NIwTFDUeFUk0vWKONGQsqDSgv0s1Lv+RNFHI0jRMuJw0CeP9NBr+ITWU\r\nZ+s0SW8hNajZ5zRHHA41eIAQNbjwtjTLoYo1hDVXNWZF4TQRkdE0AInvNLp34DR8+hA1iOT4NCvJ\r\nRjXQCrM0D5tkNe6WuzT/TRY1QPWSNVZDAzXsFhg1fw9KNSGiYTXiV900z786NUJgAzVSquY0gWbq\r\nNHuBMzWG/Ps0ANdUNDJpAzWLsJ80gXWQNHXl/TRQlqE0LceeNINPETVI6qI0Cq0SNejFqzR/BDc1\r\n9/6MNL/GhjSLIxU1O+oZNafvQTVDo4c0MKWVNFiqIzVFYuI0+8y3NBzYjzT1hcA0500NNR6LKTUI\r\nzUU0ofeINFBH7zT5rwk1XD3ANPAMyzR3PYc0zHadNQqB+TTjeh01UDwPNY9h+zQImUc1eshNNMYy\r\n7jRstg81okupNPdVaDWmdEM1N1X8NGx97DRnjQU1IabHNJJeYTU6Lbo0ZB5DNXzZxTRg2sU0evfM\r\nNGHGwzQCqvg0/WKYNBYiHDSZm481XQ4CNa1ClzSo/tI0fhcNNc6V6DSOTcQ0TBPvNLp0rDQ0FsU0\r\nMaynNAOc4zRv+mo0hQ6mNA4dJzUiVt407nEpNfB+uDReOVs1QcC9NMRP3jQ5G9Q0WsgCNWRlAzVu\r\npwM1+I8MNbQ1hzQU2Kk0ju8ONZnB5zQC1iM1/1XDNG4JizUdCxI1gykqNVWwCTW22tU0924PNfOv\r\nCjUwC2g1pLQaNcgMnjRgSGo14IdTNdblADWE7BI1FlQ5NSTo0zR4//c0D1tYNKAKzzTihvo0QZ+M\r\nNLSXqDT/LPk0pLErNScOhjS6QVw1xdLrNFRkCjWiQSs1eQwhNbEfBDXcmHY1sIECNWS3nzR0AwE1\r\nI92oNLOw2zR3zaw0Xsw9NTEgsTQkONQ0g5mwNPsYADUxZ/U0whs8Nagp5TSCToY0M68aNd3aGDVb\r\n2LM0A3XDNPwIeDRDXRE1MW6kNJmgRDXmiAA1b2TENDKfiDXqCaw0vVQnNT4JrDW4GH41KDK6NPFL\r\niDQGw3o0MApjNczGNjVeh400ZR6MNQYsjjVOFrE0+EfPNP/UAjXn5dc0bw5YNXPEnzRAio408UOi\r\nNOTdgjR/29k02ywLNRRzRjURhNU0SWXLNCee7zSbcuo0rG4CNTHGDzV1mM00DOD7NPO1nTQs0Ko0\r\nPvpnNQvrvTT88/40DlEWNWQYBDW3Y9o01Hy+NAokpDQemgU1mPjlNJSkozS4JBo1xas8NWIBzzR7\r\nIsQ0nS+wNGbMBjWYHQg1AE8oNejT8DQlktk0c/p5NBR2GDW48e00myhYNUS8DTWESGc1AEj+NJad\r\n+TQYnZ80JvJsNVggyDRUAMs0XUrGNGYBBDVbXqU0LBT9NDP8AzVJHdU0bMOaNIlcNjUFjm80HAs/\r\nNeJU5TRf77E0dIujNBqlBjVIV9Q0CVBJNYfGizRBZ9k0fcqvNDQeMzXnaZg0AEA2NQ==",
                            "noiseTrainingType" : "default"
                          }
                        }
                    ],
                    "start" : 4729,
                    "duration" : 1320,
                    "mediaStart" : 0,
                    "mediaDuration" : 1320,
                    "scalar" : 1,
                    "metadata" : {
                      "WinSubProjectDisplayName" : "",
                      "clipSpeedAttribute" : false
                    },
                    "animationTracks" : {

                    }
                  },
                  {
                    "id" : 118,
                    "_type" : "AMFile",
                    "src" : 13,
                    "trackNumber" : 0,
                    "attributes" : {
                      "ident" : "section-8",
                      "sampleRate" : 44100,
                      "bitDepth" : 16,
                      "gain" : 1.0,
                      "mixToMono" : false
                    },
                      "channelNumber" : "0,1",
                    "parameters" : {
                      "volume" : 1.3265306122449
                    },
                    "effects" : [
                        {
                          "effectName" : "WinCompression",
                          "parameters" : {
                            "attack" : 0.0,
                            "gain" : 9.0,
                            "preset" : 1,
                            "ratio" : 10.0,
                            "release" : 3500.0,
                            "threshold" : -20.0
                          }
                        }
                    ],
                    "start" : 6049,
                    "duration" : 3467,
                    "mediaStart" : 0,
                    "mediaDuration" : 3467,
                    "scalar" : 1,
                    "metadata" : {
                      "WinSubProjectDisplayName" : "",
                      "clipSpeedAttribute" : false
                    },
                    "animationTracks" : {

                    }
                  },
                  {
                    "id" : 119,
                    "_type" : "AMFile",
                    "src" : 14,
                    "trackNumber" : 0,
                    "attributes" : {
                      "ident" : "section-9",
                      "sampleRate" : 44100,
                      "bitDepth" : 16,
                      "gain" : 1.0,
                      "mixToMono" : false
                    },
                      "channelNumber" : "0,1",
                    "effects" : [
                        {
                          "effectName" : "WinCompression",
                          "parameters" : {
                            "attack" : 0.0,
                            "gain" : 9.0,
                            "preset" : 1,
                            "ratio" : 10.0,
                            "release" : 3500.0,
                            "threshold" : -20.0
                          }
                        },
                        {
                          "effectName" : "NoiseReduction",
                          "parameters" : {
                            "denoiserAmount" : 20.0,
                            "denoiserThreshold" : 0.0,
                            "noiseProfile" : "NqmjQDB5rT7SniY/e7dPP/6jEz8OXQM/jvwXPnFJbD64wDo9Jga7PRDoLT1SyM48c5GTPFW2nzsn\r\nAag7p0kIPEMYhzxbfc88xTKQPP3vJDyC28Y7Y+ewO/zrrTsumHE8LMM4PA0uZDyGA907GWv5Oz2R\r\nKDs28TQ7HuA1O4TeFztQ76k6lfYDOxpgUjoyVZQ65tpNOihimzqkFsg61ppWOiCeIzqb5yo667AS\r\nOkRaSTpoiR86Ri4qOtJfsDrYZa86pNPhOXjENjo5omE68c5hOfmyYDm9QIo5qUyHOdvgWDm4kNI5\r\nv3KaOXd10Tk5yGI5UUBOOZx63ThAJuY5pMvGOfdNBTmdF4s52OIuOQkPVjmKFgA5cx+tOf0gETkc\r\nOzw5HU8rOTqAgTnb4I85gb44OcyJHjrnCko5HC/COY8/RzlNDj05ONSTOn8U5jnVUxw5bK+FOT/n\r\nDzrF5YU5UGW8OdTKyzkSQNs5bJTfOZEQrTkhsGM5iCQLOipzrDmUZ5k68s9HOsGwdDownak6Pj4R\r\nOl6chTr0Lxw560dOOsV+pjpbOxE7QHueOylVADyXplE8yT9APM+mWTyH0E88KBVkPJi8bzyx8HM8\r\ntKV+PH9DejzI9Hg89A+KPIIEiDwvZW48gpppPKZ+eTye7Es8tdRGPI/mYDzAfFo8P+RXPG10Rzww\r\n2jI8YOQYPF1BHjwCnRM8dzwdPLtBBTxjphM8/ukiPNQfEzwSCkE8V78hPEJfLDzNmDw8C3QnPHYN\r\nLjzpmxg8XhkdPPZrPDxJYjA8JLo8PNtFSzzBACI8ED1ePEneVTz6bjo8IVAzPIp1HzxTqQo8Avku\r\nPHilGDy2FQ08PU0MPDnL9DvquhY8f7sFPFKWBzxGE/o7MibxO82pBDzDF9o7JnfhOxL+DTzCCwI8\r\nnrMYPC5KGDwTehM8ZDEnPEXIFTxMJRs8RmAIPCy26Du3yu87hujxO56dtjs68cY7bpSmO+4/lDs4\r\n5II7G/tLO1O2Pzu9jGE7YAMnO3xVFzseExM7lO3xOihZIDsOaRQ7CLIjO4oOGDu80vA6MtYfO6gM\r\n8Tpv7sQ6t3KTOscaQDrOVDU6hDk9OgJGxzmAREA5EKUoORm4pTlfnuw5XgoJOltgjjkLm9859S2L\r\nOXHRnDn/0eg5SGDaOUylBDrXXvY52yoWOqGWEDrmU785ahUZOuuCBjkDOJs5MtL+OBGEmjmRRbc5\r\n7wPLOfF6uTm//6Q58s52OXrgLDmjSCs5CXrYOMC3HjkqY0Y5wAwqOZbkkDn+NtQ4hj4/ObkDTjkC\r\nlJk5bGd6OboOkznc/No5tkOPOLOrlzn3oBg53Oy+OVTCnzmokJk4FiZhORJ3hjjYG4w40uNgOLin\r\n2jg5V9U4XvfJOMjjrjgJFGs5mj8uOeh1Jzmybzc5esfDOUqtOTnJxj85OnHrOYiZAzr0SxE5H6Gj\r\nOT/ZHDnM0jY5LYpHOXS4FTmz9Sg5kmcPOXw0Gzm5D2I5qDcTOZzfYzlH6185hGVsOUYGfzmQUgU5\r\nGiN4OcoSzzgEhOw48kP0OPZqrjgoM2s4B0oPOFbnJjjJyQs5ublbOScfSzk7/Tg6rsHsOTkW+Tkc\r\nCj86jspdOiBLSjpClWw6TVWQOqffljqcOK06XUAAO3SA4DpKWf86kfjYOj5OxDrfitM6cGMSO6iE\r\n+ToL8eg6oqb9OgmB3josWP06k933Orda5jryqfk6b87gOvR0CTtuuyE7/DW0OnEfBjvlk/Y6RAC0\r\nOtUy1jrejKs6Rju2OoxlwzqbmZs6sRaJOs/llDrAF2A6oFSqOmgbYzpmprI67eOKOkhBZjrk/7g6\r\nGnqVOsTiizoJeqU6BWZgOq9chTqQNJk6WIIJOrmHLjodTBM6Uu8LOoubBDpA6zE5hmCkOXpE/ThE\r\nFpA4Et03OWLJ+zhj4kI53rrBORWHwDhuLNo50gFDObOpCDmkAZk5LJF8OQ3wqjmOa2A5eG8cOVo5\r\nHDlEJKg4tCeiOGhawzgygqc4g9/NOEoC+jhRTIQ4LimEOKIUXDhIkWM4dqMKOOa1OjhkTBg4BnML\r\nOGMvIzhNDa438L4JOGZKDzjAkEA4MniKOOWs6TjOdQQ4AdQMOIT51zjeMns4k5f1OEDDSjhgIaM4\r\n8kgWOeUQmTjK6yc5QXFYOLzZpTiMpoA4jy5QODl5kzjw7k04lUoeOEfvAzjw9IE48G/fN+RhNThE\r\n0jM4Z5Q0OExG+DgvD2I4Fk0KOba0JTlC0Oc4ieRDOT8heDiZvCQ5LduZOdV8EDnysZw55XAvOWK9\r\nKjmaAt85P0LiODaNLjnslQA5ZRv3OG/jbzmrnqk4hSwwOayYRzhBEE04suUxOM9HiDgKiAw4Vpig\r\nOEjg5zjDTmI5oOGDOamhSDlP0L4563CNOR71TDmMBIo5cjGYOQ2L0jlCWqg59swUOQlrujnvFVk5\r\nvdP7OBRxkjkKf8w41wAzOeRJWDnWC7E4rMeoOaQXmzjzXlI5sPUGOtwa4ThP6Z45r4NKOSp9XzmW\r\nbKE566CTOYkD/jnsjaE5hY1AOf/PzTle46w5wP6DORbaizkbd6s4RLz5OHpI9jh42k84Mp90OPT8\r\nhDgmAiU4yBnFOMp7VjjOyaA4uso6OQisoTi535U55qc7Oe1BKDlzyQw5bjl/OCfNNDm9m+44uxs4\r\nOdLlJDnEiAo5omwWOYt8FTlyAKI4oFV8OE3AXjjtXDs41ECvODVkLThi0sc3X2qKNwDPHTgA1Mk3\r\nDwWoN3Wy+zd6FKg3VpruN7ShTTjtkWI4cl0POCxuxDcmkkQ4QIcSOB75rDexAgI4OgfyN6/diTgd\r\n3R84sBn1N4Ag2DdmIFQ4cmQaOFgiOjiWGzM4td2IOKQ91TdA7CQ4QiwbOJI/Ejij0U04mJTPN81K\r\nBDgzsA44zIuBN3ow/Tee0bc3rtnaN4Wpozhgv5o3xn6iN6pYATgBXhY40T7RN/LRozd2nWA3+D6n\r\nN5yctzfvuT84qXmwN8hwETjGAuA3xoC9OAKKizh1wQQ4xC8jONIwzjcPiL03KN7DN12N2zcGLJo3\r\nmAwwN5ZzOTcIciI4k5WfNzBJHjjGZAY4fnuYN0m7VjaZK6Y33czSNn25ETc0ooU2q2ssNxgLvjYw\r\ngBE3jmEoNpVY6DZiLbE2a6y0Nq0+jDagnnk2XxCENiydgTYRAps2ZzlKNil72DbZ6BY2LITDNpaI\r\nNzaEFFQ2/NJGNpripDYANGg29bHXNv4aBzYyW2M2Oh3kNecawDYHpEc295+RNgA3qDZGkcM2HN9f\r\nNh+zijYqong2XqmKNZNCTDYZi2A1iCqmNvXWRzYB5AE3TeYiN5huTjctBmc3q8qMN01mmzdMOJk3\r\nFpauN6rKYDfzUR43QcHFNr0hCjdJZX02HQspNt0pCjbqtuY1Vc2dNWTu3TVmHYc1UhsENnvVnDWS\r\nQjc1rQVsNX3TwzT+yxI1ToDUNOwPjDXYNWU1VjeiNUV6VTWJlpE0OF4/NdSKQDVlkso03wIlNQkE\r\ncjVew0o1XlzTNK6VlzUWbFQ1IKdVNVBe8zQ2WSc1fbsnNSbRUzVXMcQ0e+8ANUCoBTVacjY1Pvel\r\nNLLn9TSu/YA1HfWbNa5OJjVCTog1KmfYNACaPDXafWA13LNSNXp+JzUJ3S01YfivNGmcvzTFtC81\r\nGiHaNDiNhDW+aT01xUi/NCrWjDWBUAg1s1M3NYjcsjT0OoU0PPqyNFzCxjRtoGU1oWdeNflXdTRF\r\nrtE0aj0kNY8dnzRD6EI1udpmNaaF1TTQFBg1liQENWyuXzUqQTs0vO07Ncqd1zRClVU1pyYdNVcU\r\nPTWhKW017NeMNakMvzR21d40ZlH5NCQ4hjXs2Vs1nlp0Nc65DjV+qS01k7vCNKF1zDT7qSo1Qr02\r\nNUHtVzUD+Iw1qVkPNVYwKjX82wI1FweMNYLNtDTKv2Y1+9ADNVzLLjXxP3Y1J+BbNe9h0TT3ltM0\r\nOe1ENQB5FjV01u401m4vNVoA7DTWFBQ1s4I/NWi10DVoqAU1ymrTNct+xjQzcBw1OFYvNRJYSTUV\r\ncSI1ozjKNGiF4jSfHDk1iLRLNa3XJzVtsrk01L8VNZdW3TRdEww1N7GoND07cDUeshU1BZYyNS5R\r\nlTTtKxM1vYNtNf2/ATXhefE06MYJNSZOFjVI0j8140wbNedbDzXc9lE1jsVUNUafwTRp5D81NRb7\r\nNKBopzQIHOw0pMqJNOLLBzXRdEY1TdizNKCOGjUJArg0hj5gNUUd4TSgnjE1V2z3NOyZBzWABR81\r\nrfIuNYxIMzVVjwE1vtQHNb2TIzVZDak0FvQJNQyICjW4EkY1lZAWNXAjxDQvQa00i200NdHbHTWS\r\nDFw1AntgNag3sTVqX880qv/0NHyAETV6cy41hAa4NHrHODXI5iE14MMmNWVZ1zRDSK80CoT1NNR7\r\nNjUEmSo1s6yBNYJBBjWZe9o0Q1IVNQ4W1jQS9Nc0EGeSNabxDDV61Gc1xr8BNZAn4zR6Xgk1B3Mp\r\nNQqmrzTbMDQ1QzBYNMpXVTVFOak0cbELNVZV3jSYuNI0yM7ZNGOANjWCQqY0Zh8lNSiGijWsjyw1\r\nwr70NEscUTUmFsY0HdIiNYCvAjXSWzY1jJHdNHijvjShXgU1BRKQNT2kUDUx4Gw1AOqbNBll+DQS\r\nmSw1EPdMNZounDSnBPI0K8fZNBDW+jSfKpc09V4lNcJzMjVJiGQ1qtoCNYqSlzQEGuo0IGYANS03\r\nnTTo/Rk1K5URNdRb1jQ7NJ41iOgtNc+j/DTPY0016QEINYwEVDVeOZQ0PjUgNSn+7jQMiZE1aK77\r\nNBEc/DQAHyY1jS0VNU4TBTWfrCI1IsUCNQKVdzWG/Ac1NQJqNY3RDzUNTSg1HKAWNT97YzTLib40\r\ndEGSNVQazjSUvkU1K2a1NMGZKzU4KQk15FcyNVADLzWac/U0EEXkNNsFHjW9JxQ13n/XNTVDJzXG\r\nfgo1qYwNNSpi3TS5/yM1gfVHNYJ3QjVyc+Q0g/SLNH4dezW6PLg0rNBLNXe7HDU//QI1UhvuNBw/\r\nBzWRnRQ17SY1NesCCTVB6kU1RwFENTXaEDVq0MA0+hCPNG0b3jTYJ0M1IPxYNMyUgDVuuA01PTY0\r\nNZDI/TRkxuE0yYLlNHU1SDWtWNg0ZL8nNffWjjT1VCA1YaQQNaAvLjU2aag0498mNfh8DTVaQME0\r\nAnhFNVZeSzWiSrw0zJTkNFmh0TQyMjA1IAwqNdEoEDVjux41/qwPNbH2RDUMUPw0cm0sNc/PHzVb\r\nU9s0wR2ONTaV5DSgsIs1NKcJNSb6IzXuw980KRUJNRNV0DQW0zY1okNcNSqbFzXw3yQ1i5UFNQLW\r\nKDWjmlg1LMrgNIu0FDU6veo0rcFCNQyERTV0lRo1PL1pND52LTX1jAQ1gfs0NW/u0jTUuAw19qo1\r\nNXgpjDRue6M0hb++NHIZ4TRswhk1ZIkGNSLGrzQb31k0xKZ3NRiguDSwqM40r+4XNQAAyDSzdtdA\r\njOevPZukbTxmdPM7G3OZO47IGDs5Iqc6bwlJOvTcpDozFSo6vMU4OlyLETqzmuY5xO0ROqUj5Dmh\r\n1sg5loStOQ+YtzmCGcI5h70IOgx7aTlS5JQ5MjAUORKmfDlahXQ5MFu5OAerYTlQ4W85PxCPOf53\r\nVDksFAM6HQHlOJyF0Dhmdxs5n9OOObQhbzlOuUk5IjuYOcbRyTgEHRc5dHoVOWIxFDkHb4M5nzqp\r\nOCa3LzkMBIA4NNMIOd13IjnO2xs5tySkOABq4ji4Uio5zPMiOag+HTm/GT45nvqoOLfK6TgqEAc5\r\nTlAgOYw45TiiTb44NpnhOC2Xozi+HCM52KWhOD9Otzg+7A05Su5TORRzWDjKWgk5VdESOaczxDii\r\nGUE4aRDzOBxYJTk2omA5sUBSOZgRBjncrck4IMDhOXAudTlUjn05GO0TOQYqEDmSS0Q5h7unOQeS\r\ndTmsxPE5vYBXOS0NgjmRIoQ5mh2LOUzrEjqdvEo5WAgSORI0ITmV+g05RqVUOYJyrzhrVwI5+8oe\r\nOX5RZzi02d44SADdOGB0ATk6HYI4GY6NOEoYYThq7DA4tEYCOLLfWDm+ayI5DK6WOEwIhjjsGAM4\r\ntIaBOHBhvTjTZhA570+yOLgtxTiyX5Q4gp/4OCxsmjjE3ZI48u8fOMqsjTgyvxY51BdxOO81nzhS\r\nk8s4Muh7OGzeCTlISlY46lp6ONPugjhC1MA4DvyFOM2BXDh+WDw4w4/HOA7MnjjxskE4VKnOOJr0\r\nJzisDZo4ZPN2N2jBhDgfNpk47jz8OPqKlDhDUYU4hkyROESrrzgahg84fMZbOEkSJziBzGc4m0Sh\r\nOHGmMzi0DpE4gvj0OL7VZjjQNaI4Bj5wOLahLjgYy3043SvYOLXuvDgrSTs48SnkN77jVTgs21w4\r\nP4FTOAwntzfazHU46G8TOLjtIzhQX3U4TrMdOOPHQDjAHCk4QuQxOHNSFDi9UZc4lHeOOOYtiDhe\r\nNtM3YXkKODSNrDgA4Eg4UEdtONPMoTjSm/c3hNOOONzc+zd8ZM83FF99OGBWGDjXJ4Q4HUdeOJVs\r\nIjgSXFM4BqYqOObGcThApvI3mRGpNwgICTjW9ZM4SllCOOYHEzhfYyg4r4ACOIZcvzdv1wY4tuWy\r\nNxcs7Df2ZvU36RdZOOxTLThK2BE46yrZN0yM2jfGUCA43AcWOHAcZjjE1Yw48uHZN0Ya6DcPXdY3\r\nDgsJOAVWozgS/6U4xmGSN15BNjj9XnA4yEcFOKr87DcLUMA3rO1EOD6mKjjzQ8A4uzhVOOkcGTjz\r\n0a83nu8MOAXZCDiNMxk4ojMIOEgbozcCnxU4jLjFN93WWTjQfBI41qU3OKJIMjjWFww4WuswOE5Y\r\npzd45KI4zqAIOO7u0Df4Ufs37MSwNwtchjeUCpc3yE87OAReqTeRjxY4EKfBN1H54TffEAE44gwK\r\nODTCPzjy7zs3CWTQN/+sPDhGxeM3HaQrOGxCtDcjJoY43qBAOA/CgDeFV883Dvy9N8Zy1zc0Lqc3\r\n6mY4ONqEXjj06/E3mbokOELN6Dd+mbs3gR6AN+tPHziyarc3nMEOOAOYgTfktdU3WLr1N2479Tf1\r\nuzc4KHkfOG8TUjhB4qI4Ciy6N3gf8TdLt0k46V3MNyioYDj28b03oUuYN/j60zeEKF84mEnIN1q1\r\njDd1gSg4dawJOHh9aTicnQY424vzN1ic8Tdk53039NEaOMiU5DdAjfg3fR1PONu5Djis1ow3C8e4\r\nN4nU6jdKv2U4xHPcN7Z4AzguAUo4Tj4EOCxzmzfvbNs38D44OHle2je3LZ03vqQlOBrr2DcW0ac3\r\n9KXMN8wEpjd2+L83LqlxNy/gMDg2KGo34TxGOIOZ/zeUg343bjm5N1P4SjiUESk4RGvjN8TI2zd6\r\nLt4354OgN91i0TecoWQ4nvYrOGycmDcWews4enTEN3kzezdG0yI469nTN9a76jfxjQU4y3oyOGgZ\r\nszewR/o3VjcHOAtmtzdQ9QU4KKPsN0ZkvTeCJrY36lT7Nz7MGziwMyk4NJUbOJeBDjjwEkQ4gs+2\r\nNwZH+DcSDx84bX9HOKKSATiCTFw4NBsHOFC3ojcpEL83VxgkONhfrDdSax44lZMDOHEs8TenSTE4\r\nNM4SOGAndDcqvjk4fb+4N/4EwzeY1Rc4ZvMXOPn8IDgZlEM4MgiyN7CFrDdoxxY42TaONzbjtTc6\r\nlZY3OS8DOKIOJDj57f83xosOOEzhlTddiSI4mbpMN/cpHDhyrlI4PE40OP1dKTgdHw04mNTpN7MK\r\n2zc0nZI36xz4N+qgCDh3Wik4mJukN/Uo3TceMhg4rcF1OINb5zeiCYs3yFUlOAQK1zewzRs4Pm/T\r\nNxj2vzfYqkA34NrpN+cMQzhpZJo36jCFNwZ2tjeU1aw3nQH4N9bB/TdmkqA34h2yN9YMsjc7/Ds4\r\nc/0XOPCrlTc8G4A3JhSnNzPfFDiCG8c3fnQXOAKt6jc5WPQ3g6KUNxp1qTeutP03vDimN6KIazcV\r\ndAE4pRiWN24FBjjlShg47HOLOOZ3Bzin4+43syAMOCQ+rjd35cA3KG9nN38QujdUgQU4umpwNyfx\r\nxDexP/M3CuqTNzwA5Dd3+c43KHasNz2bAzjonAQ4f2MDOPcvFziH++o3huGbN/rLezcTZLc31ErC\r\nN1SV1jfSdKg3Dl1gN9SPwTcw1XA3+6orNx2HCjgDMkI4IkyqNxbsgDcaQxk4O0/zNwBQADiibZ03\r\nMJfsN8zcBDhDBww4HysdOEj5FTjHWDo4jMakN4LL9TenaJQ3d3XHN5yywzdxz3A31BIVOPLFBzjD\r\nfwM4irWRN6v2cjc3ujM4K6WUNyL9gTcOkwY471KlNwIlRThwdV44WpeBN6ISAjiEhrw3R88WNwC+\r\nYTfc1RI4VMGqN9c3yzcOy8w3xoLcN/SaKDga9wY4kA9oOGlysjfo2No3PmVDOEOvGTdA8k431tsJ\r\nOPCElzdGrhE48aWwN0KT7je6BTQ4gvwnOGTdsjepIkc34LagN/+rKThx0BY4sLj7N59ErTdv5pQ3\r\nrHOaN1IwyDdNv6M3iR2XN7aCxTcbPvE3TuWrNn3maTVO7Yg1RHmRNdoxITWPoMg08SVRNRzCHDUP\r\n69Q0QE9cNVV8qzXLTkQ1kPNVNWqcEDajSyE2UA7xNcyQWjYKrVI2nbJfNk30hTboCK01UhcjNh0Z\r\njTU2myQ2klA0NQiB3DRTZco1vbwbNfe38TU7SCM2B0TGNRfDwDVLLoM25m1GNv63eDbV3AU29+oo\r\nNrvtfTYWgUI2vURiNtFJOTYcLk02D95nNrCsbTbqqpE14J/DNKJWCzXLaBo10B8xNYhpPDVKEro0\r\nZIZbNTJY1TQuD4Q1LH8mNSj4kDXt0hM1rC40NbA/gzWis8c0DgBeNeVT6TRUYtw0dgMFNXHzuzRE\r\nYbo0bE3/NKryRzVEJ9M05dLXNBHjLTWEhsY0QlmsNIzwOjVLu5E0UpWDNcAwIDUzCsY0aI6NNNFE\r\nJTUouTc1LLQ0NZ4jLzV4UEY1OXsCNeGzIDXKa4Y0sNfwNJcnJzXvPOw0jjR+NHEVHjV1WM00as1a\r\nNaOP6zTgH8k0MGm0NNJenjR2x8Q07PsPNRUrsjQ4fYE07gBcNWPFFTWzVLo0OsbkNBe/7zRw87E0\r\n8kBzNCwQ3TT4IN009lYENT0NOTQfFQQ1yic+NBRnIDXQIMk0BcjYNJAVuDQr+6k03jx4NGYFyDTh\r\nyQI1TMEENbeq6DSI4BU1aAYBNfQLLDUVXZc0KCblNNOFDTUjzAM1pQYPNTny7TRQ/+M0lxXSNEvp\r\nzzQixQk1veuoNOLXNDWh1+E0yr4iNQXxzDQm39M0SbaVNN94HTVgENM0xmYBNZyOnzRifb80HkE2\r\nNcYWWTVruMA0EucCNewhrDTpKA01X2r1NEYb5zSy4OA0mjTCNMEj7TRr4EI1xky0NKtKpTTZMYA0\r\ngmCTNLSOmTR2FxU1ZaWmNP1ktzRZsJM0gpbhNN7MgjQ6HVs1lKPCNN1WMTV/F8402fOyNOADIDWh\r\nobI0lsd+NHwTjzT9Mo40cAO/NKeJzTT4xr806HrPNMQYpjTfgpI0tsD7NPLd6DS8p5Q0YuvZNC8U\r\nCjW2ugI1tk3HNMAdpTQMWiI1ADgHNVJywTTyHRk1dD/wNCC5sDSNfdA0F2KZNJAJ/zSOFts0fny4\r\nNH4HnzRaavo0cmDuNHvkrzRgW/802i+0NB0frTSx+Ro1YOCoNP9G0DT0i5s0uE4iNe5h3DSEWvY0\r\nvd+mNFBd7TT3LrM0fixaNLeMrTQJRBA1YDiuNEibEjVcUqU0AVwWNanhaTTgePY0ZCUcNTxcvzQo\r\nwdM03sQVNTdGEzWRfjc1TgDpNNzAvjQ2Kw41ejP4NIERCzW4pxA1537SNDj8pDSKOj41Ns4XNTzv\r\nxjQkn5E0lkmjNHEfLDX4Q6I0rPL+NEylgDTvseU07C8BNSRrczUGgjk1JezGNDy7gTTwvvM02nzZ\r\nNAg+mzS1zpw0I9cnNbbkHDVhzaw01EmnNFi3jjRXLzo16OJNNXwhtTQ8fbQ0gxShNJvRrDSACN00\r\nJ1+9NCr+nzRMhH00AhEbNcOZSTSoeKU0gMT2NK0RFzToP2o1n1/NNCnArzSgqTM1BJYfNZhzkTRC\r\nO5k0sZaXNCbm8DRaiao0omeZNBLHOzXlsn40hwdNNANuCjUzw4g0gVbANBizCzVXcBc1NhpgNHCg\r\nXDQhuqg0EfLMNJAC4zTAOgI1wDIKNcHU3TQusZk0E3S+NJwGrTSs1T81mJWrNDSZyjQUwN80VxN5\r\nNDYZuzRc3401RKHGND5XrzTHqd402S1CNY8tlDQiHug0S0GHNK/DhDRYY7g0Nyc8NfdFBTWCE/g0\r\ntsjPM+tndTRaPZ00at/xNMX23TQgtZU06jZrNDIFjzRoxwU1uq30NHYd8zRM7hA1gKkLNQi+lDSM\r\nW2c0u/wrNT5/oTQ3W540LP/gNF8O8jTZ+yk1NC+ZNBRyyDSQAEA0pA67NA30mTSP0aA0FAoFNRJC\r\nCDX4fsQ0AQ4NNTWh+jSaz1s1lk+ONGxWRDWwNLY0DKUBNR+YIDVnq480lz/gNIaryjQb+zc1Dz7W\r\nNPZ3EDV3mjA1bv/ING7rtzRWF3c1qr/RNLZ3KTXoiZA0/+jrNKPpKjVLhfY0If19NBtMljQ6X+U0\r\n/TcMNZzG0jR0BQg17HnWNKoi6DQTWrU0c1fWNP9rUjSiySE07kvfNANFTDTx8Y80dRKHNCemizTT\r\nBuM0ELL3NCBYEjX3u4g0KHLiNM4m8DT+oS81yMYzNIz6iDQegGc0K5kYNUf9mzRASNw0DHCdNKLM\r\nIDUkncg0iH/jNA1PWjQdMII1ZPulNJh/SjSf7Zs0O4fHNG3llDTCPgA1yjXGNG/1yjQvt6401OiD\r\nND92jTTfwcc0wUWKNNXblTRZzQ01ndOkNA44gzRkwLo0AlaINGBcyjRNhbo0AAApNA==",
                            "noiseTrainingType" : "default"
                          }
                        }
                    ],
                    "start" : 9516,
                    "duration" : 5784,
                    "mediaStart" : 0,
                    "mediaDuration" : 5784,
                    "scalar" : 1,
                    "metadata" : {
                      "WinSubProjectDisplayName" : "",
                      "clipSpeedAttribute" : false
                    },
                    "animationTracks" : {

                    }
                  },
                  {
                    "id" : 120,
                    "_type" : "AMFile",
                    "src" : 15,
                    "trackNumber" : 0,
                    "attributes" : {
                      "ident" : "section-10",
                      "sampleRate" : 44100,
                      "bitDepth" : 16,
                      "gain" : 1.0,
                      "mixToMono" : false
                    },
                      "channelNumber" : "0,1",
                    "effects" : [
                        {
                          "effectName" : "WinCompression",
                          "parameters" : {
                            "attack" : 0.0,
                            "gain" : 9.0,
                            "preset" : 1,
                            "ratio" : 10.0,
                            "release" : 3500.0,
                            "threshold" : -20.0
                          }
                        },
                        {
                          "effectName" : "NoiseReduction",
                          "parameters" : {
                            "denoiserAmount" : 20.0,
                            "denoiserThreshold" : 0.0,
                            "noiseProfile" : "cXHmQH5FFz4GP449hsg2PbzVRDweXI48VOh4PNurADw0wcA7859OO7bllTrVl0U7050CO7eF5DoK\r\nS9g6WoFAO7ikIzsSJRg7vvvOOo2MNTr4ZVM6GvW/OpHB7Tl1nno6RQKMOqc8iDqNKBE6Gz+rOaXJ\r\nVjokwLo559rUORcOkjkbXhY6aEI+Ofs0bjmXqok58WYvOijdUTlyHq85Q+LPOV4VTTm1USM5hQ+e\r\nOfF1Jznq62o5oyY0OYIIJjkbDC45SqnFOTA3KTm62hk5hTF7OQkjpjmVJTc5440tOQxQIjl7DE05\r\nHMJTOcMznjkoqio5efFuOTioSTmPyF056z7dOJtjoznWG345xNw7OUCEDTne5BU5V+gTOWIOvDj8\r\n3NQ47RwPOi76ITlKCWQ5z2rpOKUDmznD+h05S6HzOEgeSzlbUFY5IDSCOa+k/DmiBb05kiG/ObgL\r\nrDmhvYY5PHaOOYozPTohZN84iZF+OahShDlB7RY5ynDGOaZ0pzklgsQ4k7YiOaaMbTnnTZw4kDg9\r\nOQPzYTldtx45aCnSOOW+FzkCG6A4/DquObQqizn0VxM5p4RXORpxoDluZws57r9fOezCwjhYgqo5\r\nV7eWOZCQDTlHSxM6BdUROjzBSjmO/z86o1B6OWQ19DlztiQ5UYghOV04TTgGS+M4thGZOTUDFTnw\r\nJwo5cwO2OT5Ujjmm9fM5dufhONBRjzlatgQ5L5w7OV3BmDmfBkM5RMP9OH8TJTltg9o5aj5KORhg\r\njznkf9Y5fBZKOhdPiznu1jo6VAoRO/YVAzvlWW46gnBHOos0WDq6vtE6hZuWOYRySDp30Vg6ZZQe\r\nOvfF/zkIQIY6suZYOZgfGTp4s805ckH0ORDEnDnFbAY6CmolOVbB0zjwDzU6SzCeOX+nrDi3mpM5\r\n1woSOZvD6zizmPo414YOOdr3Kjk2q2U4YVPYONqi4zhzavI58joYOpiqHzmT76A5bubvOG+jQTlJ\r\nMhw6bfjlOUTaXjmt+Qs6vaciOVHCizm2dS85XwCQOZqtsTgLeGY4nf60OKvdTjgFXIM4Qo72OOkl\r\nQDgPMpg4cdt/ONh3HDjw2Tg54O+wOGjPajjmgAA4QsA/OCOZGzhNy284xuvgN9MJZjgnYSs4O7cm\r\nOHX/UThwLws4p8AYOCL7kjhYhCw45jTvN50JkTgEruQ3tOM3ONck2DdPK543seTRNy3lIjjWOys4\r\nc9A2OHo/Rzi76o44aL2YOEtivTdEx4446RJXOAz5STjUyiM4i24QON0/ZTin/s830yDSOJijJThI\r\nZWg3ibNOOJA3sDhuUQA4VK8ZOJf9/TflQpo4tOf4N3evmziUR144v4IuOBu8ADjuJCU467HGN4Xb\r\nazhXcTA4/5rkN3873TcTPuY3QJBKN+mi2jcdjo834hLKNxxSJzjqEPk3zwxUOJNj0jdN1WQ4LzEL\r\nOJoiJzhfQnY4bnhSOP6ZIDj3YBk4ZjJCOESfXTgsBcU4HXbQN3hzJTik9wQ4j6gVOFvGMDhsCGE3\r\nduu+N0ynFjg6vCY4HIgYOEZdKzg04jM49r8GOOWPSzj/QpQ3GszAN57kEzg29go4Af4hOEqjHDg1\r\nBT04eIniN6IOFjjQ0yM4hGYnOFaPfTdA+cU3J2mJN4YGfjhXamE4ErKKOMC4DTiD4s83f9wmOFSV\r\nVjhg6Q847vn4N4vJYjfC0q033qYKOESHkTeOH/E3pWoaODzg0TdZu4g3Yxq7N+uN7Dct6AI4ylSu\r\nN5ZPZTj2mA442WcGOH+gBziMuN83/gwsOMsPsDf2o8M3mp23N2Gvajhep9g3HyhfN8nP5Df/w7o3\r\nZRu4NwY+iDfMJ6Q3X4oDONC9szcw+cs3/Z0lOATgADiXM/A3q8mVN+Wk1DeXpik4l1otOFnJFjgT\r\nWSc49OwJOJjOGTjbAtU351RoODAt3zcZMfc3X334N4Z55TdhtCY4VXkYOKWZNDjbiKM3qnMrOIyj\r\nGzhl95U4sGkPOIo8nDeTmxE4GnCaN0vtGDhXpw84yEElOEgB0zdF4oQ4IuceOIGekzeQEd43FIKo\r\nN5J53zdQYDA4UYnpN3/TsjfwwbI3wP+dOAAmQDjeJRs4pyp0N3lqEjimoaI3RCkVODLMEzhAvyw4\r\nIOoBOAoVCjhAvj44j1wIOGRH7Te20GI3Pf8ROBiC/Dc6qrs3zOXoN9RQ8jd+2IE3sueRN2YSvDfT\r\nHBg40WUgOKHHtjfZkiE433JPOLX1mTdFw8Y3FH2/NwcX8Dd2pxo4oxJnN62XRjj6s2Q40fMTOF+/\r\nJTh8YSE4yOrSN++fOTgKXQ84Q1TaNy0ogDffGCs4OFLgN8l9+DZsyas3/mocOM/KADj9LZs3l9MJ\r\nOK8CHDgy4qw3z1gmOAiT3DcuJMY3ZsmUN/n+CzhGHXc3GpIEOGS+qzeCTvY3e0oTOCeHkDhqLPw3\r\nkjKLNx56tjfoywo4LtA3OMaQnTgdba439zlGODpxLjh+4hQ40UaTN7mDBjhfjgg4NMPQN/QQAjgX\r\nN2M3skA7NzdeAzhn3AM4qsGQN11K4jcYxxU4t4jBN7n2zDft38A3QjbYN6fczzdJkJQ3Gkf/N6B+\r\nfTeZB6c3AfpCOGpABzhHFIs3NlySNz1LYzgUjgg4nRQsOJRe+DctEag3CiugN3AnwzcSfro3yB0B\r\nONwkPTgjo483HVosN3Kh8zePya43m7KnN+a/vzeUMyo4UEi0N2Cm7TfmwaI3vgm4N65PSzgAdG83\r\n4XxqN0gOujeVI383QQSlN7e7wTeWebY3gceWN/VYsTeiF5U3Az2hN4rtuDclCck3CHE1N9sx1TfQ\r\niEk4NDSRN/tGGThin8o3YH/0NxNGBziNxNQ36QAeOKT0BDh+D2w3rjTjNyPPFTizLzY3eYrUN/sD\r\nlTcG4rs3lbQGOCNUCTisR/M3z/PcN2Z85jcist83TFkIOFhUazczz543Uk0MODQxbTee8Kk3Kl8j\r\nN4EvvDf1Ei84nAqDNzHy/zdcWlg4Jw7yN7w7vTd5YBw4lnWCN54RBThuIio4vV0lOLcI0TeVEyE4\r\nIMopOPsQizdMipI3ldLwN73fEDj7o8Q3W2v6N/uiFjb6q1Y1wHgXNfA0PDUS3YM1yqcsNa8IJjUk\r\nalw1AiUCNbbdITUgFBA1hpKINb8jAjVmaI01PXpENZy7UzX+zTc1DXVENc1DWTUDShc1BAkyNbIU\r\nKjWV+Rs1itHVNObLKjVD9bo02M5ZNWeXKDUcqxc1nqrUNCjAETXSSzs1IrwUNTxKwzS6og41ZDpC\r\nNXQnazWiImg1ECIDNeSYEDVKngc1JCRzNRIzGTVYn/A1HVP0NG8BZTWceNg0XLweNe1BHzUQLqs0\r\ngKikNEce3zUZcvY0czvBNMaHPjW7Sr40ytopNSOQojWtAyA1O2gxNVrjDDXaW540/L20NQyoajXi\r\nrz41gy6ONVcd9zT7kOY0KUwKNXPc/TQI/Uo1UhcHNbkxDjWWcL00DvjeNKImUzXCHL80q+dwNZIc\r\nwzQapLE0LvspNbrUDzUj3gw1pGEcNQKR6jRUOUA1sBzpNHoATjXlGPM0Z2IdNW+Z7DS8Gyw1BdIP\r\nNb6C/TT4ZTA1rucvNbcPDTV21wM1ohUBNR/1BDXz8D81oCq6NKjRzTRqwj01yuuuNNfIxTT/TrQ0\r\nMs5wNVZDHzWFMiI1jJlINdVwdjUGpa40LlMdNRqKETVaAIc0HwW/NOl4DDXEUio1s4gANZzDOzVQ\r\nkjk1m6j1NN3/UjXSxBY11ugwNfLgtzTzdx01kAglNZwXGTVSbyg1dCAANfSe2zQGi2s1lj7INNQc\r\n0DQMRss0tkd1NN9gTjXpaAA1hFYLNQ9HNDUS9fk0ZC+0NAdkCjXf8Co1OSbpNLYLnDSaTsI0bBMC\r\nNXB/9DSF47I0uvUHNV3TBTU/Bgw1BisNNWcgDDXXUKI1f04LNe7/EDX4+co0wqbvNNigDjWucWw1\r\ndFP1NI35RjURt8g0vz5hNLSO/zS7PTM1vvnrNLQqHTUI3qs0565PNYRTQzX+DQQ1KXQoNfrH2TRS\r\nlf80PLwVNcTBBjXYySQ143y0NHWfAzW73Q01E0hkNRxibzUsLQw1nLnANHATlDV7SXE1mxHWNLpo\r\nnjSWJs40rEi+NFjd7DQadOA0/XSANV5d0zQGsEs1OH07NUXBDjVA1JU0B/OdNZ/XnTTZuiA1Pg+o\r\nNDoUtTS2PVE1fgn1NIp0JjU95zY1d1N4NeIgGTUnUvg0rRObNdxAzjT9+wo1qnrUNDUbRjV4SBE1\r\nAl0rNX2MHDSqG+A0ujkeNdizRzUjt9w0wIx8NUSh6jTfl0k1YlUdNU7erjRKD0s1bLZ3NbaTMjWC\r\nu0w1yX/TNKYlGzX9Zc40qgPkNONRtTTXAvk0st2tNCY+ozVHrvQ0yGhNNY5SODVOu2Q0iNB6NGDE\r\nCDVaivQ0eQaBNflboTQhLHs1dN5HNAEz9zSapRY1egrrNOwWETVAMso0Ogj1NERFFjX0HB414VRL\r\nNQshBzUyWB81a1kJNcLBkjQCdgI1zO43NapSHTVIC680ChqiNIq0IDVsACs1o3WqNDLZEzWdZxU1\r\nxrL8NGaJHjVIJzY16cNiNZBcmzT9YDg1xNq+NI00CjXnbKo05lc3NSgSGDXOKxU118HXNFG4QzV0\r\noPI0qVowNXLUUDUUqcA0GAEMNWIqPjU1gpg0dxwPNfPVKzX6+AY1fB1uNZHRVjXmvLs0iGIQNdCS\r\nUjRM2hA1HrRaNATR9zS5az012dvdNBHaEzUrrzY1YzNDNbhYBDUW/rg0udMxNe5GwDRsM6k0/kvU\r\nNM/TKjXMRCM1QT3ANJl9oDTAtrI0MvoXNTXwrjQis4w0BqcNNWCQADVibYM1FbcrNaq1/DQpx800\r\n6z2MNPUnsTTKcro0NnVwNDLGJDW+VgQ1inrMNNt9kzRofBM1hu3TNCKCOjW2EBA127smNZt2yjTs\r\nkco0XmsZNd0aCjXGWt40hmB9NWf7MDVMnMo0N4eWNLH+DDX4W+Q05DdNNUGTEDXo1AE1yvXZNOaE\r\nzjT7tV01dznLNNYB6jQqooE0BvctNf6mHzVaewk1zXweNawjMDXJJCM1IAPKNIzIJDWwQnI0oDkt\r\nNGZkgDTfAwQ19kPjNDZ5GDXR5Mc0hzsDNd1veDSHeQY1ELXhNAL+7jRfEew0QPloNVADODWkfp01\r\ntg+4NCOe6DTGWos0V4kTNa2jtjQR9BI1cqUGNZvDBjVefw01dgEmNdxkGjVL5dw0O7sgNQONGDWm\r\nHaA0xvP+NKxY1TT82Z00jYGRNBnxdzRqyYE0pN9ENQSBlTTEMnY1Dy2FNMFqIDUw9qw0gid/NHZX\r\nsjROFLc0NiDDNBha+jTi5dE0x2DZNJyjsTTEFZ80F58FNbtI/zR/lRg1Y7QHNcnO0DTgpto0Tkjp\r\nNInckTWzbKI0vRnyNG5gETUgvdI0EF6sNJUx/TTPShU1gjq9NMjDCzV7OKU0qTUENQAAEDX9YgNB\r\nhTL5PQiuoDwEKws8s+ZuO+9HODvUdCw7TM2tOnj0cTpk5mY68xGnOhKZJjqIMb058OOsOXktJDos\r\nhrU5hdsrOuK0IzpbVok5PQS+OSqv1DlO5Vc5fJGWOVtPxzkQR5A5aPqTOQm1ODlUeXA5iS5vOQp1\r\nsjixmVc5NZsKOdkBojkWFuk4D/t4OWAqtjhGn4w5BO53OXQUKjlx/jY5VWSPOcVGEjkqLHA5R4yo\r\nOINMujj69Dw51Of4ODon9DgKj2c4P9b3OMZprjgX0Zw4QM0iOWy19Di6zxQ5Zg3YOBaNLzlCfQk5\r\nlo30OLrTFTmcVIs5H16aOLTnAjnLJVU4qGICOSG58zhAzPs4UHQKOZ/Q2zhmNNM42lV7OFdDvjgQ\r\nuEo4jp7hOCoh3Dj54jQ5SI53OeTrETnyDqU4rsBNOap8RDmFVj05TzYKOfYo3zhuSnU5nlemOV4m\r\njjngKyU5pF7GOdjBODlCGxk5EbFaOYHLRzniCkk5TSIjOW9CkDiEhUA5/JeeOCrQGTkZPR05gi5a\r\nOLbMxjjbbc84t3rGOLDAjTk+lh05GRnJOCn+iDh1/Lg4RUn+OEW2ADnawsA4WHdcOJjJKjjdG6g4\r\nu4upODM/qzgeC5E4vSwOOZmDRTjsYLQ4QYfNOOW4ODlhuaU4xl7iOLy/uTjOyYI4qfHxODf8Zzhu\r\nIL0484wfOcR9WTgT0HY4CgI2OKz9rjgV8Vs4VS8cOTMIgDilxIw4KFSqOAvcgDiQzaI48Dh/OD9w\r\nFzjyJAI4gl5MOEpIyDhKZqg4F4piOAqLoDjMxaY4Lbl/OIxDMThzaAk5QmkjODmp7jgV2iA5CLlf\r\nOHOPXjjVJpo4gLbNOAN6iDj13YM4aW+zOLd5gDitTqs4pq6COAuyGTj09E4430lqOA9V2jjHokE4\r\na/4MOCBQhTiHgaY4ntMsOJSVJDgEMYc4uQ7KOBKUPDj+6wc4fWgBOAp7nTia3u03yt+YOG+DNTjw\r\nYj84R4lrOBGNmzjPsR84AzwIOEqsjji0sM43WNHvN/Y4kDheC783l0ULOMXgxDiU3DY492S5N+rN\r\nqTcUlKA3aBMdOIhaJji6LiA4J0WqN3DumTfS0vs3guVsOCLxSDfDHds3BLD1N0967jcCoNc4Thyv\r\nN+VHADgjmdk3+iLdN+CEHTjAbEo417MsOJCIDziPs104GlFROLo38zeczS84npyVOPneCji+pXE3\r\nWpbDN45VMThaofw39+5uOIkc4zc7qss3pp+5N431+jeKaYU4vurmN2f9xjdbLC04r4cOOAfpKTgp\r\n87Y3w1HWN4aCAjj+Gwo4hwLmNx/xAThuzdM3PYIFOLk/KDh7RGA3OZCpN6PtOjhUi3c4Wuh8NypJ\r\n7Dff9gw45ZAQOILrkDcgGiY3LvW5N+RS0DfYqQw4/GjfNzgttjdnAh047IW/N5ycPDju1Q84IEro\r\nN07GPjhZpLg39VsIODFiKzifUxg4s4ALOLNP2TczaQc4ww4zOBjUHjhA+As4dm9hOGbhhzh4V4k3\r\n8NGJN2w8tTcICcA3ghwCOCUkEjhB0nc3mnolOGofNzgWXZA3Dp4QOBIOwDjLJxc4mz4DOBJsWTiE\r\nWZE3uoBMN/92lzcpi+s3aHsQOL2KkjjjHc836jHTN5V4tTee/oc3BgMvOLofuDdaFc43GN0SOHwn\r\nyDf+Tbg33PXXN3eHATgIU0E4rJUJOEHaxTeIYlw47+XHN6h7ijcUkCo4E6//N2CJ7Tc1d7s31HVD\r\nOHKUozfGSR44+92fN7K+iDfGTNI3WhPsN11hVjf98rI3DLPJN3qKBzgaErg3r1X3N8DIoDdN0QQ4\r\nBVypN8HAlzc8ONs3VBkLOEfCuzdOEYQ3/BnuN5JM6DcI72k3REQCON9hjDcOOZQ34XCcNyDCgjfy\r\nvJg3LoWiN4aMwDcOtJg3IfqnNxXMtDe3co83XpAPOGfEijiLtrE3ZICyN4mRmDcePLA3hERTN2If\r\n3TcqJbw3ygloON7IYzhAY7Y3Ji4DOKJ0EzjEzE44NZPoN1dwDTj5ZYw3e7WdNwmmHzivIJc3kpYo\r\nOCjzsTfuc0k40sy5N2RlnDc5UKM4RbaNOBIKJzgUMaI3ZFzkN02RzzeuGQg4gp5IN4HZrzfA4Bo4\r\ntTXsN76T7DfVTLY3qw6SN/rKyzdxKBo4TkQoOGuKszcAriM4TjTPN+3z+DclMK03MKjzNzLAKDh+\r\nLJQ3mJJ0Nxa2vTe2qPM3P+cHOCJWkzeZCPI3Ht3mNwidQjhPiyo4FI2QNzkKrTfgwDE4ySfgN0nQ\r\nuDcKysE3kLgJN0v13DcQIvY3khJiNwMHrzd4H3w3zkOqN/kfmTdwX2I3MkOBNz+EIjiNh4w4Wlid\r\nNzrcezdd+R04Y7PRN54AYjiyt8g3uOTuN6anbDiUnv83VFG8NzYmxjc1PE03+Rw6N5DISDfsGE03\r\n4io4OFRR9DcPqIY3A+oBOOfvFzgxSAg4HdzXN24lGTjzNwI4iuh1N/rgBjg17ts3+5+RNzCsczcs\r\nYVE4srW1N9473jduWOo3COrbN+ECnzcs9NA38LO7N76cyzeTrwk4PJvQNyCyGDi0NZI3lp+tN/20\r\ncjcl4g84E3jQNyn++TeEHL43RGGhN2W7qTe1Wzc4y7OAN5Pv6zdPkrc3r9PZN7BMBjgUms03FiOk\r\nN+D00zehKAE4mCTCN8F3vDeAEI83cRLMNwTLGTgphOI33f8IOK5yKzh6gtM37On6NwAlBDggKQk4\r\nc+0GOEE1Gzc7Gs43S2rhN1NoJzgbMJ433MfsN1QV9zehRp43hyehN5ScEzj2Y2o4jK/ANzBNZzjt\r\n/Uo4an+5N//CADhkuoY3g5gnOBIDzDdZpIw3bHzyN01ZgjiIepQ3wUXDN0wBhjeHd7o33naKN9TP\r\nDTgPs6s3m+hqNxbFvzcQBLI35zaNN0H64zca/fA3r+awNwk1hjcjOYw3BwtTN1mq5jcQJeI3HKqf\r\nN6jB3zdBpuU3t1jiN0rsTDgBkCo4u9iuN9Ftoje51W43BGqCN8Ro6jcEL803YwmWN7P4/Tc/iVg3\r\n9kgHOM55QzgyT503Q/aNN+b7oDe1EEw37QrkNRnpWTV9V+g0aX86Nbr7azWLH1A1EWPRNFhnDDXf\r\niwI1OzngNdse7zQVdaQ1vCzINBweKjWsATU1/JcuNUZ4KDUgN2g1bmjdNLBCHzXMPLg0OcMBNQN/\r\nuDRa1ik1TCUDNQJ7rTRTUK803ONcNVPnkDQ4aSI1yLWcNJIXNTUdLvk0wt0ONW4kVTWijxU1DL4t\r\nNS6AdDW3P0g1vN3rNJg16DSx5Bg1po6rNB7snjWM/r80KIkVNfaXVTXdz+I0u2diNcyG2zRFnEA1\r\npkdINRp7xTRRjls1bT8GNaLWYTX0Sd00Yt3SNGj1kDSXrjg1CX87NYT5UTXQs9s0BCOLNVxcdjTJ\r\n2po0ZpYYNT9AEDUGt5w0jpIeNd+dtzTxdxw16HCRNFylEzVv7Qo1fENzNTKpvzSmgvE0WgG9NHPy\r\ncjVee7c0rD1RNW/S3jSe8oo1aOYnNUETNjXFJrU02HEMNdLwgDT6NsI0SAbXNGKCADXNiZA0Zhsi\r\nNUAuqDQqTh015gQiNWp+wjQ4aCU1/7ELNQXnJDW/kms1e8TFNCXbzTR0j3c0GQarNLq9GDXQKxc1\r\nlo7qNL1kxTR/BJc0ajgvNdK21DQ+rDo1bMaiNJtSDzVvNis1ip3sNOxJijSMXuY0Nu8ONcNb/DSD\r\n/eM0oDgDNb463zT1Zu400sbeNHKvnDW4Lgw1UDvCNG6jujQSDQw1yjT0NIJ3EzXbopk0+PjANNxu\r\nAzUR81g1/kflNNBqATViKfE0hH+VNHV5hzSk4kE1eCTkNGxHMzWambQ0Ha2eNOjl6TQLyj01Sav3\r\nNJqgETXT3I00rgMJNTkBpzQu0yo1IJnHNM/ASzWt5LE1mMKkNTe5CzVl9O80n1ItNc5k/zQ7YNs0\r\npmceNfPL1zQfpfE08JzXNIZgiTVI/dc0uacxNSxazzSMRwU1VZuLNBZwvzSkX6I05QU7NRkR4jTk\r\npzA1ho6kNG/OLzUn12c1+htGNfjo8TR6MSY1w8WBNE0G+jSwJq80kvuKNfx7mDQ2/UI1J9itNPPP\r\nrDQLTcQ0TfdhNfapIzWOeJY1T6yuNA/SOTQZiV40JzMkNfWOFDXgYeg0zoS4NKZNyTSRGRw1Lrw0\r\nNQoXxDQbdNU0VxGrNBNRojQu99U0OeyQNFsL2TTy7vQ0msKxNFnuETWE8yo1R9orNczw5jTRaf80\r\nSWOINPYA2zTA6440kPwYNSy/qjQamlo1MP+INJeUBTXGEMo0PNEfNfudwDQ+J7o0Vul0NB81vjTA\r\nw141ea+6NGfi+DR2M6U06jfSNPKRBTWqRA81SRwNNVmpuTSy88k0NkwqNc3aNzWa4ws1pPHTNAkJ\r\n7DSwuMg0HETYNLXoCzWkzcA0yYzMNMWJoTRgDJU0aXIHNf+ZEzWNGSk1wopiNVqGIDWzHlo1n/SO\r\nNM9EATVCze40U7NkNUlP+jTEnEc1Gom4NAhymDS+6PM0zgmzNFCYljROfxc1EWy9NP03hzQ2DL00\r\nCNEsNdMpETUaKCs13Sk8Ne8Q0jTzj340Oq4fNelSWTW+xAQ15pSfNFbINTWvHfc0jk7jNL22sTS9\r\n8c00yn3LNNIfoTR2bLo0T8IDNXwusjR8jMM0S6DANIOjyjQRbJw0NaKQNCBATTUicJM03FnFNJha\r\nlzQ7/6U0zCJRNQDCxDR0Nqw0qHV7NJjWPDUnubc0U1LINMpc7jRqYJI0YWaQNcm4hjXb0Jw0hP90\r\nNceADDUAZkc1+EjbNGgPWDUeyp00qSTeNGsE9TSKbpA058LwNHrZ7zRYDq402ao/NX5ggDXYChc1\r\nO2avNC6ZlTTPnmA0pGHmNGbfxDTfyFc1UEk4NTgr9TQv2pA06PgGNZkuAzX59B81rfriNORzBDWZ\r\n/540lvhKNVnYiDSn8O80+kSgNH0ABTUOwUs15kvGNIhEizSKShA1VM1/NMZDJjUl/6A04mYfNdzB\r\nLDU0dxk1TuvHNKkEITUCmz41r9AENAokLjSoBWQ1o8UNNSSVYTQENK80rXpqNdRs6zR4dsM0vEXa\r\nNIH+sDSL16Y0JXWQNDrYCzUTHN803nYhNbXSNjWSvsk0mgYrNf7nBjX//y01GhNdNLq+KDXwCxI1\r\nkjnMNP0U9zQsNfc00MAWNRlSETVOEh81TRoQNZZWljQqHxE1iEKgNMSM6jSGCpg0FZMMNaEp4jQ7\r\nVFI16U+4NHuiCjU66w81l7xcNAaYoTRxdoY07uOtNADyDjWYoww1cFoINbwPhjSAh4s1cZz3NOyr\r\nuDSDXTI1vis3NY2ZmzSFLLA0K96/NGCqKzUpW600kcCaNMoauzTP9zk1D2WOND2TBDUqaxw1WgHN\r\nNLnrADWfxQ813IHyNDBLzjSpulI0NuQ/NVOYqDQ0bSs1ZFr0NJeLDjVHGhw1AAAQNQ==",
                            "noiseTrainingType" : "default"
                          }
                        }
                    ],
                    "start" : 15300,
                    "duration" : 4125,
                    "mediaStart" : 0,
                    "mediaDuration" : 4125,
                    "scalar" : 1,
                    "metadata" : {
                      "WinSubProjectDisplayName" : "",
                      "clipSpeedAttribute" : false
                    },
                    "animationTracks" : {

                    }
                  },
                  {
                    "id" : 121,
                    "_type" : "AMFile",
                    "src" : 17,
                    "trackNumber" : 0,
                    "attributes" : {
                      "ident" : "section-12",
                      "sampleRate" : 44100,
                      "bitDepth" : 16,
                      "gain" : 1.0,
                      "mixToMono" : false
                    },
                      "channelNumber" : "0,1",
                    "effects" : [
                        {
                          "effectName" : "WinCompression",
                          "parameters" : {
                            "attack" : 0.0,
                            "gain" : 9.0,
                            "preset" : 1,
                            "ratio" : 10.0,
                            "release" : 3500.0,
                            "threshold" : -20.0
                          }
                        },
                        {
                          "effectName" : "NoiseReduction",
                          "parameters" : {
                            "denoiserAmount" : 20.0,
                            "denoiserThreshold" : 0.0,
                            "noiseProfile" : "0/RQQKfn0D5je7A/xlIYPxAgBj+Yhik/G2V+Ppw4vD0VSGI9rXeLPdd/kzx6M7g8pU+jPLDGRzye\r\nwM47YzgWPJCbGjx+1u87croNPFBE0Tslm5E7Yc9AO4rAqTvCpZs7LqQdPFaUfTu2oBE8dqZjO4aG\r\n0TsE4rk7WNcRO1ScCzuD5Q07CDPeOknb4TpnWEk6hC7xOlFRrzk0qAo6wx6gOV/UXjoISZo6WK8I\r\nO4Pu4DkaoY86YaKrOay6AjuqMQw6pvdgOhgcxjn2AYs6qGtwOpjYNjpwPrA5BuakOfLTKDopY4Q5\r\n6eXXOWD2RjozWwo6CkROOcQ5wDn2IGU5LGrIOfK/qTl6JMs5s+1uOobs7zlczmI5Wqz5OTF/Hjpx\r\nF5c5kij3OTyQ9DnFgVY6Y2EtOsp2RzpvrAM6OYGKOVBW5TnnfZE5FBYhOvjjEjv0f4I5jIjtOhDy\r\n/DrAV9o6og2fOmuajDqc7Zo5/66rOJ6LAzoixdg5HLjNOQCF2znTHQw6eBQLOou/LTm+C9s44Jad\r\nOc+XZzkAjFw5KKvcOYbLjzlenqE5PmlGOSTHujnxoLQ5lcuCOTaM+jgKiNQ4rbM0OfWbrjl4seQ5\r\n7lGQOVdLqTn1I6A5N0mKOaKD5TkjP/o5EpbJOftvmDlciMY4CzAOOV9TdTnUbJg4mfleOYdUaThO\r\n/dc4aOs9OXQSeDnSI0E5qMKMOc5XHDlO9Qw5oDklOHOtszcwke04CKxPOGjZYThAGys5LJnPOMCx\r\nezjHb6c4cO7jOEmGHjm85Y04ASCWOMHQgTjwKZU4WeYrOUrFKzkVcJ44ZJysODpVyTi6FGI40AB9\r\nOIC7nDhfJgc5byoqOVTdjzjxmiE4jlu6OKIV2zgzitE43MZkOZrcLjlSkwo5SlB3OBzorDh2l7g4\r\nYPd9Oaf63ziKOyM5P4AYOc6UxzgfqQs5X5MXOcZ+zjj03ig4LPraOIF8Kjhqt6M5hir0OO6ODDkI\r\nrSU5ZU6POJJW8Dht53U4SFlwOI7PnziyypA4vaFpOOk6AzmiPx85YqKGOHoHWTjRmsE4Se2BOBce\r\nLTj8ke83RKgtOHDccjhsOr848vUhODTVCDjqfzs4sk2ROGzn2jeeFqQ47WzxN2SaZzhAi7Q3lK5u\r\nOHI9AjjoJRI4oPiKOBSawzgAdWI45rEnOIaS0zcAJFg4daCPOI9iWjia8144I3WVOMWEejg8aFA4\r\nTaEDOBHWqDdbBUw4CpsFOD1GADiWRdo3TpMdOMjdADgwjyg4pcUFONn3FDgerR44SO6JOJrbGzgY\r\nvRk4cYm1Nx4NRThBZ0Y40bwTOIHiODjgWvQ3sR6fN5AlgTg5n7k38JHUN36qJjgaoFk4DQIlOHRl\r\noTh3MuE3KBMrOBS+kTeiZmI4wicjOMbk9jfNtn43ckb2N1T0uDcTBbs3IRWSNwayCThluog4bGIX\r\nOOynQTgy9FY4VXpLODO2ATjMRis4V7W1OLkxEzgGzSc4KEh7N7NMkji9YAI4HriDOLORYzj++hA4\r\nO2KxN1VoKzeGWSA4dM8HOCeioDcYSNk30tkjONfMrjegLWU41dADOAztAThYwHs4HsOMN12ojjhk\r\nwqY3MD5iNzm2Czih/JU4uVZBOECNAzg3eZk3euQ3OE85tzcVdxY4R4aJOMt0xzfVLA44AVuIN6KW\r\nxTdSmqo3NGl6OAueMjgOhfw3M23xN2rPAzgM9D84GWYHOAe57zeGPQY4eDX7N5b5ETjnB7w3FsCD\r\nN2ZhyTf+FxI4GmPqN/SMwzcXcCs31G1IOPbutTdHPgg4BON4N4IiJjgFavE32ffQN85ejjexp4I3\r\n3vzJN/Z00zce7VU3aqgLONJJqjc02c039bP3N/Zm8jfzOYQ45BEEOMOh/zchvfg3dG80OKMCBjji\r\n/Mo34lBaOBacwzeetMw3aA8FODZ8EzjW7Cc4uPmBNx6Y7zcID6w38tXKN272hTd8b884RA38N2+1\r\nrDdpxNg3LP37N7+Uzzcz7KU3mlaoN3iUwTcBadU3mUr2NyvdszdSldM3PeHCN8AhoDg+sUI4nL77\r\nN4KaAzg2yvM3y3JGN1ufrjdFtME3LDzIOCvJUDh0/9E3rrU5OPkjQjiOz3M3GGLpN3tstzfJxrQ3\r\nRMXMN/1XlTfduMQ3TgX9N2jaDDi4HVs4ZNPjNxRHszerBUA4DPUpOMl7ajcVnXg450ZNOAY96jeH\r\n7cM3vNfENzB7+DcKHSQ4yLG6Nw41Gzj1gkg47mwoOAI17DdmVik4VUkGOOkmrTdJdm83f+SpNxzl\r\nVjefGMQ3DTSpN+58wjeE4yA4Ar0HOAs5vjeyMkg4OsQvOCUcpzc1OLk3+iE/OCS8ozcUEfQ3iEP7\r\nN8majDcf8bk3/h1HOBb2hjgaUMY3uLXqN7TaRDiebOM3RT4+OCmnGTham9c3aanWN1BebjcPnN83\r\n/7P5N+gUtTeOYyM4KpGINyKhgDcKvOQ3e9EyOEpKKDiJjMA3TuKPODQFBDg2XLQ3LYexN6hbOzc3\r\nko83Rk8QOFIJADgIA2Y37OK/N4UdkzfB9P43mnNROODquzcKSvQ3ppmdN1rK8jf8uqc3vPMsOHOT\r\n9Tekrj43emdHNxAohzjg2BY4uoqeN9mfNjgDyrI3wgQ7OBz4AjjK5uA3Xa4ROKt89DfQCUs4nKOq\r\nN5feLjd6FMM3tyGgN+XmiTc8xNA3+W8pN2nQ3TdC2tI3JNk1OAlhKzhkTr833CH5N/gB2jcAKgk4\r\nsoZVN393GTgohAc4yFUFOHFdCTgEEyI4ghVLOJ3LpTdvpZo3UobFN9677TdVn8w39/gsOPACKji5\r\nyU44JI1SN7oCADgWsR046qmcNxjBBzhi/mo3b0gbOEjltzcUFWw4hBaZN5pgDjiWJjk4acIKOGus\r\nnjeJqFc4tMLsN3x6pTdPG7Y3ITc8OMIlfzhMk4k3IBjWN3glKzjc7Vs4lBibNxhFBDjICyQ4Es5+\r\nN3K4oje7Buw3wAe3N9CyCDjk/Cc4D5nhN0Drrzdc1+430x0KOKfjHTgWzKw3UqsCOHq/CzhcYsA3\r\n9a8uOIebCTgMIT43IbLxN0bOojdUOr83p2WON7ZE8zVKLEA1OqZ2Nc4viTWlCcE1izADNgdjWTUf\r\nQYE1HBayNQRAXzW6I0Q1aoszNVHzVzVepr01neJsNaqP2zX3x4o1Zbt/NcyjjDXRMPE1FLtNNf3K\r\nizUzUj41nfBTNb88NjUE4qs1i5aaNa6ulzVOrIU1FnVKNlF9hzUaW541ujLENT51wDUy1Cw1SoqV\r\nNaCgPjXnBO81a1E3Ndb8hDVKkY010rt2Nc/ZKDZ8A+w14ZReNYORLDXs5e41rW6xNd5mTTUkJfs1\r\nltuANVkdOTa8/Ig1rBx3NRC0wDWoKCQ1TjXWNaY4ajXbfr81rSrWNYBY3TXYPy41cq2rNYUUxjWh\r\nP481kMF9NexuoDUnoks18klaNfvCdTX2vqU1GhtmNSbqqjVAm441AxiaNeW7/DUqK3I1ZZjENRNy\r\nZjUXia41pzqZNVbBTzXs7XU16sGBNfAurjUC1p41zzGlNeYh5jVHrCc1igSWNUZLnDWG7QU2Fr2P\r\nNQ4KzjVdzbk1w5HKNWvUgDW8FFE1xAW5NYJcBjbuI4g19BZjNXdQ1jXthhY1FEadNdoSwjX4FkM1\r\n5id1NXyxiTUxOoE1jboQNWeOhjVErFY1Dy6YNd23jzWcZp41CiBONZw+mTWFwIc1hUUKNpzzoTXp\r\nMCQ1AqiENZBopDUa1II01k3JNez2LjWDXJI1cCVYNRCQaDVQNJE1+35QNVgKizWTiJ01Zk90NQK7\r\n2jVsJ9o1xGPgNCkVJDXBVQc2KVPdNVbLZTXDDoY1eOd4NR619TV5zzI1MN0FNl6nIzWmizA1dwbH\r\nNZ6ODjVJ5Qw1fUKfNVsxgzX/Ek81dPAQNaE3JTUgf0E1cgGFNSxkxzUdMFo1yiX5NC4QRTUeWpQ1\r\nVkosNft4nTU+kNo1GuhkNXwohjXlM9g1iuSvNY91FjVCJG01b9GtNfvNETV/N8k1cdoLNRgsADan\r\nYTg1ypGiNRmUPDXnS+A1MKtqNRscQzXp0UY15935NfAF8TQ+Lms13DOCNcoCfjW5Wlc1zcUmNWNe\r\nNzVKjzs1QfJKNbcSpDVaWTo1mmo4NbqVZzXhGys1lvkmNcQXYDX5pWc1PZXUNXTstDX3GRA1e5Bi\r\nNY78fjUJqLQ1ltyJNQ38oDUcJTU1nTCTNbJLpDXR9Mw0OtsENaHwmjXRU7Q1rSvHNdmNjDVcNJ81\r\ngmmmNWApTjXuf4g1coFSNViFvjXIXps0+J4XNQW7NTXcezk1akEjNd5YkDXycY81QdElNsQokDXh\r\nLlk1GCqBNRf+pTXcEoo1daOzNfgxgzXKu181C8ZwNdJDNTWuR401OZBONRkITTWl4rE1AuK/NX+/\r\n7TXw5TI1fTDXNL5AUzXj6q00P7WlNYWGCDYCB3k1WyORNbpxSTVWRiM1pzDdNOG3kTWT9rs1BsWG\r\nNYOqVTXy3CE1B3JANWy3XzXJqrQ1FcOHNSujsTVbvVU1lgdONRRjsDW2+N80FgPmNOQdvDV4Uoc1\r\nOel/NUSwYzVjcXk1peHBNdVPJTWte7o1uQ42NUotijXICYI1IrvCNQhXgjUZAtY1yDJWNXNLOjVa\r\nEY01jBL3NETQbTVsN7A16m8QNcFeQzW0XHA1LcRSNbuZbTUvGFw1HwO4NYvImzVWlXk1gSNlNZrA\r\n5zVlWUs1o26DNU5ShDW8U+E13qqFNcS+LzXXBQ81ohCBNXxDhzQIwLQ0JtvdNTEBizVOQA01Ihe5\r\nNKvC3zXCjto0uJEFNuhRpTU/qZI1tLVfNf/hgDU4VVs1HSa5NbZZnDX3Ww42JrY7NazddzXpyP40\r\n0yNENfUyEDUpWr01EdZXNbB2ozUgRGA1dKcWNVI+NzWjpnw1MC87NZ23FjXGU1E1mIayNUrmETVi\r\nsdQ10KQkNVY0QTVGres0rtWFNd07WTXXoWo17+MRNYNJIzUUTmQ1+9O+NSTBoDVQKmg1Gpp0NZue\r\nNzXnGYs1P0ACNYOyjDXe3RU1MTFcNdmFjzXS8Sw1FySINccRPTWIh6Q1m2Z6NcGhcTXaWv81q+q/\r\nNODisDRnMDg1l4RxNbr3nTWx6qE1JwiQNdbORTUs2JQ1UUBlNQpi2TUf/5A1v3qLNSkjlDVy2G41\r\ntiehNWzL2TWwBTs1YubwNU6+XDWvXxc16WdINe+oKjXG3S81hErSNfcwcjVuARs1Kz6fNbsQHjZa\r\nJp01U4FpNR4zojVMsqA1LCoWNUJisDWdUOI0eCugNU0JoDXQWyk1UOVBNckglDUKnj41qM0sNWiW\r\nCDWIJQc1IzBbNfCynTUkTYY156BdNb9WyDU5pME13nm5NMM8vzU10ok1iCoNNmSMbjU4IMY16Zce\r\nNbT1cTVnfgY1mBBdNVURzTUg83c1BzIINRH30TWctBw1HP3oNLkJCDXS/dE0F19PNQAAEDU/zT1A\r\njyQxPhYB9zyOaik83GPDO1Xenzt08aI6Qw4NO24hqDroZLQ64dNEO5cvqzpgra86VqCOOjBZhjns\r\n4dw5nBUeOsgWCzpGIGI6mreSOVKj2Tn4a4o50PjjOYT/tDkBJkA5mm+aOaJsfDkjcgg5GCxkObeB\r\nHzn0OMI5OmJ+OTNzAjnw+1Y5FFAeOUjyUznDZA45ai+vOFNRFznaDyE5Zj2uOeJopTiKkdg45fQQ\r\nOdMDuzi98is5JpNGOa34sTj478441afUOCddiDgqppU4ewa5OF5pDTmaFbs46QzzOBmhgThUwMQ4\r\nqkcaOcwCGTnDUrU40N0BOUljxDh+Olw5lmZiOcK+ojiAsa84InPtOI2ZiDjd4s04YsCSOJ3oQTha\r\njLY4b0NuOLvSOzndAtQ4+s6nOLFXgzjuv+I4w4kEOYbsqDir7eU41HXlOLdIODm29lM5MZg6OYIx\r\nhzgB9gc5fZYrOV8qBTlLaZY4oVDAOfICPTkFfYI57hsbOQSfUzl/3Js5WCxuOGupMzl03AE5XP5t\r\nOL7yUDgmbYI4FSBMODHeLzjCZjs5e0PLOPuFgzhUS8c4Jjy3OIwNrTgN/Mg3itAJOIuelDiA8Go4\r\nM7BcON6jxjgo6B8598LoOFl1SzhJTQk5XiSWOFf4GzlJiZA4dHuVOA5gujho3bQ41NOEOLS9aTgt\r\njiY5/M5DOFqSqTjs1mI4YUWcOPRSKDhyH6U4/55LOLHE6zcQkvc3qWcBOAN8Qzgk8zs4zZoNOXvS\r\nMThHOQk4vj0AOL/aFDjQXoI4XTIROOdkpziYxA85DbxeOKbEDjnqeBg4OOHWODgglzhLfgM59RJ4\r\nOIyqlDjkCSA4FSq9OIXODDhfKTs4u1B8OOH2qjg7EaE4GLSUOPdGADgGI6s45b+JN1wBXTiAKLs4\r\nyyFFOC8mbThLB2k4O22mOEUGeDj47gk4iKxsOGmjLjjWsCs4DlJHOMAJdzjwdgo4pgg5ODZIpjeW\r\nNWo45EjyNxKgGjix4iw4cIMJOPMQWDgMExU4VfW7N3wvPThS3qM4ytY/OBdEOjhQdNE3bTcMOARv\r\nNDi5VQg4r/09OJw2YDiccqA3jbw9OB7GjzgLtyA4rQstOCCSTzig8K43gnvSN76TSDh3wCU4Hp8P\r\nOD/Lfzfjxr83QCyPN6Wi6zcgjho4HghnOHjB2jfU5ME3KvMmOIEYNTiWmnU3RtcWOHqf9DdIHyc4\r\no0P2Nz+OXTi4AyU4SXTSNw6fHThc07M3QfMCOBG0IjiKRcA3yNFmOIx+3jc8Gwc4pfI6OIowuzfU\r\nj403RaKpN1Ul1zcoFeA3WQ+3N2qr4zeW1uA35jWeN2WdBzjqj5Y3Xk2JNxLprjck6zE4X57kN5n+\r\n5TfIPXo3QYydN3oi6jeT1BM4z1w7N1OFCDjGvCc4oSD6N6O7MjgsMYo3wU0tOBwwqjf2Ivw3c433\r\nN6r6uzdbp5k34P4TOHFP8jdaAag3EU8ZOHFX8jcFwxE4P1DvNx99VDjFMbY36MP9Nwv7yzfPOxA4\r\nZTU0OEFurzdShr438FuWOJDatjf59Lk3yYM3OB/tZzhjrMA3iIaNOOa/Fzg/2T04BVADOI6i7zfj\r\niuY3nKweOCe3eTcQ07U3yXMSOKXfETjh8f43h1rmN/63hzefxL038LeFOLKXlzfvZMI3afN1OJkW\r\ncjgmARQ45+8KOGLFvjc6RMQ3PjQNODxE3jery0I4MdcCOLSYijdmETg4mdghOKB4cjd25JM3mjVQ\r\nN1Yk1zft4So4OonQNyZE2jcihAM49YdBNwEjbjdO7c83DNHLN1Pd5jakFGM3BDf5N+hSGzidqrI3\r\nWIuzN1lHhDg08cM3Mfk/Nz+YEzicuYs3SH+hN9B8zjeCT2c3wp42OJG01Dehwgk4S/y7N/bqATg1\r\nOJE3VqrEN226AThYYhI4MOo2OAeknTe8p8g39QnQN21lzDei2Dk403zLN5G8wjcPTvY35MojOF1w\r\nujcokcg3aZg8N3USozcQcj436NbeN0RVBDg8YyU4Nqe9N+sWpzfHko03YL58N9CvijjYd2A4ig+h\r\nNzNSaTiTAgI4IwUrOBB5szch5V84j8fEN3CbuDfG6Zg3z1bJN+2vJjgRrOQ376D4Ny8cHTjga543\r\nHD6ON12YZTinsKU3ipSeN5YBVjgEMb03sPuXOK1PADi0fSA4xn0cOIFkyjdC2eg3McF8OGpgpTf0\r\ngwM4M136N211YjggnAI4Evk+ODl0bjhIdtA3Zt/nN65nwzcZDVg39Xx2OIGQkDdoO4A4A0cyOJfI\r\n4Df6Q183SKUOOBwKpjcKP344wzICOKUW4jchHSY4OurxNyxgEzjTUGE3TvskOCqE7zfAfM03SdTW\r\nN5QRwTeArJI3LHeXN2ihWTh7q9k3jHtwN40ovzfir+Q3G9sAOOwIoTftx3w3Zhq6N8jLHjjy/Fo3\r\nTi8kOP0jNjg7FuQ3j2uXOLgg9TeJFPM3Uf9QNyCf1DeSoKY3QlNdONEamzcVI0A4Zm+fNw4yhjdo\r\nBSU3vnkyODsA8TfAfzk4z2jDN+pW7TdAfLc3IzO+N57NuzdEoJk32Cm3N71Nczc9nAE4Jm/bN9Dk\r\nEDgsjFQ4w/ScN6JG+Tcr7JU3k72sN1or5TermbA31uwxOIT1gzckqQI42tMQODZQrDcRIMQ3Ft+C\r\nNwLyxjeZoNc3Ra/HN3vdIDj1D8M3z4ETOCOdUzhwFAQ4e7aZN84G7DdQZeQ3BtDkNwAI/DcPfTY4\r\nWmGWN4MFPzd1dCU4ftGgN9LSLDj85/Q3lGrvN6+WFzjyvgE4NXK0N2KBxDcYwKU3kiemN95hOjjY\r\nkM43PAVKOKgwOzfpJUU46xEBONO5NjhoOBA40Lj6NzAcXTh9pM03mSa7N/kNhjf/KA84pW03OCth\r\n6DcD1ZM3F3m7N8ACPTh9Qe034RPcN4CbwjdUUWI3D8bvN8w1rzexN803sOfwN67qfjfa32k39B21\r\nN0TV7TeykOI3DKYgOHtgAThUcmo3jEMBONLXtzcR0xA47s61Nx/yhzf04h43Ql8MOJelCDiSGsQ3\r\nQ0LmN3CX4TeiARM4PLAnOOBQjzcM/C04vaB4Ni3iXzWwgzg1bC0/NZaqTDVGqjQ13MkGNY5W5DRw\r\nF1k1r58MNZaLWjUSUAw1JnfbNORoFzVwxWo1RD10NdR6TTXIV5Q1oNMpNXmizTR259E04KI7NQX8\r\n0zRqPFE11+ITNUydrTVp1Eo1XXowNRpiwDR9H281xM8uNW6a6jT08g01c2hRNaex6TS5KTs1+scU\r\nNAB4CDUUGcE0rYOHNK/tLjVaQUM1IKFQNXK35jQS0f00eozTNMeYVTVK6Wc1am60NMBT1jTAyOM0\r\n8carNVeFzTQRoIA1zI+2NI5GHjXENjo1Rw3xNNKANzVWs2k1E68zNS/cGzVWwkc1dGJrNUY57jSu\r\nYPM0mTwcNRxCqDXkKrY0JHAyNVJuADVchK00ap8ZNWdjqzVhzlQ1UYWmNML0IDWQPg01EjycNFyZ\r\n+zQ6U7k0+zcJNbSsNDWj6e80pi1vNAqnRzWCRRk1cOI2NUJb7zTi+yo1qunmNC1WnDQKkYQ1G+cJ\r\nNQqlmzX/9D81Si/BNPb3HzXgkQ41BfjQNIW01DRMRec0RHsKNcpAZjUXIbw0EP+XNa1dHzWLhg81\r\nUtS1NGVU+jShntM0S5jlNDfNOzWr+Ig1kJceNTkyCDUC59c0z66WNVlP9jQaCDc17abLNByJFjV/\r\n5+E0E9v8NEQzqDRG3d00koIxNfugWTWSRDY0FeaLNBxEBDXyZPE0gKaXNJnSMDUG8BE1rfk8Ncqi\r\nNTXPZeE02V32NJBYGTUUvFs1MRUzNZN1ADWuLWU1g0kWNTT7cDWqHBM1iWU3NVC0mjQKcIE1SzC1\r\nNF9z8TQq5hM1y1QVNVB5AjUXMek0FXIYNbK1yTTBpgM1CQB4NRtI2TSoIH81+QGMNJq/uDTQzpc0\r\n8K0VNcP8VjUGJjQ1ekE5NWmT4zR9F7s0qGGvNGFxszQ1OAQ1/iEINQq1sjQa3i81U1R4NbQotzTC\r\nBK405BGYNGSlMjXbznI1u3e3NAgf/TQpjqk02iOyNFTgkDUEqRE1mNMdNa4ChzS0md80OhbfNIk+\r\nojREq/A0rwFeNaJNbTQM1Qc16xz6NKuaDzX4HuA0vrGaNEmlHDVuDrs0xD1yNWpaIjXbkxc1Tkjt\r\nNB8XOjX3/sE0W4bzNKsV8DSzTfA0GK57NBz8zzTbwdo0Eg8SNVIlmzTPEcg0FF/lNNgavjSCphY1\r\n08jMNK8ShDUJQAM17LpJNZ8VhDQ2pGE1KSosNYBQEzXzKI00pvIDNS6pKTXm0Sg19vIONWkosDWq\r\nTxA1VOozNQM/rDRtD6M06M74NFxx4TRaRKE0QmKlNCpDxTTFmSU1LyYMNZ/2FDWZIMQ0O48nNZc3\r\nNDUeWxc13rTXNPRRQDV2pSg1LRcDNSW95zTKSxw1RsnoNIAdAzWs7Go0U/YtNTVuuTSKrAQ1a4Ip\r\nNfMVDTU42f40tlHrNDxibTWJCCc1xPuDNIu5ADUNGC01+2rcNCDbADUK+2w1wGuvNJH+NjVScbQ0\r\nYgKJNNBfHDWWEKQ0pd4SNbBNsDQWsWY0VsYxNU35ADUKNAc1yePJNEDoZzWDFsM0YK7rNIEsujRN\r\nWUY1pLKNNNz9qjSzu7M0ov8FNYWLsjSYZ8k0ggBANb+ADjUUBpA0dSM9NX+fADUzBbI0qE6bNHZe\r\nVjUU4lg1nHa8NLlExjTOspE0LALSNH1r4jQs49w0YefzNESdPDWczBY1wH4FNUTsHzUpVL80oSWx\r\nNHrwqTSKDYQ0zknoNEuQ2TRyRvo05ra6NJT/ODVQEnQ13serNN8zFDXJSfk0zuqxNKqr4zRuZi81\r\n8H0cNVpqpjXL/880DTklNLZCkzRCV2g1zFw/NdS+PzWbBKg0XfcoNZthyzTTzh01apoFNYxotjRM\r\n8jM1QFLUNEf1ATVK1cY0sJY0NZcHGzUD07A0G6gtNSqNATXRA/00H3drNISAZTSm9sI0hiTSNDbq\r\nxjQVNPM0rwbzNPkPFDXlKRc18K0ANVUPtjS8Z6Q0tLL3NPzgMjWBPwY1K58aNb0eDjUqrtU0f+Qw\r\nNUs/bzUcp580B2wZNfB1eDS1DOk0JmqjNIXkTzVuY7k0fIK8NOo9UjV9Bs40lHHhNA8rEzWC1600\r\nIWe/NCYvsTRqLvI0aqMQNUgopDT7XDU1lDwGNUtV1zT1yr81RoD6NNyidDQoDiU1ixT0NLLGpjRE\r\no5w0BQwGNfv/6TTPPh419aYjNQnm2DTUGwE1JQwTNZ6v0DRcYBM12SWWNJRdGzTAox81YRI5NRdB\r\nnjTqHQc1LF4qNSO08jTem5E03vhINUzXgTRwBu40pGfmNJ+eIjW+oy81zBAMNcgYnzQ+T800cvkk\r\nNYCmAjUWpCs0mcjPNOg71jRDetU0exerNCyxBTUqq2Y1kAK5NE3NPTV3Hx41AEAENQ==",
                            "noiseTrainingType" : "default"
                          }
                        }
                    ],
                    "start" : 19428,
                    "duration" : 2721,
                    "mediaStart" : 0,
                    "mediaDuration" : 2721,
                    "scalar" : 1,
                    "metadata" : {
                      "WinSubProjectDisplayName" : "",
                      "clipSpeedAttribute" : false
                    },
                    "animationTracks" : {

                    }
                  },
                  {
                    "id" : 122,
                    "_type" : "AMFile",
                    "src" : 18,
                    "trackNumber" : 0,
                    "attributes" : {
                      "ident" : "section-13",
                      "sampleRate" : 44100,
                      "bitDepth" : 16,
                      "gain" : 1.0,
                      "mixToMono" : false
                    },
                      "channelNumber" : "0,1",
                    "effects" : [
                        {
                          "effectName" : "WinCompression",
                          "parameters" : {
                            "attack" : 0.0,
                            "gain" : 9.0,
                            "preset" : 1,
                            "ratio" : 10.0,
                            "release" : 3500.0,
                            "threshold" : -20.0
                          }
                        },
                        {
                          "effectName" : "NoiseReduction",
                          "parameters" : {
                            "denoiserAmount" : 20.0,
                            "denoiserThreshold" : 0.0,
                            "noiseProfile" : "0+owQEqqcUA1VE1AuJ8aQYNvdUB1/69BBAyUQhDGHkMs0TVFtzHnRLJyN0OBaoBCsf+oQu9GoUKe\r\nBppCb1GjQlYtjkQi5aNEvTO0QlzxgEGypYBAS/zLQEpE+T8pgdxBi1z1QWQTfEOiK1lAVl1wQCDQ\r\nvT/iXxpAZNuSP9wzVkDkqLhAi45OQgvM9EF88hlAkJIEP3dgPz5ctn0+VpfCPhVFlj4LtqI+Ihce\r\nQCpoPT4habk9aoXfPBQOqT0OIXk+THCgPmQffD4UabA/dKZFPTikSj1aNoQ9QipLPRjmkDzUssw6\r\nQLmNPCpVqz5FV5Q+hLeSPSOykD1m7lo9XqplPb6GeD0ciLo9pqaDPnuSyj6U+SQ9KwlmPMLjlDwd\r\n/t075uhAPFhuzjzE4iU9fhcCPxzjeD3QDoc94eyXPRnciz063cg9paKDPT74pT6ipqA/xL5IP+6l\r\nAD5Ps309jqEdPduvDj6SEnM+LZMPP/eXnT/Bxb9ABx87P1ZehD68jgA+dW9RPpkMjz7AH9c/VuS1\r\nQXfeGUKHqA4/SFmhPyxI+j6ZEvg+2gOQPowoaT/xYhlBNECMQfq1O0D8ZV4/35xePuZMUz7VmvM+\r\n1AMbP+N6ED9gjflAHFHZQIfKFT/YJI0+0wggPp1KCz/eguw+FXryPicOPEGFlcRB4ExaQMrmyD+W\r\nQ7M+JIr8PiheUD5dbjU/RpymQCWGOkEC+rs/YDE9P21AUz0K2w8+zrQRPS2bVT6idSo/IHVbQHB/\r\nxj8KcWI+ux9wPYxW9jxVoVo9IRqIPW4xVj4A2pA/42U2P/LrnD626nk+1CkFPd93Tz3Mq0E8DWWQ\r\nPWwAND8hC7Y/6j2YPr95/TzPxpg8hrLPPEZnETyfEOA85j2VPhkgoz9XSSI/HMguPlr6zD1FFFM8\r\n0pJ1PfcMdT3POe4+7gcmQJSzuD8GJAM/JbSWPkRB+j21xvY9Pa8MPXD1jD3zGkFAt9CnQMgITkCu\r\nzds+70JqPsdIRj7okIE9U6wpPkzc1z9gvbxAavNPQF86oD/yJDQ//orMPTWcNj6MvII9YDD5PV3r\r\nkz8fgEM/wMcvP2RTSj7nL6A9BohTPYwKujxNp1M8z1HHPQd4XT1GK349YZ+ePeiZMjx17jk7CoOG\r\nO1FZjzvQuxQ9sAIjPR6S4jw0T/07OFNSPBC+ODzwXLE7dRa4O6LcODvaYHw7BbURPC/Snjwudmk8\r\nOYy7O5FwXjs57Z47iSqYOkLmgDwKmrE8IGYwPX0Cej3DvH88du9xO8BcDjzxw809BnlqPsj9uz5L\r\nCC0+EErvPFwfET7KJm08uha/O8Y7KT2v4608TVfMPODH3zytQPE8KSubPUTITTyyTA885fnqO91u\r\nUDwQMbA8zaoMPSAZsjs9QZY7quGjOwPYezs2OZg6DkCIOuO6MTtU8XU7Tjl4OyfY7zqrAgw7UxsX\r\nOjx1QjpJLFk6azLMOcMapzqks9Y6rVL1OpG5xjpGXN459XwwORX0mzry3gU791kEO5v3KzoiDDI5\r\n7dAhORPjFzqb80o5kmqkOG6ycjmZc9c5rk+fORwGTTgRXoA5MVsuOtpQ7zm8GaQ5YCS2ORwK6Tk1\r\nbAc65Oy1OS0CXjk1hyM54InKOe8Flzmyo+U5waCxOYOTmDmvgsc5Voa2OSZY2TkqDA46eBzOOeAk\r\n2Tl/e545M0TMOmxakzmcGtc56glwOTATLjoF05s5slpJOnlmjDoLksY5nCeyOg5rrTrAlyw7UmF0\r\nO6Ez/TpWCSk6lHlXOm3uuzqVypQ73iv+OkiDvzqBZfw6LbkZO1k+vDrD9+I5aCVAOnpPIDoMOIU6\r\ngC6IOrMbhDsdSJw65ETpOSdD6jmrB106+MgFO2xMGDsYIPc7/DjcOgxMVjtS5BY79KTgOruolDlC\r\nQIM7qZBuOhqdDzuRo5I7UaBEO46sezq+Wc86TIraOj3CvzpDBCg79/0eO6UmpTsHiEE6rb/9O7wQ\r\nKTtGiUM7vh7sOq8kAzz2XAs8GgEvO5dVgzt+kOk7FunQO/RQGDudI6U7Y0vQOvJawTvCwqg6u5U5\r\nO450Mzx6lV07/Ev9O8mdCzst+F08Px22O5hqMjqAHSo8uKNlOpK/aDsetus7uqBQO2bwnDv4MKc7\r\n9HO1OumgXDyoOiI7O9UwPP5erTuceSk83dGJO3uW9DuMOXg7jlsmPGfprjzdjg879bt0O2bKpjrg\r\nS4I8uDGQO+mWjjuHLp88a6hoPLTbuTvDGwc8J7KGPLP5jzxP6RA81N0IPMjqWzuiIIY80GlcO/81\r\nUzw/p7A72Tw/PT9eoDs1YYA7u4gYO6gNCTwNSxY7OgUEO5wdZDoKYn48gf4dPK/CTTtkuy87AfTi\r\nOgT6wDu1kic7TmPBO4ifLDzXq6I8QUdQO35O3TsbGAw6NkMoPF9QDzpMXq47ubMHO0yh9jv1VzE8\r\njIeXO/ZTrjpA/Cg8QZNIO4njizt8VU07QSJDPL5kVjw89f07nagEO/jzLjxbJbM7bvC1OVpF9joI\r\nDSI6IbNKOz7dAzwQtEU7UkX2OtTyBTx70ZA6uFUDO6N9/zqgKrk4jWbUOgQmITvYy1M7p8nkO0Kk\r\nUTocqIc63h5FOoyu1DpCINw6gatJO8IGLDvtNgU79M7PO7ZWYDrjjQI7KF6NOukQpjsyoVk6X6Gl\r\nO7ufgjueYMU69mnYOs3RQTtgbbg6h8AhOyx+wjq4eXs6QCcwO12s7zomkjs60IXZOproKjqkmBQ7\r\nAC8VPJaHrjqVkGI7ZgK9OqjQFju3ioA7ESg8OtndAztq7t06NuMVO9mREjuommY7SGUkO0xjzDp4\r\n3H86Ry7EOUVOojpuukA7HTf8OvstTzsOQY07dvImO3IPBDu4xwA7eNvIOizVaTo6baY6Ui1mOl8g\r\nXjonkLg6rfUrOupTUjor32g50j/gOW/WmTo4lNE6KH92OqKy+jn1XBU6VR34OY8RqzkwVlE5DfSQ\r\nOk5LOzo/qKA4H0EQObZbijlz46w5CuVbOZy1tDjCju45nqWyOfDMrjlyyp05SiaxOe+88Di+JKQ5\r\n9jz/OOwNVTmqZhc6staGOVQ9zDidLBg5RJyAOQAKKzk2rZ44WZOHOajqBjp0QRg67K7YOWsxvjkj\r\nkLY5O6mAOU631Dhqh2k5mIYdOUMEFDn/fps4g70NOFdL8jgeGzk56/0gOR+EFDkO8ys5OytnOXrh\r\ngzl8TrA5VPS+OQSaljldzx05wcILOfLXQTkzYqM5Ctt2OQdHRjmKqnI4qXSuOEKUsjg0tHA4wuXP\r\nOICvIDmWMFQ5J26VOTgrpznw6ZM53AWLOQZyezlp4Vg5jVsrOVSpkjkQ6vk4FxpmOMEmKzj+tcU4\r\noi2UOB6EKzkoBA0557QIOgtUqjn3J1o53z18ObMX0DmSUQI6PqnGObd/PzmcLkY5XhoSOaQhMTnH\r\nLR05iTnXOFrdbjn8ZvI4g61WOcmbQzmKZZE5wBclOSg3FDlAYgw548ofOQgwIzmlMQs5yo4DOc17\r\nCjnjTAg59s0QORE1CzlE+fU4lrwLOaC8BjkCKxU5NukKOUltBznf9g055R8COfyLDjmcZgA5ZC8G\r\nOUqNAzmYTQQ5CHoGObda7zgYlvA4AnH1OAhJ/DhKuAM5ez4AOchW+jgUOv44ZkQCOSD8ATm1hgE5\r\nzNf/OGgGBDng//U4yOL6OGJv9DgKduY4tkL7OCzj7Tj+KPc4CxD/ODbd7TiwkPY4OK/jOMpQ6Tj+\r\nCeI4Lv7fOK5z8jj2ZvQ48C0BOalJ3jgMsfQ4wv7wOG2r5zisOds43u3yOJf61Ti+S+s4BW/qOBDv\r\nAjnQNeU4KCMAOZJ73DiPTtg4krXtOADD0DhqttY4/iX8OLXP6TgAEfI4uqXpOHtr1TimztQ4dl72\r\nOKF6+zigRNg4dk7VOMv51jhiadc47pXYOISx4zjD8dE4AQfbOIZG6Tgkz/U4gZLMOHxd5jhPiMs4\r\nyYHnOMYH5jgAXO04xLr7OJev2ThE1e44wKDaOEwg5Thjs844zLbfOMAS6jg9+9o4bdTZOKz26zgB\r\nhcs4O5rfOJpr8jh6Ie84nezpONZc2ji20sw4pQ3bOBtgxzjVH9U49bPiOJbqyjgbFcs4cPrWOGSs\r\n2DhuAck4lvXNOFjp4DjK58Q4YVXkOOFCtDh43cw4bjnLOCyp0jjyJ9k4tSTGOK/F4DiI298481DU\r\nOGlJ0ThBv744ii7LOL8n0zjaPuU4bvfTOI4s5zjk7Nk4murJOE4u0jhWFMc4qpncOM9X0Didd7s4\r\nUW3ROMqaxjizKMo44CHGOI0JyzgFL8Y4EWrOOIK80TgTwuo4zkbMOLl14jgcI+E4FgbJOFc3vjgk\r\n6sQ4ObjVOL160zjZZtc4mFfCONpTzDhwoME4FNK1OGeMuThcKbs44fXYOGryyzjSDcs4qfvQOL05\r\nwziE77g4rwa+OCqixTg+js84cKXCOC4w6Tg647A4W7DKONF+ujieMNw46bbKOLjbvThvlco4l97F\r\nOIPR0Dh0msY4QdvLOKqTuTjwYsc47NXGOLsnwDj4JMY4w0rBOGYpzThCrbw41GzlOP/osTi/ULk4\r\n0/rDOBLOtzg9K8s4pNnWOF7CvjgWp6w4i0fBOLAbwjjX1sI4elLYOD8o0jhOSsI4pc3MOGhG0jhQ\r\nTNk46d7IOBhtujjL17U4htzEONywwTjelL44EJrBOKdfvjhmOsE4n2PIOIGanzgd5qo4OSe8OCuF\r\nwzjPJ884qM+7OJv7wjhIM7o4b7y1OMkexjhCP8U4YJG/OOtqxTjk6b44CTSoOPg71Th1bMU4rBzF\r\nOM8/uzj2Wr84YYzCOPGNwzhsoq444ZXKOH91tziFs7w4so/COBvzrThpIck4QNq6OJJguDgGecE4\r\nvQbJOI0HrjiThLs4Kge7OJbYrziI7bY49Dm2OFzFpDirbsw4ynPLOEa4vzi55704uFW4OMQXujjq\r\n+cY4suivONlxqzjgJMI4Ww25OCZoxDjBd7A44Fi0OAocyDi+eLw4ubG6ODXdsDjj1q84Gx6+OK93\r\nvDi3iK84VvOxOMkxtzjucq44XyjDOAcNuThzBsA4iROyOO6Mpjggv7k41ZG2ODP/xDjerrQ4rd+z\r\nOLinszj1Hr84sy26OPlNsjgfcLs4YuC/OFV5rDir2bc4mt+8OCf4vDiF/8Q4a1/BOMb8uTgYScE4\r\n3FCuOMcbrThDusU4cRa3OKwcozgq/MM4n7a7ONkJszjrz7448dLBOESlsDjUWLo4Jiy+OO54wTgJ\r\n5rw46MLPOAmXujjGtaY4I6u+OJbnqThTbbk48jS1OFiztDjsaK44Fu/HOKvj0DjuX6I41Qm2OFgk\r\nsDj4UqE4NvTUOGDixDiKfbk4d9W8ODArujiC1sA445i2OJmuuzjLnLo40OzAOD8JtDhuA7c4OLel\r\nOG1guzjKk8Q4Lzi3OFVVtTg+h8Y4jHm3OBavsziUkbM4gaq6ONDywDgYNLk4rfG2OIDovDj/Zmc/\r\n0keFPRLg4zvakLU7mmsXOxDUuzrO8wU7hP46OiZj4zo6eT86Jz/lOR9w4DmW1JQ5nijGOWbUhjl0\r\nUYY53EWdOVpVzDkuuLk5rhBNOaGsmTnBtTY51LYgOYpIiDkTpX05hmETOQi4RDnuIgg5BaGJOSxu\r\nFTmlCbc4oAkXOZyTRDmJlJs4LpSNOMZxLjmEn+g4TfMLOa2wPDlNR904ZS8EOeXIDDkjWyY5ihOP\r\nOBhiqjg+3rI4sXU2OUK2yjjWPwk5jxzHOJ+sQDkwwBU4oBD6OFjhKDm3/VA4buq/OLINMznlR7Y4\r\nJwuaOC4VwTg5rYU4XMMGOGyE3DiGXXc4LE8iOBpOsDgZWLo4Ma/vOJlBkDi2NcY4CC8TOeh2hDhR\r\nT5E4vKdNOFA+rzjwsDk4NqSnOJxh+zhYTlI5U9h7OGt25zhx27w42T77OGWoqThielQ5YAyJOQih\r\nOznj13s527XiODXgRTkTe4A5t4ggOcBDDzlvTKU5wMzNOD6upTgep1Q4IsCJOOukijgU1jY4aeGL\r\nONwxqjiQ7AE5EltrOKknTjgsvwo5P0uzOKR1OTgBTBc4+qw+OFtlZzjyMvM4mASNOL54fDhAQa84\r\n3sreOCS9Bzj4ons4HAtXOOte3TiJNDs41gILOLqaGDkEiDg42kSROCdQXzgakTI41exQOAwSADkw\r\n1XQ4DthFOAShiTg5Svs4JLvQN7phSDg0uSE4gLl7OOiZCThvDHc4r1KhOK4waTheljA4XwsjOGeW\r\nQTi68TY4AHMPOXvEjTio8ng4dq58ONINFDgeNG84/QEXOCw53DcdtaM4jtWKODrCBzmBpl84liBa\r\nOI+0sDhOHl04RxApOGrpHTiKefU3DMATOKceVzhq+os33OJaOIDWazhPQDs4ed5XOFzvTzhG3Gc4\r\nuVwCOJl5vjcUSEM4hodxOCjTWDhwr944GNMBOF4GDjh4gh44m2jAN/HUFjhb1tk3JbNcOJIrATgs\r\nCgg4pIAUOBIBHji+Aqo4cr0COJqoJTh+Tes3TF4uOP5mHjgtheg35NYDOGvtzzfQCtw3PU4JODYf\r\npDiZgxE4ZlBKOH/5gjhe0yk46iVEOCVkODhMMLY3nuI0OLk8IzhDMeg3LGDNN7euNjiEiGo4N9bc\r\nNw0LjDfJpdI3pL6JN4pXFjiveB44DHW1N4Ky/DcgDiU4/I4iOB+R2jeOwEc4sGLjN5cqijh6swI4\r\n+2AZOOk0uzek1ik4+4mbN8pT1jd8p9833HE7OBjE9jcCj+I3uekjOCIHFziDrHs3iHgLODYl2Tf9\r\nr2U3NQQROPSBJzgcliY4F1McON4l6zf5KZk3lGgzONFPQzhHPVc3/4YhOOdiiTcVpc03DFKvN9Ts\r\n0jeuEUY40MzdN2FBLTjYZhk4JvUZOFrY/ze5AhM4vq0XOCpDwDdaMd03jEABOLD7uDfZGNc3EOyb\r\nNw6hNzjnxeY3fCGYN439DTjYwe03+M7jN9XktTfhrkg4lUZyN7r01TcNIp035pn9N2coyjfUJ7I3\r\niECCOLvjzjd9S1k4qiCzNwe2GDgWpIw4QyEsOKL0xDdlfhM4fpkvOM2MDzgshDY4z4qLN8xl6jcs\r\nAKA3op83OKQApDdyZPk3MOwZOK8Wtjdh4P03yMWUN/jo4DcwjKs3wZ4NOI6vdje25s83Hl7KNzLy\r\n0jceYwQ4UirNN3aKAjgtMAU4ztMIODPIwzeccSQ48PGRNxHFlzdgzKw3zJACODQKyTd1l5c3DX/z\r\nN24a7jdXcpQ3W44XOKxULzjGVik4DVCaN0831jcqFH43J+ryN2gmFThJUAQ48+u0N71YXTf1XCM4\r\nK/ykN0dwjjfq+qI3qXBKONrCyzeNBxo4Vpe1N+/twjeaXeY3MO78N9GoRzjOqi84qjSYN7TN0Dc+\r\nPvQ3herQNw57bjfEAwI4cXOXODwI3DfqUw44G4LHN9diyjfS/sE3XMPyN7hC0Tch56Y3faK5Nz4T\r\nsDeEOhI4nWViN8wo1TfU//k32PsPOGxt1jfYBoQ3VpGgN+5Srzcfrro3F78oODGqATisLgo4lMvc\r\nN/OJbjeFu/43m5MpOJHTgzdkbzk4sLimN03I7zeXcso3Aia5Nwd26zca6HU3akOiN73NvDdc4ZA3\r\n6LXCNz1MRje8CNA30qSWN5VYxTfXyA84zIV0N2B9Ujh2U4Y4IarQNz9H9DcGGgM4kmHYNzQfkDdo\r\nUJU3rJkDOMteKzj4BAw4Hnu5NwQkvjeSFdQ3Sgw1N474izdrkN03/MCQN7pwyzeacqk3XR22N9o/\r\n0jfk/Pg3FAzpN4MV7Tc6ewQ44OsQODJttzfwv403ZgvKN1VyLziXmRw4K77EN8E0DTja4Zc3NCFi\r\nN5f0pjeqO7Y3Hj+oN8/jWTduW4w3NKn2N65QZDd4EBk467jkN9xooTd5THk3EkYdN6iQvzeyKhg4\r\ni0WRN321lTcMGh04tqTmN4ibZDfiGiY4F4KiN5xBFDjnduo3AOQ6OFc+ujfKmMs3u9OeN/wX4Tfj\r\noLQ3XzfEN5yfmzfizgI40rW5N/SbZDfBo/I304xBONBBIzhu1hw3uv+8N9RffjcMhd03QhKWN2Bm\r\nPTgIGdY3tKRrOAsDnjcIJ+I3jq2nN8XKozhvK/A3NPGbNxRSize0wWE3UmK8N7o1vzfftKs3G0re\r\nN/I1kDiWD8I32kdNNzdoJzjkPdM3H2+cNxBp+DeMlBc4XUX3N7nKNTiwnCw3lNTuNwDxGTjGrO83\r\nPcRTOKWbxzfhLac3yc1BOLs1uTeuBR0479QaOHoG+jcdcks3oz+yNyKL8zeAM5k3Rn3WN80kHTh4\r\nVrE3Y6GxN1THszfJi3c3S8uiN3oVbTjMYos448zFN3D1AzhlHdQ32em6N1RwtTdOyvs3TBavN3Oc\r\nwDewTL036xPKNzaOwTdBTtU3ce8yOK369jd4OaA3ccUWN9ptjTdUBCg4m/hNN93o3Tfojuk3TcbY\r\nN1a4ojcSh643OynMN73wLjdgne83GVzWN7wahzcKvt83185EOISmWDcajCY4/PrPN0yDODjettQ3\r\n2a78N4IOMDdWAXQ3A4+RN8t8Zjdi7z43UsDhNl5YejbcX3c1vL4DN/C4HTfft1c34mNON90NDjcE\r\nXYE3CkIiN4vVoTb9q083ExW6N33ehTUlr4w3vQ3mN8MzRzg8zDQ3njYcN0AHVDaRqpU2ilqfNnEQ\r\nqzbco4k28sIXNRweoja0lD43xwYeNg46Vjf/TSA3PIQ2NoNCejZoJpE3QWQZNghn+jXRlCQ3l+qk\r\nN1/2xjUjKTw2sqUTNswgOzfZO3E3NsnmNikh9zYff4Y2O5Y6N2WVBTegxLA275z0NQ38tjbYU3U3\r\nsHBpN4YF3zVwGes34jPqNqX55DfzMqI3xUICNWY2uDaKz5Y2jA6tNoFqNTc43Ws2Bme+NnTJ0TbI\r\npSc3jD9TNoeJNTcWjS03ywibNzVkfDeyajQ222XBNoAIcjeArks2tqypNbSt3TUCN6I2Uri4Ns7o\r\nWjW0shw35hXBN625/DakO5o2d/7tNEAFDDX2Vqk1qrinNRpr/TVa2bU2zU5LNY2thzbpqUo1VOas\r\nNbij6zVPC3Q1HzppNepC8TSMR8M0QKkLNe6s6DRL61M1ZdS8NJu/8TQcqBs1eaa0NJg6FjUs7BU1\r\nFXaFNKAwqzQ4bdE0yc9rNRkrAzXeuKE0ywbeNGVkCDVIDW41V7jyNDBrtzTt7qU0e8DzNBBXyzRL\r\nHKo0jVdFNa7uAjUNLWI0ksE4NbngTzUQSZs0bKrqNLP9dTQy6bw0calMNdbzHzUZ2uU0yFvENEfN\r\nJzXVY/Q07y8qNVjOBzUU/eQ0qQgFNYBRJjUXXHU0MVt3NQweszSUhfc0GmwYNXrkATXd8ro0Izmt\r\nNGMs0DRxsx014ub9NBJVUTWidgE1YZumNASsDDXxxyE1XAEPNfBtCTXTodM0agboNFyI+DSEKE01\r\nKkFdNUp7MjRc2ho19gVLNfX3KTUqWro0ecHPNAw58jQSEdo02+pWNE9qpjWf/yI1qlzbNEqSjjRr\r\nA8Q0QbPXNK6nWDVXNYM0MitSNEhNGjXJ1Vg1f7WxNJZJ6DRaAqU0m3M2NUwv0zTJfOk0CoeyNB4R\r\nCTX3fUk1e3q4NBa6wTQIWq80CP7WNCRxvjRMd5k0mB/UNPZFmDXp/AY1CB34NGjwCjX6FeU0ve0j\r\nNVr0mjSdNQQ1WKi6NJyy3DSLApU0yU0wNXWuIDVJz4c0aHfHNPwGHTXAFhg1CCH5NEHzpDTG6pE0\r\n6u/2ND3D2jTB3uU0SCCMNKznyTQtwdU0qxM2NR6mYDVv+Aw125APNbnwhjROs8A0H2GTNM3nEjVt\r\naBM1LZOyNPpWxzRBpQY1Wq7UNEaz2TTmlZ40TANMNOKImzSXDcw06iucNMLuGzVOhgI17oeiNNvn\r\ngzXK3do00UYuNWP5AjUrRw01AiMDNZK/BTXtBOk0MaCbNPbOKzXf2pQ0KPUHNcXujTTsoxs1BDcw\r\nNfx4/jSl7rM0wSA9NZQQ6TRCDgc1vkRoNX4X9TTQfMg0zQGtNAxWxjTws440bmi1NF6LiTQh1oY1\r\n07qiNEKKajV34pw0/scTNakoljR8/jg1eWwLNUg5yDRiTok0wUdoNGRUDTXE5LE0FS6sNEK3zzRE\r\nbe80hLGbNBfVITX2wQ81FcPMNLa7gTQjCIo0hk8rNFFpiDQp0As1LQu2NC+ywjS+TQ81mELMNNQK\r\nYzQuae802bAkNYB94DTCPps00YYFNeWBzDTcCfc0S40XNUdsDTWklOI0AtAlNUlmTzXOQQY1RGAQ\r\nNdjMDDUnEjg0EjyZNACysDRBcqQ0LOgbNCdSljSLVgw1NMDWNEZmFDVl6KY0J0CSNGLzGzW3ZxE1\r\nyPAiNSPoqjT8ttY021KkNEltOzReQhk1aH2HNT4qzjSPMVk1KgIPNerQozQfEyY1ln2VNCw1GjXZ\r\nYZk0WLcTNXFDCDVYxcg0IGSuNMpTgTQ6M3Y0RFR2NDcJvTRaygA1OvflNMbwvTRXjYA0rVzLNIUT\r\n6TRnn5A0XdcaNSWH2zRWev40zjjtNMgntjQjmDk1H0muNIJn2DR10sk0MI3SNBBnNTVOucw0+cg4\r\nNUHF0zSYk/I0s39hNFa73TTy5Go0eEdhNGav7zTPtLU0Bp9QNEoNoTQSvQk1LvqBNMZe4jSbHBE1\r\nrn6zNApStjTGdg41LYUWNcK1oTQa4cA0EEG3NNPL/DRYElQ03NWyND/fJDVoFog0CTFJNXMe7zTV\r\nDvg0MJrfNFOWFTVmTMU0xO+SNHkktzQP9AU1CDQgNdGGGzWkKmA01i73NFTEAzXbnbo0zwudNA5Q\r\naTVJ5JY0DTHJNAasJTXGO3s0fTi9NKvXITV6g5E0QilUNYuAEzXkoUc1OXypNOuX6jQKGfE0zHUA\r\nNX09yDTuONk0BfzKNMzMGDUVFwc1sVuhNKYeDjX0Vuc0WRVENQr6xzQRwA41AIC0NA==",
                            "noiseTrainingType" : "default"
                          }
                        }
                    ],
                    "start" : 22158,
                    "duration" : 1314,
                    "mediaStart" : 0,
                    "mediaDuration" : 1314,
                    "scalar" : 1,
                    "metadata" : {
                      "WinSubProjectDisplayName" : "",
                      "clipSpeedAttribute" : false
                    },
                    "animationTracks" : {

                    }
                  },
                  {
                    "id" : 123,
                    "_type" : "AMFile",
                    "src" : 19,
                    "trackNumber" : 0,
                    "attributes" : {
                      "ident" : "section-14",
                      "sampleRate" : 44100,
                      "bitDepth" : 16,
                      "gain" : 1.0,
                      "mixToMono" : false
                    },
                      "channelNumber" : "0,1",
                    "effects" : [
                        {
                          "effectName" : "WinCompression",
                          "parameters" : {
                            "attack" : 0.0,
                            "gain" : 9.0,
                            "preset" : 1,
                            "ratio" : 10.0,
                            "release" : 3500.0,
                            "threshold" : -20.0
                          }
                        },
                        {
                          "effectName" : "NoiseReduction",
                          "parameters" : {
                            "denoiserAmount" : 20.0,
                            "denoiserThreshold" : 0.0,
                            "noiseProfile" : "xzUwP026yT0Ljgg8rED5OyodPzu8YE47Tw9fO9+LhTo1sYk6Ys1cOtO/ZTroeZQ6dUkVOooYKzpT\r\nc0U5POCjOZEB6jlvnNE5t/jaOZCIgTnJhRA5QLtWOQJO4zi+vO44nem9Oc40UTnmLZU5dIQHOX2f\r\najlgPoE5k2zvOIJbgDgXI7o4APXqODATIjlBmQU5PLESOU7Xtjhx4xM5DEZSOcm+9DiXmlc4rr66\r\nOKBVvzjb8bE45Hx3OBhW2Ti1vYo4PND2OI80IjkY8Zc4C0XPOKcmEDm9NRw5H+S6OBgI9jiF7KU4\r\nQQMJOUyAYjjFMCc5ONlvOOxLgDhKfI048wYcOfGuZzhapcg4OVDgOOIsSThayNI4kiPMOMUXnjhv\r\nIEI49KqROHaynTi3I1Y4ka/LOGzbtzgk7oI4uQ89OXAJ1Th+6Y44wYVLOD7lnTgceoE4baeQOHEf\r\n8DjXYFE4DZmiOLqjpTgYDww50H6KOJvQwDguNL047nngOGN/jzg4Izs4MElyOEZemTjwqaw49BMp\r\nOFLScDi/YkQ4diaaOJNlbzh2wCI4YmHON7i2gzi/ilA4ee1kOLHt+jd2oMQ4R3MmOKI3dzif8PY3\r\ngeF0ONIqATiZGxk4ngUhOMQqWTiYeFc4cSqGOP7DWDjYdqA4HathOHx5XDidfD44at2QOHXmUzjJ\r\nwmA4nNxjOKq7UDj2LrI4bg1bOKGwDDgf1Fo4JHtDOGVMhDgaBYg4tWt3OP8PjTgdvqI4De5yOKj+\r\nmTilfhI4Hbw8OITXDjgsZqQ3n7UCOIp2XDi5/Yk4d/NUOLTobjiQizE4qA4KOPSP2TfuLfQ3+zg3\r\nOHXXPjhwX8I3LgpaOBBVTTg+F3s4CUvxN/iNPDjpFtE3UMDhN/slyDhpDYI4RK0tONe+EzgW1xc4\r\nP+fVNxs8czh5Ivk3OmZjOAypHDjeeNo337P8N8UnjTgOQQ44VPm0NyTaXTjjt/036DAjOEhD/zeB\r\nvB84MEdOOKxTdjj+ijg4nrHnN3TL9zdC/ns31fPjNwSAgzjwGJ43bfT3N6RUCzi+R9Y3jTFGOHvw\r\nmzg1GI43lzjRNz51rzc+kNA3xl3DOAQoIDhRGq04t6v1N0BxLziICQQ4vq8QOIfZUjgj7wk4r60G\r\nOF89azgxoMw3OVoDOK7JpzeCKg44V6XsN0BcIjj4Hko4IE86OFtu6Tebyhs3QD7KNxxVujcANxs4\r\nfZ7xN5m0Bjgh/lk4ET8GODBPNzj0Wrk3sxsBODULADjQCe83RWzqN5gFNTghN2A492eHN8wcUDiq\r\niSs4WlIrOB75lzfKd4g34qoaOHUhzTfMRdI3EGDSN9tkIjiTPZU3CEamN5ZzNzhfnYo3RNAiOICA\r\n0DfQltQ3XDnTNzl7jDfx82E4juvqN3H3pTccQzE4DDa4Nzy1YzhCu8g3KV6fN7Bo1Dfo+zQ4YUAk\r\nOCTEFjjo2SE4ELwVOEjCAjhdlm43fXMxOInjeDiSpFI4LyTWN6veuDeBTic43qP5N+5/0DdE7AY4\r\nrEevNxATTTc+Lww4g4WINxvTzDdP5No3nycUOPWBKTjCPjU4nFIyON1PwTfg/hY49nctOD2eCjh6\r\n9Q04BprhN6TCljhLbt03uRdIOMQKrzdTlp033h0POJSSRjdHJ6c3BDKFN5x0ZTelvBk4K6zbN/0P\r\nkTe+M1s4wATRN14v6TdHxxU4WCsoOKSTzzd6w443dJJnN6OeGjg1KZ43EBHsN6WKCTh4bVE4HGT1\r\nN7C0OTgiewM4Uzf3N2sbtTc4B/w38nECOKeGyDcYDOQ3K9oZOMVvADiMjLU3KJPqN+SPgjfZEyw4\r\nubeQN9OkxTfNToY4oCr+NwynmzeOdfo36MXKN6O0mTe+msI343tCN284FTh7rSQ4CB6fN1CHcjhm\r\nLxs3HpzYNwcxITgS3qU3t5QEOMgY8DcattU3l2m8NxktcjcYWPM3H0mzN0ZKCTgC+MM3KTT4N489\r\noje9cGg4V1IaOCwS0TdBisY3y7+IN5Sl5zfY7OQ34bMKOPiQTTgqPvY3AswBOD4yoDc01SI4y1Be\r\nOD6R5zcZtK43330DOAwf4zcfRcM3DR1yOAqVSDh+kO83wM/9N3aOAjiFsqo3dGEVOKuIsjdul9c3\r\n6G4GOGzCwDeIBAk4NL98N1FOljf323g4jjipNxiAFzjp1Ig382nVN4IcrDcFc6s3g6OLN4xt1Tfa\r\nY5E3d/fnN3gt1DcfMsw4HHa5Nye9wTc4ae43JoIfOC//NTim5+k3nCyAN9ak5zfDurY3+aUCOEsf\r\nxDe8kMY3HsC9N6BOsDeHzxI4gcoqOOx46zcAr/Q3nLUoOFpfLTiIW843FK6vN0gx9TcUkwA4+3o9\r\nOCgvSjh8cEw4PBDON0FtUTgQSPc3MCerNyql1DfWU/s3hNrWNxwcODgM5DA4bamdN7fLMjiSxTY4\r\nRCUKOCCU6DdZvLM3Y+f+N57wbziQjwM44d34NwbHLzePtFE360LBN2ESCTjGEw44d7hwOJlQPTci\r\npPE3gZuVN962yzfv9Ak4dhH6N05XgzdnMVk3GpaeN6Li0zelTTI4YJoLOPEXzDeoqHo3p2pdN+p3\r\nLjhy3DY4KfOyNxB8zjeCICg4t1PiN408BDjSsKg3koKmN35qkDfy1o035H3yN9YGJTh4Y7w3GVFQ\r\nN4hXpzcml643b8mGN9kP3Te8ROw35Jb4N3RLvjcGhxQ4CLQFOHzurDcSRlQ3lqpQN6YcFzgACro3\r\nv0yVN0sReTdNPcA36I/FNyLiDjgDl+03IkufN5LpATgL0co3KXCAN0F0yTfQytQ3QNEOODqtizc1\r\nOS044INdOJvlBDj2r/k3pHHqNxzOADgU6aY3ZPOON3KNcze+pcQ3eMmpN+ySgTeiWjI4pCmfNxf+\r\n0jcmgFE3IoUBOFMgwzcNRq43KKeuNwxFdDgKjNg3A7BXN5txAjikrQc4WL8KOGGnxDd5tQY4F8Z5\r\nN4J6hTe5nRw4Kb4FODaVLTjtciE4jeCbN9+uXzeE1bk3polmOLJz9TfvOJE3xgJ3N+wPFjgtnoE3\r\nGsQCN7RrBzhMg2Y3kPd8N6jBmTeqxDY4HvGEN7gjCzYaUSI1TwokNeLIgjV2PtI04xufNGVIYjX6\r\n7s40EgRMNZOpvzStq/o0cQKhNJW43jSSG+007XmSNBNzJDXFkJU04xXhNKLfgDQJUf00zC6JNCT6\r\nsjRZFs00IPGoNIejtDQYFBI1vEjWNFW4rzTUnTs16de2NNirtzSJ8w013F6sNHSIoDRGbdc0YUzp\r\nNJjC0TTXN+I0PvHqNNk8/DQ3cNA0y+7QNNwC4TTJWhc1CMnRNEAIrzSlKQw1vviANCiM1zTzTIw0\r\nggXmNMNW0DQuLNQ0KT+2NCuLHDWi08g0aOiNNOBYQjViTr00eNzMNFD/xzRfFcg0lpbmNACGkDTJ\r\neAg11KDlNMSuljTo0mQ0I/4YNSbnvTS4ClA108qLNMxMrTTMAAQ1Sl2+NAbf1TRDm1w0ngmeNEx3\r\n0TRy5bA0LV4HNZ4h+DRJbYA0VfgBNfLHFTWIU/s0usOwNMzfjDQiHLg0BjV8NA6YvTRA4RE1+IKC\r\nNIKyCTVi4400dkGHNCjkxDTZYzY1M58fNbI+gjSh/HU0eu54NR6wkDTk/ZU0uBvQNCVdDDXLHqo0\r\nYZ48NXBlATX+gvw0p7KzNE1V7zRgeVw0b4WvNADI7TTXqMY0S/lLNdaMkDQ5+UE0gpiiNDYoyzQg\r\nDD81AAMQNb+eNzVQYcs0ANADNaOImDSIsR01ThMkNMuoRzXgf7k05CmFNCTK9DSbZY00k8WzNDHk\r\nEDUEZdQ0mmMHNSNPtTTrE1A1y3bDNKh4/DRtbpk0/X2mNOA4mDQweyk1Z+dgNMQMVzR4xxU1ypWm\r\nNCUGgjSILOU091+HNP1fwTTRnME0nTwnNbpfHTUm2L00LQGtNMXDUjWkQ6I07KT4NLrjOjWESE01\r\najAMNa0g5zQ25Jg0dsbGNP1PBzXSaWU0RKiANBoM3jQ8+Ic0jsoSNc2hrzTkOgc13QoUNdY08zSA\r\ndYc0pqemNE4aIDUdhgk1eWufNNYEEjWwJd00cxEvNPRGvjTxT5M0RK7kNES4yjQAhnc0Z83JNL/n\r\n0zRKK9Q0mi/HNOqumjTrBA017rInNWzkDDXKTc00TUkONQjbhzSEJtU0ZMuNNJ7JzjQ5bdQ0YuzC\r\nNPNjgjQoWLE0XjjeNKhMnTRfna80QtKONG6qrzTipsQ0ZjQmNf9dijSaPqg0/EuANNSusjR8evI0\r\ne2C/NPhRVTR30NY0VPPYNLGUDTVpGAE1wToGNcV40DQyk/U0qOT4NPujrTRaUXs0RuEpNe6mwDT3\r\nLuQ05vFhNNTCgjSZxrQ09RMXNVmOfjRIYdY0U0SENOtW4TQgJ7E0OCLINOOexzQNxao0L5HcNMzF\r\nBjUsP0I0Tmg3NW27vzSg6Hs0Qr6pNJgioTSmJTw0VmXyNLQKmjQN+eE0ZlMkNT4lWTQKMmE0qyE9\r\nNazy5zQraRU1ayQcNRJ42zSct/40sB0iNUgpaDTnAaA0IyG7NPNfuzQJOPU0useSNLqA8jTFHzg1\r\n6uYJNdziGDWvuf40itzHNL+ZuTQaVNE077nFNMwANDUOpoY0SCGTNOyl/TTAkB01jBqeNOc1TDRG\r\nnro04xK/NDS3nzQpGgY1RNJaNKEHGDWHd/o0LBYuNYuduzTobVI0Uw2nNPkcFDWFsoM08zAWNRIn\r\nzDTh+m00RaibNHdftjQ+AMg0Zs4ONdsYuTQTU+g0gGbxNEIEnDRkDfo09FwqNd+HCzUic6U0xblp\r\nNOpo3zQdn1804vn0NMrJlTTc/X80KI3ENB/EJjXDNtw0Hiy+NLI8bDXK4D81gHDhNMI1TTU4PKc0\r\nkbcVNeWqyDRYiDw0LgObNAzVgzQE/jY0W6LlNDYlIjX5+KI0hhc+NKB8zTRW9sY00Vh8NcVHvzTO\r\nTIc0HvwcNCvOyTTNPNU0aU7qNCcOVDTnQsU0MOfmNGEVdzTsIlU1QOaiNFdesDQZt6k0ft45NLLE\r\nwjT2+7805o2nNK9BgzTiE7Q0tL/HNI4eBDUll5M0A//CNK8x0TRKmdc0lqNNNAxw7jQVWdM0ZJss\r\nNb8jKjWbyLU0LOf8NFYVFDXuQPc0UOqONMCSijQDFNw0jo15NKEdPDQrfJE0SWn2NOkKhjQt+7g0\r\n2OD8NL5NKjVsEHk0oT6cNGrzETVDXCc1Wr/yNBRWVzWTTu40QMjpNP6i9TSZ3c40/e/TNDh0sTQ1\r\noto0jgozNQ3zjDR4TYg0cW1SNH5ujjTArdI0xgGKNCakcjWkZM00ebS/NMDWpzRtlKk0edKFNOB3\r\nkzQkXQ01KvkWNQJVxDQMBas0zki/NOeW1TT2hsQ0djyaNIPTBTVtYoU0B724NOTKmzQIkuk0XDPH\r\nNJSBqjToyZw0xDnANEO0WjQDCZQ0xRmeNF5T4TQbLow0BqAFNckMojTlRqk0jv6xNAAAYTWTk40/\r\njgu9PdpWjjwsGfE742LOO5aMLzvelTk7qSvyOkUpujoEjjM6WuKsOU4s2jmdiIw5s7PjOdZElTmn\r\nZYI50kGYOf0Oszli47A50lEtORsfejkOgjA5bevpOGp+Ojmeu8M4lq1GOfUkEznCiIw55ZK1OLA3\r\nATm0Hrg5WP83OaBUqDi7PyE5k2MnOeU5BjkaAQ05f00COcLYFjk++xY5Nr4qOR5jhziqJOs4ppdJ\r\nOEpY8jitb2M4EHAvOJbCjjjkHYM5pV7UOINx/zjS86o4NwGOOEX+tzhCURQ5fGkQONzlmjjXxs04\r\nyy6tOHX2qzjbh/A4Eqp3OAxlgzhVo5443usMOS8okTgyvoI4WIrHOE59NjkjV4Q4YCiaOM+Jqzh4\r\n6fE4Zg/xOEdgrDjd+0E4ZBNjOGUlhDjofuA4HHuTOGExEjmP/pc414ZeOGqvDTn+H7c4XttEOIKS\r\nMTkQAgM5CHYCOdkjGTn06oQ4b21xOA3q2jii52M49bCBONoeEDkQRDk4fjGMONj3WTi6PDc4DOWv\r\nOOOelDjD7YM4A5KWOCWX/jh01RA4Q7FUOB8YtjhhLgM48XT7N4D+MTgL7Ew4s+eQOAIdrzgSOmk4\r\nBkbKOCn7WDi55KA4Erw/OKaCPjib/Qo48uSAOH2TyjiA+F84QXVTOKmXZjijI5k4uOiCOPIpFDiC\r\nwpM4T+H0N2XndzgsmSw4sjx6OMa9PzhxuFU4CY9COPMRCThd5x84n27iN8JJozgEnJ44fnZHOOnc\r\nMTgmVNs3dCQXOMicgzdosuY3jfsyOGi1UjiO3xc4p/lwOApDAzggAZo4PoRbOKzX+DcOTJY4aKaB\r\nOCSwbDgtFdg3MsgNOObINzjBRrg36vsuOGrXSDjoMvg3NrNgOJZ/bjh/nW44ROo+OJYXNji9VDA4\r\nPDt7OE3C+zcMUSc4PlD4N19+zTc6Fao4kEbgNygtHDh+Ffg3c6IkODZ95TfjPd03iygNOODa/DfO\r\nqUs4cEtUOFLvwjfJJ5A3sgd/OB/ooDipnLE3Ur4cOLUWHDiTnzU4tKx2OOqCVzhXH2A4UYOnOHwS\r\nNjhtx9s3t34WOE7JQThvrRU4eeAdOOTMIjgP9LU3CAILOD3Fgzge83Q4qnAyOO+ZBDgUV8I3qVVN\r\nOFIaKDiYstw3JZfYN6oPRTiQ3/M3B3zuNzYq+jeMOFw3H5VIOPqIHjiE9YY3fLx4OGjyDDhoGro3\r\n7+cpOPyKGTjRYAY4jA3yN5bbrzcH4Tc49iPqN6KjxDeZMnQ3JrRGODBzrzchrnI39nEtOLPWuTfZ\r\nHrQ3SvvuN/Wm0DfozrA3ztmnN9RcVjhrJ703KyKhNyztdjcVDiM4cNgCOEQJETgR69g385UQOGwz\r\nyzdIbtQ31WYwN2KnxDdsyLM4ipX1Nw3ecTdHY/Q3oSDjN1y3cDjzMI039hUOODVDWTevnKo3Z39o\r\nONA16Dfxo803+uL6N56qyDesmgE42k4ZOI0vNDiIpsI38bENOOq6KjeEkGc4ETUaON2rJDiIuLM3\r\nMI9OOIXn3TepZXM41OSnOB5E7TcY96w3q8FTOFygFDiIjY43xgXSN3ihMTheiCc4SArLN4Uokjd8\r\nFxY4LpL6N9wBODidqhA4KYWqN/sEEzf/bhk4OovDNzi9zze67fk3e/2KN1StgDdMj+43MNfiN0P+\r\n4Tfs+yU4i8TBN1nDrzeqepQ3Wn21N3rQ5DdzZLo3M5eBODTg8TdrqBw4uO7YN0HStDflgtY32P/I\r\nN+KkGziQCLQ3hp+uN2/qnjcoj/g3aa1DN/voszcJluI3S2eeN6O2BThHNUw3FL4bOHBarTdwG9w3\r\nyscgOEUB0zeIYfM3MdWcN3QmEziYpMs3XWTtN3jhhzdVtSc46YyeN81YpDdebwA4Ehj2N0ikiDfy\r\nL5w3Yk3sN4+qzzcyR6I3A82BOHYLDjgtdj84lZY3OLOnvzdkMgQ4AehWOFCOBjikBXc3ZECeN4Mb\r\nVDc6Qgk4ElMSOH6mPTiv93Q4uJ9YN55k/jdvXqI3s5inN8H61zeaErk3yUUaOHJacDd+Fps3Epu8\r\nN/7JcDgwQHc3UeC2N194rDdbfLA4/YMwOInjITgI2803cjspOIb3VDdvOcM3bEFHN4JDEThn+R44\r\nA5wSON+L3jdFRQo4OTZsNwjCATeJZpM3KYh1N/7oazdh2IE3Suz8N+ID0zdUo+I3jPa+NwJYcTeN\r\nkdM3/0GwN8uWKDigsQo48tKPNxVHjzcACO03uhqaN4YFkje+VqM3qVW4N/yGpzdL96o3OueqNyv8\r\njDdnnRw4Z6+uN1oFcTjtpOU34JVYOC2T1Dd7xHA3WFSnN2779DeaE6Q37XalN8mvCThWW283qnBF\r\nN2TdmTcFi/M3C0iJN4alTjdDf6I3oYvVN+La4DeXCYc3VRzPNz+1IDjUlg44pP6JNwTvgjcniqU3\r\nIjYJOLTe3DcjN4E3HKfAN3VEADhgpx43lNfTN5V+rjchv5c3h8iQNwWXnDdki7U3gANyNzuv+zd8\r\nuKU3lvCtN1fbITgr+AQ40u9sOJU61jcjYsk39tuYN49k3zc7njU4TPiFN0gVnDeS/MY3y6YHOAos\r\n2zfI2o03VE0OOF0SrDeKTyQ4hE5zN0obQThaa8w3LCjfN0E1BjifJRs4uFJJN+YZ8jfAapw3hG1+\r\nNyyrpTcydJ036jnRN6ivQjeHxMw3EVC1N7BPUjd4F+E3a8zfN6wlyzdOuVg3GeT9NwA0oDcejP43\r\nm3QAOB4iqDc0My8433s7OH+1pjfZXBY4q9mfN72ePDiPL0M3gR+kN5y5CzjquKs3be6nN2p7ADig\r\nVTM4aRdXOBozKjhRz5w311VNNxWyBjcReMc3rE/TNyDWeTeakpM37cofODIVkjfGj5w3MVLXN6YV\r\n9zfavMU3027UN8w8yDc5XcM3Pbv8NzxVvjcEf8s3M8amN6c63DfbVLQ3opOiNxrp5Dex9rk32Y+1\r\nN8QisjeuGDM4u1uMN2meQTho9+Y34TXPN6ZkeThghm43W0UROKsdBzj4xsQ3Z+t+OFsTEDgB6Xk3\r\niQWoNznT8DfWnaw3HhiJN3NQlDdcOss2loUUNuv6MTVYsOM0TP0zNYklBDUKwck0uY3aNLEvATUN\r\njyY19lrKNMDb1DSzR8Y0bNDBNELlijVrvZA1KioFNcDS9jSPlCw1OPIKNSt75TTLGfM0pFTBNCs1\r\nhjXzrzY18P9nNMHJ7DRx7R419opPNTS5zTRb+Uk1gtImNRxe/TTfeLg03GqVNNAZmjR15tU0TfG6\r\nNFE/gjXcJNI0E6G2NCzZhzT67yQ1Zu07NcZYAzUc2SE1OhT7NJazZTRK1tc0Ce2XNKFXLDWXeww1\r\nR+bqNLO99jRC9bE0QhwZNXSIYzTvIeo0GWDlNKtZtzRG+280GWyVNOxCIjTs4VI0DqZ7NEdd6DQw\r\n+qI0ylHPNGKaoTTYE5g0eajmNFDoijRSQxA1SF64NBKvXjWE/aM0IzsnNaNlkTTLTIA1BUM9Nezp\r\nBzXJHi80NJxDNSz32zRdfJU044fGNEIb9jT9R8k0JGTpNK/boTQ4FFs1YYTrNNxtRTUEnkc0VBCv\r\nNKKbwzRK1mI1YwGnNEGkAzWi1LI0BHwPNQwYzDSQngI1SPneNMzyCDXVqF80UVGRNH+MoTSY5wE1\r\nrfTdNBiK6zTmb/E0Iji6NNHz5jS4Yr000oWENJ3JjDQw7MY0cXnANLsyhzS8YAE1dFkBNd+4PjVs\r\n44s0Mk6dNVzg0jTosCM1e3OQNHQ+UzRAROA0bJ7JNABCpDRT3JQ05PO1NGhK1DQuA8s0S8QMNdiq\r\nxjTsbsA0u/OoNHnDYzWx9P00Zd8TNat85DSKFP40ueXKNGU83TR7jLg0yxoNNQa+hTT7PJU0Vr/J\r\nNNscvjQeCko1gMteNfx9ITUY8bM0/EGdNNlElzRUgYs0VIj7NMGlMjSQrZI1MWmWNEModDVt7qQ0\r\nFZDKNPoWwzQkzkE0LiOyNDZD1jQebO8083GiNBkVkzTxEa80xt6YNLC/sjRf+mc0D58jNdo7qjSi\r\nV1w0ZJbdNP6vATWWHLg0fNqhNE27tDQSywU1wB4uNUcvajVWMIA0Pj12NRCRTTSLF480pJnZNIkO\r\nzTTuiRo127sDNfBqnjSx30Q0Iub9NCLyIjWsrYg08FW6NKYQezRDZzk1t1z3NP3zwjR+uAU1FlPY\r\nNO0EjzT2y+w0OIa/NJp9iTQP71E0IO6HNeTmtzSaX3I0J1xXNJSeizRVRZ40uopdNVETHTXoDvQ0\r\nwoyzNPxOJTUT5kg06peSNNa7szRQu0g1vrw9NXofhjTNA6I1Vi+kNJm5KjS2hPI0+f2SNBtYojQe\r\nZ4k0FgkmNay7xDTy/fc013WSNHZUpDTR9eU0hFzRNPCyUTRRLrk0Ph6uNN4YIzVZ/sU00Bc8NQWA\r\nsDRpv4g0BPZjNEAF/TTDmL40FvvVNP2l7DSOwZo08kAPNfxCnzT+8cg0v0TDNLvbsDSBCyM0ml8F\r\nNRSrijRARww1YTjNNCKUyjSTFIk00CL/NNoizzTfRlI0TiLPNJEFZjSQUL40aKPfNDvcmzRv5RM1\r\ne5iuNDi2TDWDpxM1KN3UNAOslDT555g0vjg6Ne9odTT8Hv00KVXwNI2YBzX4Cds0hw/RNMLnzzTx\r\nUpE1vAcWNEoSBTVTHQg0RHXqNNmHwjR6boI0L0XeNEEXmzRNFoU0N7udNP4MLTWdsVc1XuYCNZtu\r\n5zS+teE0MyLQNAYU3zTdagQ1D+CrNGWq0DQuc7g0tuExNQbmpDRXnec0yK8cNedtfzSWTMk0czKM\r\nNANTqTT2PEU1VnjpNKXx1jSUpbE0vLf4NAzrPTRtLG41KQrANLteojTN1t00FjRRNEYs8TRqpZs0\r\nEvWFNM1KADUS8IQ0H3Q1NZTWTjU03BM11owKNdBpzTQw+Ls05WozNU75BTUOdsg0cXDPNFzIADXI\r\nqtE0YWWyNKNvrjS5lPo0COr2NMLn7DSc4ec0b3jLNLehAzXEtLk0K90dNQ18+jSJ6G40hElnNWdb\r\nKTW87n40QrzzNODYHjUtu+Q035yVNECcFDV7lZ80vgQkNcVfBzXYUl00mTTdNHXbqTQbpA411MY1\r\nNLGfDDWk6b40Yn9JNT6WjzQcTwE1XvawNNhXtjR1BmA0UUpTNGGirDS++pY01o6hNBXB8TSmDLA0\r\n6Ru8NBbdwjSwTAU1URewNPVOpDS9J8w0VpjINES7sTRhZGw0RA60NLXiDDVROC41StEBNWjf7zQU\r\n0vM0fXeaNLvIwjRCwdA0Fld1NCVr3DSggbk0DVaCNCeklTTCLN80r8rCNHA4GzWTZoc09LSxNO62\r\nEzWa/9Q0NhLeNKCBfzTeMMY0TwmlNBwJuTT/o6c0pS+sNAcvjzSG1iQ1BJXnNDjMZjWoxC00bGAB\r\nNX8VozTiPqs0i9QnNV4YrjRmFMg0/5AJNf5chTRcpoc0fFW6NMwCozRxeH40AICQNA==",
                            "noiseTrainingType" : "default"
                          }
                        }
                    ],
                    "start" : 23472,
                    "duration" : 1097,
                    "mediaStart" : 0,
                    "mediaDuration" : 1097,
                    "scalar" : 1,
                    "metadata" : {
                      "WinSubProjectDisplayName" : "",
                      "clipSpeedAttribute" : false
                    },
                    "animationTracks" : {

                    }
                  },
                  {
                    "id" : 124,
                    "_type" : "AMFile",
                    "src" : 20,
                    "trackNumber" : 0,
                    "attributes" : {
                      "ident" : "section-15",
                      "sampleRate" : 44100,
                      "bitDepth" : 16,
                      "gain" : 1.0,
                      "mixToMono" : false
                    },
                      "channelNumber" : "0,1",
                    "effects" : [
                        {
                          "effectName" : "WinCompression",
                          "parameters" : {
                            "attack" : 0.0,
                            "gain" : 9.0,
                            "preset" : 1,
                            "ratio" : 10.0,
                            "release" : 3500.0,
                            "threshold" : -20.0
                          }
                        },
                        {
                          "effectName" : "NoiseReduction",
                          "parameters" : {
                            "denoiserAmount" : 20.0,
                            "denoiserThreshold" : 0.0,
                            "noiseProfile" : "8FyoQBsRIz2eAtc9bhU+PV4y6DyHSus7q0CVOzVkrzvXqwY7Sb6JOiUi4zqzFoE6WNYyOvRBGjpC\r\nyCs6y77BOX6ndTpAMuY5PMHVOYE27TnAe7I5sk3aOePH4zn9+hM6DpjcOcMX1zmjQZ85vvaoOfLi\r\nrjmULCQ5FLwBOaBICzkICHk5MMiMOcouqzggCqw4eCPoOJYJATm6Vd04qUEpOYzsYTidBqw4qH7r\r\nOJOdgTnrDq4537GeONBIuDgnASE5qOfsOJNYFDmcHRM5hyebOPwAQDn5sok4kghQOR53+ThKjVM5\r\nj+K/OKU/DDkaAZA4zvC7OAvPDDhv+Hk4FjsUOVI2TDiLC4Q47pCfOMahzDjKMQ45NZZjOKjmwDhm\r\nqI84ig66OPlt6DiQ7L44LsS6OGk2CznzlT452MTlOHhwFzlpNFA4QvPcOHOL2zj8SP84z9AQOTNr\r\nzzhu3aw47gJXOba45jlPzGE5hNKmOWhzVznY6Sk5oN5pOcSDJjl1uVs5poFMOby1CDkULzo5+D31\r\nOO/x6ThiQDI4yJKWOKw32DiTKP44nc06OWSjwjjv/RA5bNzPOB3j/DgMwvg4oBmPONv2aTkWe6E4\r\n8yHsOOQAsThSgwo58gyYOWwyvDjQILI5pAm8OII19zmJTKM5R03DOYlX7jl4nis5SkQCOlLEnjls\r\ntXc6ZGw8OmtHADoHn4k6pGHUOQ6FIDq6/i86PnkUOkI3rzrN0pc6uvUzOtfzejqC9BM68E5IOgNJ\r\nATta8QQ7y7EgOpFrizukkjg7DNOLOx3dCjuApyI7GW3OOi77Vjvd7UQ7D27oO5tu2zoSER87xGPu\r\nOsJg6jk/nmo6qgg8OpvcczogvHw6jvwSOzIjajruDak6oaqqOed5+jkK9IQ5CeUwOsRrSDpO+Fs5\r\n9G4BOpLGszl6PAA5++msOc8+Ozk1DiM5C8T7OIYtKDkd3qw4vcUcObHoSzgrSs44fhQuOM8VIziO\r\nhT44BEWZOCxBqzhF2Z849njPOKf2FTj6GkM4yI2qOD12wTin9Qo4H+sjOLMq5jfnn104xU6rN5ga\r\nNjg7f144l4yHOL+vNTgzz144kx5fOAuetzc4/cA3Ya+TOLYLTTjfTHE4uk/9N8QBuzikvls4sHSn\r\nOIQKijhUgs445pGPOKMylDgMbsA4LIRROK9RhzhJK784ySnNODtpQTjWs9Q4aVkYOPNjEzlX8pI4\r\nyPH+OIgTIzkmRDw4lZfdNxcjMjgfUaU4lD8sOPLzozjoDF04oX3RN/pTfDh9j9M40nlyOAopJjgP\r\njH84qSoNOLo39jh++yE4pwYhOF2eYDjWXgQ41YvuNy3lIjjUzSo4XE9qOIz/Pji/dJk4TyTPODj/\r\n3DeGwOg35kB/OCY41TfYdT04EtQzOHkaDTib2cM4gvIIONYPODjTRxg46FJoOCpHgDfamSA4XByb\r\nNwziFDiIOpo3CocpOHxzSThMUy04DlIMOLer2jf1Yus3qIgDOJms9DfnrJA3HixhOOowYTgM5LU3\r\n6q/CN/67KTiutsk4D/UCOG46IziZcCs4W3C3N+yI5zfEHzI4gjPSN+3yPDiQHDE4LmZCODnh8jcp\r\nBE84pEY9OHpPTDgkogs4ANvhNyPoBziANA44uInQN4fkZThKQi04Oi12OBwogzcGmgc4ynf5N6D2\r\nODiqdAI4Wp1LOOaw9TciC/g3JxMrOH79mzcUCNM3WyDBN8YCBziz1O83VkfyN1qDcDi2wsk3JXzb\r\nN6vH8DezVF03jADHN83mDTiKpfw33ulNOPZU0jeWSiQ4rgzrNwzxnTfmak04hR7wNzJ6nDchP5M3\r\nIFoSOHYrqDe82Lc3+FsVODCorDeOmxY4QIwDOOFdmzcC2rM3MxK9N7ipwDecC2c4aHIROEdmozfJ\r\nB7Y3Z/czOAamDjhKDdc39SVbNyLoEjg7rhI4eBmSN2ltEDh49Nc3NVKqN0YlJDi+MTc4UirnN5CC\r\nljf8tA44z/mvN/UU9jdYq4832YzcN8cmxTdwNQM4WWIsOGSD2DfGRWc4C7QZOM2kNTjr4v03Kj28\r\nN0U3BzgqaCI43w7BN4n7jTg+Ffg3+Y+vOBSdCzhKxzI4O9E9OIJ96jdcalo3bWNKOE62+Detdcs3\r\nGu4QOMMeLDihzeo3mVH7N0eigDiUdBI4wqkcOBDQ1zfk5QQ4QoS4N3OevjfP0K438g4pOKPJTjeA\r\na3A3sNH5N7Zs8zdx9S84bxXAN7RfjTfoR0Q40m21N/FCmzcD/bY3jLX9N7FhnDe7FMg3F9wWOKne\r\nBziYZSs47aqdNybYwzcNtq43psSeN3ieCThRdoc3TNfeN0J1FDhzymI4bvY8OO744DerSCk46rSU\r\nNxUEFTjijx84zbrAN6CrsjfkE9s3p/5tOAQyCDjtZB040wnbN9fhuTecDAo37RarN4sT8DfZ7+M3\r\nFMjeNxb94DfmorM3PQKCN9W7CTjiAuA3xZ2PNz6zvje7WKI3mHK2NzFQmzejEHs3gtIYOHbqHzhA\r\n2Zs3h1GtN8MG2zexA2o46kY2OOgwYTcS8xg4025mOM4RhTjn0V04wKKYOKFygTcrZ5c3Aq6sN+ct\r\nrzfO2603CK0yODsgpziCbb83Tci3N4HCNDhmahM4KH7GNzCN1zcb7yw4oE0/OBeMCTi3ceA3zE23\r\nN8SQ6DddzSc3H27HN5BJ1ze/GOg3iAPQNx1QxzeDJOQ3CEagNzxewzeueBs4Sry2N5UtRTgAkTg4\r\nTRnkN6NqIjgGNqo35o7xN6YFHDiq59c3mZiZN6uh3jcM+gM4W1onONYu2jd4Mfc3+ypBOJJ9Izhp\r\nJbE4c7RMN0tGtzfcPLU3poQSOLoROThAU9c3YIUDOHlRhjdiKGE4fkoCOF0PBDiaq+43YFCXN7yV\r\nzzebFKQ3JRlZN2AnpTfiWbA3h0QgOBeKsjcoi6g37MHWN/wk7Tey6yA41i61N0Y16jfq7Sg48KJ5\r\nNxkjNzd/ghY40N2hNyVxBDhLeRY4ojJYOH14KjhFvE04X14wONQ87DcuV6M3KuEzN7z37zfb4W83\r\n0O27NxwlHTicMho4zUhbN5qOUjhcRbY3b/UkN60ryTWbEQ01PjohNVU+uTRn2NA0+WPWNGxQ8zQA\r\ndOc0DIQMNU6pCjXonaE0elwQNRTi9TTL6Sg1zr57Na7OwjRRFsw0qjPxNHan9zTV4s00FsVUNSZN\r\nzzR/Tow0MUDWNGj0xDQmeNI0MmSgNJlHhDS27kI1AjiENA+YRTQAmxQ1tJPLNAtsNzWgFtw07m/q\r\nNOatPTXhqxY1T2S0NGmpQzSFrLE0FRKWNDSw4TRbXAo1NPDYNJ/k2DTBF6M01TIQNSo8/TScJ2A1\r\nsNzPNDiFmzRXK6E0U/T7NCg64zTJjgI1WbAQNUQEBzXiZAw1WmKgNEzh2DQwMc804k4RNZ/EJDXI\r\nq7s0BEkZNfqztDQRuLU0tD7ANCwBKDWVnQ81ot74NCPitDTj4u80fEXXNBgXjjT+7BA1pYSoNdBN\r\nrTS/lRo1+5qINDaoWjWNJuU00pcLNcceqjQrwtE0eGXhNEpSgjS3eJc0nsXvNEA+DjVt/hU1xqKk\r\nNJ7OZTUNGOw0Pu5eNPBR1TRKml41xzjDNFBysjSqUro0XIy0NFEHtzTOpyI0paPFNPJoFTXYjdw0\r\nyVOXNB/mkTTBwOo0QXzSNFYWCzVLyR014hoKNSyI1TQ2r6Q0A3DwNMFCQTUw6nM0ZKjQNFq1jzTo\r\np5k02U8DNZyafDT+R1M0U8OQNJd7OTRKSE40xO/iNJEc9TSvuA01rwEgNWFQuzQUeJI0u6DYNMyh\r\nPTXwer40P9bWNH+7rDTsFOY0GE77NPnV0TQBOVk0b5CENMYn0zSCD+80bipJNF083zSfozw0W0Nv\r\nNA6IfjTb1tA0rZjeNO/bnTT6KeQ0uncFNbRXpjSVThA1vIe9NEKvkzQey/Y0ueo4NG2N8zTkKBk1\r\n5pdrNMQDjTTkIK40eBynNIJC8DSVKvs0k0+fNCFl7DRRero0jyIGNVOXxzQ6Hvw0TRfJNMaclzSg\r\nMJo0jmOvNNRHnDTAgWU1YSXSNHhl4zS6AaM02Er6NI1kmTQUAPA0KSiwNGV/rTSd3Sw0p1S3NCW2\r\nhjS9lr8072i6NEnltzS9VRY1ZJICNVN5JjWwmpY0y07LNAsjaDRgotY0Z8/cNDpoHTXNUOM0kKJ7\r\nNNrH2DSdtY40BgwfNQAlDTWd3Io0zgWcNEYzTzRSdvI0rIV9NOvrqzSmipc0tAruND6QmjTi6qI0\r\n91QQNYXh0zTeNj41xiDHNMoRkDRLKYA0ilciNVTxAzUgZ4s07lOtNE1XOzTQ8o00Wsh+NK9uGjVR\r\nP2M1AnqzNEdXvDQGeiQ1dDMcNbRRJTUrXrA0GgG/NB7HBzX8Hq008nWgNCr2KzV5hSs1LMYdNXNp\r\nqTRtjYE0mDmlNGj2vDROBbQ0froPNV2oyTQUGbU0agieNAUYuDRA3A41avw4NRSBvjS4fus0bNc4\r\nNBXu3DS4mZI08M55NCvSyTTgfmw08VPWNPCseDRcTrI07IoKNe38vDRe2bo0oFH7NEEAkDSjSOw0\r\nX9lQNGykeTR0CA813ImJNCtc5TSu5xI1dTesNNMb6DQF2uk0mYr4NJk3nDRw6sI00zicNOTnmzTp\r\nwcI0nkTqNNeh3jTsM6o0H+yoNBvOvjTEscI0F1hqNPvLTzVYBuw0XOrTNDWd6DQcjI00M9H/NPZx\r\n4zR+IdI02GSONPySrzRrBF41e4gBNSjAljQYJEs09o6dNPTPwjR6W4w06AAbNXlBvzTOLNA0m3d1\r\nNOQk5jSGo8Y09KkiNRL/1DRr7S01uCrTNGXD9jTPbzg0Zo4uNVJSVTXZNtc0Vui4NLbomDTWdbs0\r\nrIjCNBAwDDX20hw1yPfbNCe1hDRS1281KlsVNcI+8DRuabI0+ed/NF5/+zRQUc40caa2NCyJIzUy\r\n2os0qNu/NElluTQZyqc0VjMwNdwsWjXXuRU1/7bWNJM9HzWBCGg0+ZxhNCAcYjWqAEQ1sqBQNNC8\r\nmTQ2Frc0XM3XNIJQezSL8Eo172qkNEQbTzR/Xc40AyEdNdt5sDQ6KyI1sKXLNHqz9jQm9UM06rYv\r\nNQoi4zSbh640RbeHNHqTaDT6vIg0Ce9VNAGLujS+c8U0ghbxNAc6mDTLxdA0t+jKNCzx8TSK0Qc1\r\ngA24NKVpmDR6v6g0hggJNVxB5jQfVxM12bwENQJ1fDT+Nms0u4owNW3mkzQEzLM0RARXNNfdRTWX\r\n4uM0SQ8qNZOdcDQL7iQ0NnmINHNiCTUwHzg0FQ8ONVx5kjSpa081L9C+NEpWrDUZjbg0qyEONe1P\r\nLzWKirc0Rt1XNLLJ3jTZR9c0v9stNRebCTUeVO804yvNNAFAlTRx+oY0HG8vNWWotDSWYjg1/QD5\r\nNP5rHDUuAqw0bAuzNJvoRDWlvsE0oleGNDlWwzRCskU06+pQNciBGzVEWPs0eEqJNQAA8jTL9J1A\r\nIj4vPXISTDziPs87GcIQOw5XQDuXlRU60YaGOoqfazrV5+o5FFDNOdB56DlN1UE6ILGvOWtkSjna\r\nyMs5s5OPOUtqvTk5vs45CYVUOZ4g2DmY7K84HgmbOQc6HjlDP4w5GLExOV+XDzlRrzo5jAcbOeGd\r\nhTmNdOk4DvqTOAuqZjkmNNs4RpUGOZJXODk1+RE5AlLEOFI4hDhNYbc44xO4OMxbwjgvhcY4+J+b\r\nOOmHFzl8To84Z8qiOPsQvTi1Jfw47KbfOHZYpTi4Zuw4zUikOCg9xjjujMA4OqD5OJPrfTjag1Y4\r\nyLDQODfzBDk58l44+i1/OCvDOznkuVI40uqmOJYGfji+Gss4E7CxOCaOEjlpWXI47nOPOABKijjn\r\nwYY4wQaAOIawJjkkV1U4sVCtOC79/TiZ7hk4nrnUOBfOyTjYfGM4pskjOTMmPjn4oDg5FoawOEjI\r\nATnBJqk4DXLhOXm2oTh0i585MpJ8OVLkXDnQ4A85jDgbOH+fjzinHbg4oIjIOAJSfTj4+aM4Olyp\r\nOFEdczi0Rzk4u+OXOAXmuDjWgQM4f+CYOKXnNTi8L6U4IFuuOJrRjzjd3Qk4q2U4OE3D6jdGHBw4\r\n0RZlOEONyDdyl704lQ5bOPR7czgWxZ44neKFODJOMzizKDc4qSXDOKH8ajgnwp04tV4rOG9GSTgi\r\ntVw4U2lxOPH4HjheAsg46NU3OLENiDgXR1g4hUdnOBBmGjkgqEw4R6vjOFOVcDj9fII4Ll0IOPzI\r\nWjgU35s4gRNTOOqQJjimOSg4Srf5N/P83Tffi7M4UibXOAiFyDjQBGY4YS8NOPR4PjhT+vo31W+B\r\nOEYPeTidGMo4C/ysOFYBSTi+Ygk46tZTOCwvkTj+Fj04cQ4UOE6hPjiIf1g4p684OItfojgZLh44\r\neav9N7Z4JTiA6A04Y1sdOAdsvDgm43U4DtQTOKdlUTh+OUU4uPROOJ7OFziMNQs4nom4N7sJgDhU\r\nhUo4Rtl6ODiWqzfU4wo4hFgxOPSqQTgFRQo4JpHqNyzlxDcpOkQ4rWxMOMj/DzhzhR84WVbNNyF6\r\n7jfRRA04Avo9OF08uThPyM43WAfJN4HOQDjcfQ84YjAZOPq7XTh6woU4riLlNwOJJzi1UOY3/1fm\r\nN4jR3zea3R84OgkBOEzwyzeayC84xPPgNwH8yjcfijo40MQTOPClyze6RNg3LH9BOC8k6zcaUUA4\r\nOI4qOOllyDiRxgk4hAKcOHwS2zfJLgo4ElYwONMImTd8n8E32k9sNxZZ1zez2SI49NAwODFloDen\r\nV+c3YpsNOCoigjfuGOA3IqtNOK6H+jcySKk3mhVUOHknKzguT9o3RDi7N8yDsDcOfDI4FfcMOB3L\r\n8zeuReg3Hp2iN15RUTg//Rk49LGCOA6OmDdQo9Y35wRHOAzsjDefImk46xB7N/fYhzfiTQQ4ny8D\r\nOBGItTe3dQc4+fD0N6z7eTetJSI41ke9NzyB4DcqdrM4Gm3XN33SqTcK5fw3OuxROKyc7jeQQ/g3\r\nDSkWOGIhsDcam+Y3/uaDN64pJTiCwPs4M/3aN7lx2jfLt2M4A73DN5MOYTf+Tgs4zt2rN3JCyDdD\r\nM+k3yuzPN7orMTiEEOw3Gid/N4p7Gjjuz543T86WNxEzkTepQgw4ZI4iOI1clzdtD7o3bjqcN9PX\r\nZjh4jvQ3VZx6Nw9ykzjgEw04bAoVOGETNzeh1SQ4/ImnNxTjszcPqew3OIFPODT6+zfYTZY3cpfK\r\nNw7Ozje6TnE3P3uZN1vLlDhDPec32iW8N5nGjjdu8I83TPkaOAH/AjhZNFg4cNWQNwwTuzf4E8c3\r\nSK3AN+iUpDeL+w84YDKeN4HACDgQBMU3RyHlNxe2pTegpdQ3mdgNOCb/CThnBQo4cOi0N//CXDhG\r\nXO43DOrQN7M0/DcvBos3QmKENxRGJTgYM0o4Q13oNy1zFTgFSi048lxaN5cw7TfdWBk4MqkuN3v0\r\nzjeQC+E3FpMHOE+SZjdUxvU3/jDMN1NJDzjNyk04lULYN7zMxTdK5vs3bE8dOL8DHTg+NbI3tbg0\r\nOFSA7zc+3ZM39RCwN8TBIzgC1pY4It/hNwI77DdA5t03/nx7N+jcyDfOVlE415WDN4FxjjcvpMg3\r\nxpIsN9MZ/jed8nw3VjKZN4hIATjJq9Q3T/QhOAEVtjc8hJI3pSxzNxXliTc+ddk3P6tbN2XW1Tdw\r\ntQE47FS6N8jugzhPSJ438XPsN5x2gzcRaQ44qfehOL0HvzdgA9Y3LblPOAhODjgo3iU4GM0KOD9I\r\nvTfU0JM38H6tNxPBkDfEsec32jLTN/TkfTd6KvE34Dx4ODsz2zc7aSQ3CN4GOBwYxzfsdVg4aIaA\r\nN0QJrjfDiJk3Z2EWOMSN4zdxvI83HdWSN91zlTdOT4g3VuTzN7bmdTdil1E4PzOnNyPSZDeRsxk4\r\nlR7qNx7bnjdrTcg3F1QcONZd1Te+TxM4sBz0N2ihVDip1PE3AxHkNy+5wjcEQ/s3uf7zN228FjjH\r\nXY43yZGaN65qZDh0+bw39kvzN2wR8Tepxlo4C5qqN+XlIzh4ifw3rVgrOCFk7zdc4AA4m4hTOI6M\r\nkTcgOQc4Wd4LOM5XJDhxwR44wlhqN59l9zfJsCE4/8gSOMuZNjiyP8c3HphFOOLQRDg1/KQ3+Bav\r\nN3/7hTdw7tI3osXON2xP1jeG4j84SCRmOJHXhDclEnk3dgOQN0WBtDcA2mU3LER/OAChJzgiH5I3\r\nbu8WOMqaBTj/2R04TNuoN3N8yjcJ6+M3cU9aOCj0LDeZF4g30iIKOKl+8zeIKAY4EDHIN3hJxze2\r\nNzk4E2/8N4zDVDeMm2Q3I+rXN1Wzuzcc2+83Kdr9N/iXvTdGaKQ3rUndN1r9kzfsU5I3l56lNwKE\r\nrzcdzrU3LnamNwuyAzirov43g0uWNzQ44DcD7Ss4SfodOJ7GITjKohg4O9v6N4y7wTftfz84sSCk\r\nN/fshzdO55036VgRONs9VzhUndQ3nKrcN/69czcwh7Y386QoOCbsHzjuvcA3ZdqrNyaQkzfmEps3\r\nYVENOCI4FzjED4o32lZGOMscVDgnsoE3uhIHNvIXFTUan1k1vqYZNRxCYjVX8Pk0bq/UNJkwozR4\r\nsxs1Rc/KNLVE6TReEpY0pt6mNCEFEDWl9gA1SBpKNaJaVjWjgRY1PQ+/NBTvFjVYwew0/RNcNZ53\r\nlzRy4S81Avi+NBgnATVR18c0PIIiNbarHzV3k9M0/ZcSNc6u2zStWEc1GQEYNRO1lTQZohM1+6ry\r\nNHSjxjS7H4c0llbZNKfjZTXsqHA1Og8BNdxeGzUmY/Q0FE6iNAmFKTUK3cE0LGX6NCTApTTZMN40\r\nJcMGNdE8pTSNwJ40dNjkNOXysjS9PJ80QVePNIkVnTTVFEk1q7baNFrWJjWO6Mk0y9TPNIEM+DTi\r\nQzo1JTMBNU76/DREr7A0+B9WNXXisDTy76w0q7CWNIBSWzWgjZE0YlS5NHeJwDRk84U0bvh6NVvB\r\n7jSMcKw0k/1bNRur3DQ/OG40K5ADNfQr3zQ1LqI0sxuZNAT65TQarZo0MN6PNNiTizT5AOY0Dfe9\r\nNGNHCTXLKw81QvK8NKR/wjSviAk1F+nKNF4/zTRAt740fAcrNEkM0zSLHWo0YC/cNEwWmTRGS+s0\r\nVPDhNOvswTTLhBY1uQCLNIqJ1DQS6kI0hSSaNIN5hzSp39Q0+yKFNOXtrDRIiEo17kKfNMzVlDTP\r\nUM00tPsHNQf+BTWxiMA0qTGiNMwNrzRE8aE0coYQNXZzBDVKkUs1pGXdNKDfkTQC37408aw7Nd2j\r\nOTU5PaE0w9kzNZVSnDQsRIs08KItNeTjXjWGbYs0jaKINI8ZjDW5nIo0WSYlNS/xFzW7zqE0CfmQ\r\nNGuo4jSSYhw1ssrNNBqM5TRwBXM0zJyENK9M3jQ6eLI0foDoNBLIpjRMUqY0VE3DNKLnyDRwp+g0\r\nXRfqNAK2ODVNswU1MJTHNPhiGDUNPBU1Ay3ONIpMjTR0/Zg0JIWVNETECDXKxiY18TY7NQTohzTo\r\nP5o0QLfBNPVeZDQsy9M0xAHYNHg+3jS2zKI0bHWiNLbNCzVfLYE0HyM0NBgBmDSb2Oc0XRj3NCRs\r\n+jSEH6c0pq6UNAnscDQqukw03qK1NO083jSMDHo0bGkINfG7iDT6y280srqKNOgOTTWPaZY0kEeJ\r\nNC+jrTTuUhI1xJjvNEjvQDQ73Ao1uJjaNAAC9DSLf4Q0vcDANH9qszS4GRI1Pwj4NLiLrjQAiug0\r\nbqi3NA43FTUajMQ0khgwNaJcczTpv740JggVNVRakDS+pww1w2slNfGKITUW75006QIUNTK8yTR0\r\nvBY12HirNJYG/TSfsBE1ZcKmNPrJ9TTw5Is01CqpNLCQwzTXt7o0CoPuND+/ojRxGIo0s226NFTe\r\nvzQdWaw0XtuyNN4N3DRIYQM1QQHmNJLaAzX8d/E0H0OmNBJyRzX+YYY1Yt3BNO5qAjXEqhk1UAjv\r\nNFzY4TQgYYA0KdXCNCsisTQMfWg0tQtHNKnHQzVcx940LVraNF9zVTW6lIM0IsZFNS7dHDX3qrs0\r\nMC4xNZs/wTSovug0pOStNPd5oTR9+ZQ0hcwTNSY3EDUIDlc0Wb4BNTsJJzUqW1I1ObUpNQqLrTSu\r\naEg0UhGdNPRj1jT1YOU0JD/bNPpCtjSVBxA1PvbxNHBD7DRyOSQ1+pEHNeigyjTyF5g0EnThNLix\r\nkDTjagg1aFpuNIDrqTTojwQ1ceyWNKR+mTQ+mdw0SyaCNfd9ETRPiIM1UMiENE3HrDTk1q80aY/V\r\nNOWHtTTi98o0KG3+NMa3HDRxQDM0GvWuNLaQnDTEnFg0hZ0TNRceKTWPMgc1x+xANfnYiDTXdB81\r\nirfRNCJAyTQ4ZAc1jDeJNHq6mTRJsgg1KC+nNDPqCzXANNM0wGTgNIlR/jSWGx816or2NPf3xzQX\r\nHdU0MnPfNHsjCjWxl1o0IGjCNOIr7DQiQoA0O6EXNXYV7TRR7Yw0VvdjNDH5QjSdUmE0Eu/9NNyz\r\niTTuUbg0Q98QNVbFxjRitaw03IUgNZC3kjQTGbA0kyGPNKgkUTU9nKU0HgWENHfqETXaHsQ0DIl4\r\nNLncxjT69a00x5f/NNYS4DTnlCc1VmCnNIBJHTUYoLg0tXXyNOAlojQ++vA0VI+MNM6ZFDWWSxM1\r\nMGDGNKIOIjWHFMo064XbNJKfyDRvj6s04J5nNI+HIjXojSI1VqcLNZ3k7DTIshI1ZEZDNEc/tTRK\r\nko40fr9oNIMasTSGBKE1ZO3GNIAD1zTmfWg0MR2fNGOWjDQjilU0u3TANNbodTSOIJw0puusNPaX\r\nWDR0UpI0MHjiNE605TRcx5k0G04NNVD/RjUogOs0LOV8NTNN+TSAKW00CnTBNCvWGDVRtpA0YpyD\r\nNQ8kpjTqmAc1iDSgNMEZfTXn9ao0um5INIgjazT28P00ATPGNIUoUjRPTw40AAAQNQ==",
                            "noiseTrainingType" : "default"
                          }
                        }
                    ],
                    "start" : 24569,
                    "duration" : 3624,
                    "mediaStart" : 0,
                    "mediaDuration" : 3624,
                    "scalar" : 1,
                    "metadata" : {
                      "WinSubProjectDisplayName" : "",
                      "clipSpeedAttribute" : false
                    },
                    "animationTracks" : {

                    }
                  },
                  {
                    "id" : 125,
                    "_type" : "AMFile",
                    "src" : 21,
                    "trackNumber" : 0,
                    "attributes" : {
                      "ident" : "section-16",
                      "sampleRate" : 44100,
                      "bitDepth" : 16,
                      "gain" : 1.0,
                      "mixToMono" : false
                    },
                      "channelNumber" : "0,1",
                    "effects" : [
                        {
                          "effectName" : "WinCompression",
                          "parameters" : {
                            "attack" : 0.0,
                            "gain" : 9.0,
                            "preset" : 1,
                            "ratio" : 10.0,
                            "release" : 3500.0,
                            "threshold" : -20.0
                          }
                        },
                        {
                          "effectName" : "NoiseReduction",
                          "parameters" : {
                            "denoiserAmount" : 20.0,
                            "denoiserThreshold" : 0.0,
                            "noiseProfile" : "yqxxPxAmLT4Gdbc90NiSPNa0ez2EPIY9jVi5PT7/SDy8KY88ZaDcPK4RVDxgizQ87aNsPG7gkTtM\r\nwIA7KHgNPDhCBDxH4Dc7npxKO8ZdGDvm+Uk7+7StOzRZCzuRaec7LtTuOxDZXDvAadc6+rV4OrFZ\r\naTsTlwc7LEEcO0pnszpGGXw6ao1DOueVSjre3PU5ps0ZOmE26zkLEk86yD1hOkQL1zk+bWw5ijw/\r\nOf+GATpoFYY5iNaGOTjNBjrwszI6PMaiOdwzZzl1RIk5WJIzOUrDKzoQqhM59QSnOQ2rHDknIRs5\r\nZGinOeaaPTo5ors58wVYOVy3RDlOWbY5olnDOYq7xTlcZn05ahldOY6AYzp7vi06lpw7Otik9jkG\r\nEIY5VrSBOTAe/DiNE+84EE05OUeLMznwnRM5sZgEOdDSKznLrow5RZ4ROey4bzmlvmQ5yExoOVhl\r\niTlOY1A5ZK+7OQ5YkjkSQxs5F0soOc8xazlEv0Q5q2ooOa7UnDhmPCQ5IXcJOZaZ7zjWwG04WCwP\r\nOWK75zix63Y40PkFOX7y/TiWyYM4dAj5OI5Pjzh6nhU4kIG6OGbkKzhhIa04FfdlODbBtzgl4iQ4\r\n5klkOHXPkTjxOms44+WLOFZ5njjYFXs4s3eiODgo8Diw6JY49jk9OCF9EjmEs604PjvuOBPt8Tj6\r\nZWQ4ftuTOD9fKjkI2B84g3++ODqYezjtmpM4pjRSOGsJ1DdM/7A49JyUOJhEKTi2E7A4sDSfOCQH\r\n/jiSs0g4deQSOUD49zjE9vo4jB2aOBK8SzneHp04uzf7OAAufTi3C9c4dSzgOJ7Z1jiyFj84fvfA\r\nOJ4WkDiMpgQ56dGfOGQuxDgVnFU465fxOA7c8DiTAME4SeMxOOFVKjhoF2M4Eo6KOKQUZTg/TYI4\r\njQ9aOP2JojhAwls4IOu9N4bJRzgDkpQ4wc9ZOJY+HjjTx0Q4BAgbOBQWFjhI/9c4D+uXOFlNaDi6\r\nt/A34rk+ONl/vTjN6Uw4/g8nOCuNTzg8Xow3a1eTOL2RyTf3Uf43v5BDOK4ujDjNhVE4EhzsN7vN\r\ngjjS1cs3IjqhN8o/FDiqW6E3/VWJN2RSAziI7404YB8ZODRTJDjDaGg4F1DaN26Ipzg5Do44rI1N\r\nOIKj8Dfcgyk4GCC0N1R9rDec71442nE0OO789DexYUs47rHwN5LsGDjbKiU4irMHOIpTfThy3mE4\r\nG38SOBKW/TfIgTU46u1/OKGLHjjL8yA4dAsTODyjNziWwBM4iiEVOOAkNTiU5104oVFUOE7NTThy\r\nVzI4L8zYOABFFTiSFRY4xRpVOOfvijiUi8M3lmRWOFofazjPeSY4S51HOAzaDDh+0xw4RBgBOLE2\r\nqTcSawc4Flq0N9zP9jd4ock3q8W7N5UMwTesY7M3yB7bNxFMFji1fRs4wNLdN/wilTck32Y4bEvM\r\nN+LZDjj3wa83UGG+N0RpjzgmMio4tPXRN7y9FTjWZQg487VNOM3ZDzikyhQ4g6/DNw3nzzfwaUc4\r\nDLTQN5wvDTj8sck3zTwMOFRRIDihxj44EIxJOE7ILDg/wR04OqoBOPzUlTfSc7g3ahy9N/Dfajgu\r\n+bc3AS3HN+KlBzhS/Oo3IOofOJz60DcZoNU3m0zJN89wKjiWteg31EnsN1wO1jfouw84SUOZN3KK\r\ngTcY+Wg4FkLTN751CjjW7co3OznYN8DB4jc4iQU4fCUoOGdHyDdqkIU3ziDbN5xy7jdiXEA4pLgf\r\nOOEjCzjptC04jFSUN7QwDzgOmJ843cAeOICTCTgh6Rw43K5FOOA1mDjLh+Q3ZqEOODsmPzhGGok3\r\nCf0zN35sxTc2mik4wbuZN4e0RTg3ORs4/lV7OD7edDhfLSY4ObuDOH/E0zdpncU39JqqN2rXpjck\r\nFhU4XPPINx7rtDdWO/w3JoNhOIlpLjh169848oCZN2lPszdwLbI3FZsEOEchnzdBI903/ub0N0H7\r\npzeBrwY4ryAiOEJEYzc45rE3hmoROMiE+zdVBa03F/tSN2M6FThNiII4EtfmNxkvNzjGtKY3B+Ps\r\nNwHSyDde/AY4XLu/NxMnDjhJhAQ4IGqhOCGkJDi6DvQ3Ne4FOEiAATgWxPM3SLnON6qzDTjE7mU4\r\nXjLNNySQDzh6iLQ3A5oMOO2Alzd6wto3AtNyN4KoOzgheQQ4VKfRN5pH1De0nvs3sFYXOB4CtzcL\r\nz7s33LA7OHirMTissT84194gOKt8SDjcGHM4w1NlOKKtGzj9Fmc3/XevN9nuCTjrUM03xmweOCJx\r\n+Df+iK03y3ezNzLx/zcx7nw4VK/rNz2R0DeDcdU3aLmZNw7nVTjclOw37Zb1NwKk+TfTwas3h9sh\r\nOPeYkTclI1U47q3NN9TmWDc0mAo4Oby2N0/qQDiKTjU3tpgrOENWMzgRscg38vKzOLu8gDi9E7s3\r\nBln+N9WfXzjWFhU4G2HxN4e2jTfQCLI3GoseOH1FuTde1Dg4XkUxODPvvzezMX04iwexN7ohEDiG\r\nEdM3C8ikN1R89zfkQ9M34MFGOKkHGjgjZ7w3hQ2EN5tXGDhe+gc4dUglOOJrtTckebs3KogUOKPU\r\ngDeyvOI3zINpOIJozTckgLE3juAMOHg3DTh819A3dLT5N8DWPTh9C5U4Aft3N5MdNjgzUSw4nIus\r\nN0r1VDgwPdE4Emq7NxHTDzjVUAQ4QMjIN+6dMzgQxv03FcRDOHVR6DfIGSk4JEcIOJihkzcAQJc3\r\n5h4QODK3HThDYxM4trYHOFDXqzc2zEQ3lpWWN+Ig0TcYkdA3yqVDONyC1Tdk0vU3sMroN/q8QjjJ\r\nW9k3R6QoOAmwrjfgMQg4Cu2MOEiyrjc+Es83tQ7hNxaiFTgUqwA4b1eTN5Qd0TdYNP83icSFN0Um\r\nGDjc2B04Ep/TN7MXkjhPt9w3Jyq8N+VHtTcYcPE3gA+1NyLjvTe9RFo4SKg4OC3VGjh43fk3E1vd\r\nNxb02DeVtx04gb53N1Jw6DcCS243JCeeN+78LDiqLoM3wllPN8JR6jcfuc03dmspOGXuejdteNY3\r\nZpeONxyIvzfalbg3daqyNz9pezjFr0E42If7N4j8jTZg+F81ESl5NULXojUBNZM1dTcaNfqjGDVQ\r\nbYg1LUWWNdrH9jWq5YQ1yTezNQxl3jWYq641YXkdNcCYSTUrmWs1XqFGNdErRTV895Y1Ctp2NTS4\r\nVjUWWKg1jpmCNYGUijXq1r81uaEkNSHVNzWoMSU1aUKWNR6JMDX5USw1SOhdNVnJmjW0nls1QL3C\r\nNfYwGTXbW5o1sDZQNUnF5DVCh281kJFbNWjnlTW0cTg15gdPNSIW2TQEziw1lgAKNV7FVTUSLLo1\r\n2DVuNak3BzXmUrY1KGiSNb8LVzUXJ7k0gpUbNRt8AjXzk2E1aVRMNd+gLzWTSM00NDECNR0zmzWq\r\ndcQ1ewiTNchQ8TQ0S5Y1N0JGNU5PDTV+eEM1Seg8NUdp/zTskCk1oTH/NGCXvjUYLDM15qHTNEf4\r\nqzVuQUw1Cki5NIpEhjU8CuQ1yvJENelKgTXO6SI1MXtYNW15ODUSx4M1o+VoNWxlKzV5ahI1Xd5Z\r\nNRlPRzWC2S81/5oPNXVVOTWrhDk1/RBINVCFzDQKnmQ1/tOWNSW+KDUWBX412RUYNQPZMDUECV01\r\nbHhJNUzzAzVpwmU1v/qgNXXn/TTdtGg10OrhNaHXOTVERYY1rVOZNVoZHDW66B41g58qNVQs3DSi\r\nXaI1mbyPNEDmAjXzeIU1qOBgNeAigTUCfYA1dBvnNKvjJjWiKmA1dnksNdCIazXsdYE1qu1VNVKj\r\npjRF7os10OefNTYRSzVAZIQ1vzjuNE+M5DT1pjY18x0sNTWKDzUqCjw1+mA3NYABSDUOVzw1jUAU\r\nNcT+ITXpbiY1qulhNVfTvTWAPd80YQA5NSLKTzUcvz41ybxANWNYYDVaPEc1upc3NUOtWTUBDII1\r\n9l+ANY2DWTU9DJE1urhjNWViOTUgCgE1m5R7NXYm8TQaXDc1vbJaNaa/9DQ2e+80clhlNb1bFzX1\r\nmUk0IWqiNaexBDXVYU41/kQ2NWR9JDW0vOA0yZLTNRXVGTUaiDs1MBiWNPqiCzW8CMc0HQBxNWQn\r\nADUYHhg1981CNYZfZDW0gQY1uAA9NZWCRjV+/zY1OJLmNFdc2DRyTvY0ilM7Nf3c2TQOsQQ1hVFp\r\nNDgjdzWlhwQ1l11UNa6MJDXMoTA1yAmZNbcJRDXfBgE11khZNb7nrjUQnjI1r7UlNb0oBDWS2ZU1\r\ni8VwNdLXFjUSAr80LZVtNe61nzWAEVU1dDGVNTcFPjWnOGg1irusNGCCYjWdChg1UlQPNa75fjXy\r\nfNE0yxr7NNYC4jTZAlY1ch88NXcAMTW1rBM1Il88NUInKzWKEw01DjEwNU7yMjVzTyY1MKMFNRpW\r\nTDUO/t80kT4NNTwaFzUiECs1qTq7NWsF6DTk0RM19GHZNJKx0jSY7w80+jDSNHJH6zRO7RI1Zx0X\r\nNZgoezXGNKk1pH+1NZx4cTWG6iU1nFhSNfw94TVerRM1JBiANZSjpDRQa6E0jIdcNcZD9DTr9mY1\r\n6nU4NVUwxTR4V8w0iM6ENXw+HTVRwBw1nPruNGLQWTXuWIk1XghyNRj1YDW7MNg0VVEhNXgeBTWZ\r\nbhU1AukMNVIJSTXcXCs1ti+4NdyzFzUoGr804QoUNSgCnDXnXE81PesyNdG9uzUsSUg1latVNVQB\r\nCzVG3E81yD2ANTsvSDVqU0Q1+chWNazAnDVFmxA1BAFgNVyw1zQ4W4Y1iVcHNSvcAjUiVu40uYGn\r\nNE67TjWL6k811B9bNQvuoDRg8kQ1NoQ8NSutizWE9tw0+m0/NXQ6uTWckD41fuBLNZhgnTVjN9I0\r\nHPznNWSMMDXgVps193KvNFjBFzUYPJc1nNS0NBaxKDXvPPc0JjQrNXI+CTXFdgg1r50/NWyxZDVQ\r\nQ6w11oJMNScnCDWVk2U1FOzhNLuTOTUYEwU1dietND32WjW68iY1GiWfNVQxMzXfVqY1Frk4NczL\r\nNzUxAU81oW03NdescDVlAAI1FXqrNWD5JzWX8Q41NpskNXZ/KDVu0+Y0rjMVNddb3zVSOTU1WQAF\r\nNXuyZjVh28I11T5rNbwtDjWCyfM0vapRNd8o2zTgxf40sKHzNCDOgTWmj9c0kWZpNeXlnDVXm0s1\r\nW6aDNUpJ2TRHPUw17uAzNegrNTUqqaI1x0gTNd0QcTUUfq401knZNLwgKTVwERo1dvRwNTBNpDUs\r\nYSE1UfWNNbndPjX4iw81QLsdNXBubTWWq+E0ni9MNUFTQDUNj4w12vKdNOpnhjVqcgg1yRdVNYh7\r\nQTXvZSs1Tn3zNBfwBDWBQQQ1iqYpNQavMzWkdPI12gi5NKxAwjXbdmI1TL43NTBaJDWqJes1dVUD\r\nNXUGdjUooWM0fiUoNcd1DDWCTDQ1//eINH5CgDXHJ0w1wlA+NfBclTVfKnk17KKbNABAUjWQEuc/\r\nx5oVPa+9ODyx6Ww7g+gnO9rw+DryiLk6Cko9Otw9bTrcE0s6h6mmOvLkBzo4NPI5RVNuOYVi3Dln\r\nB4U54zzkOeyXyDk2PaA56s2kOddH4Tm4kyU5dQsuOWbWIzl0Rdk42bI5OaM5rjjoVJA5HCkzOS4r\r\n+jh17ik55931OLoWJDmAjO04aEPVOGdlETmAraY43MNROSykHjlmypo4Ya0KOfhErjjLmjs5+B0y\r\nOfx+YDlueyo5lK1CObA8IjlMsRM5XgCIOBfRHjmDifA4l6rTOLqLiDhShBg5wnrhOLJ2EjlM4H84\r\n2RbTOMZqmDgD8Ak56ECbONWyDzm8w5U4sLfpOGg7CzkFCNc4bdq9OK4LAjkbwhA4zBgAOIKD4jg4\r\nd4g4RzthOAvhFTm2eLQ43GejOFJhwDh7OQk5rHnHOOQtHzm98eM4aNoaOU5FCzntBzM53lLSOCkI\r\nTjnIMYA5PJpJOevP0zh5p5g52iRQORzi9zi2Ims5V5PWOCmGyjguDHA5E2a3OKS9fjj4ivE4uOuJ\r\nON0anDi0e2449MKSOOYj9Tg8kLQ4mDGkOOjISzgeFDE4/FeaOExDUjhlGk84uEa/OA+KkDgCI0w4\r\ng1x2OCbfUThxybM3zjFrONvvrjjh4hc4wJL2ODeuEzkGQnQ4u7+ZOL4wATmOH9A4LtflOGuKwTgc\r\nG7w43l/jOLzIqzge4XU43h6UOLgl9zhr7Wg4/V2AOHL99jhzaw848r09ON9Rgzjk+/I3slqkOK6T\r\nfjhNtEI4oFleOCo9AThDWW04vDGqODbiuDhiVxc4ElDYN2P1gzhSQoM43T8LOBLL6DcIq4g4fmIJ\r\nONL6qDjm+/03uloKONKZwTimAEI415R+OIiCBDnd7Y44GhaFN+VXFzjzLEc47kiEOHrkUTh4RT84\r\nmiF1ODZjPDhMKMU4l8mYON7c/DdbAC84rQzJOAXJGzjGgAo4s/UkOEJVojiPvWI4HfyBOAvWgDhq\r\n4rY3jlAWOMzr9DfMLsE40pPbN2UxgTgm4843np84OKDwVzhHQqg3F6q1OBuuyje3di44eeYVOLX9\r\nnDegUYM43LRxOJO6PjhtPo04j3WWN94jUjjzDkk4wTlWODTOEjjTR/Y3Au3yN+Ew0DdQxiI45cfU\r\nNygPqje7qCs4gitFOFpi/zfJV2k4XXRWOME7jzfUOSY3PmeGOISYLTinqi44PECEOO34pDdm7N83\r\n+HVFOPKPJTiAY7k4InUjOJktyzghy983krYoON0IIDiYzCA4Ran5N6mYqTcKgiU3Pc8kOEsmBDg9\r\nVR84SXfdN+6TBjjapfQ3/FfDN+uxqTfCnlM48uvIN1BIgDcoRAw4j88XODdKNDhM3443fFdkOJEh\r\nLTgoYKc32iK8N2bTozfeLw04lGiRN3Z//Dfy+JQ3LMvjN8v6kzccAN43WgbUN09t5jeA9IM35784\r\nOGv40TcY4kI3r7M1OEz78TcRqmw3ttbMN6ImGzid99k3YvpWOPhELzgjbxo4xttoN9zJrDfNeUE4\r\npDS/N7cHCzhUlRM45CDNNy+nbjiFRIg4TuAdOFQjtzfISYw3MWmHOOgb/jcjulQ4lGkXOGC5YzdY\r\njMQ3nlnPN4Am7zdEiOA3x948OGdbyjcKJDE4qKwwOPefGTh6Hgo4xJoGOOsXCjjmkjw4xnaNN587\r\n8TeqsPI3RQESOHvd5TcXIfw3MHahN3mwqTc8NOA3lO/aN741BjjnGuk3a8c5OOzW8zc8ZGc4knIu\r\nOMYdlTchMto3jvXkN5okOThF0YA4EtmLN1Y/HTjDGbo3nio1ODLE6Te8IeI38lWLOC3INThSGsk3\r\nqekCOOTBFzjU3jU4og+zN7+XjTce0O43wV77N+bDPzgsDeE31XedN9jj5TeDsd83lGXON1FMLzh0\r\nAdw3Apv/NzI+/TeRjMQ3IC8dOPjfkDdS2AA4U38vOEvCeziUa7k3/T1+N/mX1De8e/Q37c+SN1Es\r\nQTgwxvQ3ZIIYOAIsGzgpmRE4HI8OOBFkvDd7Z5Y32vThN/KiIThZNMk3DahSOADZAjgpOiw4rDD8\r\nNzIQ5ze+Wq03Pek+ODRhAzjMO2Y4cgHyN8NGFTh7zxg4ym04ODoXSDfAVfI3fBiUN6a4cjcACsc3\r\njA9DOODqjzc1Wug3asTDN4uXMjiwBBE4yJU+OBmY5DfFsJc3xYIIONSaJjhutaI35QRtOOVSNzg4\r\nRRI4vsC2N9vP3jdb2683rPJ4N3YMUzcAcwY4opbeN0eJljeH7pk3IUF+N04QezcX8h83ZNpWOMRG\r\n8je6PRo4mNGyN12OATjaIbE399PvN5NxyTevd5w3+LE6N+YAhThe/UA4CZzuN7P+ADhSryA4vbAK\r\nOKyfCTje5a43VrPeN2W/ATibZ1U3lIorOBRdijfLhe83K8sCOMGQLDh7fq03iwDHN0qNBjjaEcg3\r\nAYjPN1qY7jeSE603lnwlOBjFpTfQik032l6RN2K+2Te+iXY4oQLvNyoPzjcLtak3mu7JN46JgzdJ\r\nh7E3t6bUNxbGjjdXccA34ER8N5Y4FThaESk4vMMKOGq+LjhbKOM394a7N37UFDjfW/w38Nu5Nxef\r\nNjhcGZk3qvKPN5y+qzdyZq03wKAcONOUzze4HRE49XwjOAo2zjcJ09Q3mCY1ODJ/AThoXkw4jWIs\r\nOHBe0TdBIfI3cPWCNxbFoTg5ggo4r1X4N+7ENTg04Eg4jN6lN6B2pjehLbk3K9nTNwCyCjjZhQA4\r\n/jWCN3GuAzhyDpk3y8MJOONatzd6RkA3Rm6JN8xExDdFPPI3cm53NygtQTghBWg4R+2hN+3MJTh2\r\npKQ3TKWUN0UN/jfKr5k3ZAbZNx6CvDfWlfk304uLN2ai2zd7nQQ454RJN0YayjfaFmc3NuwIOGMO\r\nuTfCEZQ3MH/eN7DybDgH4dM3wP6iN47n2DcIB+Y3+ErGN3EJ0TfoLLI3Xw3nN1K/Kjh8EZ031P4j\r\nOJS7pDfSlYo3fOKVN36ZnDe2EW44NFUxOMmAiDdSpB03HvQAOIgQ2TcbdDs4ocHHNym2rje/WDY4\r\nnyM5OAr+ozck1co3GBsGOAyINji9cOo2WKyKNcD82DVqtsc1caGPNckczDXnPRk1UACsNOECiDVy\r\nTYE1GlPTNL790DSRKIE1XNUONdKHQTXLFtI0lJUcNaKhUjVwE1o1HjXKNESw1jTe2+40Q53gNOHs\r\nlTXao1g1y3aoNKMEdjQIsR81QtuGNayxEDWdfkA13sPUNLGQADVuO7o0lKkRNXS5nDRHzoA0K1Ts\r\nNJYDcTVlA+g0cS0MNVeNuTTQooU0Nzn1NIxkczS96JI0HIG8NIE8PDVM8lE1D761NPLJ6TSAlSQ1\r\na2rJNPpMnDR12Zs0qNf3NAILGzUgINY0k4wNNVu5RDU2ACo1PIxhNbHS4jTc5XY0zn6MNXrwJzWk\r\nFgM1ByCXNN2GmTRc+fM0+zQVNSjuqjQS8Lo0G/U6Nf5rtzRB+0g0PDLmNPKs5zQHJCY1arK/NBdY\r\nrjTQo4w0mqkINU5o2jTNz+k0g2EENXEujjRARh81Wcq3NL5KujTp4eI0HONcNR572jR3JPA0fnSs\r\nNKiNbDT7RgU17LlMNZQNezTQbrk0Cg7KNMSLwTSMQcU09PbCNLjxzjRQ/e00NnxXNBpsizRV8xM1\r\nUwUqNeb+pjQ6hAs1ICI0NdQbEjVnZK00KbjVNK8uWjU+QOA0cFmJNNA1CTUIAN408J66NH4VWjQ6\r\nnTw1Mm0WNXgKJTXPryQ1E1kMNVCr0zTZPQA1SZhpNPRo9DR/JBk1fE4NNYaUpTTS+1c0hLa9NCrT\r\n7DSICpc0hn7INEZLqTSMwqY0g0YnNQJYmTRFqxo1gDnQNANAADV7P4Y0eXOdNCy/6DRW1FQ0Lf/2\r\nNJszxjSIhyo1JognNYctlTTUxeE0YOnpNPbdLjV/ukM1FjQ1NVBPmDSN5Q41tuifNDZb1zTYE5A0\r\nlGi3NFd2lTTWTDA1NLQQNUeEgDTLSac0K0E9NQLBVzQ3yyY1IijVNNZQ8TRAF7809JsYNXdWzDRO\r\nvCo0og4hNXDhHDWOBqE0Hi6hNOZGBDWB/es0dKGMNBwoBDWyINM0On+PNEACsTSKR4g05L2PNJb3\r\nqDQLaOA0hCoTNVhxJzUeBaM0HixkNOMlNDTmiSY1lF7NNOrMxjSmhM40ua+wNDFL/TRKbhE1JSZW\r\nNbNGCjV3Jyw1IGKhNNZcozS3Pig09ybmNImh3DTcGA01G/b0NMqlpzQaZLs0wEmbNJmXzDSC+NI0\r\n2jIwNKMjjTT4VH80y5MwNUVwjTRFw8c0HNpjNQIWwDQkYxw1NrJRNL3qdDQWAHY0ib55NEv1VDUM\r\na8I0VHPbND+DkzTaeDg16x2rND0+4DSjS4g0sFPoNP+7vDRHuYA1VrLrNFu8EzVVzOQ0PacANTSc\r\noTRQELI0ludtNAdplzVvdaY0Rx5eNFGcjjR5tm00UsiRNKVXDTX2+qo0kJt2NMPWoDT25580moDn\r\nNEqp0TQf0Z40oRoTNbaOYjW2BE00hmuiNFvJfDQSbdc0zHm5NHyFoDSAhqc0MnkRNVWixTTLcPo0\r\nWsMgNWLGlTT2/bA0xIduNBuj3DQl0aI0I2rCNKiUEDVNDYo1Ul2pNCmf7zQCDIs0No2YNBTvizT2\r\nbyI1zpSDNLbHHTWIK6Q0hhb7NK6HBDXzCA81naNUNOlXnzRAubE0YLv1NJE7/jQh4O80pPkMNSrx\r\n6TQfWL40AVQqNBzSlzRpfAE19ILFNOW+hTTrirA0asmbNIU+8TTL1dY04epQNVRzdTQgm6Y0eQAs\r\nNSdoGjW5MuY0dvinNLQ2uTSnt9E0KIvjNNzmADVjuKE0C/unNJXXJTXZdvs0msqsNJ/+zTSgS6M0\r\ncPrFNHlyCDXmPZs0x64ANbVxdTTPLTA0q61VNL6UAzU3Cdg00g82NPZWtjTHmpU0h61uNCRaFzXZ\r\nSyg1ahMONV7y5zRwuDc1dS3DNCAI+jQCUsM0zYqWNDKGujQh6Ro19mY0NCLQATXaYhY1eAN9NHGw\r\nGjUA3os0U4u8NKai8zTu1dU0CPodNXEWgzQaiyA1hhP3NOk7FzWC6JQ0kCLiNGLrrTSMMRI1pioV\r\nNSBocDTbfgg1BPu4NNlHhjRYgww1PDvhNB6hsjRmtMw0uv4ANc7sojSEHrM00UFMNYzOszSwtAE1\r\nPIDINBO+wTTJk8Y08NoMNd9ejDRbwEY1FyhqNO82CTWq4rw0piORNAuRBjVs3rA09hl4NGgTOjSa\r\ntAs1q/OkNB5VIzXCTjM1Y829NPgy8jRhutI0+Cn3NMg2DTU71co01S+RNMD5kTS2U780VsGBNOY8\r\ncjR1EZY0qB/bNKJCzTSx3wA1AMnyNCUhXjRP+OE07IHkNC8mzTTyGC41d/PUNNjnuTRDOgs1xiQa\r\nNeqdgTRqQmI1VQGXNIpo0zRjfBI1kIRqNKLOojRuPJk0xiZmNPB86TReG7w0AIC0NA==",
                            "noiseTrainingType" : "default"
                          }
                        }
                    ],
                    "start" : 28196,
                    "duration" : 2124,
                    "mediaStart" : 0,
                    "mediaDuration" : 2124,
                    "scalar" : 1,
                    "metadata" : {
                      "WinSubProjectDisplayName" : "",
                      "clipSpeedAttribute" : false
                    },
                    "animationTracks" : {

                    }
                  },
                  {
                    "id" : 126,
                    "_type" : "AMFile",
                    "src" : 22,
                    "trackNumber" : 0,
                    "attributes" : {
                      "ident" : "section-17",
                      "sampleRate" : 44100,
                      "bitDepth" : 16,
                      "gain" : 1.0,
                      "mixToMono" : false
                    },
                      "channelNumber" : "0,1",
                    "effects" : [
                        {
                          "effectName" : "WinCompression",
                          "parameters" : {
                            "attack" : 0.0,
                            "gain" : 9.0,
                            "preset" : 1,
                            "ratio" : 10.0,
                            "release" : 3500.0,
                            "threshold" : -20.0
                          }
                        },
                        {
                          "effectName" : "NoiseReduction",
                          "parameters" : {
                            "denoiserAmount" : 20.0,
                            "denoiserThreshold" : 0.0,
                            "noiseProfile" : "8/2KQFBvNz3YSKo8GuUiPBXKuDtX9I07ICEUOxK8kjqUE/M6PZ9QOg2kgDo7fk06M0syOkKwuzro\r\nyK45BkrROeT/qjlbFl0596UROTT+UTlILCg5RbsFOaLv3TiuRKg52J0xOSBzazlQuko50unSOEd/\r\nQTlcGSg5mABlOWXbjjkFj2o5pgi2OBUsTjlfr8M4bLx0OW888zjbFzY578CfOMDaIDn6Lps5OSU2\r\nOXd2BDm/EzM5C2JMORYY5DiDzxU5KJ6KOKCS8TjmQxI5oOhzOPTuVzjkTPM4EiCgOES7oDi+r4k4\r\n+Sr7OJfatTgnMN84Wr/dOClQiDjRWbg410KFOCaYCjkdxrc4nZLHOE2x/zjNLbo4IQCcOLUojTjy\r\nwfM4tHq4OQ8l0DhNNz041wf0OId2oDj/oLw46nLQOJlAjziualY57nhJOJul6ThlO4w5iufLOFDe\r\nMjnMTTg5jKcTOXjynzku/KE4MOkAOQ11pjjGJgI5RLqhOP+K8DiB/jY49icfOYReojhzl444J0kD\r\nODkCYDk2N8E4b7ReOFJkejihc4I4IPikOL9jzThZCbg4wJNZOKXiXDhQiXg47J2MOGC4KTmsK0U5\r\na2hYOKJbpTiyLPM4xk1UOCB3UzjuHGo4w+MiOCFGrzihRXo4mh+SOKGA5ziC9G44WMUcOIogoDgX\r\n+b84YZ6KOMDeEThGoz048yJROOGsmjjpnyo4v7BkOAl4gDjgab84FLkxOBAGtDhoupU4RRkUObFc\r\nLzj/lss4ssb8N7JPmTjPq4E3WKkaOHZQ6zc1bYA4iIOJOCliTjgW21Y4hOkKOMRGbzjA3lA4bEYm\r\nOPLbOzjR8VE4HupoOPbILDjRdcA4V3STOE6KezhdmZ44v6UTOAPJSjixpag407FIOBjrQzg2Ygs4\r\naUunOAXloDg0sBg4CrrKOIvsejiO9R04s9RYOLVBkzgpWzI4PTkaOJHoGDgdx7847ePWNz8WPjjs\r\nmws4UkZbOJgQiDieg0o4wMrjN+sVATh4GQM4FMMVOD46Ejje/as3Sv+NOMyB7TdlaJw4QzJ3OA7K\r\n5Tebb0U45JaUN88P1zcPzv03Br0xODUSVTjVARY5Vq0IOArhLjg28oQ4gPkWODPfBzicFWQ4jkZR\r\nOLj1LzhvqCo4lyYbOFJY9DeYDTI4I6qFOGCvQDgD0V84H3gUOHVGiDhYGOk3NLbwN4acDjhvv2s4\r\nXwQdOGgbFTiFcIk4xCzaNwvhFTgRj3g4t1fENxD10Dc2yTI4IjTkNxhj7DdKyMY34qPQN6NtqDdM\r\npkY4xbrBNzZOHDh5NSQ4Lkb+NwyxyzfIK+w3rrNtN6A2NjieCGs31VstOA6JgjcB+gE4WQf5N32e\r\n4jd88Do4w1sjONPMoDfrfqA3jrTGNy9TETgQvcI3FbQgOOEeBTgyzjo4Z52dN91jDDhH4jo4vyrl\r\nN4QKnDjGXok39WpWOHZQGzhP8fo3hWPPN4BMTTiWHXI4u8MxOI5bLTj21sA3kyTLN4zcRDgN2gs4\r\n3vMuOHdVMzi1vIM4NtDtN2viBThQI8Y30FzUN/jGCjhVNhM4fRXdN5/i3zeuMb03bbRiOCmPujeG\r\n5+M3HhE3OOu94jdfdRY4jH+eOJ7ZIziGmQI46IXwNzR1rDf/IjY4ZuzzN8YjqzfSWfg3hUvANyON\r\nFzg4EYU4SEkrODIc7jeTMdY3xtQWOHrSSjh82Qo41JboN63NxDck9jY4fH2ZN67B4jefWBo4s4Ut\r\nOLa/Pjg3P643ftcROB9nhzjH7ho4trfmN+GFCDiNcIk4fX13OC+FgTd04IA3NiwxOOCGKjjpSvw3\r\nXFOyNz4Pozdk2nY3NVWJN/gScDcvLm44ajGWN2RdhTjWMt83hxHPNwryIzicLug3wFduN+v9Ijjb\r\nQtg3RCoROKbA0Dfjc4836qTVN851xjc3PIQ3NuH4N9L2YThK7g04bbyhNzjP/zc0s9U3ZO/VN4aR\r\nYTdVWxA4WoZtOOqwPTiLtZM4HK+bN5/uJDjuU2s40vmtNzBZ3zcfQSM44Uu+OIznTTg6IW43teMS\r\nN3jQEzjp5+Q3QcvqN+ox5zeABUw4aPK/OMJ5OzicUB84uJd7OGMbLTjiYeY3+jsWOO8BSze0K603\r\ndT6fN9TzDjiZvEc40toUON1klzf2bWA4i7u7N/DD6Tf8yvk3oiudN3f/Ajj1fl04ss3DN1KcXTjk\r\nkuE3IGDvN4yN0jfSeTc4Z7AFOAr0EjgU7zc45nMFOJKo2Te37XA4smNTOORYfTi21MY3hiv6N2RD\r\njjfGMUc4gUTkN3MTHDiHJYE4uG//NydwGTgjpRY45IQBOKNJLDhsgR04YX2tOCRYnzdicck31L3Z\r\nN0XwqTf2cQQ4J5AAOJeA/je3AE045IKENx3LgzfAQwk4r2pHOLJVtze3ZH83Zq8NOPPvDTisu/Y3\r\n1IO4N0c2RDiWMcw3zDMdOLvfxTdI7M83XLu9NzD5rDfC28w3ZtsnOIV1FDhNaLw3tiL0Nx51Gzgd\r\n0cM3ns/FNz9PrjfvF5k3lZ8nOPTLxzcq58o3Ch9GOPxn3Df83do3skOcNx1w0TeBfQQ4iniDN28r\r\nwDeCxFo3g2EZOK6UdzfIkAA4fobZN4sfFjj9lfM3i2oBOO0TbjiTj7Q35PkWOLxwUjiEqMs39MRZ\r\nOMLljTfXKuk32jfcNxJMAzjMq1o4KmcJONDp3zfm9QI4c9+wN8wSkzd8ZD4486YaONr/FjgAdKE3\r\nPMETOChJFDhcUlQ4OINIOH7SQTj1kRA4MWHiN3RtBjhlpzw3mdX9N7zWiziseQU4t3/oN60JrzcD\r\nqBw4WaAwOCxrDzg/wEw4/22aNwKr4jcp88s37s/cN8kHdjhNPKQ4/AqgN099Ijh0cSI4SyiGOG8R\r\nsDj6R7Y3xEkROKRv0TcXhJU35EfmN4E8XTiOLEI4NtvDN7L22Deu/DI42ZQQOFN98zdkOCs4Wsb6\r\nN2nwszczQr8347XpN/Ryxjd9YBg4XpMqOAgjYDj/g+w3MNKgN04NtDdJmqc4rYVKOB/ksDe9jfY3\r\nz+08OKGPrjeabEE4yOHtN4ridTgtpAY4ijmzNwGgnDUbXGE16GosNT5xkzX+f9k0VmocNUActzRM\r\nUys1XMxRNbmciDR+yuI00ZfbNGDOqTQZeeU0gMqeNKfSzTQM10U0bpswNUAWITV1Chw1gjQFNcdC\r\n2jRUoAA1JholNSlAmzSut9w00ZgfNRrVCjVibL00GTrBNIbenDRhQ9U0kkCVNG+shTR+aFw14jAp\r\nNUw0QjQ3SYI0VxcwNd1nUjVoIus0jVILNVp4wDQIDRw1HJV/NDrrVTW6/7I0mtvRNJndmDRMhrs0\r\nAAHkNCUnGjV/ZZg0ru6sNRwu/DSE+bE0ikSINMbglTQRf+k0NBk9NWuynjS0fNg0LniaNH/ZTDSU\r\nz7s0T5Y/NTxqrjTzXJg0cmwFNctmrDSKhc80LOqxNM2H7DTyer00yLYcNXbw/TTAxoo031M/Ndd4\r\nvzT8FQw1IifBNHLa5zQswjw1dPXzNDx3kzQWWEM0DQg5NQbA0zQF19w09xL5NK8NVTW3Z+Q0NXaK\r\nNJBkTTQ/nWU01nLxNNFliDRbAxA18JwHNU+h3DRlObc0+oKTNM/3EzUMXhE1PKKlNDz94TT6zpE0\r\nPlQTNck09jTCTIo0mSZANJo2cDUftDI1Zu8FNbk2OjTWzHE1PPyrNJBoyzQwGa40qRwWNStZ6jTh\r\nJQs1oDKsNLOXjTRtti41PUiWNBwMmzRqzwA1BoypNMsuxTSC7aU0jHLpNP8yvjTjtVo0qwHxNGrj\r\nnTSApeI0EFe9NG5ezjTlc8U01XV3NbGNvTQcZ7s06K30NO+LwDSo+vk0fTYhNSjHaTTczpw0L+yB\r\nNFSipjQuRbs0x/7/NJwi8DS5YNs02kiYNMTu4jSARXc0ZlTSNB8VujT+LPo0OoLaNOP9qTTaLMM0\r\npUhuNJIQBDWmeak0f6jTNKe8ezTtPNk0/vHmNFh9SjQYkqE0MDinNBEE2jTLHZM0aI3vNPdBkzTT\r\nkH40bM6QNJJZxDQmhus0cAS8NH5ZADUiRtQ0WlU1NVOkvzR9oWg1iBCeNBTkqTQYhxo1fRqrNJSY\r\neDRQWAg1cEsQNWYQyDQy7zU0GKcHNb8/0TTBLKo0mELnNIHt5DRNARM1hI0qNQC6LTXzwpo0TMbE\r\nNEBQcDUp3xw1IbCWNQSFvTSuyUg0mZCBNAUteTQA/tc0Xs+oNEm5mjS9cJM0ilTANEP46jTzeXg0\r\nfVucNGDk3TRCfLU0loOyNEZVFTVVT9U04guZNPYY+TQDecE0LgeVNDZy/DSYGOA01PJ2NB4+vjTH\r\nuzU13rAYNc/yujTURAA1ZAa3NA26bjTmpFo1UHISNRuMBDV66600JrSKNBknujSb7Ak1aEzPNPPt\r\nWzV+Q+40h+MJNdi21jSzQlM0dJsQNbir1TSlchA1Mjg4NZY8wDT/apE0JYRrNPKpJDTaB7w0vqmW\r\nNMPDBjR3zDU1ZIyONCOYyjTCMgg1VhUWNRfJZzS3dLo0wm6DNMPkDDUVbA81IIvsNPI9pDRQnCM1\r\n67PMNN4ftTQKIpw0OmUPNSr78jTCETo1k006NMj4dDR0B700ZRepNFxWnDRrUEg1UlI8NULEHjVa\r\nZiM1MpyFNKSSsTQUdJ80ZDiCNHy77TTqWuI0xhawNHFxnzSQ3ts0zcoiNMeFGTUmV100VrL0NIBE\r\nzjTzbuc0Euo5NaPWTzRydYY08HhGNDglmzTJHTY1bj4dNeKi3zS/M700oeCxNL9ICTWcgp80dD93\r\nNTfOrzQCXAc0Q7NoNA3IRzQs2ss0ANWrNOQCFzXCwQ01pwvUNFARgDR4yRc1vWE+NfjLvzSyA8w0\r\nT9J6NPtPDDWtXpU14z4ANXXYmzR3W9M0rmi7NBVxFjUi6Q41BLjbNDP7XDV2Uqc0svA6NWnrvTRA\r\nNm403hPmNKUV8jT41hs13gseNZ793zT+SPA000QUNUKQKzQ7hmI0KRYgNYAskTRHSrg0Mll1NAO4\r\n1jSKJRI1guYfNcHorDQI4xk1mJahNLvzAzUCg2I1IKlxNJINlDS4YPQ07LmbNP51PzXfWOo0Dwew\r\nNHQK0TRBPqI0SuTBNA4AwjSsCrQ0JRHzNNiktjQXQJk0Gly8NOjN3TTYxKs0TqJANIb1ADXWrSw1\r\nlRTFNOCMGzVpipQ00tYMNVaE7TQEcD41CgkaNWmV6jSakbU0kAkHNWFd6TR1Slo0Im6bNObDhzSp\r\nIQg12vGGNGxOCjVNLrk0WGh7NXxrSTS2H/s0bkEFNdjHHjU4OiU12B4ZNYgROjTCHy40NlHYNKHU\r\n3DTATh81x9hdNDsLBDVLExM1Fv+8NIK14TTKtAA1Ch2kNNZKoTRylDs1g+L6NF8BSzVPLbA04hTy\r\nNFc4yjQEga80OHCYNCM6SzRseP40plPoNLtXXjWYHRE1nbPMNOAI/zS/juo0aH8kNQAAEDVY/plA\r\nGO5MPanRkTzU/Z47yoFsO/dCMjsaXdM6NpeuOvrDCTuFvgk6zlx4Oq+zPzrRW9I5nnGTOctjYDoO\r\nOxk6die4Ob1ZsDlQ0Iw5eAzTOUhekTnUUjs5SrQlOSTuPTld9mg5foEVOctWsTlGOfQ4zZhuOcxA\r\nBDnuTjw5+9ffOWTq/zjeRx85rjJWObgumTgmSts4N1dDOWUlnziZ2Fw4wzXVOBAJKTmNYy85Xnrm\r\nOJCV0zhi2wU5a4fdODcOXDlrWV45AsOwOGZySTgnnYE4z9kKOAcCAjnD+Ow4xki2OBLx7Di5P384\r\n7PPnOOn2tzgCQDo4ceUBOc1zpji8ZHM4oguJONm17zixXJA4Qpe8OC0tiThIxpU4CVdWOW3Iqzjl\r\n/aw5RaFxOChL5zjNndE4P25DOF/+EDmCF7I4CyEOObhw+TiEe/I4yn9VObR2rTlhhwE5NSJMOeXn\r\nxzm5OUE5yZU0OYlDDzkMCg85cPmqOLQStjgjUmg4nNf4OFW5ejid9944Jq2oOB6anTgc6bo4q3x5\r\nOBp+AjiV7Dc5mMFQOPheQzkkm9g4azgwOKw48ThxZ084nCWROJ3qUjhEHoQ4WkxnOOxlmjg4NK44\r\nnCM6OKU3FjildQU4lufnOG6J5ThdCIM4w9AdOH/niDiCkeY4rmNUODLZKzjFGYo4UZdcOBcopTj7\r\nSNg4Mn0NOWDUJzgTJCc4721KOJwtiDi0qZQ4H8iUOAU5jDhIBiM4wklnOIYKhjj8E244I62fOOUm\r\nvDj8BVA4IH5QOBVbaTgbvFs4gA1YOCdMrTfK3ek3zbRpOGLsfTj+ZPA3Za9qOLYogzhyGmA4CZ2S\r\nOKa7Dzi41zg4X1smOKRGLDhpzBw45iaiOFWGsTgrHTk40gZ1ODRVTThPCPQ3WevGON/mKjgDCiY4\r\nflA6ONfQgjj0wh84WfeAOKCYFzjuCIM4zlhmONfCMTh/20U45h8LOAJF7TcJ8A44bbMXODsr1zfN\r\nZzI498qfOMKBWDhsZDw43QUlOFzeWjhhpsM3phkfOOx8gTeqkOk3Pl5JOJUNzDfpxzU4dUoQOGi4\r\nMTjZKXk4XxOZOOPh3zdyR+w3Zo+mN77nSThKL703UOH4N4gVzDdrtCM46MGnN4DEGzgs1io4ZfMw\r\nOKt4Mjhwwus3cGBGOLgJmji8tmE4BqGOOGBDADjF1ew3tYalOB38ATh+C7g4pJhqOOFFGDjR8Mc3\r\nsq3rNy6r0jf5gQw4jOPLN6DC+Tdob8g3q98vOKZoUTgfdtU3tiMsOGbm8zcOnUo4M2PGN7ootzdb\r\nJTo4fZACOKHWKjhI4wQ4ENrSN2scIzgWspA3Jq4YOKAwXThCgNA3wJYHOK2fGDhXTyE4WHrbN3wS\r\nwjevM943AFOVN/jEHTj2lFs4xvwBOLS8ajfM0U84qekfOGNLczhuixM4kqLDN1BlSjh+hQw4LuQQ\r\nODEk4DcIsuU3LsAJOMlp/jfIOh04Uu3XN4ajiDgYMMk3DBtXN689/Dc0hOI3gkjuNxgcmTdG5m44\r\nymBMOFeELTjITjU4JkoJOFffLzhIVpY3MU7qN/5oVjjLItU3FCPON/YGJzhKApw36PzVN8KlBzgs\r\nFjs4JYtYOPHwkThjsGM35kzEN9GjCjgDayQ4wzMROPDSkDfmoKc3CtSiN2zl0zcenN830NPCN9Lp\r\nlTfKcew3kOoMOEDFRTjbXSM4933zN9CZXThuuvY3NmoWOIJu2Tdi9Y83IERBOGvsoDg9nMg34IWe\r\nN4YhwDdIfSQ4rTzCN3JLDTjxdxY4mvQVODl6ozcQ8Tc4923ZN1fd3Tf1Cpk4g2IDON0frjeKVjk4\r\na034N14/vDd4rNs3pb0AOJNK5zf9h4s3Ejq1OPR8tTc2Evw3n2gfONDSRjiqsqA3vw7kN9aRujfw\r\nsbo3ZGGjN/esHDi1QBE43RbVN9Q7bDg+eSw4MnLlN2ZAjTe8IP43NKkAOB0FBzh83Lg3AF6wNwaZ\r\nnTdTa1A4UhQwOGZ1qzhXPfE3yTMVONB0qDdC7Ko37uWvN9QtAjjG7AY4jXegOGa/tTd0v6U3qHlk\r\nNzBtzDd6FAA4NTUHOHiHlzgeLwg5kONxN46u3jchagU4FMUfODM++jdHUQQ4xM5UOCi7JDi+JHw3\r\n9OlnOAS/CDgE9883RCrLN+SUuzd99UI48PTaNya8zjcT4YU3OdfoN2Tj1DcxX+I3OfLuN0u6tTdV\r\nrSM4fcCnNwaHFzg4Ic03zd/CN/LTAjjzURg4twlGOHqG2ze1iAg4A5kEOAuvxzfOrew3h6EBOCfL\r\nmTcxx9w3ym0wOPC44Dd//yw4ixWGNxqZDziwQ5A3dxOuN7AmFjgJLYM3zKkmOGPtwTdfJxQ4pEqC\r\nOLgHvTeLXxA4g51lOPGI0DeuM/s3cMzSN/Kw5jfUQaE3071fN4PC5TdJrTU4M7QoOFWq6zf3+xQ4\r\nZdaJN42s0zeHaxw4bi6wN2feHzg9uBk4y0oLOKCo0zcF7hE4DZcIOIzuTDdfEvk34+rDN3MzsTcm\r\nbMw3uI0FONwonDcENNM3WJDQNzjTbDgVqH03A1uJNyFeTTeqDwc4RcPLN+C6oTe1G7o3nNodOP5t\r\nLDj/OfI3gmGfN0luuDcyce83nhSlNwDNCTjmnTs4uvGnN3y4IDiyAvM3XUseOFo57ze4vBk4520M\r\nOIcwijcYP+M3pwoYOJQIRjfI6R84oGwdOHK1QTiFMNM360WIN0w53ze1tJk3Yfr5NwC6BjjffAw4\r\nQlwHOKL8pjdLq5c3h4bJN5ZESjiGsgs4HXUvOEIp/TdFsgc44mL3N+DHJDiKnIw3+SoVOHpwljeK\r\nYRc4LINOOBwnFDgyw883ba3JN2V3DTjYbug3NO3UN8Kn3Dcn4M03KMVBOFo+NTiL1sE3QCKzN1E+\r\nszemygA4ALmNNz1xUzgFy/w3bVHJN/MgIDg6qEo4aOGzN/2G5De9xTI4xTrPN7KR4TdK4Mg3qnG6\r\nNxW8zDcJJYY3PJKEN8FB+zdl8X43CPN+OMp7wDcUcHY4d2XNN1z8CTidd3w4riavN6ZOETiXceY3\r\n2qtgOH7VzzfDKtw3eU38NwwmkTfio803PWKNNif8rjU56vA0q1QUNefvnzS0umE1WtHnNLYPyTT2\r\nWG41MXEtNaZhKjXee2Q1LxSvNEi5yzSQrQI1ovoGNf9/FDXbwAw1DNU/Ndm5GDUEQBA1B+JhNDMq\r\n5zTozqY0wPFyNQQy2TR+b1M0zgBINXaFgDRgekQ1jk73NJSG3zS9GMA0mI8XNZgwGDXQXTg1gswo\r\nNfBm2DQFIzQ1roAvNQ7Z4DTL0lw1KBoCNawbPDUhmRM1iuArNfCA3TSmvjk0OvL6NEJIDjWiz8g0\r\nnqavNJUF3DS5KAI1yIgXNYw0XzUHvpo0KqneNNC4uTSQans1jtMVNREADDVWGq40nvHpNM6T9DSf\r\n0Tg12PAaNfLpUzUK2SU12OVhNc9mGDXcCZM0vlzZNCytQjUIc/40cBgsNXNdUTWQyAM1aI6NNOB5\r\nBDVg6Fk1OugNNdr6qTR3vvc0Iq6eNAI+hzSVjAc1RMDINH2HxjQ3yOQ0dI4eNSPCBjVJv800sbDF\r\nNELdtzTwOoo03nzUNCNRPDV9Ryw1gip4NFBNRjUlJ/Q0NoEXNeygCjVjMA81sISINGIWATV2KdY0\r\nhrnbNOp6WTRWuRI1Wo2TNUtC3DTCiBM15c67NHCDrTRAu7c0BBcrNSEiJzUQw8I0RtK2NA+FuTTX\r\nEys03pbqNB02mjROepc0KWuANWXQrjTrgu00gqyVNBiunzRrYDE1HNYXNTtHNDQdfsE0MnfNNH/2\r\nADV3IM008AsBNW11OjSZnok0AhYCNURStTTSjP80hJc4NcN+5jSZdLk0ImbpNNC9CDXE6wQ1Z3ye\r\nNJikwzTfupU07IsSNaBsDjV//Jo0cQ/RNK970jTaqzU1IwpMNdAMejSQXaM0CYWvNBPkCDVuSss0\r\nVm4MNVVqwjR/Jbc0I34eNQFvCzV/w880EBM9NXy5DjV65wE1eyFqNXiHmDTi+5Q0IjOfNMCtozQK\r\nosE0cNVcNF6u3TQtEZ80Ze+LNTiexjRD2Bs1I1XrNBZIazRyMJY0Bf0ANb6PMzVUp440gznXNEPO\r\nPDUwEOI0Y0kbNTKEJDWvHgQ1fcWzNLkRvjTLMzM1OOtMNazLQjWk1ro1m9EQNaTj8TSD/Oc0Zn/T\r\nNBd9tjTw4fY00fMbNbKcBDXNmMk0hAlFNTIbWTV8J0E1KCPFNDQbyjTUdl00JIEQNO6F/zSMTQs1\r\nldgQNXKXszQ36ZY0U6AlNTpPTDXuU940b7+kNDVrgTQGsbk0z/Z3NAgXITX5Cjg04mXnNMJ5BTW4\r\nLJc0IQEgNXj3sjTR2Qk1VjHlNAt1ljTnEw01BUUENZ8E3jTVz1s0DcbINJlatjQjYck0XK8SNUVD\r\n5TQMzyY1CKvTNNFUezSQz5g0Yrb2NPxg1DRRdLg0j9K5NB+g2TTu1700NDhsNCwHwjSEaOU0HfYB\r\nNTIm6DRqHe00H5hwNcZmpzRoGR411bkVNTq8vjQMDbo056fHNJg0aTTO8gQ1KkHFNDo5ATUJNy81\r\nERdDNcAW2DSy4A810vjeNDf2sjTqO8w0xt7WNMzjHTUkYEQ1UU/lNHVcSzUlyGI175WDNSACyzRK\r\naow1nA0XNd0rjzV5egg1Tnn+NDL9xDQxXVo0qW92NB7SrjScgaQ0bA6cNBfWJDU6yyw1wRWiNHQB\r\nMDUZOMc0PC0wNWbMFDVXe1w1TJxbNe+kmDSgEK80AOL2NBP/BDW0Fb80MGQxNVAnxzRswws1d1VY\r\nNU3V9jQeqiw1HNIiNX/KlzSDlrE0wXhzNJa2BDUSDaI0TgMANb6STzX8RDc1fvelNOSThzRt1Og0\r\n7/GdNPgu3jT+CMQ0IJoBNTcJKjReL8g0456tNDSbdTUMLss0l4pKNV/UuDQV2gU1TlvaNHOy/DQs\r\nbz41dly7NNvwhDTAZJw0e+MNNZr1IzXynrA0o99QNUFGwzSGOv40WSIfNXnOWDXjxRE1PfNONKS9\r\n3TTpwmc0AXTqNOQKnTRuGJ80DOzJNKOdyjSwAPY0znAGNTd6HDXjVCk1eEXUNI3MJDWIeLI0vhvs\r\nNJA17zQRRjo1WYYyNEziyjRGHFo07SRXNJ5ZnjRRkcY0OmKLNO4HijTbZsk0dSjFNJ0wjDROhLU0\r\ntITIND/rAjXzM4U1LhYVNVe9BDWsOpw0Yl4TNfJTBTX2ihM1KHs9NFluiTS52BY1FhOyNEwAYDRo\r\n8xM1Tp5bNM3yuDTJ4Uc1UpPkNLA7aDRu+JI0o5qBNFonDzRcz6g01PngNBS2gjQDBUw1lBudNMT3\r\nCzXuXw41lmBgNcRuszRMX6U0Vu27NI3c4zSZQFA0pyzBNfLalzTtdc00ngCSNFSB+zRixAc1Ukjp\r\nNP6t8jSIDvs0e/71NDblgjX7CaY0+2MeNSAKXjROVMk0zPTKNDOERjVv5Mk0AACANA==",
                            "noiseTrainingType" : "default"
                          }
                        }
                    ],
                    "start" : 30320,
                    "duration" : 2732,
                    "mediaStart" : 0,
                    "mediaDuration" : 2732,
                    "scalar" : 1,
                    "metadata" : {
                      "WinSubProjectDisplayName" : "",
                      "clipSpeedAttribute" : false
                    },
                    "animationTracks" : {

                    }
                  },
                  {
                    "id" : 127,
                    "_type" : "AMFile",
                    "src" : 23,
                    "trackNumber" : 0,
                    "attributes" : {
                      "ident" : "section-18",
                      "sampleRate" : 44100,
                      "bitDepth" : 16,
                      "gain" : 1.0,
                      "mixToMono" : false
                    },
                      "channelNumber" : "0,1",
                    "effects" : [
                        {
                          "effectName" : "WinCompression",
                          "parameters" : {
                            "attack" : 0.0,
                            "gain" : 9.0,
                            "preset" : 1,
                            "ratio" : 10.0,
                            "release" : 3500.0,
                            "threshold" : -20.0
                          }
                        },
                        {
                          "effectName" : "NoiseReduction",
                          "parameters" : {
                            "denoiserAmount" : 20.0,
                            "denoiserThreshold" : 0.0,
                            "noiseProfile" : "H2JFQCS1Hz/e2es/ehSeP2wDT0DDP0c/7y4FQHohzT5p5Bo/AuVpPhJ6Zj5S3289nhEnPhuzSz2y\r\n8Tc9B5VPPc6EiT2gBLU8S2E4PTS/wjyCxkE8bASvPJ63MT0x/mA8vY39PIB5Kzzp6hw8+jZlPLbC\r\nuzxTup077bUVPBDyADvldaQ7mBDHO5hWJzzP0B47x7uGO9P0jjoMwJU7Sk4yO898oDtWlzQ7fbcV\r\nOt6UDDsYaGI7wguCOmZkSDsft2I61x0fOmsy5jqdwC87JImDOiB1tzq32CU6PJnYOuMOOTtssWA7\r\n1P1LOzaqCDsmwXI6E2MgO1xmSTsAfmc7c+5PO/WINjuBSlU7Uki6O397zTuhFcA7Cjf4O+Lpsjtw\r\nhuw7iJ6xO9dMCjzWC007F61EO3+Z4TqD9Ec7JqVgO8/JnTteiIQ7xBySO9zZoTuMSSg80yvUOxk0\r\nZzwaz+070swGPD6rRzvOIlo7sgUbO4FrfjuyTN86fDq1Oq35PjpcOaY67z2FOrP4nTrwniw68BSw\r\nORhBhjl5L4s6uQovOsiivDqRnU45AxuPOSsuOjph+A06+LttOsVmXjr1vvM5CTZuOrEvijpeSJc6\r\nSNmuOuc/ezpivdY5SKOjOkJykjqD5MM6KDmGOkrf8znMMJw5QRvxORiaUTqYJ+05tWzJOeLnjjky\r\nu8I498KDOWRoRzpyf0I5VZiOObmdUDmt9DE52LW2OO26IDryKEM5VIA/OcYTJjlR7xI6nEl6OViT\r\nsTmmMNg4bYAVOYi/xTiNEVk56ZLKOFhmZDkk0Y04JNXWOLhikTgM4ho5QqOdOKYC9zhJ9As4aM2J\r\nOZUUSTgCLIA5VVCUOSq0bDn+cYQ5ijrdOTa7Wjk2RnY6tMhiOeatzTkxWI04TxuCOVS1GjgG8AA6\r\nqCt1OEnVXTm+XKo4uHNhOS1w9jdcm8M5ls6tONI41DnbstQ4V67KOaa/0ThH6uY4hP84ORK6njgP\r\nWd04RY0YOkTqJTlGhKA43Ay6OJvECjnE7mo41gQIOdthajhgZLg4F7z7N4abHTknegE486IUOV3v\r\naziygxc5tXdZOMxYIzg2VuA4rK1YOf59ITk4WqE4EM9gON/HDTmCa0s4QYpPONZ8pjgSbkw4RKeV\r\nOCi3EDn40wU4AoZGOBZ3fTjui9Q3OolTOT65WTeayjw4S8y0Nz2JQTjkwQA4LPAFOKlCHTinFc83\r\nfCF8OIlRXzhZlu8348P7N0rv2ziVT6o3PKK6N1ndazj0HpI4XAIZOS/v9Te3MJY4QKZ7OEXUBjmH\r\n8jA4pAryOMfzyDhOYo83z6JpN1KBHji7POc4c2ptONNAHTh5Twc43IyTOOgy6TfIqf032KOeNzro\r\nuDe3aRA4Mo7PN1cr0zce3kA4zgTKNx4gODj2+sE3ZnUKOE7mXTjE+Ck4oiuNNzISRziaMqU3yUK5\r\nN323GjiocJw3l3c0OGPMDTjZXfY33BZtOHcaDTgIN503o0u7N4/bwDe5YgQ4vccYOHgz5TcH+tQ3\r\nSgNlOIL48DfVjxU4gROAN7SdYThQnYs4COZXOGop8TfCyBI4MipGOMOlKDi/0AM4YETcN7WBMzhL\r\nuUY4WxAXOIfvfTdpDM83EjiIOOl0tTf9sL439z5eOC3BSDfxc4U49u0rOLRrazjisyU4pgiCODvN\r\nqTeMZ6s34+jnN3yS2DfqMaQ3qEwNOM6hFjiCRiw4KLndNwBHNjgidqQ3Ixm7N9l4ujdQn6o3EjUT\r\nONTdEThYE683kkinN5/F5zcErQg4wKb5N1dSNjhGE6c3Hmo4ODaEuzfECDc4TK6GN+Pt9zdRdLQ3\r\nqL7HN7STszeBb7Y3qT85OI1iRThtn2w3TCUPOOLUzjcWuzw4aYKjN3I2zDfI+843ERfJNzh4EzhG\r\ny5M3oLkDODgBQTj2xTU4EMGNN6zlBzipAUA4uY+yN3c3fTdhonY302UrOEy0+Ddaeq83JXIEOFge\r\nJzhgEg04z/7VNyjnrjeolA44VicFOIJIJDixphA4RAMVOCWOATjUEr83m0yqOFnxMziKWsc3F0fC\r\nN+R3BzgNN3w3cpSwN3m57TfOm/83QnqXOLZ2jTd9aAw4ve/LN3deRzhM2MY34o4VOGiJ+jfHOKQ3\r\nh7nfN217mjeXOwo4+XOeN4LUXThkWEI43w8gOIUNkDeC5Gc4sPneN9QKqTefGtE3ACSiN2DFuzeT\r\nPHc3EbKNN/kM7Td/Cx04M7OAN3kwqDcxAq03Vqk1OKG33zdf0vw37M0ZOEMlBTgKiK836ai0N+FN\r\nUDce6gw4JSCQN99ncjgF/K83xVNAOMBS3DcVRpU3wmypN4JxYTfqiGQ4eyDLN547lDf43gI4GeFu\r\nOIBGajjZros4QIoxOPch7TcDSNI3lOfdN+MSxDcQB8k3xSRHOEsjqTghbg84JIrxNzygizcmETs4\r\naoftN11c3jcg6yg46gqFN7ulXTggmSE4uvcsOLJQsDdk1pw3ZZoMOKoTEzgWiSo4fpNaOClKKDgx\r\nvnw4mNrnN6z3TzjbfDk4WArvN1AyRjfOIw44XN/vN5zs8zd4ceA36Jm1N77RYzjpIt43LYeRN8Gz\r\n+TcqLhM4A/C9NyhdIDisr8I3L7bMNyiq/jdcTsI3UJUsOMsg8jfkuJE3ClElOKh6GziO6PY35Haf\r\nN6LU/TfHfRI4TkbZN/Zt2DeYWwo4aecfOPMXbzj6TfQ3Rrs5OG6HFDiEe5Y3gHlNN62KuTcAGtE3\r\nNTa4N7Qjpzc4OJg3PrFwOH1lnThKYOQ33V2aN4jsCzj68bQ39xQpOJEc+Tdkoh44VZ2fNzTS0zcz\r\nNRc4pEi5N15rhzdGJhs4rnDQN57lzjf0Ecc3gSSbN8KSfzdPtsQ3P7HdN+Zp5zcR38s3qjDKN0K1\r\nWjevjbw30hC7N15RszdBEQ047oE8OGv6RDfUNgc4Nin4N5eR4jfXgx84l1neN2fgjzfK4S83KAIv\r\nOCD22zc4qFk3Ie5xOP1AjDd65KU3H+SSN3FEqjdeebU3mgEMOGpqiTiY4LQ3GHLMN/1x1DcOcZg3\r\nLSdjOLZ0SDdGwAg4IouYN6Um7jfkeyM3lIM0OD7fhTYwXhQ2aKXDNetPrjY4t/41yzlaN878TTar\r\nPq01fS+yNKmZxzWEtzQ2IliwNs/NhTVp9wg1j/QHNaVTFDYEWyE2iymHNli8pzSe3xo1exhINcVn\r\nTjWi0t81EILsNUxHhzXRED81RmfHNZX1WzXC9aQ1tmuzNR9uMDUv8nU1HHycNZOwmDUaB1w29ol0\r\nNdjgWDUqXJ41AUSJNS01YzWcgEw1/Np4NaFglDWHj+E1fPtgNca7kDV2iGk1DNmgNR5/FjZl6Sk2\r\nLi3jNVN5TDX9oSU1/thkNVpZEjW+7NQ1nOCYNRc/gzXcKHc12tinNRQPczUhwm41pW2GNbwjsjWl\r\nAYk183TtNVDOMTW1kMU1aK1wNbEKdTWuWUI1gmAkNZTV9zX7aeg0JOhnNelJjTUqRRA1ufzHNej/\r\nSDVWavk1oVMINQCnHjVyeSU1sB+ANXOo9jTijuQ1IZTbNARbcjV/JBE1DA8uNVxGpTUf8Yk1NCv9\r\nNZtRVzXaFco0wEeDNQGBDzUJM5g1niP7NOZxkDVacOc0+nCeNT7HPzUag1M1biwLNRnBnTS4HyI1\r\ngOLPNaxf5TTW3KA1xsCtNOcW8DRqGgo25Bi8NQzgsDWRO4s1ZNqGNX1AeTUvBho1Lg+qNbnDKjXM\r\ntj01zZO9NK7giTVy1Hw15R1hNYDTFTWUPCM1/IM+NXiagDWdwYo1YJQCNZIIkTUmp1o1qDtENXgR\r\nYzXlo8U119o/NRrJjTUakQ41BslnNRLrijWspjQ1inwRNY6VzTT35Z01DnVrNSxpZDX43VE1sFje\r\nNEaKzjQuBTU11YKMNSrJjjXi+9E1naeeNYfFkDUiNIA15G46NXpEJTUB3Bs1nf+GNZhNJjWkM5Q1\r\n8x9TNWJkWDWWxWA1Pw3ANGQkVTV6CEM1HKcvNXKo9DRvMGU1jJ6NNXipIzXBjGQ1JckENTaSwDVU\r\n1581v0OpNVySejUMuGQ1NpYyNT1vPDVwV6Y1b4uNNSmavjT8Bh01+B82NSZ/WzVmTEI1cLQSNXAq\r\n8jW3tos1zqsvNfCRPjUaorY03nRANaZP7jQ7KQI1cy6XNX/5WzU/CCI1nphWNTiW6zQUWG41oBTP\r\nNCzLDTULcrY1hUstNfra8DRVqIc1d+IxNX/YSjVrUJg1tAiKNW6FPTX9rHY1YAo3NQUJ0DWSNaU1\r\n/isbNYSZ8DTX/aw1MzVZNcuuKTUxioM1plRANT3qWDUOEkA1kE2QNZNWsTWQXMg0RGfxNPzugjWY\r\nvS41ceYqNSaIGTU8+Yc1V7wLNfadjzWOAdU0jGl0NVhBbDWx6ig1GG9sNfR1AzWpTV81HS6JNfrS\r\n7jRLqwg2d88ENQJu3zShwoI1EsIuNdUSnDVzHwc2Qw8CNgKLrzXSA1Y1NQHxNAT4OzVNlQE15Mo+\r\nNb6MazRw8H81hV0lNdBs5zSj1CU1vavnNUO9tjSiMVA1BguSNR9GBzb4XC01b2iMNTC0kTVqFI81\r\nnuHoNDKpWDUBPY81E7AiNUYNPzUhYmY1zHMINY1WmjUKw641M/ezNQFSGDXzpbw0FOG6NF2j9jQ3\r\nl5s1OB5WNVZPCjUVrmY1Aj8cNRdRsTXG7ao000RFNfU9qjRU04k1CFqpNYsCbzWslgU1SackNf6j\r\nyzSyGG809iDfNIOKGjVM+3E1pbEcNdC6mTV9ezA11d8ANXC4QzW6h+40g4c5NV2abDXK6qs0RqYj\r\nNYrGSjWQxtE1SW0mNdjdfDVIfbU1TlhXNenYHjVQczM1My+NNbBJfzXsKKU1irlHNSlqjzUdHUo1\r\nTNtuNfVMCjVmOQc1atY5NYdusjU3gr810z2CNYXOxjSP3yY17ryPNI/RkTWMF6I04MGGNcM1lzSY\r\nqQk1gDsENbKlrDWN3Ew17i2ZNRfjWzXkd7c1edI2NT0XJjVLB+E0mryNNdXOtDXHpX01uW55NTsa\r\nYTWPibQ1Pd7JNANMhTUWZNY1sUYWNfJgSzXXckY1/eYONbmgVDVlQIo1naT2NGQuKTXa7Zg1uwEt\r\nNQZ/5jVezXk14wtzNfsobTX3x9w1wCnQNIiMTDXO/W41hnYRNTbr+TTqBjE1wFKVNXPymTRwaJg1\r\nzoFdNQf0DDVk3wc11BRwNe9ugTUFCjQ1MSmHNU6qwDVnrqI00G0wNZgcOjXv0hQ1m/dQNQyILTXq\r\npX41MqvSNWvRkDXGLu00pWY1NcTUDTVbX6k1g1VpNdLDkTXMRVM1o4+ONTBiDDU1nwY1F7W3NUts\r\nOjW2fwo14cDLNO8aDDVS0q0170/qNB7NfDSWgE01wjTfNWALQzVgZ0o13wDLNT/kCjWdwj01FbGF\r\nNQ30QzUhXEg1CG9DNWCk+jRwuTI1sOVDNcFgWDUpCfE02rd/Nb5wUzWYYZU1KhY8NQAAKTVSUItA\r\n/I1/PaugqTwkIfI7FtOfO9Hv8zpxMK86vl+SOqUAijqQuWY6DPmfOraayzloapk6hbYBOlD5rTnA\r\nMIs5+pS3OVz1nTn8aos5PfuTOV6qPTke+ug4rlsOOcqsBzl4hkI5LApGOQaeiDn0W0Y523i9ONJX\r\naTlnMoA5r/3bOFJTBzlt0ZA5DwY9OYjmQzllgxU6snAwOVRbVznwvEU5f46XOfDHDDmJ8bg4+LM4\r\nOVgtQzmMbjg5+fzYOPRq3jjYDvk4BLCgOLwUhjlWzq446Z3HOAIjsTihKaM4yShSOD8toDj3N9I4\r\nfqenOHo7hzgRrm842jKrOBUsATk1UYE4RjsTOILMgjjv1gQ5A7SoOP4JvDgUYvk4+OyGONgK3jcq\r\n5Ks4q3pgOG7sizhX/wg4fhmKOIpldDh9Va44tU7EOO5MmTgwQHo4AcJXOHM9bDi8M+M45epnOFSi\r\nGzj0jAM5IaJEOD4daTjfd9A4M9+GOIZJijiB05I4GVvSOMrWazi9Aro41AQMOOCLWDhESzg4wSMj\r\nOE5hKjj9m6U4MoRgOMxlYDjx2+E4B2CtN/VqCTiiD+c3eAT9OCvJhzhKeHY4EaTTN7KOhjiy2mQ4\r\nrk+UOBbJCjir0HM4+IFkOMf+XzjkNkM4OSoPOAz1Kjhv3x04pE1UOA4nkjg12h84BRQKOD871jcg\r\nX644ngZfOAaTDjjw9pY45LfQN0V5SjhT6gA45lQkODAUFjiae5Q49QofOOY5GDgUS2Y4ybl1OMJ1\r\neDd1+E04QouROFaRUTgyNhs43EkhOJLwAjh1Ph44HNheOKBlfjhyA484jVlaOIdTqTembqk4Z8ml\r\nOMvWwzhQs184Dax8OJySMTiOnSg4GnAZOFbxZji7/GE4LYJLOEZOBji0VQI4biYSOLfQEzgKVyI4\r\nLfQWOAp/JTiQ8j44PfcoOGBqEzhwXAc4lPBSOAjYFThIcpc4jUwfONzSGDiGE0w4MgciOJzxGjhn\r\nfAc4YfZSOPFTfzin00Y32rHxN8qyszc0qVk4O1QwOHNgXTiF5WI4EHQmOJysEDgsDVY4ojsAOM1X\r\nDDjgPLg35Ir4OJaBMziX7aQ37wQLOEwEDzg1Zmo48vLJNz+4CDjELrw3n5YHOAL2zjdSANc3dV0u\r\nOLJxBDifzAo4cFkDOIFD7Tc7alU4Em7uN0/4+jeCdx84A4eLOFJ8JDjZKWQ4wHXHN2dcNTfe1/43\r\nqiTlN07v8zfhUoQ3tZVJONff8jdjxGE4vltLOIqM5zd7Da43iloXOLj+EzhOIzA4Ul6uNyivxjfu\r\nvYg3vPNOOMq+fDjkOb83baQGOOrS9TfWNQQ49UcJNzAWEji3etA3FhjpN4hNJjiz8T44XpdcN5Eo\r\n4zf48bg3++H3N0M6JzjaiDI4XD5EOKh8sTf9WfE3XB13N+3oBziMU9c3BcisNz/ewDcjs4E31Cb+\r\nNy6qzjdp88Y3jXezNy4RBzhseOU3h+m/Nw3FGzg0Aas32rZcODz3AjjiPwo4I/OaN7zXiTd4AhU4\r\n0HIWOPUnnzcQUBk3CXY4OItblze4WZA3qDIpOPisjDcpgik4OT4pOEMdiTdvpCI4beH2N252njcK\r\nkBQ4xm2ROPZw8jeUHtQ3JohrNxaOpzcivAU4gGivN1361DdejIM3KMeHN5QEkjcVry84676zN0d6\r\nSzfLmrY3cMfgN9I+HTiXXSk4vfjHN9bXsjfHqZU3sxSsN9AHojdSl843uqiBN9z2JziIlgc46IjA\r\nN8TIzTfV/hc4LJ8UOHAcATgarPk3Nj1CN2jGHThst5s3Gn4IOL4yBDi1qwo4+MSpN+FGpDclcNE3\r\nwp21N+oLOzfxZVE4lr+7N30f/Dd/dgI4EUzNN2fnpTekTNc31Y5QNxnMUzev1BU47yR8N8n64Ted\r\nN6E3koEOOAxbcThyWuI3lKQ6OCgfHzg104w3g4mqN7nduTeciwI4jxkzNxTS3DeS1es33YZQOJI+\r\n6Dd36Yg3Z1UlOIFwoDedl+E32JvlNxRgCjhvjQU4ljf0NwX0XTeuZ8M3y7H+NwBGyzdK18M32OiI\r\nOOsu5DeEbcY3sTqeN19IoDdWfNM4MtXhNxDd8Te+tNc3ZXXuN8c5EzgbLj84tGbTNxmNozdnb/U3\r\n5b29NwuRyDcBQr83ArMMOKl6DDiwNLU3vKK2N6YB5TdqVoU3bt2VN/Wr1DdK+Jw35iJsN4KqjDeU\r\nZXU3SAUAOCQ85jfWXj44ujjdN3Cp2jcaIQk4zL/NN2Eoqjc1IB44umjeN3LV4zfZYZ43ZmLbN+5P\r\nKDggm7k35JDiN6jqMTiy2gQ4uGbxNws/zzehTzY42beqN8Bh7DeUhfQ3rPAaOBmmwjcnS7w3G0m4\r\nN2stRThgiYk3DZmdNxNArDchEhU4mv55OPlJrTdS2Mc3w8SsN2mCETjooZ43qmKeN+j68jc8JtA3\r\n7ImcN888hDdQ5hI4EuiEON4a9DfWrY030vz0N1XXnzcMk/s3Hwe8NzQYMDij+JU39rWqNxrXJDhy\r\nBtQ3a7nxN3Skwzc+Vwk4VT61NzgTBjinyrw3WCqoN8yigTdgMKQ3LSRQOOWLHDgZ/IE3enByN7CW\r\nITj0Ib03RL1yN4T/lTdWCbc3vnMGOHo/rjflx2s3EGfsNzg91je2VXs3UfEPOB5gyzds3SQ4Q6ax\r\nN/O2CDdTutA3++UkOIwe/DcqMf43dHbJN/ymBDjgDQ044NEAOJTOsjdFbPA3d83KNwAanDcPHQQ4\r\nFjaoNw4vzzd1mzY3PJbnN9jyoTdi7Aw4RUIZOKho8Dcnx+43YIKENzjsgDexp6o3sZGRN74+1TfC\r\nv0o4Hxb8NxqV8Teuy6c3O4+sN6wuVzcIVSQ4g7qzN+5xijeQ7VI3Yr+uN77HzTeQhtU3GMjIN49R\r\nRDgyHEw3vHTqNxMQcDf0CKM3b6/aNw90STfGkAc4z6JfN9Eo/zdE3AQ4S3wGOMI7pzdzxpM38l/5\r\nN7SG3jfhbdo3nFoOOFfa6TfCW9A35xQEOFKRyjfgX/A366DaN+JJnDfHYns42sbeN+6DpjfD84k3\r\nhBrLN1wfRDisXUw4sLY+NxnNrzdM4/Q3WwlCNlG+0zVPYx014GeGNUlXUDX6SrA04PRGNUSMEjW5\r\ncIg0K55UNfhBFzVa0mE1Dv+fNEv47DT8wGE1xrcqNXqmtjQ/9zs09BENNX0yMTVg4FY0ONDpNNAK\r\nujTiY7g0gg7cNFANPTXKTsU08DzqNLIsCDV8Xtk0RIorNS6TGTUXrxM1iuSoNBSeTTVNnLE0u4A8\r\nNaqcezUEoAQ1jVqRNPmv5jTbThQ13uOgNJZ1mjSDcws1qH3LNMzR7TR2z7Y0HRXnNB64JDWgOwE1\r\nR5+ENPgowzTsbBs1y2mcNCELpjRVrEo1O58pNSz4tzTcOJ40zv+hNN54+TSarDg0ZjurNOb4pzRm\r\ne1411rvSNBj4DjVeKiw15pI6NaAcyjQtIwM1bUrZNNbMADVYZbU0gJpSNANjEzXB0zI0KjbjNAbu\r\nMzVgC7c09JvxNIrLnTTQ4Ss1Quq7NJ5v5DQZbq40tQI7NDEz2DQMqEU16LzwNJKwLDWv6QM1kuIC\r\nNXATazQe+Os0M60INccpzDSCfaE0HkkrNc6JXjUS6lI02pHtNGb3NTUHH7I04OGbNS4VyDTokeI0\r\nVUqmNIMlZDSSLIs0NWuyNNy5wTQq9v80Y/W1NNpl/jQ08jY1xWaTNGfkBjXWOMk0hl7ANEIT4zQ0\r\nNtE0vg5TNfbF5jR9AQ415TKFNDsCiTRz/PE0qBzTNNBdlTTgNSE03SraNDcEvTTJRZ80zYG5NA4I\r\nsTS8OJQ0gA4fNTQEwzSs+M00XETXNLa7GzXlbzc1jXrANPhbCDXst6g09t+lNCHbBDVFVk80feLY\r\nNCrOJTVnw6o0zMz5NHb6FjXbUlM1KCOgNC6w1TTMs740oM26NBCk9TRViJM0U68MNUX1oDTra8g0\r\ny0TCNGa/rDSdLf40jYj0NLgmjjReN8Y0jCrZNCAzrTShC880hhG/NHqP6TQOlrk0bZnMNKo8DTVQ\r\nbL00FFbANNDBnjRWTbY0PdJuNc516TREy/U09E2xNPmSfDVG0I800mpeNISTITXy36U0eU+oNGX/\r\njTQHlqU0a5sPNSXpoDSyUMo0GXX6NBzj9zSOZ/U0/jO1NH9N2zSky/s0ABH2NEGDADVO88I0ABuq\r\nNWbzwTR/Lcc0bJobNSiVIzXY2CE1yAevNDpXLDW/X4w0sQw3NQuRBjWY8gs1njk+NJxCQzRLp9Y0\r\nF+C+NKLRLzUBLgI1nzQ9NZ59CDXj+rY0sRgXNc+vNjXoOSQ15WzZNB63nTR+hVA1UAUDNb1xszQ1\r\nbKo0welFNb+3bzThojI12+M+NZ/bIjWwp6w05GoZNUbotjTra4M04enzNF+VwzSR/1I0nt7MNMWu\r\nnzQbjd80qOXhNE0frjT5Ym000IhSNVZ0IDWb7Ds1huHNNKA+ezTp16c07GAENUd9OTUcpU01WIas\r\nNOqS3DRAlck0u0EbNdFRJDXDbOY0oHkKNZzTIzWqVUI1OwooNUZWWjRYhjg1gEF8NDoNvTSZJoI0\r\nwrobNYzBdjTAHLg0YyQINZp1uTTG3jg1pRK/NDMPzTRqG9M0TYoCNdTTLDV4SfE0yBmoNObQKDVh\r\nrl41nBo4NSApSTVNifQ0SNoGNbkfpDQK2TY1ZOLtNHbtTjUPZIQ0Jy0qNewBjDTFQas1tMMkNaIj\r\nsDQsUOY0/fW+NF2yqjSs3aw0fO2cNOhNxzSEF3k0N9YtNZlKpzQ4gsU0OCy3NFzq3jRepoY0VtTi\r\nNEVjnzQOpPM0TcwFNcwSvTTUwKs0mYN2NLB6uDQRjjE14LctNc5JEjUqDLo0No8FNfQ95DS6QtQ0\r\nJjezNIZLBjXQzh81Q8fnNG/TwjTkL+Q0lDXENIsw+DRjBcE0TvYINfHb6TQ+51k1qMg9NCaGvzQh\r\nmpY0CdzoNPJ7kDRbOB41mftINPHhoTQv2xQ18s//NM6KyjSoDcE0/MISNW32rzWFghY1awAbNcza\r\nhzRC3ZI07OdVNX4x4jQ/Sv00SXkHNeIuqDShmgo15t6mNEZ6yDRWhlQ0ZiKtNN5hHDVzlck0M7Sh\r\nNDp2KTWim7Q0KN00NYkV1DQcmqk0dlY7Ncar6zT2Sjs1uGnMNEl9FDU8hGQ1q1pRNPBHrzR6Jx81\r\ngAcCNWBE/DSU5Is17vWxNId0BzVePN40DQmVNCI/6jQUxkA1LOldNKX0jTVFZ9o0W6yXNNES9zQ7\r\n+Io0rCQING/kSDUierU045iSNLcYiTTc4qQ0reaDNENo1DSqXbY009SGNCGBATVyO2w0kzlDNX5i\r\n6jRkwiM15K+cNF2+aDTALY0014OJNKvEADUQ9Mg0GD7iNAHQszR/VhY1dTYFNS6EBjX+zdE0M4Gl\r\nNCW61TR4khA1JKKnND/ovDRH34M0lCcBNVqITTSRAxM1Cw8ANV7qFDVQJ8E0AEAcNQ==",
                            "noiseTrainingType" : "default"
                          }
                        }
                    ],
                    "start" : 33052,
                    "duration" : 2430,
                    "mediaStart" : 0,
                    "mediaDuration" : 2430,
                    "scalar" : 1,
                    "metadata" : {
                      "WinSubProjectDisplayName" : "",
                      "clipSpeedAttribute" : false
                    },
                    "animationTracks" : {

                    }
                  },
                  {
                    "id" : 128,
                    "_type" : "AMFile",
                    "src" : 24,
                    "trackNumber" : 0,
                    "attributes" : {
                      "ident" : "section-19",
                      "sampleRate" : 44100,
                      "bitDepth" : 16,
                      "gain" : 1.0,
                      "mixToMono" : false
                    },
                      "channelNumber" : "0,1",
                    "effects" : [
                        {
                          "effectName" : "WinCompression",
                          "parameters" : {
                            "attack" : 0.0,
                            "gain" : 9.0,
                            "preset" : 1,
                            "ratio" : 10.0,
                            "release" : 3500.0,
                            "threshold" : -20.0
                          }
                        },
                        {
                          "effectName" : "NoiseReduction",
                          "parameters" : {
                            "denoiserAmount" : 20.0,
                            "denoiserThreshold" : 0.0,
                            "noiseProfile" : "iO+JQC+B0j0ncFU/c62EPfb8Hz/X79o+FseYPQyDVD5o/yA+uL+wPaSnGz43lSE9arkDPTOogDwB\r\nmIQ8ilWHPNbKfTyX9nw84hHtO0JPBDx6Lpc7D3DYO2uddTx6YBU8/k+9O1QRZjtkEWU7Y9DFOyi0\r\nYzuQ0147nLwLO2fN1TqLuuw6nblrOlYAiDp0HJ86Tt9oOnYyaDr4Oe86w98aO7NZvTujYKE6u8ob\r\nO9r/rjo1Pi46h1VEOqeGSzrc7G46ksKlOoijVTpsCIs6LIW/ORT9MjoYu6w67DBqOlomjDnDIeg5\r\ndPbROcRdnzksPSQ6EchEOrIOPjq2ho05iIGtOQISNToMRf44FfGHOZSmUDnV86s5emHkOujibjrc\r\nExA6rSyYOqIwuTrQvr05mBLtOteSCTpURyQ79E8NO3w/ODvJphQ7OXtMO3bObDufTsE6YqoQOzrG\r\n6Trbqb06tNksO7VQnjr41QA7eKRjOwthdjuqjQY7Ov7OOpBJ6jp/zgE7PHaBOsjIOzrFPIo6otHj\r\nOhx7izrSjXs6MtQyOloWqTm/AT85WovxOaTtyTlO7R06n6fQOduRtTqo8kg64t+KOrnT4DkUZUc5\r\n/pFSOXM3tDlr+vo54SVBOh8yWTo3gJc6YpY7OgidNjrvUl462TuXOsIoVDoyfis5EIugOsGSjjlM\r\nVgo66KREOiWL/DnqxiU60Y1ROWESgTnxm+s5KDqNOQZlNTloV5w5x5ZeOptX+zrGOJM66ug/Oq2V\r\nPzoXhMM5t5BzOaUfADoE8Qw6RjN1OZGSrzpnR5U6bFfgOjOEwjpy9Ps6DiWeOp5VZzqI1ns5+Z+x\r\nOVdo0TmE1JI6ZuKCOtYsXTqY0qk6A6qOOsn+xzoBkb053s7GOanykDr4VLU6jnqeOqSHDjq3eTc6\r\nfsDqOUprMzr5ZYQ545uiOedK2Dk8lb85huElOiB2/zhGHHE57erFOYzGkDk5zTg5GVYoORwUBDlQ\r\nVgw5W/CpOUazPjhmfFk5sBhKOVoHNDnLtd04cqZ/OR576ziwXC05tqDNONdb7zjJdI45/dQ7OQgo\r\nHDkIrvo4X/NOOZ29Uji6WMA4mYSkOHbHzDh4GWY5skeXOYe4Dzk4Xpg4nIgKOZFAojma/ps5COe8\r\nOMvljDi2Svo4vkNYOc1cgDnK9Dw5AsfnOGy0PDkqg4I4Gon9OOrSnjifppg4SoYwOY+JqTjegpA4\r\njtE4OVCoTzkkJLs4jFIiOJr/iDhbLh05aDkJOVlSDjkjjDY5V7MjOcKG+Di3GNE4aEZ+OCaNTDg4\r\nvaU4G3yyOLJGNDmlW8Y4KI6NOWaM2TjR+VA5aXujOFU0Ojlshr04NnhcOPQGvjdGtmE4mqfkOCCJ\r\nijg0Ekk4BpKuN9CBiDirbBY4Ee7pN1W9mjgUSnY4mvQNOJStkjg4Ov84nGjlN6YmVDhGv184uYTz\r\nN44tQjilddk3OG/ZN9YH/Dd6RUE4Vlb8N65bUzhqfWs4OtXnN7Y7LDjvLAs4oA/cNzFyvTcJVUM4\r\nXrCcN5ZcBziZ21I46q7kOJbxHDiyGuU3tpssONWDQDj3wp43XSPfN029gzjqZps4YJSDONCgATjm\r\nGy84tcFFOM6/hTja9CE4C6pzNxGzpzh7EqA4G8iDOD3QmjiYpGY5XlrsODBSAjkqwak4jAX5OFjh\r\ngDhSar04+FimOR7zAjjUYzI500CvOB6kwTisV7c3RrHIOKznljiI5mE4/HyXOfTu7TcEuI04LfUJ\r\nOXoFRDlCzpM4Sj5uOJoQLznSFyk5/7xNOZYr5Dd8lf84EcX6OCv3sTjM6Tw40gGROM++ITn2Qz45\r\n5XELOeQkNjkAJIk3s8HoOB63bTnJcgo5pwl6N4Y/QDlu2E05ZiEyOXi2qTgvlHA4YrkuOTBBUDlw\r\n2JU5b0smOC/2FDkyt5g5UAuPOUZ2iDm8HAg4kjpNOQZjSDkRGrk5I3BUORnbLzhyNis57C3rOba3\r\nZzm1sYg4K+nZN4wgAzlzAB85b8h7OYYgnzf8ftw4FEBKOTx5kzlru5M4J8YaOcwbhDks3585DGOg\r\nORJ+vDlUFtg5gFwaOmnNMzrosiU6yio1OqkrnzqDjJ461KmxOuf6tDrFsYM6Zj2NOsQggjonj4Y6\r\nuqCQOuzUiTrDcZI6ijBxOsAzWToEZyI63UcxOqS0dDrNYHI64LKzOnIVsDqomoA6FP1GOrnyrzrN\r\nNYI6w6d5OkaskzqVqLg6DXh0OuvKmTpo4V46MdP4Obj/aDqz1IQ6XaBTOteCNToyakg6dgMCOnxZ\r\nGToxN1c6dELJOUWovznrf1o6DZsBOqofyTlqYzY6tvUlOqqTLzrCXjQ6HCxlOojfIDpmZhc6U+Eb\r\nOi8cpzlMA445ddnJORqR7TnWMpA5Kh44OVaxjjll+lE5V0giOdAPfDkbv6U59PKVOeEFIjlcHuM4\r\nMxS3ONzAxjknqbQ5ZjHlOEZImTgtETo5YCZ+OTLh5zkWo2I5SfIzOZsiOjncP6g5JSxYOQFePTml\r\neL05Z66EOS9NkDkqrzg5qnoKOezVATmGUOc4AQoqOd7PvTi/brI4+nBVOVvWGznR/lI49mE1OcPC\r\nbDkQ6iY5Ve9sORzoBzniiBA5n5sEOStgbTkMit04c3J9OSBXaTn44Hg5BmfjOIDUkDhxBmU4PFRK\r\nOKvcGTlsQyU53A81OBG+GDgAaKY4EOsYOZZZjTgFyBA5d+iUOJp8+jhIb1Y520jKOJVIQjgAxTw4\r\nPI4sOce7tTh0GiM5P04eOeznZzlq70w5WixAOT7NXDkMowQ50vNaOYperTguzas4RSV6OXIi1ji8\r\nkD05vN1IOfgLujiZ4So5suT1OEJqWTkPu1s5a/iROR3T8TjmRUk565caOUYE2ThmBXM45w1+OfAk\r\nlDkNSh85haIGOaeAMDkKT6k5kfqEOdOWFjk6s4M4vA23OLkodTkqFTQ4M70hOZfOWjnWDOs49TKh\r\nOA6kvDhAsps4HFyyOLA8Ujgtpw447rKiN2TeKziBs4Y4ldFROIJ75Tec6iA4mj1COKcjRzgl0g44\r\nRdxqOINYAzhpoa44pYULOX861TcQjTk4VHCzN1LmGTdLxAQ4GleJN0pv3zfQkj84+9qeNxgn7TYp\r\nprE1kUGcNmQ0pDaS7Lc30I9uNx8UiTbkY2o2OkoBNyosIDYxZ3s2mFiZNQPvFja/e+U2Qw8pN6M3\r\nZTa05oY11La4NaiFrDUp4fM1QLvoNfxKtTWqjTw10R7KNQ8FBjZARUA1IUuINbTiVjWUdJ41EP3d\r\nNdgggjVexzA1XHdyNUoFmTV+Gpk1Fgw4NS76mDVtQp01+it5NUmWtDXi10M1fiyFNTOyNDWuiHc1\r\nSi0NNfibPDVIySQ1GftSNV0aezUAIxQ1KFv7NKhyRDXoLgE1R9kkNWl3aTUpd2E1E0BVNcaujzVM\r\nA6A1xv44NZIuTjW+sUc1avhINRLMWzUOmYQ1F93pNAzFBDURN641jQIgNUk2mTX2uCk1ZJQyNd/e\r\nDTVGSZs1THsFNQddFDWOeVM1PqsZNTWnJzW8bvE0yl0hNT5zLTXCN5Y1tjKHNUsWEjWCjdU174L5\r\nNODdxDUOjrw0o7NVNaZ+TDVhULs0BM8bNdLShjVvcmo16LslNeJSbDWbhVs1f3v7NL0M0zTTeJw1\r\np7w2NbiFWDWtG/40d3b+NEWkVzVEyBw1G77fNWK1KDX2D4g1xexKNVPN+zQgpzg1MXlHNa09cTWU\r\n1iQ1fkaFNTN6rjQj1nU1cny+NVQeLjVSoCs1HEhcNSCwGzWZTC41rkyDNTHtQTUORhs1kUUQNS7A\r\nUTUFDyk1xOt6NWxpoDXSmWE1eBQ8NULGTjWyjME0bnpVNYRinTXhh1I1Gx0JNdZIzjWgVwg1PoQq\r\nNenqADVas481UGDENOxZFjWKDQk1mE8KNeCzLzXY6oI1kFgiNQRCyDQznB01iiaRNfysPzWQqUE1\r\nEykpNUCjSDWTSUs1xKuONdkIlTSa0pM0fIFvNdxg/jS2VgY1c8smNakA6TR5Uyo1WlsKNUzbTzXI\r\nSxs1aPQQNawyDDXlPBs19rHINISDIzWXVJ01dqlCNYATIjXdSj81QXcENTXuEjU8G940P25SNbYv\r\nDjVq9880j60INSkccTUkmeM0aMkdNbID9jSc1i41voANNSIhRDXuwAM13vggNR7ybjVO9Uo1voGe\r\nNKepRzXLTAk138EKNUu+ADXUsi81dIgnNSoqRDXAsr80NHQMNWjOUzVkke00ULzWNOE+SzV2Xt00\r\nZp4bNVAdpTTTvhU1o40UNSbsDTWYVR016XLcND2JrDSjQwg1C6yjNEjeJTUymkI14LPwNGLf8TTL\r\nFDQ1+aq0NOyrRTXAzPE0bqMBNabcGzWiJEE161ciNYbdsjVmnew04bL5NBeyHDXCHSA1Tq3TNK52\r\n8DTtAyo1Ig+TNYBJ9zT0VSw1d7z+NMn/GjV8PV81azdKNQ23CjVvrAg15L7uNOHjcjXUlto0Rb4D\r\nNbjltjS2R/k0JgDiNK4vEjXNSVA1YNRlNf/yWTWqNpo0iOhQNes5FDX07Eg145oyNbaIEjWIDRY1\r\nAUwhNTA4YDW+wN80S3KfNZ10+TQuiTs1je0FNZJarDUBge403SiTNRxPuDQ2SZk16dEGNXzXAjXR\r\nVdY0T2rrNA/lYjU46eQ09A2yNIBVgjWID9A0jRGBNRpZIDXvzpU1FpcwNRVMjTQMlR81+4lENVUW\r\n9zQspxA1y+8mNbrcujRN4a80YAkkNQBoMDUQsWE1wLztNF3YNzVODag0wHVANT4ECDUDlcQ1KCQQ\r\nNaKegDVbERc1oKVmNYtK9zQGu+U0tdEeNdEZcTVzeQ015KQsNarZRzWRjAc1qmjINC3zYzWM7NQ0\r\nbi4QNQAZ6TSSgbU1chMRNSf5IzVUixI1aMQrNWSEMDWdjjg1ILf7NKyqpjXVd0Y1g2EbNV8EozSr\r\nKU41AS+8NI4OLzUBy1s1fYKRNCHI7TT85xg17okYNQ5+ATbVyGY17OYeNXpKHTX6P141+2hNNVTV\r\nKTVPCQU130zPNFdpajVXvSs1seACNY3vjDUNx581bmSeNc1GATX1pgY1yToUNWyFuDResOI0Ocub\r\nNS3y5jRTpsM03kYcNTm+ODXD72Q1r5M/Nfri5DTSV+o0x8IUNRiysjTqRcU08DXbNJ1xCjVaTgo1\r\nYFawNIivITUwBtg0FhKlNDwOGDVxITs1sBc5Na65MzUbFTk1gcNrNf5fPDX4wis1nuYINf8OSDU6\r\nuS41qM3xNLFIFzVnn9Q0WNeCNSLLazX4dik1G5TiNBe4EDXlG5M1pPjCNNqv9TR3cLo0YlwyNS4y\r\nKDURHcI0YndYNYif5TSmE+80t0orNRktIjX2LNc0LYQeNa/B9zQCV8M0CZFlNeY1SjX+wqY0kn2Z\r\nNc0IFzWC69I0DLe8NLzORDU4e04167J8NdJAFzXeIgM1iPPZNEhBVTQiigM1SxQ2NQBANjWLbHNA\r\nrnOjPcBSnTwtqAo8ZwpQO7wzXzs8kyk7w6ueOoc20DpfO5Q6up92OvQlQTpavHk6ahobOnUrUDrq\r\n2yY6IM9BOtr8tjm1cwQ6H7zMOWytlDnfRKQ5qhhsOTubUDnawlw5dxYtOUGNijlRKDI58lqaObwS\r\n1jj23O44fsPZOGy7rjhkagE5REGrOa7XKzl67185bX03OW+YgDlWnP84TDEOOaEi/jh8hU050DDo\r\nOMgeTzm7ntE4iwwQORz10TjCl9M4mPuAODfzFTn/c8I4WNK2OBIyFjnqoCc5LeeZOMHSrDhMVXY4\r\nypDOOJ9/sTi3bh85XHWnOLDdrTjqSD05Eb35OP9XijjpEIc4tKaTOGVY1zesSDQ4r/jAOGaUlDi9\r\nlIA4kpahOLUm+TgkQ2c4ud0IOcgHmThcWkY4R4bGOJIaIjlmu8E4d+/2OGGKPjnM0G44dty5OCBK\r\nvThWhUo4Ntf2OIAoZziO3oU47L5UOFQ2jDjehBE4NICZOLR3WjhswHQ4j8Q0OET0XDgXf5I4in4M\r\nOXt8uDgEaWk4ksdEOPgWhzjA8O036TU+OOuNwjhafA44wcyHODIKETmch3Q4LBgsOPIcgDiwfeQ4\r\nGJrkOMhY1zd+i7I4KHmwONwKaDjc6So4hHNjOEF48jjFq4c4V4+pON8FKThoG204OxhtOGho8DfA\r\ntTo4aI/zN8DycTh1rsA4K73bON5yTjh26Ew4nuN2N1qhljjAylI4axaaOEM7xDcCQmE4zal0OILp\r\n1Tct/BA4Mx++N2A5Jzjma3Y4wSIwOBeyQzi2b+o3HE1rOKjjvDd9FOo3D7kHOAawAjhy28E39ETy\r\nNwtt+TcF24c4tXiEOD9jFziK6lo41VqCOEFCNjhf/ow4CU1POKY5xzflsoM4r16tN0Irvzgvn9Q3\r\ndja6Ny4XAzj7Oqk3ThErOLackTidTGQ40MF3OJpmgzhlRIQ4nrEXOPYqdjheOvQ39hYvOG4SPTiC\r\n7KY4IyeBOKRa6TdpGi85orKHOPG3Ijh+lWM4Y+pHOLcd1DcJx+83vTaCOK6sXDgCPZw3bFM7ODdI\r\ngDhuQKk3AjbLN9Lx0jc/lok3/jxTOI5VZDhWimo4bxUyOAYGADiI0Bs4ANtpOD2Tpzf8zck3FqQg\r\nOKvkaDhUo443/L0LON/3OThtTw04M67+N1DCJzhczvQ3CrkHOPJCvjcr1xE4+MPmN4qIuzcAq403\r\nJzs3OO139jc8t1I4d7kGOIlIaji03ZE3pZe8N2jelDhnIZk3CjCiN9WRIjgf9Bw45QJXOK5v5zeC\r\nauY3nzRaOEv8OThVo5w3OXkXODA2ATjE0C04FspSOKM8Pjg2iFI4ekIROIsHDjj+/oc4dLBKOPnq\r\nkTcfFcU3yK3CN/xuuTdm3LA3oqL7N+8WHziVpDs46pjQNyZEkzjmaKY3/dYHOHGVTzi4Dak3Lr0B\r\nOOiN+DcDMg84nTPTN1btZjdSE/U3ymD/NyUu6zeTsBU4g6uvN3LC2TdkVZM3BkPtN20CFTiIfsM3\r\nKEA1OI73BThlMxE4br0pOD1H+Td6GeE3E1YdOL4PFjgx3TM4ODHGN1od5zf4IMg3zEbYN8jLBThs\r\nLHY3PQ58OAOE4jeKv5M3cjpHOKLGMzjyoSU4zI64N3PVDjii7r83AmRsN78WxTdymAU4esnrNyfr\r\n+DeTuBM4fBsBOKt9hDduuAY4zLrHNwtVuzfWhTk4xWfNN33V7jcptsg3uVsOOByxCThww503zuPS\r\nN+w1eDeDbuE3wF0KOG/c4jcrmqg3nvjvN7Zu1DdNIuM31IUeOPb/BThkVwk43XDxNyS/FzjwydA3\r\nGrXRN6hHEDjSs0U40FUIOJnfrzc0xs43UyOAN3HTnjc3LRo4VRoTN4mo1Dc0ZTE4xbkuONII+zfd\r\ne203qIAoODQ7vjfpITk4/NFIOEdoBDj25RU4IAr7NzjFyDewoJg3ZdeROHTM2Dd61P03KTkBONbL\r\nJjibJ+Q3YZ4eOAxbyzcG6JY3tj3tN1l5dzdcCRc4TMpHOMXh0jcrVAo4AxVNOI297jee9LE3y28P\r\nON3I/Tc2De03DOEXOCZvojdCCp04cjqLN0UYWDej8p838goEOGE9dzhOv883Lz4LOBA8rzfcpOQ3\r\n3QUWOGQAtTcy+YY3cYaQNzkoBjgtejs4a4W2N8TWkzemhNE3ZbXaN0D6Vjdd//A3NOb9NyjTTzg9\r\njoQ36W3uN7ZOjjdXAgw4p+u+NxxvCDjOUdk3gqcXOJPMqTdBFh83WboZOLJF1TeZnoo3h5NVOE1W\r\nUDhLN/w3uNCSN+hsoDekNpI3bdXjN5qUoDf1dhc3SAEEOAVAGjg0Z0M33PGMN/46Djjskdk3NssW\r\nOOWPDTijdKI3MTi8N5a9PjggVKE4HgP5N6blOTjXd6E3O0+gN86w2zc9iwU4Xz3jN5xsRDci0uU3\r\nb79iNy6zrjf+XSk4Zn2eN0dglTfCsWU3FtK4N1msdjf4wfs3vARJN0bHyDd0RBI4+pcWONSzCDiZ\r\nxLM368JkOFrPFThsoyg37A3zN+sXQTioAzY3A6sCOFh6FDgjoAU41KwROMFNnDf58y44slncNwgV\r\nkTfutNc3+NDwNyJxmDdyvc83g5rLN7C+qTdGCYg3QLyjNyKV8jeXwBw3zBMFOLiVDTgOnt03JJ2f\r\nN27NCjipc0c4d3qYNzCcjjfIfik47KeLOAjbqDdVdJ43qc6DN4eAiDc9wuo37HohOACCxTce9k04\r\nqn6qN0Ws8zfTLTk3olJVN2MSxjd3HX83O+7mN+xIxjcUQU84QreoN9CDRDjSMU83F6wjN2Ll0Tf9\r\nVZc3X+zhN+N15jf07403dr3dN8anCzcVuhc4Gq3kN1Yy0jf3wug3cV6iN7dycjdMyOE3X59nOFt1\r\nQjhei483MzLlN6g/2zfdTf03d4KWN/euzDfzsdw3tHmrN0smqDd6HcI3/GQhOGfeBDhO2kE42HIY\r\nONclTjg8vb83kEgYOBZtEjckJ183Py2aN+rWpjdadN43SJh/N2+T9jdWfUk4o3+WNzS7fDcTDXQ3\r\nSMUXOLNNQzf8L8c3QWrON3b51DfZrOs2/2lTNVHZHjXwUvk0zLpVNaq0EzUQKRg1wzbNNDuokjVU\r\nWxs1EMWFNeqO7jRsmIk0ln47NTBpazXWLBg1/Vc7NczOtDQgUC81VmxINTck4DR+5Qg1HmD6NF8/\r\nEzWI4Pw0a3kCNTT6DTVk4yk1LGfhNOIFSTWsxJw0zcI5NBiDGDV7fKw06tgmNa6y6TQ3g2Q1fs2w\r\nNE5DzDSw3cs0bO0bNQUU9DQa5ck1meSjNIi9ZDXm6c00vsgrNWf49zRMNA81rZ74NPBk9TRX2gk1\r\nK+oGNYvX4jQGcIg1E0gINTQfjDQqLhw1+0gXNcoG8jQI8Qw1Uur+NEMXFTW2R6E05J4DNZzQ1DRk\r\nv3U1SrbuNLaZDTWrC5E05NyoNOweUTXlRiY1rl7gNGwrJjVgRxs1ewTtNMHHnDToUho1yOC5NPOu\r\n8DS57uQ0IFQLNab30DTTmJQ1doAaNWSbuTQyX5w0lDnSNJ0ZvTRwi1Y1xkv7NA5bQjU+cTw1VqVN\r\nNapmvTSMzuA0u3WmNB7FSDQeuLc0h146NQz5CDUy4nU1zkDBNGd4BjVmpAs11m6uNKe05TRdwK80\r\nm1oyNfp4LzV6vwI1yHJLNcZ5uTRg8aQ0iL/YNDkwDzVAMXU0Q78ZNREC4DQxvwg18d8ZNZqYrjQm\r\nmq80/+kYNXD5MzUb0RA1CJaqNL7HKjWEg+Y0PlgQNfde1zRgr9A0F8vwNNb6LzXmVAM1ul8eNbYh\r\n+zT+pcA0DXifNB6ZvjQs7fQ0y/zsNEQX9zSIEQw13RqxNNALyjRcluk0D53rNOI5uTQby000U2MK\r\nNXAF5zRL3b00cn5sNCEWAjVYgDM1dP7xNOCBvjSq5UY1E5LcNOxaEDVu/xA1RXmFNGZB7zRApiI1\r\nFy0ZNWCpGjVn2hE1BHjUNJxlQzWkd+c06uPfNIMOKzUx8Pc0FH3xNLgGATXHsIc0/nN7NUByczRI\r\n5Dg1GpYDNRjM2DRPUsg0N8A1NS269zRj4TA1WCKONGa7CTVZuMs0WCj9NMr7NzVVn+k0nZH3NDxx\r\n5jQD6R01G4VONWwTFzVR/6Q01O8ANQupBDU3cJc0LL3QNGCsrTTd9BM1XkmfNB+IyTTgFGY0AomK\r\nNMZWojQNHhw1iWgINUVteDU+IKA0qjjXNMXm0zTdkDw1yuAlNSx4GTWJmiU15j/hNJwUujQcxek0\r\nwcGuNPLnCTWQujc16nUCNYtruDQcr4c10+n+NMwK/TRXvos0NOL9NGjUEzXkKoU16o4bNbyCvDR8\r\n5t40kJlWNTN8pzScZyc1NIi9NKaKPzU0/1k16HC+NNuOfDToiII0VzrqNOxW7jSk4jw1uoXrNHHi\r\nwDRRZPA0qgAENd5u+jSIswI1urIfNd5KgDQeUhs1cjgINeaACTXf/MQ0+Y8JNVRXODXd+tA0WQx9\r\nNAflDzVH7Oo0OkA9NRorujSoazs1jD7jNLrIOzWeQdY0nVFKNT7LAjW3fpc0xPmsNAJHDjWHYJc0\r\nln5wNQrvADXRQKs00AJBNdYVSDWY/zk1jv9NNSoY6zRQHgk164/cNHtIiTXwcts0uqWRNKCx3DTu\r\nd7I0im4mNQPEUDUnJrU0wcz6NIqP6jQpFZk0ThXwNBK5iTTEOQU1duZXNamxGTUuEwA1ZBO4NIyP\r\n2zSp7oQ0bAauNJTnnzQyYNI0kvwaNbIYyTRSShg1vpgPNTDXFTUsDbE0NOkNNa7IkzXJnAg1N2Ml\r\nNQkyyDQQqto0q+EMNdluHzWO9As1KSwyNVAnpTT2fYE0v9QQNWQjrjQ8y8k0fJvbNDEJjTSJIgo1\r\nGzIgNQsv6zTWOf004iLtNJLlNDTj+0A1Fc8qNZHunjRmV940ig0PNeo9tzTUxNs0mH8tNePPIjWV\r\n3u00HuOUNNaAETVZZLs09POKNDZw0DThgoQ0mt8hNaCX+DStQ6U007oLNZq/HjU9frA0h00ZNTMo\r\nADWSvgc12a+FNHziDDUr+fw0ACgDNbVWhzQIask04ZXfNGoTETXQPQ41fy3KNGxKzTTR/zI11OCW\r\nNJ0V8zQT/lM0GDneNEw/YjVWAPg0UE12NcjpLjUaJJM0nir2NGD7CTU3uOQ0W81gNfSfUjQpLZU0\r\nEFmZNNZy4DRLsuU0NALHNIuPcDWM3BI1VucpNSnqqjTkpJE1HlzjNLv3/DQpTgE1iU0ANSlRuzTa\r\nefs0LI47NTNKPDW800s1ez0sNLbYhDRfzew0WOq+NOImqDQcLsg0oEQFNXC+0DTukh81vCvANFJ0\r\nFzWU+Ss1dAIaNXBYwDTl5201hquSNIZmjjQH8Vk1DdjMNMm9kTXTEao0CRkiNZJo6TSRiTU0RA7/\r\nNAEK9jQSGkA1xmPdNBT0LjWNkts02PvqNN6RhDRwDhU1K4YlNeOKmTQaevk0ACDSNQ==",
                            "noiseTrainingType" : "default"
                          }
                        }
                    ],
                    "start" : 35484,
                    "duration" : 6675,
                    "mediaStart" : 0,
                    "mediaDuration" : 6675,
                    "scalar" : 1,
                    "metadata" : {
                      "WinSubProjectDisplayName" : "",
                      "clipSpeedAttribute" : false
                    },
                    "animationTracks" : {

                    }
                  },
                  {
                    "id" : 129,
                    "_type" : "AMFile",
                    "src" : 25,
                    "trackNumber" : 0,
                    "attributes" : {
                      "ident" : "section-20",
                      "sampleRate" : 44100,
                      "bitDepth" : 16,
                      "gain" : 1.0,
                      "mixToMono" : false
                    },
                      "channelNumber" : "0,1",
                    "effects" : [
                        {
                          "effectName" : "WinCompression",
                          "parameters" : {
                            "attack" : 0.0,
                            "gain" : 9.0,
                            "preset" : 1,
                            "ratio" : 10.0,
                            "release" : 3500.0,
                            "threshold" : -20.0
                          }
                        },
                        {
                          "effectName" : "NoiseReduction",
                          "parameters" : {
                            "denoiserAmount" : 20.0,
                            "denoiserThreshold" : 0.0,
                            "noiseProfile" : "4C62QA3fxD0xu2M9At6hPSSjTT54x4I+nCtTPvSJMj5M8jI+e2agPSohNj3yKCU7f1DrPPtESDz9\r\nvbU8UFcmPUOzpjwPnpU8tjdmPN2enzwnBYI8R5+EOwmggjzL/QQ8hVFoPE3d3ju2LIw7d8MkPL8s\r\nyjvUxsI7Mm2ZOzfTMDu2onw7vXZbOqn9LDocFx85NED0OQ3mYTrS1qo5pjvBOVbJnjkLRJY5UsKa\r\nOb9pyjkiuQI6J+xUOb647TkZaI45XCvUOaStiDmC8gU5YoAEOUD7Hjl/QEU54hdROW8JwjiRSx85\r\nc1vMOKPIADm1VsE409ezOBJ4nzg5lyQ5Jn2+OE0kAznAkFY5YybPODau0TjFMnI4QZkbOR1MDznQ\r\nOw85z7kkOQLr5DiPdIM4DY2OOFe2aDlGT6M493IfOfLYOzkiW4s4zlvKOIrxwjgnzMY4g0EQOQq/\r\nHTmGMqw5ELdwOZClFDnpduc55aY3OWJDNjm+XBU5uh4/OTb9lTkcWZQ6bc/pORONIDq0rpU6iVr2\r\nOay3gDoEFWM5LHaYOQ1lDDoM2v45Lq3GOaFUKjp8rQ07rsSFOuVzszpwZ7M7c6shOnSsKzzznl07\r\nZNSxPGjbSjzRfBU6pUMQOwJ6kztOYG86mxdcOprTLzvECNg7QiRcO3RZmjtHoL46NJjnOSSv5jlS\r\nmv45+Ii6OpLADjpovWQ6fM8eOjbelzkdXKA6umeWOQEubjsiRN06NVTJOY0nFTr1Cr46L3C3O0xZ\r\nwTvxcqo6fjqiO0BQNDos6aY6FpISOk2pNztCQWI6V0CVOnBJQDotfxA6XNfuOkGorzpAkgE61z0G\r\nOzqpzTlKn+05sAWQOuy50DoHUoc6b+SsOeIfljn+8Lk6RTE2OxG+6TqTjtY5KV7gOMIbtjoQ16k5\r\nmt3KOc77vTlwLec6slWIOXVgYjnstGg5aNozONpg5DkDnPI5sxLcOct0wDk2u0s6+Ds1Oqke8jmK\r\nM6k5pDwBOteiPTghNKo4AFUdOVs4ETroo+Q4jC2TOmHFEDsEFYs6b6QROsHipTm74RU66CaSOmce\r\neTl0Pqk5lA0jO/6DADtGHco6hsGJOiF6kjiD0J86Kbu9OwDeajvafVw7tBq8OgfE3TmIeOk6f/ye\r\nOi9JITpdtCo6nDnwOcgCpTpF2Q86lmBxOjiVGDqqHww5BBgxOmf9EDnUuYQ64F8POn4omzqMjrw5\r\nSYU9OvfKGzpL2205kVbBOeg/QjmW6dE5b+EqOpFWmznRNmA5SuUNOdp8Jjm0k8Q5nZEVOo6b+Tk4\r\nEkg57hsOOslHszkrLB04txyCOUBB0TmEKEc6nHeAOeTJvTmZPQE5wGRfOVoV5jioAcw4l+qnOZcD\r\nLjqOep85G5TrOai4+Dje13w54ZwXOHs3cDgYuKw4AggcOdg2CDl+sPI37mROOQiNgTjI1yQ49mg2\r\nOXhJJDlCzmg5RoNmOf46pDnH91Y587ddOarE5TgQVMI5YF33OSP+kjnNgPA5MwYoOrMk9zmS7Rk5\r\np6iAOdFr6zn9hxk61rCWOZ73zjk94Nw5QaK8OFwp1ThxYBI52RVqOG5ZEzk4H0g5Hd8qOYfLCjkt\r\nNiQ4tf7nOHAzEzhgFRQ5oEQaOLTqtzfb4/43yP7dN2ru0jiByYY4eIPvOHcXBzmYV1Q4mNquOMzM\r\nXTiMpq44wSUdOAN+UTgcppM4209EOW0iEDj9ZjI4gMa3N5BvuTfXMgM4FXqFOCiuETiDluI3O6lF\r\nOCyCFDhAe6Y3puY+OODAKThpB9c3r4Z1ODkySjjcZAc4tA4NOPKX2jfoQDI4zFOnODV0Dzhzvq43\r\ninUnOB/YLjj2Dv43rM7LNwtcTzgKps83okZbOOni1jcZ9LU36lP3NznVuzdISyQ4uGShN838+zfu\r\n42w4RopXOI/YNTjYf1848QRSOEEEGThDndk3KoosOHaUPjc/Pp03khPhN1asLThZ9vA3JygHOAED\r\ntjeuZT84/gYoOPUmhTcsaQE4Wc4LODiNEThJdrs3dur5N7B8zDdwESk4gkakN56WVjiQf5c3awqJ\r\nNxS0CzjE8ak3+llUOMROJjeuXKM4h651OFY9Vjg0Gs43phX4N3W2EDhSGMU3T1bPNxCo1Dd+jrk3\r\n9/80N+7J7De8qRg3Q00EOOJj0DcnoyI4qNfPN3agTTfgnds3XNf0N6So8Dc0n5I3XfICOCTLSjhO\r\nQc43aHHkN9EwIzgfqvU30WZsN9ZcrTdDXyI4mF+tN3RnLjiWEz044AD9N29ZgDcbnyE4oy2rN1Ai\r\nzDdE2aA3UDPIN1sFvTepubY363MKOP5EeTet08s3DcA0OAHTQDf4pSc42OYAOC5lQjiKr5A3HML0\r\nN8AKbjegXKA3d8eZN0PF4jf4Pgs4fLK8N5kkODgHrjE4yaGuN4xNnTeU6hM41lnYN+clfTdL3N83\r\nGSDAN0KJojdaghY4AvovOM/Y7zenHvg3H0ZEOI78tzcs9T84Ccp/N0o5oze+j2w3PNsJOO6ZpTdB\r\nncs3xn/KN+DzHDiHE7o3VYT8N93sJji595Q3HhfMNxl6AThsY/c3dPDjNwTMajggKQQ4MpueN7QP\r\nqTfJEkM4OrQfOMDubTf/QfU3pCpwN1dbkDdBz143zlXbN2v5AzgMmbk3Rso7OIt+zDd0jqU3cjD6\r\nN0z/nTfGSU44Gp4hOLXC8jeTPWU3vAdIN5r42zcUWKw3KSWMOAOunjdXseg3bc8sODAH8TcAsiI4\r\nzvnuNw7zHDh0Fxs4TjKbN/QlDjhMjKc3cf7lN0chrjdy0+Q31wjkN6tyAjiDXNw3/pe2N/yGzTc/\r\n9A04CmzkN/MMfzfYiOs31ieNNxSExjeZ/QQ4b7C2N3PhpTdEZqw39pTBN48t9TfuVCk4AMXINyXb\r\nrTdCPa839kgjOLCVLDi4lb03VrQHOLvz7zfwmBM4Op6fNxIR1TfQHgY4Wy7RN36EDTj6yj84XVy+\r\nN4fenDcvkbY3A1GxNytQTzgAiAE4zC2pN2RhGDhsZP43fdMlOIDLnDfInQY43soRNyjFOTjsXI03\r\nMqA4OAl/Pjc8hiM4FjxfN1y7JjdC9TU3FLoWN8Fw6DUIK4g1BhseNViGVTXAJlQ1Qa9oNUPpZjWT\r\nzVk1vJr5NJG34jWUrTk1kwMqNXbcizWooik1uwQjNUjtKTXfmyA1CIb0NLRKjjWEgzI1SHZvNZrG\r\nhjWjI/g0eckDNYbZ5zRWDjk11NapNCGiHzWlUEY1l5zYNILzCzXP72I1DFRDNc8YKTWdcnk1rpkk\r\nNSJ4CjV/D/407m/jNDgEXjWR/gc1a2slNaqxNjUseYM1e/DQNFopBTXeCi81rPEBNVN/VzVBqGE1\r\nZlg+NbkFdTVaMMs0RTELNQFT7TSOmRY1AKimNGReCDWZw7c0fDy9NUOHDTXLAgE1aspJNf6oUzXY\r\nj/s0Cp5BNXsRZTWa8nI1OK4sNWCIuzTHOQQ1BoOcNLNzBDWoNeU0JjvLNI8tdjUFLJU0rDtkNS6e\r\nFzWy/UE1/ZIANaa+SjWhW0w1RnUQNVwhEjW+yow1bVo4NSBokDUhIx01ZB15NG5AzzRDck81zpj7\r\nNOJRWzX/44A1BdmmNe7hVzQohI4123RcNRBH9zSEheg0sbU8Nfg5/TQQv101rmSGNYsSqDROPEc0\r\n/TBBNTQZSDWu7bk1xDjbNNm+szUOLbQ02rv5NIFfBDWfI5s1HWksNSrv4zRuT4w0jqsSNY+ZETWR\r\n7AY1ysTlNJSXuTW9NQg1PGggNTn7pjSEHwo1dv+BNCcm+DQjQc40fD1mNZz8ozQSQ1Y1RkAsNTLX\r\nGjXAySk13FVgNRa7HTUb4CY1QTQINV3NmTULLHM1u0UvNQJjFjVYmmw0qs9rNASICTXZzRk1Jy1M\r\nNcsDMjX+4HU1lNdVNcGQdDUyh/c0JhhaNZLfXDVaUws1MZLmNCCIBjWQDus0w8NHNXdbcDVnGFQ1\r\nveGtNKB7FDUMPuI02Wz0NGQfzjRzQTU16Yc0NR+dbTXUXj41wgWeNZ6W1TQaLz41tZ3vNP7i3TQk\r\nnbo0PD8zNTxBrjSCfQE1hVkHNdJxsjTwZGE1tKSwNT7HfDUi9l01hFkxNXywxjTp40s1B5heNXCX\r\nJDUieK80OvnZNN2grzRQXJk0DYABNS1doTRwTfQ0+kAYNe54UTWECzk1gO1LNaXZsjR+HWw1TgpL\r\nNTNZDDUeJ+A0J28oNVblCTXqHiU1EU5iNUDgWjV7S4I0rA2CNZtFozQFqGM1fN97NCZT6TQdXdI0\r\nxLcpNZ+emTRyyBU1GGCaNIzuizRHyyA1Y7WbNSndxTQTukk1CBzYNK9vKzUVHBw1F8AuNdhEpjSV\r\nQyA17JTiNNiW1zRqIgw1zEazNFiYKTWEWiI1c2OqNNb6HzXLc+80MCvaNFKZhjVX/u00O2aoNI25\r\nIjWquZI0ZQg0NYxCBTUkpAA1AqMgNUZOczVVcxg1Vi3xNDoe8DQmMAE1Jhy+NMHTyDTEywE1OkMm\r\nNXp8fzT6vzo1FunXNNIvyjVRnQU1kyo1NfktDTV09+U0x0TvNBeypjQIbXE1XiAbNXiNCDXAq0A1\r\n+r0TNWJwDzU7FqI0XrCNNUGl5DRwC400BfftNBW0uDT3Qwc1e8zQNOonGTWW7V01mHpDNZcwEjU6\r\nyeY0tf8hNVKCvjTAr8E0wTv9NIjYqTTtPxw1PsP4NE8qIjXQHeU0pCiBNXiZEjVlFBY1H3lXNayY\r\nPDVNbCg1qgixNCkmvDQ68+A0lSYWNbzvKzUguM80KHm5NJW2NDUyxf00eJYqNb+6TjXYwjE17pmn\r\nNFwaEzUu4YM14QX4NGynvTTKe/c0MvIDNduY5DQgldU0dGXONJRI0DSAu+g0np48NdYLkzWCMR41\r\npTW8NK4qMzVRLK418Gy8NNQuDjW1CtE04v1QNZLWWzSB4Ls0MOr8NOHgKjVvVxk1A8pWNcPEDDVm\r\neEQ1RHWNNJdp6DTXs6o0cz0jNZV9fDV7XMc0KOijNEaakjW4ZcU0gv6bNJsCuzQctGk1AG0XNZpW\r\n6jRqu6U0Bt5DNXhesDRyYxc1YJ/+NDM8GTVM3PE0As9RNbmwcDRZjwU12Tt0NSoQ8DSD3/00pnU6\r\nNWD+BjWGnMc0HhZONYBuMjX81+A0Nlg4NW94kTSRqkE1uR+0NCquPTXCacg0MuAVNULfvDQ6YRQ1\r\nBIyXNAkksjS3+vU0HhhXNSNUHjXXGtE0W7ryNEmMPDUKKtk0O1GaNYn86jRoOQI1hTiiNKMZtTSQ\r\no/c0Sun4NAlPyjRID700rOafNDTYSDUDG+Q0a9DjNL8G5zTr6gk1lYCONFBgrDVqqQY1dtsdNUXa\r\n2TQrgv80CbUzNXP1wzQciu00EDVMNbCevDSGfWk1Oc3aNLKrsTRhcQY19UENNaH51jRfHJg1vphO\r\nNXLGTDUg6Xk12kM8NZvXfzSLUgI1XgYiNUwURjWes1g1NrIMNW3CBjUsU0Q1Fpo+NQBANjXFZvRA\r\nUdfmPWD7xTyJYmo8Wp40PLEleTsu5og7POcwO0MQ7jq6a8I6HCYROzxlvzqmPbo6Y31nOi0QiTrR\r\n7QM6q2TXOdZDUDpI2w86k+T6Of598zmHbzI5wYcbOlXzmTlYJZY5E7FIOZU1gDk1tYk5/AfbObSH\r\nEznOycY5uciPORZ6Ejmk85g4AILTOeRkWTkirD85loLtOAW/zzi5GRk50rUrOXnqDzkplIw5tFin\r\nOC3P+DiOKcQ4D72eOc7cGTnmTo85CK8WOahxGDmJrjc5jVzmOMUg+zjY7jA5RVVXODJR4zj9hK04\r\npyyhOB4IozhskKw4R8G8OD4w5zjGRkM4zve/OG6yCTkQgKE43VrnODgoBjnbMgc5oVxUOCOxjjiJ\r\nDK84akZpOEEKejjOMJk4KR4GOYqugjhhrLQ4hPNwOGBgkThxamw4wNmFON6hgTg8ItI4gYLeOKVh\r\nzDhwpxs5fa0NOUQwCjnorRM53o2KONNLVznQA7A48nTiONIziDj1irw4/+2fOGoEZDjfSow4/OUv\r\nODorwTgAbsg4DJlKOCgKSTjWxYo424pIOGQvUDjM9ZM4JuoAOAlXoDgIMaQ4/RFxODyrjDghLQQ5\r\nYEYzOGLMKjiSixE48dpLOCGpLDj/SkA4b8FrODjJpTgKXKY4ZogLOP8oUjgSSi44bkA/ODWmTziY\r\nRZ03pHM9OMy7ijgCZTE4GF0SOKajGji/dqM32dmHOFw0XzgvATg4GV90OOZfMDjADHQ4sRkOOSGi\r\n1DfjQyo4CK6UN9HYUDjdi/035MWJOOM/QDiWdAw4k4wFOGY2FDjg4IM4ckO3OICbPTgsNG84/iDH\r\nN9Jdizj/Agw4784aOPynPzhOGAM4iCUVOJblXDi+VkI4h6FzOFiOjThWFEE4kXOhOMZBgjfcspU4\r\noTDeN+BvNzjQRrM3rLyBOGxElDgk7UQ4HN+kNzJ27zh3ulE4MS8gOG2hUzgBJUo4tV8kOI0Oczgg\r\ncfU3QBUTOK84nDjX/ig4CGRCOGZhvjdt3R046FISONsq3jf3evQ3kjkOOK9SCjiUGDg4Y6Y1ODVZ\r\nvTf3XTw47EC1NwklBjgyz+Y3r7PZN669EjjiREU4HtNfOHb6hDgltTM4WlhjOJr+5zfkMQI4Dmi6\r\nNzY9szf4/PE3DCNkODv4Qzji3DU4I22RN5YzyzcBuQQ4Ni16OJltDzg99vk3xwsfOFRuDjg3dSU4\r\nAKjfN4Kr2jdRL0Q4qLhJN9DDIjhk9eU4RQbrN8I8cTeo0zE4QJExOEZaCTh7VAI4kab0N6zHCDjK\r\nAdM3xA30NwY99zckN4s4mNfpN2eJxzcn8hg4zFX3N95roTd6Hx84EFTeN3kK3zfj5ws4SajAN9Iu\r\nHjho5yU4acAaOC5wLTjz0a4391srOOkpqjfbzc83xY1AOK35IDg2+gA4SO0yOJpNKzdjjBU4iNKX\r\nONTVFze6Cao3OBfcNyk/Cjitgh84Ge0OOOIRuzcnjN43bahCOOCozDdonhQ4pKrNN9ksDzhcMbk3\r\nOF74N1H+xDcyHKc3u4zPN92xDThLILg4yAstONh5zzeKYAk4vHXWN0WJ/DdSqGc4/It3OCj+aDhD\r\nFGg3sm0eOK2woTdsqIU3BM2IN1krpDfjzQQ4eKaeN1qqlzdDMo83ToLsN2IISjf2LMA3Z7/2N6mi\r\nCjhJ5oE3DbWeOBIMwTcWOgc4tHdLOKUxMDjqrcg3k+YCOJg9ojes+8A30h3TN9k6xzejU4Y3UkP/\r\nN9EgETgaUaE3mWlSN7iDmjc857c32wPWN0N1vze526M3D/tmON6cdzfqDAs4cHjqN+NbxjfWa004\r\nUrcCODDkLTjKux44IqhsN8pOEjjEWBI4iGuJN+YoSjgVt+A3MDFLOC92AjiyVfQ3/EkNOOV+qjf3\r\nJ7c3uFfcN0ZI5zd6l1g3VAL6N+jIQDf5H4k3e69dN7kipzdiZ8Y3utYTONwN7jeCkKQ3mduFNykS\r\n+zdEPcU3wHzHNwh9YzdjNBI43XH9N9YyiDcSpLM3+bi8N2K1Ojg86Xw31LwCODC7FTgbHcY3pbtW\r\nOJ8/uzdbbMY3AFr7N4FpjzddCUU4otDhNyvv8zdwGis4gYvHN2WnDjiH1t83m0xPNxt0ijg6YBA4\r\nce4AOJNGjDdeJnk406qlN1rH0Deiot83L4ofOL4AHjhRIEs36Cn+N4AeqTeKy+03VanbN/CeFzh/\r\nVgM4W0uQNw5wFDgOwiU4VvnHN0do7DdfXAM4rCIZOFQSOziyWNA338h4N6phFDeSN6437NxgNz3w\r\nPzjG07Q3qqqxNwZh3zdfj9Q38orrNyBy/Dc0aY84gyfFN0IS/zeYJPI3Xge9N2GBNDj/dEY4aL6b\r\nN2QcHTglBpY3lXEsOOhsoDfOKpA3TvyCN/iamzfbAfI30TAPOJ/djzfUbWQ3BJHWNz3YgTetDCo4\r\nN5zCNzRQ0ze1vIg3KgOKN1hG0Dc2R5E3d/jMN2ddpzdeEfc3KXKQNx6kFzi48cA3UOtzN27voTe2\r\nHto3Ch3ON/e4vzfmWdA3b6MaOMz0gjdYxAg4672wN8HKJDjoc5w3pF0kOMQmlzcocM8315SqNypF\r\n9zdo9KI3iRbGN0s1HjgARAc4L3RjN5WAsTfsQAU4PgqrONqojDdxjh84lZTNN7Boxjf4dP43KQSi\r\nN3r/AziltOU3E4m5N8BErjfIQgA40L4lOOyxpjcYwfc3jTudNyLS9DfuYvk31Q5HNwAgijfzWSQ4\r\nIGOxN/cqZjcSpIE3kZ2XN+Sk6Tcod7k3dkKQN6Q9ZjcG7qI3IeCYN5JJpjdLfoA3JEDmNy77uDdK\r\nbys4Lp4AOCu7qze82hQ4yizbN187vzcRQ6M3tTWQN7Lx3zfVV9s3P0xTOFo4zDcA1NQ3oBF1N3A2\r\nBjgzqRk4MDv9N36gEzjcpZk39H3MN039ETh/96Y3fqq0N2G5/TdZUQ44lZYeOMY2izesS5w3zFoT\r\nOAIJOzh/AyI4FmMYOOawNThFac83P6VcN7AvCjj2x1U3guMSOCkM0zfmDXI3KtoGOKUqyjdDXgg4\r\nuPBTN5XQrzdvpo03ZW0HOC2xpjcup2Y3IiTLNWgLKzUbTiM1wWdjNbF2JzUN29w01lVHNZ7UBDVQ\r\nEQY1mZIfNfHfPzWbOSg1VVIwNY4QiDUfJTc1zCTzNHpybjW2xRI1iHpCNaStYDVq1w01y8c6NeN6\r\nCDUcsGQ1/YYpNYJBQDW0LOU0VwgzNdkrNTXKt3A1wrg+NaheRjUKvAc1ShXzNChCcDXdPEI1cqEE\r\nNR3fNzVt2b80wl0PNdrMGzUL0xI1wPshNXIzVjU2Xp01eFPRNdU3lDQPcjs1s/JRNVDztzSz5y41\r\nsjrTNBn2AzXwyS41zpMZNRgIojScpyo1uT/QNHaNzTSfKwM1sm8VNXdqYzXpnP80HOIYNbxJwzSL\r\nyBw1LXuFNF3ckjWKA4Q1CvICNQ0VaDVYwjo1xJ0MNTKI6zRzegQ1OHTJNAvSATVKM5w1py1hNcdX\r\nJDWLlUM1FRbNNe8KCzUPeC01TmFdNV6qBDVegAo1eFxDNVghEDVBXmc1eMG+NNHosTVMzfM0mwA7\r\nNbpZsDTUtMo0eYYmNW2KGTVJrI41zM4GNVdJUjX+Y+g0DLJ4NQVAlDWUvec0la+BNXotHzWKr9A0\r\n38SpNDDg3jTfIwk1HkWyNEFZNjWy/Ww1c6o4NTDFUDXVLZ001LQ+NUtotjT6DYI1qvHUNJ0IrTWt\r\n9dY02vhCNW52+zQqKzc1FyHwNL0dQzWwTAo1tEiJNHt8EDXEVx01lRf8NPznbDUy1hM1po60NMpu\r\nAjV7VRg1mJgINSF7GTVQ18400fTINBahJDWgAZk1vsEINSpKgTWp/ws1YY1bNZLrvzT2nRI1i2wI\r\nNT1hvDRNw+w0x+Q9NQaaDjV16FY1DDPWNKafcDVWNhQ1+r0YNSbKiTVo1Fc1bWzoNGrqizUzLkY1\r\nzA8qNQQTLjUnTyY1lvYHNQRH8jQipFQ1kps5NcReGzVu5xc1F3UjNVY2BDUwzu40u0w7NdMiEjVs\r\ntE01/HjeNELCBzZOTt00iSzVNFrwhjUe2Rk1OJtNNRLq8TSQK7k09EwXNX5fPjWCFJU07iQpNeA1\r\nMTVrBPs0PCsMNQgwmjQmcNI0TFv9NKLjTTXRbkI1eTxSNTCBJTVsx2k1igg3NW4+YzVRdoc1LCLQ\r\nNHbVujSnnGk1YGG2NMBMEjX8mhc1TkAkNQx6rjTKzX812uJ9NUsBJDUMYtg0yu8cNeO00TQuahM1\r\nFzbyNML0iTUS+mE13mkQNbEVBDUGcuQ0piDrNGoJUDUk3uk0hjD+NIW95zTYZhc1otwANQtJgzXK\r\nI+A0JjGbNK0cnzRZpic1S3kDNU4W6TT/W4U1TyRpNRbiDjWJIVE1k/FQNSi9IjVLqu40b9r/NCuB\r\nYTVeYx01vpm3NDzQCTVTYyM1w2/0NJibLDXwfuM0lD0DNflDHjXaepc1N01HNXslDzVcDdY0ehMI\r\nNSo1ITVywc00xSxVNWSfADVDoD813vF4Neu7cDWZpxY1uix0NTRgYTVrmCU1trzSNOi/DDUUKfs0\r\nVMlwNci+rDRxLy41aCf7NM7p8jRTAKQ0LUJvNYgjJjXWVdE04pLLNOx5FjWk2ds0IOPSNKN25jQw\r\nZxY1fPtNNTqXMDXPNN40onmLNcFOvDQw1wE1rH7tNNoSIDVcQ7I0iCBSNc8oBjUhSZ80Ul4QNeah\r\noTTWT9k0A8cONd5n6TQmo141CnYtNb7FKTVM7Tg17G5VNc0WADVOXRE1lgWyNIrM3TR6QxM1WLPR\r\nNOjNjjTQilc1Ip3FNCzD6TSdjc80/j5CNcyO9TSBDw81AVzhNGcmIjUo8O40UmOFNVo2KTUrpHw1\r\n9WBINVSuSTUukDw13YACNbxKvDR0b/A0AYb2NLWSWjULWec0AVeWNGo+9DTqrqQ1bCU+NYGRLzXW\r\nat40QBUINTZCEzXAlS010f7VNGDsHDX2AvA0kAomNYIdcjTxAQY1uuWyNKyKCTVIBWU1vzN2NWzK\r\nATWhlBs1fpYbNQeNETWh+hA13KYQNX9p7jTSRN00InjlNFNyZzVLe0k1rxEHNd32BDW/Cik1JPGo\r\nNGSHVzXXvMw09H2UNWxtqTRW3Dw173HrNGjx0zQ5M/s0Zi4eNUzjFTU4R7A0CDkyNQI7XDXm7Ds1\r\nJ5wVNQr4pTS4JNw0tzfLNZYWmTVkmhQ1gEN0NeGKJjXQiXA1ww58NEf3ZDWUevU0alpGNEtSCDVm\r\nDU41TFJFNbQjbjWqKM80JO8ENZcbCDWcp7Y08uCzNGvgOjVL8yk1vhtGNS7RTjVUQE012xIuNeCO\r\nBzX+g9g0u12GNc5ZNDWODTw1STAcNYSPsTSz3e00zJ3fNAtXNzWjlTg1gMV9NP7MSzXBTDI18PES\r\nNV4B7DRLP3g1WYmRNH1wLDV4pJc0yOMgNf3WCTW7JcE0HyomNT/HhDTAJqY0AACANQ==",
                            "noiseTrainingType" : "default"
                          }
                        }
                    ],
                    "start" : 42159,
                    "duration" : 2940,
                    "mediaStart" : 0,
                    "mediaDuration" : 2940,
                    "scalar" : 1,
                    "metadata" : {
                      "WinSubProjectDisplayName" : "",
                      "clipSpeedAttribute" : false
                    },
                    "animationTracks" : {

                    }
                  },
                  {
                    "id" : 130,
                    "_type" : "StitchedMedia",
                    "minMediaStart" : 0,
                    "attributes" : {
                      "ident" : "section-21",
                      "gain" : 1.0,
                      "mixToMono" : false
                    },
                    "parameters" : {
                      "volume" : 1.0,
                      "cursorOpacity" : 1.0,
                      "cursorScale" : 1.0
                    },
                    "medias" : [
                        {
                          "id" : 131,
                          "_type" : "AMFile",
                          "src" : 26,
                          "trackNumber" : 0,
                          "attributes" : {
                            "ident" : "section-21",
                            "sampleRate" : 44100,
                            "bitDepth" : 16,
                            "gain" : 1.0,
                            "mixToMono" : false
                          },
                            "channelNumber" : "0,1",
                          "effects" : [

                          ],
                          "start" : 0,
                          "duration" : 226,
                          "mediaStart" : 0,
                          "mediaDuration" : 226,
                          "scalar" : 1,
                          "metadata" : {
                            "WinSubProjectDisplayName" : "",
                            "clipSpeedAttribute" : false
                          },
                          "animationTracks" : {

                          }
                        },
                        {
                          "id" : 132,
                          "_type" : "AMFile",
                          "src" : 26,
                          "trackNumber" : 0,
                          "attributes" : {
                            "ident" : "section-21",
                            "sampleRate" : 44100,
                            "bitDepth" : 16,
                            "gain" : 1.0,
                            "mixToMono" : false
                          },
                            "channelNumber" : "0,1",
                          "effects" : [

                          ],
                          "start" : 226,
                          "duration" : 9,
                          "mediaStart" : 330,
                          "mediaDuration" : 9,
                          "scalar" : 1,
                          "metadata" : {
                            "WinSubProjectDisplayName" : "",
                            "clipSpeedAttribute" : false
                          },
                          "animationTracks" : {

                          }
                        }
                    ],
                    "effects" : [
                        {
                          "effectName" : "WinCompression",
                          "parameters" : {
                            "attack" : 0.0,
                            "gain" : 9.0,
                            "preset" : 1,
                            "ratio" : 10.0,
                            "release" : 3500.0,
                            "threshold" : -20.0
                          }
                        },
                        {
                          "effectName" : "NoiseReduction",
                          "parameters" : {
                            "denoiserAmount" : 20.0,
                            "denoiserThreshold" : 0.0,
                            "noiseProfile" : "U8lbQPIFiD3yEU49zw5PPG492jvMgH47blqHO4CSBjv4CgM7HHmlOiB6wzr2qGg6TldXOp1SeDoP\r\n5I46HEFPOlZgXTr59VU6HcYTOllzBzpwi4o6NqVNOjJXIDr0U705at7QOSQRkDm45oM5xrrLOSGQ\r\niTlN84s5/3ExOhZKKDlGfvA5QCI3OfPPnTlnvbQ5Zt0qOSXUkzkg1T46c5Z+OXDO5znui0I5oaFi\r\nOQZB9TgRXE45RF4BOaiTDTnqnj45pitNObibUDmqI145QQkUORhKEznmI+M4hN0NOW7yZTlqEGI5\r\nE42WOMW9wjhi9RQ59QcqOTV7oTjGAlE5wAIVOQZ97Dh8Xnc5GqYPOUxDNjmDgHs5lGbCODvccTnA\r\n0KY49BiXOaXFDjn2azk5qCW5OIld3TikmhQ584SxOHxYmDgci/E40Z0KOQAF0DjyZTg5MiRMOaLL\r\nKDm9obw5Pz8lOTFuUTkboQI5FjAMOfQPdjlf0Ow4v248OfaMVjljIpI4c+95OTY+4zhtYps4xHQT\r\nOS8nkDi0ScM4QtqvOLeCBzk6i+Q4WqnGOCeYVDgVnbE4uCutOOlPZjhgV3A5+WMMOQNclThqhQ45\r\n2CvAOW7BATm/txY5WHwGOQoQVDkH3g45WvBvOUrUWTmo3705WC+UOcPZKTqSpAQ6OsV/OY62gzlc\r\n70k5aTtlOuoG7jmXtpA53yBjOeQ7HDn+g745em/tOex6cDkIk2I62oatOdTxLDpl+CY6pVIPOkR4\r\njjrGyZE6/ydeOtDkCDoe/UY65r5nOW2ViTlHGNY5P6UyOm8l0jnEeu85lRCJOU4wUTr2/pw5PW3B\r\nOUIb2Tkkwx05YXIFOrpvPDlGkmw5/+HlOcBmujnlmTM5qQIBOb7AgjlWYHk5V4SmOfCtnTm0ACc5\r\nwONKOdEQijmszqc46iP3ON1c4zhGlUs51bufOCBWqTidLIs4kp+tOMS6wTdIgoY4npsLOT+Injhc\r\ni484GYkiONEhgjgvTRo42KmuONQiATlJh484GgywOAIoiDiqRHE4ZJZ0OLjugTi6qJs4fLlXONwa\r\nVjgIIS44ICGvNwYmyzfZvWo4se6OOHl2dTiycLI4/ImxOKZ8iTixKUQ48R4IOQJVrTgUAbI42XxM\r\nOIu2lDg0wYw4ZnRBOH1xmjgD7ms4m7ffOPWn8ziuzAQ5o4teOM3cqjhaz8Y464/vOMZUBTg8E484\r\njvWdOE4VbDibHyI54V6hOLxRujiFAyQ5xcsOOZyNcjhwcRk52tbmNwx4hjiTJPc4ukqAOFStPjgm\r\nWak4kT0POEbjpjeO8Xs4OoY6ONuRYTjNYPM3MPgGODiOnTi3gFU4wA4HOMvW1TcErEc4a5kZOKl5\r\nTjjz8vc3NONjOLxzYji6Pqg4ZmgyOIAqFjjiQI03DdGlNyOFlzfoohw45QqkN9svNzil19I3bDO8\r\nN1DUBjjMvAs4lmYrOLorNDjgn0M4ykrmN61yVzdQny845Th6OOIGDjj2dEY4oNhNOM2UbzgCrjA4\r\n8w0WOO4HcTgHbKQ3U4gvOEfIYjj3btE3Q3UNOMoasTimr+w3T2exN/xEADjkpiU43u8fODKZ6DdB\r\nG4k4tTnXN+7M9zfAbwM4ztx1OBAVgzhYdMQ3IfIyOJikPzh+G543w0AEOKfhJThZl2M4wqMlODxh\r\nzjfRqhM4FkvbN6ACcTjJOBo43yDRNwsGfTe/Lpc3dzovOMvVjTfOvIs3s9kiOKQn/TdzlRs41gPH\r\nN3LBWzg6Zr042mLTN0Nm+Dd7aCM4hb2pN6BshTdGfZQ3ravaNxxigjhyBEY4PxswONuD+DeyVdw3\r\nuAc3OIr4gTjN7u43xGTKN81DwTdBJKs3KgMEN6Kb4jdcmb43h9gNOAuvrDercA44wSiZODs+Gzgu\r\n8RE4zlKaN8Wk+jdeDPs3UbUfOILzgze+toE3jsrrN4BBAjiCPzk4/TnfN7FbSjgxMrg3rV3lN3y6\r\nazc7TYs4JscYOIP6IDjTHMI3+N/ANyI8zDfpeRk4GnO/NzADAzjQJFs3JudFOFemHDjT/RI4qb0G\r\nOEKNAjiyGdk3jk6JN//IIjjC9BY4+KoEObEZwDcJoLE3QATlN1hkMjeZ3No3WaApOO1NyjcpM9U3\r\nnKTBNzMBCji4a7Q3sKDrN63t+jfQkqw39c7UN2n/yDehSI83fR5BOCL/GzgSba44S1AlONdVxTdF\r\nUjg44sm8Nxo7GjgXTQM4an8NOLqFATgFsPY3bi4RN2POBjgg9bw3nJuGN9w80zfpBgM4ooCMN2IV\r\nbzdfiC44kgi8N4mmiTd6Esc3rzgGOGKGETiw2qg3QKjkN4h5nDcfjM43F3YYOGSyDziuWuk3HY8H\r\nOIJOETgU3Zc38sWCN7KXWDiHM5I3YGQ3OO+huTeE2sg3QAoBOMJE0Tfdc7k3VzekN1DVHTgsy6g3\r\nBtgeOD6e1zcc9vw3RluwN0xmIjjy5J83x43bNyY0uzcvnKU3jtQFOOHGhDes/Y83WGf0N6OR1Tc+\r\nyQs41BmkOFrNXjjOw3M4fHlXOFxs0jfARzA4IDCJN3u2QThJpqQ3IIm7N6zHAzjVaGg4OTK/N14c\r\ntDfEURI4dE6FOInSqDdq9T84DRb8N9Lgqzeh4fE3Gj07OEN14jeFBIw3SftQODxt/jdGvU835qlM\r\nN240IDhYzAU4aByeN55tPzjPUi44ufVXOIu/+zeSApU3x8rWN1+GTjcTqTY4PjfNN1mT2jcAEtQ3\r\n6XA8OFtozDeCf7k3QwR4N49P4DcCibs3jpJlOOLkvzchfRw4DRKtNxnu7TfnM5U36YjcN5sInjdG\r\nOhA4QvMNOOke2jcGItc3kOnxNx0orzcFTgk4dp8UOM1pDjjORR84lpbANyLxFDifct43+ahHOFZp\r\nDTh/xk84k1Y9OFyW2jc4bw44VsBAOP6B0Tck6po3r4OVN2fEiTcB6Uw4k8MgOOFDTziU8Bs4rgm1\r\nN7ZLhDdEBPE3ytafN+JC7DesRSc4aOsgOMwlOjhBncI3F98OOId68jch3Uo4j9wCOHxFvTfOnNY3\r\nrH3eN502AjjKqrs3WrzHN2Z88DcVLmc3EeeJNznANTbn8pQ1U9yTNdRfYzXBKw41KH0YNffKdjV2\r\nuqE1DFbbNE0KjDVEpUI1mF8XNf4RHjXtemE1mHzsNJARQjWxucQ0aE8LNUib2jQPkoA17FAANVau\r\nDzVA3JU15aAxNbpAAzXotuw0dmTdNESeETVEvnE0K+lBNaH0lTSwxqE14wQJNTZTizQ63Qo1oGg8\r\nNc8v2TS8vV811esWNba00DQORgo1w12MNWJJ+jTnpWc1BI5XNZHF6DQB4jM1KjH4NEjdFzUEghU1\r\n6pcDNfBfLTWxU8I0UPg6NWb81jSqsA019AcKNX8xLDW5ORE1fb03NUE9QzX8VTY1qrjONPEfDjW4\r\nUAk10q1VNa6DMzWcWhA1NqM5NXGOwzS4jB01HCxaNVxqADUMlxs1DLPKNOHscjXDEoQ0npgINU0e\r\nnzRODn41RYf8NOFoHTWZqL00OBuoNLSI6jRq53g15hp0NKZJmjREFLk0iiA8NZaN4TQYJQ81yyNH\r\nNQIaKjXFWvk0ukIPNX71DzWGfL80CXkUNTke9zSWQrY0aNY5Nb/K5DQEt/g08b5ANRiwQTXOt4Q0\r\nr39/NYSG6DQyoo41d/C8NDRFQzXPqfc07kYXNcMWtTTwCj41FuQCNYV7AzUmSao0/3AONeQxnjRK\r\ndSA1ve4zNUA2BzV7JBA1K6tRNXJlUDX116A0eXxJNfYU+jQpJ4A1wf5CNQON1jQeE081Z4OkNFYl\r\nGzU5Vy41sMkZNeT4XDUD0BQ1KkXQNINRuTT29uQ046gLNTZoyzS3vVk1mvV+NC/FqDSI+yg1lnPB\r\nNKEXtjTOLk41Q//8NLiuFTVR0MA0xPbHNPOIRDUoZZg1HSEHNerKpDScNdU0XewyNeIeszRLrjI1\r\nnLGjNHspzzRv7T41GPn8NJaLDTWK8Oc0N8PsNNI2FTVPLwg1FV5yNTZz0TT5cx81GG2LNJQuDzWY\r\n5IM0tuaBNY2ixjRz5JI0KhLpNDInHDU6BOE0Yip8NdLFhDT6IEg1VD2aNK4IHzVOACk1FKudNHGT\r\nDTWX0JE1ZkRENF6uQzWu0aE06zw9NTjcjDSEkbg0kyytNFVxWTVW6+w0OiXuNF6aLTWGUws1thqy\r\nNHoBsjQZXOs0hOQCNfm5rDSIni411Nq9NNF5xzT+v1M1JCPDNDbFDTVAKgY164zzNHRAdTXdtsE0\r\n9BURNRVFhzSgtyU1guylNHx9AjU8F680kDrxNK6C1DQWybo0soG2NFRaZTVK2RU1QgK7NJ+tvDQm\r\nncA0TDEENcQcAjVQxO00KwMBNS7L9zR1WBA1xdgSNYCQTjV89vw0vOhaNZI1qzQFXJo1LG3SNI3E\r\nszRdDqc0H9dFNRzhCTUOHz41ofuyNJmZ9zRR/RA1CUAONZId6zSsVSo1gGkJNY1JAjWEgsg0nG62\r\nNDAYFDVmtSQ1BW/vNOuQ9TTi3Rc1C0bJNLYlpjQJMz01JnsCNcU42TSL/+c0MNmENc3pIDXVYMM0\r\nXlSrNP6ckjTliRQ1cy8hNdaXpzSaxvM0qELbNBYGFDXu6QQ11GdnNelRHTWdK8c03DnmNLDkMTW9\r\nef00fd2vNCrJXzVQG9w0kx/INMqX/TQM0iI1HSMENQmZOzV4qBg11j7MNC1UTjUWnkA1T4MJNYdk\r\nKDUT9Bg1FxdNNf0vnTTcDCo1qCeHNdPPJDVBOj81mI4ANWQnIzVYGNs0yqoFNc4u8DR/v3M0nnMY\r\nNZCpejVEihA12iLkNHlPkDS0ib80ckTVNOJV4zT2eMs0KeUXNUkwqDT2ZK41Y7b8NLIoCTUJfaQ0\r\nIvVANWhVwzR+JeI04hU3NXSMATX8VoQ0LR/1NGIC+jTtTxM1PpojNVI9STWdhJ40uLDFNRHaqDQD\r\nvSQ1k5sZNTTdCjV9RsM0TABwNehk+jTufNE0LDMHNcYzoTSODAA1KME5NaaiTDRFlh01LubENEYH\r\nATWYfY40H+gsNcy/lTRqBiY1L4N9NCrNoDTz9YA1AkHXNM03uzRNjIg187KpNAQsATV5WjU1Dqnl\r\nNCfqQDWiUFs1kPcDNbSNFjXVmxM1q8+UNPJP1jRKmiA1K6ohNVZGtzT3krI0pjjwNHMwpDSqYiE1\r\nerrhNFo72jR28SM1D/NrNbhDTTTUgRA11lizNJ3ScjU1UbY0hAhQNcffqjQMHyc1oaMRNYS0WzUb\r\nlrQ0st9aNW1iFzVub8o0GzOiNJ9NgzVA/+o07u48NXiuyTQyq+40V4vNNGaBRjTIpMs0alHcNPRn\r\nAzUFn6Q07iAYNWEgzjRln+k0bOC9NMdXkjSt7pg1V6WbNLLcBTVuogY1rvaiNPSChTQ2E5A0vOfN\r\nNBSp8TSdzKo0LXZqNKDmSjX6KAU1PcG0NHwSJTW0Ke40R6ebNMbnwzRmVsk0E6O0NAAgqzVgIYpA\r\nX1KwPZYX+zw9qEQ8Xsr8O1VDmTuV1Bg7G42HOhKCMTswFJA64C+tOmyiBjo46IE68wX4OWqIFDpT\r\nTII5Q/wLOnpYFTq266E5LPDZOe3aBjpk5oc5NkmLOc8vqjlAQQ05yVTSOFYiOzlQ3zU57MVROafq\r\n+ThXtdQ5vs4DOcjzMDlrolU5rMoWOSmu6Th9Qyc59X8nOWBOhTmW2+o4bLL6OBLATTlwIQ45NLMZ\r\nOV//XDn0Sxg5FPehOIoZfzil3xk5rvYVOTZyQTl5RpI4BvGaOERUujgpiAk50i7VOJgxpzgo+rQ4\r\nHSSsODvpnDj6bO04svG/OAOR7zgp/m84YK2DODKUNjk3LXg4RNzlOIAUMTm3+b84IUr2OD5Mjjgt\r\nj6g4lwaKOAP8QjkKE684qv8fOJOovTiTyj850rtPOZEiGTkJDek4U3yqOCHvFDlsHjM5ZLpYOTZ+\r\nizmPvvw5ffc/OZKt4Thvs9M4tKA5OQvJFzm/i6458KZuODQB8TiEJKc4mhajOEM/ijhybIg4F8NL\r\nOOcDyDgK4KI4+P5fODc/oTjOHC441h1FOEx8dTgqno84eJvVOKXE1DhMTIE4wzztOBbSoDjxD704\r\n5LeiOAY5hzgGlXg4NZyPOPcqiDgGT804I6hCOEzAazj36sU48sOEOHgljjgy6pk4mnb0OKb5VTiH\r\nI5w4bSdWOGEkKjiVLs84GmeYONfFQDgViBI5s302OEPpSDg2T8A4+kBfOf2FfjhTDXw42HkWOAzg\r\ngTjfwmM4YtR5OB+oizhphwM4fbbMOBbeRDhFWOw33PSSOLKzsDj4hls4RFepOOfvCzgeUD04wYa5\r\nOM9Kbjjomp84u7pCOMNm5jjWaLY4k5zJOJpHTTjGfvk4JGaoOLeNDznrWE84X+dlOLXh3DhGjI84\r\nFRBKODiYZzhUbQQ4eTaUOMHWaDhgCgQ4vMddONaMnDgUipY3OmXQNz7zqDj1YDA4vcZOOFI8OzgH\r\n6cU3hQm6NxDYPzgWQxc4yzeWOObX1jfey1A4AjI5OMgr+zfNANc3302DOJ5PhTgEDVs4nPoHOAar\r\nCDhDr4o31EUNOOhhGThCZz04lTUXODbpcThBC0U3u1MaODdDjTjkjBo4lxMyOL1mJjgi+tE3iVKb\r\nOHKGkjf8bNs3mEYeOCzdDThTrqg4PhFYONPGAjj0qAA4ML+zN9mtGziSebE38AgIOALWKjiwRrI3\r\nbLfNN2D91zedMyU4z3kGON62Kjg+I6s3xoJ8N3OOGTjM9gk4T86iN5ZERTjiAxA40qkAOIB/eDii\r\n1Rg43D2DN1iTHzhyVg44RtueN8PZozdPvQA4vn2PN+bKcTh37qk3LbeLN8KOgjgfqNI3cx8sODcF\r\nHjgSWiI4Q58wOJREgThOmB84pO1DOKwP0DeqpfA3AYwzOD40uzec7703kjucOEUMDDiy+Qk4ETTm\r\nN5QMJjhaHNg3SkMjOPE64Dealjo4MsX0N7Fo6zdKpjc4xzKWN7GEBjjijQw4nm7TNxwftDfv1JQ4\r\nyEmNNyI9pTfgomM3eAwAOJ+SPzhczUs4nGSAN5p1nzdgVdw37Q7zN64NwDdKxJ83QCsSOKdZ3jdn\r\neJk313MDOP8rsTfokEo4rnKoNzxftDciacg3HfwKOJg2yzeveBM4Ps0AOFdQzTclsRM4KTYpOKhf\r\nhzgWgbU3mKT4NzFuZTgYNdI3JqToN04jpzfsuhI4UIpaN8X2rjfdCAY46qscOMM6XjeTM6k3cvuR\r\nN19uoTc0+xw4OcKTN37/zze6Agc4f2KNNxGVczemJfA3ZjlhOKl/FTgb1O83/usAON/XZDgMtQc4\r\nCU30N7uLJTiULfk30CMlOAPVIziQvQk4JEGKN0yH6TegwPc3Ezr7N6CiSjjEk/037M6AONgldDe7\r\nHwY45hlrOCfYFTgSeDE4FPuNOHoQ4TcGqQQ4shiON5xn8zcjzNQ3QB3+N1dIrzeQgh04FUCSN98A\r\nXzjRCJk3gpk9OFv63jc8JcA3ypo6OEgd6DdmKPI3bL3bN9rJqzfP77E3GRcfOIZEKTiUCf83zjaE\r\nN78x6zdt4Hk3hvBKOJC/QTcM+Oo4/HCUOHpG3jebKBk4dLrQNyzaTjcpfKA4HdmlN5YXRDjRYAI4\r\nIaPpN8LB5Df2smc4DbKpNxQ15DeqFTo4VoDjN7qDCzeQXC844Ig8Nz0rfzcgh7k36RTHNzP3wzcW\r\nbB04+VG+N7aoBDicgis4uJ2uNyAizzfPT6o3a78cOJQWODj84hI4miYFOJCAyjfl25435LjrN88G\r\nsDeYDGA3NvcKONSr7TeLvVU4N33SN3gdujce7rg3K+NCNxtW6DeRuUQ43Ju6NwJwrzfg5ZQ3160J\r\nOFUOzjd2ZPc3aGUYOC74AzhhwpM3eJrmN88lgDfE0P43c2qpN3bW+zcoAuI3wra+NwzfuTet6yM4\r\nkoEUOBvZNzeOLYs3O4BIOCDoJjh37eg34RCGN+drpjfSwKw3OKhgN1G3hjcdusk359a2N8pE4jfO\r\n/ec3l74/N5LbWjf8ILA3SIsfOGbJDTgPlQI4sQCVNxlnWzejxJs3sMT3N03n1DeOuYA3cABkN1Hr\r\ngzcwBuY33K6BN+IlZzfMOdk37DvEN6VR+DfgtNc3dqNEOBj4jDePtcA3hMQGONvfpjf+Ogg4sc8C\r\nOMsY0DfnjBA4t9xLOI7RgjiHzDU49UALOE+HZjci7uE3OpwCOLBwejd9zco3L1x3NwDCmTfWPO83\r\n247EN7J3YTiscTE4XHZpN++IBTjgSvA3Rb30N43VRTdi2mU446CUN+AcGDjV8Po3Bw+sNyOkbTjI\r\nJrM3+h8SOKrG0TcR3Io3RPeuN0BRMDhltHs33HtBOGYsGDh4Mgk4+D/HN3Fnujft6To4OJCjNwqZ\r\n7TfXB6s32vDCN2LHBDgsLCg4quL/N471FjiO7ag3qTKbN05SCThDQpM4aiZBOB0jbzdohvk33LwU\r\nOBcE2DfyWpg3HqTLNxhQazdnUS03fDpMOPK9wjcpZ+A32hQXNy5Z8DaMfIQ3AHUjOPS0+je4vSE4\r\n0hEFODzyFjic6r03iIjxN7tBxzdE2NE3cZoPNvsQmjVZ3xY1GGQdNf/xATQDX1E1ZKzZNG7RxjSw\r\nN4g0aaIcNU6hKjV4EkY128r4NOM3MTVq4F41dHaJNDzGtTQaL/g0pPy+NOFSPDUHvEU1q/NgNcmG\r\nJDWYOQc1SiRuNYLUGjWmqvg0MHY6NYFhBzW+CoE1CZ/tNAWfjDX75/U0wVGVNNxbmzRx5hI1pCjg\r\nNAiZSzXqWIU1R6d2NYx6KTXjOq41ukcENY6vCTWoyyE1XL3bNO/p9DSAc081foouNQH6xzUuoTg1\r\nrIQONb5M1zRGkm41qJ+yNMyhQjVtL4I1MdNINW7DmjSePJo15ilGNRZPzzVgKiA13ECDNYdp6jQ/\r\neTk1TAkVNYJKVjVuuHA08YE4NTw1LTVq7500xRWFNSnYDDVKApA1kEPvNFj56DS+VwI1PQuuNA1t\r\n5jRJ3t80BrYDNcSJIDW3itQ0rU17NWyiojT/8CE1+N88Ncx9IzWQQAY1fcsXNaTYHDVRQq00zm86\r\nNQl7MzWp8gw1wCgSNSvsljRcKb80Cy6hNUtMAjUDcGA1o8OnND36FjVnePk06Og8NW+vzDSWlY41\r\nzXz8NNM7DjUUIBo1Sm3aNHQ/JTXXFGQ1Yuz2NJsRmzVcHhY1E1fTNLGeBTWcpVk1H6MUNQUgEzW1\r\ngRQ1VE7fNJavZjUkiTI1PAUiNZ0J+jSu4P00t+jTNJi+7TTbiTo1qEQfNYiHujRW5Ak1MnQ0NRyL\r\n3DSfbzM1kKaJNOW27DTQJfM0r4AKNfTyDTUkctA0XRMBNd4suTVMXpE0EpxWNbkXCDWWUcg0oPvz\r\nNKKTFjX8UgI1G1aFNYT3LzWv/9s0QMW4NI07DzUsxsQ0ZE9PNSVMtTStRiQ1mYpENStuQTXKhe80\r\nANVENXIRCTW45Jw1omjmNLs9LjWsCTI17VqKNC2PtTSm3pk0USLrNMrr5jRC+VM1punwNAi+FTVd\r\na640wKCDNPZ53zQ469k0dG0HNQomFjUq9/k0TrkhNQ3Z3jRUZdU0kg0xNSuSpzS8rpw0+oOqNN6o\r\nFjV/z900SCi4NHevtTTrk8g0cBYENSLjIDXYMQ01WgyfNYR6GjUk1y01pPaYND+lJjU6bUo1NF4v\r\nNdJB0zSV9u00U1aENSlnGTVZUyU1qaTgNNgX9jR3Qis1NG6oNJx04TRkISk1pi8ANULjszSujz81\r\nh1bLNPlREjWKcgY12l5NNVqYHTWvNbU06YQlNbPn2TTE8bg08DXxNO3/KjXuKKY0r7LsNEFh/DQo\r\nHe002c5ONS/FBTUt9TM1BwbyNETfpDUD4AY1rqaaNKsMMzWJvs00Q+qJNBRUvDTCExY1/l4FNc7i\r\nvDQkVXE1XdVwNKSq2zTQNVQ1+2FdNTyGTTVE94I15SDdNFCqsjTexfo0AnVENTKuqjQTDew0XYEZ\r\nNWYXzDQ6vbo0OF98NHEx4DR2qQ41IK4YNSxspzT5XBM1qQ48NeDvKTXrg/I0vLfhNO1hCjVfvAc1\r\nOk+6NCgZkTQH0zc1FyOLNaxaQTWsBTw10m4tNZN41DS/vgM1McGrNFi1xDQrxQU18QagNGxgOjU6\r\nU440aKzBNExjpzUgNa40QO8rNd5xpDR2kt40sJhBNZjukzTRuZE0IosbNd4x3jS+USI1M1/yNBZe\r\nOzWNChY1+ZSCNXTa5jRT9Ak1JPnNNMpkEjWXwYE1nkbqNMybQTXu+3Y19ccNNZd1FjVwLEo1z2Xc\r\nNEBF4jRVvR81oasPNTagzTTLbjE1yNnKNOOCNzU3SrM071IdNdRumzU7hdI0XjYINceK6TTzdIk1\r\nx1jVNPDgKjWYZAI16zQMNQZTzjRvRAg1SVoNNbjM1zQ1PsE0tMgHNbDchzQaKYE1yDUPNf6R4TRY\r\nkBE1XJpENceRtTTNltw055kGNVZjIzWJ7i81CNtLNbjgJjUluGQ1WqbJNFFryjQF7NY0i8UANQVi\r\nEjVSBVE1QRS6NFBwATVOLWQ15j24NKO94jSC0Tw15iuJNBrbXDVVGrE0hZMZNb4QATVpT/40zEa3\r\nNPhn1jQOzTA1u2jCNLsCTzVTZMk08p+XNLySwDTYxeg0uDRANUDm+jRicTE1APRINWMPKTUwsNY0\r\nmoQXNULI8TS7zBk1DJOONNsmmDRoB480LvKzNDfHOjUj9gA19KyjNP8hxjS4EpI0eKg2NXQjWTQG\r\n7iM1sOMLNfOBUDVFi9I091sLNXyA4DRhDRQ1Yl7CNAIWzTQCDNM0u6DSNfXADjVUzRo1U1eMNCyA\r\nEDWCFOU0U4vZNEHqjzS6DT01/viMNNwLnDTrpds07az2NEZ6mjQ4MSQ1IlwuNS7LqjRU5Jk0Z7gA\r\nNQCbyTQtJGE1D4LONH3SFDU3GFU0yXxJNQidvjSv4Lo0cEKVNBitJjU1Idw0AAApNQ==",
                            "noiseTrainingType" : "default"
                          }
                        }
                    ],
                    "start" : 45099,
                    "duration" : 235,
                    "mediaStart" : 0,
                    "mediaDuration" : 235,
                    "scalar" : 1,
                    "metadata" : {
                      "WinSubProjectDisplayName" : "",
                      "clipSpeedAttribute" : false
                    },
                    "animationTracks" : {

                    }
                  },
                  {
                    "id" : 133,
                    "_type" : "AMFile",
                    "src" : 27,
                    "trackNumber" : 0,
                    "attributes" : {
                      "ident" : "section-22",
                      "sampleRate" : 44100,
                      "bitDepth" : 16,
                      "gain" : 1.0,
                      "mixToMono" : false
                    },
                      "channelNumber" : "0,1",
                    "parameters" : {
                      "volume" : 0.884615384615385
                    },
                    "effects" : [
                        {
                          "effectName" : "WinCompression",
                          "parameters" : {
                            "attack" : 0.0,
                            "gain" : 9.0,
                            "preset" : 1,
                            "ratio" : 10.0,
                            "release" : 3500.0,
                            "threshold" : -20.0
                          }
                        },
                        {
                          "effectName" : "NoiseReduction",
                          "parameters" : {
                            "denoiserAmount" : 20.0,
                            "denoiserThreshold" : 0.0,
                            "noiseProfile" : "4DU2QNhcCEJ06SlDUHi7QxXcmkMf3JxCmWmrQtz/P0Pnp8xCWyqHQ7ywBETRXexEDI4cRKCzBESi\r\nkSxDqKLdQjRbOEIxjdBB5rU5Qxz4X0PoP4dCQMwcQ5kMrkPioJpC6PyYPxNTb0C+7cs/ULGgQBcr\r\n4T8yyWA/tVItP8huZz/aggI/829SQAap9z5xpq4+rK+XPvRdmz4S81c+3eI3PkDSGz4YBAk+gK/r\r\nPReuwD1UAqk9MKYXPtvn4D0umEo9azq9PbhAJj2eJeA9ZAYNPTvt2D0Bcic9+XqrPSEz6z2RKi4+\r\ngMSjPcA7Gz0cIOA8MiT+PUC1vzwG2cA9ph7CPLSADD2BH/484//BPfFO1TzbDOk8h7OSPPtuWj2d\r\nfgs9Pf0zPkJZoz0XwQg9T4AhO2rrkj3ftKM+xjRcPtEFID6ZtB09euMHPt5jeT9U3oo/mG1+PT1n\r\nuz6EnJ4+9lEUPj6BAkFpIUJBWMesQG7G1z5Jk+o+OTEWPwAl0D5e3jo+AncWPge/3j2yBFQ9tIqQ\r\nP5euVEC30hVAUGEQP2vTQD+xPYk+OTDBPc+7HD5viYs+xdLNPfBfLj1ela8+o+vyPvb+Qz6virs9\r\nVOyePbsXiT44Qn09yBIcP65/rT6iAog9LC8LPukNhjwy9cs9jcd7PvIRbD1gkhY9nLb3PYZ4gD1Q\r\nfhU8mubXPMDDmjuLeNc8p14JPQ271zyz2jY7d3QCPcednjxAXVM9elUUPNCYvzyvgJw8/qTmPIpA\r\n3jz6Vfw84/L1PHGuPj3v5RE9WulVPWnDJD1EISY9YtsOPQopKT0XfTM9poRMPUT/PD3ZRj09MuVQ\r\nPQLcDT0jskU9M4q6PKgTRz1wpJE88ko9PdMuaTxIyzs9dPtxPIOILz0E4wE8UPQkPaHuETxewhQ9\r\nmyDzOznaBD3i/zE8pOPWPNdgvTsv/bA8rBO1O8CSijzyrto7NkqFPA8EBDwCjAk8LrYoPHQbTjxy\r\nSR89WWUjPd6fuzu2hXQ7o+liPNVlAD3QulA8VCQIPU5ogzwrPko9sp+1PRHUSD2MH4w9RtcBPJKT\r\nbDw4XlY8r1PnO6DmATwcUPc7AmIOPT7ofTzMiCw9Gz0WPb/FWzwlNpw8Q7SgPG5MgD2v+5s9ljK9\r\nPLbsoDzYQN87LiiGPLOewTujIG88JKs7PNQajDwC3jk8lZlnPBIXUTxC+SU86qAbPGSErTz05rA8\r\nOFY+PdglEDzC1dk8e/qoPL8NBzy+AT88VpBtPHiBfDxqbCE8MJxhO9rDBDw62QQ7C7ccPC3L8zvz\r\nKIg8ZgAUPeD+FDwhV+U8L8wJOrDw7zwORyc7wtDtPLZY5zyeTsg95YErPYDr4j02zkY9Pgi1PM6a\r\nLjtTGwQ9VJyKOxyRhjt7zh08Za6KPHsBPjw3npA8Fhq6O15O2DtuNgM8JepHPaQ95zxKG0A8Pjfx\r\nPGxrsDvHAME8LkTmPCfrrTzdN/86SJcQPEfX4jxw/iw8pyMiPaU0aTwfeJI8QsnSOnJsmzxshm07\r\nFE+9PB3NjTztAYc8Wg+mPMzVBzxtxP87UHYfPLUZlzpyesQ7OGjdO8/eTjw+N6k6Gjp2O1xfBzuL\r\nYig8G1b+Ou5lJzvr2Ys7ItmxOzY4XTvR2FU8HnylPL1RVTuQEH87OXTTOvTCrjwIvBM80XT7PAJ/\r\nEjwwweE81i8qPSAfpjsrpI88lis5O44MCDsR2Og77Hc5OwkixzuED+w76vaFPLmpjzsus4M7yrJg\r\nO7MACzvibcU78mOIOrcRkDuZ0DQ8sBOZO0a0RTwbDIA7kXNoOuMuQTpCyt46DJcPOtGgqTmWSCc6\r\nWyqfO/uH+zoeudA5BiHQOzx6xzu0nDI8dxfjOy/BPTvyGAs7h1cnO8w9iTy3cpE7AX7wO8qIlTtr\r\n/lE86oSNPMru/Tv2T/Q6vldtO6Hp5Trpmn879rUYO8DwuDs08Qs7mOmLOxoliTrGf3c7jDDYORbl\r\nmjv4wKk7NoMbPO39bjsshzk72CXLOm1nOzsX4pE6nZAPO9C4Pzptboc7CSZQOkYLaDv4t206jVMK\r\nO/gDIjuYq/06MAgDO8qpADvASTw8vwwcPG9SCzzkCag6C+IyPEJRozoKWQ87d8YfO8xmvjs0Qjw8\r\n5FSPPM83/Tw4gQA9h/SpPJwxFT1uqRs8fBuXPBgCVzt2OXU8lnxxO9SYEzxiuik7EUULPOIxhjuQ\r\nCRI8sNegO4wghzwNepU7OSBXPIWWhjvQX/A6jDgYO+niqzuQgO46ld2sO3C1EzyTtDc7eI6iOl8+\r\nUjuVkgE7/CDiOlBa+zoGhnk7U0KpOny7kDt0hMM7bwSUOxr/pzqkJ9I7gr0JOyA/cDuStoc6Jxu3\r\nO/WxfjqrOJ47tEwdO6L4cTyxH446WcNvPLBlDTt4Mq07974GOx/RWjoQJ0o6WTlsO0sOTjrUIuY6\r\nGhPaOry9EzxO+NE7jF62O+0PjTsAbnI6PhhtOn9NATtYvYA66mLZOqBy1DvDAaQ7vCoMPC4yGjuI\r\nwww8Qz2VOgxbCDu43b868WdnOiBjBzvw0TU7lBRmOX+rTzqmGVk7DirlOiXI8TkTu7Y7tPM0O9Z6\r\nLzpMjK060iUnO9beLTq/Aq452yYlOkS4QjtwmT06W1qpOgBLNzmyPis6vwaEOuzhDTvkEy06AsBv\r\nOjMYVDmiPqA6n9oIO7d9Tzplh+k6BSo8Oymhlzrd13E72hM9O0NSJzum3A48661rOvGj1jsAhF86\r\nagzQO+jjuDslnJQ7gAUDOwI2czqC82U6l9uIOmwqHjvOQhE7HL8JOq6DjTtk2aw7pWYFOyk9QzsM\r\nVkE68QdkO802FjquSVo6POrCOoVliTqMTgE7evxmOwgVcDuI1oA7UNC0O9VY6joZZkw77PiLOa18\r\npTrMZbk5DWwxOg3v5DpwSBE75AzmOmQajTpJCaU5OjjQOipvWTq3tQg75GocOzhRCTqAuI06/KIY\r\nOi+u/zr4/ws6TSzdOotflzq09iI7NddnOmIazTooZMI6+TQQOgBNrzkNjYU6mtEDOh5e7DmanSs6\r\nKgaFOr4zJDrYTyE6IixQOtbEGjq2E806PNUAO4+wuTl6Q0w6XpZOOkmX0jqEaRk6E6OtOlBGcjkc\r\nIyk67JDKOU4usDpz25Q6oaaKOkZCNzrKUMg6FjtPOmSZZzop7oc5MCuBOjQAUDqCfbU6I+MJOsdF\r\n5zn/LSU60pOhOjZQ/zmL3Tc6eA48OvZi4jl6HoE60RnlOWiq1Dq3t306dyKlOuHNzDqR8hs6H4oi\r\nOvwEPDizJng6aFIUOmEPkjpSQ4k6nO2oOgh/4Doxe6E6xPKtOvy7mDq99Hg6QrqNOthmOzosVYc6\r\nLFdYOul1LzryatU5ynMkOjWHHjrSTVw6ZlJTOqSkWDrSJp46tOyGOlZ+VDp7NIw6Djp6OqZJCDpc\r\nsCU6nNn9OQTmSTokBS46fM5FOrzJOjpkFzo6cY5VOpunQzq4bDc6wBI0OrHBPjrEPDE61YIxOlOM\r\nLDrZkSk6zZgsOv52LTo1Uy86iZktOry0Njr1Ei86PAguOoMMLTot7Ck6k+4uOuLrKjrczTA6BK4s\r\nOnnULTqXySk669UuOh14JzpVcic63GAwOq7dLDo84Cg6sH8rOlKDIzo0hiw6FS0sOs9xKjqo+io6\r\n9CcpOrwkLzoRRyo6Oz0lOvuoMzr9Mio6X1IuOvGILTqHmSg6GhgrOpBBKDrqjio6jIImOkTOJzqW\r\nwis6RLwmOsCcJzq7dyY6WygsOq5cLToqMCY6aqgtOmIkITqu6SM6LAQnOnQ3IjqIuCU6ObMnOjnW\r\nJTqAHCQ6EgUmOkFuJzrBdyA6r/kgOgWbKzqPdx46D5cmOljJJzqw0yc6lQYaOlkQIjpDJyE6kBsi\r\nOnzgHzrJBh46wyAgOmpRIjoi+h46W/QfOuM+JjrGHyU68x0kOtoZHzqg6x86X4sfOuxBGzoX3yE6\r\nr+ocOsXJHzpgJx46nBEeOpsZHzpN2B06tyYiOqRnGzoygxk6jG0bOs0ZIzpadhg65FImOoitHjpo\r\nWB06NDQgOlC4Hzp3oR06td8XOt0jGDo0FB06gv0VOiD0HTolCh86Dw0YOh/GHDoOYhw61r8XOssM\r\nGToKGRw6joMbOsNdGToemx06GtEWOt1HHTpBZx06s3kYOr0zEzox/xg6xYMYOsz6FDpKDxQ6UGgU\r\nOnTvEzoKjBM6ZQIVOmJmFDpOXhc6CB4aOocDETo0Pxg6Rg8WOpHSEDp8oRc6LYAUOvjGEzoV8RQ6\r\np3wYOlgkFToeuxM6/TIWOiAlEzp/PxA60dEVOtngEjqivxU6E5IZOj2hFTpDeBQ6PgQXOmPOFTrs\r\nIhI6nRUUOhfsDTqXyhM6hVQKOrCMCjr87RM68UIVOqcMFTr2sRI63AoROlqVDjrP5Q46XUAUOu3Y\r\nEjps2w86hjELOqRoDzruhRM6wO0ROiNFDToNgww6i9ASOmS8DTr4phA6yhMVOheDDzooYQs6vmcL\r\nOsGWCToa4gw64oASOpB9CjpklQ86XXwFOp5ZCjp6dQ0666oKOpunDzqDLw06dHYTOirdDzrzMQ46\r\n3OcQOkTREDqmMQs6L/kMOuACCzrcjAw60JMNOiDECTrO+Qw6wPMLOiePBzpGAA066nwOOl7VDzrM\r\nYwg6EAAOOt20CzpQLgg6MX4IOp3XCzrVwwk6Hp8OOqgTDDqDiQk6ZOgHOscACjqBWQg6chYJOgzP\r\nDDpAxAc6W6ANOrfNBDpQzgw6U4wJOrxkDTpECg06jFkKOlxJCjrxzwk60l8IOu0KDTrTXAs6yy0B\r\nOoZlCjr+zAY6YHoNOubrCToipA46kRAKOtjLCjpd1AY6wwwJOi+DCDrGews6bn0JOinRBzq1XgI6\r\nEq4HOjbGCDrAdQM6fEwGOrALBjpckwM6QUYLOiYlCToONwc6OdYGOqz8AzpKjwM6i3kROi8QAzrp\r\nYwo6TRcHOmA2BTqv8gU6sUcHOkIPAzoyugY6onMFOtTKAToeygg6/mwIOudsBDorygk6KREHOob8\r\nBjp18gY6PR0GOmhSBjqbbQU6YSwFOjtrCTpHtQQ6mIIGOmHyBjooIAQ6a7AFOvhyCDplTwU60bQI\r\nOjwoDDpNKwM65+sHOhdmAjrfHAc6XJL6Oc4vBDqd0QQ6+pwEOlx0Bjpz/AI6SQ8LOuw8BzogKwU6\r\nUqcKOvGJBToRawY6ygMHOlcpBjohIQE6ndEEOuzyBzqLvQc6kgsJOkaVBjqgFQg6XnYAOn4NADrW\r\nzP05eoUKOrHZBjr59QU6OPMDOrFrCTpc9AY6DzgIOkjRCDpungM68x8JOsx8BToS1wE6quADOiSz\r\nBTp/Xvo5W2QHOisJBDr9Nwc6Qg0IOqLuATrf9QM6zC8GOt0KBjrnWwM68Z0COpxuATpLiAE6Lcj9\r\nOR8K/Dm7xQE6C1QFOhTLATpBJQI6wvcCOoT7Azp+ngc6nqcIOneU/jklZwI6aj0GOoC4+zkYXz0/\r\nrP1LPRh0pzvKWwg75jacOqo+DDpqE4E6gpS9OUwq2jko2BY6J7qFOqitWDlCmzM5rJuEOR97ATpz\r\n7fM5spNVOWllrDlylFY5H++ZOUIafjm0GXE55+oTOQi84zl+nDY5xCW7OIWURTk0A5c4D2OEOJzl\r\nYzgOiS45ci/aOCvSjzh46cc4zINbOGXXnzlDCgw56oAOOY6IcDhV8ws5hTyaOCPCUTjnB1U5h8Gu\r\nOMnCLTlJ66Q4f/W4OBkANDiJjco4puXHOINK7jgYEoo4naZeOHgfljdrF0M4guiqOM4dXThV2j84\r\nIrBKOCXIUjhDHDo43MtzOEakQDjdYps4uAHXN0WtgDi5u6I43l4COMxsYDiQbEw4YbOeOIEQgjj2\r\nLvs3UgrTN8KPZDi73p04hAZeONLa0jhR1bo3ooW6OMuaoDjRSDw4LphGOHi61TiiSeY3jyWWOAyU\r\nnjiNMDE4JCKBOIOGgTgdBRk4CjvAOP43/Tg6zSc4N4o2OEigizj7LjU46W4gOJuOYDh6tAM4MUSF\r\nONRc+DeCY983NPZPOHozCziCFZE3dLMKODFCPziyaAc4UdyWOAFptTc6pIE4A5JYOJP6SDg8Us83\r\nOBQ/OJ6YMzh6Jw84Hlq0N7EVfDhjzHM4PkwBOAxppTiMK004sa88OFZyKTi/Gyc4BPxMOB1XFjjo\r\nnVo4xbUyOLUeEziqjtk41qKINx6FRjibPkU4Xg2kOB9XLTh4O3U44uc8OJmaJDg3X4Q4a5kEOEBI\r\nTTjw7Bs4rFuCN8DTMTi7ct83pKhhOLJlCTh/hBQ4Rzj+Nx/KGTiR16M3fZaLN0XIqTgUuu83xo4J\r\nOPST8zd7MSM4yF+WOA1Z5Tesk783ZKCON4w1wzfnPJE3RDj0N+DIUjhv6Hk4sFaENzyA1zdgLvc3\r\n/TM3ONQqVTgKFkY4uGREOAlpYThW5wU4KoPsN+jGLDhemu03A+OyN1owHjilEws47N44OA5W8zgO\r\nMIY4Lu4BOImk5DeCR+g3y4TmN6vopzfU8cw3r8/4N0UvBTh21OQ3jtQ6OOp+ATgpKe83KH38N7RD\r\nlTi23xo4vCngN8GCEzjCYqA4fg3oN2n7PTjcnrM3yTsOOIk+9DfqtQQ4tfeJNxN7tje0Evc3q7LV\r\nN46qjTcNo/g3S2kLOLuSsjereaw3bfMOOLRLGThW0xQ4NmCvNzLVSjiNPC44hkkQOIrcJDjr3mc3\r\nk17LN+UqDTjkr+w3r0FMODIO6zfvAMM3Ga0OOH2nrjccADM4kcseOBuppzepyyE4kAcXOBqL7zeR\r\nmps3djf8NyEc6jeNQos3/GIROG3wCjj5BPM3XKzFN6vSJTjOxMI3zBXrNzr/WTgUKbg3yGWmN36R\r\nxjcaVik4EnvvN0UMYDi8oBA4o73dN2zKqjfereY3soLjN0SbAThM5IY4D2zgN25ArDcWYao3whIY\r\nOHykRzft4tA3q8f2N7bXmjdq3AQ4YPYlOPCU1jekOKk3xk/QN2gCLjjIBWo41zUsOAqDQDgU3Ok3\r\nubFwOBf1JDhOWMk3CihQN8dPnjduPoo3Y3T3N4GLCTgwOg844M9VOPL0DjgtMko4orQKOIWUzjed\r\nVr83YjyLN04eEzi4px44JHAUOLY2oTfkOL03wRntNxOiGzjMC5c3f3yCNzaUITgTiNs3Sla0N9A1\r\ngjeIBLA4sDtFOByfhjcIGgg4Ni1RN1HK/DcWxxc4Bnj5N4mjXzjNOtc30p2UN1GHfDhgp543rNg2\r\nOAZFrTd7bPY3ZadvN2LIGDga0tU3VvK8N1KLHTixk3k3AzJxN8U3CDjRQEw4pH0FOB9eljc2UtY3\r\nprwEOFLS0Dfw+Yk3POmSOLe0zzf2T8c38ROPOB+UpzfMQio45AHINwnKBTgrN9g3/QOlN/bkFThm\r\nlpg3PYoHOOoQDjjcoBc4Np5UN6cXsjeLf0g4CZzDN+WQyTdw3mI4bHomOEy3AzjanIM3YygNOAEq\r\n+Tdx57s3/raTNx5+rDdgAgg4dj03ONtZPThCKSY37BudN269tjfskZE38IikN2yBxDesTo43pwcZ\r\nOJkODTj2A1431r7oNxXMnzdsxmM4vlumNyVPBDjGxCw4YLRUOE4SITjsl3Q38ve9NyXw5zcIfF03\r\nbzH2N36+nTcTAJk3zW3uN6jK1DdqTvw3Mu8WOG4kCTi6o7c3W3uUN/Dx1TfaYNw3CfPdNyazQjh2\r\nqcc3iFlZNwp4wjfqmbs3P5mfN5z+Ajhbj5s31en2N9kxCTinDgo4UywHOLyb1DeA6683gvPTNwZ1\r\n4jctx5U4nErcN7w03TfhuPU3xol9N6AjUDj5Nuo3WCzVNxCPOjdIbsg3w8kHOOMdHzj8aZY3xVKY\r\nNxZz0DdQzlI4fTTHN/smsDcJsPo3ghUeOLgqrjde/B44KUicN5+dlzeIcAc4mLreNzm3FjhKD/Y3\r\n8XTWNwZ92Te6Wd03KX2LN1T8uTdXlxU4sDQqOAKjmjdsZ6M3mr2JNzhy2Tc00u03fi22N43MQDg3\r\noHs3ucGMN4qfuzf9A443UjHAN49MkjcZVGc3jp/rNxDTCThvPho45lFJOJWskzcswbo3Ib+CN5lP\r\nszesBy84/O1iN6M2hTdzfaM3gmSqNxwzjje2SRU4dGxoN2fNnTdmtT84hQsWOKylUjd6KC83yuC/\r\nN+t4OjhjEpU3Zgn7N9iNcTdArvY3whsXON38pjfBhpU3FJntN557qDcueOI3V9CVNwBK1Dctz1w3\r\nVgspOF7XqjeYXA84WoCoNyvZljf/hYw3zHHFN8krBzhX5Pk3hi0UOCVwdDfbBww4bqZ8OMlLujfO\r\nJRI4IoPnN359oTe9XQU4I4b7N1QTlDeg6rw3crZRN5dETTh2BcU3plK3N1x8vTfVJVY4/kDbN0ak\r\nCTjhnLE337u5N6jWEDjUHx04UZa2Nx433DfrMcU3fp4mOKjXJzg8I1w3+lxcN2TU0zfQy5I3sOjo\r\nNz2d0jfcYok3n2ClN194HDhaE643wLBbN87wUjdwW+g3QVGXN7Nwxje8ZRk4u7XiN6Tvtzc0axw4\r\n6gebN5CfCjgeD4w3babuN46YATjq6bM3dD/ENtS/0TUhO6c3yhkqOJS6bzeORr43HocLN3dtCzj9\r\ncYA38ONeN+PMlze0jnA36rCnN20w9Db1Un037P/pNtMruDUTu8g24O2JNhhJIjaRwt02QJ0uN3nx\r\n9TT24Ys2l9a0NlzSQzfPnu03EjNZNj85DTZ25NY2lx87NliYBTcrWv41hga+N63ZejcuN1Y1uxwF\r\nN3ARNTZHikA2y1JLNubgYjcULHk3M3u2NQ27hTZEdJI2q6d5Nuxq1DUjows3TkMANxE9GjfsmEE3\r\n4X0fNij8vzeEmPs2B916NwxRajZTecQ2vEPZNrAPoDfeZ+w2QSFdNsFEqjVpt9M3cUiBNkX0Njbo\r\nUz41Ul4ZNqCyOjXAIqg1xCPuNJC92DSI0z012kq7NDUHAzVwtrw0qVQ6NRIh/DQJ+mI1OLmONHk3\r\nIzU8bcU0GgKUNF6+xTS4iLM0KU+ANBfojDRtSqI0jL6cNPcOKTXV4Rg1RI/YNDrwvDQ0Pvs0DsTY\r\nNEu2njQl/v80P2XcNNPYODWa2CQ1NMjmNJR2OjQP6P40MharNBTJ8TR/B2k0ZmaMNE+KAjVWT8A0\r\nahMfNQEUAzXlNxo1AeijNJtwUzVuLeM0Z6A9NEfD6DSwr8A0+zmENN74gDQDVug0AHAUNUhI2DQZ\r\nLys1MxOfNKXscTVgN5U0UmgANWji3zST83A0X3+7NAXgKjVHDwE1CGutNGlUAjV5W/c05ZUGNfiZ\r\nKzXxBb00O1PgNNSg7jTV9yE0aWEDNW1+CzXczww1zZGKNHARDDVLWwk1I6mgNP8IKjRzqgE1g6Wb\r\nNK965jQABfE0C3xvNG779DRa3PI0VHpUNLx5mDR1nn00ABK1NN9JqDTK8n41yyLfNOxbsDTdMoA0\r\n+vwDNQQbhjTSrJs0F3eMNH2tHDXom+s0atwMNaQp8zS+d7o0BOdUNFYDHDWSOSY1VK3mNLhjmTQM\r\n5q40By+jNKJXczQM0pg01/WKNOrcljTdz9M0dsTHNAOayTTCFQg0UmooNaAKlzTIAyg1fhHRNPtS\r\nIjUq2o40Vi60NCMrxjRi2wI1pBsINErUPDQQmrc0+9xQNfSU1zQy/eE0/mKANAiXZjX1uzw1FILI\r\nNEJTYjS73dQ0fpN6NW6+OTRwFow057MUNYVcajT0nNU0qmq/NKl2qjQzl8M05pjiNCS4uTTYkME0\r\np2HfNGgy+jRh4041Du5ONcxt4zStGzY12/TSNLKSAjVCcvQ09p4zNfH5ljSZ1+w0x43WNIDjAzUW\r\n6xU11j5FNAtj9TSz6j81GgniNJ5WgDQ3KuM0uCWnNKyciDT13Q01oy9vNE1lnDScUcY0wFudNC5X\r\nvzOpW1E0g3ilNKVSAjVOlbM0jyrbNGh4xDRe4OA0E776NB47GjUvaL40hdAlNaZxojR0ErE0Vhjj\r\nNAKXczQJ9640DvIZNeMxIDUDOBc1I6QpNDCGqDQDFjQ1XtWPNK6X1zQE3Bs18UXBNIQpDzU+BWk0\r\nyhR4NU6CwDT4aNg08t7aNCfUJDXw9RM1BAO9NJ1BgjTYRys1DoBSNY35UDSQALs0cxWgNEB5ZjQ0\r\nTek06+FZNY10ETXug4w0wTkfNOfY/DS4rcs0Ak46NGMopDQs1aQ0w/T4NK+79zTgaSo1d2aoNHCK\r\nFTXEuJI0UIFDNV2n6zTJBwY1ZkGONFmUrTTcovQ07gF8NGqL+TRheRE1XnEWNXDpUDWwaTE1+/vH\r\nNHREtDQGvb00iC7lNNAB1jQqr9I0g87kNHb8STTevtA0lI6oNOqNlTR6PDs1CvXkNF4mvTQi1sE0\r\n8APpNGZnvDSRScM0DORENIedMzQ8cnw0wbeCNHQi/zQ0Uxs1zfvaNKdwyjRj+YM0dKuuNNPugTQk\r\nJWY03f8VNcJLEDVgodc0S1/QNLrIpTRSRto0Qh0HNabMAzX0khA1CWuvNBxwyDRBt8Q06xODNFo/\r\nNjW/bAE1D2ByNSB3jTR6NZI04Mi5NBwV7zTMxvk09cNuNHS04DRrfLI0fQD0NBF0uDSbAKM0Vvx0\r\nNDX94jT4l7U0ZxyINO+07DR13fc0jYOUNOD++zR1xrk0LBSHNBn5szQ+5Vk1Ytn3NNJhvDQ5a8w0\r\nOseONGBXizRuRJk0VpwDNcBKHzWIy3s0NfrjNL8BhzR2xbY0v6h2NEVRtjTKXWQ0lwMlNY8RkTSH\r\nhRc1OK3LNJf6tzQ8qqE0RN2CNMkdZjTuPEU0OAG4NKqIjzR0v+80Ku+aNBjUvTRe0aE0UeWbNETf\r\nPzTlRrw0TmuvNK+NKjWf+Sw1VuQLNdELzzR5/Pc0YyqpNLoN5DQU/bA0XAn4NICBoTR761E0lpGh\r\nNIyRbzXPPEM0F9XANDTssDQKWm80aLllNNuR/jSvSI80JnyxNIgE7jQv0IY0AAApNA==",
                            "noiseTrainingType" : "default"
                          }
                        }
                    ],
                    "start" : 45334,
                    "duration" : 2700,
                    "mediaStart" : 0,
                    "mediaDuration" : 2700,
                    "scalar" : 1,
                    "metadata" : {
                      "WinSubProjectDisplayName" : "",
                      "clipSpeedAttribute" : false
                    },
                    "animationTracks" : {

                    }
                  },
                  {
                    "id" : 134,
                    "_type" : "AMFile",
                    "src" : 28,
                    "trackNumber" : 0,
                    "attributes" : {
                      "ident" : "section-23",
                      "sampleRate" : 44100,
                      "bitDepth" : 16,
                      "gain" : 1.0,
                      "mixToMono" : false
                    },
                      "channelNumber" : "0,1",
                    "effects" : [
                        {
                          "effectName" : "WinCompression",
                          "parameters" : {
                            "attack" : 0.0,
                            "gain" : 9.0,
                            "preset" : 1,
                            "ratio" : 10.0,
                            "release" : 3500.0,
                            "threshold" : -20.0
                          }
                        },
                        {
                          "effectName" : "NoiseReduction",
                          "parameters" : {
                            "denoiserAmount" : 20.0,
                            "denoiserThreshold" : 0.0,
                            "noiseProfile" : "h0jIP4+hsj3AUaQ8l9+3PIABET0PaOo8WMpVPIeyIzwHorM8pL+1O9ZkRTyyq2k73NbVOtR4Djv3\r\nqVc73qTQOmoUHjvD63064NqvOoTSYzr7i5o6Qof0OlWYfTqpq8Y5a+U9OrXoJjqC24w5bpKIOVTc\r\nJjrgxnY6gV9KOj39LTnlB2Q5u7JAOR2ZuDn0pv04zYrcOY9lKDn4lMg5Weu3OSNG9zifps04JoIo\r\nOZ7UszjgXns5F3PkOBmxjTkrPWQ5ghsFOT46CDlnhWw53q7FOHSndDmQHU45uNNBObfB0DgZn704\r\nc3tEORBXJzlaSr84Ql67OBGsGDkexNI4gyAOOYqCgDjGmbQ47BY+Ofkytzh3R9k4p9laOfVw6ThR\r\nJXo4VLXBOF64JjkJXhk5f60VOfDfyTiz3i05fIQhORbETzk9rM0439kHOk22HjoM+aw5D6uJOZom\r\n0zlwO844hvgCOeJ8PzlF2yw5ZJonOaku4Ti6n5A481bcOHZW3DgUubU4ZfK/OEFH0TggzLk4YHbB\r\nODLijzkIevk4wLlxOYrn2jj8EL84vSkDOEKxCTnc4mk4A1aUOLBRejiGYpA4LHgYObeDczgkdr44\r\nIckEOVSdBjn4/Xs4mp2eOPrINTiU7w44MCcMOZc99jiWvJs4PQbqOLz9uDhkVqs41I3gOOmzrDhl\r\nE9c4e6l4OAJ85zh9ozg4MiSvOI+khzhigLk4MVkPOIJE7Tf/5bw43wXaN8bpTTgbFjk4kjZKOEe6\r\n8Dg4eDo499BfOFqvKziBft43CAx5OEjDCzhWIZw45b+MOC4nSTjFmjQ4ZXUWOZh9mThyJjs4gHwl\r\nOf2egzg6TPQ4FBmsOP3SLziLgE04rDN2OE2pjTg5Dqg4/5HtOEACLDjNX144tjIxOAogLjjZcNY4\r\n8DGJOFFIFDhmV0g4LT0LOMAaKzjDroY49RseOO0RJTgKETM4wcVQOMBSpzjeHpA33QlAOCogFDin\r\nA643ES0zOM3smTcpoag34CWyOAaW8jcZy284KSobODQiCzhQ/rI4zst4OGVk6TdW1ic4sdIeOO2k\r\nuDdtLLQ3CIYJOP3vCziLAUM4hDorOHL0ITgNqSE41AM5OGptADhDOHI4KaQlONmRjzc+ciU4B46P\r\nN1kaKjg+Mj047hrJN30z6jdU8Tk4ouMqOPjsFzhyQ+E3zUBzOOTqpjiOaQQ4e9eEOK5aHzjomw44\r\n9N0pOBXRTDgflWA4nlMCOLZuRDhxpNI38LD6N0/JEzhIQ004pDKdN507Azh9K9I3H6QiOBsFzDdi\r\nt9038m2nN12W+zeReec36f23Nx60KjhMw/A3Nf4oOBexPzgECJk3JomxONjWJzgRy2k40BnAN4QD\r\n1jcTVM43pFfbODd+IjgLS+43sqfpNzrgNzhXxRw4UKhIOAuxgDhjceA35KAYOCN5jTcSyDw4olbJ\r\nN5Ap+DcEYxA4jxWNOMErDThAy244s+anN8JdHDgv9Z04uKOwN9rp9zeyyoA4G5jvNyxzDTiCwUw4\r\nHa4COJqNbjgVfzY4B6p9ODmgKjg1UD84G4hQOJ31vDfcju43WLTtN3gxajdhAYA3e/QkOIw8Gzg2\r\nTPg3ORn/N9u8rzc3HM43SvUbOOZ1AjiaWSY4aiEmOOlGjTeUyRk4rnj+N/kAMDhj4wU4ZCC/N7OG\r\n6ze487A3DGjcN5qRETia4vE3cUndN7gpjjd4yOY3BMEKOEYihji/qt034XEDOCD1xTcBmoM3DOTL\r\nN8qITzdEuZI3ljJkOKNRDzjfFII3wxTKN+T1BTgDg7k3NNCzNwQVgjhIQQk4nyDIN1Dz9zfRQGA3\r\n962/N18hFTikZOc3ckrxN7GnDzhnMFM4UMH8N7THcjcOG6g3R0HCN0etoDdEJZ43Z3ubN0KrYTdM\r\nsOA3KLJHOOq+Cjgdejw4qeEJOKRVDThZL2c4OnTSN5T68TeMPZE3wr4jODoslzdUbyM4n7IjOOmz\r\nCDjp8eY3vYnwN1lN+jcRM2s42ZazN2I43jeN5Sc4Iq2MNxntrTebW4o3l9LDNw46ozd9oMo36D0x\r\nOLDNIDiwncQ3aCU5ONiWsDd1TyE4hd9zOOGplTe4wQI4nKmbNz197zdxJaM3KthAOHqJ3DeTqLI3\r\nbZpjOLqPAzheurk3kCmiN2zvQThOhOQ3TLosNyTWFTi/MZw3+h34N7Fo0jcY7tM3X1YBOJpHxjcX\r\nAZc3jZM+OC0U2Ted8Rw4SsSbN4rYkTe6FgQ4o1ASOCtLjTd9yY43aoiWNwXsxTdruJE4Vm6sN8UK\r\nLjhAs2M3YvGON97uEDjMzcA3Y8pGOEuBFTh0epw3+OrfN3ySDTgtSgA4coaXNzfujDdF2Lk36tbM\r\nN56knjeEoQA4757dN+ZV5Te3Ycs3kKexN/uOHzjxnQM4GGXPNwK/Kzjdsok3J4lHODGwhjfpB643\r\n+T+WN9xDRTcCKIU4xN/wN3QauzesH+83U3zyN8cNIzh03pQ3tZeaNwzVzDdcfj04yj+JN+kG3DcO\r\nJMQ3pkisNyh9MjfmFSY4YLKkN3Q+Jjhim+A3j3YdNxS/uzdMn6A3VCDKNwLw9TcWhQg4n+fiNz6h\r\nqDdtDb037AMEN4GLajcT3I43JxfiN0yzITh0RsM3bqN9N/wVzDdgcjY49oVqN6ebujdROsI35LHh\r\nNw4stzdA7pw39l6tNxgpzzfefgg4ymSMN+DoFDgzTgw4smCuNzD+sTc/L0Y3/nM7ON4OVDgAWtg3\r\n6lmaNzU3nDdxxTc42Nx1N+Gp8De/VYA3BuD8N1FX3TeGxSc4D1EwOKnMKDhlsvI3eiXkNzZWQziU\r\nITE414DtN1jqrDc5ihM4G6p/N3YLGjg3vmY4KHucN25sDziieNg3bMaTN520Fzgqx4Q3lFhzOLIy\r\ntTd0ciY4fCH8N94M2Dfgdxs4xraVNyra2jbzmag384fnN2n3ujdw6Ac49WiONy5hqDfqUA838dWe\r\nN01ZSDj5LdI30DfaN1umxzdwZjg4WKVDNzewETjGfIQ3HqCCN2PXBzjveYY39JjBN3y8yTctwJM3\r\n4AKcN6uQ9DfAFws4zJwVOMyTdjf/Ru43zPahN2mQnzUEVkg1Ygs3NVA5DDWE9Zk0pxgvNRpR0jRo\r\n1E81p9KjNFaVTDXGhSY1hf0dNfASAjV588U0FqfrNIu42DSNM1Y1E4jnNEYXkjQQujo1w5DiNLyx\r\n3jRMQIA0UGX3NKZMiDRLTZM1Br2ZNGKnnTTy5Og0dzoVNQ/l8TTGhsE0ubpgNDKinDQcn4I0FkEM\r\nNSuB/zQ36c00kezPNIjGgzWyUfw0tt8ZNdNRcDSPn9o0Hj+eNFNsLjWRiZ80CH0KNSptxTRcYPI0\r\nzOpsNGIFOzXxFLk0vjvnNDJMojRW7jU1Crb7NBK49DRMn5g0vjk6NWB2gjRRQ6o0903NNGelTDUt\r\nXhU1qWQCNVP6vzR+2h81el+UNFahWTXW+vY0lnHoNCuzkzTPlCE12AyONLf0FzXmsTA1HfLqNHK/\r\n4zS80FM1NkgXNRjG5jRfZfc0qk6JNDtoAjWneAg1tnf1NEzBnzRxHpM0IDH7NApNyDQLknw0zu1c\r\nNdgREDU8TKk0bfe9NND2tzSGvew00MX4NAgoizREbsg0kiQHNQo6lDTy71o1ZDA/NWsuEDUOFyM1\r\nM+uXNHg/MTRCyIE0rJvVNDbV5zT249s0wLhUNIBlyDRwp8Q1zNcSNYekejXplS81ypK8NB9D9TS0\r\n6fg0FNaENNAk/zRRFO40uJFwNTAzxjTbEeU0KB5/NL8YEDUWesg0D7ugNMPOBTUWVr00CMTLNBI7\r\nqzT2FhY1il+YNEAXrTTWVhg1S3OpNMi3UDXNWrM03F4CNeN23DThKBw1bqPmNNKBtzQ8C+w0ALaM\r\nNE/+vTRRQuU0FTTfNGrryzRc+to0pkHoNFlEzTSTSPM0VNU+NeybGDXpV9A0hUNlNPUymDRWxfA0\r\ncc/XNMxggjQ23L80X1YlNShOxTS4axY1zAa2NAxYijQchAE1BczDNDXfAzXzZdw0JBmdNF7a2TS+\r\ncJs0+1CVNC6jijSpewo1rAnBNMG5lDWuZdw0xQeGNJPO2TSBwws09iuUNE0g6jTjzlQ0jjIPNWXg\r\nIzUmN5U0KhHENN6vIjVfGdY0VkzwNL/GbDQmNq00eRCANASLzTT0Yqg0dL+ZNBG/nTQO6VA1KSNl\r\nNIgm6TQa/cE0SpX2NM5NtTQtH6k0p43CNOmGBTXBQf40Qy7GNJfohTX88Jg0blrgNGNXNDREtbc0\r\nHIveNJFUpzQq1jI1SaycNCQIlTQZBTw1k8dmNQ5spjS9P9A0soonNOnX7jRx+Bk1+4fONLBzpTRo\r\nY5c0jnVaNGhWbTRwxrs092gQNY4Y0jSXOAU1mMlwNGmB4DQobHM0jNb+NDr2zjQmVhU1RemXNNOj\r\ntDTb0ZA0wrFKNJjaETWMXLg0Q6hSNMoVzjQ96ag0wA0KNWxc7jRJJwY1+DoRNTU+yDTuFs40Dq3s\r\nNDaxUTR95YU1YwITNVTfwjTbWJk05BWKNE7VpjTU9Jk0jYMENQHzyTRr/Rc1D3fWNIwlAjU56YM0\r\n2vWoNHgUqDSgeh011ruuNIfLkjWyFws10F6HNGNJODUBwq80FG4RNXzG0zQw3eM0R7SuNDQU0TRr\r\nfwM1CJavNDvaZjTW16Y08u3ONMdJkDSTOBQ1xzKXNHh7tTRunxE1sGUNNdAHyjS3jT81Mv+dNAT5\r\nLjUsmd806030NKj3lzTu7K80B0yaNOBy1DSmQLI0PJcHNeHLXzSW0nc0ee2qNCFBkjTsKxk15+3a\r\nNMFSszT3u/E0jXHQNHjiqTQYK4s1zBmuNKD++DRMC0Q0KDu5NOJ7kzRVuAM1iLI9NCRLtjQ7sCA1\r\nKgPONHmP6jTLmTw1ZmdHNdYvZDUu5qE0avY5Na6pxzSDHLw0RfJ4NLLVgzU6r480dcZaNPoc2zQa\r\n1vw0cbDqM85FkTSx0qY0qka5NPys3DSV5rI0ahDRNLVw/TTgcQQ1FPUNNfo3MDXQ68Q09hG7NJ77\r\n/zTEevI0b8UxNUWGATUDUso02H0MNSBl/jS0moc07C/FNDnzvDQTMSc1fmqVNJYqxzSQ6ak0icaa\r\nNM0XSTQcNAo1lKepNC1Y3TQoXE80zjjONC1o4TR/WAo1ZR7WNElAhjQjIKo0LxyXNN4n4DQ88bQ0\r\nhCWtNC11ozTd2wQ1tKA9NQTuyjQ8nCE1cjcVNeHTojR2TNQ0hAKvNApxAjTW45g0IxyvNEJu7zTe\r\nay01AfDPNMZopDSE1wc19AekNPr+3DQEyQM1q2AhNfbljzTEdKc0f7mJNNcjozTKXs40ZjaENeb/\r\ntTS07MM0UXMWNR7HGzVcxME0qKb/NOjJ0TQZyAs1TvmXNDx0CDWGw9I0jujiNETnKjVF4dI0NDqb\r\nNBB/LTUC/Fc01OoJNcah0TSn5qo0yLwGNT540TQkD340QQX0NA4A0zRY6hQ1ulWNNACAtDWf4OU/\r\nR7S1PdeWIzxfifA7R/gMO9jWBDs2LzM7/QhTOgNK4zmxhCw6KpTVOuNLHjoichM6hgjAOWEOsjms\r\n4Zw5wjhbOtntADqWINk5a0fBOaXUvDnDBa85wAziOV8KTTnY5Gs5vd9VOYihFzk3Tlw5deW8OWeb\r\nLTkUR+Q40uJ9ORgM+jiErA05l9IMOe7OmDiSSjA5ZksLOSAFOzkQJmQ5hoxsOeD4sDjGXeQ4Iin6\r\nOFQd9TiE2Rk5Xo8WOdQwPznxz4E4HDcIOWz6iDgtuqA49T/zOJmPcTg0Ct44YAWsOEkTBjm75EI5\r\nHKbnOErTMznEJyM5vHuXOCNhkTjxoUk5OmbcOO9VZjhiXfU4DLtWOCjNRTgVYlY4DMQmOQztFjmk\r\nD4Y4SHKvOGVf3jh7ngU5/WjDOHT1xDi3Jhc5uaQIOYPraTnabRc5S7bTOBq+pTmnZwg5vktOOXXX\r\nBzmrRfo43SFoObavKDlphNs4hZIgOUkeEDnZag05UkUmOfbaxDgO/ZI4XNvQOMze6DhUZQ45u5/S\r\nODe43Tgsns04nbHAOOERnjgBSRU526NaOFMyjDi4xC449Im1OEafXzhEMKQ4JmCwOMhQdDg7W6Y4\r\n8ksQOTkliTgTAQs5BFmNOBIXqzgprKc4aK22OKHU9DitEoI4a1kQOabOyjjL+144gxMROWeAmzgL\r\nk0s43JWXOFVUiDgL1JU4YE9eOB7uFTkItNs4REZmOGojjTiO1UM4BRh3OCO1NjhQkCA4GewTOJez\r\nIji0pYk4eqYHOKSEGTgQT6E4NFZwOI4bGDivPi440nENOMb7fzjyft44xGV+ODjKjziKTUE4/SOW\r\nOJznrThm8sY3/HVdOM2Q0jhs1KU4/N0hOO5qgThSMjw4at01ODyw1DjEKok4Qu85OCMPRjjoh5Y4\r\nYkUGOOWmZzh3KXY4eVCkN026cDgoj4A4gmkaOGxD1Ddho6I33fZXON+1Ojj/W2Y4BIw8OL3MmTi/\r\nS6I4PiQCOIzBZDhlSfU3eP0VOOF7+TfIRdg3lGHMNzs0SziUkx84mN4vOAZFEzi5k0E4DYguOKqi\r\n2Tc/3lA4LDcJODxXCDiR/aQ3PMVgOLXw4TfLi9I3Jg49OJ1sHjiovIc3673GNxIwODjD+wA4v88n\r\nONQpeDeiQQc4TysFOJSBODhp8qQ3YhvjN8a1Ezhtv3U4x+5AOJxFoTgAFDI4enEGODZTGThUQqE3\r\nUG3KNwiDsjcOuYM4ty+uNwO6pTex0/E3Td/nNy7RSTgan703813gN1T2BzgkTts3OkLSN5lPyTfT\r\nVB44DTOSNxlMOzfMqDs4yGgYON6RLjgwgCc4pygdOJ/4VjdNXw84nnCnN+C8STiFwwU41RAKOKH4\r\nrjdOaXM4XmraNxbIHTgkmI03q9ocOLJ3gzeI+OU3f+VbOI/uODgOxGk4lKn7N9HgoDddwpg30q/9\r\nN9VNTTgx2R84PK+EN+/HEjjswhw4LXwROMwXFjh9Mwg4/SOIONlRbzcNfQE4kCelN/1Ywje6SKM3\r\niVumNzbjBjjvKKU3ugFwN0xVHjg9QQk4vp4xOHH81zeVMa83Hs/QNwMcizeY8CU4yd0JOK5Zczeg\r\n/Ow3bCdoNwDT3Tc/AOo3o59xN54H2jcM/Aw4KBxZOICbwzdEMpw3Aj4POAbZ4TeXDgw4mo1GONCi\r\nZTeEnnM3gyadN9vVKDjzuaw3U+poOJYnHDjrCJY3TSmON1B+/Dfco304JKMJOK1RPzg5Ddw3S/Ty\r\nN/tm/zcQVxE43dBGOF7G3jed+7w30W9HN1+/mTfDlxg3ZhtaOMLU1Debl943XEN0OKpQLjiVJ8g3\r\n8ugDOKXOWTfqQM43QeTMN7vWTTi6u+s3G9fAN8s+2jdOizc3yZp6OKeyZjcSrvM3n/wEOEkVajez\r\nzMI30MAKOHJI0zdAzeY3DxY+NzZJ1Te195c3pFYXOC9WBDjW09w3VAiYONg13TchtuE32O0BOANw\r\nCzhgP3c3bNH8N27oXDgDFjo4LdIaOFRC1Tf6vpU3oiXWN6mT+TcAM/03RhngN36ZmjeS19o3o1O/\r\nN0gV6jdEUZw3mn80N/msaDdzaWI4kS2wNxJPJzcoNg44qWr+Ny5ZRjguem83SgsUOOrbQjfNl583\r\nVzA6N5BQvjdiT1s3p5LBNxvMAjg4QxE4dqE6OGG1nzeUkaU3z8YHOLNTJTjIugE4Tsj8NzndHDiP\r\nghg4MdaQN/Y//zdAcpw3OGuVOBxfmDd0Z9w3bnhiOBMWTDhoz0I3uieEN4xFsDcpAKw3L/NHNx3B\r\nyTe9SQE4vpqGNxAUrTeEYcY3broXONDVLjhm1Zo3jPYpODH40DeskAM4zLqoN2AIBzjjUz84k+kl\r\nONYl/zeLl7o33qhYN2y43TeNtwE4EZ4ROOyXDDjAkao35PnZN07vzzdrpj43+G5SOPMbdTcEntk3\r\nPTB1N/57mjeOwhM43UlpOHxNITdxeQQ4TP4TOGSV+TcrUr03lGeqN5lB6DcHVeo3q7igN6bUeTdU\r\n7w04auSCN8O00zdHgZw3h5yaN9enEThbppg3rLcOOKBeTzjM6083vcXZN05FtjfkXhQ4OwTwN8Hx\r\nKjiZV/E3JLi6N//wizfNahE4g52GN258zDdmkw04PLrXN5pBRDdeXds36bOTN2YwUzcYtaY3uB8R\r\nN8HaIzg1iu43L1LxNwBG3DewniA4nfwXOD1b3TfaZrA3+E1oN9SxzDdaRxo4lfKVNwCCnTdcjZo3\r\nXpYNOCHirjewEFo3hOQPODg/xTcqPb43z33AN9o38TeNBxI4pjxWN+QrDTg4X4c3MtMTOPh7vTed\r\nVL03ZuhLOLrT/jc06rk44g8uOMoO8jcXwc43YAT9NzJ4yjeZsAQ4QlCuN5kGdzdGLos3pl7IN3Ji\r\nxTfsagk47zBTOPkBxjfFSGo4QxnHN8wQCDjkHQI4E96EOKPPFzgOb3s4PTOGN9o21DeiPxA4m566\r\nN6BtCzhe+p8370aaN9Ii1Dcw9304vknqN26VwDfHD4Q3EbgFOKxQdzeWFq43qkLsN5VejDfFJQo4\r\nLGXENzJE1zcEnik3bCCtN3HKNjgv8NU3XaUcNv+k3jRodho19R+hNNwc+TTtnxs1FgGGNbzjITVr\r\nkxE1R3hKNU3RUjWn+ug0FBdANQyKFzWc7t80PJQuNXK7rzQ8gL00nrPONDt5xDQyrQM1yLQqNewR\r\nlTRQy+c0lXUBNZWbojRykt80dj/INJo95DQD9gM1vKazNCIPezXohlY1MxGrNGwK1DTHFLw06LoX\r\nNW8fADUnquc0dX6DNIzcpzTB15o1fTbbNGwEHjWz7oM06hMcNZemvTSALAI1BzmoNLfi0zTLj700\r\nxXeONUlT9jRojp00Cp29NM6cnDQUjxM1yG+GNSivsDShNPE0PqzHNMSMujR2XqM0iavrNK5RoDTP\r\nFYU0+FS2NNJJMzVM4PQ08jocNfA0DDWsP540doMANcdO+jQikes0o2cwNffOJTV1rAY11txPNftF\r\nBjWPjIc0FDfGNCRE+TSpS4w0fAXBNGUFkTSI3Rw1Ap+eNHHIfjTzaN40+ZkDNSuxpjRUe/405938\r\nNEoPnzRCeNI0oIP6NJNZdzRJ7KU0Q9UVNazJoDTqSpQ0J2Q9NQi0zjQUXLY0LE1dNY+gpDRXIBs1\r\n24rMNKUcKTVB9Is0Bi88NeJNrTQ0CoU0rvUJNfAFqjQJki41B9XpNMSnwzQGsi01tFXTNGluBDWN\r\nnKM0IVwuNeMRozSCHQ018CGMNPSapjRj+3Y1EikCNWDJuDRLU7Y0BCfsNKC1HDX2ItY0/4qgNRw4\r\n8TSyQnk0V0qXNPijvzRminM0jvM2NWbGgzQGAAw1hkSXNMl2yzTZSAE1VjAONfbeODWAmr4054IS\r\nNX1rAzXkcg41ulMONelbATUBdD01IfwBNUliKTXMeQY1+VC2NHkTSTVfYw41eb8YNcT3DTUGun00\r\nKxzFNNSJXzURLwI1LhKsNF+e9zR4INM0CrvwNCHXEjWDqeQ0fNh5NA7SzTRkehQ1EjsfNWw0pjQ0\r\nonQ0XXsrNfUdqzSkno80EdFkNcV6FTWw6+U0bfxVNCSk8jTWCP005PI3NWhOITWXEMc0nWGpNInn\r\n8TThzNM005AXNTvu9DQQR+Q0+X+4NF24CjW/0O00HYqzNKpY4TQ8rOE02yCANNTr4DTC0vk09uaI\r\nNB7H1DTejs40AjINNZcEHzUveAw1H/X1NJBpwTTmsqU0sjryNIPKyTT7ARo1UJRnNYhXBDUddFQ1\r\n1OpPNOWoCjUchq00RMrrNHyhoDTCOaI06Xq9NLG0jDQ5p5o0dv3PNKPYnTSv+vk0POWUNBWu5DS/\r\nbMM0Pr/fNKRLWTVZ0uw0kcOtNJu3gjQITao0dPrSNK95/zSJ+Oc0qIMKNQf9izSA0gA17xi+NJph\r\n+jQfcQs1Z8wUNc/c8jQXhGg00/HPNIsxZDQNHs803TTpNNN82jQIOIM0Ki46NfKo2zQMFyM10L7C\r\nNBkyCDXd2Jg0FNPuNC8qNzSkEJg0ukmUNJ4wAjX+3l4099m/NEGKijSHNgQ1WlYGNSytezWPzOg0\r\nKJmJNV5iKjX4pqw0YoD+NKMiZjSNbb005Y5KNEoMpTRfiXE10BzxNCaMNTXpRNU0bF3HNBlp3TPr\r\nD+U0SLYjNFX+GTX/re80npjFNExCLzX//dg0GvvhNEDjgjTsVeo0bhK+NN1jaTWKnf00V9mjNBYl\r\n+TRVLMc0B14NNVxgvzR1pbU0W2TBNIzdNDX/PsU0y9IyNZiumzQvbhg1/VpZNeyX0jTczJw0ewGu\r\nNDcCLDVejuY037sXNcRnZTRKK2c0MMkGNQ0PHzWlx8k05L+kNHafvzTDD8M08OemNNDYlDRioRE1\r\nkA6SNKHjAzWH27M0DLH2NPpIfjSivns0KjmzNAwl9jQeAbc0TFQ0NUYSGjUAA+40Tm0INZQSHzUO\r\n+aM0BPQGNU3XUTWndjk1IHy3NOod0zRguoo0S4ADNWmMEzXmE980luO/NEyL2TSySss0JY0pNT8T\r\nrzS5s6Y0zRmeNEWa9zRKMDI1CqA1NWmPvzRtGog0idLDNMhARTXdZIE0uEhyNMCOaDTDhgg1/luK\r\nNF0u3TTXORk1wJrCNPdWgjRe0og0epOjNPOHDDXVA9Y0/jgxNWCaNTWkkrE0IiNSNE5y5TSuBGk0\r\n+QIUNIVYEjUX6gI1OQsINVUz9zR2sTQ17e9hNWaiwDRwlJo0SgT3NP7bQTXhZaU0owoFNZbgazTm\r\nWC01gqOTNBOyjjTdo540vEvANPcZWjRJLTc1P0xmNG+qSTULLac0JJe+NCnySDUT6qE0TeRgNDYp\r\nWjSmItE0xg8GNdOBnzRIYVE14DjMNFnh4zRF44E0GZp8NJ6xATWWQSc1mAa2NNPYVTWaIZA0vFnc\r\nNAqBFDU/E0I1h5i7NGsQKzWLOC01w2kcNbjdkjSQiQs1dBLUNJyBSTWc7/M0AABhNA==",
                            "noiseTrainingType" : "default"
                          }
                        }
                    ],
                    "start" : 48034,
                    "duration" : 2139,
                    "mediaStart" : 0,
                    "mediaDuration" : 2139,
                    "scalar" : 1,
                    "metadata" : {
                      "WinSubProjectDisplayName" : "",
                      "clipSpeedAttribute" : false
                    },
                    "animationTracks" : {

                    }
                  },
                  {
                    "id" : 135,
                    "_type" : "AMFile",
                    "src" : 29,
                    "trackNumber" : 0,
                    "attributes" : {
                      "ident" : "section-24",
                      "sampleRate" : 44100,
                      "bitDepth" : 16,
                      "gain" : 1.0,
                      "mixToMono" : false
                    },
                      "channelNumber" : "0,1",
                    "effects" : [
                        {
                          "effectName" : "WinCompression",
                          "parameters" : {
                            "attack" : 0.0,
                            "gain" : 9.0,
                            "preset" : 1,
                            "ratio" : 10.0,
                            "release" : 3500.0,
                            "threshold" : -20.0
                          }
                        },
                        {
                          "effectName" : "NoiseReduction",
                          "parameters" : {
                            "denoiserAmount" : 20.0,
                            "denoiserThreshold" : 0.0,
                            "noiseProfile" : "3aslQLiGBkAUZzNA/YGbQBabkkDOiKU/t58NP820Bj/QK5c+ir2qPmZaFT749xQ+6r2RPREu3D16\r\nM9w97mTwPfoiJz4uNGs9vv+iPfKTPT3qh7U8BjCSPFDPsTsHkWM7A7cKO2SRnTvc8ks7lqPsOj20\r\nuDtqUaQ6dm6vOlAsHDvtB2A6EsTpOgArxjrQXoo6Ks6YOoK7pTpo9U86kpcLO8rJEDoqJD46fBxK\r\nOpCa/TlVAQw6iXJpOoGt9zk4z9A5WIS9OS5z8TnKYrM585kVOgy9GToQHBI5ZEuoOXLEPjl+tn85\r\n+5ONOdLQ4TmtC4U5ePB/OWke0jngDZI5BMWYOfbygjlONTw5SwGAOUQYSzk3I2M5WACEOf0KGjm6\r\nUKw5KsJMOdC/kTlwg4A5y3aiOTZCdzmt+nU5j860OaacJzmNOxI5xVmBOYR9azjr5YU5BF2mOfJN\r\nAzkA41M592t9OW28mTndQ2Q54UCoOU2OwjmcTjQ5Vw+aOa+7szjNRsg42hoGOfb3JzgyjTk5JyQU\r\nOUgRCjnGJcE4+Tk6OY1wKjldaa44ijzcOAe3ODlB5Ns4+82+OE4vIznc6Ek4aYbmOJ7WLDkHkjc5\r\n8gpEOVYD7Tg4Jw45eX2lOLdYvDjj0Es5QGHgOH1aSznN6Z45cvylONLVqTjJ7Yo43W0kObN+7zgl\r\nrZk4f+QpORIw1ji1DEE5oNBwOTCMZziM6Zg4wHsNORy3hzhNtZk4PW8xOEUryjhfPKo4HOFHODV9\r\naznmM5Y4Cpn0N9DD4DjzZCU4f5XgOKhrEDjFA4I45uiNOLsn1TgqzN04VEW7OPIXpjixx484i0SP\r\nOCwPsTjqL4Q4TU5wOMBmKzh7HL441nStOLwCKzmMNr04/5e8OGyLvjhhUHU4UCy2OCeSFDktE5k4\r\nBoxzOJLFojhWqas4UPtnOJLCmjjb44M44hC2OIByKjgH2EA4EW2IOGcDkTifctc4NxNtOJoafDj8\r\nw+s4AwptOG7jEDiCSoU4402WOPpoAzhS2a84rJN8OMyieDgGtOU302tvOE4bZzhED9w4iGpVOOqi\r\nNDj8bqY4KxdVOHOmrjjOBjI4lLZXOHoggzh7rpE4wChaODC6EzlAOQQ4cFhZODmrPzgXTas4ljZp\r\nOPOD/je3KWU4k6neN9DSOThCmmc4AUwaON01gDjEl8A4Rq3WN9AQxzjLiE84XbabOHT3izjj//o4\r\ngDIGORQKiDgKJoA4iLVvONKpgDiQHHY4jnAmOPvrDzgk12k4b0yDOK5+1ziMRzs4ISPcOKkgmzjJ\r\nVwk4NibJOO1Gyjh58Uw4C4HZN1IYxTjsJaY4+nn2N7qRdDicTjc4GiIQOGMpAjhjQho4jhdEOATu\r\nJDhj0MI3rVleOKJRKDiCJTM4PV6DOIuJBzh382Q4BlOuOMR/+TemUMU3hrYaOBzjWDiLKFw4bR1w\r\nOEYnEzidegA4CCwUOAV9zjexZGA3pFxfODyvLTh10gA4rdUVOMVLFzj3i943WjO/NzUHDjg79OM3\r\n+l/BN54jUjiguqg3pGCgN4sbDzgz6vU3dbAdOGC66De5A/E38S3+NxirbzhP59M3+sAvOE46HDjs\r\nhxQ4zx1wOH5PQjgkqA84y5jMNznvIDictCw43ry/N4aD3jeY7iE4tQ/+N612qDdqxEw46iTlN/wf\r\nADhYEvM3shStN/FX6jc5RwQ4Q5ooOLVjDzjdh8g34bdEOAiTRzhCN7k3gb0YOMAvETi/3v03SxEa\r\nOLQhojep3I43BBAmOOmtFziJZrE3YnvANy+GOTi3rRg4e4jMNzZmYjgiC0A4B7/AN6bDQDj/9+I3\r\nppPON5WjDDhPr0A4e+MbOKYd3jcZJ3g4hhQaONuREzhYXkM4UdM/OIMnhzgk6r03QnpgN3YNPThT\r\nrSc4rFEmOMaAUjiJ40M4KJmiNw8Kuje0lQQ4aQe7N+gG3DdkL5g4+ZSfNzofMzjCSNE3pmpxOJ7+\r\nOzjxSpI3wA0KOO8HqzcK+iE4HvkFOOtg3zerDcI3byPWN/WoUjiuDws4jzQKOKpFvzftBRY45DND\r\nOPKjAjhsaGM4EtPvN1yEKzi9HAg4RxaROAPLEThWBrI3fb2qN3rDmDhrqc83CCyGOCQnBzjKJ4E3\r\nCKq3N8eVYDgj1Hc4mZvUNyDuGjjY6x046BGAOFsR+jchs3w41CFJOO6Y8jfl+OY3i7qROI2dwTf4\r\n5ws4fVD/N9PmnjjqTrQ3XgaDOCo9IjhpIEM4ygXvNzMkCTiZZpA33CamN6IFwDdZjt4382ISOLHs\r\nAjglBrI3Cvm6N06WJTjTxx84WuPmN/xMazfTcKk3gJ4cOCYPUDdF0Kw3nIPZN4vVVjd2Btg3u645\r\nOBxrUjgRyMw3K0QqOFeKBTh5RdE3xG2XOB/wXDeBrhU4b3PhN7TjTDifnR44uY+kN6A1IDh2sK43\r\nuLlmN9cHxDddEpw4kJoqODemIzikb/s3vBYvOA4O1zdAIXs3bjgGOOnx7jejTgw4ybSvN274kTiO\r\nEIE4y1klOD6xDjgw6P83W0eGN4HFyDdqbL83w53JN144rDcLTao301P8N8dKlDcftw44zFzRN89O\r\nFji3kiA4Xk4uOFjawDffxAY4ltj7N8sz1zfT4rs3ENSvN3r7Hjfk8mM4zX8dOIgeuje7xR04Tl1V\r\nNwZHKjgPNOk3niOKN/ycuDcAxA848EzlN0jtEjjulMc3Pu4iOMus4zf0uQA4qI1GON31NjgAhSI4\r\ndCEfODph5zc72ak3sXgHOJxB6TdOC1U4ggoVOPWZwjc/czA40MMqONCWgTeoFBE4hDcDOGhfIDh3\r\nKAQ4V/DAN2tTnTdQ4Jc3gcToN81gCjju4pw3RYIGOOspkje7rCY48zJ+N77e0DdeUCI4rka2N5pv\r\nozcSBCE4kBIMONrqpjcfaJ84Oq6JN45y4jeOkOU39CiZN4CHtTfjpzw3KGCFNxVZNziiLIA3f/5p\r\nOIDKCDgsHqg34NuCN7zURTjy1Gk4PDvoN5hoEDgbYdQ3G+GxNyv52jfgGAY4JGwJOEgT7Dey8YE4\r\nMvVUOIhHQDifkpo4bJyiN4j0NjgUJ104BNHAN88b9TUFEE82DSILNiYcHzZhw1Y2K/U6NiTNKTal\r\nqpE2jhkUNrZbAjY+YT42dBxNNuICKjZkFg421lUMNpLqPjYW2ys2sIolNh0aaDbqAOk1tLQKNvmn\r\nbzYVdmo2PahnNjrVHzY4cyQ2WP6GNiBl8TWe9E02MSspNpJMgDZ9aAY2nUbwNQIeZjaaqPw16Fsx\r\nNr7HijabeUI2mLB2Nvh5YzbHRl028VYtNt6RqDYkyEU2qEUgNmKWFjbyC082S+EONlwjFjYfFho2\r\nfvYRNs+xDTaZY2w29ZYTNh00BTaH5kk2Ht4kNlJ9FzaEUVQ2NDYzNtggKDZbqz424JnWNYF9PzYe\r\nuWY2WQKCNsTdBjbGjtE1C1c0NmqDTDYm6lg2aAflNelzOzZGBwA2KtWjNkpBGDatCxM23yCwNR58\r\nDTaYqpQ2nsdGNotgVDYcoUU2S3S5NbUESjZ+Azk29vF3NiGDKDbaA0E2mC8qNhLeYzYeF4E2yhuD\r\nNsgpOTazWCo2gMWnNSYtljVkRgE2n0c+NmKBJTbAOlU23I4xNowUEjbUPgs2vbU/NjafNjaWNCk2\r\nyOznNVVuLDaxD/k1kmtDNmbIOjYkkBg2ZbYMNlf+rzU7HAY2HnP6NXAyaDa+7ys2Ah5zNi6sEjY9\r\nCQg2lRZTNgd/KjaXa2o2jlWANlCQRTYI+No1FCD1NR2BLjaylJI2juwnNnkYlDayEWo29A4uNsDa\r\nCTYn0VA2YJNTNvQMCTaGA4o2eA+GNjJAiTYKGyY21KzWNdyVKDbLVDs2sq9rNrwoMzZj+EM2t9Ip\r\nNkTA0DW5A+813voFNsZbLTZcwV825rdSNgiCFTZALOs1thHXNWi3CTbZkTs2mI8fNp2zDTZk4QY2\r\nCF43NrI5KzaynCo2n6RYNnT4UjZjKh02t9mENj+HfzYs/zw2NhkFNv3jKTbUhiA26Yw4NpPr8jWx\r\n7R829vgTNjj+KDahtwo2iF9eNmfkNzYK9Tc2kwEpNqrZaDaYjTY2PiRXNg8PCjb9X8o1e2ztNTzo\r\n8jVVSig21CZQNvBFizaNciw2tngVNtxS0TUGlsY1S+wPNuD01jUC1i825NzFNRlsBDZ8BoE2o9jk\r\nNQah/zVgdWU2palONn+CZzY60f81MDUENgEH4TUd+v81JH26NT84zDUuoEI2sg7ANamaFjZudyE2\r\nRlbzNbzaHjYVkRY2ffgeNrAdGjbqwx42AjkbNkCxSDYU4Sg2K2miNYTNBjb/oSU2SM9JNvV2LzaY\r\n2xA2Fw3yNUWGnjVEX9k1euULNt2ZEDbJYd81Lc1pNpQcgjY3g9Q1EZr4NbzgxTVQkTc2GIzaNRiE\r\nDzadr0I2un4kNtaeHTbFTVc2QtvuNQI3ADYEL0g25rwCNpS9ITY4yTk2wAgRNsQqKDZiXRQ2s6rR\r\nNTGKwDXAlus1YFMBNlW3/TWuz9k1FuRkNu0ePTYltRU2nFLDNQ4ePzb9sUY2ymKfNXPOaDaH+8g1\r\nJJgNNnfECjb1pTA2DkyfNS/TDzZtXOg1qJOCNm8AJjZbDwo2EylLNkecFzZI6y42/g/NNU4TQDbz\r\nLwU2Vln3NSbWDjbBidY1UKWeNccEJDY9eEI2kJC1NZLdtjVYMzw2gtT3NbVqLTbEed81u7MNNvVY\r\nAzZaAiQ2IRrJNeJPnTbNXW82aIgzNrKAzTVXm701pDmgNZ4Y2zXO4TE2oX/HNSmKKjZHewI2OGcE\r\nNr+7jDWnCDc2bagUNmf/UjY6Y7E1SDeZNfSdKza3PAw2grYTNsuvJTYA1r01+mIuNjjZFzaQW+I1\r\nDkEUNq9LwDVkJjA2K7T1NR/vsDUdVWw2Vh4XNo+kZjZ8Cx42sOv2NbWwHjZHtJs17Pn+NVV+Ezal\r\nWTI2E6iNNXFoqDU4IdQ1JZjINZaTCTYudrE13Rm4NTczAzaD0OM1tripNeQRjjXeMCo2n9L/NeDv\r\n4zX6zQA2+cfqNQPKvTXstek1l7USNkw5kTWDiBo2px0GNgXbLDZC+Oc1ARAeNq64NjYzZmU2pV8o\r\nNn9FqzWmLTw2mlzZNRY1Hza0Ywo2ctyiNd1JMTaZ+5s1basgNu3jITbfYhA200ktNkz2BTZNSCY2\r\nZzIwNu3GwjWgGy02FbvjNcpNLzaoZ9A1WqU0NiVmQjY3kjA2WqZINidLSDY7plA2Jk4JNrSGvDUm\r\nERc2PVELNhJmJTYkYjw2fBkUNpqj7TUbyNs1hz/yNZgTFTY33VI2KlIiNg/gQTbADw42D9DcNYJ0\r\nCTbPHXQ2jC7KNf9tIjYJsyk2p/zyNSdRvzXirto1oLK8Nf6iSTYFcAc23mPmNUvD/DUufR42GlMd\r\nNl4DKjYmoP01Pn8YNpwgwTVPk981ozQHNubS6DVj9Tg2wbU5NrlkEzZF12s28q4INgAAyDVzOxVA\r\nYK6ZPe2uSzy6VVA7bActOw4z8TpnegE7b/KEOtq+WDoeoMI6RkIIOizjmTmz9NY5RLbUObZhujmI\r\nYTg5/LFIOeaEOTnjZmc5Wc/jOViXnDlEy/o480twOca/EjlDG1k5Vv0dOdQl5Dkgo0w5J9ECOdY1\r\n+Dgrfio5eHkFOUlrOjnLmhY55ozvOLoJ8jiZCsE4KKcOObC2pTjhvw45Hp0nObbwajj1NCc5Kaav\r\nOClD8zj3gM84GeFMOV073DhYEuA4wY7LODQePjkmTJU4lHKCOLI/CDlhJKg4StSIOBaKAjmtQEA4\r\nYEuvOPSt2Tg2OLU4ueekOPaBnjhUkIE44B9MOBvzljifpSk5H5VtOYGzmDgtOEk43wLKOOR8FjnZ\r\n6QM599SoON9+8jgtg8U4OFMdOYp3uDi5oC45yte0OIIYpzifRag5zLquOK9AJjmMk0I54PbGOOnw\r\nzzg5T485pI+mOAQW7zgLEAE5PvQCOZxnGjnz7Tw5DopMOBshlTiehJc4WJGPODQmpDjhC0g4h9QA\r\nOcrVhjguzEM4IFCIONSGjTjRKoc5slWOOIYkDDliqmU4yxxVOBBoRDhunv84fGCnOFK0MDizbYQ4\r\n01fcONqLpjg/zqI40hZEOKBvyDg/7lY4l4uWOEQVBDlZtdQ43NOCOBOGPDhnsBU4Ye9sOAiyIDhg\r\nlHc41317OOwMlzg6K1M4NNCsOBfwBTg42O04CLtxOMk4FTj9F644ULNiOBbSBjk+RTY4SVmJOM1+\r\nWTidu5Y4eIlAOHF7njcUkpQ4/HlrOPwNsDgfqZ44Sq6jOFp4jDgk42Y43UCROLANgjjL2TE4NCYz\r\nOJQQhDgJwmE4De9BOCJDCzi2up44zuZkOHxGkzhKk4k4g1AsODruZTj9WlQ4CGx2OHAVfzjvBoU4\r\nG8QPOG1CZjhr9NQ3hq5kOHBmazhI1UY4bRPcNz9/OziJgIA48WRkOBJbMTiyuyM4txZROMJVNTju\r\nGS04coAmOHMbTTijo4o4ES0QOCjSejdjaTc4oIwtONS1PjgDREo4tnxaOO33dDjGhp83xfXtN8qU\r\nejgLtSo48pv0N9w+DzirZ5s4JOWoN2Fidjiq+PE3E80BOM+qHjg1UeI3KUAEOKFhVjglg+w3cu+f\r\nNza5EjhRvzU4RjFMOOi1MTjqriE401hUODirmjgXfRI4q1ooOMi/izdThps3UgzjN2CuAzhJ0B44\r\njr6wN/u/fjfY1bA30uIvOCK2ozcIsC44aAJjOBGGfzec4OU3KzAYOER9rje4rAo4T57JN+oJBzgI\r\nCgY4cJ54OLwI1jeTKd03DLRdOLCFoTdg39A3J58qNyt/pzeO3z042WnbN20doTfZiP83IWjmN5QJ\r\npDdX+YQ4POL4N34vLjgULSQ4QgpWONzdWDeQJiI4i38DOBlp4zcStDA46VeWN6MfnTe4Eg8490nd\r\nN9gB4jfSc0E4viisN4nrDTjhMsk3f94UODV1GziSGWI3UW4LOFh6DjhGtNU3fFH7N3orKDggtps3\r\nP5uiN/it+DcCSQc42pg4OGk4yTeKaM03uljEN8Ie2jdw6qs3iE8kOMzjBTgxQTw4GiDyN1qhTjdd\r\neBc4PpauN6QvDjhIQhM454IwOHmlpjcsA8w3R//rNx6SAjhgxLA3aogCOLFYfzdY51g47CHsN4KM\r\nrjfeHaQ3sI6LN5RYhzc84AM41gCmN0hswjcJbZE3X4nqN0RECzikG4031YayN91g3DchkOo3NO5a\r\nOJkfizcwjUI4+aCuN53Dnzcwydc32Cf8NwzMTzffUFU4CpYKOPd66zdSMoA3rxfFN564aDcG/KA3\r\nI6qZNyvPbThDaiQ4CMRzN+5tbjcGFEM4Tdj0N/o0Fjgwv9c3RuUbOKabFjj15OI3+vPFN/EgHziZ\r\nHoQ3uiyoNwvuVzhsJLc3hu5WN3jRnzfdHtM33dMCOCosADi9zUE498v0NwewcTgubpY3JuPRNyq2\r\nijdhjbY32YjVNwEOjTdiWRE4aY/rN19xjDdT41k4b5O7NzA2LzhY3xQ4lrDJN8pWPjj/K384t+pj\r\nOKxwrTfNC9M3z8PhN+ZFdjgvvIQ4SjfxN1dfcze8ftA3bB+PNyAl3DfN4Ak4VpWHN4XkmDcdIRM4\r\nttHAN1gAmDdx2AQ4RkjkNw6+JTjHw5s3bI3UN/N9jTcgkac3hLQEOFYk/Tce02k4pxCtN3ouRzeC\r\npYU3FnMCOPDTjDdGgds3aHuYN2qtyzdLotg3C1KNN6/lNDczC7I36H3UN0jioDcuA6g3I4G7N+B2\r\nujc60uw34f1uN6AbBzi1CsE3wakqODGikTceztA3FrkKOCTEoDfXVo83HneWN67yHzdwh0w3BjgQ\r\nOJ9ifjehth445CyWN+NpoTcmHAA46BEXOHacHzjRz6k39dYQOJ8ZsjdbuEU49IdjN/twFDh3ZDA4\r\nbJIXOPS+yDcUiMQ3Rh52N5Y3EDh83GI3RQw8OKIqvTeVGPU33rFuN0Dq3DfnxYs3+IStNzbN0Tc2\r\nX7A3SocpOHMw3zdm1Ss42n/fNww32DcGdRs4TdHeN1U7sTdIfL833srjN7lUWjegczA4u33FN6xn\r\nuTfcV6I3OzyYN6qwAjhEOLY3wh/fNwEL0TejAM03YVQzODHLKTeO/+434ZG6NwvjxjeW56g3JZMr\r\nOBtuJTj44mU4jGt1N7ziVjeWVh43vQz0NzavCDhof0k3H7euN02YATi9dHg3MtyfNwAEtze5r8E3\r\n3MUzNxUG9zfrnyw4aGK8N/nSKDes2qw3XwjvNwjV7DdexfY3cXT6N4PhrjcNDbE32lW3NxyalTeg\r\n/sc3B7/eN80uTzhme0M49HznN5fbvjeMV2s3BtaXN728pDejpEc3msPJN0anmjcmgBY4yXjIN8z4\r\nwTfY5NM3YUpFOBpYITgBBc03QW+aN9QY+DfTG7g3CAO0N0KNbzcu8W03IsbzNx9SoDduVgE4pfWr\r\nNz7wiTcrwSE3rDq5N1r7GDi6yRE4ihf4N1obvzczfsw31pnKNzE9IjgooII32RTAN6Z0XDeMCus3\r\nhcnnN+SOEjimoow3WBOaN4yHQDfh3QY3fC7zNQkSnTVApVU1ob1cNbB8mjRiplU1JAvxNMUCPzUa\r\nVd00MVo5NbPkmTRpbpE1sKczNai7VjUM6H40ipRPNWsyvzRoGg41U7nXNF5yBjU21Pc0VW36NDP7\r\nNjUqPgY1u3unNIGHtzS0OoY08ZQDNUPsgTSaJj01cm8UNTpvmDQVqxU1uSoENbT3vTSoIJA0WJkg\r\nNTwswjRU2uY0HjQGNaegHjWfBaY0hhfsNB/ChDWv9+00ZvCZNLacAzXn5vs0rS2CNUYn9zQGK7E0\r\nbxVKNaDTtDTm5P40b2M1NUYg5TSu9wc17opYNEY5xjRIRzw13UP2NISjOTUoU7k0YITANM775zSO\r\nyoI0N1cCNfZ3MjXN16A0N5i8NJza3DQyY9c0Dl+KNPRIfDRCujk1JqPwNPLi5zSuDOU0B2D1NOmA\r\nFTVmxww1t94LNU1XrDRyTZs0hy+oNOFBEDVhhdE0ZJ7vNLreoTQ6v6k0mMW4NI2LoDR70wM14vAL\r\nNTWcOjXISlw1cz3DNIsOBzXmVRg12NEINYbkNTX32aM094oBNTybADUXMZk0wvVTNe+VsjS6ohs1\r\nXaoKNQk8jzRFZBk1oWMrNeUXNzXSv+Q0jUDTNLY6IzWydws1D9FpNA0qNzXGNBI1+EWMNEilZzRA\r\n2DA1X/eSNPxeuzRgAto0WEsRNVcG5jR+0sE0LCLvNK6PmjTpTgM1cHo5NYNEEDV32sI0slrRNARh\r\n8jSXfK80KQd8NGzNEDVAKrU0lu1UNLCMHjXoyhg1NnaSNAoUXDXukUs1/UdBNWjimTTIZpc05hSV\r\nNJppkzS0Ce80cqYpNVORiTSKrwo1Sc2KNLycoTQ421805cnJNAdW4zSmS8E0wEXqNM8xzDTYfwc1\r\ntuyoNHqhpjSEIwQ1Q7LLNAn9iDV8QDU1vifpNACxJDUXtyU1wqooNWVV+jTHpg81XuPINEvatDQf\r\np6E0geUHNX5EajV65QQ165GdNK0K+TQXIoQ0YXvWNO0v3DR5mwM1VMc2NYClHTUPfAg1VobXNISN\r\nWjQdZds0MMv3NB2cZTSQVyE1DBuSNBwDwjTCP8A0CnieNJmf6jQWJ980nQSWNOlyvTRM9VI0tdSQ\r\nNNMqxjSwCeU0PkoENS+E/DQzGQs1RjsVNfpuZzSoE9c0EqqqNCAynzRUSLM0GlYFNbkKaTSu5DY0\r\nCAzZNFkc1TTL3jo0q9jqNErfxTSPlxY0Dx2xNC8eATUX2IA1aIcbNXvhuzQB9pY0q0gONZGAzTTq\r\nbDc0dIq2NAq3kDQ/87s02UzFNJtKKzSgC/c0dAmnNIaUHDWyRQ81kl+ANKqRczRbLVY0ChroNPbY\r\nGjUhfp00uMaaNC5qhDR0vJQ0mqStNKDGoDQmEuA0g1DyNOYQezRYVsE0HkXgNA5qgDT8GiE1j89X\r\nNY6/uTS4yqs0ahTeNLEKZzVaWgo1MAPgNI+D0zRyMyI1SqPfNBjszDT/Xac0pwPCNFE68TS4eSk1\r\nSLA9NDfL1DQiGpI0BdatNGY6nzSSRAk1mI0gNdt4EjXyhKw0tE8KNYNwKTVEHf80Rj3WNCFkMzU+\r\ny8o0Dl1FNctNCDUNIbY0rJKkNMJGiDQYXCA1+h4pNbYR3TTGK8s0HfXoNIKCDDUdkFY13JMDNdSi\r\nxDSG+KY08lIUNcBlAjV553g0ShbSNP3RDzUEEi41kf7dNKEPeTR3ewM1uz2FNNoDlTScw6s0liGO\r\nNGPI+TSSqK80BHiqNMOIKTUXS/g0SKq8NAWxATUrCzs1ei/ONAJdCzVqqZ4023FSNQgFsTSNNC01\r\nc24FNSSzTDSCPxk1cOmuNLGhkjRY2RM1lamPNGg8DDWTWyE1qACtNAHkxjQ/eaI0PhW8NBZfpTSv\r\n96A0PH+wNE9M/TQYfLI0Of91NPy9ozSuOKw0gkaJNELm+jT8GNk0NOoJNa58HzW8N0w1asKJNOJX\r\nBjV0WgE12cdTNCgAKTXGjfA0IJBbNZCSejSKiIs0B5Z7NK7zJDVVCJM0bPaONN55xDTISi01XxWs\r\nNCbg9DRuLR40+PplNKXl3DRcNtY0khqiNDpyIDUcnr40fi63NBDwjjQUTvE0cgIGNdrMyDQB4+w0\r\nHOzQNDeE6jTMnyQ1Ot/ZNC4YsjRuVFo0bAUANWY2ujREH+A0fc+PNFfXqTTaNJo0WZ7ANDqWIjXO\r\nxPo0PHD8NJlKITUBMxU1u7+eNGK9szQL1hY12bieNHm8KjWM7Qg1gR/4NPYdPTQ6un40CODLNKDo\r\nrTQwu4Y0yvvmNDRj9TTzh5A0sOmoNMRyCjVnXNY09YHxNCSXxTQT5gI1RiqrNJg/bDVKqdM0IO+g\r\nNAHp2TTQSok00MVuNNLmOzR6QwQ1PrSBNVhmXDRyro00GKKcNP6P0DRyGKM0AICQNQ==",
                            "noiseTrainingType" : "default"
                          }
                        }
                    ],
                    "start" : 50173,
                    "duration" : 2529,
                    "mediaStart" : 0,
                    "mediaDuration" : 2529,
                    "scalar" : 1,
                    "metadata" : {
                      "WinSubProjectDisplayName" : "",
                      "clipSpeedAttribute" : false
                    },
                    "animationTracks" : {

                    }
                  },
                  {
                    "id" : 136,
                    "_type" : "AMFile",
                    "src" : 32,
                    "trackNumber" : 0,
                    "attributes" : {
                      "ident" : "section-25",
                      "sampleRate" : 44100,
                      "bitDepth" : 16,
                      "gain" : 1.0,
                      "mixToMono" : false
                    },
                      "channelNumber" : "0,1",
                    "effects" : [
                        {
                          "effectName" : "WinCompression",
                          "parameters" : {
                            "attack" : 0.0,
                            "gain" : 9.0,
                            "preset" : 1,
                            "ratio" : 10.0,
                            "release" : 3500.0,
                            "threshold" : -20.0
                          }
                        },
                        {
                          "effectName" : "NoiseReduction",
                          "parameters" : {
                            "denoiserAmount" : 20.0,
                            "denoiserThreshold" : 0.0,
                            "noiseProfile" : "GyuvQMNgFEDLDrxA3HLZQNpMs0AKwZ9A0R5DQJAp2D+Cl4c/NOsMP7pNsT76pWc+taYQPjhZlD3A\r\nHbo9rpXAPflGeD2PZTY91BPLPBKe3DyDxKE83ln2PDCzdjy48yQ8tEtmPP/6OjzJmBA8AKnzOz5F\r\nvjuq4Lw7BeyFOwJBEzuW1P06wgijOmvmqzroDg47nLlPOholDTsL62U6KuuPOoGETjo2Ruc6kC50\r\nOsKgsDoeWws6y/i6OlJoojpNbBs62QFrOkkLzTki9bU579V0OZp4TznmFHo5GMgAOoLc0DnvO4g5\r\nv2+AOQCnYDlaYY45DQrvObgcHzoS1LA5mVOkOXrekDkjbzk6nhQMOgedbDr2mXs6L/kAOs7sWTrZ\r\nZJk5E0sBO455DDpEYO85P+sPOlL+cTkIzbw5K1ePOSb65TksjQM6FIAxOs885zm2LSM6q0LfOSoF\r\nvjpiWXU6rfzBOqltqTpW0qU6KpldOgc4cTpG+iQ6ECfbOcjENjouGvg5NmhEOvcw9znN4Nw5IGSM\r\nOeXshjl9qQk58R7wOew09TmXFsA583oTOU8QsDlA1qM5UW4bOhPbxjlu1k46Aw41OnkD0zltOE85\r\ncPuQOi1o9zn59js6aKK8OiFELjpoJtc5eBUVOsSAOzrdVTQ6yQHFOlKWATrgBls6vJdmOmf4FzoX\r\nNA065TAFOlqh2jk4B4o69DYEOu5n4Tl9ZDE6UC4cOlD9GDoGfe05fVyGOXLHkTnGDpU5nKvkOQVd\r\nDDpGT3s6AQU+OpESLDpq/r8576RdOrembDoQvKA6qQIYOjBH2DpeY+w6BJbYOoIPqDpMAd066hEE\r\nO9lnKDqqFAo6sg5eOp/kOTtMwis7EulgO5WbPjvgPMI6HqLOOnN1Tzsc5os7sstDO71s/zovAGg7\r\nDEt/O5HYHTte7VU7lRsLO+MHjzqRb4g6lLD3OqCwCzutyv46nSWsOv8LPTt2RhY7BMviOlHA+zqM\r\n0d06PogFO4LDwzr7CAI7pjMoOw8B/Dp4Gg47opIvOxaA+Dp/d5E6Y9GLOtNWYDpGEo86SJW/OiZc\r\nkzofwSs7LScJOzZANTuZ1ic7F5f3OuDpZTrEOlw6KLWoOgDeJjtrHk07+I5cO820RzvQzdY67RS3\r\nOpob+joG6Uc6U2f3Oi8zJTtcZF47T7M8O1D3jTog3Ao7Oa3bOqQqRTt6WWU7x9eFOwf7ojtUqyc7\r\nQjCcOpahsTpL+wA7y6/iOrYAHDsZoG47kI8zO+7s7jpKjR87AegCO+THEjtgQQY7fYkaOx77ATtg\r\na7U6+J+aOv7+vTprnok65CxMOqyVyzrx4cE65ly4OmWRQzronKw6iAyHOkNxTzo8jLA6UeKYOp/b\r\n2jpM7Lc624SyOijiojqdg406M1EtOvASjDqIh506MfulOlWpkDrA5aY6He2dOoxzhzq8CI86zKZM\r\nOoejOzqOVjA6xklpOn2nFTpxUbE5FFcKOnIIgTpBt1o6R2AhOgCJ6jlz+205/NByOeFhbTlYcuI5\r\nw/RgOVzCujk8Kz859IL+OC8wWzkRAjM5ss8jOZl7YTl0ooU5j0sxOWwqqziShfY4NOiuOIvJITkT\r\ntVo5qGsMOaR5pjjkJCQ5p2gNOT7NqzjD+TQ5X3+FOA1BFTlEqFw4qI3dOJYcRDktHrk4Z9wgOQTv\r\nEjmEsi85li3gOED0mDlzP7I4I9oMORKZ0jiT5QM51xtZOOQ/TTiYXow4G0uoOCyFkDh2iTg4WK2O\r\nOGrxkTg3c8c4JWUiOYH8KDlQ54Q4al0fORW5jDiYCQs5HK7bOGiSLDneUe04tGY5Od+pDjlSn+o4\r\nFkkaOO3YeDh8EbE4FISXOEplwzdklzQ4nvSDOKLlNThW8gM5ChehOJ2wrjiWfIY4llRBOck0IzlM\r\nhDk5AptvOaXxkjm0Zfk4xUnWOFjF5zixo/Q4Yk8qOWtsGzmS1Dc5vpOYOIyMrTj22AA5JvgjORrp\r\nDDnWZro4hgIDOeSqEDlDNo04YKE1OSQwyjheyeo4XW0bOQp6yDgUbc04Z9a6OMjoHDmK/aQ4zVSn\r\nOLb5ATm5hUA5cRzOOMj52zitnRQ5GUYBOR5Byzj1Wxw5SucROSs5JDmiGwY5gw8OOZ43FjnQG5Y5\r\nHP0wOcDXDTk4rz85hIZqOeBbMDmkXhk5prl/ORPjJzmSzjo5JKdNOQZ1mjnEElQ5hJw2OU6l6zjR\r\nLb84kZgkOYdfLzlPkrw4LpZlOadzYTn+kgc5JlyWOPIFXDl06TM5WrUvOV6CGTkDYq84ayuiOPkR\r\n0jgROKU4RH+HOMhH8DgaMCo4jvCGOOIBuDi+ugM5PUK2OCRclThj54c4l3KwONBLujh/vGI5G+yZ\r\nOGjAiThlvoI4O5aVOMw+vjgsvZQ4pSmmODcLRzmBw7I4nfzYOJzZWjj/FT443NlLOJwZpDi9REo4\r\nZcNXOBzXHDnYWPE496rOOG/amjjqezg5z/DNOAsEWTiUmsI4+CviOICdszisCIE48qZZOBDvKTge\r\nfgs5SMuDOJqdMDjo9Kc34PXNN9jgVDju0mU4QgrAOKPgBDhmBsg35p/sOG99QDjO2lU4rJ8mONDB\r\nIDjaAGs4oUb2N26DKDjuBCQ4bCnCN3zuhjjqrVk4nO5BOO7e3jfIM6M4blSDOF9lGjikSpk48O1/\r\nOAQ1tDgRbc03qrXAOFmIKjiBZlA4mr1kODW2zjhdsHE4EkBROMRRhzif74w4pP5TOO0g9zcAlDw4\r\nyL2zN9qjMThUYpM3lbQROJKh9Tdvo803znK8N1Q52zf4lMI3zIU4OLiktzejrgA49LzcN0PNKTgQ\r\nMg84+5kTOO6NiTgUOto3QO+5Nzki+jdqxQ84D00fOJz0VjhhEJo3SYd/NxhjHDjG9t83RjLbN1y+\r\nMDg4fVM4Pr5uOCADXjjoRKI3gwRcOC7jzDjWehM4HdJiODZ+PDiAcJU36usDOKOU6jfGWjg4W37f\r\nN80erDe+f7E3ZlvNOBQXXjj1Hlc4RevMN9FycThTb743NisWOJ4AGDgWYGo46g8AOHGg5jfVqq43\r\nZokeOICLuDcOSPw3jHefN06kpje0g7M3fpoaN+1fWjdydNY2n+C/NfZkPzYGZL82rWu5NsLHtjXw\r\n/1Y1pL08Nn1OODbhIyk2c09VNVJYXTXyHLA1vJqZNfH3JzWR/Cg1OfGDNfkWajXi0oI1NwIANSOZ\r\nHzUXm3s1/BiLNeRqFzWETo011viBNcfkoDXdBzg18ncINb6UgDWeF8w1RyJsNaANsjXGtPk0jE4f\r\nNXW2IzUuHTg16hefNaV1DzUu5ZA1P54ONeRxKDX/O6g1zEoBNvxtcjVzvvE1th16NXLfKTW5LDo1\r\nmS6qNCVaUDW6PHQ1/uXqNBvNDzWRgEw1pwhhNZCmwTWgvkk1g/G0NdhG7jT43701H5wxNUVwjDVN\r\ncXI1lpoTNbKusjTgFuo0gexfNcnyLjViERI10kgjNRBs0jSg9281QD5kNTenSTUOf+k075dlNR4g\r\naDWfhiQ1nJufNcKs9DR3h5c0UR/rNETJUjUKzsw0FPMoNIW+LjVS9Ik1jvaQNc54xjUI5Eo1A2QF\r\nNamDRTW8gFw1g/52NEcmXjUsNm01ooY4NWtDLDVWjhw16xNNNfnqrDUmHyc1DspYNe3FnjX0jR41\r\nZcLMNA2RxDSgKco0TvaGNQaAWjXccYk1aPkVNbJwQzU1mBA10zMUNSSOzTSg9181WbWENW+LjjW2\r\n7Ck1ILAlNXaIqDVuZnM16NHTNN+ZjTVl4oU1nSUVNeb3MDU1WjE13uRvNdo6YjVw8GY1Ro92NUbP\r\nNjV3aBU1jUuHNWTHVDW0e2Q1z1neNCEKvDVOu0k17I4NNc0LbTS8Wc80O6voNUcEGTVnxIM1Zroc\r\nNfQwSzXZ3zQ1puvSNABKCTWAvAo1nFaXNcyz5jTLbRY1530nNdp4azUHs1E1yw8FNQtgyDSGfdg0\r\n6nHcNSg7AjVi6bs0VLYKNYhpVzV57t80okcyNfKUhzW6rq80SLivNF85vzQ46jw1cucMNcbX/zSj\r\nSe40V3ppNdGLEjVHPhU1pcifNRK3UDUbGB01LYIUNQlIRDUbwjk1EjCmNZJUHzV+aaQ1yz02NW5k\r\njzSye1E1r0KJNENwcTT4DUY1eTk3Nc75cjUnYUQ1JP4rNWTIWjWKC0s1SrANNc/EVTUyPno1OUCF\r\nNS8iqDVW1U81ivstNcxhCjWYE1o1NPIyNc9hBzZ0t4Q1yrWiNMqsGDVUQbY0T/MBNSVLtjSwdlc1\r\nVVhmNV8qEDW5UxY1qo4eNRN/oTXmzSs1WkFTNVDJ8DT9/zI1mYzcNHbJXDWiAHs1eFwxNaD9kDWo\r\nV3M1Idm+NcpArjR5DL415FaGNRiSpjQTijQ1XbxfNYgTfjU425810sMgNZzivjS4XM41ORqQNezJ\r\n+zRgYSw1DEB6NPnKCzXJw0M13x3iNKDeLjVlA2Y1uAvuNLqbEzVcHIQ12BU0NblzDjV6VG01tlA9\r\nNTSeQjUG7z01ZvlfNZejBzXnjkE1jQDiNEHbWDVe6yU1kHASNU2LLTXY8IE1CfkTNazMWTWT1bA0\r\nLIkUNcweGDXZtq01XgwoNT+AiDWOtwg1XkozNWhSCTUmFUg1KdyGNESxhzW2KD01k7cwNfJEkDVW\r\nUZY1qHRmNflZLjXKijI1NO4bNf4LizQtvjY1Pn52Nat93DSk8AY1DoAiNY8lSjVg6do0B7vMNN1H\r\nHzWYIWQ1zZFWNbLYkjX1Mpo1NZIGNuV8HTVfXrw0MDIwNQRXPzXis0k1+nwlNeMb+jTUG9Q1etwK\r\nNUxk7TTlxQc1gu+LNfDXsTTF+sE0jE0DNcxQDTV2mMY0C3+NNfPrXzV3K1k1epxkNRm4ITUV5Dg1\r\nuOfxNMynWDVCLMg1k94yNSUjwzWpFkk1N1hqNeB1jTSgiRk1TIArNcW5MDVZTyY1MrpPNUBBGjW8\r\nPpk1YRMyNQr0HjUMFnk0IrZdNBdyiDU0zt009vJnNVIUnjTRP0Q11yiuNAkQMzVAM4U1+H6BNcQG\r\niDUkpAY1cjNHNeOgkzXMUA41G4x0NfzXyDTMa6M1KptANQLHOTWcY9o0BmZLNYiVLDVkovA0Jn0C\r\nNSlZVjXfMqE1TWb+NIBkFDUV5w81E/y7NQykIzUZYW81YifsNHrDJDWYV281Mrj7NPbZFjWD3gc1\r\nRuIsNSUtHzVDVg81Ka31NA7owzQlrPQ0kP1xNeWpGDXs4Wk1iaGLNTSQlTTY2Cc1I6oTNcY0EzVT\r\nLro09RKvNdBZDTWTsrQ0CoGkNDcIZzTthqc1fF01NUWAmjS00yQ1p3qoNe9ZkjRCI0g1aqNNNVby\r\n7jQjCao00rSANQtoAjXumlI1SYT9NLwfZTWDev80CVfANRPwHjXGi9s0/qToNe9CNTU+0Tg1Ii7m\r\nNIRbijUVMhQ1GsbwNFktRDUkn680qMMKNd/iLDUgF9o0rsrANEDwkTWjs+Q0zXdWNQAA8jXc/JZA\r\nl2+zPXTXLTzf5KM79AaxO0G6DDsscgg7iVXLOkq8TToE7586B9liOsoJRzoI2T06RtcTOj8FAjoa\r\ncj85gQIkOacAhDny6MM5i8FyOROt5TnSohg5KbMROR8+FDlcj2A5XFzdOEXziDkBttk4hJ+bOeGH\r\nzzg5M0s5O232OAbH2DheSb049F9QOT7zYDkVWQU5KbmMOZfASTkjwxU5mzRWOX2L7Diprcg5XSiL\r\nOFawFzkEWlM5vNViOdUEzTgJDKw4LudNOCp+VDmNZ1U5t8lhOfyUvzhiBv04K1iuOCwHmThonZc4\r\nLmOzODSNITgaYgs5SSAtORqXvDhBCsY4EXArOb2oqjhw0LM4DDe6OK39VznTwDY4w11wOBQugDgz\r\nXhs5Nx7NOMy6LDk6pYk4vIq9OOdrAjnaxIE41X1UOKEWHTky4jQ5PnoNOdlbETn9FZY4unIcOWvX\r\nZzgxen84Qi0LOb7gTDkrnJI5DgkdOVoW4Dh4kyE53YTKOPTJfjggFpQ4picLOVK23Dg+kic44zy2\r\nOJzjgTg6V/M4mmZoOHWNbTjEgY044Xl+OGEkWzgeKZk4VSaPOFAPbjj+eBE5aLCbOIFDhTnYSpU4\r\n0APLOJuq2Di7r/k4UwwKOdShJDkyvSQ5VKquOJsp3jggzk84a8JOOG4vtTg2lak49RmjOJCrNTgt\r\n4h44jkPVOHgnMDgaTKU4FPCUOOZITDgnrLE4Aw47OO7osTjEI644hY2TOB7SBDhqReU3VeQLOE3Q\r\nNDgbhgA59LFBOCpvKjixN5g44r1KOLz6OjjOcFk49FUHOLUAmThwx+44P0wEODW3IDhMP5E4r909\r\nOL/RjTjDYpo4hKufOELxnjjeaVo4lUUuODgwKThSEKY4bCOEOM5NrjhETl84A1tTODXXbzin8fg3\r\nkomjOASIITjYfw84FwFTOAqbKThHig04evAUOMfGXjiVqUQ443aAOB6RVTiUeHE4dvtqOIQmMThW\r\nFII40ltIOOwF6Tcbr5I4qnxvOJlSwTeI6Jk3rQaROG3xpDgjMhY4cDw7OARF2DfanAg4UnRWOPsN\r\ngjhutgg4izwGOApIajimRQM4E9mvN6yEzTec7w44PkJ+OEY1IDgQZp437ccNOFXuADjXcvM3ny8Z\r\nOHQSWTgDqTw4llobOEwrXzi3+a84LRiwN8Kp5Dfckcs3AuPZN+yUNjhVrp84tmFmOO+DzDfjsss3\r\n7PepNxO5oDctJ2I4L2EdOKu7QDhf3z44u5VvN7YJEThztwU408dmOBf27TfhAUk4A/vSN4Q6Ezgc\r\n2vM3WIEKOOgeAzhYoNg3GjHUN/GzZDi6s7Q30FYIOD0SlzfV2sw32jOBOFU5pDef9JU3VGPRN/g5\r\n0zcl9gM4AcnRN8CzMzhnOag3utn+N9T0PjjN5oQ3gOI/OPs64TeYXSc4alIwOAVayjdcmDo4eV8L\r\nOFSmrjh2RPY30aStN2TzrTe8QQg4JSRAOOoXIzj/ZCQ4WwgyOEeauzf/tBM4Hf9bN/nXJjh4hYg3\r\nbIu3N7+b6jfOdRE45j4aOE7W6jeQnBA4SjoWONuiIjgf6BE4/jEZN0yqGDcT5t03aqVFOOSnCDh1\r\ntzQ4uqTXN6EdyjcXbFk4CNMJOOmdITjB9uE3RnMQOLgq3Tc0rdA3Dm8cOP6HIDgUtQU4mulvOPTt\r\nvjeFSSI4wAsGOOiTcTigo/83DcgAONLXxjfXxYs3MlnEN7xovTeKNyc4CUNQOOSxHDhHYgk436UG\r\nOF4VlzesLuA3NlW4N4LDAzh97rQ330UDOKWpEzhG2GU3JfGTN7Hp0zcquS84UkCCOD43BDg6nPM3\r\ndv2sN+ngDTjywaA3QEfHN9CphjcdvLE3nFQcOGL7nTfBA643PAe2N/faDzhZ+SE4v02oN4um9jeR\r\ny2c3fYOrN6iMKziaVBw4E8c+N2jhujfqr6U30aa9N6tBMjg6p743PPEPOO3M0zeV+rw3UWCvNwRP\r\nIjgbi0M3omqXNyG+Hziz30E4PvyoN98Erjd9S/c3fKY0OAjuVDgCrwM4SUSNN3AO8zcpYKc3ZFUe\r\nOKFEKzilz8Y3zarCNwZiFjhgc7U4AGH3N4RH6DeWets3n0A5OEIh+DeiuaM3ZqYBOJN83TfmuSo3\r\nO4iCN97NyDdm9fc315SZN+N1BzgMm1E4kuWwN/ucoTf0UvI3XBEFOKbtDzgZjNk3BvRAN0cB4jda\r\ndr439Oo4OA909Tect5438bK3N61vzDd/cxg4eD/aNzw5xTeLIac3FqRMNySRBzhcW683xsWNN3zQ\r\nzTelfMI3GX7nNy/lGDjArr03gmA4N9ub9DfhBR84YywdOD1SNTi5tZ43Bj1dOBPqBDhQTrk3fwDb\r\nN6HPSDjAwe83mSI3N3aTrzfW6gg4bnyjN9LITDgKwAc40aBpN8ZugjcBYQA4Jt/yNz7WtjejgP03\r\nKGCdOBK+3jc9Vp43aqNWOGkkUjcXM783ZyA2OGbCOji7tu43punQN8qSuzehFiY4FpLWN5LWvDdc\r\n1MI3FGcYONj8gzj6Hmo4puTcN8IG2Tcvp8M3N+IoOGLl4TdOBso3P+0MONZXwTfh97Q3v/oPOID5\r\nyDcakb83Jf0rOLJwdDdTavA3G4nsNwMkPThJ/6Q36/1zNzqZvTd8Foc3LrwbOOVgzzd6CxU43mYM\r\nOJRsuzdJjJI3qdkDOGcGZzhDLAM4sFLuN4sxnjeMuLM3hk+aN4g0pDeYho03fN89OAD6oDfUTqg3\r\nVLOzN7iIWzjnqdk35FrqN5296TeQLVA3/J01OC4zBzgSVAk46DV8Nwt22Dc8JuE3o8l4NxJtOjh9\r\nfaQ3ViCDN9CTQTc9ryQ48ZtMN8BYqTcpJEA3DdkJOG4m4Tft5IM3i4k6OCVw+jdo1Kw3f4uMNyfl\r\niTcH2eU3mlKBN8HrMTgWO6Q3t3zyN2KIxTe6ILE3WAraN2Uhlzeu7203wv2LNxiYTTe5XaI3LM1L\r\nN6ybEjg8Rso3IE11Nz9MlzcTn4g3lXgTOPaA2zcDxH03X90SOOKAJTjUxYM3tDAQOGNE6TfqXhE4\r\n/wgTOBpsxjfYSe03CAltNx0r9DbzdJ02SZmWNfKGjzVZNZ80y4YsNfyd/zRIGHk12q8cNbQFNTW7\r\np/w0/zjING/UajSkSCU1zlLENCPYoDS6R500n4ImNIvXFjXGsvc0WLyONNypIzXqxBI1ckOZNJa5\r\n/TRHauY0GsrmNI1qADUSlqQ0H6ssNc6NpDRQyYE0u6+/NHssgzQ5PMY00ylINdi0CzW/6s807scL\r\nNc9wNjVyeTM1ElMBNRg9hjQRw0w1fOn1NEo92zRckhE1jqlTNfIHJjUIxyo12z6gNEc9ADUp5a40\r\n5xUbNS3gKzU9kgU1SLqZNIY0xjQG2Gc0ZDnRNH1h3jTE8AA1pYAXNXcf2jSanAM1bhbiNLDnmjT0\r\nJMc08ZH7NCKLDzX/big1PB6CNLMlwDSzbZo0btSSNOkRwzRzDrQ0fVPXNBTBrzQtiZQ0Nb+SNJMY\r\nzTS+pSw1ab1RNRqDwzTVjL80+GHtNIkm7zTIzuI0927nNLqm/TTkRtA05GwJNByuyjQ8aGs1JVGR\r\nNdTI1zQilKA0XyqgNHV7jzQCiY80tDABNd2APjVsy6o149kCNRTI4DQkZXY1a3oDNZ8d4jSaQsk0\r\nHjIYNQ79MjWiFuI0dvmINfgmwDRQteI0ye2ZNHAakzTJ6Fo0bofiNLbf2zQVevA0Amd2ND6qUjW8\r\nMAE1Mit2NDpiFTU2WhU15LMSNdTPizRMRd00Ku4KNcw6mTSG+vw0TL+YNJTnkzUoFFU1nADZNBNo\r\nNzQNMNg0EW6NNDf5CjXbZLg0FwgYNWGb7zQ8sdQ03weyNFTFGzUfUL80jq9NNfqzrjT7+sA0Cp9Y\r\nNcGR6jQby7g0TCc0NX4L1jT6kdk0KRN0NAuYPTVjURk1yFHQNDOaojSZoLw0kS0dNa6UETWYLpg0\r\nTknrNJWbwzRuLRY1yaqmNGZSoDRIhhg1DA4nNfuIkzQGPVY1qKfINAiEAjXy8eA0DvTwNLSIkDQm\r\n+tA0ATrONBLeCzWzkaI087eXNAXjlDT1ohM19YkgNXeLnTR8kuE0yi8UNe6bdzTiDsA0YtLYNFnF\r\nhDX4Ync0tUm0NHZVKjXnCgY1WePXNIKWgzSXLO40/B7tNGlPlDSp57M0OOmuNEMSlzQDZ9k0F3Yi\r\nNdjySzQynRc1q3PoNM4G9jTbsKE0+y1wNZiipzTsFNA0FQfSNIe0+jSrmQE1+Jy1NBjHsjSIjIw0\r\n6h0HNaqd+DR53kg1MPuaNMwtpzTWcbU0+tmHNHOjhTQq+Pk09AghNdDo4DT2JFg1UGDNNKdg0jQ+\r\nSok0Qo7+NFB6oTSZr6c0o1+1NEbcgTTDFJQ0MFMINcYXSDQ/LUk1j8+tNKAMezVE7Is0BHf/NDoQ\r\nuzTXO4Q0SJSmNPzSrDSUsI80ysigNO82qzTZfQU183omNUvwwzRROAA1HVaANEJG6DT0IJY0jFej\r\nNBkxrDQYQmk0/g6RNI7/1jRqryU1yVSxNMSh+jTiVWQ03lXONJCm3DQ54/E0goaLNc+vXTUebFc1\r\nE5GiNMTlHTXQ6WQ0GG6PNGQRoTRy0vY0ptSmNNLL6DTzuxQ1oIGmNLr3uDRKOL40tTfwNLTdAjVm\r\ntwE1SIO+NJj5GjWXKsU0VAMkNUQ3nzS8k600hGeLNKHaHTW7W0U1LnXMNM+91DTQohA15cyPNFEe\r\npTRskLg04As2NbMxwjRb5740yilNNX3dfTQJbsw0E8B0NHo+RzQ3K/Q0iZkBNbLiFzQ03Ns0qiAm\r\nNf2D0zQLAhA1+hkLNcBiJDXSatg0KgWpNJdoITXpHCs1SMPONJawnDT/Vgo0ogFANU8/6jQfQRI1\r\n6L/QNMQIUDW/8gs1jq/UNBgZijSMtTs1sxKhNHedLzUTnO00qjreNMIv9zTXFoQ0m8RlNOpemDSy\r\nXtE08PgYNRQB+TRiis40hrhDNTP5+jSHjyY1OL1INRAbADUdfyI1ViGxNCRFmzR1r5c0AG+GNL7c\r\noDSClwE1XZzgNLTHvjQK6JM0LsjeNCrP+TTSHf40q5TwNHRFaDSLc/Q0qoaBNGYMkjQIZY00RGXH\r\nNC5exDSZmA41/idINb5pCDUT8vo0+lepNILQETXu+ts05JDXNL9emjQsr/k0BlA3Ncd23DTQBSE1\r\nfIU2Ndz/HjVOv7s0guICNQZ4sjRu2s00fQsJNd7NJTUMkVQ1Ina8NGfjkTQ4n2A0Oa5wNRpppTR7\r\nSQw1dA9/NGCOhzTq2XE08Q4gNdj+ujTjdpo1D6kPNDAi0TSERxk0mlbLNGAzxDTwrhY1GXrUNPnK\r\nrTTW3go1mvH5NITJ7TQspqk0bNu3NMuzpzSmTvA0giRyNMVwQDSco2c1ASlvNei+/jRVYag0aogX\r\nNX+bvDQsI5o0uHlONXT4hzXEeYs0MVHCNITG2TQ38jk1iiwZNaaBhzQi88E0AIDcNA==",
                            "noiseTrainingType" : "default"
                          }
                        }
                    ],
                    "start" : 52716,
                    "duration" : 3916,
                    "mediaStart" : 0,
                    "mediaDuration" : 3916,
                    "scalar" : 1,
                    "metadata" : {
                      "WinSubProjectDisplayName" : "",
                      "clipSpeedAttribute" : false
                    },
                    "animationTracks" : {

                    }
                  },
                  {
                    "id" : 137,
                    "_type" : "StitchedMedia",
                    "minMediaStart" : 0,
                    "attributes" : {
                      "ident" : "section-26",
                      "gain" : 1.0,
                      "mixToMono" : false
                    },
                    "parameters" : {
                      "volume" : 1.0,
                      "cursorOpacity" : 1.0,
                      "cursorScale" : 1.0
                    },
                    "medias" : [
                        {
                          "id" : 138,
                          "_type" : "AMFile",
                          "src" : 33,
                          "trackNumber" : 0,
                          "attributes" : {
                            "ident" : "section-26",
                            "sampleRate" : 44100,
                            "bitDepth" : 16,
                            "gain" : 1.0,
                            "mixToMono" : false
                          },
                            "channelNumber" : "0,1",
                          "effects" : [

                          ],
                          "start" : 0,
                          "duration" : 2082,
                          "mediaStart" : 0,
                          "mediaDuration" : 2082,
                          "scalar" : 1,
                          "metadata" : {
                            "WinSubProjectDisplayName" : "",
                            "clipSpeedAttribute" : false
                          },
                          "animationTracks" : {

                          }
                        },
                        {
                          "id" : 139,
                          "_type" : "AMFile",
                          "src" : 33,
                          "trackNumber" : 0,
                          "attributes" : {
                            "ident" : "section-26",
                            "sampleRate" : 44100,
                            "bitDepth" : 16,
                            "gain" : 1.0,
                            "mixToMono" : false
                          },
                            "channelNumber" : "0,1",
                          "effects" : [

                          ],
                          "start" : 2082,
                          "duration" : 1176,
                          "mediaStart" : 2126,
                          "mediaDuration" : 1176,
                          "scalar" : 1,
                          "metadata" : {
                            "WinSubProjectDisplayName" : "",
                            "clipSpeedAttribute" : false
                          },
                          "animationTracks" : {

                          }
                        }
                    ],
                    "effects" : [
                        {
                          "effectName" : "WinCompression",
                          "parameters" : {
                            "attack" : 0.0,
                            "gain" : 9.0,
                            "preset" : 1,
                            "ratio" : 10.0,
                            "release" : 3500.0,
                            "threshold" : -20.0
                          }
                        },
                        {
                          "effectName" : "NoiseReduction",
                          "parameters" : {
                            "denoiserAmount" : 20.0,
                            "denoiserThreshold" : 0.0,
                            "noiseProfile" : "chV1QU+uUUGfz+xBhY2TQk6qBUOCLhZCWRN9Q35Xj0Q6vuNFpbU0Rl705kUqWjxEBuylQ6nGkUPA\r\nvBJDaNOFRF9wCEUTG3REnKXMRK7ULkQGSXtFaFCORPZbdEPisjpCUHUeQhrrWUHM7udBB50nQcJY\r\npUE6pkhCVteYQ6g5t0HGXYVA71yHP3B1LkCyLjJABSaeP6Ilp0D6RI5AopYOQlZg7kBo8klAAeax\r\nP2nXPT/wIbg+iSXyPrzMxT5ib5M/mfOtPzoDgkB6S5s/foXwPv4Loj74H5w+lW83Pig98z0ZcqI+\r\na8lzPqNv6z8p850/rGqGPtz1ND7WiUo+whf6Pf0hiT5Spj8+ZrLSPqBMiD5OqL0/bFuRPxT75j7f\r\nfvw9pGD+PQanzD0oe3c+gyk4Pt4Loz+t41JApmDrPx1EikA8Ivg+Q5fYPaDLAj/YCHA+r5aTP8rP\r\n/kA8cMZBQAmAQTZbT0I5qOpBXlYAQE4Ygz4ZkvU+1mwQPyKbiD8XAOg/oq0KQPAsKEE0+pVBnEfH\r\nQZlhKEAMRhQ/ok2eP6bwAUDa2ok/0MQkPz9Bgz8qjp4/4QNtQCRCSUAwM8U/xj2MP5jJjD8wdBQ/\r\n1FJNP4IF6j8y0Sc/KYGrPzD40EDS+qpA8p4yQJaKyz6cFDo+78ofP7NQIT/VdeA/6LXDP7qTpT98\r\nYwdBRJEAQds5zj/Zey8/hNHkP2pZlj7oGyFAZgWWQMEKpj+OhYw/PnILQGoEmT9uuv4+O4ZBP8V6\r\nKkAuu0JAMDnOPz/FaD/BvN4+bmO5PgP0Aj+quUY/Mc+jPgLPEj8/Uu0+uMzQPo65KT+q3OA+lPkk\r\nPyOyVz4eEpw+7jQXP8NoUT9GK6U+mtH1PpsFtT0kaMM9vU2jPTZ92D7lRuA+/AM9P+GYNT+6/zk+\r\nbV0pPkwV1T74sL8+4y8sP1YT3T75KkY+buOSPh2pTj7qXx0+zXPQPTi1KT6uZ5s9wLJ7PuQluz6E\r\nOLg+0/G4PkTvmz7uTvk+DB2+PoGNTj6Ke9096MyhPRSnIT7SEw4+sbHdPUHvAz/xYKg+YB8zPiZu\r\nkD0O/2Q9pjPXPSs5zT7bfIM+1c83PeK4qD3w1VA+rRcyPvH9Vj650+Q9RGTdPX09kTxtkwI+kQoB\r\nPo+qdT4tvoc9IWLoPoGFBD+nR5E9JH6SPTorET73l0Q+O1wQPj+TKj7ar04+u6+LPorEpj7oeug+\r\n6+g8P2Jjpz5Zndg+wlDkPZpS/TyZXFo9py+LPAIG8zzEPjo9tNhzPiLTHz3z15g9/uCJPS/8Sj2U\r\niSo9zMuHPYNePj28AP08M4itPFx5lDzKXcM9K0/TPOaIhjxykaA7qbSGPDwmqjwcw6A8N5JiPLb1\r\n9zz6+WY8QdIiPSyx8jze7r88i3VJPd+Dtzw340s97a0RPR9ZkTzVi/48K7N2PF+Cjzyu8tI8Ylaf\r\nPDk5cTzpF388LinMPGnJhT1oVG89Zhi4PME2kzxK4E49+K2aPCoz2DtB2io8ATdvPPEEtjyyyls9\r\nmj+QPAqjKDyozyc9jfEqPdZiJTzbLUA8vQEQPSZOKj0Vj9I7WOt1PHospTusjdQ81C1VPFSaCT2u\r\nSXA8JnsLPOxjWTzCeWY7FsfWPCH8YTukWhE7HYsdPBw5kDx6M5g8WkhFPVSMtTzv/VU7HICfO3e0\r\nLzzkt7c712hBPOXIgTwD8MM83//fO0KKjDxuvho802nPO/YCbDzMl608Q+urPGJiSzyel7U8HGwS\r\nPXmTqDy2tJc8dIg5PMZjZD1UDow8Y0u9PMbMdT2RcfY8TVkMPaGtXz2z2U89FL6CPMXcWjx5OjE8\r\nPgUAPPR8lzwXBwo9eniuPCOv5DwhTXo8aO85PLpNqTwm/hg8f1CJPNwDNTziJLY8UjDrPEBc7TyC\r\nvmk9BGSbOyHcYD3a7uw9MaIDPni6HD1aydc8n2AEPeBWLT2u/D89gsMyPWVeID1SM448rAFyPNpc\r\nGjy0qCY8nu1cPUKatT1JcpI9VvGqPb02fjynApU9DFtpPfQK6Dxalnw9cyegPQHX8j3/qZY7oOV0\r\nPKHCWDz0Av47oGDfPWeLQz1S+UA9XZEkPI+1xTsLHLA9aeieO950/jxlSY88mYY8PTWXJD30KYs8\r\nGD5rPY930D0FhBs9HMblPIB+iD3xTug8T1ADPYuw4jtK09I8aD/UO4iUtzvL0ZA8MgGCPFdnvjy0\r\nSxQ8ypfIPAythzz0fiA8puhYPVQjcTxCWJk8udhcPRdlnjytwPs8BWI6PWOSnjwqIRI94qjWPLAC\r\nnz0yzSQ9WxCBPHUkCTzAYhk8wmC/PPoDUz0umzs9j719PaAiizzUC+I8zSS2PUz+rTw/dx481xYl\r\nO2nHZjza0yk8Qs5JPQvfFT3e8Sk9658wPag+ND15ZLs9kAwpPQVvtzyb+S084j+bPRab4jwgByc8\r\nov1ePW6OFD3u2A49ARFNPTWsZj1jFcs8ZrBNPeiEzj3KsiQ9VGwOPioihD5CtvU9LEFaOwtX4DxM\r\nHN08TyRXPUJyjD7OGpM+ZJNmPRqEpzyOpD09bCZvPVCijz0fQRc+UGNkPTC77j15jas9sLTKPPIr\r\nQT3K8to9oR2dPTwK+jyS8PU8lnEdPAzAajwebIY9tXPyPIbnBT2Ig2I8ZtpIPHIoHTz9hgs8o8RP\r\nPDhh4zxqxEA7PpMoPVtqjzzk1pk8DzzgPNSbpzwa/Ao9gOfPPLoEcTzP/Zw9DtoEPHjNdzzQg4g7\r\nxB6aPNwfzzvfiY47/oYsPElPnTvf3z07qloWPK4+dztshAI9Zz7ZPHzjIDv46KQ7b0tBOzylKzwt\r\n4JI8gFrePHW5yzxShtA8B+TjOo4uHD0IDAw9PAjGPCoCxzs49JM8wtaSPFNfAT3+obI7mXeLPYYD\r\n/TyWX4U8gr6yO4pDUjugVTI9qLaCPB3BVDy2V6w7K+IRPERkXjvQOHE7hHWsOxqDGTsvUA07JnKB\r\nO4xRNzuBlTo769u/Oxm6YjtrJqs7ZCB2O8vNIjyGwEg7F6JkO9QGgzsLI7g6/7UoPEUllztwB6A7\r\nvwibOxzCGztq9gk7bYaNOwBWPjvwgM860AcOOxysETsPdyk7kJKiO/RNcztbpD46kEKdOkYoEDts\r\nxi07YDs4O8WcODv53wU7iDgoO4lKCzuN1uI6RSbyOr5PKju6qO06VEUlO0+rHTvQSs86CT0KO4Dn\r\ndToEEek6fgwoO00xCDtW/Uo7EVsKO/ieEjtMeMU6P7XfOm+u/jpgIOM6X3RSO7egPTt+xiA7IPIE\r\nO8YV0DrQO946CsndOrgohjowp4s6QK8LO7FzSjvsUgE7L9oMO6W+wjrt8hk7EpydOvskCjtga8U6\r\narzXOh5OMzsMPSs7VFHgOnIxkToAdsA6rBOwOjQ+izo0GIc6OVqfOv61FTvYBCc7Vo7IOqZywjrS\r\nCKg6IbOiOlOKgTo/uOw6GtmyOhmDxDrvZAA79ga9OkW7gDqEKo46+LYnO9otiTqb6JI6BzyuOpq+\r\n6Tp0M9c60ubxOpx3pDrmppA6TY2xOsSxzDrLpJc6ggjjOlimrjrmr8Y6/FTVOr6IuDpIcL46SPCi\r\nOjKgozoEtM867vS7OpW1tTo0HbQ6DOSyOhpvrzpC9rE6OFuyOpVPtTpz2LA6a7qzOgvYsjrxc7I6\r\ndPGoOhB6lzqWzLg63oHQOtDBuDq71ac6JOasOrcKrTptQKU6AoGZOigmrDpARL06VpW7Osyk1jqR\r\nj686bE+NOpormjpCeqI6CXWgOlLGkTosLKQ6Ou2zOgFGrTpbzqk6ySqpOpGYrDpQ76g6glCoOnLN\r\npzpF56Q6PJyrOmHzpTrgIqY6jtShOpu1qDpJSKg6ZzimOqmTpTra5KQ6HOOmOmZEozrQmaQ6tFqn\r\nOs+2qDpIrKU6O9WjOqvgozqkUKU6LAuiOsn2pjq0aaM6ZQijOnoKpTrciKU6RoCfOsiJozoQLp46\r\n2s+jOkpBpDp+vqI6juGhOsbWoToBNqM6TbqjOjj7nDpr6J46BvagOhy1nToGhaI64X6eOjdgnjqB\r\nyZ060fydOum2njrGAp867NubOk72mjpN0aI6I8ShOoP/nTpNmp06ig2cOkKPnzqgg5k6yv2cOumf\r\nnjp89Jo6/4iZOlv/mzow6pg6oZCcOp/XnjoIDJs6ygaUOiJGnDrWIZ46XPeaOsMkmTr1QZY6Yzqc\r\nOj7QmDrP2Jk6DiKXOlqqmDqZG5Y69++bOtuDlTqdgpk6ZBeZOgh9ljrqFpk6kDmUOkXplzqzfpY6\r\nqlqTOqFEmDrLUZs6maiXOlv5ljp6nJQ6lj+YOrnpljo1LZQ628iSOqdzlTrsxZY6AqGWOkBxkTrQ\r\nLZQ68i6ROlSzlDqbP5c6dKmTOnhnkjpe3pM6lkCUOnUOjzraYJM6ApaVOoTPjzrcG5c6viqTOqXK\r\nkDoJtY06M6OROgmJlDqfxI06MqqQOjFdkTqoSpE6BF+TOt24kDq9qo06OxyROqm1kzoHt4g6jv+R\r\nOkgXkDrSxI06N2uTOoAYjToAnJE6KYKOOhkWkzoqbZE6FbGOOor/kTp/uIs65caOOvMkkjoHuZE6\r\nUhuPOmhijTqONJI6BnCNOh5mjTro35E69dmLOpMdjzr4jY061ZqMOmMsjjoCSI06AHSLOsyIjDpS\r\ncoo6zZ+POuwCjzp8CIk6SZyMOqsgizpxTY46n42MOrlcjzrZUIs6gmGOOkLlijqDnok6pwaOOuQo\r\nijqeMo06SOOMOkIDjDq9a4g6TcmLOu32hzoukok6ukCHOhc5hzpw94g6EkSMOrNRiToeZYc6hJGI\r\nOrLChzqMo4o6KHiIOtgwijoT5Ik6IDCJOqFXjDoduIo6PumIOsK4izpHhIo6/gCHOmR2iTqQqoY6\r\n/IaJOn8CiTpidIY63W6HOu1rhzoxIog66zyIOiTVhDqQeIg6W9mJOkt2ijoAk4o6DFOGOmDfhzrw\r\nt4w6vAKMOsbGgzreLoY65rSGOgXChzrdhIc6LEuGOlF8iTp5L4o6IeyIOu7Nhzo2AYc6YmyDOnj7\r\nhTqU0ok6g76FOnn2ijrkiog6NhqGOoXlhzoLdYo6DamFOvSLhjp5woc6fs+COm0ehzpbXoU6FACJ\r\nOkoJhjrOGog63KCDOi7liDqAXIQ6XwmEOhtXhDqPqIE6qq6FOhmahTp3iIc6jEmGOpyjhzqhDoM6\r\nssSJOgT9hTqAsIo6XXmEOlSIhjoWv4Y6jhKGOkRXhDpYWIk6v4ODOmxphjrJzIU6yOWGOqQDhzoZ\r\nRIU6ZyOGOjaBiDogtYM6HzuGOgQshjr1KIE6sTqDOt8ahTrdR4c63h6HOizegTot4Io6LB6GOimG\r\nhDqyB4U6Vp6DOv80hDr6eoY6tOmGOhtKhDr/14M6iYSEOl4miDpJKYg6OSyDOjX4hzpd9oM6z6GC\r\nOrQdhDrcb4Y6RYKCOghagjrRWIQ6t3WEOqG7hDpGZIY6JRyDOqxshDrbI4Q6D9+EOiCkiDqSvSs/\r\nqkOSPdk7LT2zhcY7yM1NOzSpPTuIDQ87Y6CmOgBP9jpCc2Q6QjwTOkGJGDrqN5A58HbHOXvp7Tl0\r\nkZ050FBrOZwe7jlbkGU5JhKwOU+tgTkmhE85HzKPOcGweznDn4U50ATbOX2tVTlqWi456lSGOVPM\r\n3DhX6Ik5Uq1dOcbyiTnrRDU5wlQNOfdjaTm62aM4IX4lOYniHTlPM4M5lB46OQGRFzlrMgw58OLe\r\nOOBDFTnIob04oz3EOODNyjhocPA4B+cVOQ8uujlCJwc57PIdOWaDqTiSDq84YmC2OHhLijhYgnY4\r\ngdMHOZ/vqDi0x/c47COuOFIeuzj7Yhg51p8IOXLEyThPgIM4F4wLOZD4QjiCcb44IZxaOXbC4zhk\r\ndAc5Ro7WOAPLOTky4ws5y163OLK3+TjTnhg5S4AGOUcmjjgRIgo5AfHTONkl4ThibHA4rl8nOWOO\r\nNjk4FcQ43+UsOT8yIzmlr804YgBpOYujODlkoBw5mpUQOaq7MzmTPvc48Dt9ON5Szzgw1oc4VXDK\r\nONqXgDh/HRM5yGLGOLC3kDhexZo4vlxEOK5qmDg0AiU5vVKiODHYpzga6t44xK8zOBYzRDi3pVs4\r\nG5daOP0TjzhO8dg3DP5JOE8EezhGxYo4c7ZGODRBqDjAgzY4+B1dOK69/jigX444Xj0nOLMG+TjS\r\nUEU4XUaAOCCkcTgeDG84WTeDOChyQThN0T44UOCeOEI18zh2F9A4I1K8OD4zCzhdzNo3cEFtOIh5\r\nsjjhPIM48BdEOD5iJzglxrg4Tp16OFhm7Dcv7ZA4zTduOMIbHTizjC04Qs3EOJKwfDjvhhU4mD5b\r\nOMADKjhJ7PU4/txxOCMd5zcxaCE4ql+8ONrCVzglWdA4dSvCOIt7YDhXRuo3fdvlOIC/FjgMd7o3\r\nlkFEOJWvVThA6uQ3UPJROOBjWjhNtCc4rsCQOJH9Ljif24U4DMpCOPZl2zecwEM4oatpODUDKzgk\r\nWsE3EvFoOCL7XjhWNdE4OrmFN2ZDGThjMuI4jjrXNwmAlTf5xS84GXH3N9F+Qjj1rTY4x1OcOCQn\r\nRDjGsTE4gyUDOL7TbzjiUy44Vui/N9l/ejhgMAI4HLgYODqb3zfTNNM3/LwdOKgHFjg2tcA33xUG\r\nOBRx2jcMPm84O1wpOAujqjdRLfw3ZFU2ODnfkjjHjvM3gz4TOM8tCDhlSjU47ncXOC6OiTjCi983\r\nrCmCOIh5Ezj8OnA4YjAVOJkdUTiWDvY3QUR1OHsFWzh5s8E3wIoQONNayTfPkTc4uFSzN12IUDgs\r\nNTE4zMAXOGRmCTinVBI4V6/4Nzyf+DfvGVc3MQ8DOGp9cziuJNY3OtDsN05mAjiVsPM3Jd8DOETB\r\n/DcSQVk4ZRszOD6x8zcoz4s42uYROK+ilDeI5uc3xf84OLLeLjicQcs3fr0TONNIBzgKyjg4QqoX\r\nOOJ2gzdSE0w4OPw+N4VIBzglXbY3odToN9tlnjgglCY4yi7+N5Qn9je3h2I474+NN+47jDheUxk4\r\nQ7UnOOBFkDf44Sg4KKkfOPlDZje+Ics3VUk9OIyzMTjdACc4wjcKODaEfjhGBuE30LdnN+n+Dzg6\r\ntps34qfMN6ztkDdP4jc47qzMN2RqyDehZDc4qUxyOMYTDjjg6F44CpSyNxTYKDjQciw4lKETOHIH\r\nTjhepMA3qEO5N0YCATjTbgw4UnIfOPrG0zfLpcY3ErwGOMQhKThcegM4ifiiN7K2RTg94v43+tMV\r\nOFXtjzdf2H43iLjHN4yCfDgWKg84nJgHOOeusjerfno41oQDONnTEjjGVwg4bksGOBR7LDiPVJ83\r\ns8jaN/6j2TcWSJI3h9keOJWkITetywA46nxoOG6yvTdOZpY3IPTzN9xYvjd5/hs4z3OFOCKE5zfy\r\n/s4336TwN0lbAjiwHuU3mZ4TOFG1/TfNRJ03wMUROKWyLDhQ/lI4DW2/NyNeyDcIlsw3eo73NzVq\r\nzjjE8v43+UzlN50KKTgYXxI4eHegN8/qVziWlv03OQEZOPcgxjd+IIc4ZFDeN3dkODh9GQI4HuQ7\r\nOJ3qnjdpb+A30+maN0IWODgkteM4bsndN/pADzhGv2g3chglOIXrVjh/ouQ3KljENxYpXjcIFNc3\r\nDr0WONBHuDemUow3CuLxN4Qm4jd6gxw4i3KdNyGCQTjRI043mvG8NxkwADjN++03FojFN0GBrDdu\r\nMas3Y/tEOHCWAjjSoP03vjdLONdE+jdo61I4InsDOM3yHzimDpc3EijwN6ICLTj1UnQ3jBdZOHgH\r\n4jfMqd03aLnfNylBDzjrSDA4/d6sN9tg5jdQSb43NoIaOMfcmDfi4TI4AbeMNytOVThr0Ug3GPbk\r\nNxY8zDe4Ovc35V2IOAXhnzcPSag3m1A6OC2r3TcKAlQ3nuSGN5FesTcVbHM4QwjVN3ljMziQTgo4\r\nmz2jN7F0PDcAKgk4GFHFN4ieFzgVmeU3dO6mNyYJJDiE7vU3kCQaOIoDEzhCPck3xReZOGaQVjjw\r\nMAI4CRLqN8xSszeRQDg4jOJ1N+kSlTd64Fw3FRqPN7BbAzg0HWo4rr6ZOLD4gjg2flA3rj8fOIAe\r\n/De28I03kX3XN1r3zzdHbJs3xuxrOB9nwjdXrxk4kN/RN9KDfjd97JM3DGIbOIP7CTii7vU30y8A\r\nONtgszd4TK43O2tbN/s4GjjGycI3Xv0cOB4mXThNYsA3z6PcN8CarzdSYdE3ddLaNwBy3zd0mkA4\r\n9DfdN7HXqjeh0cg3JrYnOFyupTfd4hU4thF6Nzh+wDfxlxI4Es4AOHlhTzfwaG43we09OGT5/zfI\r\n1ME3/UKeN9MrYjcEDRo4opEGOHT/9zdYczE4ktzPN49zhjfurMU3bjyCN7MQAjh87J03tYfcN90z\r\nbzdd7IM4g+aUOBuzjje2Rgk4WvkoN1GHmTfLsiU4nlT3N5YYWjhj95g3zPSqN1inbDh1uRU4MrjF\r\nN3l93zcW6gc4s5INOBiszjf6eEA4EM4oOKqbpjfc9rg3xjBWNziCKzjTf843qMylNwFdgjc3AMA3\r\n3Hw5OGqOATgcBQs4gHvLN9TUlzcRH5Q3qrUuOJqKpDeAKYU3GLmTNxyPuzdK7dE2mIpfN8fGAjdR\r\nSGc3o3CFN27kNzdxEYY3WHLSNys4kDfpT6g3C+mNN3C/ujfFFfY2vvkoN8biBzjzid03sC8jN3iq\r\nRDd3HUY3R6d1Nw5RYzdC+3s3jaFmN08jIDdpa/83Co7vNsfU4zczYwc408kROKhPaDcHMpg3eE9g\r\nNyMVDzf3vPM3lJZMNy53Gjfateg2r9ANOBIzjDdNSpk3S/MNN+kNqTceP1g4B6kLOBSLsjbsZvg3\r\nu1OSN3/dOjffeDc395fbNnmY3zYcfMg3zj11NwAxdTf4TyI2PlDgNYMeGjdOqow3M0BZNzNwFzeZ\r\nqVA314bGNu9nnDeYuBU3a4WcNnTUDThQoJY3xoGwNkOFKDfCcKE3eGP7Ny0kCThYBRc48GBiN/AM\r\ntzZi72k3D+NqN7apvjcrxjY3y90EOM7YLTiQXJE3wAUlOItbIjg8yB037zmDOCeHBjg+lGI3uuAH\r\nN2atjDe5LJQ2c2E5N91wJTezVYQ3TK6qN7vRtTarnG03S/oMN6dSazf+7zE3B9y8NkiRyDbI8603\r\n2G+wN7o/0jcqjwA4UttQN0mBgTW1jos3ZIcINy81pTab8k432Dm3N1brnTfXz7Y3uzabNwrf7zcm\r\nnh04PCb6N8JC8Tdos+83g4eEN5KjNDfq1b40/RPNNMCy7TSp7UQ18WAHNU59TzVuI8s0c4i+NG/z\r\nJTUE7o00R7WWNIFTUzSLCwk1frUMNe58ujRjVfo0FsW7NKtISzXXbwA1GgQxNeL1DDUXVeA0o6iv\r\nNC00nTRLF440gJVLNTcRRjTEPf40pJ4JNY3fOjX6qIo04vMtNYV4tjQfZeI08uIFNUStGjV/6w81\r\n1w0ENaGXEDVk07E0WbO8NG+usjRC9Co1yE8BNceoITWveQ41P0HvNPZn+DQE/3Q1MBVRNCDuwjRS\r\n1M00sPxCNeDv5TTrWvA0g6Q9NS3y6jQ38m41QQ7XNBreRDV6/8A01njtNPHbCzUyEAo114kRNYmH\r\nhzTocMk0CiCLNE8s+DQb7ak0uDYUNdbnpzSSr840Go73NBunyTS1I8c0EFudNH1R3zQj1w01KLPL\r\nNIWD6DRtDs40hMFkNOqTDDXJbAs1E+qNNM4OhTSZwA41+CwPNZhhuDTTJbI0duRDNRrrsDReEkU1\r\nWrbqNB93PTTNF600IEV0NDf9SzSByxI1e0HJND1kyTQr8rc0VNYhNVyj7DRgMiE1b3QNNQg+HzXa\r\n1zA1LmffNIgNBTWmvUs0JfxvNDKl6jQrAQ41XZO4NJBFJzXuZso0S0X6NP/tpTTuORQ1nzwINR20\r\nOzUuoxo1MTnkNP8uYjWeVvE0uP3qNErq0DTeySI1kguRNFgG6DTkyTw1l+jdNIyk9DRUgBc1Fauz\r\nNCmzIzXVsrc0mH4HNectODV1khc1jvsWNWxpIjWIVZA08ysGNfATjzSCr/k0xi6bNPTpUDWWXT40\r\nHaGFNL1q3DQOp6g0ac/rNCNZzDSKocA0tkPANKQa4DRQ+xA16bj7NB26WDXoq0U1gjLWNODRhTTa\r\nu1I1No2MNCT2zTSWTGo1jSBTNUMenzSSWAU1dOysNP3KkzTOTyY1cCuxNNHJYzX/i6Q0zR8ONdjr\r\nMjXMkWM1QD4SNR763TQqz0g1PsXYNIcmTDS75hg1OtBHNCQ4pDQypO40IHaeNADtdzS87Lg0IiyX\r\nNa3y3zTTQQA1Hg1BNUe4jDTGuZc0IT8BNXR3ADVlYvI0dyMuNcW7rDTS45s0iDa2NMq0EzWZrZI0\r\nor4hNQBmwzRongQ1uG4CNaDsJzVpUlY0RqBmNIU8IjWhZ8o08FxHNdHTETWZCB8166IoNezvsjSh\r\nVpM0iMXrNF/DxTTDTxM18DueNNuJlTQmCiY1hB2sNFnZHTV/kxs1JUJGNOzcozRUEPk0IBIKNTpy\r\n/TQxpt80sjrnNIcc1TTZZwU1RhPlNCHQ7jR797000wOsNCBg+zQOw440QqzHNKSB3zTwpMs0tDWQ\r\nNFQ5zTSiGrY0STMKNQwCujSoYZ00ApUdNWaXvTR0YMs0FskpNdK7xjT0P0U1Ap3WNLCxPDVvpSM1\r\nUVNENdAi2DR9uB81R94pNQMJADVAmUw1JhoNNf/C4zSDLt80ZsyxNNSbwDQU3Lg0aYgRNTfh5zTF\r\ngxM1iCKUNMN/PzSLo2s1bU4rNWxgyjRtcA41n63PNPY2iTQS1h41mhYzNcK57zQysNE0JiWSNPEZ\r\nsDSuLng143uJNFOQzDRUqBI14qKJNHH1CjVVVPk0wfu/NF73dDTsk3s0E/m+NF59gTVwD8g0q0DF\r\nNMLw0jSx+TI1IyLANL0iKjUk5lY1rGyrNAh8oTQsjeM0iAyNNOalazVAQ2Q1AADyNA==",
                            "noiseTrainingType" : "default"
                          }
                        }
                    ],
                    "start" : 56632,
                    "duration" : 3258,
                    "mediaStart" : 0,
                    "mediaDuration" : 3258,
                    "scalar" : 1,
                    "metadata" : {
                      "WinSubProjectDisplayName" : "",
                      "clipSpeedAttribute" : false
                    },
                    "animationTracks" : {

                    }
                  },
                  {
                    "id" : 140,
                    "_type" : "Callout",
                    "def" : {
                      "kind" : "remix",
                      "shape" : "text-rectangle",
                      "style" : "basic",
                      "fill-color-blue" : 1.0,
                      "fill-color-green" : 1.0,
                      "fill-color-opacity" : 1.0,
                      "fill-color-red" : 1.0,
                      "height" : 719.999999999866,
                      "stroke-color-blue" : 0.56078431372549,
                      "stroke-color-green" : 0.686274509803922,
                      "stroke-color-opacity" : 1.0,
                      "stroke-color-red" : 0.0196078431372549,
                      "stroke-width" : 2.0,
                      "tail-x" : 2.00941485672956e-11,
                      "tail-y" : -19.9999999999719,
                      "width" : 1279.99999999972,
                      "word-wrap" : 1.0,
                      "fill-style" : "solid",
                      "horizontal-alignment" : "center",
                      "stroke-style" : "solid",
                      "text" : "Thank You ",
                      "vertical-alignment" : "center",
                      "font" : {
                        "color-blue" : 0.266666666666667,
                        "color-green" : 0.231372549019608,
                        "color-opacity" : 1.0,
                        "color-red" : 0.184313725490196,
                        "size" : 64.0,
                        "tracking" : 0.0,
                        "name" : "Montserrat",
                        "weight" : "Regular"
                      },
                      "textAttributes" : {
                        "type" : "textAttributeList",
                        "keyframes" : [
                          {
                            "time" : 0,
                            "value" : [{"name":"fontName","rangeEnd":10,"rangeStart":0,"value":"Montserrat","valueType":"string"},{"name":"fontWeight","rangeEnd":10,"rangeStart":0,"value":100,"valueType":"int"},{"name":"fontSize","rangeEnd":10,"rangeStart":0,"value":64,"valueType":"double"},{"name":"strikethrough","rangeEnd":10,"rangeStart":0,"value":0,"valueType":"int"},{"name":"fgColor","rangeEnd":10,"rangeStart":0,"value":"(47,59,68,255)","valueType":"color"},{"name":"fontItalic","rangeEnd":10,"rangeStart":0,"value":0,"valueType":"int"},{"name":"underline","rangeEnd":10,"rangeStart":0,"value":0,"valueType":"int"}],
                            "duration" : 0
                          }
                        ]
                      }
                    },
                    "attributes" : {
                      "autoRotateText" : true
                    },
                    "parameters" : {
                      "translation0" : -2.00941485672956e-11,
                      "translation1" : -2.80522272078088e-11
                    },
                    "effects" : [
                        {
                          "effectName" : "DropShadow",
                          "parameters" : {
                            "angle" : 5.49778714378214,
                            "blur" : 10.0,
                            "color-alpha" : 1.0,
                            "color-blue" : 0.1216,
                            "color-green" : 0.1216,
                            "color-red" : 0.1216,
                            "enabled" : 1,
                            "offset" : 10.0,
                            "opacity" : 0.4
                          }
                        }
                    ],
                    "start" : 59890,
                    "duration" : 270,
                    "mediaStart" : 0,
                    "mediaDuration" : 270,
                    "scalar" : 1,
                    "metadata" : {
                      "WinSubProjectDisplayName" : "",
                      "clipSpeedAttribute" : false,
                      "default-HAlign" : "center",
                      "default-VAlign" : "center",
                      "default-text-attributes" : null
                    },
                    "animationTracks" : {

                    }
                  }
                ]
              },
              {
                "trackIndex" : 2,
                "medias" : [
                ]
              },
              {
                "trackIndex" : 3,
                "medias" : [
                ]
              }
            ]
          }
        }
      ]
    },
    "trackAttributes" : [
      {
        "ident" : "",
        "audioMuted" : false,
        "videoHidden" : false,
        "metadata" : {
          "IsLocked" : "False",
          "WinTrackHeight" : "56"
        }
      },
      {
        "ident" : "",
        "audioMuted" : false,
        "videoHidden" : false,
        "metadata" : {
          "IsLocked" : "False",
          "WinTrackHeight" : "56"
        }
      },
      {
        "ident" : "",
        "audioMuted" : false,
        "videoHidden" : false,
        "metadata" : {
          "IsLocked" : "False",
          "WinTrackHeight" : "56"
        }
      },
      {
        "ident" : "",
        "audioMuted" : false,
        "videoHidden" : false,
        "metadata" : {
          "IsLocked" : "False",
          "WinTrackHeight" : "56"
        }
      }
    ],
    "captionAttributes" : {
      "enabled" : true,
      "fontName" : "Arial",
      "fontSize" : 42,
      "backgroundColor" : [ 0, 0, 0, 191],
      "foregroundColor" : [ 255, 255, 255, 255],
      "lang" : "en",
      "alignment" : 0,
      "defaultFontSize" : true,
      "opacity" : 0.5,
      "backgroundEnabled" : true,
      "backgroundOnlyAroundText" : true
    },
    "backgroundColor" : [ 0, 0, 0, 255]
  },
  "metadata" : {
    "AutoSaveFile" : "C:\\Users\\admin-armin\\AppData\\Local\\TechSmith\\Camtasia Studio\\9.0\\Auto-Saves\\XFEM21a6affc.autosave.tscproj",
    "CanvasZoom" : 77,
    "Date" : "2018-03-01 06:41:20 PM",
    "IsAutoSave" : "0",
    "Language" : "ENU",
    "ProfileName" : "",
    "ProjectDimensionsChanged" : "1",
    "Title" : "XFEM",
    "audioNarrationNotes" : "",
    "calloutStyle" : "Basic",
    "canvasDetached" : "False",
    "canvasPositionHeight" : "0",
    "canvasPositionLeft" : "0",
    "canvasPositionTop" : "0",
    "canvasPositionWidth" : "0"
  }
}
