{
  "title" : "",
  "description" : "",
  "author" : "",
  "width" : 1280.0,
  "height" : 720.0,
  "version" : "0.5",
  "editRate" : 30,
  "authoringClientName" :  {
    "name" : "Camtasia Studio",
    "platform" : "Windows",
    "version" : "9.0"
  },
  "sourceBin" : [
    {
      "id" : 1,
      "src" : "C:\\Abqus Tutorials\\Fracture-mode2-CZM-element\\2018-03-12_15-17-52.mp4",
      "rect" : [0, 0, 1280, 720],
      "lastMod" : "20180312T151752",
      "sourceTracks" : [
        {
          "range" : [0, 15831364850],
          "type" : 0,
          "editRate" : 10000000,
          "trackRect" : [0, 0, 1280, 720],
          "sampleRate" : "10000000/917441",
          "bitDepth" : 24,
          "numChannels" : 0,
          "metaData" : ""
        },
        {
          "range" : [0, 15831364850],
          "type" : 2,
          "editRate" : 10000000,
          "trackRect" : [0, 0, 0, 0],
          "sampleRate" : 44100,
          "bitDepth" : 16,
          "numChannels" : 1,
          "metaData" : ""
        }
      ]
    },
    {
      "id" : 2,
      "src" : "C:\\Abqus Tutorials\\Fracture-mode2-CZM-element\\2018-04-30_22-50-24.mp4",
      "rect" : [0, 0, 1280, 720],
      "lastMod" : "20180430T215024",
      "sourceTracks" : [
        {
          "range" : [0, 163932651],
          "type" : 0,
          "editRate" : 10000000,
          "trackRect" : [0, 0, 1280, 720],
          "sampleRate" : "5000000/336141",
          "bitDepth" : 24,
          "numChannels" : 0,
          "metaData" : ""
        },
        {
          "range" : [0, 163932651],
          "type" : 2,
          "editRate" : 10000000,
          "trackRect" : [0, 0, 0, 0],
          "sampleRate" : 44100,
          "bitDepth" : 16,
          "numChannels" : 1,
          "metaData" : ""
        }
      ]
    },
    {
      "id" : 3,
      "src" : "C:\\Abqus Tutorials\\Fracture-mode2-CZM-element\\2018-04-30_23-00-36.mp4",
      "rect" : [0, 0, 1270, 720],
      "lastMod" : "20180430T220036",
      "sourceTracks" : [
        {
          "range" : [0, 598145804],
          "type" : 0,
          "editRate" : 10000000,
          "trackRect" : [0, 0, 1270, 720],
          "sampleRate" : "2000000/134427",
          "bitDepth" : 24,
          "numChannels" : 0,
          "metaData" : ""
        },
        {
          "range" : [0, 598145804],
          "type" : 2,
          "editRate" : 10000000,
          "trackRect" : [0, 0, 0, 0],
          "sampleRate" : 44100,
          "bitDepth" : 16,
          "numChannels" : 1,
          "metaData" : ""
        }
      ]
    },
    {
      "id" : 4,
      "src" : "C:\\Abqus Tutorials\\Fracture-mode2-CZM-element\\Narration 1.m4a",
      "rect" : [0, 0, 0, 0],
      "lastMod" : "20180430T222718",
      "sourceTracks" : [
        {
          "range" : [0, 95550111],
          "type" : 2,
          "editRate" : 10000000,
          "trackRect" : [0, 0, 0, 0],
          "sampleRate" : 44100,
          "bitDepth" : 16,
          "numChannels" : 2,
          "metaData" : ""
        }
      ]
    },
    {
      "id" : 5,
      "src" : "C:\\Abqus Tutorials\\Fracture-mode2-CZM-element\\Narration_fracture-2-czm-element 1.m4a",
      "rect" : [0, 0, 0, 0],
      "lastMod" : "20180430T222855",
      "sourceTracks" : [
        {
          "range" : [0, 317765108],
          "type" : 2,
          "editRate" : 10000000,
          "trackRect" : [0, 0, 0, 0],
          "sampleRate" : 44100,
          "bitDepth" : 16,
          "numChannels" : 2,
          "metaData" : ""
        }
      ]
    },
    {
      "id" : 6,
      "src" : "C:\\Abqus Tutorials\\Fracture-mode2-CZM-element\\Narration_fracture-2-czm-element 2.m4a",
      "rect" : [0, 0, 0, 0],
      "lastMod" : "20180430T223045",
      "sourceTracks" : [
        {
          "range" : [0, 670476220],
          "type" : 2,
          "editRate" : 10000000,
          "trackRect" : [0, 0, 0, 0],
          "sampleRate" : 44100,
          "bitDepth" : 16,
          "numChannels" : 2,
          "metaData" : ""
        }
      ]
    },
    {
      "id" : 7,
      "src" : "C:\\Abqus Tutorials\\Fracture-mode2-CZM-element\\Narration_fracture-2-czm-element 3.m4a",
      "rect" : [0, 0, 0, 0],
      "lastMod" : "20180502T203143",
      "sourceTracks" : [
        {
          "range" : [0, 945400442],
          "type" : 2,
          "editRate" : 10000000,
          "trackRect" : [0, 0, 0, 0],
          "sampleRate" : 44100,
          "bitDepth" : 16,
          "numChannels" : 2,
          "metaData" : ""
        }
      ]
    },
    {
      "id" : 8,
      "src" : "C:\\Abqus Tutorials\\Fracture-mode2-CZM-element\\Narration_fracture-2-czm-element 4.m4a",
      "rect" : [0, 0, 0, 0],
      "lastMod" : "20180502T203551",
      "sourceTracks" : [
        {
          "range" : [0, 825353331],
          "type" : 2,
          "editRate" : 10000000,
          "trackRect" : [0, 0, 0, 0],
          "sampleRate" : 44100,
          "bitDepth" : 16,
          "numChannels" : 2,
          "metaData" : ""
        }
      ]
    },
    {
      "id" : 9,
      "src" : "C:\\Abqus Tutorials\\Fracture-mode2-CZM-element\\Narration_fracture-2-czm-element 5.m4a",
      "rect" : [0, 0, 0, 0],
      "lastMod" : "20180502T203741",
      "sourceTracks" : [
        {
          "range" : [0, 464747444],
          "type" : 2,
          "editRate" : 10000000,
          "trackRect" : [0, 0, 0, 0],
          "sampleRate" : 44100,
          "bitDepth" : 16,
          "numChannels" : 2,
          "metaData" : ""
        }
      ]
    },
    {
      "id" : 10,
      "src" : "C:\\Abqus Tutorials\\Fracture-mode2-CZM-element\\Narration_fracture-2-czm-element 6.m4a",
      "rect" : [0, 0, 0, 0],
      "lastMod" : "20180502T203908",
      "sourceTracks" : [
        {
          "range" : [0, 710414555],
          "type" : 2,
          "editRate" : 10000000,
          "trackRect" : [0, 0, 0, 0],
          "sampleRate" : 44100,
          "bitDepth" : 16,
          "numChannels" : 2,
          "metaData" : ""
        }
      ]
    },
    {
      "id" : 11,
      "src" : "C:\\Abqus Tutorials\\Fracture-mode2-CZM-element\\Narration_fracture-2-czm-element 7.m4a",
      "rect" : [0, 0, 0, 0],
      "lastMod" : "20180502T204011",
      "sourceTracks" : [
        {
          "range" : [0, 317300665],
          "type" : 2,
          "editRate" : 10000000,
          "trackRect" : [0, 0, 0, 0],
          "sampleRate" : 44100,
          "bitDepth" : 16,
          "numChannels" : 2,
          "metaData" : ""
        }
      ]
    },
    {
      "id" : 12,
      "src" : "C:\\Abqus Tutorials\\Fracture-mode2-CZM-element\\Narration_fracture-2-czm-element 8.m4a",
      "rect" : [0, 0, 0, 0],
      "lastMod" : "20180502T204121",
      "sourceTracks" : [
        {
          "range" : [0, 497951887],
          "type" : 2,
          "editRate" : 10000000,
          "trackRect" : [0, 0, 0, 0],
          "sampleRate" : 44100,
          "bitDepth" : 16,
          "numChannels" : 2,
          "metaData" : ""
        }
      ]
    },
    {
      "id" : 13,
      "src" : "C:\\Abqus Tutorials\\Fracture-mode2-CZM-element\\Narration_fracture-2-czm-element 9.m4a",
      "rect" : [0, 0, 0, 0],
      "lastMod" : "20180502T204204",
      "sourceTracks" : [
        {
          "range" : [0, 347138333],
          "type" : 2,
          "editRate" : 10000000,
          "trackRect" : [0, 0, 0, 0],
          "sampleRate" : 44100,
          "bitDepth" : 16,
          "numChannels" : 2,
          "metaData" : ""
        }
      ]
    },
    {
      "id" : 14,
      "src" : "C:\\Abqus Tutorials\\Fracture-mode2-CZM-element\\Narration_fracture-2-czm-element 10.m4a",
      "rect" : [0, 0, 0, 0],
      "lastMod" : "20180502T204411",
      "sourceTracks" : [
        {
          "range" : [0, 1052908888],
          "type" : 2,
          "editRate" : 10000000,
          "trackRect" : [0, 0, 0, 0],
          "sampleRate" : 44100,
          "bitDepth" : 16,
          "numChannels" : 2,
          "metaData" : ""
        }
      ]
    },
    {
      "id" : 15,
      "src" : "C:\\Abqus Tutorials\\Fracture-mode2-CZM-element\\Narration_fracture-2-czm-element 11.m4a",
      "rect" : [0, 0, 0, 0],
      "lastMod" : "20180510T192005",
      "sourceTracks" : [
        {
          "range" : [0, 787969109],
          "type" : 2,
          "editRate" : 10000000,
          "trackRect" : [0, 0, 0, 0],
          "sampleRate" : 44100,
          "bitDepth" : 16,
          "numChannels" : 2,
          "metaData" : ""
        }
      ]
    },
    {
      "id" : 16,
      "src" : "C:\\Abqus Tutorials\\Fracture-mode2-CZM-element\\Narration_fracture-2-czm-element 12.m4a",
      "rect" : [0, 0, 0, 0],
      "lastMod" : "20180510T192305",
      "sourceTracks" : [
        {
          "range" : [0, 597797776],
          "type" : 2,
          "editRate" : 10000000,
          "trackRect" : [0, 0, 0, 0],
          "sampleRate" : 44100,
          "bitDepth" : 16,
          "numChannels" : 2,
          "metaData" : ""
        }
      ]
    },
    {
      "id" : 17,
      "src" : "C:\\Abqus Tutorials\\Fracture-mode2-CZM-element\\Narration_fracture-2-czm-element 13.m4a",
      "rect" : [0, 0, 0, 0],
      "lastMod" : "20180510T192413",
      "sourceTracks" : [
        {
          "range" : [0, 520475330],
          "type" : 2,
          "editRate" : 10000000,
          "trackRect" : [0, 0, 0, 0],
          "sampleRate" : 44100,
          "bitDepth" : 16,
          "numChannels" : 2,
          "metaData" : ""
        }
      ]
    },
    {
      "id" : 18,
      "src" : "C:\\Abqus Tutorials\\Fracture-mode2-CZM-element\\Narration_fracture-2-czm-element 14.m4a",
      "rect" : [0, 0, 0, 0],
      "lastMod" : "20180510T192508",
      "sourceTracks" : [
        {
          "range" : [0, 292687554],
          "type" : 2,
          "editRate" : 10000000,
          "trackRect" : [0, 0, 0, 0],
          "sampleRate" : 44100,
          "bitDepth" : 16,
          "numChannels" : 2,
          "metaData" : ""
        }
      ]
    },
    {
      "id" : 19,
      "src" : "C:\\Abqus Tutorials\\Fracture-mode2-CZM-element\\Narration_fracture-2-czm-element 15.m4a",
      "rect" : [0, 0, 0, 0],
      "lastMod" : "20180510T192720",
      "sourceTracks" : [
        {
          "range" : [0, 802829888],
          "type" : 2,
          "editRate" : 10000000,
          "trackRect" : [0, 0, 0, 0],
          "sampleRate" : 44100,
          "bitDepth" : 16,
          "numChannels" : 2,
          "metaData" : ""
        }
      ]
    },
    {
      "id" : 20,
      "src" : "C:\\Abqus Tutorials\\Fracture-mode2-CZM-element\\Narration_fracture-2-czm-element 16.m4a",
      "rect" : [0, 0, 0, 0],
      "lastMod" : "20180510T193035",
      "sourceTracks" : [
        {
          "range" : [0, 1407941997],
          "type" : 2,
          "editRate" : 10000000,
          "trackRect" : [0, 0, 0, 0],
          "sampleRate" : 44100,
          "bitDepth" : 16,
          "numChannels" : 2,
          "metaData" : ""
        }
      ]
    },
    {
      "id" : 21,
      "src" : "C:\\Abqus Tutorials\\Fracture-mode2-CZM-element\\Narration_fracture-2-czm-element 17.m4a",
      "rect" : [0, 0, 0, 0],
      "lastMod" : "20180510T193419",
      "sourceTracks" : [
        {
          "range" : [0, 480072555],
          "type" : 2,
          "editRate" : 10000000,
          "trackRect" : [0, 0, 0, 0],
          "sampleRate" : 44100,
          "bitDepth" : 16,
          "numChannels" : 2,
          "metaData" : ""
        }
      ]
    },
    {
      "id" : 22,
      "src" : "C:\\Abqus Tutorials\\Fracture-mode2-CZM-element\\Narration_fracture-2-czm-element 18.m4a",
      "rect" : [0, 0, 0, 0],
      "lastMod" : "20180510T193516",
      "sourceTracks" : [
        {
          "range" : [0, 188081665],
          "type" : 2,
          "editRate" : 10000000,
          "trackRect" : [0, 0, 0, 0],
          "sampleRate" : 44100,
          "bitDepth" : 16,
          "numChannels" : 2,
          "metaData" : ""
        }
      ]
    },
    {
      "id" : 23,
      "src" : "C:\\Abqus Tutorials\\Fracture-mode2-CZM-element\\Narration_fracture-2-czm-element 19.m4a",
      "rect" : [0, 0, 0, 0],
      "lastMod" : "20180510T193709",
      "sourceTracks" : [
        {
          "range" : [0, 1002521553],
          "type" : 2,
          "editRate" : 10000000,
          "trackRect" : [0, 0, 0, 0],
          "sampleRate" : 44100,
          "bitDepth" : 16,
          "numChannels" : 2,
          "metaData" : ""
        }
      ]
    },
    {
      "id" : 24,
      "src" : "C:\\Abqus Tutorials\\Fracture-mode2-CZM-element\\Narration_fracture-2-czm-element 20.m4a",
      "rect" : [0, 0, 0, 0],
      "lastMod" : "20180510T193854",
      "sourceTracks" : [
        {
          "range" : [0, 418075333],
          "type" : 2,
          "editRate" : 10000000,
          "trackRect" : [0, 0, 0, 0],
          "sampleRate" : 44100,
          "bitDepth" : 16,
          "numChannels" : 2,
          "metaData" : ""
        }
      ]
    },
    {
      "id" : 25,
      "src" : "C:\\Abqus Tutorials\\Fracture-mode2-CZM-element\\Narration_fracture-2-czm-element 21.m4a",
      "rect" : [0, 0, 0, 0],
      "lastMod" : "20180510T193928",
      "sourceTracks" : [
        {
          "range" : [0, 62926110],
          "type" : 2,
          "editRate" : 10000000,
          "trackRect" : [0, 0, 0, 0],
          "sampleRate" : 44100,
          "bitDepth" : 16,
          "numChannels" : 2,
          "metaData" : ""
        }
      ]
    },
    {
      "id" : 26,
      "src" : "C:\\Abqus Tutorials\\Fracture-mode2-CZM-element\\Narration_fracture-2-czm-element 22.m4a",
      "rect" : [0, 0, 0, 0],
      "lastMod" : "20180510T194153",
      "sourceTracks" : [
        {
          "range" : [0, 573184555],
          "type" : 2,
          "editRate" : 10000000,
          "trackRect" : [0, 0, 0, 0],
          "sampleRate" : 44100,
          "bitDepth" : 16,
          "numChannels" : 2,
          "metaData" : ""
        }
      ]
    },
    {
      "id" : 27,
      "src" : "C:\\Abqus Tutorials\\Fracture-mode2-CZM-element\\Narration_fracture-2-czm-element 23.m4a",
      "rect" : [0, 0, 0, 0],
      "lastMod" : "20180510T194242",
      "sourceTracks" : [
        {
          "range" : [0, 352362776],
          "type" : 2,
          "editRate" : 10000000,
          "trackRect" : [0, 0, 0, 0],
          "sampleRate" : 44100,
          "bitDepth" : 16,
          "numChannels" : 2,
          "metaData" : ""
        }
      ]
    },
    {
      "id" : 28,
      "src" : "C:\\Abqus Tutorials\\Fracture-mode2-CZM-element\\Narration_fracture-2-czm-element 24.m4a",
      "rect" : [0, 0, 0, 0],
      "lastMod" : "20180510T194346",
      "sourceTracks" : [
        {
          "range" : [0, 298028108],
          "type" : 2,
          "editRate" : 10000000,
          "trackRect" : [0, 0, 0, 0],
          "sampleRate" : 44100,
          "bitDepth" : 16,
          "numChannels" : 2,
          "metaData" : ""
        }
      ]
    },
    {
      "id" : 29,
      "src" : "C:\\Abqus Tutorials\\Fracture-mode2-CZM-element\\Narration_fracture-2-czm-element 25.m4a",
      "rect" : [0, 0, 0, 0],
      "lastMod" : "20180510T194459",
      "sourceTracks" : [
        {
          "range" : [0, 533014109],
          "type" : 2,
          "editRate" : 10000000,
          "trackRect" : [0, 0, 0, 0],
          "sampleRate" : 44100,
          "bitDepth" : 16,
          "numChannels" : 2,
          "metaData" : ""
        }
      ]
    },
    {
      "id" : 30,
      "src" : "C:\\Abqus Tutorials\\Fracture-mode2-CZM-element\\2018-05-10_20-50-18.mp4",
      "rect" : [0, 0, 1280, 720],
      "lastMod" : "20180510T195018",
      "sourceTracks" : [
        {
          "range" : [0, 806196596],
          "type" : 0,
          "editRate" : 10000000,
          "trackRect" : [0, 0, 1280, 720],
          "sampleRate" : "312500/20991",
          "bitDepth" : 24,
          "numChannels" : 0,
          "metaData" : ""
        },
        {
          "range" : [0, 806196596],
          "type" : 2,
          "editRate" : 10000000,
          "trackRect" : [0, 0, 0, 0],
          "sampleRate" : 44100,
          "bitDepth" : 16,
          "numChannels" : 1,
          "metaData" : ""
        }
      ]
    },
    {
      "id" : 31,
      "src" : "C:\\Abqus Tutorials\\Fracture-mode2-CZM-element\\Narration_fracture-2-czm-element 26.m4a",
      "rect" : [0, 0, 0, 0],
      "lastMod" : "20180510T195410",
      "sourceTracks" : [
        {
          "range" : [0, 948186888],
          "type" : 2,
          "editRate" : 10000000,
          "trackRect" : [0, 0, 0, 0],
          "sampleRate" : 44100,
          "bitDepth" : 16,
          "numChannels" : 2,
          "metaData" : ""
        }
      ]
    },
    {
      "id" : 32,
      "src" : "C:\\Abqus Tutorials\\Fracture-mode2-CZM-element\\Narration_fracture-2-czm-element 27.m4a",
      "rect" : [0, 0, 0, 0],
      "lastMod" : "20180510T195716",
      "sourceTracks" : [
        {
          "range" : [0, 1583020443],
          "type" : 2,
          "editRate" : 10000000,
          "trackRect" : [0, 0, 0, 0],
          "sampleRate" : 44100,
          "bitDepth" : 16,
          "numChannels" : 2,
          "metaData" : ""
        }
      ]
    },
    {
      "id" : 33,
      "src" : "C:\\Abqus Tutorials\\Fracture-mode2-CZM-element\\Narration_fracture-2-czm-element 28.m4a",
      "rect" : [0, 0, 0, 0],
      "lastMod" : "20180510T195834",
      "sourceTracks" : [
        {
          "range" : [0, 445474776],
          "type" : 2,
          "editRate" : 10000000,
          "trackRect" : [0, 0, 0, 0],
          "sampleRate" : 44100,
          "bitDepth" : 16,
          "numChannels" : 2,
          "metaData" : ""
        }
      ]
    }
  ],
  "timeline" : {
    "id" : 34,
    "sceneTrack" : {
      "scenes" : [
        {
          "duration" : 1656.1,
          "title" : "",
          "type" : "",
          "csml" : {
            "tracks" : [
              {
                "trackIndex" : 0,
                "medias" : [
                  {
                    "id" : 35,
                    "_type" : "UnifiedMedia",
                    "video" : 
                        {
                          "id" : 36,
                          "_type" : "VMFile",
                          "src" : 2,
                          "trackNumber" : 0,
                          "attributes" : {
                            "ident" : "2018-04-30_22-50-24"
                          },
                          "effects" : [

                          ],
                          "start" : 0,
                          "duration" : 492,
                          "mediaStart" : 0,
                          "mediaDuration" : 492,
                          "scalar" : 1,
                          "animationTracks" : {

                          }
                        },
                    "audio" : 
                        {
                          "id" : 37,
                          "_type" : "AMFile",
                          "src" : 2,
                          "trackNumber" : 1,
                          "attributes" : {
                            "ident" : "",
                            "sampleRate" : 44100,
                            "bitDepth" : 16,
                            "gain" : 1.0,
                            "mixToMono" : false
                          },
                            "channelNumber" : "0",
                          "effects" : [

                          ],
                          "start" : 0,
                          "duration" : 492,
                          "mediaStart" : 0,
                          "mediaDuration" : 492,
                          "scalar" : 1,
                          "animationTracks" : {

                          }
                        }
,
                    "start" : 0,
                    "duration" : 492,
                    "mediaStart" : 0,
                    "mediaDuration" : 492,
                    "scalar" : 1,
                    "metadata" : {
                      "WinSubProjectDisplayName" : "",
                      "clipSpeedAttribute" : false
                    }
                  },
                  {
                    "id" : 38,
                    "_type" : "UnifiedMedia",
                    "video" : 
                        {
                          "id" : 39,
                          "_type" : "VMFile",
                          "src" : 3,
                          "trackNumber" : 0,
                          "attributes" : {
                            "ident" : "2018-04-30_23-00-36"
                          },
                          "effects" : [

                          ],
                          "start" : 492,
                          "duration" : 962,
                          "mediaStart" : 0,
                          "mediaDuration" : 962,
                          "scalar" : 1,
                          "animationTracks" : {

                          }
                        },
                    "audio" : 
                        {
                          "id" : 40,
                          "_type" : "AMFile",
                          "src" : 3,
                          "trackNumber" : 1,
                          "attributes" : {
                            "ident" : "",
                            "sampleRate" : 44100,
                            "bitDepth" : 16,
                            "gain" : 1.0,
                            "mixToMono" : false
                          },
                            "channelNumber" : "0",
                          "effects" : [

                          ],
                          "start" : 492,
                          "duration" : 962,
                          "mediaStart" : 0,
                          "mediaDuration" : 962,
                          "scalar" : 1,
                          "animationTracks" : {

                          }
                        }
,
                    "start" : 492,
                    "duration" : 962,
                    "mediaStart" : 0,
                    "mediaDuration" : 1794,
                    "scalar" : 1,
                    "metadata" : {
                      "WinSubProjectDisplayName" : "",
                      "clipSpeedAttribute" : false
                    }
                  },
                  {
                    "id" : 41,
                    "_type" : "UnifiedMedia",
                    "video" : 
                        {
                          "id" : 42,
                          "_type" : "VMFile",
                          "src" : 1,
                          "trackNumber" : 0,
                          "attributes" : {
                            "ident" : "2018-03-12_15-17-52"
                          },
                          "effects" : [

                          ],
                          "start" : 1454,
                          "duration" : 7247,
                          "mediaStart" : 0,
                          "mediaDuration" : 7247,
                          "scalar" : 1,
                          "animationTracks" : {

                          }
                        },
                    "audio" : 
                        {
                          "id" : 43,
                          "_type" : "AMFile",
                          "src" : 1,
                          "trackNumber" : 1,
                          "attributes" : {
                            "ident" : "",
                            "sampleRate" : 44100,
                            "bitDepth" : 16,
                            "gain" : 1.0,
                            "mixToMono" : false
                          },
                            "channelNumber" : "0",
                          "effects" : [

                          ],
                          "start" : 1454,
                          "duration" : 7247,
                          "mediaStart" : 0,
                          "mediaDuration" : 7247,
                          "scalar" : 1,
                          "animationTracks" : {

                          }
                        }
,
                    "start" : 1454,
                    "duration" : 7247,
                    "mediaStart" : 0,
                    "mediaDuration" : 47493,
                    "scalar" : 1,
                    "metadata" : {
                      "WinSubProjectDisplayName" : "",
                      "clipSpeedAttribute" : false
                    }
                  },
                  {
                    "id" : 44,
                    "_type" : "Callout",
                    "def" : {
                      "kind" : "remix",
                      "shape" : "text-rectangle",
                      "style" : "basic",
                      "fill-color-blue" : 1.0,
                      "fill-color-green" : 1.0,
                      "fill-color-opacity" : 1.0,
                      "fill-color-red" : 1.0,
                      "height" : 719.999999999975,
                      "stroke-color-blue" : 0.56078431372549,
                      "stroke-color-green" : 0.686274509803922,
                      "stroke-color-opacity" : 1.0,
                      "stroke-color-red" : 0.0196078431372549,
                      "stroke-width" : 2.0,
                      "tail-x" : -410.666666666631,
                      "tail-y" : -56.0000000000496,
                      "width" : 1280.00000000002,
                      "word-wrap" : 1.0,
                      "fill-style" : "solid",
                      "horizontal-alignment" : "center",
                      "stroke-style" : "solid",
                      "text" : "Property",
                      "vertical-alignment" : "center",
                      "font" : {
                        "color-blue" : 0.266666666666667,
                        "color-green" : 0.231372549019608,
                        "color-opacity" : 1.0,
                        "color-red" : 0.184313725490196,
                        "size" : 64.0,
                        "tracking" : 0.0,
                        "name" : "Montserrat",
                        "weight" : "Regular"
                      },
                      "textAttributes" : {
                        "type" : "textAttributeList",
                        "keyframes" : [
                          {
                            "time" : 0,
                            "value" : [{"name":"fontWeight","rangeEnd":8,"rangeStart":0,"value":400,"valueType":"int"},{"name":"fgColor","rangeEnd":8,"rangeStart":0,"value":"(47,59,68,255)","valueType":"color"},{"name":"fontItalic","rangeEnd":8,"rangeStart":0,"value":0,"valueType":"int"},{"name":"strikethrough","rangeEnd":8,"rangeStart":0,"value":0,"valueType":"int"},{"name":"underline","rangeEnd":8,"rangeStart":0,"value":0,"valueType":"int"},{"name":"fontSize","rangeEnd":8,"rangeStart":0,"value":64,"valueType":"double"},{"name":"fontName","rangeEnd":8,"rangeStart":0,"value":"Montserrat","valueType":"string"}],
                            "duration" : 0
                          }
                        ]
                      }
                    },
                    "attributes" : {
                      "autoRotateText" : true
                    },
                    "parameters" : {
                      "translation0" : 4.38831193605438e-11,
                      "translation1" : -5.91171556152403e-12
                    },
                    "effects" : [
                        {
                          "effectName" : "DropShadow",
                          "category" : "categoryVisualEffects",
                          "parameters" : {
                            "angle" : 5.49778714378214,
                            "blur" : 10.0,
                            "color-alpha" : 1.0,
                            "color-blue" : 0.1216,
                            "color-green" : 0.1216,
                            "color-red" : 0.1216,
                            "enabled" : 1,
                            "offset" : 10.0,
                            "opacity" : 0.4
                          }
                        }
                    ],
                    "start" : 8701,
                    "duration" : 150,
                    "mediaStart" : 0,
                    "mediaDuration" : 150,
                    "scalar" : 1,
                    "metadata" : {
                      "WinSubProjectDisplayName" : "",
                      "clipSpeedAttribute" : false,
                      "default-HAlign" : "center",
                      "default-VAlign" : "center",
                      "default-text-attributes" : null,
                      "default-translation0" : 0.0,
                      "default-translation1" : 0.0
                    },
                    "animationTracks" : {

                    }
                  },
                  {
                    "id" : 45,
                    "_type" : "StitchedMedia",
                    "minMediaStart" : 0,
                    "attributes" : {
                      "ident" : "2018-03-12_15-17-52",
                      "gain" : 1.0,
                      "mixToMono" : false
                    },
                    "parameters" : {
                      "volume" : 1.0,
                      "cursorOpacity" : 1.0,
                      "cursorScale" : 1.0
                    },
                    "medias" : [
                        {
                          "id" : 46,
                          "_type" : "UnifiedMedia",
                          "video" : 
                              {
                                "id" : 47,
                                "_type" : "VMFile",
                                "src" : 1,
                                "trackNumber" : 0,
                                "attributes" : {
                                  "ident" : "2018-03-12_15-17-52"
                                },
                                "effects" : [

                                ],
                                "start" : 0,
                                "duration" : 16228,
                                "mediaStart" : 0,
                                "mediaDuration" : 16228,
                                "scalar" : 1,
                                "animationTracks" : {

                                }
                              },
                          "audio" : 
                              {
                                "id" : 48,
                                "_type" : "AMFile",
                                "src" : 1,
                                "trackNumber" : 1,
                                "attributes" : {
                                  "ident" : "",
                                  "sampleRate" : 44100,
                                  "bitDepth" : 16,
                                  "gain" : 1.0,
                                  "mixToMono" : false
                                },
                                  "channelNumber" : "0",
                                "effects" : [

                                ],
                                "start" : 0,
                                "duration" : 16228,
                                "mediaStart" : 0,
                                "mediaDuration" : 16228,
                                "scalar" : 1,
                                "animationTracks" : {

                                }
                              }
,
                          "start" : 0,
                          "duration" : 16228,
                          "mediaStart" : 0,
                          "mediaDuration" : 47493,
                          "scalar" : 1,
                          "metadata" : {
                            "WinSubProjectDisplayName" : "",
                            "clipSpeedAttribute" : false
                          }
                        },
                        {
                          "id" : 49,
                          "_type" : "UnifiedMedia",
                          "video" : 
                              {
                                "id" : 50,
                                "_type" : "VMFile",
                                "src" : 1,
                                "trackNumber" : 0,
                                "attributes" : {
                                  "ident" : "2018-03-12_15-17-52"
                                },
                                "effects" : [

                                ],
                                "start" : 16228,
                                "duration" : 30098,
                                "mediaStart" : 17395,
                                "mediaDuration" : 30098,
                                "scalar" : 1,
                                "animationTracks" : {

                                }
                              },
                          "audio" : 
                              {
                                "id" : 51,
                                "_type" : "AMFile",
                                "src" : 1,
                                "trackNumber" : 1,
                                "attributes" : {
                                  "ident" : "",
                                  "sampleRate" : 44100,
                                  "bitDepth" : 16,
                                  "gain" : 1.0,
                                  "mixToMono" : false
                                },
                                  "channelNumber" : "0",
                                "effects" : [

                                ],
                                "start" : 16228,
                                "duration" : 30098,
                                "mediaStart" : 17395,
                                "mediaDuration" : 30098,
                                "scalar" : 1,
                                "animationTracks" : {

                                }
                              }
,
                          "start" : 16228,
                          "duration" : 30098,
                          "mediaStart" : 0,
                          "mediaDuration" : 47493,
                          "scalar" : 1,
                          "metadata" : {
                            "WinSubProjectDisplayName" : "",
                            "clipSpeedAttribute" : false
                          }
                        }
                    ],
                    "effects" : [

                    ],
                    "start" : 8851,
                    "duration" : 11313,
                    "mediaStart" : 7247,
                    "mediaDuration" : 11313,
                    "scalar" : 1,
                    "metadata" : {
                      "WinSubProjectDisplayName" : "",
                      "clipSpeedAttribute" : false
                    },
                    "animationTracks" : {

                    }
                  },
                  {
                    "id" : 52,
                    "_type" : "Callout",
                    "def" : {
                      "kind" : "remix",
                      "shape" : "text-rectangle",
                      "style" : "basic",
                      "fill-color-blue" : 1.0,
                      "fill-color-green" : 1.0,
                      "fill-color-opacity" : 1.0,
                      "fill-color-red" : 1.0,
                      "height" : 719.999999999995,
                      "stroke-color-blue" : 0.56078431372549,
                      "stroke-color-green" : 0.686274509803922,
                      "stroke-color-opacity" : 1.0,
                      "stroke-color-red" : 0.0196078431372549,
                      "stroke-width" : 2.0,
                      "tail-x" : -175.000000000014,
                      "tail-y" : 2.66666666663605,
                      "width" : 1280.00000000006,
                      "word-wrap" : 1.0,
                      "fill-style" : "solid",
                      "horizontal-alignment" : "center",
                      "stroke-style" : "solid",
                      "text" : "Assembly",
                      "vertical-alignment" : "center",
                      "font" : {
                        "color-blue" : 0.266666666666667,
                        "color-green" : 0.231372549019608,
                        "color-opacity" : 1.0,
                        "color-red" : 0.184313725490196,
                        "size" : 64.0,
                        "tracking" : 0.0,
                        "name" : "Montserrat",
                        "weight" : "Regular"
                      },
                      "textAttributes" : {
                        "type" : "textAttributeList",
                        "keyframes" : [
                          {
                            "time" : 0,
                            "value" : [{"name":"underline","rangeEnd":8,"rangeStart":0,"value":0,"valueType":"int"},{"name":"fontName","rangeEnd":8,"rangeStart":0,"value":"Montserrat","valueType":"string"},{"name":"fontSize","rangeEnd":8,"rangeStart":0,"value":64,"valueType":"double"},{"name":"fgColor","rangeEnd":8,"rangeStart":0,"value":"(47,59,68,255)","valueType":"color"},{"name":"fontWeight","rangeEnd":8,"rangeStart":0,"value":400,"valueType":"int"},{"name":"fontItalic","rangeEnd":8,"rangeStart":0,"value":0,"valueType":"int"},{"name":"strikethrough","rangeEnd":8,"rangeStart":0,"value":0,"valueType":"int"}],
                            "duration" : 0
                          }
                        ]
                      }
                    },
                    "attributes" : {
                      "autoRotateText" : true
                    },
                    "parameters" : {
                      "translation0" : 1.04478203866165e-10,
                      "translation1" : 2.61479726759717e-12
                    },
                    "effects" : [
                        {
                          "effectName" : "DropShadow",
                          "category" : "categoryVisualEffects",
                          "parameters" : {
                            "angle" : 5.49778714378214,
                            "blur" : 10.0,
                            "color-alpha" : 1.0,
                            "color-blue" : 0.1216,
                            "color-green" : 0.1216,
                            "color-red" : 0.1216,
                            "enabled" : 1,
                            "offset" : 10.0,
                            "opacity" : 0.4
                          }
                        }
                    ],
                    "start" : 20164,
                    "duration" : 150,
                    "mediaStart" : 0,
                    "mediaDuration" : 150,
                    "scalar" : 1,
                    "metadata" : {
                      "WinSubProjectDisplayName" : "",
                      "clipSpeedAttribute" : false,
                      "default-HAlign" : "center",
                      "default-VAlign" : "center",
                      "default-text-attributes" : null,
                      "default-translation0" : 0.0,
                      "default-translation1" : 0.0
                    },
                    "animationTracks" : {

                    }
                  },
                  {
                    "id" : 53,
                    "_type" : "StitchedMedia",
                    "minMediaStart" : 0,
                    "attributes" : {
                      "ident" : "2018-03-12_15-17-52",
                      "gain" : 1.0,
                      "mixToMono" : false
                    },
                    "parameters" : {
                      "volume" : 1.0,
                      "cursorOpacity" : 1.0,
                      "cursorScale" : 1.0
                    },
                    "medias" : [
                        {
                          "id" : 54,
                          "_type" : "UnifiedMedia",
                          "video" : 
                              {
                                "id" : 55,
                                "_type" : "VMFile",
                                "src" : 1,
                                "trackNumber" : 0,
                                "attributes" : {
                                  "ident" : "2018-03-12_15-17-52"
                                },
                                "effects" : [

                                ],
                                "start" : 0,
                                "duration" : 16228,
                                "mediaStart" : 0,
                                "mediaDuration" : 16228,
                                "scalar" : 1,
                                "animationTracks" : {

                                }
                              },
                          "audio" : 
                              {
                                "id" : 56,
                                "_type" : "AMFile",
                                "src" : 1,
                                "trackNumber" : 1,
                                "attributes" : {
                                  "ident" : "",
                                  "sampleRate" : 44100,
                                  "bitDepth" : 16,
                                  "gain" : 1.0,
                                  "mixToMono" : false
                                },
                                  "channelNumber" : "0",
                                "effects" : [

                                ],
                                "start" : 0,
                                "duration" : 16228,
                                "mediaStart" : 0,
                                "mediaDuration" : 16228,
                                "scalar" : 1,
                                "animationTracks" : {

                                }
                              }
,
                          "start" : 0,
                          "duration" : 16228,
                          "mediaStart" : 0,
                          "mediaDuration" : 47493,
                          "scalar" : 1,
                          "metadata" : {
                            "WinSubProjectDisplayName" : "",
                            "clipSpeedAttribute" : false
                          }
                        },
                        {
                          "id" : 57,
                          "_type" : "UnifiedMedia",
                          "video" : 
                              {
                                "id" : 58,
                                "_type" : "VMFile",
                                "src" : 1,
                                "trackNumber" : 0,
                                "attributes" : {
                                  "ident" : "2018-03-12_15-17-52"
                                },
                                "effects" : [

                                ],
                                "start" : 16228,
                                "duration" : 2454,
                                "mediaStart" : 17395,
                                "mediaDuration" : 2454,
                                "scalar" : 1,
                                "animationTracks" : {

                                }
                              },
                          "audio" : 
                              {
                                "id" : 59,
                                "_type" : "AMFile",
                                "src" : 1,
                                "trackNumber" : 1,
                                "attributes" : {
                                  "ident" : "",
                                  "sampleRate" : 44100,
                                  "bitDepth" : 16,
                                  "gain" : 1.0,
                                  "mixToMono" : false
                                },
                                  "channelNumber" : "0",
                                "effects" : [

                                ],
                                "start" : 16228,
                                "duration" : 2454,
                                "mediaStart" : 17395,
                                "mediaDuration" : 2454,
                                "scalar" : 1,
                                "animationTracks" : {

                                }
                              }
,
                          "start" : 16228,
                          "duration" : 2454,
                          "mediaStart" : 0,
                          "mediaDuration" : 47493,
                          "scalar" : 1,
                          "metadata" : {
                            "WinSubProjectDisplayName" : "",
                            "clipSpeedAttribute" : false
                          }
                        },
                        {
                          "id" : 60,
                          "_type" : "UnifiedMedia",
                          "video" : 
                              {
                                "id" : 61,
                                "_type" : "VMFile",
                                "src" : 1,
                                "trackNumber" : 0,
                                "attributes" : {
                                  "ident" : "2018-03-12_15-17-52"
                                },
                                "effects" : [

                                ],
                                "start" : 18682,
                                "duration" : 27344,
                                "mediaStart" : 20149,
                                "mediaDuration" : 27344,
                                "scalar" : 1,
                                "animationTracks" : {

                                }
                              },
                          "audio" : 
                              {
                                "id" : 62,
                                "_type" : "AMFile",
                                "src" : 1,
                                "trackNumber" : 1,
                                "attributes" : {
                                  "ident" : "",
                                  "sampleRate" : 44100,
                                  "bitDepth" : 16,
                                  "gain" : 1.0,
                                  "mixToMono" : false
                                },
                                  "channelNumber" : "0",
                                "effects" : [

                                ],
                                "start" : 18682,
                                "duration" : 27344,
                                "mediaStart" : 20149,
                                "mediaDuration" : 27344,
                                "scalar" : 1,
                                "animationTracks" : {

                                }
                              }
,
                          "start" : 18682,
                          "duration" : 27344,
                          "mediaStart" : 0,
                          "mediaDuration" : 47493,
                          "scalar" : 1,
                          "metadata" : {
                            "WinSubProjectDisplayName" : "",
                            "clipSpeedAttribute" : false
                          }
                        }
                    ],
                    "effects" : [

                    ],
                    "start" : 20314,
                    "duration" : 15802,
                    "mediaStart" : 18560,
                    "mediaDuration" : 15802,
                    "scalar" : 1,
                    "metadata" : {
                      "WinSubProjectDisplayName" : "",
                      "clipSpeedAttribute" : false
                    },
                    "animationTracks" : {

                    }
                  },
                  {
                    "id" : 63,
                    "_type" : "Callout",
                    "def" : {
                      "kind" : "remix",
                      "shape" : "text-rectangle",
                      "style" : "basic",
                      "fill-color-blue" : 1.0,
                      "fill-color-green" : 1.0,
                      "fill-color-opacity" : 1.0,
                      "fill-color-red" : 1.0,
                      "height" : 720.000000000005,
                      "stroke-color-blue" : 0.56078431372549,
                      "stroke-color-green" : 0.686274509803922,
                      "stroke-color-opacity" : 1.0,
                      "stroke-color-red" : 0.0196078431372549,
                      "stroke-width" : 2.0,
                      "tail-x" : 22.6666666668884,
                      "tail-y" : 55.0000000000096,
                      "width" : 1280.00000000008,
                      "word-wrap" : 1.0,
                      "fill-style" : "solid",
                      "horizontal-alignment" : "center",
                      "stroke-style" : "solid",
                      "text" : "Load-Support",
                      "vertical-alignment" : "center",
                      "font" : {
                        "color-blue" : 0.266666666666667,
                        "color-green" : 0.231372549019608,
                        "color-opacity" : 1.0,
                        "color-red" : 0.184313725490196,
                        "size" : 64.0,
                        "tracking" : 0.0,
                        "name" : "Montserrat",
                        "weight" : "Regular"
                      },
                      "textAttributes" : {
                        "type" : "textAttributeList",
                        "keyframes" : [
                          {
                            "time" : 0,
                            "value" : [{"name":"strikethrough","rangeEnd":12,"rangeStart":0,"value":0,"valueType":"int"},{"name":"fontWeight","rangeEnd":12,"rangeStart":0,"value":400,"valueType":"int"},{"name":"fontName","rangeEnd":12,"rangeStart":0,"value":"Montserrat","valueType":"string"},{"name":"fontItalic","rangeEnd":12,"rangeStart":0,"value":0,"valueType":"int"},{"name":"underline","rangeEnd":12,"rangeStart":0,"value":0,"valueType":"int"},{"name":"fgColor","rangeEnd":12,"rangeStart":0,"value":"(47,59,68,255)","valueType":"color"},{"name":"fontSize","rangeEnd":12,"rangeStart":0,"value":64,"valueType":"double"}],
                            "duration" : 0
                          }
                        ]
                      }
                    },
                    "attributes" : {
                      "autoRotateText" : true
                    },
                    "parameters" : {
                      "translation0" : 1.15505827125162e-10,
                      "translation1" : 3.24007487506606e-12
                    },
                    "effects" : [
                        {
                          "effectName" : "DropShadow",
                          "category" : "categoryVisualEffects",
                          "parameters" : {
                            "angle" : 5.49778714378214,
                            "blur" : 10.0,
                            "color-alpha" : 1.0,
                            "color-blue" : 0.1216,
                            "color-green" : 0.1216,
                            "color-red" : 0.1216,
                            "enabled" : 1,
                            "offset" : 10.0,
                            "opacity" : 0.4
                          }
                        }
                    ],
                    "start" : 36116,
                    "duration" : 150,
                    "mediaStart" : 0,
                    "mediaDuration" : 150,
                    "scalar" : 1,
                    "metadata" : {
                      "WinSubProjectDisplayName" : "",
                      "clipSpeedAttribute" : false,
                      "default-HAlign" : "center",
                      "default-VAlign" : "center",
                      "default-text-attributes" : null,
                      "default-translation0" : 0.0,
                      "default-translation1" : 0.0
                    },
                    "animationTracks" : {

                    }
                  },
                  {
                    "id" : 64,
                    "_type" : "StitchedMedia",
                    "minMediaStart" : 0,
                    "attributes" : {
                      "ident" : "2018-03-12_15-17-52",
                      "gain" : 1.0,
                      "mixToMono" : false
                    },
                    "parameters" : {
                      "volume" : 1.0,
                      "cursorOpacity" : {
                        "type" : "double",
                        "defaultValue" : 1.0,
                        "interp" : "linr"
                      },
                      "cursorScale" : {
                        "type" : "double",
                        "defaultValue" : 1.0,
                        "interp" : "linr"
                      }
                    },
                    "medias" : [
                        {
                          "id" : 65,
                          "_type" : "UnifiedMedia",
                          "video" : 
                              {
                                "id" : 66,
                                "_type" : "VMFile",
                                "src" : 1,
                                "trackNumber" : 0,
                                "attributes" : {
                                  "ident" : "2018-03-12_15-17-52"
                                },
                                "effects" : [

                                ],
                                "start" : 0,
                                "duration" : 16228,
                                "mediaStart" : 0,
                                "mediaDuration" : 16228,
                                "scalar" : 1,
                                "animationTracks" : {

                                }
                              },
                          "audio" : 
                              {
                                "id" : 67,
                                "_type" : "AMFile",
                                "src" : 1,
                                "trackNumber" : 1,
                                "attributes" : {
                                  "ident" : "",
                                  "sampleRate" : 44100,
                                  "bitDepth" : 16,
                                  "gain" : 1.0,
                                  "mixToMono" : false
                                },
                                  "channelNumber" : "0",
                                "effects" : [

                                ],
                                "start" : 0,
                                "duration" : 16228,
                                "mediaStart" : 0,
                                "mediaDuration" : 16228,
                                "scalar" : 1,
                                "animationTracks" : {

                                }
                              }
,
                          "start" : 0,
                          "duration" : 16228,
                          "mediaStart" : 0,
                          "mediaDuration" : 47493,
                          "scalar" : 1,
                          "metadata" : {
                            "WinSubProjectDisplayName" : "",
                            "clipSpeedAttribute" : false
                          }
                        },
                        {
                          "id" : 68,
                          "_type" : "UnifiedMedia",
                          "video" : 
                              {
                                "id" : 69,
                                "_type" : "VMFile",
                                "src" : 1,
                                "trackNumber" : 0,
                                "attributes" : {
                                  "ident" : "2018-03-12_15-17-52"
                                },
                                "effects" : [

                                ],
                                "start" : 16228,
                                "duration" : 2454,
                                "mediaStart" : 17395,
                                "mediaDuration" : 2454,
                                "scalar" : 1,
                                "animationTracks" : {

                                }
                              },
                          "audio" : 
                              {
                                "id" : 70,
                                "_type" : "AMFile",
                                "src" : 1,
                                "trackNumber" : 1,
                                "attributes" : {
                                  "ident" : "",
                                  "sampleRate" : 44100,
                                  "bitDepth" : 16,
                                  "gain" : 1.0,
                                  "mixToMono" : false
                                },
                                  "channelNumber" : "0",
                                "effects" : [

                                ],
                                "start" : 16228,
                                "duration" : 2454,
                                "mediaStart" : 17395,
                                "mediaDuration" : 2454,
                                "scalar" : 1,
                                "animationTracks" : {

                                }
                              }
,
                          "start" : 16228,
                          "duration" : 2454,
                          "mediaStart" : 0,
                          "mediaDuration" : 47493,
                          "scalar" : 1,
                          "metadata" : {
                            "WinSubProjectDisplayName" : "",
                            "clipSpeedAttribute" : false
                          }
                        },
                        {
                          "id" : 71,
                          "_type" : "UnifiedMedia",
                          "video" : 
                              {
                                "id" : 72,
                                "_type" : "VMFile",
                                "src" : 1,
                                "trackNumber" : 0,
                                "attributes" : {
                                  "ident" : "2018-03-12_15-17-52"
                                },
                                "effects" : [

                                ],
                                "start" : 18682,
                                "duration" : 27344,
                                "mediaStart" : 20149,
                                "mediaDuration" : 27344,
                                "scalar" : 1,
                                "animationTracks" : {

                                }
                              },
                          "audio" : 
                              {
                                "id" : 73,
                                "_type" : "AMFile",
                                "src" : 1,
                                "trackNumber" : 1,
                                "attributes" : {
                                  "ident" : "",
                                  "sampleRate" : 44100,
                                  "bitDepth" : 16,
                                  "gain" : 1.0,
                                  "mixToMono" : false
                                },
                                  "channelNumber" : "0",
                                "effects" : [

                                ],
                                "start" : 18682,
                                "duration" : 27344,
                                "mediaStart" : 20149,
                                "mediaDuration" : 27344,
                                "scalar" : 1,
                                "animationTracks" : {

                                }
                              }
,
                          "start" : 18682,
                          "duration" : 27344,
                          "mediaStart" : 0,
                          "mediaDuration" : 47493,
                          "scalar" : 1,
                          "metadata" : {
                            "WinSubProjectDisplayName" : "",
                            "clipSpeedAttribute" : false
                          }
                        }
                    ],
                    "effects" : [

                    ],
                    "start" : 36266,
                    "duration" : 2625,
                    "mediaStart" : 34362,
                    "mediaDuration" : 2625,
                    "scalar" : 1,
                    "metadata" : {
                      "WinSubProjectDisplayName" : "",
                      "clipSpeedAttribute" : false
                    },
                    "animationTracks" : {

                    }
                  },
                  {
                    "id" : 74,
                    "_type" : "Callout",
                    "def" : {
                      "kind" : "remix",
                      "shape" : "text-rectangle",
                      "style" : "basic",
                      "fill-color-blue" : 1.0,
                      "fill-color-green" : 1.0,
                      "fill-color-opacity" : 1.0,
                      "fill-color-red" : 1.0,
                      "height" : 720.000000000033,
                      "stroke-color-blue" : 0.56078431372549,
                      "stroke-color-green" : 0.686274509803922,
                      "stroke-color-opacity" : 1.0,
                      "stroke-color-red" : 0.0196078431372549,
                      "stroke-width" : 2.0,
                      "tail-x" : -71.9999999998661,
                      "tail-y" : 41.3333333333387,
                      "width" : 1280.0000000001,
                      "word-wrap" : 1.0,
                      "fill-style" : "solid",
                      "horizontal-alignment" : "center",
                      "stroke-style" : "solid",
                      "text" : "Mesh",
                      "vertical-alignment" : "center",
                      "font" : {
                        "color-blue" : 0.266666666666667,
                        "color-green" : 0.231372549019608,
                        "color-opacity" : 1.0,
                        "color-red" : 0.184313725490196,
                        "size" : 64.0,
                        "tracking" : 0.0,
                        "name" : "Montserrat",
                        "weight" : "Regular"
                      },
                      "textAttributes" : {
                        "type" : "textAttributeList",
                        "keyframes" : [
                          {
                            "time" : 0,
                            "value" : [{"name":"underline","rangeEnd":4,"rangeStart":0,"value":0,"valueType":"int"},{"name":"fontItalic","rangeEnd":4,"rangeStart":0,"value":0,"valueType":"int"},{"name":"fontSize","rangeEnd":4,"rangeStart":0,"value":64,"valueType":"double"},{"name":"strikethrough","rangeEnd":4,"rangeStart":0,"value":0,"valueType":"int"},{"name":"fgColor","rangeEnd":4,"rangeStart":0,"value":"(47,59,68,255)","valueType":"color"},{"name":"fontName","rangeEnd":4,"rangeStart":0,"value":"Montserrat","valueType":"string"},{"name":"fontWeight","rangeEnd":4,"rangeStart":0,"value":400,"valueType":"int"}],
                            "duration" : 0
                          }
                        ]
                      }
                    },
                    "attributes" : {
                      "autoRotateText" : true
                    },
                    "parameters" : {
                      "translation0" : 3.5242919693701e-11,
                      "translation1" : -6.76436684443615e-12
                    },
                    "effects" : [
                        {
                          "effectName" : "DropShadow",
                          "category" : "categoryVisualEffects",
                          "parameters" : {
                            "angle" : 5.49778714378214,
                            "blur" : 10.0,
                            "color-alpha" : 1.0,
                            "color-blue" : 0.1216,
                            "color-green" : 0.1216,
                            "color-red" : 0.1216,
                            "enabled" : 1,
                            "offset" : 10.0,
                            "opacity" : 0.4
                          }
                        }
                    ],
                    "start" : 38891,
                    "duration" : 150,
                    "mediaStart" : 0,
                    "mediaDuration" : 150,
                    "scalar" : 1,
                    "metadata" : {
                      "WinSubProjectDisplayName" : "",
                      "clipSpeedAttribute" : false,
                      "default-HAlign" : "center",
                      "default-VAlign" : "center",
                      "default-text-attributes" : null,
                      "default-translation0" : 0.0,
                      "default-translation1" : 0.0
                    },
                    "animationTracks" : {

                    }
                  },
                  {
                    "id" : 75,
                    "_type" : "StitchedMedia",
                    "minMediaStart" : 0,
                    "attributes" : {
                      "ident" : "2018-03-12_15-17-52",
                      "gain" : 1.0,
                      "mixToMono" : false
                    },
                    "parameters" : {
                      "volume" : 1.0,
                      "cursorOpacity" : 1.0,
                      "cursorScale" : 1.0
                    },
                    "medias" : [
                        {
                          "id" : 76,
                          "_type" : "UnifiedMedia",
                          "video" : 
                              {
                                "id" : 77,
                                "_type" : "VMFile",
                                "src" : 1,
                                "trackNumber" : 0,
                                "attributes" : {
                                  "ident" : "2018-03-12_15-17-52"
                                },
                                "effects" : [

                                ],
                                "start" : 0,
                                "duration" : 16228,
                                "mediaStart" : 0,
                                "mediaDuration" : 16228,
                                "scalar" : 1,
                                "animationTracks" : {

                                }
                              },
                          "audio" : 
                              {
                                "id" : 78,
                                "_type" : "AMFile",
                                "src" : 1,
                                "trackNumber" : 1,
                                "attributes" : {
                                  "ident" : "",
                                  "sampleRate" : 44100,
                                  "bitDepth" : 16,
                                  "gain" : 1.0,
                                  "mixToMono" : false
                                },
                                  "channelNumber" : "0",
                                "effects" : [

                                ],
                                "start" : 0,
                                "duration" : 16228,
                                "mediaStart" : 0,
                                "mediaDuration" : 16228,
                                "scalar" : 1,
                                "animationTracks" : {

                                }
                              }
,
                          "start" : 0,
                          "duration" : 16228,
                          "mediaStart" : 0,
                          "mediaDuration" : 47493,
                          "scalar" : 1,
                          "metadata" : {
                            "WinSubProjectDisplayName" : "",
                            "clipSpeedAttribute" : false
                          }
                        },
                        {
                          "id" : 79,
                          "_type" : "UnifiedMedia",
                          "video" : 
                              {
                                "id" : 80,
                                "_type" : "VMFile",
                                "src" : 1,
                                "trackNumber" : 0,
                                "attributes" : {
                                  "ident" : "2018-03-12_15-17-52"
                                },
                                "effects" : [

                                ],
                                "start" : 16228,
                                "duration" : 2454,
                                "mediaStart" : 17395,
                                "mediaDuration" : 2454,
                                "scalar" : 1,
                                "animationTracks" : {

                                }
                              },
                          "audio" : 
                              {
                                "id" : 81,
                                "_type" : "AMFile",
                                "src" : 1,
                                "trackNumber" : 1,
                                "attributes" : {
                                  "ident" : "",
                                  "sampleRate" : 44100,
                                  "bitDepth" : 16,
                                  "gain" : 1.0,
                                  "mixToMono" : false
                                },
                                  "channelNumber" : "0",
                                "effects" : [

                                ],
                                "start" : 16228,
                                "duration" : 2454,
                                "mediaStart" : 17395,
                                "mediaDuration" : 2454,
                                "scalar" : 1,
                                "animationTracks" : {

                                }
                              }
,
                          "start" : 16228,
                          "duration" : 2454,
                          "mediaStart" : 0,
                          "mediaDuration" : 47493,
                          "scalar" : 1,
                          "metadata" : {
                            "WinSubProjectDisplayName" : "",
                            "clipSpeedAttribute" : false
                          }
                        },
                        {
                          "id" : 82,
                          "_type" : "UnifiedMedia",
                          "video" : 
                              {
                                "id" : 83,
                                "_type" : "VMFile",
                                "src" : 1,
                                "trackNumber" : 0,
                                "attributes" : {
                                  "ident" : "2018-03-12_15-17-52"
                                },
                                "effects" : [

                                ],
                                "start" : 18682,
                                "duration" : 27344,
                                "mediaStart" : 20149,
                                "mediaDuration" : 27344,
                                "scalar" : 1,
                                "animationTracks" : {

                                }
                              },
                          "audio" : 
                              {
                                "id" : 84,
                                "_type" : "AMFile",
                                "src" : 1,
                                "trackNumber" : 1,
                                "attributes" : {
                                  "ident" : "",
                                  "sampleRate" : 44100,
                                  "bitDepth" : 16,
                                  "gain" : 1.0,
                                  "mixToMono" : false
                                },
                                  "channelNumber" : "0",
                                "effects" : [

                                ],
                                "start" : 18682,
                                "duration" : 27344,
                                "mediaStart" : 20149,
                                "mediaDuration" : 27344,
                                "scalar" : 1,
                                "animationTracks" : {

                                }
                              }
,
                          "start" : 18682,
                          "duration" : 27344,
                          "mediaStart" : 0,
                          "mediaDuration" : 47493,
                          "scalar" : 1,
                          "metadata" : {
                            "WinSubProjectDisplayName" : "",
                            "clipSpeedAttribute" : false
                          }
                        }
                    ],
                    "effects" : [

                    ],
                    "start" : 39041,
                    "duration" : 1981,
                    "mediaStart" : 36987,
                    "mediaDuration" : 1981,
                    "scalar" : 1,
                    "metadata" : {
                      "WinSubProjectDisplayName" : "",
                      "clipSpeedAttribute" : false
                    },
                    "animationTracks" : {

                    }
                  },
                  {
                    "id" : 85,
                    "_type" : "UnifiedMedia",
                    "video" : 
                        {
                          "id" : 86,
                          "_type" : "VMFile",
                          "src" : 30,
                          "trackNumber" : 0,
                          "attributes" : {
                            "ident" : "2018-05-10_20-50-18"
                          },
                          "effects" : [

                          ],
                          "start" : 41022,
                          "duration" : 2418,
                          "mediaStart" : 0,
                          "mediaDuration" : 2418,
                          "scalar" : 1,
                          "animationTracks" : {

                          }
                        },
                    "audio" : 
                        {
                          "id" : 87,
                          "_type" : "AMFile",
                          "src" : 30,
                          "trackNumber" : 1,
                          "attributes" : {
                            "ident" : "",
                            "sampleRate" : 44100,
                            "bitDepth" : 16,
                            "gain" : 1.0,
                            "mixToMono" : false
                          },
                            "channelNumber" : "0",
                          "effects" : [

                          ],
                          "start" : 41022,
                          "duration" : 2418,
                          "mediaStart" : 0,
                          "mediaDuration" : 2418,
                          "scalar" : 1,
                          "animationTracks" : {

                          }
                        }
,
                    "start" : 41022,
                    "duration" : 2418,
                    "mediaStart" : 0,
                    "mediaDuration" : 2418,
                    "scalar" : 1,
                    "metadata" : {
                      "WinSubProjectDisplayName" : "",
                      "clipSpeedAttribute" : false
                    }
                  },
                  {
                    "id" : 88,
                    "_type" : "UnifiedMedia",
                    "video" : 
                        {
                          "id" : 89,
                          "_type" : "VMFile",
                          "src" : 1,
                          "trackNumber" : 0,
                          "attributes" : {
                            "ident" : "2018-03-12_15-17-52"
                          },
                          "effects" : [

                          ],
                          "start" : 43440,
                          "duration" : 5743,
                          "mediaStart" : 40480,
                          "mediaDuration" : 5743,
                          "scalar" : 1,
                          "animationTracks" : {

                          }
                        },
                    "audio" : 
                        {
                          "id" : 90,
                          "_type" : "AMFile",
                          "src" : 1,
                          "trackNumber" : 1,
                          "attributes" : {
                            "ident" : "",
                            "sampleRate" : 44100,
                            "bitDepth" : 16,
                            "gain" : 1.0,
                            "mixToMono" : false
                          },
                            "channelNumber" : "0",
                          "effects" : [

                          ],
                          "start" : 43440,
                          "duration" : 5743,
                          "mediaStart" : 40480,
                          "mediaDuration" : 5743,
                          "scalar" : 1,
                          "animationTracks" : {

                          }
                        }
,
                    "start" : 43440,
                    "duration" : 5743,
                    "mediaStart" : 0,
                    "mediaDuration" : 47493,
                    "scalar" : 1,
                    "metadata" : {
                      "WinSubProjectDisplayName" : "",
                      "clipSpeedAttribute" : false
                    }
                  },
                  {
                    "id" : 91,
                    "_type" : "Callout",
                    "def" : {
                      "kind" : "remix",
                      "shape" : "text-rectangle",
                      "style" : "basic",
                      "fill-color-blue" : 1.0,
                      "fill-color-green" : 1.0,
                      "fill-color-opacity" : 1.0,
                      "fill-color-red" : 1.0,
                      "height" : 720.000000000043,
                      "stroke-color-blue" : 0.56078431372549,
                      "stroke-color-green" : 0.686274509803922,
                      "stroke-color-opacity" : 1.0,
                      "stroke-color-red" : 0.0196078431372549,
                      "stroke-width" : 2.0,
                      "tail-x" : 21.333333333414,
                      "tail-y" : -5.33333333336097,
                      "width" : 1279.99999999994,
                      "word-wrap" : 1.0,
                      "fill-style" : "solid",
                      "horizontal-alignment" : "center",
                      "stroke-style" : "solid",
                      "text" : "Thank You",
                      "vertical-alignment" : "center",
                      "font" : {
                        "color-blue" : 0.266666666666667,
                        "color-green" : 0.231372549019608,
                        "color-opacity" : 1.0,
                        "color-red" : 0.184313725490196,
                        "size" : 64.0,
                        "tracking" : 0.0,
                        "name" : "Montserrat",
                        "weight" : "Regular"
                      },
                      "textAttributes" : {
                        "type" : "textAttributeList",
                        "keyframes" : [
                          {
                            "time" : 0,
                            "value" : [{"name":"fgColor","rangeEnd":9,"rangeStart":0,"value":"(47,59,68,255)","valueType":"color"},{"name":"fontSize","rangeEnd":9,"rangeStart":0,"value":64,"valueType":"double"},{"name":"fontItalic","rangeEnd":9,"rangeStart":0,"value":0,"valueType":"int"},{"name":"fontName","rangeEnd":9,"rangeStart":0,"value":"Montserrat","valueType":"string"},{"name":"strikethrough","rangeEnd":9,"rangeStart":0,"value":0,"valueType":"int"},{"name":"fontWeight","rangeEnd":9,"rangeStart":0,"value":400,"valueType":"int"},{"name":"underline","rangeEnd":9,"rangeStart":0,"value":0,"valueType":"int"}],
                            "duration" : 0
                          }
                        ]
                      }
                    },
                    "attributes" : {
                      "autoRotateText" : true
                    },
                    "parameters" : {
                      "translation0" : 1.2380496627884e-10,
                      "translation1" : -1.5688783605583e-11
                    },
                    "effects" : [
                        {
                          "effectName" : "DropShadow",
                          "category" : "categoryVisualEffects",
                          "parameters" : {
                            "angle" : 5.49778714378214,
                            "blur" : 10.0,
                            "color-alpha" : 1.0,
                            "color-blue" : 0.1216,
                            "color-green" : 0.1216,
                            "color-red" : 0.1216,
                            "enabled" : 1,
                            "offset" : 10.0,
                            "opacity" : 0.4
                          }
                        }
                    ],
                    "start" : 49183,
                    "duration" : 500,
                    "mediaStart" : 0,
                    "mediaDuration" : 500,
                    "scalar" : 1,
                    "metadata" : {
                      "WinSubProjectDisplayName" : "",
                      "clipSpeedAttribute" : false,
                      "default-HAlign" : "center",
                      "default-VAlign" : "center",
                      "default-text-attributes" : null,
                      "default-translation0" : 0.0,
                      "default-translation1" : 0.0
                    },
                    "animationTracks" : {

                    }
                  }
                ]
              },
              {
                "trackIndex" : 1,
                "medias" : [
                  {
                    "id" : 92,
                    "_type" : "AMFile",
                    "src" : 4,
                    "trackNumber" : 0,
                    "attributes" : {
                      "ident" : "Narration 1",
                      "sampleRate" : 44100,
                      "bitDepth" : 16,
                      "gain" : 1.0,
                      "mixToMono" : false
                    },
                      "channelNumber" : "0,1",
                    "effects" : [
                        {
                          "effectName" : "NoiseReduction",
                          "category" : "categoryAudioEffects",
                          "parameters" : {
                            "denoiserAmount" : 20.0,
                            "denoiserThreshold" : 0.0,
                            "noiseProfile" : "hzAhQHGeCT4Pxwk+Gkn4PAJIOD1J55Q88VCuPPYNijvjQqk7l8GHO/j/szodxhY77E6hOyS2Fzv0\r\neMY60joWOxzxgDpKrBs6X9hGOn3v3zoY6lM6JDI/OloQjzqKMkc6ekGyOfb4xDn/jao5cOoVOVlN\r\nCDrBw7w5vEx6OWZdODrPFgI6ElqfOfyZ/znrM5Q5lg2nORTOejlf0HI5poGYOYJIpjnRSW851oaK\r\nOQmgKzkwf1o5sZgYOlechjlQZJY5SMm1OH7Gmznuh9M4xGcUOSkFwzmOrDs5IO5GOYQSTjlkSCg6\r\nDLkEOnkSsjnYdv058Yk4OVQD5Dm408I4PlxAOZy6kzoQSsk66ZG0OsyHGjsNn9w5ixIgOxs24jq9\r\neZE6S6W9OurogzqS5G06Ded8On/3wjmNDo06oucEOjAuGjoYEVI6hH4QOglUlTrn+5k5z9I/OoBY\r\nQzpU0bk5FpeROi566Dl+gHE6UoEEO4mPVToc4KQ6Mu14OrhXmzqnQ2E6BmFMOiRcMDpX9Y85/sfk\r\nOfEcTjqEr7o5gh8BOlpURTouJHs5+VDSOexqaDnvVQE6/VE2Oevnsjn776w5cy6XOSbPfTptUiw6\r\nhCSlOQ72aTnc0xI6VRvBOvajAju8EG46RaWSOfW4gzlWPC46I+46OkQsBzmRUuM567ObOl4jljqK\r\nA586CFmWOnusIzmTmkE5lfwBOt3Sdzqn/pM55UWLOYqL6zoW9kc7e3aAO2HOFzvycR86Vf5cOf0N\r\nAzoGP7c6hU3nOTi0DznKew07q7FiO+RcFDuRetY648viOVX4Gzo/Xo45a+1MOtpIgzlTTJE54dQZ\r\nOk1lgToODe450m9NOvCBHzr9J8I6iz/WOqgz9jq2rkQ6Vhu2OcX+DTr1FzY6nGelOOULhzluTKk5\r\ns3x0OpT6Pjr5OKw6iOoIOgpR/zhNwnw5By8VOQBIQTkBUik5R7fbOPbKSDqKGNk5mYR0OQLDmDms\r\nxjI5sNgsORF7/jjn4Pw4gMskOYLJnziYraM5HhMDOnZ/SzpN7gU630EiOZ0BRTlapwo5IN89Oqbn\r\n/DhuYOQ4Jpc3ORhHIjnapxA5n579OH3CeTnzRwk61YX0OI8w3zkSbq05fU0EOd3lVDm3ivM4VBFd\r\nOS2K+Tlove85iCGFOSz1SzmsVjg5tDOVOY8/vTlThMY5S1xTOYJ+dTmse6052BD5OESRNTl0h3o5\r\nmpdDORv6jTlTQVQ53pXmOZXXgTlk73c5d5DcOD8UezmlywU5Ybv1OKK8AjmCp105iI6NOUsrGjmE\r\nEkE5bz0wOWf/Zzn8OV85xYk5OTTLcjnoP3k5Y304OWT3oDmMTIA5VpCzOVoDFjkj4hM5zow+OZCw\r\nlDmIhn84NFn/OHU2yDgYB/84vtIZOcZ33jgVZBk5ydMKOaLOvjjBfiA5PlQbOalZwDgZbow4b4Qh\r\nOYys5zgU5c449R9jOO58jzhbDq04N9wYORVk0jjE1pc4AsaIOP1V6DjXoqo4TrnIN+RlDzjoZaY4\r\nGW+oOETgrDibeyE4TMrTOE2I4DhYa2s4QmruOA+dkzgtKgg4LrtOOAOIaDhAtVQ4cvzrOPcL9jiW\r\nGzE59G1ROQHf4TiqOFU4KwAfODILyjfrheA3x+ZnOMptvDhQmOk4mMZOOJZ3GzlD7DA5SRnDOOrh\r\n4zjIduo3IOw1OFJXGjhwEx04fDG2OFD4bTkSp4w4sT+tOLQ6WjkEJFs5FkxdOVz5cjmSlw052OC1\r\nOGcwBTi5lbY415+EOLoGizieVi45dJSIOd/JWTlEWR45Lr5fOMTo+DespAQ4eLObOATgYTjmzT44\r\nUp47OeNgWjkNWvU4xqvJOEl+ITnVudU4AR2SOKbGqjj2dz05XPWSOQNhaDkSu6A577bGOYNq2jiN\r\nUi85i2qmOYRduTmZDaQ5YlLvOYYSODkln9k5vY5aOV3+rjis+Fo4RuLBOfUAIDqSamI6ijk4Oo8Q\r\n/TkGGLM5Nvx7OPcuwDhKXVA51pmUOb0l3jk1BxM6YG3aOaAlIDq8NHk52Rf4ODFJMDjZ+yM5XqqX\r\nOYS28DmHrew52pkSOlZm/Tnj7qc5UAc/OaTvFTmge585UgwzOmTBkTpmNUc6keNUOgGV1DmrH305\r\n6xk6OfCgtDhKzY45Tr8tOoLn+jlO50M6zPksOuC71zm/0ks5RsUIObM6Czl3YxE58UD6OMyWhzla\r\nhF85gIK0OYqerDkpIuQ5mY5VOef0gDkSgQY6ho2MOWYrxzk/GC45Fj2wOYpKyTkTHMs5frGiOZV8\r\niTmYWQk6h1DHOWH4sTl8BAU6EDKcOU6EkjnLSu45nizvOafRnTnPx9E5bAfhOeWfKzqTNlE6jFX8\r\nOWcX0Dn78205egacOeTyfDlPhlg5TnCLOanIgDlIUkg5A6NvOTaDmjkpUoo5//1MOY46QDnRGWo5\r\nXBxeORuAzDik4t04rl8gOQDTHzker7c5wt6DOe6egzmkcmU5wqYUOQDYQzmJhaE5bipjOS1OODmh\r\nsh8528htOS/K3zlm0Ok56KidOemP1Tk8TUc5eup6OUyNsDlz+Kk5eLXDOVheAzqoLvM5y3FPOn/G\r\nkjqB4Dw6/PYROu2kMDrqsiE6SnvgOWY8EDqz/R46qodXOmELLDrenjY6ED0cOvpwGTr0cgg610on\r\nOqD6dDqmp3Q6nRNrOl5uNDqJKzQ65FvzOcwCuzm4ERo6FqASOjtrGDpZEwk6DjH/OVNAEDqgp+U5\r\naDk1Ov0tNTr5iOw5qCmCOVCMzzmMA+I5lq6dOd1iqDl31405IeepOeTTjDlw3DQ5OsxEOU3yMTm+\r\nPXs5DZc4OYUyHjnW31o5MWDMOADNpThuKvc4I6IEOTdEujgSILU3qmoROHfGOTgXJSs4lI8GORZT\r\nwDch6gw5BmXLOCRePTi8AoQ4EGLBN7M1ZzhEy8g3wWulOHIqOzg0evU3kcWIOMAvmzmAhZY5bkkF\r\nOeLxlDguAB44rnEzOJKJuDdQi4I4FkEfORlmtTg/XH84/zKxOOJ7LzknMKE4XL/zOH1xDzm7swQ4\r\nyMZcODOBgzhmi144Alm2NyZkHzhmr+k4D9L1OKK+ljgW/xI474VjOCw+ezgAMvY3Sp6gN+a8zjWm\r\nUsc3efq5N8xGxTb6h5k3Cw/RNwdTzDf1XcA3TO7oNp+awDbyvmk3n4asNhICGDZZPI023MoLN7hD\r\njjZlPkQ1OimCNuQ8YzcHpvU2f8dFNgzBmDXu6oY2Tc+JNgf7BjbGLTc179OBNmYGszb8mks2sgEs\r\nNSa6NTbPAro2Jh/1NQc0KTWG3dA07QlHNc5DxjX6bLg1atrtNJTWJTYAs6k1wE6hNDScHTUw0G01\r\n9WajNSU6azUZQPg0y+EENcRlyTQ0Ijg1I23SNMcYBjXBCpU1uG68NWtV3DR4GzQ1a9dwNXjdjjVJ\r\nxQg3ILrGNp058zbd5Tc2/pYFNq2HGTUxH3I10YmYNfl7SzYmCpo23iwkNxSYtzaZwrU1HOsgNnab\r\najbO2l82pZngNlcL8jbSF1Q2WfQnNmdaNTf6tGg3TAcnN32NpzcEhSU4opQlOHyCnTdKWDw3ITq0\r\nNgCApjYKgT03BViCNgkkfTYFMZs26M1rNoGmlTbd2zM3oDNLNya+EDcwYiE3hP9AN8bLqDU6XmE2\r\nG0DlNp3ZETf9flw3xzaMNmhuhDY3o/I2Vy+KNvUQOjdMh503yxn4Njt+jzYGwJQ1yEuVN0hppjeC\r\np2g13zglNcgNADZSUcI1vxNlNkU0pDanrow1KGnRNE5wgDQK4640r6KUNNaUQTVpix01Q3W4NAF4\r\nHzWMsrc0tdUdNYc1wzSgxRQ1yO5FNeRyZzV+xd80N+ydNON6JjXC0Ow0FOQpNS6LADWW+g41TOP1\r\nNBB86jQmqNA0l/K0NEySfjU62Kg0TpRZNRSjnzRPLAc1rYkENYalITUFCws1M8bvNJlw6zRvuRo1\r\nlJzMNGJpyTQDfjI0X3vDNKjc3DTgLww1UI77NH/xkDRE2mY1jjPcNL1arDR8l/o0ueA/NYDhETUm\r\njPY0VXHBNHwJsDRK+rU07BsQNbmOLzWVu0E1iNgaNcAXIDXcigE1DfjVNLj7kjTUSLs0fd+GNBLH\r\ntDRdUag0ZvcdNcri3DQCyrM0+CYaNQd5+zRYUxY12pP1NCMUzTSXoqs0zvNENVLJ+zTE49s0pfpd\r\nNcHEMDWUATY0rLeANSf0PDWWQAg1yzoXNeVtsDTwDR017tG7NXv/6DS5cjQ1NYPgNHXo4zTiKwE1\r\nVkDPNOH5/jTD3jg1U03GNMRTYDV6zOg0GsNVNRRshjR4RGQ1tRECNQYulDTzEuY065P2NKsW3jSS\r\nnyM1IXIsNd3cBjVdxcY0lSnONHXHzjRkuZE1pyYCNXdUTjTcltI0aeksNYrxDjVvx4c13TzXNMrE\r\nczR04uk0ev5yNRrVCTXM1Y80SJTJNGx0CTXzLhA1jO2/NOKpYjSxTE413nIANZALAzVaBB015DyA\r\nNNR9lTQP/9s0fVwzNfmFIDVGGZ80qNAZNVXvADUlEAM1ZI+lNJS30zRwLtE08tLVNNgt8zQnOAc1\r\nKbH1NM2pcDSd5B81jqhHNVz+ejSqjwI1RZmGNJrxxDTgPGY1wParNM1b5zQVI6M0+nahNCcqWzUN\r\nk5A0z8WSNIAGoTTGqXQ0FEDDNOSfUDXIdeo0hn/eNBXC1jTbpeo0t00INd4zvjRQOq80i5IxNVSW\r\n6DS6wY81NBtGNbcEwTSajcw0uCPWNP5bXjRhRK80fRU7Ncwm9DS/XMU0tbn1NG4ijDWQnKg05koA\r\nNXk8sjSWxcs0jgi8NPw8xDS6e6E0GsDMNETh2DSeCtA0h+2NNeoqOjVdfLA0lChjNObt2zRzcLs0\r\nGa9sNaouAzXmEeo0kQIVNbLi0DSufZg0lrGKNLI0cDU7fNI0wb4gNVMTrzSP+tw0c2zCNJMuRTUW\r\nvBs10A4GNfulfDWBrgA1H0UYNfzakDTzBqU0riXdNGOHZzS7ZcI0yh5RNZb9pTR69to0GrUINeDS\r\nPTVHiqs0VKilNCY3STVDtVk1GqPYNO8ZszQzNhU18FnkNFqvpTT0I4A0qfjyNBsaPTUFAZo0IbFC\r\nNIiqGjU24u40QaqpNO0gGDXi8rE0UYvMNNL5pDQmPhM1odfoNMuQ0jTCW4s0sNoKNbzrGDWlcfs0\r\nkTCbNODyHTXY/AI1IJz+NGjnnjSJPuk0SBQMNd/s1TRwbBE1wN37ND5WRTXd6Rk1En+8NH7n7TS5\r\nF8Y0kzH3NFJ+/DSzqA01Wm0FNdFtLjV100M13srUNCSZ8DTqcd80Qkq2NON0sDQYo8s0iF7cNKLd\r\nmjTd7A81PtXbNGM0MzWG3Tg1zFfhNI628jQlXyU1FXDENLqVdDTiOqs0n8sONX/RMzW9R+g0Zdet\r\nNF6HlDRE+9Y0E4OdNLi4AzWj21c1/KujNCj4ijVhTfQ0JqYXNTSprDQK2Uo19qHNNAAAEDUCd4JA\r\n1BffPVS5kzx3BCg83aj9OwrdcjtygCM7CmAfO9qOlTr0vnk6BxtDOrCEqjoXAms66tHXOTJSpzrM\r\nNBI6FHVVOvGymTkn0ts5TYiROa0NBTqpk5s5unICOkYcUDkDfLs5llRXOYxglDl8aDc5Uiv3ObD4\r\nYjmGTmE5ToMtOWu9GTqu00g5mvYMOVi7bTlcU2o5XIx8OYQdUjm9J/E5QAVtOVh1pDhnDSo52WPX\r\nOPWUdzkDYI44Ff+GOYNBTTmYlhU5LdckOfStyTkvVMU4GfbdOE+vGjnwHOw509EEOT9KpTlo9y85\r\nUf6OOZU/8jiRJhA5/TkHOQs4FDmEtMs4JXAkOX6RrDg8L/84gZr8OF6+ETmiMZY4PGf5OKrp7Tjt\r\nJyM5yFJ3OJs1vDh4+BM5tZXdOO4WXzjmGYE4PR8EOY2+zjiYP8U47jv6OF19rjjBfuQ5mICBOem6\r\najn4dTI5qsErOfMvLzm7dYY5wakCOkSaDzqfJpk5or3POBLLyjglDvc4f9zAOH3IBTmm0wg5W3Sy\r\nOELNoDhZB7k4OIdiOE8djDgYK/04ROSBOIIugzjQ7185kY1NOISaHjgA1fk4/SmVOTZaiziek6M4\r\nFvB7OMoqmTgKTtI4OMltOQMEcjiDhck4MVEEOdKzuzgEyuQ3qzqcOM8NijjbRto4dXo7OIOb5zjQ\r\ncWU48MWuOLklWDgoXu44REaLOGDLnzitb1o4SpBAOBzJkziArMI4M6HaOG8lnjjAo6Q4DBP9N0tK\r\nojigGI44kHxpODItCjgqbR05Wcw7ON2CGjmwd7Q4vAYYOewKmDg0Eug4MIBWOHoGqDhCJys481Cz\r\nOKirqDg3uvQ3rhfZN/XSfzhmM5I4A8BjOJrnljgJkRs4F9l0ODDknjiBWHk4rEH+OGNNjTgA0Rk4\r\ndESjONaMdDiMoHg4d1kCOdvI+jh2OkE42GrCOOrjazhi8004fJ6COPJ2NThisY84TpNKOBtLXjj+\r\nyKU4E6CPOCd7CDgnExY4odduOLCISDhla7M4b09jODR6LzgZAh04ARQcOJhAWji4rH04ao84OOCZ\r\nkjjFoEU4cQVgOC9xDjjAKNs3rwKzN1p78jd7Shs4z2cQOOTq+Td57kM35wD3N/yIFTjCykA4oeKn\r\nN42Epjgei/M3LYaON4yGgTiCofg3ujc9OCH2WDgxmiU47MqAOLwJTTgr7gM45iZDOJ7u/jdo6cU3\r\nUO70N7Ewhjhcw2s40p7ZN+lCMjiRrUU4XuUIOENQFzjoXSY4YDQEODws7zeKMRw4UY8fONgfGDiy\r\ni3k44I2VOLE0Ojj6X8M3CAkWOABWCzh2xtc3yIrDNxgxVThebdY3vfM0OF7GyDeKPRI4Jd6qNzlk\r\nozenyro3Vx/fN3uSjTehsrs34Ww4ODEQZzhHvuw3xuPgN4aliTf5ew44e+bcOFNUOTirqAM4bQ2L\r\nOJX+IziqHII4EkNoOFYLuzde0TI3CVXON2/pFziQMQ44RFSiN5iyUjhXBj046GbPN7zkRjh+bWM4\r\nIAhqOJzRVTh2dwE4Vgk/OCqJjjfu8Cs4QnH5Nygz4jflqpw3nAPSN0ZgBDjxn0o4vvgcOMVdDTgq\r\nQ1M4VGcUOK/yNDjtd/03bJQuOCiJrTcCtA440bYYOINDzTfhm0M4CiUdODKMKzjuaDM4fw0WOGMg\r\nnDdmz3Y34gKROL+bCziIRYg3hcOYN3Q/RzhWGQg4KKu+N3I6Nzg4j/I3d9wPOMpfIjgnOLw36OTg\r\nN1yJITgaqmU4XsfiN2YgyTdheRc4E0UDODhiKTiSiRc4zMFUOPMw/DfV0h84MPj3N/ujzjfBrnA4\r\nFhw4OPCbBzgEBD04Wd1eN6FbwDcw6FI4jpkFOCuv3jeqGH04TdcgODhjJzjhjTI46tvFN2AiojdF\r\niyw4uobZN/zccDgvP+w3bo2xNz95pDegHtk3gCn5N0pRoTfeifI3FzE2OCrkMzjlN204oasrOLYs\r\nGzgGgX03UvdbN4Szzzenl8s3FCcoOO2TXDjFDZg3xKIgOHm0DTiiWJM3DnfHN3r9hTgckKs3XkgY\r\nOLB7rjcE9LQ3MTzvN5KccDjzEmw48gsHOE7NmDcfX8k3bieXN1j5zTdCRSU4i+4XOOQFuDepPTI3\r\n2wEWONnSSDivTgU45ST2N9dwDjiS9xk47ryYN+VmRDi3q/g3+LrwN2D7PDhdQp83dbrpNzKOwTf8\r\ntU84GBs2OL4Yhzj63jU4lo1SN4zXzjf0ciM4svuaN/q8IDjbSPI3dix3N+iwRDhA35c3QfQjOD/w\r\ncDhIHLU3v/XHN5cLgjh9Dqk3jLTnNyFvQjjq3CE4gq7xN/hUJTghU+c3jNljN4W2GDhFryw4JWUE\r\nOCBzwDcjxTE4GgG5Ny1mRzjjOYY3bLzfN1x2Jji6e9o3p4JPOEF19jckTcA3YkeSN/1AszfCTnQ4\r\nx+AtOBDCwjdFfDc4uGB1OFXyDzgKtAY4ku/qN7wk5zep/NE3tMy5NxIIMDhr8yQ4+ZZJOOT4tzf+\r\n78U3HJa9N+jO7DdI9HU3P5qON6sX5TdjgQM4LD1hOOqQOjho/ZU3WfI6ONNS5jcqvBg4+L7lN2k2\r\n1DfS9cQ3jxQHON0MbjfXok84LzC6N/Ad4Tcq9NM3TL3cNw7L+zdyLxY4sKrjN5GftzcI90Y3dZzp\r\nN481HzgM9g04BusAOPmiJzgr88U3RnXhN7TQGTjaOs835BroNxkIxjd47lw3hvFnNwA02DjgKq43\r\n/KmoOPDjoDfVbQ84jy0QOIzvKjjwt9g3HsHlN5loCjiBnoM3VT1/N86XpjjFMOo3Nn3SN3q4yjfo\r\nfBo4PzQIOBCaxzfSY9s3X34MOBKcvzdbG5c3Bt8/Nx5JIjhQlHk4pZgoOGoCQzhgWBE4UKkPOI7q\r\ntjdRk7Q38sllNxIaTTh4CAs4MvtsN6P1LDdOvqw3YrWyNxVcgjcm8/M3WPKTN5BsZjgqyaw3tdml\r\nN4i3zjjf7gU41szONx+oMjg0Jq43LiHaN+U8DDgsDzI4vew0OAXIYDhhOYY31R8KON9NrzdyTpA4\r\neRHjN1VErDfmjKs3y5ygN4VQqTcGICI3jcQUNuJ+HDXmgXE1KOcmNd15LTWTnIQ1NME8NUi0yjSf\r\npwQ1igFaNcO52zTs9wA1IGgtNSxniDUQ3A01rtjkNGQzGDUzwRw1Jv79NABT1zQR2Dc1kjQvNcNn\r\nHjVxDkY1zr28NO/9KzXLOAo1skN1NcSabzVlMiY1yBtvNJXbYjXY+7o0tYCkNKMO6jS8Vrk0fVev\r\nNOgZkjX86Pk0alFaNVYxYzRzE/U0qYEBNezsjTWWMd80/CIMNftZozTYPNw0IdSUNDsOJDW+cr40\r\n3C3fNJ9zgjXEJzg103mtNOKfSzW8QgI1YlwmNeqyRzXqfTc11FcBNdCr3DTxSZY14ZUUNlnYPzfs\r\nx2c3H6TPNhI+6zaE/aY22enBNXY0PjUr9Ds2bmnWNsBmyTaDiAA2kqyYNjOG6jaTgvg2NVfjNm5Q\r\nJTfElQs3wpVDN/qeazYg0xg2ZxqKN7RmwDYO4kI2uPwcNv25/zZQ7K82eOiSNUUUVzXnk6I1rvVq\r\nNbOrHzZwzGU1aWp/NhXf6TZBiHc2pppwNlr9QjetCJA3QBjENuq7FTdNGgk3rrjlNLNCzDZQdbY2\r\ntrXWNszLAjcFaKc2+Tm3NnfwwDaILE82qfc/N5oimjfMANA2FNVuNnGygzXt1lI35jCBN3WylTWS\r\n67I04ztGNrN3mzWDanM2attdNlW1LjVWrMY00LDlNDbczDTDQRI1MmSyNF/8DzW86sQ0y7I7Nd4b\r\nFTUTeLE0/t63NK+OBjXYs7k0BlMUNeTmHTWgsQg1DlXdNDpC6TTPiDg1hD5HNUghxTSeeJg0L3wB\r\nNcUYAzU5qX00zRyPNGrz2zTfa8A0NVHrNP9LCDVuAws10nzONInQOTQx0QA11la0NE4RqjQhq2A1\r\nnVLaNOAK1TTk8201Z2WCNA8O7jS7HuM0KEclNTWODzXvI9w0VECtNMI9zDQueZU0lB1MNX9XkzQF\r\nR/c0BUCNNKY2YTUigVk11f4UNc72tjQbEUo1M7GUNDK7/DS3TgY1b3GXNXForjQq+6401lafNKJd\r\nIjW5txA1cYEUNUTZtjQYq/w0sGbjNIvOszRTJL40d0oWNdJLyjRmTPQ00BDdNMqmnDSpC0s1iKQn\r\nNSiADzWx8o000rrwNB/MIDUYorg00+vxNBFcYTV7Dbc1D7nNNF0uKDWzBIE06aAxNTCCFzXrROE0\r\ntt0XNWTg4jROoRw0W/tpNR99YTVrQxc15lUCNSpuHTW71tY0ZF3kNFJRujSMqwM1HsqWNJjpBzXK\r\n+vk0dii5NBFEFjW7Iwk1QynZNMRoHzXkZ6g0pG8CNcQtFDWVbGM1ayHCNMGqBzWHSrc0Crn3NETO\r\nZDRIuic1DvetNEvM1zTodig1vHoQNQzO3DRdw7E0u/FBNJp1ijX51OM0quE6NfqAQzUhzeE0v9r4\r\nNGUkxjSFOJs0iH0sNTq6EzVb6rk0VAr8NOitYDVUQc400sObNNxY9TSH1c40ujMHNahiNTXqLRg1\r\nQqmfNSy17TRV3tI0L4QHNcR5hTSWzWM1/8dZNf+UvzTVxBk12wvKNMYQCjU4wLA09jYQNXL0rzTk\r\n3S01kqQJNYkAxjSTk4Q1q79hNfRBFjWdRiI1HomZNPU38zTKOu80Ky7CNHKuMTQ84gs1qGYoNcV9\r\nFDXCEOg0sdOnNGLTqDQp6SE1wggDNbna8zTrWwA1jmQsNZ93rzTV+ww17WoENdpzMDVLIss0GuOv\r\nNLzstDR1vKQ0YnSaND8tHTW8gQc1KdY+Ne4r4zT9LhM1EBm1NFKRhTVZW6I05tH6NKA/KTWUgfk0\r\nW66UNHiBuzT04Qo1dLjmNJ92ZDR8Ma808AtJNRnxkDQty5E0jqWKNTf2sDTKyI81qYvENJOD2TTg\r\nFgE1zzr3NGmpQDWRVq80Su/jNMqgyDTL2hc1jr/5NM2phjQQ8O00to+lNGvF6TQCHcw0JIv0NAIt\r\nAjXBBzU1LEWNNM8rsTTl+iw1skbbNNBL9TTT/YE0FRD6NEP88jRTZ/E0gSI/NShq2zTidS41ZT4K\r\nNVYDrzSM3AA1rhUUNWtJpDQdFyY1avGzNAQxkTXmWOQ0+EkjNbUOzTRftVA1+DXrNDMIDzXkveQ0\r\nJ5TVNKAhSzWikaQ1vEm8NHstijRkUHE0ovDRNEvwVDQEAqs0gEVONIAZFzVB4Bc1IHPVNMy8DjWQ\r\nkCc1HN3wNJaiFTWCIBU1GdQRNaDG9jS4MQ01I8OfNJf2rjQwpgI1XbSpNc6I4DQbSR01LMzWNClE\r\npDQdbsM00gAhNUEyHDWwggM1hTmfNISeHDXje9Q0dWlhNEYf9jTdBwk1cl8BNdyjEjXVcAM1pFIM\r\nNTmCnzTrFII0Uh+VNMhF5jRbq7Y0epcHNTwTnzT13VU1liXXNMN/IjWa3rk0AAAQNQ==",
                            "noiseTrainingType" : "default"
                          }
                        },
                        {
                          "effectName" : "WinCompression",
                          "category" : "categoryAudioEffects",
                          "parameters" : {
                            "attack" : 0.0,
                            "gain" : 9.0,
                            "preset" : 1,
                            "ratio" : 10.0,
                            "release" : 3500.0,
                            "threshold" : -20.0
                          }
                        }
                    ],
                    "start" : 0,
                    "duration" : 287,
                    "mediaStart" : 0,
                    "mediaDuration" : 287,
                    "scalar" : 1,
                    "metadata" : {
                      "WinSubProjectDisplayName" : "",
                      "clipSpeedAttribute" : false
                    },
                    "animationTracks" : {

                    }
                  },
                  {
                    "id" : 93,
                    "_type" : "AMFile",
                    "src" : 5,
                    "trackNumber" : 0,
                    "attributes" : {
                      "ident" : "Narration_fracture-2-czm-element 1",
                      "sampleRate" : 44100,
                      "bitDepth" : 16,
                      "gain" : 1.0,
                      "mixToMono" : false
                    },
                      "channelNumber" : "0,1",
                    "effects" : [
                        {
                          "effectName" : "NoiseReduction",
                          "category" : "categoryAudioEffects",
                          "parameters" : {
                            "denoiserAmount" : 20.0,
                            "denoiserThreshold" : 0.0,
                            "noiseProfile" : "KGqxQaGeFkH/uAtB/7QdQc/hU0Gw5ThBKaWGQcjsvkFE2kBCJ1jOQga29UNaEGBFBO4QRq7Tr0Te\r\nzsVDb7dmQ1UL9UK5l9hCd+yIQgUiPkLAnlBCRmtWQ9PtN0SdBwRGU5OZQ1xbM0N8npxC+lUTQqhH\r\nzEEM4pJBIJlrQYKpJUFoGD9BRKNRQESuzUEKrzpBjXvFPz79nT/4tm4/puLiPygExz9Pjq0/mU3I\r\nP/Ectz81TU4/8MFuPxRtNUH0461AC9WLQHxwM0AosYM/QBSmPuChPT9JLjY/7OQAP+wOWz+9G8o+\r\ng+EaQTGvB0KTQ5xAgJqFP962zz9SG+U/bs4oP/gwQj9LexU+UiMGPmYRmz6yqME/X+S1QF0zxj6j\r\nypM/mqQDP9fRsz5kA00+FGGzPvj1Aj6l+r49DFIQPriclT4WRtY+eYRJP+D19z5qQKg+rgr4PVm0\r\nlz1NdA4+18L1PQWaBD7wobk9sJp7PfrdzDwTCeM9lGj+Pd7wND4ZQMc+Q6TPPed/rj11aw8+PEQe\r\nPvHqGz5Q3mw+GMjgPdUTcT4IwhA/xFpqPpTyhD1UD6I9aWO2PScT5z2YjeM93yQtPuX92j2BVsA9\r\neVyGPvqW2T7doIQ+3g4uP8drSj5Jbto9tEcuPkkrNz5qyAY/mJ06PnrXiz67pPw9CAMoP4BHQz8j\r\nMtE+OIUzPwxnbD5EwZ8+eVY4P2BpOj4E6MI9mar8PTMQ1D1CPg0/t64DPmD9UD4RrRs+Rsg1Pk0j\r\nST+BM7Q950ELPtCUXT74B4c931xYPnhQej6BBDs+svRUPTE38j5WWwA/rGocPznmhj4u5jU+M1gi\r\nPzVguT5IdE4/mmn5PvTikD9qzBk/G4uTP8lMRT/wado/P4ldPzYHEz9qF/Y+un/MPmBDCT9RSxA+\r\nzcOpPygHfj9C2Cg/i5HEP9HnSUB4qxQ/zlFNPt6clD9qIGc/vwQ/P03w7z/T6VE/2x1oP6mOZz7x\r\n0Kg+d+yhPlyxWz93xFc+zz1CPsp2JD/adIU+TAlqPn9+Lz7PHM49NzupPnr/rT5hvX8/1OKzP869\r\nID4qzUw/P5NDP+xxOEA06kFAbaecQJH9ij/tMmw/wZ4jP5s2YD90Pjo/sHgHP05QEkDecZE/er7T\r\nPv0T6T5ifyI/5I/xPgFOrT4/vXI/hMk2P/co9T9CVNU+Qu0TQHrS8j7FGrg/sqOMPhg2lD1ZhvY/\r\nj4zPPuPrtz+CKYg9ylQ9Pie4Lj4koCA+nN6NP/DMwz3wU/8+ZImXPiCftj5EtKY/FjfoPn6buj5c\r\nnR4/OJVJPuCfdD6KKbQ+mreKPvLPEz/l7n0/oGgtP1qOnz5g8Kw+AOsXPl+Poz4EDyQ/UG4cPyKU\r\ncD4J1CI+K2yKPuVKvTzKfME++rEVP+2CcD1PCX8+ACWrPZAPzD3Nfq4+6x2YPz9bkj/xoLw/aOxE\r\nP2bN1j5gQ+c+SReHPgp+xj5KfaI+G56YPnBWGT7TMos+fo/cPnxImD3867w9gUOWPSEoDD38Q8o9\r\npMBZPjf9eT6wQjg9gQaZPRQWZD2xFFw+8LXhPZqApD0FpKg+T49OPvt0gj4IdUk9jPqIPn6dFT7a\r\nDXA+l4mBPpepRD7hSdM9sGR8Pes/5zzZMzs+Zp8JPuQi6j4Emgo9zFoEPmPYBT7k+U89bXkZPjbE\r\nfT55PtQ9HCSyPR6SFT6UHdU84no/PVwcSD21B6w9xguNPt9ODT5CccU9LHgmPdJ6Ljw9AGw8/BDX\r\nPd5LEj43xBU+czEgPd/QxT3Y2Cc+wnHoPf4LGT729FI8JTtDPXJ81DzGly09PhyFPdxQMD5qLWI+\r\nVB9hPcTu4j2I4JE9aIVXPccwOj3ANZM+kT5pPgceAD5v0fo9nIYEPvkM9T1aIfQ9x9ZIPDK7zjxA\r\nQDo9KK3APtwrYz+I9xM+y1GTPRawjDxhVSA+qzYKPCsGpj1yUDo+TLaiPkfopz7DYhA+d9AUPkPQ\r\nCT9seU0+r9h9PnySHj6LbYM+Q5FFPuE9rD3WsyE+0zDlPs5aKz78VTs+ng1CPb6/Hz4QxIs+rQds\r\nPWzapz6/AIg+3l52P37iMT5wPrE/UPz4P3I44D6lLlg+4YEBP+krmj6pMDc/8tS4P/g/gz3y8eE+\r\nUnUDP2/HDz/o9aM+k1UtPm25iT6fFBg/k8+3PoOdrT6F9U0/ad+DPg7LLD8u07E9pTBiPRdghT4X\r\n0Js9VsOePpfvUT5vxnM/nG8vP/xAaT5r85Q9StRsP/u+oT5QeZ49FocRP0HKxj72iHI+PkZXPkor\r\nYj4xz/U+5Az/PmG2Tj468Lk9vBQVPhmRkD3cCpc+0cNGPq2S7j4jVes+3T/oPSIFQj9szok+Hus/\r\nPuCJEj4waeA9SnXdPpXqCD1kPVQ9WmQePmnRBz70LzU9Vy6ePv6ZrD44tMQ+s6TSPrflaD575Kk+\r\nFGWXPgt3cD247hs9/lHrPmLldz6nRQI945odPSu6MT6AuoY8VhSJPigwUz3YdQw/huU/PpnWPT4F\r\nvcw9JPyFPoIEyj38zMo92hk5PuWdpz5bQIg+IdezPqEoYz7Nkts+vVIYPttpkT6E/h8+x1OQPC5m\r\ntz0Rvwk+GjPpPc47QT6egCU+0crwPMVmDzwJlbU9kI1aPr4rMj4qQZY8grrdPHgKcj3EvrQ9GcWy\r\nPX7L4T1YV1s9uN0SPTYetzyK0NE8LgoJPaIg2j1n97M90La9PZ/dRz1pgpU8FCkCPiSQBz08vUI9\r\noMqFPUd4KjynOnQ+UxsxPWKWtTx4mx09CJdZPhaMKD7MVSQ+rt7oPY18aT0XfqU9QWqbPO+S9j2o\r\nayE9Fs9CPII6Cj5x79M8oOoNPaBqSDxQxvM7YJIYPZIXUz0NTWc9XzUuPZ5hvT0mjLY8uO9pPfpo\r\nPj0zpS09jwo6PXujOz2XdAE9CeCePDJbGz3nel89FPgmPZHj7zusf4s84RcNPYtCEDwMYi49drtO\r\nPWbfTD2Bgnc8AKEVPGKpXDtJ5mU8q/qaPEmIrjxuRq87B1iTO6a8pztV5Ho8MH+XO7pxxDxrHO87\r\n2QLpO4VetzsaHjo83V6rOwxQszsBYT08gHk9O6tFrTuGWNs7KpuWO3CpJzsQpmo7eMAWOzy9CTw2\r\neZU796e2O8QEPDusOIU70IkdO5BxFTtczBg7nuiYO7YPEzuwjBI7vnwSO/rMNjuBSJc7JriTOzmm\r\nFTuAa4g7qOoPO7TDEDtBAGc7N4CaO9tfgztmBgo7KBGOO2lKDztKpxY79kU6O0YKDDsxkgk7tDIQ\r\nOyoFgztCeZc7XW+FO5vWBjvsEgs7lYAYO8vKDzt0s+A7wotIO/9xBDu4DQk7vG4KO+yxBjsfqAU7\r\n6yCXO/+kjTuo5YI7WyECO9UhGTuk3ZU7QhtHO4PLAzvS3iY7Jo8FOyBCBzsKN0s7x0sEOwa/dzte\r\nm4g73eiDOzYB1TuZZsc7BeCFOzKSADvmGPw77EH+OsbjATuUhW07tg4IO+vgATswzYw7zwh/O+X/\r\n9jpNwf86zamvO5iqEjwcJq876RPqO6vnkzvw6/s6NCA6O0jbaTz+seA71oeGOxgkLDz29HE8++TC\r\nO4qslzvlVyE8ja8ePCPh5TuQ/fc6TrvyOoJSiDyq3I88flj0Oo41kztm+z88NqSsO5Y7ETzJSMg7\r\nlN1dO7gthzvv68E7jtT4O75UxjvnSZM7LCBPPBeKDjyCFtE77cVtO95DOzwjBXE8XpPTPFY4gztq\r\nX4E7qOp5OzhwkjujvqQ7zrnnOlLFUDu6+pE7fP5mO+4M6jqyAec6u83hOirW5jpQX207UzqEOxG8\r\nDDsBYeQ69vDfOvca6Dq6quE6r5QGO6jw4TpmM/M6m7fhOmAK3TpR8tw62DPfOhSv3zqESNw6zhXj\r\nOiEEADt0xuA6ucneOn5D3DoeCd46LiPeOk0A2zqPt9s65/3YOpzF2jrMEts6UNPYOhiP1zoTQdk6\r\nj8zYOnq51TpoUtk6lmzfOvdC0jpOqts6XSfaOnDr1jqqadk6DdDUOhXk1To/99M6bjfZOu041Tqt\r\nVs86Hy7POr7a2Drf/9I6Pc/POhft0Dq77NM6Y7PUOoM12DpMVdI6ZlvUOtmmzzqQ+c86KojOOqYq\r\n0Tpj4NA6zivPOqX80Drc5ck6NlTXOgm/yzqg1tA67STIOhIexzpxTNQ69e/LOgGkyjr+VM46jILM\r\nOmH4zDrgEMg6kF3OOj1TxzqWnM064NrGOt/ozDonEMk6eqXROuDbyjrcW8g6t9bKOsDHyzq/fso6\r\nNxXFOjVXyDoFacQ6GjLKOibUyTpyoss6xZPNOnH4zTr3JMc6S6zIOvIzzDq4rMA6bNzJOmGtxDoQ\r\nVck6S5LEOkU0yDoHAsQ6vkbGOlfUxDqV9cU6ltLFOhbGxDrIa8U6EqPKOurdxTr3TcY6j1PHOvLs\r\nwDqfyMY6mSnHOirVwTonu8Q6QLzEOnD/wDp3DcI6dl+/OgxDwTokOcA6tifCOtUwvzp5zsI6j0jD\r\nOvLpvjpTcMA65V66OpGRwTqhOsM6EVnDOhXEwDpfjLw6i3rAOt0fvzptXMA6l/q+OijsuzqqFME6\r\nrw6/OumYuzraab06BuO8OtgBvzonqcQ6CrC8Osxruzpr+sE6Liu7OmsbwDokD7o6QSK9OhH6vToV\r\nP786bra7Op9gvjrT4bw6TaO6OhMkujqQS7g6Q3bAOtS+uzraW7w63NS8Ogc4ujpu9Lo6LCe+Okid\r\nujq73bI6MEe9OvbptTqJhLs6Xh+2OgdUvDpdGrk6nSHAOit1vDpdvLc6//2yOkuuuTrtC7460niz\r\nOmuquToYNrg6noG6OvOduDo4hLg6VZi0OjZ1sjpNb7Q67lKzOpxrvTrrKLQ6Nsq1OlSytjpt2bM6\r\nsVG7OpqQtjo+3bg6Y6C2OkIztzq1Kbc6i524OiNUsjrbULQ6k5q4OurnuDrBzrQ6gS61OvjYtjoT\r\ncrQ6UgC4OlTntzqvULg6VtSxOtk8uTo2xLI6y3izOp88tjpu+LY6W/SuOqV4uToB/LA6gX+5Or3k\r\nsjrdjLQ6c+O1OkfWsDplRLU6aFS1Oqd2tzrsd7Q6iUq1Ol/qszrPYLU6HumxOhj0sDr+kbQ61Nq6\r\nOlqVuTq6B7c6AouwOjALtjrWpbI6X2awOsnPszo+wbI6XMawOvndsTptY7E6kx2xOgPgszpb9LM6\r\nHsOzOtMQsDp2GrI6DNKxOnIEtTopQrA6px2yOipeszo7brI67PWxOpEXtjo2qLE6C/m0OvlCsToA\r\nnrA6vaGzOu8OsTorFrQ6BmyxOl4EsjpGbbU60VWrOuKjrTo+dLE6KtusOjeIsDq+Da46YQquOlnj\r\ntToqYq86Br6uOrGIrzoYtLE69nSyOuo/rjrKrrQ6tIWyOkoEsTpZ8LE6fbasOo45sDqIbbI6LFi2\r\nOjUjszoQdrI6td6wOqfcqjrcVq46LmexOulaqzrlOLY67pmuOnwzsToGdbE6mqaxOoCwtTpaQCJA\r\nIWMcPRnrvjzzYB48Fv2/OxEjTDuFwPQ6erenOhPdQToAV4A6pAtiOjTpIzrim2I6wfvWOSZ39znP\r\nqrQ5yg+XOb97uTlPdqw5sKeTOVTwvjn2saU51V86OSlgTzkHLQU6biaKOd4UhjlQ40A5fw+2Oc1m\r\njTm2jKE5t0MSOVCvoDmEhrg4imwlOR89Djm9V0k5EDfwOB6kXDmEGgU5ALvBODGjKDll4884etMP\r\nOTRA0DgKwEQ5TI6JOaLFCjmiYmE4pJ0nOXuVWDk0pSE5RuEFOUknITkT2B45FJltOdziyTi+moc4\r\n1lZkOa6DnDizio441KWmOGDOvDju5HQ4OPKMOI9LmjloKW44mCZiOVwlvTi2vOQ4OlLXOD/AFTkY\r\nISU5yRMsOWovHDlOsPY40UMXOScr2DiezUY40uuKOFGocDnJEtw4y6J4OEwIkThh+Gw4S0iCOLbv\r\n4ThgoQQ5otolOYqF4Tgjdxo5e914OcBnHzkOw1Q5UBjcOAgOjTiSi5o4z3oMORFEmDgjsIU4WNmx\r\nOORWKjhCJZ04QdoQOFhQ6jc7mrs4JAg3OInXfThxYqM4eAoFOdfzuzjdJkA4CCGjOLhRhjhxK6o4\r\n9UUuOCjjZzgurHE44pygOMO/WThVObY4DrGLOFzkljgwZoQ4huNYOIBraTiKyMk4Ii8zOITJpjg9\r\nrz04PuM1OPM/PTjecyk4tURXOE+AsDhqb744m2aHONabNTihSZw4HCCBOJHEIjiknwU4guEuOFq1\r\nLjhFylU4rIuDOG9tLDjXMng4YoRnOFAOfjitP0g4C+cXOOUGGjgnxdY3ym2ZODyYNziOj1g4SiKI\r\nOGJrsThynmw4K8ohOAeaGTgGuAQ44EJPOI3MTzjZO184deiCOFwZ6TegUTc4rkL8N8K0yTfJvOw3\r\n4jcbOK+iWDhHMCs4gN9kOOqumDhc0uw3v8E3OAnpjjiCPIs43jEFOUMTajhqDpM4mow1OEAAgDi6\r\nKPM3y/+KOI5pizhJoeo3hWtBOJB7Ozj3gVA4OJkWOE4tIzh6euA36EgSOODFCDhNGlI4jD1LOIQB\r\nIThYPdQ3xJcrOF5JdDiU3Gc4VAYIODUY0jdoaCs4ddWbN4srBTipOso36gFhOB3hGzjTQQg4mEAa\r\nOCLfAjh62w04sjEYOPY3QzjCON43hCxGOHVdqDfN2yA4KeyTOOr72jc5X843avLaN/XFmTgKisU3\r\nJFMROMcHtDesnbs33PLuNw8dszeAdu83AHCdN2z0FTh8p8k3KMEPOFQvtje4Ga83lEEKOLG6TTid\r\nSRU4ywupN8JPpjgxAvo3SvBkOBQP5zdquAA42KKCN8qXuDfviBw4LnOUOHjMHjhu0TQ4/vOsN2Mv\r\n2Tf/YVI4my8eOJBFJzjdkm84BuESOPB4kzdNHYk42jKTN9b+7DcnB5U3Sl2CONReBTjTadY3lCSO\r\nOEVr4jcfGb43g066N3qM1zdrSE43NgIrOMUz5jcKTGc3kh7NN+unnzdtiTA4HLI/OFjwGjgU7q03\r\nzxAnOFT0/DcKL+43RZsWOAPjCjiIw4k4ECprOAZ0XjjSuLA3PoKYNyhjrzeMNeg3YuYxOAwC+TeU\r\nWz04QM6OONCa+Td+Kos3y0MvOEiaQDh716M3EpHnN09nADjanmI4nVOiN6nqPjhMUwk4bArxN1yu\r\n6jdto5g3ZEg7OImQXDirdDY3dZ8WOFaNDDhP8z44VDxUOJDPVzgsMM03/uktOGp5FTjsz8E3Jv8i\r\nOK4XATjqKaU3lhG/N+OLzDcKO5E3ek9FOKexCzifXME3NqQCOAFiATg7rao32VwDOIAKuzckW983\r\nfDe5NwZu8TepjPg3Vb8BOI9BDDgQqh44yW4POFUitTdvdYE39QH9N09NkTdqA8o3FdSfNwzOADjE\r\nfyU4h8PHN3VtKTiE5yg4aINpOKlbSTi9Jek34JZsN9XIkTc0QsQ3RJltN0HuDThHbuU3mO1RN84+\r\nzjca0/I3fOQVOGYgtjeLxak3eCT6NyYJITj1RzE4scM+OLYVxDebJzg4BpacN45GBjiMwMU3lMK1\r\nN2yjsTfWahg4JEnGNxbPRDfETEI4ErkfOLTfQjhap5s3abHcNz6Ltjcm9tk3DfBJN+0CZTdILyU4\r\n9HG9N0L+3zdqJ583iXyzN2SZ5TfXTaU3WkoWOOOBmTfMQpY34JHCN2f6kzfgkcM3kvSAN+mKTzjK\r\nmSQ4gwjfN8gs+zdN3q43Bm7ZNwe+yjc6ops3tpjwN3hW6zcOzPI39nGcN7OnVTjMdIY3AjciODZQ\r\nDjhHvzU4XILzN3JmcTixB8M39A3ENzu0Xzg+eRg4TgPgN1DBkDe+A3I3nkaAN/rFGziz0gY4Fhzd\r\nN5PCrTfrvl44c6BGOKx62TfihYo3QZnfN/k5UThdUiM46CZzN5Gz9Te4ZCU4DUuZN8FW3ze6Tw44\r\nx9qSN7jPKTjPCro3OtqkN638kjcQLq83gosSOK0H0zen99U3zKt4OF8VbjjwN+Q3MF0wOJXrPTjG\r\nsR44ZvjEN33zjTc70dE3GEUaONG+qjduBRk4lXzVNzoNBTj9Wu83OXQVOAQuKDgV88o3gU0POMJi\r\nRTg44G44Xg9LOBkp0Dcpp9I3LITAN9tQOjjCtyk4ORkTOMQevTcFq/o3kv6FN1Yj+zeM/p83EmDq\r\nN7EVETiHiPM3N/7HN2HsVTd2/ME3j3WBN/aRIjiAww44U/GqN0DC+jeEVxE4UwbLNwCKJji0EdE3\r\nwPGWN/gW3DfeVak3Lac9OEwC7DcZCyE4usDmN6ATMDhaYLU3cPegN23MNjhXoSA4JSsIOChUoDe+\r\nP403gQ4HOHSTGTim+oM3nie+N7rNJTgiXJ43mwTbN7vcTTgEsrU3iXhqN4BpLDd8e2o32BLRN/7s\r\n2DcXxKo3AVbVNxflRDgS+Ro4rpxiN59lnTcKeKo3EdXaN9RCPziD+r43iP4IOMHwMDiKTxQ4PTsa\r\nOBb1Hzfa1bs3co9EOPrZCTiCijI3o2OCNxcwsDfWOAg4fLCjN7xg5zfqc5835pjEN4vuhDftQR84\r\nIiPmN4pxFDisCNE3te+/NwThizduE6Y3KgO0NxL5SzZJRx43+lwTN0xTATdClAI4rLH7N7iT2TaF\r\nVkA3qPfKN0Nl+DezUQg4CHJCOCun1jfg6dY3hrM0OA41rTZ0n202IO/ONvIEoDeXvvA3mGlQN4nL\r\n/zdMZCU4oukmN/jMWDfquL02D1sLOBekPThGziM4PhMUOIyPDDdxTa41CgdnNWd2BDh53jM3R79T\r\nN1sFmjVKQhU3UQ8AOAH1WDc2CoY36skiN/snCjdu9pY2wY2rN2/loTbGtwI3ld0UN5j31zZow2c3\r\nkU9RNl9N4jfKy+Q3TJVNN7n0JDcNYao2QgqBNyTuOTfawYQ3I3xnN8j28jb4aYM2+FZvNycy/zYy\r\nC1E3UBZfN5y0YDVARh439EbtNnbTEjc/K+c225QTN7/2+jbZpQo3erRJN1weDTc2ua432raVN5RL\r\nKzhPU9M3GGS8Nzh/pDfInps3eb73N5gxDDe9znA25stxNnKBpTb6q2o2KD1VN1Qz7zbvOB02gcMV\r\nN0CmGTdJkBg4vpcyOJRXGzc0HRc3X/9tNtur1TbB0n83ahSKN0AZBzdnT2w3mEKQN3EBJjhFDlo3\r\nCjEWN/jqQjawKhE3LsFyN1KwLjcSSCM3nqEcNwHaRjdFen43YGmaN1WXnjdjNxs3uvQ8NyUfhzcq\r\na104W2sBOHC2DDfDDhE3Rzg3N8FU6jYLy4g4fWl6OHAr3jdtbo84vCq/OGFE2DbQmts3ST1OOPVY\r\nQDiIK343TBE4N92kqDYP7Y83H36gODxYrTZe1104LMfdOFsD8DdUXAY4R5wpOARjczjR0mw4g/0S\r\nOR4jADf8+i44rpBLN4p3Sjip+oY45CNvNzzBHzfW1YM2LH4pNgYuQTV0tnc18xwyNeL8JTWS7Oo0\r\nKuX3NBPlhzSMUd40PEiVNHiH2jQR9S81Cb8XNUlZuDS54Q81NI2fNJlNxDSMXSI0/P+zNMWNPjVy\r\nmz81sA5FNTAiGzX8Ers0GHaaNAdbDjVp87M06bCTNWlPNjWvkGg0shi8NA7TgjTYTD81NPDSNJza\r\nxzR0BYg0E82zNMtKDDWzlQI1FAWYNDp6ujTrXMg0Tu0PNYVnJjQlwHA1RFrjNFERhTTZybI0Oxmx\r\nNMVawzTLZvY0YenGNP766zS58r80FLM5NS1fbDSFsMo0SjgFNbvZgzTLXY80b2IkNdrKMzVnNg01\r\nQBGjNJqYyTQRXuo0WTqINMHhxDSCoUE1Nd6QNTchLzXQhIM1pf4JNfJGEjX0YAo1ttlJNbQsQDXh\r\nsno0jn+3NLy8sDQwips0DeqqNCbNwDR2AMY0wXKwNFqFXDXPRQI1EhIuNKzblTRbaBk1mtx4NUI9\r\ntzQ1OrY0q3pDNMJiojT1B880AGnYNFfuizSzesU05ZMDNSOy0DQw2As1bY//NB53GTWWwoU1r5N5\r\nNOw5dTU2yOg0AkN6NAyK+TRCShs1tsjdNFxfODXMeZ00ovsxNdhd9jTxrRg1LNMHNccaCzU37Zo0\r\nFGeHNHLqCTW1iQc1fl/jNBnJ5TTSZgY1/4oMNaUYgDQ4a/Q0ouGINHpeuDRy36A0K55/NU4rvDT3\r\n6cU05rjrNEi5ZzTgv5c0WNnoNHBvpzT3UAY1sCz+NIqwnjSb+qA0S+t3NH4U2jQZCKM0v3WRNCiH\r\nrDXeN8A0TvVNNfpAzTQVKgw1R9rHNDtuVzVt+3o0VKIpNRPivTRfFgI1JhsKNenEjzQaAgg14fwq\r\nNalgyDSaig813AKCNM+SITXrTeI05xEtNV4zaTS+mkE1gWwANWywxDR6huA03/EfNXKarjQp9ig1\r\n6gQxNc3gOTV2Nhk1E0O3NHTg8DRtIk41onAONXpCXTVATio1o1qrNKiXyjQtDKA03WuINPC30jRR\r\nGn40AgjVNJR20zQLew81TeWbNCzaTzVuqoA0+j23ND5Y9zRAnzQ1+rhENI9k/zQGY8E00tB7NKoU\r\nCzVkc3s03le8NOIKOzXS4t003q5CNaTywDRgOtM0U4j8NE+2zjSR9qc0ysAHNSTA+DTR/FQ08afN\r\nNKpZ4jT31tY022E8NaD+qDQvjQs1/76JNCp70jRZsp006JHWNFbnsTTDr+s0YZlMNFzWIDWUhPw0\r\n43yxNA7y7jSH3pE0jwa4NEfnkzTA8Aw1l4zcNFhmkTRqAK409Bg/Na16tzSTs3s0Wl8ONW/4GDXs\r\nBoM15r+ONBEpATXF/q80ZPDrNP+lPDWcFBE1RuiUNEM5hjVy6ac0LxqjNNwZ4jTAmqU0j5n0NLif\r\ndTTn4BE1MQW5NHoUAzWmDsI0aMb9NF44OzXv4t807dv+NGk+3zRfHvc0Y5yaNO+dHjVNp6M0DOYe\r\nNbnPGzX8GZA03f+tNPxuKDWJDyA1Os+tNIFWGDW58eA0cvPoNLVtyTShLZ80AAApNQ==",
                            "noiseTrainingType" : "default"
                          }
                        },
                        {
                          "effectName" : "WinCompression",
                          "category" : "categoryAudioEffects",
                          "parameters" : {
                            "attack" : 0.0,
                            "gain" : 9.0,
                            "preset" : 1,
                            "ratio" : 10.0,
                            "release" : 3500.0,
                            "threshold" : -20.0
                          }
                        }
                    ],
                    "start" : 501,
                    "duration" : 953,
                    "mediaStart" : 0,
                    "mediaDuration" : 953,
                    "scalar" : 1,
                    "metadata" : {
                      "WinSubProjectDisplayName" : "",
                      "clipSpeedAttribute" : false
                    },
                    "animationTracks" : {

                    }
                  },
                  {
                    "id" : 94,
                    "_type" : "AMFile",
                    "src" : 6,
                    "trackNumber" : 0,
                    "attributes" : {
                      "ident" : "Narration_fracture-2-czm-element 2",
                      "sampleRate" : 44100,
                      "bitDepth" : 16,
                      "gain" : 1.0,
                      "mixToMono" : false
                    },
                      "channelNumber" : "0,1",
                    "effects" : [
                        {
                          "effectName" : "NoiseReduction",
                          "category" : "categoryAudioEffects",
                          "parameters" : {
                            "denoiserAmount" : 20.0,
                            "denoiserThreshold" : 0.0,
                            "noiseProfile" : "7DHxP3t6mkHT8CpB2fnnQCIYmkBaW3tB7xDXQWdaeEE8vr1BbC6XQUH+pUHAbYVCuk4vQye/hkJ6\r\nB6pDw/v1RB1CAEZzjQ5GBC3/RHR4wkLS6UlC1n/HQRcylkFHmbBBpnpLQTtOREJUMCJCAAGVQQNQ\r\noEBKs8tBIzizQuyfskO6s7lEqmeJRJ7XY0TuLOBB+ikZQte/jkHcjFZC0XWGQLzByEHD1B5BgOTI\r\nQFlKpECUEoxAlPSFQNtLY0Buz2tAcNVuQMWsSkD3l5FAAOMgQDuI5j8oQ98/YJfmP/sdI0DM6ERA\r\njJM0QDYJGUDiq+w/uXTLPwvwvD89CMQ/Y/W6P76drD8CCY0/noeQP3UApT+EvXk/C9tzPzSehT/Q\r\n+40/nbCXP2iajj8xmH4/K1pbP7c0PT91EzY/XII3P+hGOz8OPT0/eLYyP1z9Jj8uDSg/9HYoP7CQ\r\nET/rvRk/3vInP7twRj8/Czo/eVYSP9qC/z6A5fc+vPHxPuP6Aj+2lgg/Bl8LP/WdAT9nrMo+HcPB\r\nPmuc8j7zGc4+lgP5PlpuwD5maMk+rbS/PhRiwj5NGr0+b4uwPrIysz63Cr4+GvzfPt2G6j7/FL4+\r\nIuGEPvQOhj7O2ZI+hEqmPk/Okz4t6c0+uYy5PrgQqT7y96Q+zVuWPgJzoD6JPKg+usi9Pkg6qT4b\r\nRp0+gVyAPmwHXD5tPo8+F/mJPs+YVz5JPIk+xE5VPlqfpj5YLGw+b96QPhB4Zz7JYVo+SJZmPto4\r\niT7TyIo+xhF1PnvZOT7iDSk+ku4pPmWHQT7Bujw+4v4+PnB/UT4oUD0+DKRhPhA2MD6tSi0+X1Iw\r\nPi8LNT549mA+czxfPvCsLT4o0RA+s+sPPuFWHT7NkCM+t2gsPq+3MD7q914+T7UfPvDaiT4xP8A9\r\n+3f3PXUmaj5ZKls+A2hQPtK9FT64GA8+tnvVPVAe8D0uSzM+VdcnPv/a4D3MuCM+Ys4TPlcBBz5H\r\n1Iw+uACvPXWUUT5NDXU+PX0APq1UQD7m+gg+2WztPYR7kz0nnFM+e8GFPnls3z1gz6A9tUtOPseI\r\nRj5aZts9xmThPlcYnz1CsJs+gTuUPdxkXj4T0LE9Y9msPTyx4D2qmFA+dv0sPjAWxT3aWbw9kcD7\r\nPWfs4T0nR7k97CvmPSwBwz2d9rM9SIoFPg/+mT3A9cU9kKLZPXb8rz1U+Mk9MDPVPSbAyD37las9\r\niJWePX7Kpz15o7Y9eCSiPSrXsT221789xg+jPYhFnz1zypU9bHWQPTKxiz1nbow9MJSVPUrmqT36\r\nS6A9xviePUuopj3cQZU9NoGHPXWLiD0x/IM9KQ2FPYzbjT1E7p09ywmfPTwjjz1OooY9qWCBPRFp\r\nfj3iKYc9NPJ3PV8Gkz1egZo9fCiSPQhmiz3Hw4c9gNBmPR7oYD1wbmY9edNoPdk1YT3h1mg9669/\r\nPXGeZj0UVmE9cJ1ZPWovUj3x5FU9LwlaPQ6WZT1E8XA9xph5PXKgdT1A7GQ9aWtkPVsmZD3Uf089\r\npjCmPfyQRj3NHKk97GdKPeKTvD2kZ0E9votNPa78Nj2iIjg9dExoPQSsYT3z+T09x2lGPQJzOj2A\r\nOjM9su4vPRj0Vj12lEk9+l+FPV6JRz2GI4w9hJs0PWD9RD1MCiw9l35PPSRhbT1J5Cw9qOgoPYjx\r\nJD1O7BA9ERwoPZyHSj3nhjY9gn5PPTd3VT3hpj494Q8xPXQGQD2MFiE9nItaPXOWbT2Rnzc9sLE3\r\nPUaDHD3l3iE9GGIdPexUIz0Dbjo9kDYnPRA1Hz0y8BM9Ej0VPZ/3Gj1ephA9fJgqPU30KD1fVyA9\r\ncHQzPRfgHT3N/wA9uukSPUpfHj3G3w49Ft4gPTPyGD2hVgw9URokPYAGBz0ctBU9gf0RPZC6Dz2q\r\n9u48RFg5Pe+nHz3kogk9CdwSPXRVBD39YQo9pCgXPfnCIz2InBI9TwgJPeRnGT1Towg9QuMpPcf8\r\n5jwLvwQ9VGnvPPR/FT0kEgE9TwYVPeDzED2qZ988KHf5PGa9DT0X1BU9EkUWPczUIj2Zxhk92Nv2\r\nPDy2+jwwFuI8ESUMPbUSGD1OhxQ9mWQNPdiH7jzQB9A8PKLXPIK14jy+KAI9emkZPe6j7Dw82Rw9\r\n5KQYPeJjxDzzKOg8gJXqPMf0Iz1110Y9Zf8APUOnGz1y7Bg94yTaPLDS5TwZSb48QNjhPFzz5jwp\r\nRt08+PcaPZaqEj3+Xtc8ZwQPPY7J/Dwp8BE9IYT1PIbpyzxIar88aHG+PE+8Ej0kz+s8OwW2PGx1\r\nAz2c/eE81emwPBL70DzIab08Jh/KPBSY9Ty8dLs8MrIrPQ0f6jxSfcE84UDnPLCNvjzZxLM8YWeq\r\nPE/jpzymyxU9kEHvPP/3tDxojbo85UDGPPLevzwZ89I8NpqqPGCOzDwMPuc8CW7QPGdxCT324vs8\r\n7XQSPSjErjxsXtA8aBy4PJxvpzzQMbw8gpMDPTINsjz8tLk86CKePPzynjy95sE8hq7DPDjAtjzC\r\nHuQ8NECoPBxqAj2ka6I8dAbPPGb1mjxVrpY82JLWPOSAuzwU9q88otfsPADznjx+zqw8kmCsPMLN\r\nqjwOurk8UQ3CPE5msDy4H7k8TpS9PHrG6DwqytE8zLCqPB7Ozjw68ZU8VMOPPIiOsDz0v7E8NWOk\r\nPIrgmTxbi5s8LwmQPD5tjjzolJc8dRWtPDQHqjz2vK082iG/POuZvDxeBLY8Ahq5PAaPojxGSpg8\r\nvVuTPJmZkDyIW5o8j8acPPBvkTwu1pI8bBuEPP5qgzyqf408ULeDPNy4ojw0A6o8toWcPBJjoDxf\r\nYaM8zICaPMROmzyDi5g89FyMPIxWkDwhooo8IN5/PGUkazy8ZXg8UKWAPIgBiTykj588il+PPHeu\r\nkjxVRZM8ENWMPK5hoTyJvIk8td2TPLiynDxuSIU8SDmGPPgefTwVgXs89EyGPFy0dDxQUXo8cI6D\r\nPKJLgDxirYM8T5iGPA+JiTxaHoY8iAOCPK8BlzyTpII8JOiIPB32mDwcmJI8Vrd9PLnseTxuE3s8\r\nZmR0PDYaZTy0aWE8ihaAPD8BcDwwU3k8v2lqPITrdDxKh4U85EN6PDLBcDwk0nU8SuZ9PFxKfzx/\r\nioo8/al7PJHtZzxO9Wg8FQVpPL/VZjwaoGs8oSJnPGD0ZDyARWc8jt5mPCJicjxCjIQ8gr9zPOC4\r\nYjxg8mc8Nn9sPGzHaTyqaGs8hLhgPLzPXjxtBl08PBFfPP5bXjzYTW88iql1PGfkgjzjTHY8hTZw\r\nPFx4dDwSHIE8nMpzPK1/ZTz84XQ8nrWIPGtCazwEEFg873JWPB0MVzx2SVU8Gg9TPCT8VDzLZF88\r\nw7pjPDYhbzzCyGs8QkJwPP6+bTy+AW88NI1tPOxTcDxMtnE88Zl/PLg4bDyou2I8fyhbPGBzUzxG\r\nwE889hdOPIVVTTwUZ008cSxTPNgsVzwF8Vc8t+pWPAeWVzzm7VM8M/dXPKMqXjzSuF88dsdtPIMd\r\nXTxcNVI8zmdVPPb4VTxbjFQ8cAtWPNWQTTxq10Y89IdDPLSERTyPI0M8ZSxDPMwPRTzQuE48lDJU\r\nPBf/XTw8T1M8YMdZPH+fTTxrxEI8/WNAPKS+QDxUlT48vrdJPEF/QDy0vD48Qz4/PDGIRDz5VD48\r\nIlg9PJ7RPDwZDDw89Ls/PHwFQzwasEg85CNaPE8JRjyqCDs8pMs7PMQTOTzFUjk8wHY7PKitODzK\r\nCjk8pog3PGqfPDy87kI8VzhQPF45QTxQIjg8CLU7PBj3PjzATEE8TBBFPKYNQDzVTT48V4c+PFSQ\r\nOjykTz086kU7PKakPDwZNTw8Olw8PPBXOTxmpTo8DSQ9PFegNzw9Izk8nmI6PAa5Ojwvqzk86Lc5\r\nPOsHODxh7jg8pwc3POgCNzwZGjY8UIQ3PPz5Njyu5DU8/L42PPGONjzsjTU8xdk0PMnzNDyeIjM8\r\nMwg0PPc7NTxogDU8rv0zPBZjMzzvrzQ8ub8zPLlvMzzLVDM8JA8yPOa+Mzxf6TI83joyPEJsMjxS\r\neC88y7swPMHpLzx4bC88NGkwPJVKMDxQhy88bFwvPETpLjytZS087HMvPHrkLjxHODA8c0kuPGiI\r\nLzwEcC08OLUtPJNbLjxogiw8St8tPLsJLDzw9Cs8SsgsPNPYLDwWhCk8lc8sPOmzLDynmys8+sUq\r\nPBE7Kjww8So8lMcpPK5LKTxclik8kvkoPMQiKDx1RCg8f6onPG3gKTxGISg8QOgoPMElKTzPsyg8\r\n6C8oPMS0KDzSJCc8HowoPLLKJjxi2SY8ukUnPLy9JzyGcCc8FewlPHpyJjzE6SU8BsomPBb8JDww\r\nSyc8P98kPEmdJjy4bCY8PswkPFAlJjxoxyQ83X8mPPoxJDwiYiM8cTclPIGcIzyizyM82FYkPAvO\r\nIzyv9SM8M5IjPFL9IjwUTCI8a5IjPNheIzwT0CI8P+giPHb2ITwbJyI8mgsgPFrlIDzVwiE8sPAg\r\nPPXFITwkLSE8ln8hPHBzITwTlyA8FJ0gPHzLITwz5SE8yhogPCqXHzzDHiA8v9MgPBlCIDwwFiA8\r\n+Y4gPBcQIDyl9x48c1YfPGkWHTwoeCA8TtofPEZCHjw1Ah8897QePDlpHTyz3h08vsgdPFfXGTyZ\r\n9Rw8gLkePGUlHjxL1hw8LmsdPMylHTzUZh08F3wcPCnvHDxakhs82+AdPLw+GzyXRh080R0dPGbQ\r\nHDxQFhw8gugcPMl8GzyzYxs8imocPOy0GzyWLRw8PiQcPMHCHDw6Zxo88zEbPDtLGzyrBRs8IIYa\r\nPE58GzxbBxo8QDUbPAH1GTxo6ho8wqwaPDi/GTxHWRo84gMZPNxjGzzLaxg8NLAZPFQnGjxT8Ro8\r\nsrIYPLFSGTzmJxo86YgYPCB6Gjy7Vhk8GDIZPDyQGTx3yRc8imgYPNqrFzxu2Bg8PcgWPGIKGTxb\r\nRRg8lAYZPB36GDxL7Rg8cV8YPL8eGDwOOxc8MGEZPDXQFzyEihg85BwXPMgaGDx41RU86yIXPCL1\r\nFzxgYRg8NPAXPMqlFzy9Ehc8Wu0YPHtEFzykDRY8lGUXPFUyFjxN8BY8aSoWPE8AFzwgARg85EUV\r\nPLoYFTwEpxY88fEVPEYnGDxhFxY8XcoXPJ2gFjyniRY8ggsWPHplFjyfyxU8gPEVPKQgFzz8/xU8\r\nB3sUPNGBFjzuAhc8zdsWPEhrFzy2YhU8dEgVPOZKFjxrDRY8o78VPHwaFjyUShU8mF4VPCuMFDyc\r\njRY89lEWPAeqFzxh5hU8XaYWPIgBFjzXjBU89wwWPHr3FTwuaxY817kUPB7DFDx1ABY8GL8VPLt6\r\nFDwOURU8p/EUPClEFTwiDhQ8urkVPO79Ezxe/hQ8fEEUPLYBFTxsLxQ8ObsUPDwtFjzdLRU8kI4T\r\nPGAkFDyLahc8L4oVPPOmFDxGzhc8OXIVPG1NFTyIJRU8D/sUPPFRFTzcahU8LG8VPLG7FjyjUv0/\r\n0A4jPZYtPDzwkEs7SptMOq+ZjTpBWtM6W7sEOoCryzp4Dxk6B+d3OgVszjkKq9Q5jlIKOuLpXDpk\r\nESU5RvheOUialDnuiZs5qF+GOZzgPznUefg4qYygOXuItjnKm3w5E6aIOW9ATjnmUwc5nXd0OfAi\r\n1Dj915U5zGBpOT/yHDk6pn85HBk2OS48gzkRbJc5OjZfOSvl5jgsE285chKUOYR1DDlDM904VNf7\r\nOGx/ATlItAc5+rDpOGZt9TgIfO044imVOYCJqDmH+hU5euobOSk4KTnoit44MDz0OPkDLTnN5Jk4\r\nJXqJOYokTjn1TLQ4osYIOEsr5DgWJOw4eWCLONZ8yTh6eYQ4CuGRODBKgTi7PoE4rjaBOJ4sEjkL\r\nEpw42GF6OAa8fziczC45dJhCOfLcyTjv0Qs5jv3jOLh36Ti+GYw5eFmGObQUQzl6ikM5bnjKOfT0\r\nhTkZ9Wk5ggICOQidajl8IrY5Ox3mOXOjXDqmoAk6i+kYOsHO1jgDxHw4NilTOPJc5DhTRaI4sYNz\r\nOKoWejgoJ+M4x+CeOFbYvjh0T9A4yWxgOFbM7zgacsk4UNfaOLzPJDhOb9M4hBCyOLKrWzg+eSs4\r\nyYe6OLC2rTg2q3447JPsOEfsmThw6hY41otyODO1LzkS4S04p9ibOBsq2zgP+cY4JrFuOLygcDgZ\r\nd2M4lE3YOI6NsDjM/4A4SFrTOHLuoDj/I7U4shxVOPMqDDh1e6M4sWqGOGPdpTiG9lY4dmPQOAxL\r\njjh56P43pm1oOM6f2ziE9Bw4yLAdODzFSTgkuzE4DT2OOII38zec4jA4UzQ6OJFtaTjoUZg4hRYn\r\nOIrO7jf2/Uc4A4MPOLOK1TdFIag4eBT0NwscNjjADu83ux3COMvq8jdeV1A43FVoONkbgziTL5E4\r\nSSD1N15lnThvGBY4xt0YOJbHdjgB64c3n+YMOJgJ1DeqtAM4YhwBOCAZhDjhmww4uLZ/OHukqzgH\r\nzSI4PhgZOLYb7zcavXs4n2JfOAGKVjibysE3UdVNOPyBUzgJPco3TgoCOOISbjj4xgA4ObcrOMpZ\r\nEDgptDI4MHqGODKfjTfOrKE48pirN7/G/jeLJLE3r/kPOGChMziOvwk4eB4gOOpBRzgMcTI49o0r\r\nOBHInjf+eCA4PKupN+hAnjfsVMs3BE5vOHjc+Dd5pUE4/mrcN/wUazjNcN43OGsjOD7doTjogbI3\r\ng/9ZOIwGTzhIAfM3QsGZN5jttDefqtg3oDnCNw6Yvjdd2S846tznN0UAITi7r9c3cxIzOBXgrzci\r\nsQ84lqKNOAMrmzczaKU36RqnN2NI7zcGbRQ4LT++N8kkaTjvVpo39RKeN5q2ITjjiww4gNM+OFDp\r\nAzhb7vU3R1FkN0lGOThK3gE4E5g9OME0CTjm8K031AvAN6YBIzjNAs83oeqrNwosszeoges3iYGh\r\nNzjz6ze0VdI3nFbWN5hdDTiZX/Y3MoJoOID42jdw3G84oK3PNxmnmjfaZR04DP+AN0HipTeaLb43\r\nDM04N0UE/TcGbvA3ov93N1w/kjcHlZ03ssQGOP0Owze6GKc4sBdhNz4ZuDdqWOs3pLMJOArJ6Dfu\r\nITE4z7wzOHwTeTfw0ro3yyfRN+9yJzgXUro3dMngN6hlKzeK+Zw3NAjjNzdSSTd8DNo3tWOuN0TW\r\nGjhYCPM33qJoN58JkDcyO1M3pJckOBKN6TdvX7g3lelnN+05izcI3NE34wyiOAsiCzjsB5U3eiyW\r\nNzsBIzi5kCw4zQoQOBU0FjhDLpM3DnLbNwFmBzgj3W03SNG7N3zPvDe8jhs4hFEFOHG4qzcQdjs4\r\n0HSvNxWT4DfHuyg4i8Q+OIQonTc6FBI4QHuqNx/AnTfdlgc4lAOfN9uZJTifoA04d8czOFOf5zdJ\r\njKM3Y4+xN2WJzzeqDTE4GTe7N8eKETjw2yc4HnQpOBCm2zfj3QM4R44mOIxfBziuHBQ3qgQDOMrs\r\nzDcwNcw3qe3/Nz/TrTehGdk3xYJ6N0mBITi6Xiw40vc5OKTauDcO7YE3qqLfN2sLpDfE3Qs4IIZv\r\nN305/TcTfeo3rXyHNwp65TeK8Kk4kWhxOAgO0jcSlCI463e9NztmzTccIqM3yPSmN5YnpDfKV903\r\nNVQFOK8HMzdlB+w31bbvN05uijekLwE43Un4N9e/ZTj2M7Q35sxFN1Wb8DffGc03KNqlN185FDii\r\nlZw344ClN0vAyTduLD44k9/0Nx8zQzettU44oH7XN/5K6DeK7TM3zEetN0sukzcUUgM4NDUBOKly\r\nRDf79sI35UA1NwHmxDfFv3Q3Zc2gN6LKoje+3xc4NGe4N9xkvjd/nvw3pjYaOKcwUzcmyRM4zltY\r\nN0SBMDiE0I83/GpKNwyr6zZ42Rc4Q0rJN5n+MTjWHow3aCbsN2rdnTecpuA3dsQmONtosDdWHQY4\r\n5NnVNx9C0jfHWak35j9KOMAJ8jdhhfw3+4LzN9qRoDfLioI3MOIVON5TnTeEkNc3wU1kN1zQgjeq\r\nXrI3Odv+Nw55ujcxhqo334MmN3SomDdBKTQ4+RwpOO4OEjhMxrU3f8RSN7deiTeIpoI3IyC6NxEE\r\n1Dd09fk3uljnN7r8lTdN46I3KiwaOI2XXDgpcgI46Oe3N1AynzesdKI3nnSjN8NyHDhwiKA3t9ha\r\nN9pwCzjlj6w3GDUWOPZdaTekUe43Ko7zN/RGhzfXbPs36EnpNxyY9Te0iY83IxTMNwCCgjecvq43\r\nYkHrN0ymYDiO+P83TRPIN3IvoDeunt83/BaTN67/2zcL3Ss47BOfN7C5OTcrPC04PmOKN/0obTf3\r\nrR43rSgKOG9Oijca7WI3BkmEN+gtgDf2vNw3i7ZcN0v8IDhe+rQ31jS8N4jvAzh1T7Q3kw1jN4Xp\r\n6jcVvOs24IKjN18UxDdu2oY3jK4iN1cJkzeYJPQ3WWgZOOhWDTh0U3s3noS4NzTlOTgCAss3g09r\r\nN//KgjePNRE4KM3ANxddAjjgGKE3yESWNzgkxjf+izo3l1W9NzSBwDeyA+k3PFE1OH22tTdYs8k3\r\nmMlrOC2Q7zesWrc3CahzN41mXTeycKk2yD/LNSIfajV5py41EdivNZrQtzSQQgs1bpAMNRB0iTQz\r\nTxc1iKEVNaR3BzXsGto0gox8NHdC+DTvyps0QeFJNdb39DRmidw0L1gdNRv8jjWk97k0OKzMNPAQ\r\nKTT0bQQ1TV8ENb11qjTGEZQ0CHTBNK2XMzW9Isg08HsVNbOauDU9AAI1kE3bNDJhvTS+luo251RD\r\nNxdlMDedAAw2HEf8NM6ZxTVCEMo2fvEfNxCBtjaEeq82uUqrNmTMFjeVhyw3DLjTNQqjiTVmgYU2\r\nP3WSNqR8+zWF1xM1EpaTNWEv+zXphCQ2VDPqNUfh8zbWves24aRDNYGEJzWDQEM2JiQrN5zETDdA\r\n6QM33awxN+2QHzfDieo0EH6GNnhxuzd3I8g3HcTINwsVgTcSEcw2sNyFNdLY8TbgQDQ3GlwZN5CH\r\n8TaPCzk2++y4NrDWGzVD99E2PEugNhLkwjb8MPc2Mj78NDEeyTQGYgQ3ZhSINn1aZDZJL6k2klfN\r\nNMbMKTXqdYM27ZObNoN0YjXRKFg2kB03N4tHpTemJIA3EhOaNsRiLzbrAdY015enNpBpojaaBKA2\r\n5shJNy4lCTfypRA23uT0NeYhnDbMd0I2WDheNbtDqDXuiqU2XhnlNhwrDTYi5AA3es+bNjEoMDbw\r\nCEg2v1f0Nrgy9DYKaBc3xfU3N/zsUzau/hY1mbUINZAUbjUhZP40mgc3NVJIhTSKzQQ1ldWCNLa7\r\nEDSI7Ss1iwFCNC3/JTRceIU0GorQNCUQljSc9KQ0AA7INMJJ7jQoIbs0hks2NRXjLTSwoq40j1ql\r\nNFSEmjRVnEY1l2d6NCcSvTQzOR01qUUlNcu2EDUh2d00/HN4NaJfZjTz2yg1JW4BNVQFHzWKSZw0\r\nNt4ANf3/tDQnkkw1yjQlNfStpzTSGHw0W8aeNFNAdTQ16SE1a78uNdO24DTRb2g045e6NPm5ejRR\r\naSE1qIZmNC7e2DTjYLA0/EypNH5f1jT8zuY0Qrr5NOKKqTRlZI00b6QlNR0O1TTei1A0PBK+NC8D\r\n8zR+96w0elSJNMJxjjT5QwQ1daglNAks7zQ6W5Q0MH9INZF1hjQW4sE0qKwFNdOKDDWcXFI0YnUN\r\nNYYi7TTHPBQ1vLHsNIF4EjUUO8Q0B3a1NE9pPzTasqA04BvTNFdJkjRooqM0xovXNMS1UjVefI80\r\nMGXvNGNBHTWHpMc05hxtNESl9TQcViM1uj4NNUBBBzUpmC81dfLTNJVXxTQaxAM1qrYtNcL/+TSb\r\nSvg0t3PTNLgjLjTbe/c0qr6qNJwBGTTbUDg1D5rtNAh/izV40b80ngApNQbQrTQsJNM0kwwUNQhF\r\nzTSWlQg1sHL3NJLS7jSAj8g09u24NLpKgDTQTww17W+3NIquFjXLrbA0AASpNOCKgTRaOLs0WnSr\r\nNJIojzQgd1o1SYzxNMbu8zQFUoE1Er5QNTBCfzVRK5o09cR7NXj9FjWOI3802VemNHSlLDWXZiU0\r\nsUQRNfg1ezTz4wk1Lb4BNYIVxjTafFk03he3NBCJjDQQuio1opWONOi8wzT/2dw0Br/NNBJPrDSa\r\nC5Y0Y8KXNLzMrzRjAZc0q7grNVMIOzW1vqY0d4KVNFdl1DRlWcE0QAj6NFA9yjRMbNw0BnSHNK/D\r\nsDRVw5I0fskdNM4fmDTWms80F+6NNPSKnzQFccY03bTFNLr+ujQSR8g0luOwNIEOTDTbsKA0M/tB\r\nNRA7eDRRD0o0ik53NGw3CDXTML005GGQNLPewTQiBtA0o2RrNGLlJDV0zc00gz7RNA6IGzUS/BE1\r\n89OiNIyVvjRUaJ80LrCbNMXjrzR1LugzHzG2NMbE5jTQv7c0F64WNd1/djTNIzo1w6WUNEbmTzSU\r\n99Q0GHuENOlYmzSq16Y0UajQNAq7XjQIbKE0LsJhNDP7uzQG47w0Fia0NN9D4TSq+r40XvR8NaVH\r\nsjTrDOc0rcGgNFWhsDTS+fE0QX+XNJXIADUak8Q00O+fNOkuqDSnVYQ0AFC+NFC0ZDQQKsw0wq6u\r\nNMk8cjQSg+409Z0RNZSOnDRdNAE1Y/mzNBAwUzVuRvc0Qe/8NBgojzRQRAQ1PMGBND4KwTRkIcQ0\r\ncIKrNLIC1TRxh7k0JNLSNEBZ6zTtN0407smzNAof9DReY980DpCUNCW7eTQjVn80esUbNfzqizRz\r\n5Mk0X90xNJgL7zRS+ck0HH4vNdE2hTQgNas0BknJNEEi6TT4lHk00zlCNaJ5uTTZmEA03lI6NHDw\r\nDjXc8UY0PKTSNAj18jQr8QA1oKH0NHoJATWbup40CGACNeLrqTTguxo16oThNMZfyzQqvOw0sAy5\r\nNDqoSjTgO+c0/BzqNHWAADVUVY00EqzhM0QIXjRxQ4w0IImpNDLB9zSwHQE1AIDcNA==",
                            "noiseTrainingType" : "default"
                          }
                        },
                        {
                          "effectName" : "WinCompression",
                          "category" : "categoryAudioEffects",
                          "parameters" : {
                            "attack" : 0.0,
                            "gain" : 9.0,
                            "preset" : 1,
                            "ratio" : 10.0,
                            "release" : 3500.0,
                            "threshold" : -20.0
                          }
                        }
                    ],
                    "start" : 1454,
                    "duration" : 2010,
                    "mediaStart" : 0,
                    "mediaDuration" : 2010,
                    "scalar" : 1,
                    "metadata" : {
                      "WinSubProjectDisplayName" : "",
                      "clipSpeedAttribute" : false
                    },
                    "animationTracks" : {

                    }
                  },
                  {
                    "id" : 95,
                    "_type" : "AMFile",
                    "src" : 7,
                    "trackNumber" : 0,
                    "attributes" : {
                      "ident" : "Narration_fracture-2-czm-element 3",
                      "sampleRate" : 44100,
                      "bitDepth" : 16,
                      "gain" : 1.0,
                      "mixToMono" : false
                    },
                      "channelNumber" : "0,1",
                    "effects" : [
                        {
                          "effectName" : "NoiseReduction",
                          "category" : "categoryAudioEffects",
                          "parameters" : {
                            "denoiserAmount" : 20.0,
                            "denoiserThreshold" : 0.0,
                            "noiseProfile" : "hIIDP22PVD/EWV0+ZKBePjkUID6AtWA+CNYQPsdiYD2t6sw9NttMPtCwnT7zQ0c9bJ7YPGUPEj4c\r\nnhg8r4U6PWBPQz1FeQI9Lr7NPHDUpT1A8r09UxIUPJz8/TxSYFU8gcFgPWUoUTzATn478ZOyO8oN\r\n8jv7LBM8sjLEO7ma0zt8Uxs8cji2Onns0zur85o7Sy0HO2vtJzssdHM73oYzO36pVzorNh87TYVf\r\nO0TIaDqineg64BRiOlR08DoST9k6bVKSOumOFjvcj546iwYQO8EJLDtuYpI6NGSlOk2kXTqspnk6\r\n/AMBOkqdLjoXuME5yo9jOgwKcjmAu006g/XMOpihiTqMHfs6W1T8Or3uHzpo1pQ6vGPgORG9UznI\r\nkmI6bKJyOgwdoToqFAo7zOOaOeABQzpaHN86trgJO0MiIzvNCkA7mWN/O2mTEDxbrwQ7FIsUPGIY\r\nETxv1Z87dGAFPIRqJDwdVEQ8xYQZPGDySTxUVbY79sbcOxjKKDwFrHM8VMKaPGGc0TxSSw89eKdF\r\nPfANhT3hZY49WpWoPVr3yz0sIMY9yFGvPVbLtz2IC7Y9TKK9PVjnvj0EM8E94H3OPf4S4j0v+Rg+\r\nL21JPh3QZT4UnXs+juZ3PlBsiT7ljXY+khc9PrbgGT6hFhk+ChcePlLMOD7/b0k+raJSPo6wbz7q\r\ntIg+ixSRPrMDjT5exI0+sL6UPmkzkz4rcZw+2dSqPnf9xz7GON4+vhkCP/g1Dz/EVxo/+v8bP3nW\r\nJz9NOEw/6BhVP9QjQj+Hyh4/plkFP4b8+T4q09U+G/q6PjoDnT4rPYs+6nyHPi7bdT4JRkA+D10H\r\nPgd52T0s3MA9nB2bPdZzXz1OxB0998MFPStY+zyKRe48ckT1PDcn9jyTt9Y8oKq1PD+hmDzBJXo8\r\nOWMzPLu2FzzPIgY8iSrjO2EDjjsWlo07xL6DO9zkdDuZ6Xo7qkOXO8AcjDvQIYg7j41OO26gJjvE\r\nHRY7kN3dOlJ51DoSBI86w82SOnCehTqacHs6CFJAOmKXbDri5kM6JjErOgLvUzrUfio6CN0IOknq\r\n2znIQOo5p2KZOTaN6Tm96t053OLQOfLT2DmPoJw5ueK1OeXnlzmzo4Y5VrqlOd81vTl2H5g5M7MZ\r\nOQ9EUzkZ9LA56M4QOnxCPTrohok6FS2EOvv/izq0BdE6PFCqOtk/wzr+pAU7HAEKOzQeGjtDqCA7\r\n/SxaO5zmgzstn4M7zpCXOwlBbDum7XU7VT6AO+7XZjt1VEI7KhAWO45B0jqKq5s6SzibOnMp0Dop\r\nDzY70UcqOz5kOjuIEiw7VIgDO6CC1TrU8Uk65fo0OufX2zmS8vU5jL7wOY7qUzmcY0Q64G4IOuC5\r\nwjkAqwQ6/F/SOX4koTm2AVg5JlmfOTirnTlwjRs53u0nOaqwaDmqJnU5FjaMOSmllDnLyX44Jv4R\r\nOSZ/hTmoitY4thApOQDDgzhqd4Q4dbBXOCDqPDkDxIY4xIrsOL7TFTl94sQ4juShOWAhizlHvRs5\r\nhjJZOaRgTzmA41c5p36vOKR3jDh3oMo4cyQ8ONKRKTjVwq447/9DOJXHajg8EwY4JZkWOKY6njhw\r\nA2w49DpiOdrEiDmTk7A5VL+jOd0Rujn+aEA4QKS3OCOVwzie8pI4879WOSYwfDmcMU45vZmzOcDo\r\nyDlcUzY5duyfOMYPwjgNSrg45xTTOFqNBjmE5iU5QV4eOFGEjziev/w3ma8YORyPlTjG3+c4hkkW\r\nORSGkTijWqY47JQDOP4KBTgNY6Y4rdwmOMIKhTj7FMM3uENfOOjbLjgSdHk4JaU3OA6RRzjMGTc4\r\n1gLUOEeXKTjceJ04r9cyOHgjrjjOt5U4L3ofOMQCHDjXvxI4qMdTOHb6iDjpgnM4avPoN0YVgjjS\r\nuzo4fvETOe4qcjhJtms4hFELOKaVVDjJ0VI43KT7OG32hzjtfwQ5UM4IOXp5UDjR5UU4uv7FOPRp\r\nSTj4hT44edCuOC/0HTjF2WI4Bl4TOMDe0Dh0GK84RF4MOMSkJzh54yY44IR+OGok1jeTo603fMBB\r\nOGpGRDieqGo4EuQGODSD7DhCSEw5tCMKOTwG9jhnZBs4XL7RN23naDjZnDQ4snYQOFIH8Tf534Q4\r\nBdcBOMAHpTi4I784ihdlOQwg2Dh1Q9Y4qSBzOZ1RUTgXI5c4TlT4N+gbLTg9HBc4YqDjNzbNGzie\r\nLXY4YwJMOOqDYDgBNiY46E1hOGb46jcP3Ak44rVVOMEkjDi5DMw49W0QOAH+rjiX0eA4tFtUOH1R\r\nUziQETo4eXGnOBYZiDhsP3M4Lp1jOLhePTgwQlw4MMjFOMiZXTjzE1s4J5agOOJwvjhu8bw4mY9r\r\nOA2QCzj0ESA4ffsKOHCE7zf2oYc4P2QPOYPiOjk/n4g4zJEiONUPPjjRirM3VpqzOHwoIDhkdDw4\r\nkpHNN8jbMzjZfPM3S7cmOCRUIzg0Bh84vYraOAAXljhZyTk4bK6bOIXbOTgQ41M4KyIdOCHKkDi/\r\nVlI45GZ4OHyEgjiAoPM4qkerOAJYyDiNO6U4HlTOOIaKpDibhKk3nkjeNw/w0DigMG842e8MOaz6\r\nTjlvFoA5rDY5OZbjUDnrnDA5ZITyOOEN9Df5tAs4XsIYOO0HijhANcg4qLTGOEaciDk94Jo5BBos\r\nOccPPjnJoUU56Tg2OST38jiV5Q05voYrOTzpUzmOB3Q5CDnBOY3Qgzlel0Q5G1WgORRkeDlABj45\r\nKFopOWJEGTmsEz45nOBhOVYEVjlXD1s5E5YKOfLYczmzLyg5/EsAOXlE+DjseA05yN/IOEpZuDiM\r\nYF04mjDyOCjKnDhBsZ44kvVHOMNnqThuWGY4fB6SN6UWiDhYMak4xHIMOWxT+TfttAM49bO/Ny97\r\n4zcuvz84EV7eNztrzjfgebQ3HsKWN2gt8zdYK+U3HFIbONOcwTcEmcc3iyfrN49tUThoKh84qsz3\r\nN5PGejggQJw3oqe9N0hP7DcAW/k3YqYdOAVDpDfLPrM3Kh/yN9B8NTgy26g38rESODgB/Tf+vxc4\r\n2vXCN5LPrjc16p034KyuN9nGJzgX/b43zP9GN99pGzbu+081JbMTNnYj9TXichY2wDgBNuo/jjV0\r\nqs41Hs0INjCB5jV/X5w13HjANW/08TVZ8Os1Zx0MNpkCtDUTmRk2N72+NXUNETbeJAQ2Z/XZNagD\r\nEDaSibg1uM3ANVRIBTadSrQ17AJCNiqYBTZsCTQ2oRY2NsJThTYDjIw2+uIdNq1iqzafzmA2oIl1\r\nNouPuDYZq5Q2QpodNpdVKDY9gCY29PABNuga3jXm7qo18N7aNfNK7zXpHuo19DciNhj/wzWZi481\r\nMiliNutUhDaS5JI26lReNgCcnTa2/Kw2TE87NkyUQTYSMHE2HgZJNpf7HTZAPyg26r0FNj+K/zVw\r\nuP41PMosNu1bGzYNmcQ10qrgNUJ34TWmZc41djgPNjrl4jUcjwE2MA+mNT9GFzYsR8A1tDKNNWZR\r\n2TXmYOY1tYhPNrHIljVNcq01Wb2gNcIr5TWfSrc10vDwNemd9zXFgL81wM3QNU8X4TWmloE17MyZ\r\nNaSIWzW6ffc1e/KkNaZcpjWSa8c1He9oNcDxuDV5Lik2FRoDNtXxSzV0rLs1/8zpNQCAnjVOQXc1\r\n7gaJNR3A1zW+hLM1mQzWNULlszXDl6c1tX0INvqYrDXoM/Q1dbPeNfA8iTUAfQo2AqvFNW7IATY1\r\nct01HLGTNXUNcTVGvKI1ep58Nd6oDza6RKM1xBTANQxNeTWWsac1i1LoNSZilDU2nM41JPqQNSlT\r\nrTVnpuc129fDNfA9sDVV47M1qMX9NYpVBTZBCAc2XHaENSBgjDXUOb41Q+hSNdQtnzXsgNA1k3uP\r\nNW05IzZUOsM1DqSfNTyEdjU4sc81w83cNR4dFzas9qU1xFVRNTQOcDUEkq81ZQx8NSxYPjYtpZw1\r\nmF9kNZ0WzTUO0Ow1EzOhNZUauzWzZN81SLOcNTKotjUfAYU1UvpoNZyBlzUh57A1lOuVNdd46DVO\r\nIrA10rWENamrVzY6wcQ1aVGaNWMSADZeS5k14hcgNnr3WTVXTsI17nfiNaAXjzVO+cM1bYiiNQOE\r\n0TVwWO01YTUnNrKQPTXyzJY1kbOUNR//1DXllA02gtJlNT3tizU2Si01htnLNZy1STVpwIM1Ey3F\r\nNbhfzDUKn6s1zObMNYIbXjUMbOs1n2WiNVDphzUMpMc1exo1NbJQizWYuvs1MCGPNRN7LDVEmdI1\r\nqJmXNYHCRTX/OXM1KS15NQ0sjTXohKE1jWhrNSIR2TWzAqo0/WmzNavQmjXIxt81lpSLNdb9YjW6\r\nCb0138SQNf/SYTXaJ6M1Z/9ZNbDlrjW5fB41ZO5tNcvqiDUWdVU1TR/HNTGkNjUZKao1hNLFNdq5\r\nWzUTNxg1LIikNUvI2jUc/bY1YWO3NU7slTVJW6U1edtWNRbGlTWvOZY1bUl9Nc03tTU9hV81FIfM\r\nNe5x3TX+CxQ29leTNeG6MTUFY3k1YohSNUUvxjX1egg1O3qqNVYiPjVPT7E1G3B5NUTMfjW1k2E1\r\nLICVNV9MtDXWru81CqCsNfc42TWEj5A18fkGNreSZjXg8HU1VToQNRuOwTVm9FM1LxJGNe+ofzXu\r\nnFM1wmngNduBqTVjP6E1T/PUNaR98TV+GK41sS2FNSUdcTXIM481A22DNWlFgTXQw/g1gLtNNfBF\r\nnDVYLII1HpCkNS/cFDXOdUM1l/BkNU+wJTWt8Z81TCaLNaw2QjVCASY1z9OsNTJDUzWi8hM1obKX\r\nNT0omjVi+Zk1uKjcNRrB6zWIuqA1QJ3RNdHyYjV+7bo1AtS0NZC64DV0EDM1vMqCNUaVfzWNX9Q1\r\n9ykGNlnajzWTR4w1PEdvNf9wdjXU9741Kc5oNUj3kzX4+581TLaJNZhDjjVAZ1Y1MqIUNRouhjU6\r\n5081HnzuNRnRSjVar7U1jPHxNXFHATYbQIQ1za89NfkrXTUXJMg1crbSNUB7sTWo9zs1zZW0NSKk\r\nkzVID9c1xdmWNdvUTTXBOp81adtVNWhZnjVsVKc15v4YNdDrzzUKxFU1ikyMNSVbkjUL+mI1Jx+T\r\nNcHoGDWIJL41rg/fNZDH4jVU8Po1vJalNSrrtDUsiTU1Tj33NJIsfTXNj+01Q/J6NZyUrTXHkfU1\r\nCRJ0NRgolDU7DtM1yNmCNXMzgDV8WFE1LqHJNYdrUzWbrpQ1wlp9NSRMkjV7N4s1LEasNZrsSTWw\r\ngJg1wQqvNXbipjXMvIE15ACXNcKYTzWymhU2qKaxNQ0k7TXf+b41nxg6NZi2Eza2s1Q1akBNNRQy\r\nEDZMH+o1mbyWNe0LkDVJbrU19fmoNZzUDTYJpok1TIyjNXq5iDVP4+M1d8c4NYHCtjX26hw1rOW6\r\nNaO0iTVlnbY1XjatNZN13jUtqUk17KEqNXJrszV5IGI1zPllNVA6iDV0QbY1aGBzNQAgqzXegoU/\r\nWOcqPXDFojugWEI7D1TcOhvoMToVHew5nrqKOQqRtzk5kU06yl6ROYTxqDnPupQ5lgu5OfIiODnY\r\niKI5uPPeOXNoIDm/qZM5UBSXOaAdRjkE8o85hgttOUXxDDkKATE53D2oOElnXzmqXkA54MJLOR3e\r\n5zhQ5io5tl0MOVcfDDmsL/84COK4OI/xFznB9U854tXlOGVi2Tj176E4lCvxOAWiwTg7L4c4s0cN\r\nOPc1wjic/+Q43OXCOB/7qjge8CE5IkKYOHr6RDniKyc5zvEFOVSkMzkks4I5kHzBOC0WPziIMvQ4\r\nrz28OHfRwzhxUrw4FTrAOEn7cjlx45Y4qx/fOHdo2DgpxYk54AOhOJ67BznK3h85iYb+OITWpjiA\r\nrKQ4tE0YOauj0zgwdJI4DCuVOKqWoDhgNl04mqqhOFcjtjhGvb44eoufOLR6HjmylKY4NGUAOcfD\r\nvjjcfV85ZuTAORUjPjlQDYg5KKawOSknAzowdyM6cn0zOeWngTkUtx85t1YCOXR3VjkEx5A4oRDk\r\nOFM+rDgXy6Q4dBt6ODxfWDgPKPA4VU34OPku1jggLrU4KbfnODWHXjj4a8M4kZ2rOPfkbDgd6Mk4\r\nCZMpOD5DFzl7fKE4xt/JNz0rjTjrQRE5CN0SOUTVRjjwwH44/ppcONq9iTg6E7U4nbeeOCQu4jhk\r\nDfk4OdNKOPmGljj4x8k4BhXrNy60gzj8CvQ4zY6fN+mHHjiiALw4YP5NOEXfbTjK7k04lo8FOTi+\r\nMDjmsdE4XGmTOB+ocDjnsHo4hri1OOJwYDiZciA4zomxOO9GWDiShaM47tyJOLlvBziUm7c3VGeI\r\nOHktPDjdzUU4zdZXOIaniDgbWfo388EQOJmQiDiG6404g/sLOJV6nTdisZk40FavOAVQmjhqnGk4\r\nmJ2wOIrNTTgXrmw4xuHQN/m83zcbqxI4yku9OFw5HjhCPBc4C5wOOMuRsTgZT304DZmeOIyGbjhl\r\nCZs45S1GOPxKgzh5pjo4PSnnNwqa5TfPOck3ELa2N9y3sTdg2w44OX/yN3rqOjiOWrk3mnj4N3OE\r\nRTimVC44TsYPOE699zdn+rY3lERWOMy3LTjIL0U4qjsXOBakDTgg61s4DAELOCkg6TdlVTY4PfY4\r\nOAUcoDhyki84vAMWOIwrTDgkARw4X/UCOAR25TfVPxM4tfwUOJWpJjilljI49F42OHI7jDcp8M83\r\nAFRjNx4q0jeeNVk4YYS8Ny8ysjcgeJs4BODKN7EboTcdSTg4/oztN2XyHzhYGdk3feqfNxaHHziG\r\nXCo4AkkOOOtyFzh94zo4JVfyN/ylCzj0pk04Zm66N/7pyjemLq83Zbu8N9yQpDdI17s3dLngNzbz\r\nbTiyCL43hAbIN4YhyDdAU+c3Ir0MOEqLxje8i+A3pUIKOEfIBjhqTpc30DKRN+PeTTc4/Bo42N/e\r\nN5b8FjhOgT446R4FOJ/yMziQuP43+arsNz1x/jeC0LM3emwCOKPvAjgcx6M3LGzsN38uhTdU5k84\r\nuKnXNzJMRTiyzAA4YlKWN45wVThpvZE3BfjtN/N5IDh+HwI4JOG5N0hZkDeior03kAiDN89P7ze8\r\nPAk4p1LRN0wWyzfGwx84rAQWOKT72DetZNU3UY+SODjwGjis9p43/v6sN7QdMzgrG+A3Tp7TNzqu\r\n1zffwMY3vT3TN/qx+zdOa9w3rXsNOG7tTzhfi9k3gNUZNwddxDd5Lno30tOMN2UOdzeNyT04H2EJ\r\nOI4GGjg2sK03CaPDN6tSzDfRP483xIFNOGI/FDhxgao3I3IYOBowrzer54Y3OFGuN2PvhjdLhkY4\r\nbBDlNzccTDg2Pxo4emgFOPJJ6TeimvU3k4+HNwwfyjeiLRA4KpEEONDYGziKaTc3nNyHN6GFPzjR\r\nj+M3c7JSN9yKyjcd1+03mLgaOP4SiDd4CyU41+AJOCWVdTdYAYA3kNjpN/RAGThvGfo3iLSfN3qh\r\nyTekE2w3adLMN0YQxzdr0As4HX79NxBh5zfMGR44a3m/NxDmkzeTD9I4qjTNN/sLJTiPqgw4Mb6b\r\nNy2v7jcEOQw4MqExOC80uDf2yWE4DL4KOO2gAzglCQE4LZm0N+iuYzda7Ow3UbyLNzpnYjcHm503\r\n3sIDOLIlHTjX9gs4vPLKNwcfzzfvFsw3RKzENwjLoTcCgbs3RjZFN7L56DefEtg3hifLN9YLfTfJ\r\nLdg3WFsLOHB8wTeiAhM49zahN+6tpjeqPK43KaMwOJq1rDeG58E3QPJOODnuZTiCQfQ3KWnoN4LD\r\nxTdAgcE3HngJOLVqozfGEy84ZVG0NwoejjeiXPg3vTHjN1WI1Dfm2mA31NgFODJixTeQcPk3XCCW\r\nNyghqTdXpo435asAOMzfpzfyX4M4MdkHOPefQDg6tK43lXsFOPddCTi8xyY4NSW2Nx6EoTcgswg4\r\nRA+nN43jvjexaUQ3fFGeNwVwmzfe5oI3O8SMN/LWVjdeBqo3O8RsN+3bATg2iL03QSzJN7v3tTcx\r\nQIg3MLKpN5Dk8DdzbME3kPvuN+awSDeOJ443bKYIOE3AUzfpKMU31Hz8Nz0PGTjfBuk3YLXJN1aP\r\nOTgkZqc3S2ccOHh3fzdzUpg39i6pNyi/0zcSm5Q3Qq1HN3MXgDc/sAo4PJalN/NiCDgE4KI3HsyD\r\nODI5rjcvfNg3Z8teOAWO3TfulUY3AmZDOCwmEzg8TXs3Q7FFOI3KKTjc6gM3OSqpNwC1UTgXQ3Q3\r\nFkzbN5l+tTciEzY4jC4TOGr7CzhAw/c3O8cUOD0vrjdThx84vleZN8Pz5DdynA84biqXNxbH3TfP\r\nwoo36x20NyvYazeF+243TuxeN2mluzcmJSs4wTyjN8MjdzeiWDo4oFbtN0dzsDdQN+E3le7qN9Dw\r\ngDghphA4gPMEOFUipzchLwE4eErMN65gbDfOX/I3LbqLNwEAtDdeeWQ4gopZN5ACkDcXaIM38ID0\r\nN55zCTgnuks496CxNxa75Td3o9Y3aMaFN8gkSTfYjN43yVQaOJVtkTdbEQA4J8HON6kvvTcLy003\r\nPrjYN9322TcJ1Qs4CyxKOPwN2zdJy3s3zRkBNs6YXDU1niU1M403NTjjVDWL6BE1Rg2DNel+mzWO\r\nzFA1zxAFNfPoBTWtTGQ1fZCJNdfW0TTkb9Q0gjUXNatUEjW4zTA19dqWNZVqyjWO+I41hDyONbsL\r\ngjXZaFg2aGtvNp2CXjbNBjo2VJO0NsKAjja1O2A2OcNFNuGJCzb4RNs1yQVVNi6WMDacFQY2OGp6\r\nNericjWHbxI1wDK+NEtdSTUzlzA1FtuJNREJ7zRy8yk1JM8ANeajgjTv/c406w4cNXKN2jUkIBw1\r\n1TD+ND86DTUsx5A1Zm4ANsy+GjaiTeE1PmvMNR7v3jVmxOQ1KjEvNoHSGja57AI2OsWYNZ+1nzUN\r\nTyw1gLNKNVk1yTSCsrQ0KvIgNbL3FDXIlaY0SPbnNLykZDQ9dUQ0DjOjNKuyvzQ0vhE1ED7+NFq9\r\nxjTXHNE0wrSmNE+ZrjRYiB81W74aNZNryDSgpE40avTANOF5hzRnZI80TEG1NB5ZhDSW7OA0AeLp\r\nNJd1gzQqAU00HrkLNYUoBDWwK9A0AXtMNICprTQFuMk0dK3fNIJ4ZzRYbZc0luieNJ1ZzDRMo400\r\nlAFaNPs2kzS72ig0nDqmNGBKvzS3q9Y0iWYHNQXokDQOG6s0IlWoNIg0LzQYYCI1J8emNBBTsTQi\r\nVlc0rSLNNPT6nDT7xNw0X9kKNbciLTXuub8097uWNDlHpTTYsbQ0Z+2qNLs3WzRcwgI1ylnLNCoK\r\nsjRg+Is0KyJRNWd51jSG1fU0+XbmNDerZzSTOdo0rgDCNOL93jTVXPc0G3esNGHk/TTM9b80YBkj\r\nNRgafzRZ7+w0ym8ZNdIv4TRZprA0Af4GNeMc4jRCAhk1fWhlNP345jQdxws0MjaxNMM2yzQ1XzM0\r\n6QGLNTUFvzR0I+c0APQnNWBwjTSCGeU0KAIjNZrfmDUKCMM0zYyvNBMP1TTwKnw0rw25NNJ4tzSo\r\nHnM0KjVFNRqtETWOnoU1ESyjNAJs/jTWlbQ0ULuDNGD2YjREEK808g7GNPMkMjXfEIM0qslsNLgn\r\n8TTYsJs0NEyyNIQnCzWqRtE0ssEZNa6njDSUncI0B8zlNJpL5TSD/0E1tJX0NJn4nzTejrk0Ldiu\r\nNLDYrTSiu8A04tXyNKYJ7DSUrbs0I5yfNGsWzzQ8R5Y0vBuCNKIBGDWSzJI0z6IfNZZ9tzR17Lg0\r\ngvQ6NZZPDDV6vtI04B8MNcrwoTRgHKM0wPCbNMrB9TSNuBo1T7vsNCfXBDX8dlI0tTIBNVz20jTh\r\n2VY0c6XTNMW7STS+zZc0/R+5NFT4mTSsk6g0WJGwNEVInDT8hlg0+kcWNZKagDTr4QQ1XKHeNPeO\r\nBTWY0t40vSGENGOANjXuoZo0Tu0GNY+7czQSvIo038YBNRZbFzVxYNw0kE6aNIq+GDVwG5k0QBmr\r\nNFPdujSzepw0D4yoNGYGBTV8hhs1LXnsNMcwIzUKtps0v2m5NBp+IzS7+n80ie7ONA+yWjVf45I0\r\nHLLANPbgXDSMlYo0rMgBNa7MwDRk4b00NHO/NMnYjTQ6vrU0GN+0NFRArTQCgw81CqmONNJUrDTg\r\nE/Y0m3bLNFBMpDT8sTc1dcPfNG5DozSn8t40OjbGNPb21zRsCu40MufJNLuLmTQn5NY0D0FONYpD\r\nfTScL4o0orQNNchO+jSAcAg1TB3jNCmD9DRxpoU0hLKgNPN6uTSSL1M02SKpNNlNnDTo9as0LrYC\r\nNd0RVjUaP+s0QIn+NCONjjQ6jRY1XDOLNONutjRWteg0tL7JNLGTaTS5p5804xxwNMmTrzQc1Yw0\r\nBJykNIFTOjW3Atg0NKgmNCwBOTWCQJo0sxBcNLMw4jRT70w0qWoYNdoLrjSO8M80D/vWNLgyVTVs\r\nvoQ0Gn4WNUq5yjQSgFQ07uysNI3/GTXkxMg0onTNNPTO9TTdQbg0wmU0Nb0yljRjtQg13nHtNOa1\r\nFTUfLf80ug34NMeO5jRIJN00OEaxNIcKvTQaFfg00taINCDyszS8Q6I01qrHNBb57zSNxog0GOye\r\nNAosxzQfyMg04NklNM/sAzWycg01e3ubNPjbbTQE0AM1AUDeNOzlozS+bbU04sAMNeS26zTd5o80\r\n7RkENboS5zQJ8N40kKDHNC/QnDQdbUI0OinVNJ2ItzRmpfA0GxN3NDC0VDXMwbw080LeNGF0zDTZ\r\nQ8c0qDL9NIez2zS4HHI0UMchNS6l6jSApwI1DJ4nNd6uMjUiOXo0nVS4NCxnlDRSmMA08P6sNBKs\r\nOjXYGO80xpKfNF/fgjQY5Kk08Tb8NDLzjzR0Ybg0SlgSNTO/FDXGHKw0SogVNWwKyTSw5QI10ceN\r\nNDf2yTRnnQI1mGA+NX2tnTRJPgo1qjauNG0GpTSOeBE1TjZvNFd7PjQIIbE0AAAQNQ==",
                            "noiseTrainingType" : "default"
                          }
                        },
                        {
                          "effectName" : "WinCompression",
                          "category" : "categoryAudioEffects",
                          "parameters" : {
                            "attack" : 0.0,
                            "gain" : 9.0,
                            "preset" : 1,
                            "ratio" : 10.0,
                            "release" : 3500.0,
                            "threshold" : -20.0
                          }
                        }
                    ],
                    "start" : 3464,
                    "duration" : 2788,
                    "mediaStart" : 0,
                    "mediaDuration" : 2788,
                    "scalar" : 1,
                    "metadata" : {
                      "WinSubProjectDisplayName" : "",
                      "clipSpeedAttribute" : false
                    },
                    "animationTracks" : {

                    }
                  },
                  {
                    "id" : 96,
                    "_type" : "AMFile",
                    "src" : 8,
                    "trackNumber" : 0,
                    "attributes" : {
                      "ident" : "Narration_fracture-2-czm-element 4",
                      "sampleRate" : 44100,
                      "bitDepth" : 16,
                      "gain" : 1.0,
                      "mixToMono" : false
                    },
                      "channelNumber" : "0,1",
                    "effects" : [
                        {
                          "effectName" : "NoiseReduction",
                          "category" : "categoryAudioEffects",
                          "parameters" : {
                            "denoiserAmount" : 20.0,
                            "denoiserThreshold" : 0.0,
                            "noiseProfile" : "S1AQQULNGEFOQvNBcyVRQXdRM0Cx6EVBrHClQRPjw0FON09CdkeiQx3AIUSkHqpDnPqgRBe2hkS/\r\nLbhFiSmtRfBmSUO6voFDdlDKQnNsREMQ7rpCcGx0Qr1l6UIVbQpD9laFQ6FllEO6T8RDQUmXQzg5\r\ntkPH7PdE2W6uRB6rF0PT0BFCQvSyQjzKcELX1z1DIpV0Qr6bOENAXo5CiOQ3QvPWV0IZQbJBkds3\r\nQjL+skLAYJRCwMtHQciJFECopFtAWMHzPwCBrz822Mc/qmuJP7fpnj9El54/UsCZP/5swj+eJsc/\r\niuPEP+thakAqUa1ApjGsP7ifwj8R4Ks/8/eMP32GD0BvJwU/Ocj1P88ZJj8+cuQ/NU2eQAj/oEB9\r\nbpo/3YEIQSgB0UHP95xABzEFQdrX20DMUrZAWpVnQB7hEkHzZg9ArlH5QJauhEC633JAPRzoP9pb\r\nUkCCYFpA5yAMQfua6ECSJV8/Q0ACP8ZVoD+TFyg+bnNNP37brj5ffAo/zn+iPoTeLD4qEjY+aFst\r\nPkOqxT5oNrw/dRUgQKZnwz8Lpmk/gKtPP38pOj91ft4+ttz8PtARTz9xQN8+cSgkPyxwAD/HBZo+\r\nRaj8PdapAz+OSSpA9VkMPn6xnz5ZrII+mrXOPsdnvj7M0iU/1/d1PvJgoD5Iwws+hB2ZPvbOiD5/\r\neDs/lwMbQGvklEDm9wlAKOH3P1RaED8XnII/4S7ZP1DQED6oGU4/UVljPymHRD9CjEg+p2pIPvAV\r\nuj1faZw+UpKNP0XmyD5MVEw/It3TPQSuPj2izH0+SPkZPhDW0T2MjzQ+DTV3PstKQz5atJc9rNM7\r\nPkHxiD4XpVI+PvarPW6iBD+XFFs93kSQPYeaBD6Qop09YcbvPScaWz2wgx89OTKKPRAYpT3mXTk+\r\ndmWuPlknST5bvsE+SertPW898D63Z4s+hkQiPjqsgz1CPrA9Vf6aPU1b3T0nETw+on2ePhw+Kz71\r\ndJE+q0hbPsx8PT/a4hQ/ylfXPnJBvz80hRU+ggU2Ph9qmD7Oq0U9gY5QPSDwiT7VJdQ/Q9UHQIrN\r\nCT/blyJA/CakPfQj+D7K5ClAOlwcQIoRnD+FihtAqCVIPuNruD8fOBc/IpNJPhtrRz5YhG0/aoMG\r\nP9go7D6udng96FibPaPNYT5OXVw9QqKiPc3A2jxOiHU9c5ARPdXHcT3apfY8ol1xPW/G+Ty039o8\r\nnNmrPRLz4j08ax497W3mPTmS0T0PrSs+kpZEPpgjsj6jNiM+gwDoPvdSwD74C2Q/PfGCPQisOD3w\r\ndLM9gi27PgoiMj5Gvr4+D7QSPg5+pT4tUwA+0iyuPspibz544Jc9kjF9Pv/tBT6G0Cg+SrfVPbYC\r\nJD5FsIM9drELPq/3gz5YyAM+hjTXPe5iHz0wNS8+zMQMPrWHlT0aExQ9stxBPSAu4zyjWzE9VHAK\r\nPXRsEz3OWHg8rqE1PUlqIjydOpk9A8wrPWL3Hz2aWL88kvMAPQXSBD0eYCY95OUOPc/JyTwmMJ88\r\nkhbxPD3EPD0tL6Q88OB/PMQCHD0jpNk8Z55RPSq9IjwNrl098/bbPGcCPz3prOk8pDHgPBqV/Dzi\r\nAss87BLePATQ2Dz097U8g+gJPQ69uzx/Kyk97duHPI7iFj1OaLg8rL6TPCCXwjyZFqM8TwqBPG0p\r\nzzy5/MY8i3IoPTI6lzyFFuc8si5NPJTSrTwHTIw86KDYPKUq+jy+ffE8Sau5PPrvUT3C7gg9sSuC\r\nPYb33zy6lV895j1kPKxTyDyGGcM8QsXRPEoqWT04yTs93mUSPXfyuzwTBwc9tIR4PRZMJD1R1qc8\r\n2iaqPOLcCj0QNco84SiIPHWJaz0cjgM9DOgnPaA6MT3K+zs8gBc+PQnMfz2l+Y48KKC7PFmzmD3e\r\n7YY8GqR5PIjsWTuw+iI9dMRCPXtzKz2GLlk9RCrRPKit8TzuhyA9LzoBPTfQHT3anUA95k1HPaxT\r\njj2BTBI9cMG5O9iYbj0KoLs9dEcRPa/MxjyaFkA9w4sXPXfOuTyEPyo8K1l6PAq0kT1ysQg9Bj0B\r\nPXgI5DwHV6E8q/KjPBBhITxRhrA7nKXHPOL1cjzqOvE88IYHPeQTdj2ER8k8ZNwlPHzBVTyYhMs7\r\nQPO4POP7nTzO7DE8HnafPKpRBD0RtEQ9F1wlPTp1hT3O/os8+sA/PaGmJT2b+rM8oFyoPCwA/jwS\r\nB2w8fhSaPDhPMDwCNc88Yz70PCjMPTzT8wA9qrY8PL0dujzkmSQ9y8NePHNBKjzWQnU8kdxfPMVU\r\nFz1hhtI7i2l2PPYnCj05NQ89E5W6Oyg1MD2m49U84cutO9WEyzz58t48FrxHPD+g7jyxB6c82O5B\r\nPJPjZjx27ws9EhRpPFXYzzyO+Jc8XBs7PSH4xTzJBw88I/kUPTY+BDycC2U8AkbvPHXU/jzM4Yk8\r\npOsOPU1CCTxxYhs9uRlxPCew3Tykyrc8Lqm5PIqmtzxvsR88EVaXPJrgjDxlHL88Qxy7O66wIzy3\r\nPCU8J5SoPDlKzDyqwY08MlCDPC85+jzvKyA8IkBEPNip3juTE3k8xfeTO5slHDzlFLI8lIfWPMmb\r\n3jxc4Zo85qYyPblWvDwiURE8N9MXPL9WkDyMvCU8mEWhPHI12jxSAAQ8YHaBPGrTVzxKxv07zWDI\r\nO9P94zvch1g8hTxsPKGJXDxEEDY8WZHwPEqESzzEKjg8+htOPFnS6ju7aYk8CCJQPCDOJzzk8o08\r\ngM6CPMD2gTylgjg8ZUuXPDU8FzwknmM7gUC5O1ztJjwEq6Q8x8ERPHSJjTyOnXo8QkUEPDarmDxc\r\nfZg8fJIQPGIWvzsvCkk8jigLPCEcIDxjN+w7XEABPAubqzslnAA85u9jO7gcvTsgb3c7bqTSO1qe\r\n9Ds1N9o7tFEfPMIOCzypJ9E7XNrVO9bkzjtnl487HG69O2WsojuuS+Q7gpjROxp/rzs4nNs7HY/r\r\nO4TR6TskINs7Kv7WO8cg0ztgVNc7UGbPO4fLvjtNWcE7nEvhO1rN1jsgRdg73APLO0rl0js0ScU7\r\n6kXMOw8X5jtuw7c7KxzaO28SwjsL9ww8mS3JO6ok4zvo9vw7XOy8O/x+xztKlNg7QsTmO2H8mzvL\r\n+Mk7/66bOwOn5jskMe87KjfBO7Jzzju+DO07UFDoO0Rf5zvYc6Q7wpLYO9QgujtoYdw7cCjzOyxP\r\nkzsbCaE7wNfnO6mrvzt4msM7wpzVOwW9pjveQAY88cgFPITTkTs0TBM89uG3O7P/GTzrNPw7+BfP\r\nO3VLmjsjUeY7Jp61O+h30juKzKo7gFW3OwASpzuEKJk73PvvO6fNwjtke4w7tZGsOzYCtDtPbaQ7\r\nPpXWO+zU/jtw6607QUIMPOhe7DvdQ/A78hqYO54krTvMh7s7MxnIOz31ujt1B707esrSO3G0rzvv\r\n+MU7zTitO0zjtDv464473ITWO0I5sTuBeLg7qyinOwgM0jvv4aw7Ym+cOx7k4Du3dpA7qgfDO9zS\r\nvTu0crY7IkiXO/jx1ztnQ507zGu1O6i2uTsmJa47qM+wO/letzsj9qw7J5W1O5DWqTt5tbk7Kxyv\r\nO87zojsi58Q7dnW5O/5Mrzu+6aY7l7+qO39mqzsPEK07pOmsO79DrTtX+Ks7LyqxO6uurTvuwKk7\r\nhcXKO2fqljshY6I77iuhO88bkjta7r07IGqsO6Qntjtb/aw7A6GoO1ItsTuWi7A7wiOtO58DsDv6\r\n0Ks78AvSOzvYuTutJ5Q7l7atOz7fuDtNl5g7yDOqO+rEpTtU5KE7RC+kOwVRpDtOuKM7cC2jO2gd\r\npDttpaI7Ex+mO5GiojvGeqI7KCajO0npozuefqQ77BigO5+5ozvJaKI7eYaiO9tvoDtboJ87liqh\r\nO387oTuN4aA73h+gO2KsoDtA9Z07/tCdO/yanjvKl6A7S0ueO052nTu0JJw7ZpSeO8N2nTsK2J07\r\n7bedO7wznTsw9Z07x8KbOwlVmzujW5w76tybO6SQmzu/Fps73mGdO/n3mzuO3pk7JdecO+tkmjth\r\nuJs7tTubOzu7mzsmIZs7dYiaO1TWmTvIr5g7NDmZO0ybmjvoGZg7P+aaOzPDmjsO/5g7tYGYO1xB\r\nlTvEFJg7u8WXOx0ymTsfYJg7+3eXO9hRlTsUPpY73eeVOyodlTtLZ5g7Rz+VO6gCmDs6D5c7vdaV\r\nO1fTlTs4vpU7lyGUO0TBlTs1uZI7RkWWO/UWkzs0JJY7klqVO4ipkztwyZM7q/SSO/xfkjto15Q7\r\n3duSO3j4kzuMOpE7AIGVO7RPkTtqW5A7vgOSO4z5kju6QJI76KWRO/kOkjvfV5E7QLqPOxZYkDt+\r\na487e7+RO1JtkDuFO5I7GnOPO/TYjzusmpA7VFKROw9+kzsSMpA7uk6PO1cfkDv14I87l9OQO7sZ\r\njjviYI4756aMO2wpkDvzy447CMuNOzXqjzuOBo07v2qPO8w5jjtKnI07Q6GOO6QXjjvkuYw7ucSL\r\nO5AnjjvTXYw7ZP+NO0dEjTu6+Y07Cv6LO6a9jDv++Io7ljiNOyRajDtE34k7cjWKO4sfjju/54k7\r\n2RuNO0EejTuKpIg7z3SJO+ytizuZM4s7MJeLO6B2jDs5Hos7XFKMO3enizsiN4s7zO+JO/hoiTuH\r\n0Yg7nFaLO5Fgijtwjoc7DNCIO2vviTupu4g7/gqJO6S2iTukg4g7/xeIO70MhjvAhIk7JAGIO+xw\r\niTs2MIg7LCmIO7mUiTu5qYc70YGIO1SPiDtW7YY7eOeIO9ENhzvk0og7iO2GO0shiTvfroc7eDeH\r\nOyRAhzsqvYY72dmHOyrDhzs/eYY7oQaGOw5ziDsW8Ik7WiGHO6XehjsFHoY7KmSGO9yagzvHNYc7\r\nho+HO740hTuVnYY76jGFO/51gzv7GIc7ATCEO0n4hTtxu4U7T4OFO5eBgztKSoY7TNWGO3JXhDvK\r\np4U7KUKFOxzPhTsBX4U7zDaEO9gjhTt5m4Y7VW6FO2frgjs+Q4U7mgaEO6jphTu7sYU7DsiFO4DZ\r\nhTsLYIY7y0uEO89pgzvLR4Q7kn6DO0KIhTvbU4M7kqOFO5P4hDtO1YI7nmKGO/S0gzvmi4Q7hASF\r\nO83ShTtSpYM7DMKEO7IAhzunb4U7LwWFO0DhgTsaKYQ78DSEO5c6hDuGcYU7buSDO4FogzvM0IM7\r\nAOuBO3a2gzvik4M7mlSBO0AghTudwoM7k7CCO1qKgTsGZYM79d2CO2dQgzt17oA7x2ODO633gjtQ\r\nMoQ7FJKEO/Kngzvi64I7w0GBO5SCgzuDt4I7NBSDO2ZrgTuzoYI7vauEOzbjgzuTYYI7A/eCO8nG\r\ngTvov4I7zoWFOxXPgztA0oM7jS2CO/5SgjswioI7Da2COx0ggjt0JYE7eWeBO5pGgjuWwII7EmWD\r\nOyywgjuhVIE7fDmDO0bAgzu4FIM7mpWBOwo7gTv31YE7Oqd/O/5CgTtSq4I7n2yCO4hCgjtTtMpA\r\ndo1RPl3ppz3RZsg8zaOWPKAyKjxHnZY7akGBOx6ncjuAeCk7yOI+O7/3nzp6zhs7FkG8OqbNGzqW\r\nDCo6//xZOpUelToJ0TU6qvLtObB4PTqTvL85pOMPOreTCjrLi/U5M7V0OSR2lDnjnKU5mCSPOnEe\r\nzzmWkJY5z9EwOSM+QDprVJU5bwAYOYbGUDnIRvc4nFAuOVYXizlY3xM5skOgOWM5KzmWMx85s6/u\r\nOLawYTmIUxU5/ntpOV4l3Dhf9s44bbNoOTdMIDmVXvY46p9tOWMkNDkWu/w4cIk/Ofjd0jiAHAM5\r\nv1hZOUK+XjlR2BE5YJ20OBsnvTjkN1w5KJETOV4w/zhQU5o4sbOmOESiGTlsxiw55CfHOCc44Tji\r\nphU5etpnOL4i0TghHvM4pbOiOYKmdzi5/tM4CekAOSRbAjlk93k4UIz4OEGtMzmGLPk4CRBTOW7K\r\ngTmJoeU5GI5SOQu6YznsXnA5KJg2OQXQBTrMI685CGsmOdPslTl9eGg5Wb5GOTSGOjnwrYE4rodg\r\nOcEDvThIAW45pifROE5lOjnDHiE4c29/OPmlHDhp0YM4bBTJOIYtlDhhzqo4XWVTOWZW1TgcN+I4\r\nyhHjOFkBXDjAu4E4C+mROP7d8jjxoYE4dYR4OPAj2DjFXPY4pNWkOMLhgDgtljQ43GiSOCzSiDgJ\r\nYO83cpSROEHMkDh19Vw46eQPOQesajmr2j04MeyyOJ9wRDhPKZc4HYV9OHil8jjT1zw4OHlYOBKT\r\noTidG+o4q7B1OLg4bTj0rSA4/IqWOBIrUziopjg4ysQPOOgNRDiDLZo4NBBjOFg5RThQjAA5q/C2\r\nOJOJEzhQNjU49jGvOPAWMThW1Y449JcOOEDrLTgoXlo4t1VLOOosKThfHfg3qs4GOLy9MjiV/1w4\r\n7iJGOKS54DdmpQM45OWDOCoiNDh+mPg4Ss3kOGcylzi+J444Nps5ODJvSDhaLKA4UWaGOPPAtjgY\r\n3hY4ZikwOO7PcTiRtio4f+YxOI6lZTiQmDQ4PmDMN9i/PDgs7lY4BN5iOIA5nTf2iKA3S6fJN0t+\r\nrzc2s7E35MkeOFPNFjjEbdM3jrkTOK0/BTibywo4yIT3N3ItMTip7HU4kjNFOBvJvDeuW9w3cebW\r\nN3BxQDhDRpk3DiVgOD/I9zdxfSs48njpNx84LDhyYLk3KHVVOBhS6TcP+YQ3AA/GOCLfuTfk5ck4\r\nG9RVOJ7ONzj2kfk3YhBPOFhWrTePGi04l8u7N1Lg3zdZCZQ3VpSQNxGzkzcWPes3Ab36N7QqLjgT\r\niiY4DRfENxpF7TdFAR04inzyNwLRtTf2pvI3D3f4N2VTYTgxXNY3SA4IOERJgDgtnZ436T6QN2R0\r\n9jfX6Jw3I1cUOLxK9TeAKVw422qlN+l5vzcq1wY4j1AnOANLHzglr9E3/4RHOJ4OEzjcMB04k/6+\r\nN5QRdzcPO8g3jyOAN8RFUThnSoM4UYdSODAO3DfVTxw44TvoN+WlGTgZhcU3p32/N43/pDhIOCg4\r\nSfviN39XDzgAZkc4Sg+XN5q/LTg5GSA47JcaON72ljfT9Xk3NfauNxsZkDeliSw4xpkrOKwBtTfU\r\nq7I3Wf4+OIZZCDilH8g3jHS7NzX/YDiES/M3Xy6hNwXhRzjpP6M3ODWQN/DKmTeTZ/I3Cs9yNxTl\r\nCjj+jrY3IGlON1j1ljdCmME3BpyhNzLPLDiW2S84QNsgONymADiUUtA3wUI6OC25tDdYsws4Mu4Y\r\nOCjHIDhistQ3vvwOOE6h+jc7Ooc4r2g4OGe8Bjis2G43zp1pODx4HDiBExs4hBlkN1bmFzh8u3M3\r\ns/43N4yo/zflgCo4YUtlN7KZ5TfOABg4nefiNxdjGDineX43JwjKN9yBYThQUDQ40ugEOHcU0DeR\r\nb2U45mbsN0ruAzgcpCw49Z68NzTyBziJQx83qxG+N+sYBDgM/uk3jtRrOF/ORzjQN+U3WdPLN0pm\r\nzTe6dxc4JeeZN+JfKjhuLiA4JkzcN3xQgDhJO8k36QO6NxEzJDheuRg45pcEOJy4KTjxWzs4fo7E\r\nN9QHzzcg27A3HuZCOAZH7DeUKKw48JSyN8lJlzcS2GY3gfCYNwoEBjhjY/83CmS1N8TfwzdGdik4\r\naV/8NyGvIjhA0Zs3gpQoOPEX9Dcqlpw3/WPxNyJuHTg2bP837qUWOPOwxjc9yrQ3hjJqN8ypEjgZ\r\nIUk4dlHfN61xWTe3H3w3L4uYN9/I3jfm8ks4wljXN1NkpzfgTtg34DWxN7Ic3TesGG44Hp//N7TB\r\n5zdxiME3qICoN11j8jfQ8J83J+UxOMOVrzdL3IY3J33hN50atjdkRlw3Dr+cN7sz5zcwCuk3Txq9\r\nN+YWrDdzSk44RwtnN+KGJDiq5pg3AVr9N/YMsTcpLe03gOZnOPHoszdIyrc35POyNwLQBzj0NYw3\r\nXDkyOP0Xtzd3OVo4/rHLN+AY9jch9BA4m3rBN86CFzhpuLs3lJv0Nw6n2zfkURM4k4K7NwzPPTi+\r\nxC44PozKN6FyNTjjNgg4iEm9N9uFETj5pAM4qdnIN/bMBzj/XcE3zn7/N5GT2zdiv/Y3bNhVNyzg\r\n2jf/aL03+3r3Nxnp9TeT2N835RfBN3dtyDeKAaU3fvT0N/BhoDdT6403463qNzhZtDfZXR84l2Ec\r\nOM5yxjccEHc3jrWfN5OUMjjky603dNAeN7hjnDfgBao38mGSN+wzgTc+ZLU3X3MuOAAU0jfGd4M4\r\nGN+wN7kvpTd13PI3uSwKOJJ/kTfDw4g3vtEOOLjD6zeWjOU3CpOzNzEGQTfPhhQ4XzEMONGAjTdf\r\nyZo3Gk5kN9Ex6jfEL6Y3IJa9N+zF0Te3Plo4Klx7NwisTjhMRUg4d/iBN1I+cTc7Z9Q3a7nvN0Pz\r\njTd750w4vv/zN5YrfzdPmMw3xfzoN2hUDjiS5io41tkCOA+/rzf/Foo3RFzsN6rEDThrjOI35BYV\r\nOMC4ejeEqR04ZZKDN55W1TdGIyo4eioBN7lmFziS2ts3qMioNxhPpjfnl7Y3zklnNzokwDd1OJc3\r\nE5LxN+pOhTeETEg4UNdvNxHjBzjghx04NWuwNr4vjTdjQoY3iA/pNhq6zjamRZ44MI3YNwP2iTdw\r\n9903/0L7N2SxHTcCbeE3NIEFONeI2DfxB6E3d/ISN8CvhzfZaFw4bYmBOJri2TaGb4M4RJh+ONZy\r\nWjeW3383FCWlNlugTjfBvLc3MmUjN6KDPjfz5pg2rDP9Nfu0dzibuY03BqdINyfJnDYwvG43PhfH\r\nN8XwVjfWlpU4GPmNN17KdTdJXYY20nqvNrjLEzj6j3I3nZZEN3nPAzhTIW03Lh4rN8fhyzaxrgM3\r\nIj6YNosDZTe0BAE49WmRNlqG5zaE4ZI3Fv1UN7ZsojZAi+M28XA6N4T+nzf0+G43cEyvN0qYBTjo\r\n8l83Vo0uNiQ9HDbx5BM48y9LN+xRrjdiZXA35TznNuC8lzZYcQg3CGlWNzWQDzirgYY4u8OqNlEJ\r\noTfn8TM3CXs+NsawEzjxHsI3GA6QNixP8Da2JwY3qFXcNn/mmTYi6K02sqYCOGISuTYwokI2iaik\r\nNgkQizaYrEY3JyyBN453vTUQYPQ1RYHBNXQ4VTWGlLw1dM/FNYq25TUplzo1E0qENvLkwTYr4k04\r\n0Xd1N9IgdzZ6UCY2zFszOJK/rDgTaKU2EZg3NsK1/DXH2KA0qXLrNzglGjhZiS03HXCYNn+UgTez\r\nB2Y3LkYRNy6r4TfWJ3o2Ox5BN/RmSzdHqjg1swa1NX9LtDVBnVM1+vfuNKP1lzUk04Y1jkNSNe82\r\nBzW9cA01crPnNA6v5zT0N1s1/I4aNemJlDXf1cc1hoErNfMVyTVWXUQ14CnGNWzpLzU+/jc1q1pE\r\nNUshMDUJxvE0IpHcNN8bTjXve9s1ePTtNNRe9zQkZiQ1cOgPNZ41ZzXt4xo1AuRzNaM2tDUMoQ81\r\n4SM3NfCjUDWDcSI12FSANVsXVzWpdFE1nG6fNAuEDjWMyps1kCsMNYnFozT3Eac0hEpHNY0HIjUt\r\nXw81+lTrNJVGpjUtz9A0vEyXNVTpQDVW4EY15G7xMy5H3DSKXWo1gJJuNVjAoTScZxI1CiA1NW7e\r\nXDVd5qY0KOEANiu08DS6DT81pPQxNbGbFjVuLYI1cciLNGlBGzVAX9c0Rs31NCnBKjXnu1M1P2QJ\r\nNS6SSzXpUVM1ceoQNQRLVjVKv/U0t0qWNW8oNzUVDxk1cSWXNaNuLjVhTho1e4SpNc/3jTXBo4M1\r\nf0NRNUAvFDXmNRo1ybwgNdkntDS5XlQ1ZlMwNUtwujUj8mk1wNZ0NZlZCzWtiIE1YYTrNNIioTVp\r\nLu80EHOPNTyFGzVZQk81xMQtNTC6XDV22TI17lrRNGHqHjVZ0+80Q41CNTaeFTW4RjY1JBlyNSUu\r\nAjXyriE1CRg9Nesp1TU/O5U0xFuNNKywAzUdlCk1NKMRNQnvHjWCS9o0SIbLNAgRBzXnPMY18qyC\r\nNV2OWzXPr4818sG2NNq7SjXucO4012urNKZJ5jRf4RM1GNPVNOseXTUHy7o0AVvlNPAJpTSP+T41\r\n275bNeaMNDUmdK01IeAhNd+KTTWXsi817v0UNSa7zzROyUo0UrHZNMoX1jSK3j41FstyNZVkNzWc\r\n4Ac12G5KNU2OiTUnuwI1kk4ENeMM1jRLFEU103mJNYEdzzURY5M1mOKeNZO0BTXu6900D1OHNCBS\r\nNDXmDlU1twsxNfxPsjR94u00/ycNNQAo1jVMKf40AYwdNbqlLzUAlA8138oiNc8exDUvbEw1Ncw5\r\nNXSZqzRIlNY03XfLNOFntDQUQho1qsjoNGBAITU+0YI1Rk6gNLG4DjVb7+805NaQNdplIzXlqc40\r\nobwxNYF7PjU9UCg1IkPvNLiBaTV25kk1XchXNcoiQzWpLVg1tolsNf2PDjVg/l01ygDsNN++0jS/\r\nmBE1JgQcNWYGgDVN+rc0RgtNNYVPITWlEWw0KNwYNbXwDTUkjDs1hlk3NepZDDUztxg1QwpJNa2t\r\nKDUwSB01/UcUNeZ9bTVoXP00tz7/NMRllDQtdAI112rcNHpWaDUm/AU1BQQBNaO3LTVcIA81v512\r\nNWWJFzUumQ41m+cpNXR1ZjXViRU1Z4QqNTW6gzSNltY0TNtZNaNzqjSYc5s0bi2bNM5/TjWyIaI0\r\n8jKHNa4VBjWwxwY1RmUQNdEiNjUIVPI0CjUNNeifEjUzZFI1+3LyNDRjeDXwWOM0VXcrNcUB1zSM\r\n+101xMYnNTPePzXrugk1NidhNYHZDzVGB301RB47NdoKIjViTvs0YkBaNQKKvzRkM3U18OTJNDE0\r\nYjVPemc1+38YNTQn2zS4+iY1sfgGNYakXTXs/Zw0gzc4Nb65QTXYqq80/eAONRYUwzW2AkI1N7+x\r\nNf3BSDUat+I0EM0RNf5uFjUEa2Q1sWLeNNPVaDXubMo0e/bZNO8bhTW9FA01AIDcNA==",
                            "noiseTrainingType" : "default"
                          }
                        },
                        {
                          "effectName" : "WinCompression",
                          "category" : "categoryAudioEffects",
                          "parameters" : {
                            "attack" : 0.0,
                            "gain" : 9.0,
                            "preset" : 1,
                            "ratio" : 10.0,
                            "release" : 3500.0,
                            "threshold" : -20.0
                          }
                        }
                    ],
                    "start" : 6252,
                    "duration" : 2449,
                    "mediaStart" : 0,
                    "mediaDuration" : 2449,
                    "scalar" : 1,
                    "metadata" : {
                      "WinSubProjectDisplayName" : "",
                      "clipSpeedAttribute" : false
                    },
                    "animationTracks" : {

                    }
                  },
                  {
                    "id" : 97,
                    "_type" : "AMFile",
                    "src" : 9,
                    "trackNumber" : 0,
                    "attributes" : {
                      "ident" : "Narration_fracture-2-czm-element 5",
                      "sampleRate" : 44100,
                      "bitDepth" : 16,
                      "gain" : 1.0,
                      "mixToMono" : false
                    },
                      "channelNumber" : "0,1",
                    "effects" : [
                        {
                          "effectName" : "NoiseReduction",
                          "category" : "categoryAudioEffects",
                          "parameters" : {
                            "denoiserAmount" : 20.0,
                            "denoiserThreshold" : 0.0,
                            "noiseProfile" : "Kj9HQKZJeD2WRYg9G8cnPvzoWz361jw9HugJPTe+IT2PSRI81GuUO3KuTDs9gt47gUJEO/thlDpO\r\nUjk6gK8zOpI4YTpcnkc6khYVOsKmxjrSzcg5SuvgOQ/Z4TmqOvg5Jg43ORn6FDmd6PM536tyOTWb\r\nkTmiEjY6Y6Y1ORH1UTlmWp05Snw8OSsWmTmImSg5Fl+EORnrLzlO6qc5xJt5OUejDTn+VPc5eePv\r\nONHgJzm52Q05P6HUOHOsDTmF5Cw5JAu7OdUOFDqcnaQ4a342OdwaajmSoV85/bVaOXP06jgo4EU5\r\npyCQOYW7RTmzGrY4JLypOIxnWTivxO848nRNOSsZJjmP4vM4vZwOOd1kLzmkZYI4b3okOUQV8ziY\r\nMaw4TMU+OWBNkjggh6o4n8HbOCTxuzjWBKc42uexOJBo7Dg/Mcs4fLqJOE+ACDmOTy45StG6OBQb\r\nAjkMdoM5OqGFOUvzhjk29pI5QEtyOQwYkjnS7r85YtEEOnZ0STk4kl45nBnfOAy04DgpeP44E085\r\nOVQGFjnUqE05u3u/OILjzjhExDs4ecjuOGMs4ThU9Ms4cwaLOEbXpDhVWKk43EY+OYcP+Tj50W85\r\nu88aOfFIIzlmMWM5rdypOaQ7mjhBoWA447eCOI988jgLols4/keOOtZVejnNERQ6qGN/OSooozlS\r\ny5E510OcOChCwjhd/9U4ECn4OAddOTnQAoA5f3XLOKKEBTn77zA5gcOPORglAjmZbOY5Dz2nONC6\r\nxTlzLLQ5wKjMORtsDzmuicY5FDeOOaMhYDrg9rQ5RoQ4OTGKgDrU5yg6DyXFOZUUUDlGYcM5hMGl\r\nOHC3VzkaC/s52q3NOSJliTlK4Ao64nm/Obc7Sjol4LM5Z4cLOi/EEzobEos64OpeOry4HDqbccY5\r\njsKNOn89mTr0I146/V6VOtE2RTrSt206NEYAOhNLNDquIXo65OApOizBojr4cqQ6HxeNOiammjr1\r\nHY06PTqSOgU6nzoXw6Y676s2OtFwxjq2K3M6aTCEOig2TjpAEH46kYQNOrnd9DlYL4Q69uI8Ouj6\r\nHjpQnEo6vw0nOsw72TmMYxI6+3wNOtojiDlsQ+k5rPEiOvwAaDrPB8o5G7kSOhwoCDoW64M62+9M\r\nOrxZCzrzx5c6qxsMOiqeXjqdJaI6c/ucOsiMnjoaW446JBCBOj1SkDrLRtU6aHFuOpL1ojpAmQU7\r\ndGQRO9nGQDuX2mU70slGOySCVjvpjXc7YY5bO8J9fjuRgI47Za6SO8hehTullJ47/NetO1qCrztr\r\n18Y7QNDsO0GQzzugeNQ7TkwDPI0b5Dt++PA7gBAOPCElBTzjMyI8Lx8mPOFqLDzvlEg8qI8rPGeX\r\nKzxpiDI8doQoPNtaNDxgkzA8pbgmPDb/Gzz4sBY8f971O6ya+juYSuY7O/fqOwr41zukLL47JE25\r\nO/FHwjvq+dk7/jjaO1L5/ztbmtg7nrMHPFdZKDxyDyw8IoobPPh4NzzWO1k8oo8xPPP2Qjzqv2I8\r\nvn9SPDyUTTzuaVI8k6wqPEyLGzyEOS08bp0hPN7QGTzPhAU81GLYO2D16DtISNs7pl3IOwAv1TtN\r\nFqs7QJazO/12cjs3xY47BSGJOwyuWzsgmWs7JGIvO/jVOTuL5AQ7c0PWOhT7uDraJdU6zJOuOj2J\r\nnTq8BrQ6OBdlOixekzoFhk06pCGFOryiJzr5wRI65+wROhfnCjo6w6s5MkpYOeSLFzmBr7c4srUP\r\nOQRc2zi6+GI5sRHgOFbhJTmkGCs5qs5WOIeD+DghJt43dAEnOGChxDjvbEg4AatKOAKwCTjsfCQ4\r\ncj5TOHw9vDdadAc4oZ2RONSdTDigMUg4JCrwN46IJDjZ+Sg4Tqp9OD1AmThIPbQ4Dgy6OLfg1Tdh\r\ntfc4KowSOc1OlDgQlLI47+3mOPxlCznwnis5RVLsONBvjTjbz504GZLVOAhntTj8Xu04e4OuOF3N\r\n/jgqn7c4SXKoOOT+2zjol+I3E4f/OEoGRTgzsZs4hrf4N3KGLzhwP6A4SwQDOKQrLjgpDtU3o7XR\r\nN01rYjiE4Ys4rBeWOCBx0DfiKSw4l20uOZWsYDgS3Nw4tcE9OAi0hzjGHyo4kEYAOU6/pDimiKI4\r\nEUA4OJqzQzgo8S85hH+iOKwB3jfrlFg4oKtoOGTIWjhiiho4WCgbOCAjpzh8o7o4CRUUOPweNDjm\r\n/uE3FZ3TOH7GtTeSGcQ30ujqN/XlNzhnyfw3I2FnOPpk1jcsIgg45y4OOA0r5zf1VT84WXkbOHK2\r\nUjhn73E4sLKFOG2ZKDgo0SA44weHOHicADmHCEI4QuTfOFUrkzg0YUQ4qm8UOIA1OThDU6A3AopZ\r\nNx3ICjhwqUQ47jE5ODejHziM4Ic37AnTN27phjcNrEU46RLnN+6s+DeZeIY52JwHOaw6gjiEFUM4\r\ns7PfN95NBjghSho4J6AkOMSQlzhGfB84vA2lN9K/eDhdfm04AHtOOOHNPDjY8a44kAMlODQktDcG\r\n8AM4mWEYOJLJoDdePYk3hXEsODSe2Dd18n843JcGOGMWiTgN5w84aCm7N7cIpjdw8Go4bL2nN/jp\r\n0jfUKIg47zhNOUyppjj80kU4lzEROIsi7TdIpAo4PwyvN3GdBjgwdko4za4zOBhyOzj1Vyc4lyMK\r\nOBi5xTdMGBM4MTLRNwT6fzdKujQ4gLmvN57gWjdvgHg4smpwOPpB7je2vcE32H0PODSPkDcAFYQ4\r\n/CfvN8HmJTjYmAQ46NW2Nz5dqTdrgko4smEBOD1IUDgK7cU48qqCOGA41zd7lTw4WSPBNypvjjei\r\nXQw4LqctOLAk7Deuol83G5KbN0XTWTgdoOE3J2HBOPe7RzgAM4E4D9m2N+/FTji+AjI4+oBzOA7V\r\nyzj1ohk4nLVSOGg4FTnEW/E3ndI4OF6sDznE5lw4KOUiONgnAjgSaOY3xaPAOApOvTeoZ/k3HKoL\r\nOEnQzzdkv0s4HIckOJWi6jdmPhU40O8WONVukzj4ZEc4P3iHOICqhzer6ps4AohZOFo5Djg63284\r\nLDXGN8qaqDdkOa43r6QvOPxvqjdvwp83QEmhN7bwezdm9zU3CiYsNzqxIzeb5mg3pmVzNxC4nDfj\r\nVoY34mtBN7T0ozdskIY3di6rNzOytTd3n8A3qffIN5xp4zcZLvQ3eLvhN5iP5zef7gA4+pAYOPFT\r\nFzgCeyU45AEkOEp+Pjgx7jM42O0WOMI2MTiqFw84geQ/ODt8TDh8PDc4XK8+OM96LjhGKyI4YEsS\r\nOLw/Jji8GxE4vnAHOIgr+zcoDeo3dIH6N8L5yzdMh7E3ai+zNw9PwDeay6I3JRG3N0wFrTcQepE3\r\nn7mYN6evfDdfBIk3pBl+NwmPrDeC3lI321qYN+YIaTfYgVg3U2dVN9XuCjdikAc3OkLQNrN8gjb2\r\nSmg200sBNilxAjbCAds0PYijNKpnGjVQdRQ1zNztNPAUpjSWhYQ1TIXBNA4V9jQ/xq40RhKSNJQk\r\npjT0f4A0QigJNXF96TT+Gcw0jzQZNW9UQjTnPRo1uZWZNVk8xDQU0IA12fmiNIPFCjUO1po0RFJG\r\nNe9sBDXJJGY0jgTINJgrjTSR+8o0/tDxNCe3iDRBcAY1NxnfNNrQGzXU7tk0SMLUNFd7vTTCeEI1\r\nf6EUNY3x2jTpsak0TRX9NJ4N+jQ4L9M0Ui+wNM4eHzXeUdA0ZscyNThIyDQ715U0JS+zNAct3TTN\r\nS/00hbXUNHoqVzUxg8U0ND/yNPsLjzRn3b80WpE2NWZn5jSGWZw0DCY5NY4nPjSbzfY0yJtSNbx+\r\nCjUbynM0wnIkNIAMtTQh2jo1jHgYNbbnIjUr7qI00ad/NAwR4zRx6es0qI4uNTDzCDWkb580au7r\r\nNIsrLTV1v3w0v6fYNPX0gzUbrkw0UlH2NCVOvDRwgY80xqEWNbnl+TTjBgA1YDkUNaexmjSgaJI0\r\nxy+fNF1h5TTxptg02GoDNSWi5DTwUqY0/7GtNDKoJjUiKvg00BQENaY43DSI1eI0QjCzNHixsTTM\r\n9aw0Z+EANc0N9TSAIe009YwgNUv8EjUu4Rw1mK7DNNQXEDXk5Ro1N4CqNIRPMjWNz840CHWKNM9C\r\ncTS37ZI0zsf6NKnuAjUz1CM17krXNBuCuzQYVAM1I0G1NDUfLTVpVgg1tm0yNS+L/jSi3Ns0MYHY\r\nNKZLpDSES0w1IeudNK5RsjTENsI00/sdNa6LwzTOqaQ0V/anNPLXODVNCIE0wCTRNKM0ADWvrq40\r\nOuYHNbJ6jjRPMR41XRoHNRaTCDWpYMs0OSQGNbofHTU9VTs1Xq6qNGR23TT0H/o0F1njNHyxpTTU\r\n9hY1taEPNT3uLjWcFxE1mF+SNbiBhjQxJQE1lC/nNOC0KjXVeJA0M0z/NDhiVTQRCRE1RUtvNfuN\r\ntjQosRQ1118dNQHDdDS2NhM1gfLTNCsHFDXdIJ00HawGNRBIjDXUBBE1gs65NMAoEzUNBsw0636R\r\nNGQUETXdUFA1k0MRNTX2fjT4SEU0bxIDNTuA6zQE56I0u26RNDP++TSad/U0ElMANcQtIDWC6A41\r\nGLjuNBKy1jQ7saA05zbHNJzN9jTIFuE08cqwNAglNDVcdg81vXMgNd2zMjXOkxI1TByANALF2DQf\r\njMY0qPUANYH7FDWdxO006M0dNSounjTStAA1tqgJNVxm2jQ2fZE0uVItNbDQzDTKbw01nD1kNH9Y\r\nLzWt2Ng0EeqnNA6HgDR8r6k0yLAANU0P4TQsbMI0W2PkNCD3DTUc7us0bPimNEsCrjQ4ffU0zKKG\r\nNDZK0DTNCeU0aGK+NGFOsjS/YAs1Cl0UNVo/LDXmDXE1eFL0NBtNKzWkSZc0+DkANSvphzRK9D41\r\nzBXiNDAAJzX5YAg1rMHENPbmKDWccIM0aXYVNVHiPzSyn8E0/YK8NON/BDWO/sc020kNNSE8CTUO\r\nOac1RtoQNdqQwzR/Ct80xUIINSP+ADUI6iI1zHBgNEs5vzTLuak0ai/gNNf/bzXkE7w06rJeNAZ+\r\nsDSXCZU06iTMNFCyxDTs8wE1anf0NLZtmzRWRAQ1KZxONZ/TbTTvQ5w0UH1SNKVsbjXS20U1PVIQ\r\nNQjmjzRI2uw0oI0uNbYUjTRCkRE1+i6vNGKS2zTBgvU0MuiMNBMdRjWcgoI0ZMkRNQWBcjWBTgY1\r\nDICiNPAhljRs2jY1eK+CNJanXjRSOOw0VXaWNNKtJDVKipw0lVpRNQhuHzXiWD81T5hMNM8HvzRo\r\n0uM0fYTaNDCJhjSexfk0dqLZNDfkjjR2ZRc16VMjNULl7zTM2yQ11E7CNP5EEzUDpgE1D+26NCMw\r\nrDSmSYg1+zglNblBCTWuG6o0y1wINSpF7DQyPD41ExGzNEk53DTp1hY1G0HWNJjXgzUR5UQ1uunm\r\nNHBuWTSLVu40v8IANWjbADUpRYo05sDoNPTZ/zT+9M0015mdNGO5gTUtBgo15DqhNAAAKTVDmC1A\r\nk72SPT5+hjxK6XY7HNVhO9UPVztH1b86Yo1POt9YPTp8wHw6DWqfOsE6MToSheU5GxsaOpIkwjlW\r\nfqE5RosyOZ/gnTlTNPo5hK+yOWPRVTm5rJ05dUwiOeG+CzmKXns52BBPOYLzmDmZQFA5kKf0Oa3j\r\n1zixDiw5Cvc3Obk/ljjZvAY5AOZoOXSJEjk+RBo5FSbVOMp2CTktQPA4A44SOZLt6DjGCwk57P7Z\r\nOCeZDTkstCs5x2G8OAgXSTkt4so5b+YiOZPa9TgD0yw5UgL/OElhfjm24VE5pP8nOT0USTn7K285\r\nA24wOXcpJzlqkJI4uvfnOF70PjiZktc4oo+0OK7K5zjl9944C6ECOXYtwDidYu44EicOOeO7hjhA\r\nyhg53UC1ONxwwDiFxIQ4OhEeORhRDzkVkc04sRebOIYjizgNjMA44OvzOPwcwziGi5I44GdeOewJ\r\nSDlCPWQ5y5A2OQegRjlPnZA5rxjKOROuEjqVrM45Axt4OQCKRTlkNKY4QAIWOWCJ1Dg3JhA5Eb4Q\r\nOWrWHThk6ts4OWaMOGpZLjjwU0g4iOSmOOnDzzdDsoo4/tCWODllJziAmuU4RjrrOGpYTDgbY4E4\r\nfEROOIXNHzh29lY4fs4vOP8IkzgyyL44kGCrONoT1zgylKU49oJoOfHaGjhEzYc4pQleOJFLnDhL\r\nqnE460hlODsucDgIlz04oBCNOKOU8Tjpha04sH11OCLD5zhlX604uom3OPqoBjgoxGY4UvYoOK3D\r\ncTitKoM4ZgoEOTSTZDgBCyc4Qeh7OAyNFzgo+NE4TvVJOAgVoDhROMs4OFp8OO1xQTiJTGQ4Qy0Y\r\nOXPLijhdSUE44vBzOHeAiTg32j445142OLgHgTiKYDc4dH29OOYyZzh2XhM49H9UOICmHjgYU6I4\r\nMp5jOPSjSzj8+o84y+YNOKMqmDiYOlQ4SmklODwIhzjos4A4fLpfOGJHjzi2zc044AsDOYkxAjlc\r\nCH84gRzbN/kmuDip7w44nksZOKc3fjjk3ls4wVDyN9HXmjhObHY4c/exN6sd/DdK9EQ4GLSCNxAO\r\ncjhWFdg3AkvtN24L9zelj0E4v3v7N9iX+DerUQA4yqnBNy9HzjdAQgc4cB5nOCfvATi34VE41PXY\r\nOHSvMTjq2yM4fpQWOAK7vzclUsc30nYfOMpYDDjGLaM4ME2nOB9AXDhZxNU3BnASOCoytTd6MCI4\r\nWI3QN48KtTeyKxk4I0nSN8i3HDhlG9c3DMr3N04e9jdnuSQ4DZ3eN500+TeIdSc42scWOJFNZTf2\r\naxE4Qmi9N2d0tTfP/lA4TibXN5HA+TeE53A3BFrUNwDPDDiYoxU4jPQPOCy5vDfEJqM3CvjHN7KG\r\nuDdCBuY3iVi4N2W8RTgdtOs3B/8BONJcIjgEHSQ4SCKWNweQITjmPSI42BoZOGKElDe3/wQ4kjIG\r\nN8RRzjeTAxA4+fZWODp+4DdOMeY3xkPcN4aNKjjeEQw4IpmvN4Z/xzcefdA3PScCOAxmqzc4/rY3\r\nUEAZOMtkBTgmKvY35BmLNzZgFDi6Q4w3EBbmNxnSPzjWPq83WtvnN13pADhMXsM3O8kZOHyJvjeB\r\n07k3gCChNyJ27jeJ+6I3PlL6N0TE4Df/BpA32l0PN0/kATgeMqg38ZshOO+1ODhSDMA3UALgN/9w\r\nvzcjvJ83TievNwQyATjYjSw4WlovOHpO3TffRyA4BNL0N+q1ojf50Pw34piRNycA6TeO+/g3feih\r\nN6fO2jd0V5M3H3DnN02YEjiSnAA4zR4tOCKexTd2CaQ3jdcKOO9/5Dfs4kM3wENgOAcLFzh8x/43\r\n+3yfNxgXfTg2zRo4d0W5NwRJ8zcGWV83ZP2BN1KcaDe0WhY4x908OMW0hDgaQdE3umTBN0BrMThn\r\nVJs3ZveUN6N0kTgwpi44uHIKOKSWyTejB4M4AJuCN4+GpTcmsKQ3fZ5AOCwhgDcX+Ck4NOfPN9Yo\r\nDTjOg7k3iE1kN0W/NDjmp1g3kB/+N7XnHjjkkjc4g8bdN0pIYjh9tBA4RJ9nN8rP6DdGQQA4zDOi\r\nN1gWvzcnTCw4OuyCN87pBDjUrKQ4OacVOD6+NTc8SJY3xtr8N77uYjibpvk3FhEROC8DjTcaAMA3\r\n162gN12LHDic2rw3iFkEOAFznzctHSI4E2fENxv91DcMqK438FH/N5uWNjinOtc3AC18N6K9dzcL\r\nOOQ3H1LqNwinnzcBmDQ4OoUfODbwajc+A4I3L0XRN74AmjeHHMM3L8aRONWNuzcXLTo4mlqjN/jY\r\nlDcIXPg3/HqkNyoyHTgR+ok3jNjyNxRm0jcamQM4QofbN+8NiTf234w3AEMTOE62mTdImAY4nxx0\r\nNzfrpjdyG+43RxwsOATM1jeNeYQ3v8HHN8rTBTh/NG83DAsPOMLZ/DdTnOM35ucNOM9JqTcEtr83\r\nTgmoN9gruzfEpb839rE6OChbgTfgAC84Kk8uOIiQJzj0vdk3/cD7N6M0qzdSbiU4/BQKOK061De8\r\n2aA3r877N/Xi6jftM7c3a12uN4M4vDc6niE4vS66NyBnujd1NA84zAhoN5o31DeIjpk3BB8XOC9x\r\n+TeWl9o3XVylN95gCTjsicY3DnXaN3oTEThXhiA4EMRjN15LgzewNA44+n3sN1S+sTcCpB04r91s\r\nN6mimje2V2E4QQU7N7KxbDftjAE4ub3xN60gCTjuLqI3BJ/aN5EVyTcynfE37T1KOAA06jdmI6I3\r\nc9vhNyymoTfX4ys40K7WNzvyMDgYdhY4TFDNN88G1zfCpQ44flYlOOglcjfE14o3fWRQNxX07jfT\r\n1C44Hvq6N+9SyDdOQAU4sOfUNyGCxjeZWZw3HiOrN9Vl5jcmVvU3bws7OHlI1Df8N9Y3kpU8NxNV\r\n/DdCdcY3yFakN48UmjfNTaQ3qLHVN+GH3TcEnRY4VlJPN6qb9zeIGW833imYN+S51TdKE1s3rPPy\r\nN0gGFThOsKs3ZwnkN1nBxTfsp9M3QrT4N0Dtpjet0AQ43EP0N378/jcepHY3eKUSOGiPAzhKrgg4\r\n3u7NN2j9rTfBhOY3iuXhN7DE3zeG5hc3hJ93NVjVzTS2T041q2wHNZ9jLTWcGek0BDw5NccIHzX4\r\nF6c0cF6oNBcurDSgLKk0dPzENDIOfTQyOeY0azcCNZvHzzSpFAQ1ntsmNXGH3DSzd540JMUuNWLk\r\n/zQuzxc1S8XTNHyKqjQLbpo0OBTLNMgcDjU9PSc146bLNOS4iTR6Fb40Bvm1NDnz1TQOpH81is89\r\nNVhZ5zQDKDM1YsgdNc7C4zSo1So102TBNBCZzTQStOc0kj4mNYPLtjRiB+g0k4CGNBAYzTQ8JQc1\r\nkgLWNPp86TTOjPs0TFn+NJdICzWGoBQ1NvERNWSwBjUMacE0wnigNNLy0jSQPKQ0PzOPNKbyozTT\r\n1Jk0iaByNPDCrDQ/jls0jKUSNYbVwzQm/wk15jXbNIqhyTR5st00JIOoNCo73jRsgL00LufnNGDX\r\n2jQP/+U0CMwGNfygyDQ3P8w0o4P/NIMyFjWIBc40GHY7NGJA2jRfTI40F32yNHEWDzX0WtI0yQCa\r\nNEOKgjQeS900OJqcNMt5BjWjPLU0cyLBNNDTUjTlEss0P+QGNabQRTXMsb40aNR4NekHsTROpuc0\r\nJtXaNN3x1zT6l0E1aoL8NBTRkzRiTN8068MCNQB1XTUWR280/NT+NKK2DzX+FJc0x4e7NP0tFzUH\r\nKdQ0viukNM6WHjSA70A16jLPNAh9jzWLo+00zNXaNM7jBjUVZfw0e6/LNBY6BDWuCsI0AzXONKIh\r\n1jSVuDQ1WuEpNRrw8TTmLP80mknUNO4pzTSe+KY0zseUNPDPLDXUKiA1tBqkNP2T1DTQ8Nk0HAwe\r\nNfo79zSbwtA0FLGfNKI2mjRcIVI16d36NLhZnjRCe9E0mNrTNJaCBDXhzKM0opLFNPZShjRI3Ps0\r\n372lNKQoGzV7ziM1xOGENDzRxzTsIAM1r/DeNGTSyTQya2k1tF/XNCAZRTSf+6s0L9IyNTCbqDTo\r\nJwY1UG7DNN9nqDT+QbU0kc6ONOiodzR/4Gk1Ch6wNOsQ7DTyVto0Ul1sNEzbjzRWXvA0w8LzNPiS\r\nbDVjwLU0QjkWNSoeqDRCVas0YKVqNPyFCjXFEY00ag/jNABX0jRHvBE1XzneND4r7jTUCdE0sB68\r\nNEikfzTdtQU1IQYxNHAsfDQJDvA02AQUNab9xTT0Lyw14qnaNP/3qDQjG5M04oyPNBNZHjXEGac0\r\nCvz9NJDpgzQegzk1XADcNER3MDUN/x41d3/XNLii0zQjNqg0qeZtNGYQrzTvSAw1gfILNYKeGDVB\r\nDVg0/WUYNb+36jTqmp00FNHiNBZBuTTJjBA1VQsCNSYbsTTDUgw0YgzFNF7JpDQvYbw03W35NESa\r\nuTTEs+U0j6BeNF5msTTPQGo0RD7+NJCK/jS4Eyw0FmbPNEqr9zRL3Q41KBIPNVoaqzTbZB810HrX\r\nNPd9bTQ/f700qK6/NMq+LTX65ww17HTdNItnyDRL+gw1gGrWNEA03DSDgw82+j9KNOSkfDRKnpw0\r\nBhHWNJdzzzSZIzw1WEfDNP+yuzTmhnQ05ZxnNVUXAzV0aHc0/sWRNCqbbTVcGnI0or/DNPRvzzTs\r\nAIg0pkLzNEkjXDWT5F00b078NFHI1DSK/B41ZecLNXUp8zRBy2g0jusxNSTuGTXGi+w0QweBNNz4\r\njzRQu9g0pDvWNEeN1TTyd200o1eONCZAtTStOJo0zukdNX8w6jRbGZU0DJimNJ1xtjQhEZs0JXar\r\nNN+jgTR2YZ80rDSUNNDnwjToMQQ11Hs+NVo+mTQEnTY1W4JmNaw4ZjQV7XM0nWmONBJ4ZjS9FYU0\r\ndjXdNLhsFDUuzqM0iQAMNRc5EjUIgsk0O+KKNKTZzTT3+h01FEmoNNxzyDQPetk0vei3NGtYJTX7\r\noFs0cN3SNLZz1jRoa2Q0rgFPNEohqDQma5o0wKauNEMKmzRjPNs0BcvlNBtuvDSshZc0a67tNBbp\r\nNjUyPp80NtPkNHxuvTQdLNM0Uj0wNSYoXzU4t/w05jCsNNfRdDRtwZ80aLkFNf/vBDWK4r80Nv4x\r\nNWIcvTTacao08tGoNGaeATUs5+I0dfL1NBx0KjRsawQ1VKAINe6//jSkfw01XIwmNYSAiDSWwgQ1\r\ngOG5NPB25jSP0x81NtPiNLgHRTWXKRE1Wt68NGsc8zROnp802sMBNcHSpzR1q6s0aEIaNTijujSz\r\nfJw0kdiqNGACHTSA0h01OK/kNGOpsjTtJ1A1CB+5NB5kpTR0R8w0bZNoNEB1kjSH6dw0HFztNMuu\r\ntjSLY2E0Kv2/NM2e9DRbRog0A7QHNQVGFzWfe8Y0zXmFNIOkHjXRqgU1w23JNAaUkDSTPZw1Wq3s\r\nNCrCgjSmyxQ1hirINBxpuDR44Kc0f1enNPFIvDS5nKw0XlEvNc5oIzXoc/c0AACiNA==",
                            "noiseTrainingType" : "default"
                          }
                        },
                        {
                          "effectName" : "WinCompression",
                          "category" : "categoryAudioEffects",
                          "parameters" : {
                            "attack" : 0.0,
                            "gain" : 9.0,
                            "preset" : 1,
                            "ratio" : 10.0,
                            "release" : 3500.0,
                            "threshold" : -20.0
                          }
                        }
                    ],
                    "start" : 8848,
                    "duration" : 849,
                    "mediaStart" : 0,
                    "mediaDuration" : 849,
                    "scalar" : 1,
                    "metadata" : {
                      "WinSubProjectDisplayName" : "",
                      "clipSpeedAttribute" : false
                    },
                    "animationTracks" : {

                    }
                  },
                  {
                    "id" : 98,
                    "_type" : "AMFile",
                    "src" : 10,
                    "trackNumber" : 0,
                    "attributes" : {
                      "ident" : "Narration_fracture-2-czm-element 6",
                      "sampleRate" : 44100,
                      "bitDepth" : 16,
                      "gain" : 1.0,
                      "mixToMono" : false
                    },
                      "channelNumber" : "0,1",
                    "effects" : [
                        {
                          "effectName" : "NoiseReduction",
                          "category" : "categoryAudioEffects",
                          "parameters" : {
                            "denoiserAmount" : 20.0,
                            "denoiserThreshold" : 0.0,
                            "noiseProfile" : "yYKyQHDmxD64LqE/Hv9ZQK2L/0ASBHZAIgAGQEwdgj/s68E+v5LrPf9CLz7tN6o9hjkbPdCTuz3F\r\n24o8pDliPYVHLz3ykN085q94PHSoZjzsVyI8vKwCPPLpDjyuCw88TZnMOzUopjuPHrg7qYw0O/Y6\r\ngTtoA0o7/4mtO2ThkDqHfJM6TfvXOiOmWDs8rJA6JRJpOxPfdjrlQi47y0nTOuY8pjoW1gg7enWn\r\nOufGYjtzt/U6MNgVOj7gtjqvwZk6/aZpOmI6nzmFKqA6EiNCOi4LLTrM3E45SkQTOulfgjoW8U06\r\nfqqoOZlKiTq/b5k6QNKNOvFYrDqEhT86oJI7OscFIjqcGDU6+UnyOXbvZTrz/Yo5QqYdOg1fxzn9\r\nz+c581AIOk+y9DmWDbo555sGOmLo6jkYwqk6xB0bOn1CkTr6T5455sm2OU7qtDk0ZjM6uN/VOaa9\r\n7znNWI466enQOkwRpDpKj5A6cirsOrq5WDrfMok6cgw8OrtGMDr5ilk64j/xOqYIejp6lyU6EloM\r\nOuAvxzqyja06egnsOmQhJTvDyjM6rLIyO+GpJzp2o5w6CzyVO5QkNToqP9w6ms6IOm/EqzoWvZI7\r\n64XNO3MBsTrEG4Y7aCYZPFrd5TsDL+o7CXZaOygi/DuFPro7fFrEO5n+lzvYCyY8F1mcO7H8ATyX\r\nJPk7b2JxO6CDzTskGx07cGs3PLHXFjx6Rks7KJlcPFTtMTzl+cg7aKUJO2vCmDufU0I7aSXAO7F3\r\njjt0W7c6rM6POyp5XjtWq3c7mItOO/ONFztQQjI7Q5BDO75JqTqcLDw77iGqO0JSzDvH95Q7OL+h\r\nO9HXNTwbxUA7oLczPOtJnjvnBvE75LyPPNbseTtqLFU7QdgMPBCtmztWPZM774/8OqeeGzuieKA7\r\nSb4wO57dAjxmMPI6t4WLO5JuEjupkTU7Lu4ROhhdmDpmoPk6FECJO6kLBTsI3gA7+NzMOxh6FTvg\r\nbOc6OE0YO3zSjTuAg4Q7FnFSPHhCETwHYJA7JP57O+42DTxeJ4c7dLfSO6ymPjuom8Q7EILNO5db\r\n2DobXIY7roYnOgpSJDsYYYw6AF0gOuBwVjpY3/Y67dc/Og7EZjpXIp05pRSuOVyoUjrLRaA5JmeQ\r\nOV7SQzrC+qs5Pi4POvKOQzrm9yQ6cOYPOrd61DnsT845MzHhOehRpDmAa805cQ8rOqUzZDq6IIA6\r\nIQj7ORnt/Tm/hfw5clvAOSQJfjkurao5JgG2ORkZ2Dl+UhY636cMOpUjEzo4Ngg6JX99OXtoVjm2\r\nz/Q5aIzYOTypJTqUKVY6Ynu1OdfpBTom6j06GkDxORwimTocEJM5TgnsOQkLszlKDoo5qkHWOXBS\r\n4Dl4RIE6qBgyOvsUsDlCsMk4Kq6DOXNcxDnyxRs6rz8mOgH9CzrYIvw5zdzJObvEiDmqs0U5bwri\r\nOeAqqDnIfhk5QagKOlC1gznG4KI5Dh22OaJChzq5+aA5LA9UOkHjPzo0Uww6Q5xyOtTFqjl3PBE5\r\nEfJgOoJkzjmM1r05Xxl4ObTMEjluJWQ59kQKOUn5dzjo/Y05QLKJORb8ADlFBQc5mgklOfNpoDnw\r\nnBw6kmnzOAQChzg54Fg5AeAHOdqY8jieWrU4ySsVOVj93jigcqE4I+CSOBNGHzn7dm84WTiyOMrY\r\noTg7z9A4HUyOON4/lDgN4og4396FOMTXgTjCqnY4buSmOMQ2PTjo2Pc4isvaOK89kziTYCc5zVls\r\nOYxPYzn0cy85bkMPOXWubjnttuU3IW3BON+JMjja7H04L/V/OLzcUjiUShM5cpzQOKL+TDmgxzQ5\r\nNhENORbdKDm7n5M4TtccOXXo4jjkNbU4PT8OOR4FjDgqX5s4wGKEOIGE+jiWiys5usVSOcOx7Tgy\r\nukE5ctzPONjRLjklESE49AneOK1A6zie0xk5CnZcOSkwpzhHgfU4AYj/NygwCjnF2Yw4TAkCOQXh\r\nfDhAOgI5/O91OcRZqDl/o9I4tWIAOS5EwzhT8EM5kTMDOVSVJjnfnKs52DoPOC43KTnH/lo4Lpew\r\nOHXrnTl7GYs4/2EzOTx5jjiihic5fwFROYM2gjnudoY5V34fORhASTmCmpU56T66OOSj1jjuwWk5\r\n+8FxOTAG1zjb7744jiyYOcD4GjkDZkU5qmgfOQYuDDm8kjQ5NWaDOZI9gDj+cRk5Jjl9Of+k7zhY\r\nyiQ56T9nOZAVoTlr5YM5f0xCOML7JDkgkq84TLn0OEu1TjgZtnQ5hDWDOVOgDjliaRY5IU2sOMpD\r\nwjl+Ubc40JglOT8AkDmi3lM56HdIObIL9Tis0I45FkPGORKoFDnpcyc59kqNOGf7WjlTSzk5cQmW\r\nOR91EDqNqtM5bH9TOb7ygjkyKzw57WgOOV5z7zgn7Jc5Q5y4OWfzYDkEZH45Zf6sOb4LjzkSHFk5\r\n0H2POWDgfDnflR06G+f9OI7PhTku2bg5vnedOe0mNzlXPEE51jKkOTN2zzkkxCI59zT/OJFeZzlP\r\n/aQ5v8y2Oco9QTiREu85QzOSOeJMHTksBr04UiPrOW5N2znIpZA5RPTROebZozk3ji45BKdSOTaB\r\nQTlS2pA5ha2yOdWF2TjU0gQ5jT1uOStBCTl/n+Y4wej6ONiQ6zide6A5N8YzOYfrQTl6y9c5/kui\r\nObu6pTm4tpQ515+HOUt6IzlGwfs4SS45OdeRKznpc0c58tqYOTgcwTl4ojk5sBU+OT7imDmgKqM5\r\nbTm8Oc+ZEjmA/7U5+5GEOWsmDznCY/Q4FDLnOO9RjjgIiQc5WxCXOAwCgjgGNCc5DSAvOXsFnzko\r\nOiI5tKfWOL591TiUjO84EPd6ODxjETk11EM5TuerOApqmTiwe3s4agIHOZxXjzhCQp04hycYOdMj\r\nnjiX3VY3DYGLOP8e9TiKzfM4sAxFOCk3mTh6mfg4khXNONoC/TcvDYY4waXSONGxDzkBU5E48DuB\r\nOLkAzzjWKZ049sSvN2qiZziVDzI57h0wOS68nTiEfLk3iHdZOXJ26ThWS2Q4FUczOLmqKjmgXe44\r\nQ4XRONUXyDiiMl45euX0OLmMmTg4X4o4xF3aODYZ9DgJQM831t1fOOKJHTiSdY03ZeHoNxMoTjg2\r\nojE4/O73N6rqCDdo+nU38G8jOCg8GjhLuks3QgC0N98ZUDd5fQ437OFlNzk3djfM2mY3vPkiNyNK\r\npDZqxlQ2JghkN7kxEzcsH842KWQON1h6nDbTbxs2QxDPNg3GpTYAaVg2EXauNvrjSjbfclY17peS\r\nNsnHBTZs7RU2qIulNjjsAjYhaN81+U/pNSHbuzV9kYI29DL2NQlowTXQ96015A36NcpaEzZ6H9s1\r\nFZ/2NYQf8DXktho1jCvpNbIKtzX5qLo1fPWlNQv5qDUeQLk1xKHkNfJ6pDUkiLM1CkYJNuN5MjZq\r\ngAI2K1eNNZWfFDXWao81WBqXNUZTbDUusN01Psz/NcndpDW6vBM2lQKNNTtCmTXCb2g1fP+PNbKM\r\ngzVvV6E1nVCINetahjVM6tU1fcaCNaSDSTUA5081ktbcNXIW1DXzNVc1g/qeNX834jVMDto1M/yJ\r\nNYCYxjWBrpI1aG45NZRbOTWidYs1TqYMNYVsATYHamQ1HxeRNXo8kjX0/VE1Ey7cNY4ZMDY5j0E1\r\nCGazNU/Y5TWPU7E1LAIxNXno2DV47A810IWpNeXZlDVxGeM1gVawNYKn5jX8PsY1EnjUNRB+TDXf\r\nF2I1eFC1NWL6sTUU1jA1122vNZrm4DUEsoQ1le0fNVT4RDV+wM013f/dNNveYzXM1LU1mFGDNeL/\r\nuDV1sqs1xeBnNTa3aDVYnYY19gBCNeJ6LzXGssw1n0R6NShVlzX2t701Mk8RNS/4RDUMWIk1cGSm\r\nNdT2TDVXSYw1+/WENTwJBjbYhFM1e6egNbkjizUIZdg11nOzNY0SyTW1w681QMrRNbmhdTWtdZ41\r\nAv3ANXxFIzUu11s1gy8ZNRIRtjWV6IM1+B2PNdq6qzW5PiQ1kAbcNTFkfjVgz1E1RqxuNVfbRDU8\r\nwVE16PlHNVFKezUeQFo18MPpNJ7PfzWaET81AiZyNa2hUzWd5j8111KTNTqwdzXbZ1014dMfNcZB\r\ngzXCHAE2u5EjNTlZujVwW241XHgsNSeo0jSABVE1312JNTujpTWemyw1plr4NSV9VzWIWoM1V8Rh\r\nNRRBhzWeC501Ppq6NV5uqDVKUNU1R0L5NYv+bzU7AZg13QNoNcmItjVJfL4177xYNePCkjXQckc1\r\nmgOtNWC3WjWyzck1arw4NeFFBTZi/ec1iNZ1NUEMszV050k1p8mwND3mPDViGyY1B3uJNZhnAjXC\r\nEuc1ZEtyNWSL2DTdMjc17viTNU3FQjV7lJY1MgecNcMPLDU2hXA1EH+JNRgyMDVfom81HQWJNZk6\r\ngzWi30A1S1MwNXhoizWJQAI1MjUmNZQFQDU+p6g1c9lXNWlygjWNhPA0eU3NNS2OizWdaYk15kyx\r\nNSwjZTVseYg1oXMHNfalYjWJnD01pJoXNRI2cTUOz641NzFZNUmgpTX2jH41BTKUNUZJRDX+6cI1\r\nUg40Nc/J9DQFYXg1wnm2NW4GWDVMxf41M61mNa6/AjXcwIk1EhI1NTR2yDWZb1k1hKNuNQW/ATUZ\r\nFo81UN9DNU8nBzU4Q3I1ORYpNfSfmzVqUYc1XfNbNWzB9zV0DLc10p+PNfGvuzWRPSY1JTa7NULd\r\npTUar+Y1TE8oNaZSADX8yiE2tFw8NVFARTXiBTw18WWLNfSKjzXmBnQ1tfQ0NbUiijVvmLo1EBiA\r\nNW5AnjUG5EE1AM+PNb/iGTVaeWU1UFq5NWAOUjUP7yE1sxSxNZUWRTW88mo1qjwUNcDFsTUNN6Y1\r\n/mmMNURUeTWkPjk1/UxcNTqPCjaEMmo1dNorNebDozVIkxY1zBNENcGGejUQRpM1atVENTQvojWx\r\nbog14R4GNRGvgDVhMJc15YiKNc5rgzUolpo1A1uLNTvPkTVQokk1Z8tnNV3FijUtWiw1UiW+NS2S\r\nEjUX98U1FsOBNVhbcjVMpRE1UOVZNRT8xTVOYjM1aoraNESOMTVE8pw1uiV7NcTnTzUIHpU15Pfx\r\nNWK5HDUHW8I1+b6LNSf9ijRujtA1PquDNW/ToDW587U1RoNmNdQWszUXULg1Q3WONf07hTVbeRo1\r\nTPd8NcrY+TVAxhU1TuGqNeQQNDWWaY41vm15Nam95zRafZU1EnF7NXJmmzUx7js1F+8NNSg4NjXK\r\nNWc1rrshNYu+YzWh6341pwVjNRWqjzVghyY1ZuuhNdDrbTUsiGE1J2+NNeqYrzUhu2U18GKiNUXd\r\n8DQsZDI1+nJ2NS2esDUvvpc1rK54NSO1YzVU3hI1eDoxNR0SlzVmEIU1cv9jNaA4oTU+Kkc1jOqB\r\nNYpJaDW8zYM1QyetNWe6nTVSjHc1m6V+NYC/XjVOyzQ1e1wmNWBoAza1TxE1iAGDNQAgmTUGOYBA\r\nCP2CPW3HxTyIi7g7X4ZaO/azPzvn4Es7ByN3OmwhhDrOfkk6W2x+OpKWTzr6VN05yklrOZ663DkO\r\nxIo5vDywOVnopzk0wtk5JmxHOY2Xrzml7qQ5qVGzOSDVvjnBWYs5wznyOHzQRTnQLA85vI2jOYeV\r\nIDmf7Jc5iBCCOZLnRjk6OQo5PRASOfmO6Dhfg2Y5viIMOXCiujhppCg5F9ImOXJ4Bzmoe944kNkC\r\nOWzQqDn271U5x0NkOfD0nziCXDM5KAJtOcppcTmEAdI4wqdtOUw2zzibtMA4hEOQOPrZETmZ/Ac5\r\nLAqQOE+EBjna8Ec5usPnOLhfEDkAxL84KIQQOUpZjzg1MDM42eSdOF5BFDnYfPc4bmcfOQVvyDgN\r\npbs469H2ODccMTjl4YM4uJyzOMZDpDjILqA5U5+xOIIuEDkX7BU5jiWvOPtPeDh5qkQ5WRhCOc/B\r\noznbMeU4fUs9OSBkgDmtNwg6IvXFOY8VOjqOVtE5oVQpOb/LDjkEdIU59iCEOA5QsTifxt84WPIN\r\nOToqyTjO9Ec4OgQMOcfX5DdEGZE4ttFqON+Xjzjqy604AjE0OILewjgP1QI47qVrOJVlTzhUb7g4\r\nQRdgOKQ4lzhHsgk46n6SOEByPDgri4s42ttSOJYU3jjbIoE4FAHVOAgoJjkkg+o4O2ClOAfEqThw\r\nC744nq18OFGWQjiGmHI4zFSDOFCpSDglvGQ4uORAOFgpBDiU3b44wIkdOP98mDhOPHg43fuEOGx7\r\nCDnSYNE3uBybOLZ/9TjMxxs4GFqjOLYZvDhU7Js4sUsKOLCrjzi+mxU4izBwOOoz8DdUvGA42JRP\r\nOA1MhzjdKQw4Ua2POPa4bThCVTg4GrEdOOnAUDhAs4c4DKJWODRdezgL1Ec4t+JJOKs+JzgYl/o3\r\nvgpiONw10DcwZaI4kbUOOAyHbjigUBY4qBVlOH01iDi3b4I4/sQ2ON9N2TgeZ2o4d6A4OPohpjgy\r\n4xQ40p/TOD4enThKUIc4QoUUOEZdQjiaMKM4sbRlOHY9mDiVUxo4IQtWOHzFLDjqXRA4St3FN4Iu\r\n0Dclo0U4KzvMNzkEGDhnw/A3QdQ8OBZUmDhy4IM3ZRAKOKp1FjgU4yk4hFCCOBMMRTj+L0E4/7qy\r\nN/xEezhep2I4nljjN7UPNTimaSo4yG1IOIDDKzhIOdM36D92OFSd/Df4ABI4JtFcOKJ6CTikLQk4\r\ntyu1N/xadzfrTQk43tUJOOWzOTepUBE44uQ5OP09DDizXrI37hFlOOqEpDdHgJk4JgnyNyIj7Dcu\r\n0No3B1OTN761FDjE/GQ43m7gN5U8rzd6Lvk3C92kN4vwFThtUy84sOenN+mpEDjgbu834ywhONkw\r\nxTfAFyA44/ILOBe1NThuTyI4oyJKODZAxDcyjik4nO4VOEG9HTiV2IE4lDVhOMZenzcSTyg4+4cD\r\nOCxQwzc6tP03NMl1N89XiDdbC/Q3y7njN0zx/jeSbjw4js81OKkZ4Tc5Rfg3FuGdN5qyEjiQHwY4\r\nbATON6iyETiEwVM4i5CiN3MgwTdzp0w4gx5uNzAenzgAYhE4swUyOBMjkTfhjz04uD8nONZO6zfi\r\n0DE49dQkOJZ1IDj1jrs3fZqFN6bhpjew+AQ4BrP4NxF5DTiCWgE4MF4pOLiJ7DeRBaw35wyzN1bU\r\nrDfC15M3YEypN7JJpTcQvu83iZiDNwl8hjenBp43S7O5N0YXMjhc93c3nod+N+Lu+jcFjr03mAJZ\r\nN1uS8zc92Zg3IAWCN0PyMjgBK2k461qnN7QuzjeGoew33RcUOF41jDcs+N836uqJN2ro2Td3iS04\r\n3EC0NxCc0Dcsaa43Yc33N4rvGzimmfE3b6lqN97DrzfR6A44uZvQN2mwBziUDtw30cKHN9QDqDd5\r\nweE3F7qsOO8wejdctwE4CICZN8duVTeGh8w38gjIN/TGwTfsgoY37PmYN3yXCjjZYp83bvOIN1CF\r\nFzhBCx84x6DNN5k9czf9zq03HlDgN+C5DjhZY8s3E2yLN5bbqTdK/zQ4Dp3oN1Yn4zcDZ5431lh0\r\nN97dMDggIDI4vkGYN4wfCjhM0aI4lpOnN3LrvjdW1c03RYzgNxsVGzj8w9Y3Hx7qN+lsFjjgSS84\r\n4P7bN1olCjib/7o3jXkPOBZDoTePJ6M3zMYIOAjeUTdNLxI4DKQvOFhMoTdCCLQ3FmDZN+cmRjhU\r\na1E3qXWCN2rgETg+V7w3jjVeN/qomjdq0L83Dbc+N72R7Tc0IRQ4+VvbN2/ncTcuDjE3fF8vOLPW\r\nkTcZhu43zW+lN7CyqjfkpsI3a4GCN1/70TeoWhw4PgAuN+M/KDjQPtk3WhFKOKeJ8DdEgsI3qjq7\r\nNzZcqjd03Is38EYQOKT2MDipD4Q3J8KIOLiVSzfCOBk4B1LUN5v6RThF9BY4M3wKOBgDLzgMQ8o3\r\nh8O7N6P73TfybVU3U2CHN/pZkTeGVuA3pta/N8caxTdB3DI4SRYSOMRkPjhXV203MBY6Nx1NJzg1\r\nQBY48WOvNz6xlTeLJ4g3eWooOFJJGDgofQ44pAaNNyF+qDfKvgU4Gv+dNwOJGjgsgCg48LKVN14f\r\nWzc6L6U3l7d7Nzu6vzfvspw36s8POOp02zfbZhU4Ym7SN3ynnzd5CIw3AMkiOLvVyTc1kPY3jmKv\r\nNwNnkDfGcdc3HsSzN7bhMzf5MBU4S0opNw995jdE0U43i0QoOE5anTe3eaY3HCXuNwAyHjgeMnw3\r\n42tIN8RJHTgyCCs4h83VN0oQjDeur/k3ryisNy9+ijeBBCM3DrSeN7iIezemV/Y38gZkN4cdSDhd\r\nYZE3J5PFN/gkHTj6lIw3jKKxN+q6BDimmrc3ePL/N0bV2jcYqAo4q1WQN++o7jdbhqY38s6hN/VE\r\nnDf9VBw4pqbMN0IGiDfSD2Y4cxJnN2T3/zco2KY3ME3YNwtW6jedgRA492W0N1GA0jfw07k3Gbwx\r\nN1woxTecoIA3bTTfN5YABjiN58U3AiiYNzeNvDf0h3M3oPv5N0pmpDebCrc3DYjBN8Zt4jeXyrk3\r\nAlMMOHlKwjdDqME3DC0ROPD+gTd8CFo3/9vhNe6ixTU2MmY1RKO0NQN4CjV5f5417FElNd6FCzXt\r\nGsw1AmWxNPueEzVfl6I0C9sNNa9xrTUM6AI1VJAxNUfXZTXO5zw1I1XoNAo+xDTYUmY1DNV9Nbx8\r\nrTQezxo14W5WNZW5EzXsUUA102RKNdrO1TQgk1Q1qNL+NIBIIjXnLQQ1hCkLNZDgUDV/S8s0dsgI\r\nNbrJETWYB+80O6QbNTeHFTVDzzU1UxKdNY2SxDT+vxM1C2PsNFqk8TSa4940ZpXeNLGnozRaHb00\r\nl6SNNB2fYzXmXTM13vuyNIkuKTVaVbk0uWLJNH7PwjRMLy011i8QNTjm5DTFtcs0g5+gNJdBOTVS\r\nrXM19CGxNHkzHDVy3U41fnbZNHwXPjRuvic1fMvTNI8iYTUPrbM0HywFNQ6U/zQi0yo1K+0VNWXs\r\nIDUyg6k0hkoENU/HvzS9VpY0gmdKNP9QljVUslI1TaGINVpaNTXv4Sg1HjvNNOHP2jRiaiI1f7Ev\r\nNUjhCTXcMDg1CPmgNFcbDzV0VAM1lZgdNcAW2jT6gQA1qGHVNK0ZEjUX8Oc0ChCCNWnMtzRnyAM1\r\nM33hNLI36TTY4to0R5ylNBR7vDSO1wk1JcQcNSASKDUC5P80jJkINdhMDjWMfQE1kH7XNKT+AzX5\r\nyac0n2vmNIqIFDUIDdE04vndNMK93TSG2T81JaHVNOMgcDUYJCU1B626NO0PIDUqwCA1DpvCNClV\r\n1DR+xsw0vYgMNd2QuDSPqYQ0/UChNHDHtDSussE0ukbNNCFVBTXah9Y0zEaONETRCjWMId80Vo2c\r\nNO5pxjQU5uw0xPzONE9+/TS8Xc80eedwNAh1LzWMUvc0VgTtNG3Y0zR84QM1hOLZNBxvaDVgbUE1\r\nkOyLNQVbnDXhkjA15xf1NLiJfzWqqds0W3wTNSEDmDRaqMA0r2ISNWOl8TQAzQc1LgmgNFSZBjWk\r\nHPU02gDVNKjpyjSLn6A0wlICNVjc9zRAMf80vTGMNPEYFTVKxyQ1K+LzNOxJAjUrHAg1wJi1NPuB\r\n/jSuzP40c23GNEmb9jSH4Ic0oE+XNDjBtDQGxas0qfPeNC7ZnDRXEV01WNLENP6qrjRCjdM0e541\r\nNfEfJzV9lFU1QvTjNPP1ZjVa2rA0IxNWNXLV0TTFz6s0ktmfNPN3JjWb5EQ1F9hqNQlWqDRo5dA0\r\nrOSXNFT3DjVEyc00N3uSNZ2OFjR685M0yOrONCSHzDScZfg0hgdxNSL1DzXuPQ81J4/eNDc6mDT8\r\nmuQ0IsMGNa8q/zSWtQQ1cBF7NC4jHDUYw+s03R83NcITRjU3B5U0O9GlNFvP6jShHxI1J4cxNbhL\r\nWDWCSQY1u4eUND9GBTX+DSg1ATtCNV7BqzS0VpQ098KmNLL5IzVVDQk1AOU0NZ1zwTRfmoc1tOlC\r\nNdaz5DSSkYs0qsDgNJlE2DQu1RA14Fn7NEAS0DRuENI0PiOJNRBkFDUanko1tjKiNHZsPjWw/8E0\r\nDoX6NDDpgjRoyPg00l6pNIum5DRPBBc1hPMMNVRT1TRbZeA0shTSNDMKijVwFrU0JSaCNfVRFzWs\r\nH9Y0jHuQNCwdGTQoLgI1Wr0ANbwf3DSGi/80dfXNNEq++TQXBZQ0dptINU6KRzXOlSk1tBuwNLAL\r\nuzQVkJc0bMttNSD6VzWPgf80ssqyNDghwzSECZo0P6eINVqpHjUzb6w07ssANak4MDVCG4U08tL1\r\nNAlzDTW0Im01fPKJNJICGzWj8hY1M1YxNaR3HjWatcE09EfbNDuwnjRJXjo1IycSNS6K2zT8qD41\r\nuC7xNNZidDTB9qs0qYEuNbTfVDR9qSI1GJ6LNN7fVjUw/MM0CyIbNSpLpzQSkf40BUbaNGEWiTR2\r\nKQE1bZZhNXnaCDXSnlw09kiRNHr0CjWvRig1NBspNcTB0TSGNFA1yuvUNEGeOzXfkYU1qPlENdIr\r\nqTQf0wE1WI2zNCmV3TTGOwE16gc9NUY6uDSo9BQ1+aq3NBgdzDQWfL805xu5NLHA6TRhgKk00ZHf\r\nNPS81DQskIE0L6c9NfsUDDWQ7Bc1DACYNG+VUjX5Fbo0Xk7LNNrdHDTNjss0BmwpNZRhBzXAhQQ1\r\nY+tSNU0N6TTop/40ZAsuNVumADVQ7BY1aDjrNGTpADWLVqQ0rYvlNPZjDzWiIQY1dl7SNL3GpzS6\r\nuh01KXjGNJuz4DRsNgA1HCi4NDOyjTR+a/A0qGv3NAsTIDU6BBM1tQm4NIElJjXnfp40QkkKNTAu\r\nFDUXJtA0Ap4ENZAizzS8AQA1y1EONRIqbjQbmmY0iz8aNUrRNDWyMtE035nJNEA98TRTDgE1IMbk\r\nNEBnwTTksZ807gLwNJRvDzUQsrU0rNdDNf8tvTQk/rE0aFg3NaBxpTSpeNU0AAAQNQ==",
                            "noiseTrainingType" : "default"
                          }
                        },
                        {
                          "effectName" : "WinCompression",
                          "category" : "categoryAudioEffects",
                          "parameters" : {
                            "attack" : 0.0,
                            "gain" : 9.0,
                            "preset" : 1,
                            "ratio" : 10.0,
                            "release" : 3500.0,
                            "threshold" : -20.0
                          }
                        }
                    ],
                    "start" : 9697,
                    "duration" : 1889,
                    "mediaStart" : 0,
                    "mediaDuration" : 1889,
                    "scalar" : 1,
                    "metadata" : {
                      "WinSubProjectDisplayName" : "",
                      "clipSpeedAttribute" : false
                    },
                    "animationTracks" : {

                    }
                  },
                  {
                    "id" : 99,
                    "_type" : "AMFile",
                    "src" : 11,
                    "trackNumber" : 0,
                    "attributes" : {
                      "ident" : "Narration_fracture-2-czm-element 7",
                      "sampleRate" : 44100,
                      "bitDepth" : 16,
                      "gain" : 1.0,
                      "mixToMono" : false
                    },
                      "channelNumber" : "0,1",
                    "effects" : [
                        {
                          "effectName" : "NoiseReduction",
                          "category" : "categoryAudioEffects",
                          "parameters" : {
                            "denoiserAmount" : 20.0,
                            "denoiserThreshold" : 0.0,
                            "noiseProfile" : "a6UEQdBBxT9r/9w/v65QQCRioEDRwpNBeIAyQmH0kUS4gEdCnolnQci0lUBQf9NAoqEhQb+Fq0El\r\n/zBE5z38QlKE6EHTXK4/yufAQKayAkEEHYVA3QGRQgWU6kGhCzpB6AY/QLJgiUBpAQxAplfPQJy7\r\n9kKgrhpCv15YQewMckBU2gJBX0yUQDcY4UDCV+RCMNEYQk1u1kEklthBv6mxQZBc6UDzasY+6JWN\r\nQRAjsEHOki5AXE/9PqTalD4ewDA/JJAqP30FMUBpUa1Ac7o9QG5kvT4iZVM+FrAzP5zamT8tePE/\r\njHkvQHB/8z9fbfI+XNYnPjBZXj87lUFA9oU4QOKy8EBo8hZBNltGQPFWjD95KAVAsKgAQadSB0BA\r\ncRxC9KqjQUhAoj5QFsA+e9AxPy+npD8IQzU/A9HLQNNPEz9mutA+n3nTPqgRCD7IrpM+bRpWPT9T\r\ndkDT6LU/8a6KPk8aGj4esWk+KrlhPjJ/mj2iPwxAcBs1P2PvAz4drfE9hvn2PYimBj/ixCE9+qUV\r\nQF6GWz9OahQ+JlI/PWEERT5syb8/3UslP3DRE0AjQwNAzLPVPglzHD0BNWA+L9kcP566jT8X6O0+\r\nOxbfPvs6Kj7LZ/s8UJiyPU8lJz7McGs+LpUdPoAdND92Oio+Z7QtPZDYRz1jCMM8s9PCPdDeVz4K\r\naZc+bgHuPNetKjwrDYM7HA7DPJj2BT36Qhc9ObFMPnE1Az1pd9E8VViKPJoipjw7HbQ9x1lOPPsl\r\nNT5vLIo8dPEsPHzEpjtecLI8lj5uPIgaMzw5SYs90Fz4PFpuuTzcBNA7WvXyO0KJCD1waqA8fm9b\r\nPnEWgD3XOaA8IfLcPJCznTyi1FA9ADk0PhTCiD4+Sbs99elePS+8Jz0qXwk8XiXwPcBdDD/6RBQ/\r\n9LQCP/WOmD2cABY+amGWPWqTzz1UczI/zpR5PYRvbT8kGA8/EBWmPqRuND3CTZE9IX6WPu4LlT4U\r\nGdc/3CsmP+ANOD1Xrqc8qPyXO6uYkT0gXhk+5hDtPjHDrT2SeNc8tGE4PO1prjx/V+E7wYWYPG+t\r\nGj4/hes9PibHPNfiAjy2QJo9dD8NPefZSD7mzI0+HB+zPvQByj1TwiU8z4VuPPBh9DyQbb09UwRs\r\nPtc6lzxmFeM7Hlw0PDmqwjtajoE8+M9JPW97vjy2MB492W0ZPLl+eDwWsv87zwDaO/CsRjyCDtg8\r\nXOErPAiNiTtCAPI7mCSCOzJwojtO5RI8nstwO2aK8zpE87Q7qf+1OyNJizvi0aQ7i+upO0YXyjtm\r\n/5I7RMmqOy2wnDv0cbM7o9SmO0YBljvYlaQ7hnKPO9TnnzvS1Kk7i7KOO4X3ljssYZo7We98OwYL\r\nazsWkoc7dV+AO5HbQTvg+Ik7FFxzO6bKazuwo307QNV5O0zrgjvx51M7nx5hO5i0Zjvvfpg7pviP\r\nO412bjsfhAM7npVWO4hifjvFMpA7PHdqO/iQnjsgCCE7jOSKOy+IMTsJx/g6WttCO3MOlDvUXJY7\r\nn+ajOj1hMDtC1x07ZGppO0ajWDu4pfw6KkJYO0r+pTrpSD874IknOzBjTjtKbUM7td4ZOzZZZzuV\r\ngkc7injzOgyd8DqpVzs7viFxO0hfeDqG8UU7QQdIO8ceMDsGG1A7pGxnO8iVrTs8BY86YTIJO1Ed\r\naTsuZB87SqEWO0/tUzsUAs06p7/kOq7HQjskjpk71rY/O3EfTjuVOCc7b4JYOz+K+jpRe9E6vTwX\r\nOwurMzvuNdA6tIYFOzSVyTp4uNo6ef8wO7TI0Tp48P46ULkUO6nQTDsf2Qs7jD1iO4YawTrUSUA7\r\n2sPMOt87Cju+guQ6OEXPOjIq3Tr6KTs7dHSuOrr/VDqynS47WMvsOubfWDuEqnY7oO8EO/kjDDuz\r\nFK86maFuO70/lTqW71w7LYpeOp78TjscCwE7ZmgBO+airDqTTjE70OIHO3fB2Do3KQM7Lu3COrz5\r\nozpMcs86WF2fOnDrqjokfJE6GDK/OlNf9DrzeuU671b3OgitGDuYLLk6jJ76OoXPvjr7wxI7uPq8\r\nOgYdFjsbN6U6Osr7OibRxDq2dr06VB/UOipDBDuTFAE72dt6OjIlmTr6oao6OzOQOh0AlDrwK8Y6\r\n0MmmOmJfkDoEK+s66NWvOpah6DrVT9M6AnynOvX2vjp05BQ7RQCAOrrr4TqKBts63oTKOrvgwDpg\r\nidY6BpmVOoLJlDoiC/86WVv5OrRatzpezYw6knClOhXjCztMLlA6fpnLOkQ8uTqAR6g6qlejOjCS\r\nHTuNlKc6jJ5KOtw2zTrc7wY7yhfGOkotsTp8+ZU6aSWGOgA9uDq+ljg7omqlOuZ1bjquR6g63iyx\r\nOqafxjq6tHk6snq/OsFKyjo175A61jOiOvMaojpkE4c69reDOjxnAjut99A61lO4OlqZVDrSQTc6\r\nqtmYOrDTtjqV3Gw64KI/OlodFTpd5so6aYlTOj0wNjqo+gM7U1flOutNpDqIScY6YyLjOrwJkTpQ\r\nnjA6gQEhO6yfojpDlrU6EsEvOmnHLzp3ZR07YrnNOpy8tDqWnRU6jtkvO4RulDqVI0k6TMTLOryG\r\nfzoVOmQ6auLcOfYWuTopL7063hY3Ov2lWDtOzog7ht06OvKWLzpJXJI5w44cO5B07zrFdDI7KzA9\r\nOpZwZTp/bKQ6eQqhOsgbbjkWuYE6Nw27OoDQ8ToM0N858mh9Og4y0ToFj7M6ep/lOVK82jrIrdg6\r\nTkEsOn4HNzuEzX86pbImO2kTajq1yXk6fQeVOqglhjqEu/86+IEGOzLywzpj85I6ECE+OuqCUTrv\r\nK4g6DctZOuEXIToM3UU6j0YJOk6XNDrU6Wk6rZiLOukdUDo25T06QASCOqwiXzpbTZM6ZAB/OjIM\r\ngTqc7lY6iDWmOhKdiDqC9p46SWdgOroegjqlzmE6wf5gOihPWzp+BIk6yOWFOkpbPjrbFVY6Cm1Q\r\nOhQ0RzoIP2A6KK+aOqt/OTr6XRw6rh0lOi4PWDqRKwA6sWCDOgSbCDq7F2k6TjI3OgUFbzp6USE6\r\n4WF6OueAbToKPIE6uwh+On6oLzrWjV86qFGYOr/HbzpBVmo6RJEkOoCVBTpz7DA61qtvOubNZjqb\r\nxU86vdUROgw0wDlQnQE6ksBIOnSFXTq5bV46mjpXOs2oSjpa2086siFoOlnJVDpxfoM6wuxQOh6Z\r\nWjrpvk46iGtkOioQWDqqMl060chROr+pWjok5FU6XVJTOlqYTjpbdUk6JtJOOt3QUzqXKU069mtM\r\nOlmKUzrpBlI6thNTOjAfTjoQnFI6erJOOp68SToBJUo6BllIOj77RTpws0Y6uaAxOjyZNjqU5zw6\r\nnhtFOiw3RTptLkI696RAOvDwQjpMpkA6iMRBOqPdPjoO3Tw6iGpEOjXGQTqbgUY63nFBOkwPQzrt\r\n5UI6ModDOkwkPTotIUI6KhJIOn9uSDoCxD468Pk/Op3PQjpWUTo6Yy84OlLsPjqZiz06FnU7Okuo\r\nNjqgWDs6BCc9OjTHOzoHGUU6/+A9OprYOjpw/TY67bE2Ot28MjrAYTk62J83OvAINTroCzY6NCo9\r\nOu2cNzqiZzk6vVA0OmtDNDqzyzQ6n4UvOiMkMzqDmjA6/RY0OiJ4LzpP2Dc67SQ1Ojd3Lzo4oTA6\r\nKaIzOonCLzouYDQ6cbAwOiBCLTqIbDM67qAwOjfzLjr3XSo69kguOggDLDp3ZS06MFMlOgWJKjqw\r\niy46QokzOiTWLTrvaSs6KUEwOo1cJzqc8S463DguOnqJMTrC3CI6C4koOobrKjqysyY6XKEmOkn5\r\nKTojYSo6NKolOpBjJjrrzCc6MvEtOmjTIzpm/SQ6gIgwOk/qKDrkFic6NaMoOl0xLDq01SA6seIl\r\nOjigJDoZqCc6N48kOiI7JzqdGBk6OdMdOg5NKDoOSSc6E5sgOkRUIDpz7R86QfAhOmDnIzptVSU6\r\nSisgOlujIjoV5R86fqQdOlfgIToyKCA6YGogOoIXJToA9x06zmshOjP3Jzp/Fxw6DKclOj8nJjr2\r\nuho6HAcnOmLPHjr6ER86ow4gOkn+JTpVyBo6fjgdOmL/GTp10xo6PaIdOjOEGjo/2Rc6qJwmOiZA\r\nEjqebCE6ZyEaOmfOHDpfMB86IZgfOk16Hzor4yE69EoaOlFPGDq+Yhg65m0ZOvbFGjroIBw6wWgW\r\nOo73HDompxo6+lIZOh4eGjo4Vxc6exIXOha/FDpPtxQ6EsEROsQ1FDqa7Rc6Kb0bOmNxHTog6BE6\r\nklQOOm9UGDoCwRc6ZK4UOn1wFTpPjhY6oY4UOrU0FzqltBM6jaoWOr1uGjqqtRM67O8OOmJ9EDpi\r\npxg6aI0YOrCtDjq1kBg6WJwVOujmETrPshU6qH4YOnDFEjrJ1RQ6INAROpWaFToprQ06j34POs4u\r\nEzqTDAg6kaIQOqipDzriPBQ6/zsSOnuREToB4BU67lwNOlduDzqeSQ46fNIPOiZiEDoUNws6GRkU\r\nOrqFCjq8mQ06318QOjTQETrNORQ6nUQMOpICFjrcJg86lj4JOtDkDDpb1BE6aPsNOpSjDjr/IA86\r\nYrINOjuVEDqw9hM6qDUOOkdBDzpArA46tHoKOo9RDjokdA46mhYKOrMCCjrTYQk6e3oIOrZ1ETpO\r\nmA46vXcROpG7BzoknQw6YqUOOjhQCjqMLAY6TwIQOt62EToAzgg6SrQFOgvlCjqviQk6o/APOvX/\r\nCTop0w06ZtgIOhkXBzp8ug46UfIMOvqPBzqJpw86EQ0IOlvvDDrIYgc6hg8IOndmBzqp1As6LjMM\r\nOijmEDqtuQs6rysHOospAzr8pQY6Z2UGOnCkCDpdQwk6cZcEOpZCBDqhGQs6/KsJOgKSCzo9dwk6\r\nEXkMOvcJEzrBlgU6v8EGOkW7CDpyvQo6ACwLOkYLCjpYqA46sAQQOkEJBzrfLw06p7gGOv6UCDqw\r\n4QQ6oZoIOmaVBzo1Mwo6aJYMOi6lCTrn6Qg6R6cGOqkpBjqAoAU6t7kDOpVuBDo9XAw6D60EOgyy\r\nCTpvQgo6KSQFOpDqBjoBLgc6uOcJOpUNDjrypQM6SnUIOjt3BToZQAk6VrAGOmmIAzo9RQg6p3oK\r\nOsL8BzpwbAo6uzUEOm4/CDr+aQY6H3MHOsD4AjqB/gs6BMIHOlRhATq33Qg6uFsDOuWVBTo+Hwc6\r\nmpoBOqBqCjoCRQY6ZhYDOlm5CDqCrQI6is0FOgdDBTqQVwM6w6kGOgCPAjpuhwI6Fx4AOjLtAjrd\r\njAU6dh0AOmvHAzo3LAU6sY8NOjAbAjo45QY6PuUIOkBLCTqV5gI62PkMOouGBTo7jAI6PwsGOkd4\r\nCTpJnAU65rQIOk2BCTrFbgQ6NoYCOltLBTpbKgY63rsHOhvfBToESQg6vwwFOq/WCDqlUgc6CiAG\r\nOug8BTpz0gg6bK8KOicyCTqgCQg6ny4DOlVMDDp7PQE6+AUDOqTeBTraqQY6H/cIOgDRAjrZVSJB\r\nTsQOPm70zzwg5xQ8F5/4O7iQQjv2CiM7hDryOkv6KDsvqOk6mjibOh+pNjruYYY69JzMOYseOTr3\r\nF385ZnPDOZb55zmwpQI6R+LWORBbxDmpNIM5OYKJOc7NqDkzbtM5ygZ6Ob5CkDnk4IA5GqxqOQIc\r\nvjkm1SM5zPimOXalgTmybBg5mGteOSodOjl28Zw5CQcZObKgLDkYtTo5GVxYOYx8RzlmWEc5Qba9\r\nOCSPPDnToEk59YZSOPiD8TiRevU44oZ4OYA1rDiqMQM5/EoxOUiiVDnljdY47fYwOedIFjnIOjM5\r\n82QMOU13ATmrQt443AvCOI75hDlTsCs50VvGOCDTHzkUkoc4AMicOGte6jj8QQI5oI+xOOJZBznA\r\nolA4gY7rOC4kNDmmhYI4ykaZOExelDigUuo4qdX0OCCqGTm24wQ5e6MBOVMBJzmobS45tpZUOQut\r\nqDmoCIU5mmyVOcNLbjk/ZD05Vj2gObpwbzrEu8I5kF8JOTPtiDlAMDM5qn9/OZDSfDgIkys53DHg\r\nOLYRPDn42os4rM9KOS0KtTh08VE4Y7VpOOVQ0DhB05E4hD+QOOBQxTeLJGU4ZFMEOQkDKDj1ds84\r\nQhVNOCyGXzjYQaY4uoSZOLptSTg0JSo4dXf5OBY2yTjKTHo4BH+aOIvYCjlS7U4493QvOBB9qDhz\r\n2Ks4xa6iOLgL1DjVz5c4SGKeOIbgjjhiByk4E3W2ONg4ODjyjmU4DPvDOCTWljiy0jA47YesOKEN\r\npzgmFfg4YvbUONFdnzhYiTg466wrOBrgPzhY53o48R5QOIpFGDhbQH44+783OKdDNDhXNCk4AbIp\r\nOFizDDl2TTg4lF5mONz9PTiGWXs4pp9FOKx9jTj6Yn44sZ2FOG5wXjjakbY40GGNOEYBRTgobLA4\r\nTxkvOJE+njiD7jk4KE2VOKq7zTg56x443ROPOBAlNzhGFW848PZgOCqWgTjgMfY3hNP1N57uJjkq\r\nXzc4vAVcOIKcvjfMRD84OqEwOEVqQjhvAKc4c5ryNyh6qjj9tLo3KrfkN30KyTcbRsU362sOOFKu\r\nqzcV+i04+FO2OEb/DzgSRLc4ZC4SOPClEThaE+E3VNKRN6wE7Tex/Y84Gz4zOLL80jcDvwI4BXXc\r\nN4ONTjioopw3pr0gOGe5MzgNBNI3tvL7N8up3TcUnA44EQOpONKDiTdw1Tk4aL6cN0ij9zfQTiw3\r\nr6w6OMDGBziEgAc4DQ3bN1CVgjiX7jk4wNyBN5KfCzjv2ZE3A0AhOPy6STceuRY4K77eN1wy0DdQ\r\nAPA3rnV1N56KvDcCKkQ4tYOHN/3+Ujhg6xc41o/7N9B7vjeUlLc3etCtN2CQZjfWwU032CG2N07m\r\n4jdwFwE4uBrdNxwCHThiBBI4termNz624jc/NCo4SgmlN+pQvTcWZkw47zjqN4OMyTcoBt83vi8j\r\nOPY5nTclfoQ3Knq7N6bEGzivWhw4tJATOIFcNTh9fKQ3KGMgOJoVrDf5uIY3dLUwOLh41Te+s6I3\r\nbA6CNwRgtjf7FKk3tmLON5gWEDjQVNM3Ny00OAQwVDeQ0TU4yZCdN6gJgTeGmhI4rmW3N4yErjfh\r\nrug3NlbgN0/lAzgdk483J4R1NyPktzdxQRg4MZ/KN1NtCziSFys4QxQoOL2IMziytzY4rfzXNzYr\r\n7jfqMD84DJ6kN/R2WDhKQOU3+hsnOKQTojcbpeI3/UXkN3lxFzj2T8o3RuftN8HBuTi5SBI4AkXY\r\nNxxFBjhsOZw35iP8NyRNjzgshA84uOUAOFO7oDc6/lQ35NJjOETg2DcwKQA4ZK4FOFIHCDiNCvg3\r\nGlPtN/sDETiQ6aA36DUoOBI4UjhlK284ETD8Nw0xyzf1Rdo32ikvOHsFzDdMCfU3bXmHOBaG6zc4\r\nqcU3381COAN1azc+tsk3LAIdOANUkDf7C+E32POqN+4O+DerQEo3IwgKOEvkEzhOCiM46LyQN9lp\r\nnTeGAa03lcsvOGzTGTjffTE44kXfNyQBJjiMVfw30vfGN8zfDTijtGk3UxQaOEHb/TeL0LE3O2y4\r\nN8rvYDdq5ME3u3jUN4jAADgav+w4tGy5NwB93jcIvC84t3dzN6ndNTeE4yE4qsHEN4TXnjfOHds3\r\nYS4YOM+Z3jc0ExI4eJ9XNwtZ8zdKvIY3DObMN5WU0DcoDd43Y53VN0EMLDiEWAE45n/zNzEKsTf5\r\nd5o3pZ/aNz9xoDc3JxE44CyON34DzDeiOtU3riHbN0pj/TfGuIU3B2tGNz7HnzcsT703CrnANwkG\r\ngjcqDjw4bs27N8Vx2DdvXsM3FU0kOBBz5Tck9qM3cbQMOOqoozeA4tU3LegDOPOZzDds2A44oU5o\r\nN0DspzdKDG04W8ZJODxryjekKYU3dIAWOBU2FDj0i9I3qtTuN9xSGzjcZpE30SR9N1IfHDjKkNs3\r\nhLONN4NaSjh2eb83gA+nN8KnAjj+x7c3eUTYN9xXnDeyxrM3ozMiOOqV6jfSRMM3juB0N44U0De3\r\nuqk3F49aNzaCEzjNEgY4eWdsOPZAAjhtr3k32fU6OMzbnjes7Tg35y7JNyVg7jftObE3SkaCN2ZK\r\nOzgzsrM3kZzmN68lATh6P4k3vDIBOPNmzjd6heg3IHLPN/QUljcg/PU3CMhuN+bR7De8a/A3nFwe\r\nOONunDeF4w443GwiOEOU8TeqbKk39uLdN2XrNziDU4k3i29XN/KY/zfE/Vs3OGKUNwBpWziK1Zk3\r\ndK1jNz5X8Tei4Ao4Pd3ON9wMczjIVb43W0mqN88DeDddBgw4+NcaOGaFsjfINgA45sSZNwW2uDf8\r\nYFI4svvON9JfJjglhN83ALnMNzrEujcKosU38NjmN0Er1jdPPkA4SxgiOIU79De1dag3up0YOD2t\r\n2zcPnZY3zsW8N/xY8zf4ApU3oXu2N8WJFjizaaE3wE+ZN8L1TTdtJyQ3Kdu6N8gxZzc2vKM3fO89\r\nOPkGRzgVsqI3DkvWN0i52DdB/Y43up0MOGEuhDfcMo036d+8N/oTVjc9q+830doPOBy2QDiCOrg3\r\nlcOrN2Cm2zep7Ks3Yje8N3ENgDfgPoI3qmslN+wb/zbimyw3ArOJNmlH4TbXP5g2kG5nNeYrKjVU\r\nN+c1EJFNNi6ZazWAhS02o524NkF6pDXa1uM1B5ilNfAz8DWsMSE2YEFDNd83aTWwhok1kln8Nbhs\r\n5zYPf0w3oKNZNZmE7jaNSr42IqqyNqfVmjdLt8M3HLmMN5NWiDffXgY3GJgVNt5O5zVsZdk19y4H\r\nN9JFaTZHN4Q2heR5NQc76TQXYZg1SuchNr0OeDXgSJ8178WzNpkRPzZ6spg1RnJtNrdE9zY9m1c3\r\n1ra4NlYTkTbvgJ82OYs+NjzqwDa0s/I28FOyNcZnyjU0iQI2D3ChNvNLrTXZBpY15MzxND2z3jVE\r\nMOU1UAciNocGYDV0beU0PKF1NYrq6DQYdQU1BKkNNUroPjXjyJo0NbgBNZx5DTWvLzI1jyEYNQiA\r\nUjWy7VU1fjAiNYWh4zQgUKo0QlvUNGhHIDU56PI0mtk8NeNXGjVLIgo1u70WNWBKgTURomg0BnfG\r\nNd7jNDURiDc1D7AdNe+3hDVqcgY1QBA+NXBkGzVo3LE1VtgANegXajWtPBA1pJneNDVE1TRrGVc1\r\nYoRWNQ7SoDSO1ZQ08IgnNWvUrTRtDwI1R4bsNN3R/jQ8gP00FdycNIW1pTQFMVg0fNbWNGfXrjR/\r\nzs00II1KNWXapzSswvs0j3XCNO6ypzQBLLs0HceuNHhaBDXPveI0AHHLNByjWzUoATM1R6pQNVIk\r\nHDXEiaE0nKbSNMrg1jSQcLk0rdwlNUPCSDXrLsI0DBUPNSsXwjSzsAU1PqxpNBM0sDRSjRo10IXP\r\nNNfxEjX09tg0z+39NAJipTRRGvc0c7O8NAEAQTVMkLs0ODDGNBb1EjX7yME0qG+lNJuv5DQlXfQ0\r\n6TOZNKdNjDTNmSc0D2z+NAc7bDW0/9I0QhDuNCt25DQ22ZE1vjwnNbDDRjW8nvQ0Wo+INMtYETX+\r\n4jQ1jGOhNDES4TTQDBA1DpcLNS43ADUykAs19Be6NMi4AjXwZyw1+GkxNXuXKjVJhYY0V+jKNLac\r\n7TSexEI1FbEaNc5mazSe0Ug1qGPsNPJFvjRgHzM1Zd4bNeIqFzXpMQk1IvHbNHsgGjXNipM0YvyH\r\nNTZj1zR69T01Dy2BNPMfJTVzdv80uwUCNXqmFzXYk1k11psdNVAq5TT/0v400EMONabAxTRUgWw1\r\nchgsNfxQ8jQe1AE1/znjNHn4wDSy1ps1OSEWNYC2LDWV0ak0CRBJNRYXojTZd840TfRnNPSYoTX4\r\nJo40Gu0BNQkOujSizgA1+yfhNC89tTS6ymM1+21hNJhQ6TTU+SE1kvINNWcP4TRFh+00QaHWNMDb\r\nHjUP6k41Nf+dNXHa7zSgHso01S/xNGcHEDViz/80qg/ENCRboTTCxPY0n5YCNSa1hjRbSzM1HoDT\r\nNF4EZTUcyEA1e6TtNDkDADVv4vw048YZNWHv4jRH2jo1LSANNT4rsDTCkvc0MyUQNf5AWDWUkPo0\r\n7YKrNUCJGjXA+UE18aOsNOKbGTWYxA01HE8JNWQ2izSmS9I0FzK5NIJdGDW8pfw0piYvNWsQKDVI\r\nEFc1uVvzNGRxkTX5ptc0boSnNEqExjRBgtg0xM8iNSzKFzVl2qc0ZpijNGwOnTSKwm41ORWvNLBc\r\n4TQovyg1lO7VNHTv7DQEmxk12QCeNNvP2TRSW5U0dHnmNN2HdDQqHuA0RF4kNfOuVzWr8OY0dD1d\r\nNWU+ODVPCQ01y12BNLgKkjTprQM11eazNO97rDS1rAY1+hS8NIzUhDRj05w0G2bUNMxhvjRwvBg1\r\nuoX6NN7f8zSKUgA1/If7NIlAQzVUd140374DNa1kujSUkog0PkK2NCvUwDREnCM1bbFXNZo1xzQg\r\nqt00JjeiNCPuKDVKVjo1SkdLNQp6vjRzNms0dDu8NKgdSTV85Bg1RbjxNGN4BzUIUI8075blNM4E\r\niDTq1BE11g4WNa5pzjS/Tr00GSSwNe+DGDX4a1k1L4INNawl9jS6LaU0ZdinNFiA0zTaD9Q0UH+z\r\nNLjixDSeHhI1Ti+xNITPwzToQ1M1rIYNNVqT9jSY0QM1MYYQNW45VzVGSwI1vOWwNKjM2TRonQU1\r\nvF6uNK41njRDtt40wUGDNLLeBzW09NE0KOI0NRwDDzXm7OM0vHbINLTtFjWcGb80erYFNaaQDzXZ\r\n+Tc17XPrNMdP4jQl4tY0x7tsNdWtcjVtlQE1LOHrNBuvFjV6Uog0sgXGNERn7jT9dtE1PAapNGA8\r\n5DSakwA1fFIqNd3KAjU2dg81YoyANBjFGzVli/Q0niPuNH4M3zTcQ8M0OODONJYDlzSaYBk1cnIT\r\nNfzIUDW2ApQ0dNsBNRgM4jSpUOo0//tyNWv5NDX9v6A0QYsYNYR4zzR8zzU0AACANA==",
                            "noiseTrainingType" : "default"
                          }
                        },
                        {
                          "effectName" : "WinCompression",
                          "category" : "categoryAudioEffects",
                          "parameters" : {
                            "attack" : 0.0,
                            "gain" : 9.0,
                            "preset" : 1,
                            "ratio" : 10.0,
                            "release" : 3500.0,
                            "threshold" : -20.0
                          }
                        }
                    ],
                    "start" : 11586,
                    "duration" : 951,
                    "mediaStart" : 0,
                    "mediaDuration" : 951,
                    "scalar" : 1,
                    "metadata" : {
                      "WinSubProjectDisplayName" : "",
                      "clipSpeedAttribute" : false
                    },
                    "animationTracks" : {

                    }
                  },
                  {
                    "id" : 100,
                    "_type" : "AMFile",
                    "src" : 12,
                    "trackNumber" : 0,
                    "attributes" : {
                      "ident" : "Narration_fracture-2-czm-element 8",
                      "sampleRate" : 44100,
                      "bitDepth" : 16,
                      "gain" : 1.0,
                      "mixToMono" : false
                    },
                      "channelNumber" : "0,1",
                    "effects" : [
                        {
                          "effectName" : "NoiseReduction",
                          "category" : "categoryAudioEffects",
                          "parameters" : {
                            "denoiserAmount" : 20.0,
                            "denoiserThreshold" : 0.0,
                            "noiseProfile" : "tvOxQpznt0F20k1BUkxPQe4Tk0HmtjxBnVzbQRB+l0Iy4+5CfqeBQxPtDkUJLBNFp/Y+RQ7q2US2\r\nY/lEZjUZRf+3iUR56z5F+NSLRGsK80JdxYJD2UCZRR8rEUVd8k1DYwoqQ5vXLUOFoO9CokQBQ/dP\r\npEK+kdJCQn9iQ+SZm0PIfB9DzLZrQlYuXUMarWlC1fUiQRwixEDJuHlAmyUVQGlNBkCJZbI/QO2s\r\nQL5SVEHXrbY/CLdqQCQvRkBCvGtArA4LQRDb7j93DJJAoBNEQKAV/T76x+U/bvvXP3/hDT9Z3Ng+\r\nu+QYP+N2ST/BN0M/FpgJP764IT9vsOM+egc8P+ka0T8rIh4/bMVsPqokID9D1hc/tPMZPxxe5z4I\r\nJCI/MBr1Pr9u4T5Y2mVA2MG0QPz21T+YjDBAPnvpPxK2A0DwhwtAhAt4QPXXBUAB92hAI3/iQMmH\r\n2ULJLhpCu2DGQIP0HkD9syJAuxHBQPLjCUGvMiBBkYzCQP9Y3UAq0s4/fo6JQHRTBD828os/o06A\r\nP+oUID/55cM/osXiPqqVJj/lkuU+vrviPgaMEUCIN5M/XAYwPlm+Oj8nZAM+3fLcPmvIkD6TqwA/\r\n0eQsPrqLCT/ifxg+cVMUPzL2Aj/88xg+64ODPtxrIT/AlRc/mi2xPvFbjT8nezk/6BMcPwqHcD/B\r\niBJB368LQA89/z9QpBU+JKgrPzT2fD7sfus+3YOSP0gmwT41L2c/vu8PPw5GYD9z6YI+PJYrPwyN\r\nmj0cGog+LHmjPjAhbj6ip4o+c81nPpes5z3aNtE+jmI/PvzsSD5OdgA+HCncPYE0DD7cSsE99q+A\r\nPf1yGj4QO6M9Qq+nPaDKGT6rmKU9ozSEPSISuD2KoME94SYJPgytiD08HZo9IjuLPQh7iD4Ecpw9\r\nwJAGPhtbrj0TAqw+WnsJPnDh/D0V6Jw9LXsGPnBkWj3F+qA9InaPPZ1u2D3kHl89HMmZPQMShD1Z\r\n1T89QI7/PSzH5D38sHM9JAx/PoDy3D5G7gY+rGFvPn4pvD2vfk4962yhPr6U9T5kHMU+EmWGPn+u\r\nlD6+jjE+8nyeP3kJ0j9SqB9AjIlGPyVLbz8Qayg/8BlEP9MB7T6eAAo/Dc2BPqJORj/f3Ks+yFGu\r\nPmhBmT4MvMM+fP+LPl0Ehj5M0hk/8PesPnIXUj7HvXc+pPNfPlb/+D7DD7k+k+1fPp5xND+u1AI/\r\n7FR8PvZVBj+OhhU/ZjwmPxW2ID8U2eE+I4L3Ppkvvz5clvo+4NRVP521lj/hdo0/nAnaP/XlgD8/\r\nnhE/Rn3YPxA8dz+L0g5AWhMfQNHIQUCmq7g/RBthP46VvT59Po0//2e0P7Wj7T8SofQ/PiGVP91n\r\nBz9VOSFAGbKLPwvTDkCEOhtAgifAP0qFaz9EMQBAqNGoP6AMfD/kJO0+wYM7Px2AFD8MCXc/lIuk\r\nPzZBSz+gjQg/C3b6PgjXFz8AAQFAVg5YP3hKGD6BXYc+rzWLPmIHET8JZY8/KIZUP5JLHz4lVKM+\r\nOtvHPqzG7T7mUvI+gHR5PgaikD70xb0+rCXsPexHIz4YJHE+lqq1P3RlvT6aHSY/c1SFP3ce8j7X\r\n51Y/QWaGPn7YTT82TDI/2zK9P4Q6XD6c3Vw+bNCSPgs+ZT5kvHQ+NISaPsT96T6wKN4+mjUYPwqP\r\n/j4Dcv8+m0TWPhF8mD82Flw+uWP5Pm6gGD7umjg+B8T0PtFzsD1Ssn4+ioPSPUQ27T6kbm4+NeMh\r\nPTQQpT6x+e09CcddPrTN9T3aNKY9GBqCPim4Ij7aNlw+moFoPsMj5j4bhg0/9jX+PZ4hEz5wzRA+\r\nwbK4PZlQ5z4Q5Z4+o68OP70cST5tnfI9qSB8P8RVwz5pATs/kjbdPSICRj5SLvM+otGMPTNZ/z72\r\nbbY+OCCgPzsOcz8qnD0/15ptPgDOoz7x0ylAzw0mPn5/+j7FBms/XwDJP6KNVj5Ti7s+vcxPP6C5\r\nIj922fE+OyczPtwG4D4Th3k/nAyGPgcdSD5dKIo+vOeZPvjGtj5iH64+JPb5Ph9mQj+4PGU/ehFi\r\nPy6SQj99Na4+7O2jPsg8QD+we40/KKoGPxCojT6LASE/IykEP1ij6D5H4Vw/HIh1PuMMeD5p4gs/\r\nL7tcPxBWXz4BVdM+RhluPq0ygz60Uyc/4FZaPsh5MT9yHU4/2woQP4RarD4BzmM+Cr+APuJb4z7c\r\nqww/UN7yPmQsJj5tzkg/O8SJPsy+Rz/MqEk/OaMHPx+Xgj6AhIE+diQTPuyDjj4IGRU+73fnPl2Q\r\n7j5ANQc+gFu4PsFaCT6x8TA+WsUjPjv5BT8gCsQ+KHkjPp+fBz8sejw+k/tHPghRkD5Fks4+ehu0\r\nPq7jaD4QloU+lnm1PjyBjT5KyoU+nHHcPfFeXz7rv7092GZhPuO5ij6iiuc9aUZzPhxSsj7e97M+\r\n7r5jPhFfCj79e9A9a2QUPk08rj43EWc9ubt0PoS8Jz4meRI/nBm4PnCjMz5+m+U93EUlPs6Wjz1V\r\ny3s+USyBPrpyAT72gN89hevAPd2ndj5YcfY90rdQPua6kT7/jGM+63CaPoxXsT4aTSs+yzRLPXnc\r\nXD14rXY+yEzIPohBAj7ooEM+hSq7PWbugD6nGno+7AI0PpqfeD7mxnY+U0dWPvzQGD5pJSI+8krE\r\nPVCZCj7PE3Q+V/tjPhFX8T47gSI+L/MpPtlgij4jM5A9kKGHPovZbz5/yu49GL0uPJwEqz28XWg+\r\ncCu2PUagHD6B8bk9kweDPe3dhD3ljV892pxYPZsrgj7IkXA9Af5SPVzcTj2hpVE9v7TXPDgiLD5U\r\nQ+Q93DoSPszJpT082cg9YdBqPdSDTTyCqRI9ovk2PT9FkDyYDX89VlNHPCEBmTx8tyE8+N6NPcbK\r\nNzx29Qk99DSHPZ6oGz1olag8bLaDPE5eQjz77389cY3MPIbqWz0AC1g8xE/fPBXUET1oMt88TJRY\r\nPdwE7jyOr0Q9FvMKPcCIczxlc3Y9Pl2SPEeadD1ocx484eKmPXThsjyZZuM8oxIZPe9OJz39oAo8\r\nmyGkPCBUDD3S/608zFVfPDJz2Dvq4pQ8wHKhPO4i7Dzu5WU9L853PQSvtzzgZaY8+AepO806jDww\r\nuOQ7EP4pPOSC1zuNrJM8oMfFPFujdzyAT/s8AmVqPOBE8TsZXXg81R2eO33xyjtcWD88W2JvPMIK\r\nKzxC/tA7BYEIPOeoYzum5ug7JjqjPHqzbDyH7Dc8UIIEPID22zvlRZM7QlEbPKxoxTvefeA7e8xC\r\nPAIvMjxbl2Q8Ww5YOxtNZjylYI07VMdUO4gOkzyJiQM8TSlZPGf5tjv8G5c7TR4PPB51Nzw2/p88\r\nmNSYOzYiYDs6qcM7u7flO26BWDtI9l07yAcUPL21DTyxmwY8THVtO8uUmju0tFg7XCJ5OxeOkjtA\r\nhac7GHBMO2AfSDu6en07J9OAO1mUaDssHG87pu+ZOyN6hztnXkU7rg84O0/QQjtIsUs7dctgOwvR\r\nmDsVsmA7GVM/OwR3UjtGgjk7lnG3O8ojWTs1+EU7Kss3O7rlPDtugDk7ePQyOw6MMzubuFY7cbUy\r\nOx0FMjvM6UM7hHs/O7JWQDs4RUg7LZtcO5CrPDu++jQ7CMM2O16PLTvzQjM7R2Y2O6bpYjvMNzE7\r\n/FswOwJSMTtNTi07ItwwO/4BNTv6py47cn0tOxhkLTusxi07ytUyO+E4LjvkbUM7lb8xOxYNQjvU\r\nVzE7XJ0tOwq4Mzv8yU076J8yOxoaLDsKCTE77PA5O1hpLjtxvy47o8IvO3ZGKzteaio79K4mOxw4\r\nKDuOEik7N68oO7gwKDsGxCg7mBcoOx5+Ijt43yU7YdgnOwl5JjuERSg7YBEjOwTJJDu56CM718Ek\r\nO5kUJTtQTCc76L4jOzhVJTudpCM7ATAiOz39Izs3RCM7ifYgO0YpIzttOSQ7r7QgOwsJJDvpeyA7\r\nWsEhO1CAIDvrih87txMgO/xKIjswbx479mghOzEYHzsXaCE7hnUeO8EXIDsfph87zO0eO6HjHzsw\r\nWh87fAocOxD1GzvNCBo7duUcOwXxHjvDDSA7WCQaOw1VHDvAlx07zCIcO5ksGjvJ3Bs7B3EZOwNo\r\nGzuKQxo7fWceO7eaGDtGlx47Nu4aO1BWGDs4Uho7T4AXOy4aGjvs0xk7ruEaO8/IFzvbXRo73E8X\r\nO7yZGDtX1Bc7XO8XO5hmGTuApxg7wo8WO9jCGjsIyRY7h+oXO2J5GDuvJhc7Jb4VO6aEFTt3nRg7\r\nwE8SO7Z4FjtByBI74z4TOxZuFDtzIBQ7ai8UOz1uFjuceBc7rRcVO9DRFDuXlBQ7OW0UO0s1FDvJ\r\nLhM7RDcRO3qMETsjvxM7wfARO8j2EjtYKhE7m6cTO7SqDjtY0A87CmkPO6QxEDsnnRM7+ygSO+TU\r\nEjs9fA87XqsTO9X7ETuCBxI7ax4QOz/fDTsGihI7v+ARO8uNDjtsuQ87zwYPO8iDDzvNtg87IOQP\r\nO0NjDju4dBA72JcPO7XPDjtU8A473qUNO7oZETtCUQ07a/sOO2bTDDuiGQ47LwoOO1uYCzuc/gw7\r\njFgNO2uNDzsbJA07aYoLOyUfDjuibgw79q8OO3mjDTsttA07at4NO9yYDDuWrg47hqkLO9l3DztW\r\n9Qs7xpcMO+IlCju0nAo7h5ULO7rMDjuV4Qs7WFIMO1dTCzviIw47sxUNO7HYCjuoOww77CcMO2b5\r\nDDtwlwo72a4HO0j/CjtPVQg7YtcKO5pHDDsJyQs7o3sNO8DOCDt64gg70zsKOwayCTukXgs7C7cL\r\nO3nDCDuoyQc74UoGO9LtCTvCwAY70HUJO47EBju82gk7/cwLO/AfCTt7sgg7SlsIOyTMCDslMQc7\r\ndZEIO1utDDvTJww7IVEJO6xdBju/xgg7dXYHO8LyCTurygg7kUEJOx6PBzvqwgY7Fi4FO/GsBTtq\r\ndgc7sX8JO/e7BDvAMwg7/6wGO1qeBjs5mgc7E5gHO9YTBDu11Qs7fjEGO0T0BjtZ0wY7ubEGO9EJ\r\nBztSoAY7VUsHOxueBzttCwc7YrIIOxrmBjtIXAQ7jGEHO9vSCDt9ogQ7TPYHO8MABjs31Ac7B3MG\r\nO9liBTsnFgY7QmoEO+2CBjvgVgY7beEDO8VeAzvEpwk76vwDO+YoCDs1NwQ7+jAFOwSAAzujjAQ7\r\nqpkFO3FfAzsrJgg7iQoCO3EYAjtAwQg7ag8DO45jAzszcQc7xfgHO8eBBTs1mwU7JY8HO8qzCDsw\r\negY7s2IHOz2TBjs4FQY7NI4CO5o2BDtzxQQ7yVsIO5PcBTvK1QQ7C30FO8dSBju06QQ7aDEDOyfd\r\nAjuZfwU7nSsDOw9rCDvD9AM70DwCOyUTBDv0/wM7lfMDOxl0BTt5bwQ7tbIFO9hmAztAkQQ7EE8D\r\nO43RBTtZ+AQ7EXAFO4BMBDsafAM7x5kGOyW7Aju8PwQ72H8EO8HPAzt/5wI7AMoFO8T+AjuRZIc/\r\nXAKlPSe5VTwKwJQ7l5w1O4IFXzosn2I6GtMCOs7kIDr+ekY608kcOlCrtDm/Y0g59RqAOeVpFjql\r\nFpE5ysoTOtnwUDkbAVQ5PhZyOQEHuTkntIg5w+2tOcZOnTlk3BA6vFEcOcX6DTkAOt44H4yFOdLE\r\nqzjNSKA4/vItOUGhlDk/Xg452MxrOTBOGjm+akg5032DOXyu8TgpvvY4GpsXOTg2fDmVDyo5XA0E\r\nOYzgvji0oSM5BVQbOez4sThV0984g4JjOKfjAjkMQQs5uHtLOdyrjjmE8O44eY0LORlcFDlVOgg5\r\nzDDfONo81TjDsu047H9GOcQ2XDmepKQ48vJDOSgDEDkM+Z04nBe9OC5yoTiciWI408+vOJwIkThq\r\nUYY4zeOyOM0AmDgbx884XcAKOarLDzmE7ow42BWmOHGNqTiRtas4VAIjObLqgTkceI84J8iIOa0X\r\nFDnS7sI5TW04OZnIizkAK2Q5TqMPOtV6VTqv/Rs6cuGBOZK9iTnpD+s45nHoOEgsmziMeHk4QdxP\r\nOTuRhzgJd7k4n6ZMOGHEODiN8344p2ibOO6bjTjrtYw4WzqxOEWf9zg9z4849qd5OCJQ6DhO+VQ4\r\ndBiQOLZRmjgvnU84i0ckOPtWXjgJxoM4QPVSOKY9rzjAKgc5B1t4OMLMjzh5Mr04RNKFOAoiojga\r\nKoY4HXGbOAZ4njj+p7s4/88jOCf4SjgcWXM4X/9cOLqjjjgf7QE4OX65OLr5eDiecw05x7f9N533\r\nAzgXDJk46AAAOeUmwTi+fgw4bBjWN6BEfjh15yo4LspZOIuhBTiozJU4BLpiOMQzRTjQtZI46l45\r\nOA7OpTiMy4g4LEVbOA8pXDg6sQk4qiB6OGmSnjg/JyM4I3mLOChcJjhMreo4MvGyOPYCqjhPV4w4\r\nbnidOJ8V4DikpZ847oCaOJIXbThZznI4co93OEYVjDiJn0E4jtkwODTAJjggRhM44HSwOPKf6DiV\r\nESE42JOVOMU1EDgxbzI4wgbpN4edHTgxUSU4pigMOG70mThk7VM4tVeOOPBY0jep1x44T/0OOBZ3\r\nlDjeNzo4DrsFOD2CaDgc8j846MjwN7i6WTjcNjg4P933N8aVaziwJ6o3srgiOP31Bzg8WeQ3eUfJ\r\nN5fhnTfi/p83z3KdN7Oa7jfSTKo3ojggOI/7EzjcD4E38QLJNxCLIzjHQww4ezrqN64viDjQo803\r\nKCnKNyxiTTj15uM3HtXBNxf+oDcrOFI4zQBMN8L+0jfZ0ps3IAJLOE3ElTdBRN030COBOAYLMTjJ\r\nueQ3uDYcOEY+eDjmmqo3O2DONkQwDTjvKeY3AE+yN6+wCjjIfs435w4GOBuQtTcYgCo41Jc0OHgL\r\nDjgaWgM4eQcqOG4uGTjoyAU48CHIN7R7yzerDjM4YLWrN/AyBji0Ye03jnxoOFCoOTgberk3thUM\r\nOE4nzzds8fE3kWIFOJb/PTjiFzA4/ve9N69fHziCQdY3H5wYODATFzhiE8Q3ulgaOOnUBDiact83\r\nc9dSOLxrxzc5YtI3DC8aOEwP0zd6McI31FkfOB7yVDfPBrU3wC8KOL0AIDi7f6s3s5+RN0dTkDdW\r\nCZo3gKM7N6zbJDiYEMY3k90VOIiHzzciGpA3/LA0OAr5GTgsjdc3zmrWNybvVzfedxY4ugdWN8Ji\r\nfDc9yjY37EygNw1HmjetC6Q3UPshOLl7EzhyrZk3g/70N4IlZDd0xI83ICayNxVYCDjgM6o3W8Hx\r\nN+zUmTch39g3vqfNN7qJ0DfxYI83N6X7N2gEHzgKLuQ3frB/ODbvqzcWLug30jesN1LaLjh4MLI3\r\ndheQN3Cx3Td1Xhk4PgWJN/X9Lzhb1ps3hVLrN1l6rDdRnQE4gLeCN8YH7TfKlvo39wsrN7G+JjgH\r\nMPM3Cb7KN/PjmzdkDAo4EH7AN+i6CTipPw44LwsUOPOE4TfO56U3RWT0N3cwvzeEQzI4Ks+nNxNT\r\nTDfG7Ns3AwvNN00bnjfSrcc3Od6nNwrdqTfMZBg4AinEN6CXNzgRFnI31zs/OAL5GDiDogE4Ucqh\r\nN6yTrzdWYQ04admiN8Z/1DfZiIE4yg+LNyGFhjfgeAs4m7GXN0rOujeOXZ0314zsN+4pLTieexA4\r\nBY/dN86Nojf309434m7cN9NC8TcyTgg4aI7AN3cEvjf87UU3087EN2ga1Tdizos3fOGdN45PwjdI\r\nMf03/2UfOPqFQzgVEI03bsslOPCpozfOKBU4FXIuOApsojegnq03kO8eN7P/3jdUtaE3voNIOE61\r\nrTeqDas3HDP0NwkQqjf4DRk4xnX7N6f2uzfAQk84py3ONwsuCzjirrw3/IYbOKgjJjhOa5Y3rjZL\r\nOBQbwDcxjhQ4hvpWOPqY9zdCxP83MDMAOGPniTc0YJg3t05pN7zpBTg/9KQ3OGRfNxdwXjdaPWI3\r\nh8mcNxIfnTcVasI3dv6KN1mhlTc546M3FbyiN7ysDThKPNc3pBYaOEuKBzj7jBA44wDUNxZMqDd/\r\nobk3sIq2NzIGkziqxtw3UOcVN+UiEjj2jrs3HB6iN4xXtDeQyJ03kTudN0Kx9TcmS7I3ZRy8N54q\r\nEzjNENI3/MjuN5EohDf3nTQ4QT2TN0tvtzeT8u43yHHBN91oKjhdT4k4unO+NyKz7zf+8NQ3CY7g\r\nN5sZSThI4w04Oo9kN1Nn8DeVox44EV+NN5F2PjftF6g3Sa2nN+aa2jcoz4g3HmOQNwDo1Dd3q9I3\r\nybxEN/CIlTcEyLw3dKyKN94jnTe6LKw3gC3NN1R4Izjz6fs3CgH3N2FSjzdI5fw3glPBN5Cj6Dco\r\n9mI3QmahNxYLLTiyI8g31QoSOGySiTdPuys4incEOMTApTd4Cus3HDu5N4cL3zcCxQg4HXWiNzEu\r\noTeAp8o3rFtMOPo57DdmKSg3vkknOI/yHzhiIwQ4IvoVOGQ/TjiUBR04dtiRN7p6HDjF/Rc4uibv\r\nN98sDjhTH4c3p4EZONqBIThmuTE3A677N2sA1DdSKNg3b4+xNwsmwDdQubA3/BI3N1lGbDeKhAU4\r\nHgsZOCyU7Ddg1RA4OEmyN70o7DfCDps3EeNLN1dr8jZ8ek83g5fPN7T7xDfsihs4FE76N6Yc1zb5\r\ncgM3GYOCNzMU3zc2PPs3/JKwN/+xszha4c43ICLbN4ExlDc10c83AvAmN0eekTczfJ835F2vN1jL\r\nGjfiBoU4qqVUN9GfOzjrjZ43M6DgNwrZ5TeeCkI4dzIUN1sSJTe20qg3LDzoN3A5NDfzEvM21lfH\r\nNvYQqjcynJs2Bn/aNwbm7TcZGkk3Xog+N1Q72jZFyMc3VB15N55DAzeQ8B03DVdSN/X6aDcqxGI3\r\ntTN8N0hZIjiRjwI4SQcLN2gyBzjwEoo3vhFWN5IvszfL4Xs3dNPLN7wYAziCH1w3mFyCNnO5gTdn\r\nZj04ipwnOM30BzjEH104ljgbOIJGCzg24Z03AXDUN94ijDemKaI30RJkOOjAWTg9r5g3TBSONzY2\r\nBjjTz603nL7oN7IRtDdyq/c3Ilb1Nx65ATd7tj83IIoXOL+JADh/bZk3lcfjNhAGizeE6xU4nmsL\r\nOHky+TeE+U83Hc1sOGUs9jfByc833zvoN/wBsjeWVZ43Gf7gN/KjLDjbSYI3wtcNOA077jesHEI3\r\ntxtQOE3vIjjeGTs4+SloOHHthzhURlk4QHWuNh947zdvQlU4MOABOFJiTzdFusA3cAhkOJ2PoTfm\r\nx982uLRbN4sUBzhRLhw4GRbRN1wizjbSlf8062EvNd1dNDXrJqg0TsOZNOXCgTW8MDk1HZm4NLVd\r\nDTWb7x41qpPyNBbVHTXppJI0oTehNLCwgjR397U0DaYqNZtV3jQT1e80JdbkNO8VDTXVh2E1gIqh\r\nNFOWCjXUUyU1NIBTNWsspjT6AdM0spdtNA12PjXwMsA0Shf0NJs1pjSzIRw1kMzHNMEoLjWO/fA0\r\nnFeANSapCTWN4Ss1uxcLNdUW8TSJQxM1Nz7sNH7AljS8FMc0lNQONc+qhzXr9Q01tYI6NUA76DRj\r\nyLE0dI+1NGUB3TT5RP80WCeMNG6yOTXCswU1hXq0NK4V0TRQPro09uPVNCCd2zROlrw08mdPNNOh\r\nzTQxX5o0qYeyNHVdLTWmNAA1D5uoNMMgODV3o9Q00FXuNBKnqjRm8j01S+OXNPzEgzTJqOY019TT\r\nNKBJsDTavh01mHX/NNsazTSiSzE1gf1zNBEZ/DRQA9o0WKvWNCZIJjVa0aw0HcrTNCD9oDSel8c0\r\nvv49NTGC3TTYcgU1BKX8NO8ksTR1wb80QpbCNEKflTTjxwI1M/rDNH/JijRUfQk1daPmNNCi0zQs\r\necU0HFW6NKBBvjSstwY1/piXNKBw6TQy3c80ONfJNCLv6zROuqc02hUJNbQg/jQw8K00JMMQNdhw\r\npzRgQ/40Ew2iNGzzVTT8zvU0wnPKNE175DRXQCk0CTmdNDQxyDRIo3Y0XhLNND+qjDSXknI0pM0j\r\nNRJdhTRidm40ezSnNC9trDSfI9k0Cc2ENB1KojRH2go1oXYPNZeL0jSuv7M0k9wPNSxR6jQAER41\r\n7VnFNDT+uTRFOx01ReakNFSFGzWc7dQ0yV8LNdPGCzWDZgo1oGq8NHimMDXy/cc0oI2vNAmgtTSs\r\nvdc0KKWKNS1Q9DTAc9E0B58TNWeO9jQoefU0VAlWNTVA0jSKzpY06ankNFZneTQ3bOQ0HDAGNbCk\r\nrDTmC/I0eIcFNRSKezRsXso08LnxNOwbBTXSztg0mN6INRSZ7TSZgPc0XIC6NJ6A7TQqdjY1AJe0\r\nNGyvSTT3YgM11kbNNIK7sDSSfsM08mawNALP5zT7fdw0/IgrNQl5CTUHNes0vzvtNLVm2jSuTao1\r\n+ogRNT7JKjUx0dI0cCcaNWpLHjV4f6o0RefMNIHFtjT1RAQ1FKWpNPCCETVbyeg0vKtqNOgIDzWv\r\nF6A0Vp/kNHHYijRUurc0KvI7NCCz/jQWcKY0g+ubNNL+ezTCowk15fWjNLojtjSfiUo12lG/NIsA\r\n3TQAnv00gbvfNL3C6TRjfoo00qwCNc5+DDXNygI1HPDFNIS9nzSGtJI0wCqlNMBJQTVxVQg1NdEA\r\nNTTTzTTcQZ40xYEfNWDTujRPoSI1cgsUNViIVDQIJ780GjTaNI+fAzXMH6M01z5vNTftVDQvQ5U0\r\nEwbINFTCdTTcw6kzL003NUPP3TRdepA0HIlMNC1UMjUZvp80YACXNKaEJzX0bxc1QqJbNdtdujSm\r\nz7s0vzmoNI169jSuIdw0wcw1NTmmfTXqpP80CXWkNPxaKDT3sPQ0G/h9NGPfJDXH4ac0I2pMNIed\r\nfzSpehw1PJITNXRFCDX17Hs1LPzmNLp04zThzjY13tbYNARj1zSl4zw1rYGCNDwJuDQt6uU0dybT\r\nNN7hpzTchK40meZuNKnK7TQyhss02+KjNO2kbjTOB6Y0+4MnNbMPTDVBzd00AADyNA==",
                            "noiseTrainingType" : "default"
                          }
                        },
                        {
                          "effectName" : "WinCompression",
                          "category" : "categoryAudioEffects",
                          "parameters" : {
                            "attack" : 0.0,
                            "gain" : 9.0,
                            "preset" : 1,
                            "ratio" : 10.0,
                            "release" : 3500.0,
                            "threshold" : -20.0
                          }
                        }
                    ],
                    "start" : 12677,
                    "duration" : 1494,
                    "mediaStart" : 0,
                    "mediaDuration" : 1494,
                    "scalar" : 1,
                    "metadata" : {
                      "WinSubProjectDisplayName" : "",
                      "clipSpeedAttribute" : false
                    },
                    "animationTracks" : {

                    }
                  },
                  {
                    "id" : 101,
                    "_type" : "AMFile",
                    "src" : 13,
                    "trackNumber" : 0,
                    "attributes" : {
                      "ident" : "Narration_fracture-2-czm-element 9",
                      "sampleRate" : 44100,
                      "bitDepth" : 16,
                      "gain" : 1.0,
                      "mixToMono" : false
                    },
                      "channelNumber" : "0,1",
                    "effects" : [
                        {
                          "effectName" : "NoiseReduction",
                          "category" : "categoryAudioEffects",
                          "parameters" : {
                            "denoiserAmount" : 20.0,
                            "denoiserThreshold" : 0.0,
                            "noiseProfile" : "EmH3P+gUKD96SAc+6RXuPSsIFj4d1R49JXXWPUPXWD2Y0QI9NLrWPJglCT1EIAA9glu+PUiEjTzZ\r\nKSQ9Xr6dPORqGD38S4Q8scPPPdb7IzxxQCU8Vnf7O5j6iTzSvyg8a+7GO4MCcjx+L9A7PKSeO7Cr\r\nqjsmkGw72MkCO79bljvNnbk6V9jbOgoEpjp+PVs74rrFOv3G4zpE14o6xQwOOun+sToE3Gk68DdG\r\nOsgtlzokW0g6iBZhOrtuBzqv2Qs6filCO5BTgDrep986fJhCOuKUazqNv6c5umjyOV4eMzqY56M6\r\nDq6lOmelTTrOSb06OuosOvp0PjqIWaw5R18UOkflLDuyQBk7OeEEO27NeTtGkGQ7c6a9O4wbPzzO\r\nSJ88rbSZO8A1HzyjeyE8DzEvO9BlMTyuZsA7Mh1wPCYAzDyywIo7eXmqO1gN3DsPUgI82IG6O2ka\r\nyjtNtWc7HcIbPP60EjzkuIo7YN/cO7dtzTo6V3k7JaYaO7Vp1Tlu3vo5zGTROrkFlDp1ZfU6k7/4\r\nOaJMgTtsDc86Vba5OrtEMDtKoHc69a1aOYn88Tod6ok76IYkO1kYXzrPmMs5bVhbOlLv1DpaGA07\r\nwq6fOl5tgDp+fbU5r3MwOoiwPzpqo2Y6c6hxOnb5Eju+FUo6YHuzOXCLDzvoWVM6yKmxOQc/WTrg\r\n3+E5xAqEOi6xrjnWxjQ6WtFZOUuYxTktX1Q6PtALOvhztTn4vY057YuhOn6hLDph3AE5jqMQOjhc\r\nFzrgbiA6dIIAOgRuXDoWWy85E2mWOWMOmTrxEMA5GkuDOo3DmTq/g985QDPDOugG/DrYvtY5mr/2\r\nOWbpGzlHZvk5edyVOXyZzTlvjRU6UejCOaxH3jjYmlw50gW5OWrgZTriSIM5dUROOW4ofTlcCJY6\r\n5lw/OtRJ4TnLKYE5qoekOSZdsznp9406pZeGO+iL6Tn+LCM6WwVDOgt8eTr9yZE6NdZrOQONqjom\r\nknE5waobOnq9MzlZcrU4b8ECOZ+ujzkzMIc542eeOCgwADkvTDc4ueo0OUQTUTk5Zss4hi/OOHyj\r\nADn+u6g4jw6BOYtFTzlytM85AuQBOkV/EDmjRxc5/Y0EOcNEdjjl8kg5mMQnOV+1SjmyXZU5bqIT\r\nOTrpBDknyjc5QDDjOIGPrzj+EiI5B6aaOL6QGzlmQsI5D2rdOBVkFznEIG85ZZvVOF745jmbymk5\r\nOkw3OaS55jhSGaY4VCtDOXh6UTlUJro4PlaGOLI1tzi91R45xcyfOaX6bTm2tOI4shZBOeUKpTlO\r\nxQY6HlyjOJSnAzqwvwE5N0OdOZKRDzpRzyc5sqBAOVDY5jncxcw4lwjGOMlcJDljj7c53zG6OEyX\r\nYDh5S6k4G0H6OA9GCjiy50s4DW+GOLGg9ziEPWo4a+rfOLR8tzg/zlw4nGXYNySO1DiE9cE4Stkq\r\nONmOETib6wI4HE82OAanhjg4tJY4cH4IOD8FNTiQ+dU4BKU1OAaAyDe8T984p2xGOFhcfDeCsh04\r\n7fxbOE/jAzjD82A46U4ZOHqg6jchdGc4YyQYOH0OUDjnX4s4C1IiOJWplzgwtlo4wqg9OHIh1Dfi\r\nn2E4PGv/N787cThsvBU41zCAOIWJMDhkyyI4TcJEOIwFmzhW59E3osOJOE2XqDcSBVo4RzcDOH3j\r\nzDfh8QI4+pU8OExRjTejYaY3Gc3hN2q6Czgus/I3qcN1OPfyKzisG9A3aBleOMfQEDiYDx84+3MY\r\nOAabBTjAmSI44qQHOKrfwDd4LT84SXy3N622FziWPYo35D//OLa0Pji9k1A4Og00OC4hCjjKFhg4\r\nyco6N7SvADjBzjg4hTAhOM0mfjcrovI3FA/qN0ew/jc3IQ44+hudOB5W/Tedg4E3pxiGODGb1Td4\r\n2TU4qPFMOF5vbTj/3wQ4gWenN7kZSDhec044fByAOCVbxDeOjEo4igPeN2CBpzeZryw4qZTjN0Sx\r\nyDdx8jM4OUkROCY8bDhMDf430Z91OHP/qjc6wEY429hQOP32XThd/Ac4yn6sNzP5uzdNdmo4Xex4\r\nOI5YETi4eAg4UPrNN2xzMTgYr144ziVKOdSy2Df0wO43BtUFOIZFuzcBOPY34bpiN5R5Mzi0Sio4\r\n5jcTOI1qBjjZgQM4yAtfOJE8Bjj2KOM3GEsLOIRS5zd03oA4828RODKBCziY1E04gcOdOCvxIzhd\r\nh6o4NchoOPz35zcnQM03i7ZqOOJMqzgMLjY4wzHeN3II1jdhuy84YD1OOOMvgzdmZvE3jnD5N5HW\r\nQTjyaEw41OdSOC6j3DfrHiw4pWUNOBwbQTiiWcs3EjrrN9+35jcdJHs4QocpOM1gMDiPSbM4qALW\r\nOGB5Bzgqz1I4KaGAOJcyXDiYG0w4aGoPOJ9YqDh87Fg4bmgIOMOyATiEwtc3jAC4N2RIDjjxF0I4\r\nvd31N9XzKzhFXfI3ZfAoOApfzDe5hz44dcgsOEr0XDh9wxI4M0EJOAjtGjhJGuQ3oMh5OPA7JTgw\r\nChc4mME+OGTQCDg/jRQ463qjOMY3yTg2awg447QvOEEOwzfagzk4NFXeNwiFKziLB7w34gb2NxYv\r\n7DcO+yY4FP8dOAn1Jjgktio4cAkiOH3u3jgQUBE4PIGDOKsFWjfsQHQ3zuyzNzccOjgKwOw3QDa0\r\nNxUGCDhoI8w3iFO2Ny/T2ze1js03ouAEOKrodzel64U36HCcNwgMETg8tcI3wVg3OMiZ6zcAJNw3\r\nXNGuN8aRsTdtlw44FVgWOPA+WTfCK7Q3b0zQN3qnjjfXths4d2u4N5AC8jcodLk31PmnN9Lpijea\r\n7LQ3borWN5JAkTeckpE38volOJ5z0zf64RM4uu60N7BgYTjR5w44MFYEOBIBzTfIqA44TE3mN15u\r\nsjdeq0A3EUjbN8wuBDhT8rQ3kg/tNzCRsjecx5Q3rfrvN32c0DdmSLI3oXO0N+DqEzjCN943lrAj\r\nODhx1De4MyI4ClnPN8NRZDgGhgU4rYw3OAl8JTisCJI3hPVnNzyn3Te+pZQ3bDoFOMbWYzePLCg4\r\naPGzN36EljcNmwg4OAstOOQrUDdGsXE4s+pBNzV4TTaZ08Q1CaCgNZPeOTVyQtg1gYQvNS+WpjWA\r\nMYs1HgwTNavYHDWBCXA1klsHNdvZRjVZuZU1UygLNXHQTjWyiBs1HFoLNRxAJDXUYLI1b7w3NYpL\r\nFTWCGm41ETeyNTZMhDVCuww1HPsENehGSDUgaRM10nNFNb83ITX4Vj810uhiNWK0gjW9cyI1hfL1\r\nNObrSzVEw7k0ePV3NfzMjDUZ9U41wY0RNQqGJzUQwgU1GwYXNaKFFTXoYsM0UuKqNBHlLDUy3cI1\r\n1J3ZNDUKHzU+f4g1s4R2NSaLgzXgLGs162lqNUKXTDV6txQ11yk0NQsR5TQIqf40OBHxNDJwSjU8\r\nM/009uRpNVdEgTXv64I1BUlcNRB6ADXdMRE1OWsxNUdmDTUybSw18pbANPJ40zT/Y/40mdZbNb5T\r\nvzSz8gc16jbMNNyMxTTCLG01nalDNQPs5DQgAww1/q2gNcqoHzVsp1w1CwANNX78DTUasD41PNNP\r\nNV2/wjQHLBY1+XPXNMfEBTV2E0417QhRNWLm+TS9fNw0ekkONY7CXDVcozo1xJ9iNT8zajSZG9s0\r\nIGRLNfLBSjUSPtE0c8gDNT7/hjULM0U1gh45Ncr3UDVfGgw1m7Q8NcoWHzXrDhs1xtTtNHxDOzVn\r\nhwU1fHWUNMdvGjVGBBM1Cb41NSVMPDX4RgY1UuYjNZlPMTUpOww1aJ5TNQL0EDUvvQg15I4qNTT4\r\nNTXya2w1V8wINcI0AjUYyyU1O1gWNRaHATVXviw1ANPgNOmcADVWSBI1+xMvNYmGxTSUdRU1Oqx0\r\nNSe9dTWUCzQ1tsUCNVJAcTWqlg41Uck8NaW6tDT8kLA0XBMlNdJZUTWIExM1H5PhNPW7FDWJRDk1\r\n4ccsNfKrDTWFcwY13qWWNet17zSRkx01KzHcNIjGmzVQNGE1gKGyNIW5dzXkub80kFjnNPtmCzUx\r\ncgE1bWMgNfcNMDVD6YY1J9WxNL6sYjU8DQE1G4bhNEP5BzV/ilU1AmRQNRMpzjT4R081jAbHNJhB\r\nWTXGmSE1rYI8NdLBDzUQLgY1KxaYNaABODWKlr40xTOqNNXH2zRx6eg0tJgDNQVQejXnrCE14dtc\r\nNEEN/jR+N+k09uL1NCLgRzWx4Uk1PFHHNJ7QGzWUXFs1QHxUNdKAeDVFg9Y0+fvsNCmaujXbAho1\r\nGzUGNbPcljXHOu40rMaBNbJxRjV0LhU1jIkUNexFADVaaZI1nnnANPaGwjSvVNY05E+QNWCcnDVg\r\nD+40U6WJNQ36DTUqvoA18mpDNdJR7TSUCsU1qzdDNah+IjWkHyQ1tuqBNQ+UgzSbLrY0MeoNNZBz\r\n7DStjh41d6ugNEzGWjUwWT81YJFSNRArTDVNZRg1EmknNbmIgzUyH200T1gONZJZ0zSw/Q81kt2+\r\nNO/lCzUfw9M0x2/ENBt5GTVX0Nc0kzcJNbGbrjT8mOc0fCi4NGNZIzWSdQY1qAw+NduCLDWcvcU0\r\ntL0JNc205DRPtBM1Zi1GNVC9FzXW56w0H+dgNQMXMzVTBBM1GsQ6Na3cijQK96o0Hk9QNbubAzWV\r\nye80joCcNONGNjX4Io01a7ZsNXXyGjUUldA0ipO4NAEZ2jS0xR81mrQVNXypdDU9xe40zvEtNUyJ\r\nKDWX6Co1QmLONMhIGzUvugI1yNcDNfenKzWAHwA1rSzGNJRj8TR2l780ugtDNTteGDWPGt80JldL\r\nNdYDmzXGxUg1JnD+NP+6QjXfSDA19lAfNTB+yTTh2vc0tWzdNSwYqDQ4TV810RscNXGKCTVW79s0\r\nwfbzNAjENjW9QRs1NzgkNbQcCjVoJ0M1jgXRNF4mmzSrSUQ1f+Q5NbEDmzWS2ww1FodBNe0FCjW4\r\nlZA1wKY3NZE5BTUovg01cyC7NL4vijQe0u40xtvONHii4TTExK80qIaVNNZ/tzSlvOA0zrU4NZAX\r\n9DSFAQc1/CsUNRAnSzWbDZc0lOUmNWIjBjWv3zI1vOx/NSRS0jRvz6U1g4jiNDUcATWej4g1IBZt\r\nNd2XNjVMWRE1cbprNCjORDXuLwU1FCTpNFgPTDWq6KM0IdRMNbRRBzUcgBo1QaKsNMKs/zSRdJY0\r\n19cpNfK70DQRM9Y0XxaBNexDsDR+PDk1ajLTNEyhYjWBCCA1dLC/NAOCKzWe/u40YIhvNMFYJDW0\r\nInQ14NcNNbQj/TT8reo08+ACNZiMwTRAMgI1kPBPNYC0+zSMyyg1wk1lNY/Q0DRxdRc1zeNFNfaQ\r\nGzVxM2w0cpzBNJmjnzTiXv00lBCyNNbbGDWMBKQ0988gNZiTEjUQyH01puKXNJgPXzUqPIE0E3jU\r\nNODtlTT6+hY1JbmpNcpUKTUxWjE17EBQNG/CGjXSoAo1z2EDNY02kjWqN600tZf+NAAg0jV2ft8/\r\nsWJaPb3cvju48rM7arQNOyON9jrdzaA68/xfOorl3DlGfDo6+PAgOu2H9jkiHWk5aNexOcy+7TlI\r\nCiQ5x86JOREkXjl4S1M5LpduOS21bzkAfBE6NAX/OCangDnFbBs5hllcOQBdzzh+ETo549atOfil\r\nUTmx/Ec54WTrOOP6UjlAawk5YJq2OMq0xzisdlc5h3C8ODg/JznMitE4ZO4EOfbk+ThIDEc5fwME\r\nOfx5ujgwVug4VZmhOFeuETkQ9IM5uFu4OIqzPTkw2Rc5ITKTOChQGzkGFwc5ZDbyODkxRzkWxMs4\r\nHyA/OaSpKjlfEBE5vvQLOc7cxjgpPhc5e4zpONzmyDjjVK44JhfROH7wOjgDYtQ4oGWEOOaCzzg7\r\nGhM5TjcsOUxmszin4e04VYbYOMRlwThJALo4nkJAOGORvDlv5RQ51ucyOdN3rTnWq6s5+HTdOD8g\r\n3DkyPxo5yE6iORlJiTn8/LY5oDQ3OgEy4jkczho6/evGOVmUeTnGjxQ5jNmWOPF97DiNTRM5/SC/\r\nOKpJ8jhEqu84djhhOGoxRDhe/ns4c+l5OLbSpjhRSIc4WDSrOPKuhzg81Fo4z62hOKRykDjm6T04\r\nLVsLOMS82DiNAtA41bhXOLMeejhM0vI35JEaOPXMfTh7H/A4OZPSOF2azDiIVq048cOPOF5OnzjL\r\nVD04nL+aOEK+wDjrpyw5/D1wOBSEnzikcYA4kp1cOLCi5zeM1kI4QADCOOEfXjhlddc4r1E0OBBO\r\nuzj06Ms4zV1HOM+laTgv95g4opo3OLk7OznVqzc4+ZU8OOzlIDgMYSs4wcYeOOO+njiIC7k4bPg/\r\nODoqeDiYi5U4UTxiODCuYzh8OiI4BrdOOIbttDhRxGM4yPH1NwGGEDhUXrQ46dOiOHqp5jhOSx84\r\nQiHNOP3sCjg47kY4egqUOB0+HjguZnU4g6o9OEjthzhXpds4n9+POFJHiDhnT4g4xCmHOL6utzi0\r\npZc44a3oOF6V1zhGhls4lg8lOIra5zeC7384eXQPOAJNlTiUfmM4sEBEOGtDFzjQCww4ChwKOMs3\r\nNThOVnw40ZrEN7C7SDiltw04GarZN3CZ5Dd9S+E3sbO7N7u7ADjyPnI4VXbeN3Y4LDhNgzg47bgi\r\nOI2WuThEyis4TgfNN022xDfaMqk3SzYOODDyUDidfsU3t+w3OBtYezg5dAA4TKYTOKAWUjiYw0E4\r\nUv1LOBMQBzi7L5U3MMgHOFPiaDigAf43JtkWOC23yjeBXjg4szIZOP5gQzivhTU4EZeXNwJjHDhX\r\ng+M3oN9xOI/hCjgYIck3D+sHOLZC2zhwD/83F+iaN7+boDhQH7w3gHxMOKZW5DcjM/03KJv/N4k8\r\nJThogLw3GEoEODjksDf4fQY4DgsHOO5PAjhboLo3kMYYOEwFmzdxniA4oUzyN6DDFDgDcQk451y2\r\nN12NBzhJCDk4zlFhN0Q11jfueJE3Du7uNzL4Czh1eSE4l9bjN7yKBTgSHJU3vkaxN0dHAjiwYDg4\r\nOTalN2fM8Ddbvb43X0v/N7aTqjc3Cu433ciuN7tyuDdPHJE3eQQAOAyMPTiknuM32ZeaN0sfMThS\r\n+EI4lowEODi3HziT7xw4IJQGOOGWAzgKQAM4q6YlOPKgQTiq6sE3BT3sN1ftgje2rAM4+MDAN17T\r\n9Td/qLM3ucYtOApDYTjX5u43jGK7N33lczhGRtU31LUKOAsk/DejlR44rKjrN1zv5DdpqTU4KdJu\r\nODyRnDdnGBg4gqruN3t9MjgZ+eE3mvqcN/xc8TfIORU4uKr0N7iDnDhMyOc3elahN6TOsjcfGms3\r\nBv5TN3nNrzeaXGo3UWETOLegvTec+kA4cA0RODjx1jfWUqE3JiEFOFpoDDjhzeM3o6cDOIHXETj9\r\nHbM3BY7RN8j99zcAulg3dlLnN6L9/Tfr0D84DhKcN+WKDzjLuRc4iYjBNxUN8zcsrKU3IZ8uOABO\r\nhjjh7Q84mACCN6hquzcwsKY3ysRvOMf2lTeBMww47ZePN8SaCjgRc7I3PIjqN8YHcjeVveE31pRI\r\nOMUyzDdIQ0M4pin5N14rPzj1wbQ42R0BOHUopTc6BZI3cxPoN9P3izckApQ3brc4N9bIvzeh5PE3\r\nGQanNynmpzdAaJ83nZCqN57bBTjM2Jw36p91N25vCjjwDss3G3DVN6j7pDeA/P43NMg0OMMqnDfq\r\npZk3tHwmOLMmdDcQUdE3fJH+N67IcTdVruQ34lLtN9lJwjdTQlc44i8EOPNizDcJ58s3zQB0Nx31\r\njzdgYSo3pkktOJGuiTcWGqY3t7uWNwMV6jdFuKE3ppfYN1wuwTffSYM3nqbnN2hkkjeK+PY38AcT\r\nOOVfhTfS1Sc4olcJOE/R9DfMUno384llN+LV8Ddms/U3KFOpN/bnqTdt8IE3nwfCNwm+HTdiKp43\r\ngLfVN6C9hjf0DuI356r/N9kF+zfBEto3pMfLN7BIiDdaAJ43oAC2N1aYJTjP0pk3896JN8dViTci\r\nnRA4Vol2N2rrKTgMAM432msmOG2/qjeiRE44htMROFmCzzdvuVY3WrbMN+zYMjgr0O43nPPBN5v1\r\n+je9iw84g+xFN/STzDc3SHk3mOMEOLi9IjhNCgU463HmN1u1pjfxDIo3TFYiOJTIcDc7hhI4/L4e\r\nOA0p+Tdu+q03iKAaOJF2njcNNfA366zwN8rEhDfyl8s3Ge27N+rPijfBNpc3RH2ANwD0NTi2eao3\r\nBw8gOKCs2Tfn0UA43demN1rzlTe2TAg4FAVaOJhDszfTTvg3xPSZN5R6YzfJpBU4cLmpN9qRpzcs\r\nTAE44pgVOD6bjDdHjiU4Uj/mN/uXlzcgMbc3VtxZNzpP4Tf/Oh04SPhWOJ6SkTfD2PI32Ag2N/xX\r\nDzj01m44cwFTNxen9jdPK7g3DfagN9oWKDiKLiI4NDLZNzVBrTdo+3432z/XN9mw0DfIokc44QsD\r\nOMxGIThy52I3CU+bN8Mo4Df+u9U30H/vN4juCzh0zPU3niGSN7EWETgHBqM3l3WEN8yKAzjZ8MY3\r\nGO3zNy+ZOTj327Y3Q9KeNz8lkTdAA8g3vjusNcd+oDUGKDo1E0soNcKvIzVy3QI17Hj2NIZgPTUZ\r\nwUI1klH5NBiq8jTNaLo0wnmKNLxy1DRfNPo0SmNyNJ0VBzUmI+M0JrHeNHQt+zRY6gA1sJ7LNFI5\r\nFTV+hc402IYKNSR5wTQazHs0k6vYNAbY5TRU2CY1oLj+NGC0sDRxpMY0JEL7NBWH2zR44Ig00TrW\r\nNErCKjU1NRk1PK4XNdJ5WDXRv4s0dDfYNNYA2TRITNE0pMrqNEZzpzTMrO00nrVRNTgd0zSiJL80\r\neVcHNcka5jRvyyY19kyoNBg3MTVnglw18qQINU5LZjT8lb00NImWNAiTsDQl8p80yLtINd6x3jS7\r\nkaM0JPy8NHyeoTQqUeQ0xznINBO7NzUEvPI0zKmpNFDdVDTUG4s0t58ZNVSI6jT1sSE1nn76NEqT\r\nsDQux8U0AvukNDot2DTysKM00KjTNAgt3jROdRE1HtjsNMQ0oDSttoc0viaPNG4DKzWIRqs082aC\r\nNB1oCTVuyT80tR/+NM5IyTQ362M0mAQiNUZL5DRWI940E3bVNDI8uTRRnhQ1fZcCNRDx1DQAB5Q0\r\nlkCoNDE/1DQJaQY1RoClNGBsyDSgpPY00sC9NGzuxDQ81pM0XOyxNClxqzRKCgc16oFDNLyEJTXe\r\nzdI0+OvbNBCN6zT6jgM1EjWGNDBoDzX9f/E0ip6vNMkvwTTSxLs0FbvhNM5puzS+uT81EPYoNb/4\r\n8TSqooM1nopoNADiyjSWnEY1QjpQNaVoOTWQTNQ0f0rWNJnkpDQZKT416rUANX3ZHTW75Kc0vJKX\r\nNJbTlDSfRdA0Z4OeNAdrjTQCF/A0E3YZNXX8GzV7qKA0+BC7NMX2xDSGj+E0+XnCNLEqUjXsLrs0\r\n9YB/NVaIHzU6ZyY1jl3zNM3FHTVuH3I0F4EBNZeiDDVXABc1ilzUNECsADVyfOo0HsOCNXCDQjVr\r\nHOE0+OBmNPbe+DSzd4k0lGXbNJxRozSWdpQ0qvzdNBjYnDR64IU0spf8NP08wzQ4XkA0KyliNL+k\r\njDSEmfM0tpYONXM8EzRuTN80t67pNNpwDjXNeRE11hovNTdImDQ48JU0rrCqNBdSjDTDZYU0iVoX\r\nNSMiuzQ1zYc0QB/cNNYF9TRYf5Q0dUINNU0+0DQUfvs0LnjeNHGRqTTzlkw1huWiNGB2CDVTQOA0\r\n9YbONIY17DTUqrE0CVLsNLoizTT2nfg0rCbcNIo/tjTXzKE001QWNb4OvDTzqwQ1GAG3NIbYQTUe\r\n27Y0oKYGNcAiGDWOiw81v2S1NJgD4DRE15Y0gYuSNLhIuzSBXD00v6tSNAHMJjXPjxM1TFIONSc5\r\n4DRA3QE11BWxND9ZnDRE2pM0+LiiNA4ypjTZUxY1UmoXNfNgRTWwcL40LC+hNAVpCzU/JNk0EjI+\r\nNf4RKjVtm8o0qcyYNL5y6TQaKBg11qsnNdoKTjUrVs00f9GbNPqdkDTf0FI0jsfnNMDpxjSWb6s0\r\nPK+4NM5eWjR4Gy81UigJNfjC8jRCVvU0DZqnNCPxmTS7ipU0KoIbNVDiNTVU9f40IG0ZNPskQDUj\r\n+Sg1MPAANR7EHjS7Moo0OmOlNMiFjzR7M/A0cS7ANLbn3TRV1eg0PGIkNdXwJTUQqLQ0lXIBNZLZ\r\nDzVO1pU0xVs5NOwRBzUiuN804CEqNXWqgjQl7eM0dfDYNEoIoDTKcLc0hc+ZNCiJCDVFN000zXgp\r\nNYRmlTSmC+804Yr0NASRnTRcsv80SjgyNSeDIDXgtn00Nh3SNKtgrzQkW9c0YRaFNO0HlTTKPIQ0\r\nxawPNXGQpTQtr8s0VfMbNaL5ZDT0QMU0sEmONKdlkjSCs/M08Y7xNMw9czR62KM0xKpgNPOm+TQS\r\nr8E0/3JBNEjRXzSX8Cw1WmePNFnnPDWNJRs1T1PYNLOB+jQrgBQ18v0PNX3XmTS376U0leSuNGyt\r\nQTWDK6Q000JcNK4cpzTRnG00tn2YNHCY3jQgyyM1DouXNOK4mzSRS3M0cVyYNGg3iDTefcM0YX2v\r\nNJnwkzTqaBg1wXy2NHPdizQ6sZo0KsbiNLSA2DS6jYA00pIlNbuIlTQ9k3c04oyvNGAjCDUVdQY1\r\nXEX8NDW7eTSVENc0YnprNFT0MjTmdAo1G6AyNI2kujRQAyQ1XMSdNNYd1jQHAOo0ipnPNH02fDRD\r\njJk0QgHGNBgMtjQgfFo0XySfNI1LCzUziAM1hc3UNIjuVjRzk6M0loTeNEF1izQq02I0d7c1NLIX\r\nEDXiiuc0/n7vNIyI+zQS7Y00lCaFNN364DQXrRk0cw1zNA3+4jSy7Vk0urikNB8h6TRiBgQ10gn/\r\nNOpykDRBExY1uhG/NB5l9TSqB+80poBaNJ5pODTLE5E0gICrNNh63DSsICQ1AIDcNA==",
                            "noiseTrainingType" : "default"
                          }
                        },
                        {
                          "effectName" : "WinCompression",
                          "category" : "categoryAudioEffects",
                          "parameters" : {
                            "attack" : 0.0,
                            "gain" : 9.0,
                            "preset" : 1,
                            "ratio" : 10.0,
                            "release" : 3500.0,
                            "threshold" : -20.0
                          }
                        }
                    ],
                    "start" : 14171,
                    "duration" : 957,
                    "mediaStart" : 0,
                    "mediaDuration" : 957,
                    "scalar" : 1,
                    "metadata" : {
                      "WinSubProjectDisplayName" : "",
                      "clipSpeedAttribute" : false
                    },
                    "animationTracks" : {

                    }
                  },
                  {
                    "id" : 102,
                    "_type" : "AMFile",
                    "src" : 14,
                    "trackNumber" : 0,
                    "attributes" : {
                      "ident" : "Narration_fracture-2-czm-element 10",
                      "sampleRate" : 44100,
                      "bitDepth" : 16,
                      "gain" : 1.0,
                      "mixToMono" : false
                    },
                      "channelNumber" : "0,1",
                    "effects" : [
                        {
                          "effectName" : "NoiseReduction",
                          "category" : "categoryAudioEffects",
                          "parameters" : {
                            "denoiserAmount" : 20.0,
                            "denoiserThreshold" : 0.0,
                            "noiseProfile" : "8EAbQkkPBEHUvsJDGpeCRCEXc0QmHMlEiyrDRNKDakQM/4JEobUoRF9ixkMcqNpDRPmFQx24/EKN\r\nGgxDq1+fQvEnr0G38UZAwBMOQGXt3T7FaG0/hBK0P7O1Fj/2oo0+n4SFPUkApD6rFYU9pgoQPtcw\r\nOzyql4c7BCsGPKTrrDunaWE9hcsPPJlnfz2NUKE7wA2QO5XSlTuB87o8dM6bPIeTlTskIIc7exMB\r\nPGZghDxTZZA7Rp8CPBi8Ozsz84w87c2FO4cFMjy+Ks06g7U8O35RCDzayZg7ui1GPNpIGTxJeV07\r\n/ArpOpgMRjw+ZAU7Y4wHPOvYzTubJWU8tmsZPOSNvTtdAhQ9iGPhO0J9njyf3188ioazPKjn4TtW\r\npyc8bGtaPCpywDxwMEs8Pu9OPIjN0zzmQvI8LkhGPRJPpzx+1Lg9JSdjPYnfHD3WmlE8FEGEPB/C\r\nEDwi+Ys7Cst9O9XfuTzMSXQ83lCDPMxezDvCBeI79MRsO4D4STt1QXM71QSBPAzvFDxGFQY8b9cN\r\nPLsbsztk00I84KWIPL3IDzzcCJ076qEzPFAiqDtqSlE8BQinO1AgCDzyJvk72agOPHZGsDvbWME7\r\nDlGsO5ANsztE04s78UD5O/pPJjwMD+w8m7W5O7VQ6jve+zI8BGKmO6O10zs8S8s7asyYO9gGyjvp\r\nyvA70pa5O+oc5TsMLS08oMXWO6NfHzwir7w7r9/dO/O8STuRbss7M1qCO9S/lztwJXk7ZxZNOyk8\r\nGjuIdQY8Om3HO1KtHjvou+Q7F2y5O+g7bDuMMjE7erFLO9EDQjs4XYM7Ms55PDn/JzwAUg88/qo1\r\nPMqGMzyVGps8/rYoPILpHzwJB/M7aV9OPIxFJjywCSg81I0lPD8i6DtGXzE8/4pZO1qASjzqliw8\r\nziheOyr4Uzzn1pc8GWVHOwa7ZTtp5uY7BqSYPIFtFTsSLgI8QE9pOjQqOjshvYo72kffOouRGTuv\r\nWV86q5HAO6uhvTpN+HA7qCY7O0I7BTsQGSU7hruDO9JZjTtgIyk76zwWPP4l5jqd0Bk7O9ZsO0yz\r\nwztwFAo7MRKGOz0TLzvr/YU7dmQ4OwterDuUgLg63NjiOuQ3EjsnFus6djAdO4y06jqqMXk6fXYJ\r\nO8R5gTsuXhc7zlSzOjoarDoCS7M77dyLO9NpWjuVTAU7tkjmOrgt0joKEhw7DOi5Owl6VDp5nbU6\r\ntxm/OSCHejr12wk7qjIMO3p8kTrGI7k6NpMZO5Mh9DrwYc85JCdROgLThTppMPg6RswXO0FPzDnU\r\n1mU7McFxOx76STvoVsU6zq9XOsSo9zpc7VU7fqUtO96UPDsbqm06xCcLO3IHnTpug3I6b0uVOgfQ\r\nGDpHgT067wWtOomMLjsuJC46uWztOqfy6TqWNUc6TmOAOThBIjt7ASE67O5BOqY5vjpgkqo6vigP\r\nOaYHwzpHXiw7TOynOehj7zqb2ZI6RSKjOuqeHjuazEQ6lKAIOxM9GzoP2zA6wJD9OsbTZzk5xj87\r\nOYO4OuXmAjoalb86Uj+mOiC47Dq6cC46qGnPOrb9KzpDPnA6bpwTO2/m0TpRVn85cr2dOsJ2njqK\r\nh0863ygsOhN4UzpClek5rAwvOjRUKDpo9gw6k8reOgiYizqD2aE5qQCAOpA28jnAAhk6sYNEOp3/\r\nFTucxlk6ewYTO50ZezpjLp86gj+7OV5MuDprR+k6uDUGOhxDxzlGFbY6hjasOh2KuDk6BOY5ZpmK\r\nOiMlhTlCIcI5x3M/OrzTIjn4leM5Gji/OeVmGTrdwS462JQsOrnHIzqO1Lo5rjiVOf610DmYKCQ6\r\n5o5EOrw/IjrpMKo6dDeAOtfDozkCk2M5ZY17Oag9IzoJoLc5iVtpOsoVuznuYH86atU0Ojr4FDpl\r\ndTM6UdMfOUhqtDpOL047gozVOvWQFzqSZCU6fJ3AOrDDkTkyA8k61oqNOhoIZDuWaZ86BDQ2OnRt\r\nADtZUok6YspAOwjduTp3Bx86dzIxOk5/QjuQoWo6kcPoOB+xbTqJpqo6t3FPOphs6jra4BA6/vqT\r\nORSpvjrIXcs6EpqmOV2joTrA2cU5X23/OT1sETlQf645ZoAIOqdqZTrB8i85rZdzOY4EBTr4nIo5\r\nKXXWOZ3sBjqjfnA6jNCNOb5V/TkGa984g/o6Ofzh/jmLNt859velOSGcljr9VI86XFXwOSJ+2zn7\r\nt6M6bP64Of42ZTrNHDM6xmYfOiIf2jn5Vls6mh6cOWYfYzoxh+05ofGvOD1EEDp9Kfg56CijObcj\r\nnTlKVyw6JfjnOSyqEDm4JRo6Pwi/OmJFEDo/vYc6YpUUO9Gc3znB5oY6wlOTOubnyDp4r/k5lV5E\r\nOxg+xDpewaM5jkVqOu0UPjvVa4M5TFSsOp360TomAgA6FTwqOYE8Gjulk+I5jENiOYRmmToadAU6\r\nm4MXOdAtKTpeA+s56Ak3OgoyPToQhS06WMY/OuGUJTmuYhs60YRPOi8w4Tha6xs6AsAhOvtGmDni\r\nlyI6YBa9OkxILznW9a85ezCGOZgF7TnyVEE5CeNbOlouRTlYIjA5rLp5ORwm+jkHYLg4Q2LLOWJu\r\n2zm6sc84h7DEOWr1gDkWBY851BzYOOGQuzkgWIo5ZvUuOspCwDlIuYY5q3wtOCXy+zlMaV45QvKG\r\nOR9NfTnA8ik5aPfdOEwH0zn+duQ5dJqsOLqtjTnEF3Q4ZdsQOaiOvzh64+M54XehOeeuBDmAKCw5\r\n+KgwOWRwpTgE+7g5wrCVOUK4FTj/oKg5zfo8OJKSWTkxrgs5Iy0nOQxhMjghXlU5GRKSOc2C7jgO\r\npzY4ZSvAOcK5vjkNkJU4w1bjOX5vUTmiXp44oMLpOHD97jkc3Zo4NtOVOWTFJDhyqYQ5cAzmNxCG\r\niTmK5lM5XCwZOaZUfDlf5Qk5CPoYOZ7E+Dj2ecU5gcaPOBDXmDnaSF04qQCcOQr5KjiqRqg5i1s/\r\nOGK7wDk1IxM4emIGOcwuYTiIbU85UpIwObHGDjnwR/E4yd7KOCNLgTkEaIs4UJqROawlvTca9rk5\r\nCap4OO+fAjnknlw4Y4iUOTJp3TePWlg5KktMOQmuZTgBasc4mYkEOd2qhTlLQXY31EGOOZCkHTcz\r\nDoc5JlQiOCAijTknREY3ddcYOUS6UDiDodI4rs2wONGFEjmxQQg416G/OALIhDmUzgU3E7X6ODc5\r\nhjgw+Y85hiGcN5khfjm6LZA4/6ShOHF/+zcQ4o45qUbkONExATlSFPs4ESk1OJiV+jd6MbY4mDyZ\r\nOUJ70TZcl405/T2aN6iauzhKgVE3ejNJOXPWXTgiOic5EJPAOFTfszjIgKE3eUFUObD3WDkCPxU4\r\n839cOd3PIjdeQk04ABCyOALHiThmc/43RCW0OQAlFTc76tw4Ao4XN2huRjggvCU4t1sZObhvyjeI\r\nT6M4fm/9NshNQDj6yp03b+CgOPLOCzhTGY04XYDqN9NKQjiwusI3cAtROKICEThYgXs4w18YOEU8\r\nQzhu9vU3sFc1OITJEzjWGzQ4zmsDOKDNJjiMu+k3DiBDOMLiFjhw2Sc4NCsSOEC7PDjT9iA4YHcT\r\nOFBnLjjCZiU4FN4EOBgCPDi86xY4ruMQOHuDKjhpZCg4C7dFOFC0LzgjUCw4vpwsONyGEziumh44\r\nzukiOE2+Jjibkxg4GNYKOIBFITizfBo49W0iOB6TCDhtfAo4Je8jOED7EDi46Bo4/vMTOBYpFTgE\r\n5wQ4nk4IOMhAIjghPBo4veoTOJsoKTi+ggU4D/EYOGjKDjhiAw44wY8cOAy7HTj2Kgo4nEYROK6w\r\n/zf2HDA4Fp8ROE0lxzcklyo4BtYeOJeIJzi+RfQ3mfwbOFA88zeNfhk4uBwQOLTRBTiSbxo46cMD\r\nOOsZIjgRUQ84GWDxN+zg4jeybg44vjkFOE22+jcojw84HcsYOCi5+jebsiQ4IIkSOOiU8zfr5wI4\r\nnJQQOPzODjgiXAk4/cYLOMCaGTh6lgQ4feINOPBAATgpdws48en4N8mCDziqTu43QJkcOJzzGjgc\r\nRhE4XEwXOKxtCDiykgw4lE4lOEjrAzi+g/U3cdsJONntAzjRqwg4whADOLrJ/zdHkQY4vE8EOKjF\r\n+zeUSR44uxUPOC5pDTguNgI42mkJOPKGEjhSl+U34bELOMu8EDjGoR44WIryN7Xm1TchrAE4Px39\r\nNwuV8TedMAs4nwD+N8sRAjjJpwM4OgYUOO17DDjqY/03txXjN/DTwTe6VR04IkbcN082EThSDwc4\r\nhiThN2+0EDiDu9839ALqN8WzBTiereQ3I+kNOKlXAjj4Cwk41XkAOPoQ9Dd40N435xYCOBu0BDg9\r\nbO03L4ICOKB27TcWywY4vasBOPai/TeLW/E3TVIGOCoe+TcgL/c3qh0BOH8X4DePNwQ412MDOE8K\r\n+DefL/43whjyN2oP5zfAQAQ449XrNyS+BjhzgdA3R3fzN3PQCjg+0w44YMPuN5ppFzi+cAE4TnXV\r\nN6Hx6zf8YA04ZdXqN2KY9DfTa+w3RE0GOOVkAjgGNNo3kTsCOJCZ/zdX5Qw4Q+/VNz9rADjalPc3\r\nLEbQN9ms7TdZD+033fjMN3V25zcpkvk3b4cAOMIFBTiMnxw4PP8WOJvi8DcJLww47oX0N8u48zeL\r\neu8330PlN0zR8Tdp8Po3KLfjN478/jdve/M333j1NzfQDjgZf/Y3jWUJOOcH9jdjq+83UrYEOHgW\r\nEjhkou83trL+N1DPATgunxI4GyzGN87m4zehaP837BP6N7Gv3TfhW9s3e3rZNxkH6Terv/o3UZr5\r\nN5LE6jcO1QI4O30FODps8TfilQE4qQUHOGWK/jd86QQ4bOL9N5WM9jfQCO83hZ/mN8oKADiSz+I3\r\ntGkXOIYv0TdEJQI4xRvlN1QtEDhuhuo3MXfvN1/fATgg1vc3YQsEOOrq8DfPJ/Q3Ye/HN+YC4Dd2\r\nbvI3ZS7uNwBO8zfYw+83a6XsN6+PrjckZsY3M7P5N/Js6jclAM831ML1N4AP6jdZWd43o4TQN+y7\r\n5zfe8NQ35d0JODZ/3zcZaeA3ixHvN7Bv9Tc0Du43aqwNOI942jfTeuU3VyHMN9ID1jfpavA3un7Y\r\nN+YjDDji5uQ3UhsIOLURCTi10wU4s9DBN+dvzjcF+7033GL8N0sO2DdH2+s3n4XSNy4s1DdNQgU4\r\nA57mN2eu7Te5qAY4IV3bN3kP2DfoTOg3jIUPOIC8zjdyqgc4RDXbN7n08Dce5L03eU0KOLwk+jch\r\nHQA489jjN90tCDiSJ9030i7UN95Y0jfLL8k3AHjjN2tKzTdLptY3JB3AN6HVAzix2+s3AWrtNwDR\r\n5zcm1PY3srHTN8WQxDeuXN43p7L9N3xpETgsU803gUz4N1+i9jcTYfE3XpLcN0JqBjjists3pkLq\r\nN3rz/zfp1gY4YNHZNwc8CjjL+Ow3vY/JNzJ6+Tcyfcw3kIntN+Lj1DcaRrk3TzYROAAA8jeQvJlA\r\nKWpbPV5aiTx9CgM8ZPSXO1mTPDtamCw7kze2Oq6ZhzqwJ1A6n9MOOssKkzkQo7w5ySsCOnizyzl7\r\npec5I5INOpfQ5zml3Y45VAP5OFhDOzkyELg5dXA5OfD8LzkJ+QM60zwHOcTwRTmra/M4uT+SOcNm\r\nPDnfswc5v28sOTs5Pzn17k055bbQOB+h7jjjrhQ5S0ieOBRdjDhh59Q4ohh7OCzfkjj4TRA5kdnl\r\nOPqA4Tg1UUw5mjb5OOJI4TgI5Lk4/S9pOF8EGzm3Y/042a4IOSoLBDk27a44hceWOMe77Di8RyM4\r\ntDqzOCgt8zhhmCY4xukkOWTqfTjJTdg43jnfOC/SHTk9HVo4X9PtONyfFTmwRI84rqCeOIIxpDiN\r\neK84ZjtlODyBDDnoEyY5n4wMOJaPoDiDIew40jh7OD8evjgK6t04Ig8EOaQcTTkEQiw5kgiRORci\r\nkTgIBLg4cbr1OBsLtjmPh4U5S4TSOf73Fjqg31g5mj9tOe7ZnTiPHiQ4xjGcOAZwCDlYCYQ4+Kwf\r\nONCZHjgUlHw4BsdbOF8eXTiWg9448O7vN68GFzh0i144AceEOJfd0Tj4D0c4h1WaOHdWUDhssqg4\r\ncWoiOOgrUTixSTI4d7tMOO3xSzi2Mi842PPiN+S3izjdQtg3jKjSNyj1qzgfEBg4Qs5OOK4H5Dek\r\ny8k3QvQVOIy0kDgqDxE5cia+OCA1LzjqV6s317OOOJO3+zgUnV44q0VFONFdZTiA5qw4v9A5OIzK\r\nDThPoz04I7kLOI/XijiN9AA4lzUyOO/OzDf9FoM4AG2/N84gMjiqXk04VshSOABFTzi94Vg4RGtp\r\nOE2dDDiqNlE4QISbOMUrmjiUL484KONfODGMLzim6AQ41G4yOCJImzhyYaY4VCDwN3k6QThhi683\r\nuMHyN/u4iziegW84Vf3DN85xLzjhEfA3dKF+ONm3Zji+vTY4Wu9xOJvuGji40To4b7prOHtcjjgO\r\nSP43H0BrOKTOxjgpqis4onAIOER81Td+OdI3Lb4pOFry5jf0TCw4CQsOOJoR7zfdWwU4lmfcNyiz\r\nnDeTIPg38/DlN7fPQDdLr4E4ZuUbOItluTd/r9A3PND1N8ZMuTfI9qM3lZRmOEjZkDidb8A3S78p\r\nOAkgITiIx8w3m/fxN1z/pjebDvw3KAxgOCrJDDjscho47gL0N5l2UDgH+5k3NtEWOOaZSDjvL8A3\r\nIwcfOGl3+zfsIvk3EYoQOLzwFzhDzc037o0lOJuXjzcyYkY4kbM2NxebADiG0sA3Ii4WOJZqFzjA\r\nu6s3K3ZMN5RqxTczxoo3DgToN0uiGTjUgSE4DfOZN+JKlTcPl+w3XMbnNxFo5TeVPRQ4YrcTOHYB\r\n/zcFKws4lp/hN1atjjeT3983QPkBOCEbEDhXJKY3quDUN/fO8DdBaZU3Pp3CN/gx/DfRvRA4Tuyo\r\nNwWA5DdaZxg4IOfJN8Y2FzjEow44AF1hOKqDITi2suk3jJITOFhnzjdsLzE49GM5OFoFhjc6JZA3\r\ne3+wN1uA0DeBnwA4/p4IOPuhRzjCm/c3ma2hNwgrCjhLIqI3FVbsNyB2kDd6KRc4Yq6+N6h/SjhK\r\n/Lg3AD4aON7j7Dfi7NU3jH58OACzhjj3l1M4GJ30N8tkhjcfdrc3s5gaOIRYXzgBtsc4kT0MONjM\r\nQjcvxNs3zzaON3wdDTibRN43jY3NN6r21DcAwBo46s8BONh91jeHZ+83liXoNzqM5jdofMQ3V7ml\r\nN1TcrDdcmFE49Ol9N8UejDfjxfM3gLQFOHE1tzdXkzE4LbodOPBSJTgG1Z83hgYQOMB01jds4DI4\r\nbCcgOFU6NzjjJe43OPG/N44ZETgeTdU3ri3MN2jDLTiYyBI4XhuKNyRlYTdGqPQ3ANzpN4FfRziO\r\npC84uG4lOOUS0TdpJZY3NBasN/bTIzh7j4w3IcvdN2pDxDew5y04/FDfN74hDjiFZ+M3QPowODG7\r\nlDgxY8832kD6N0hVgTiJ1zQ4W/I0OBx1hDevRoc31OAGOLgwZjhGVgE4ixi9N6zGADiEKfU3jsmp\r\nN4lNITejNQk4ifW8N7zFHzjSAMo4Lo8xOMplqTfVBpc3tNMWODb8XjiCAgE4eAvrNxvxhzcCH5U3\r\ncf/pN7NxjjdRf+w3COh0N/gMGjjY0/03cmXON9BVBzgASos32T71N4WZ+TeO+QE40vMNOC1YGTgP\r\n3uI3Cw4IOL5AFTg6eEk3I5qSN/CZGDi4tAQ4zAWlN9kVhDfMMfo3/w/QN2dBDTiKJwU424m2N1Rb\r\nhDc+WiE4VqD8N/6wbjj2CA84GRyvNwo2DTjCvas34jcAOAuxmzfVkzo35dGlN5LLjjcw3fA3LHuM\r\nNwFsrzcjh583yD9OOJA13TdJ6sk3xbZzOEiXXzfaG/M3k5zaN9F/ITjFOP83iPSjN4BR3zcB0EU4\r\nqsCEOA7Y1zcPKtc3p3h0N5+Lnze4lOI3U5m/Nx9ZazjVyOQ39kmBN3W0BzhsZ+o30l/QN7ZqEzjE\r\nFVQ4lP0XOPZDuDc4k7Y3KdKjN/BWuTc8FJQ3jA+dN/xb5zfF/Ug3IOYoOFDPDzgD+QE4PBEGOL35\r\nATgTEck31FcrOGrfLDiKJoA3yzwFOJFGzzeOrZc3XoFSONYfuzfVYP43rv7yN4pBjDc9RMA3WmW0\r\nN7pl8jdLh7k3yxxQOA+tdDcW7ew3lR+eN0PhqDf7aww4KWuTN+sslje6l6w33ucAOACo9zeOh8s3\r\nmtMCODCjdTcm/js3FrUCOK9VhzeoK4o3WJW8N542eTf6Zh040PyIN0fKjzcDALY3TrHEN3hatDcx\r\nVnQ34ZUPOLLUszexY9o3DXWhN8K7AziChk03cEeUN0e3+Delm5A3vKC3NzwXxDc1aco3dtyRNw04\r\naTcXElc3JwEKOANGujd6/BA4HX1ZOMJwzjdZkno3WKvAN1Qx3De4WwE4av+yNyJJtDc6lso3QAWa\r\nN1YX3jeomUA4MejwN1H02Ten3aE3T5gGOJdq4jfmbYA3ykQfOBYK8TcWNB44t2wqOMnYtTcJ3qU3\r\nrkgJOCpbADiQNNs2kZdEOAp12zdSrNk3yOpdNidlgzePfGk33D/7NYB1kzasXAg1EjIWNsy9CDb2\r\nfjw23SYYNqdpDTYAcW02BGqqNhIdtDWZoBY1KGMkNeRoKjUm5eg2Ar3RNi5z/jYUCNs2RUVkNtYt\r\nijWGv2g3lCYUNz8eODcC1IQ2eKfnNqGBDzdUsic31UkgN8flRTZ7GT41ailKNYoGpjV4WQ01Wh4t\r\nNXoApDaIrSE380NrNsr/Xjb0Lc42CQgJN6Kyajb6rUE2O/NrNnbILzfVG4A2YmKKNtBXtTYKzB83\r\noAzINS+0wjbOf4A3EPCtNggOKjbyCsI2x8dINTrfODYhL5w3aG1pN4TPhDT8Tbg0lgDzNHB1qDSa\r\nhbw0A80fNSRqoDQgrFQ1x9tYNXFhlTTArYA08BphNHbpyDQM3QI1KQBONWu9wDR6XRw1aI6NNHxB\r\nxjQUL4s0S2HINACL9TSmVSM1n1DmNH2ZCjUU8uA0A4PONMBf6zQVm5w0FeZdNJhLzzSmc/Q0CyHE\r\nNPkRDTUphHU1forONNQEnjT5H4s0qBhANUgDszSTQhU1jEsONarGtDRFJc00cQAKNaj4EDUs8i81\r\ncALiNMDNtTTuF8008TAjNbSs+jTamRc16jD9NODuNjUREgU1DHG7NKHnlTRoYtA04M0SNatfEjVm\r\n+bA06+eqNGftfTRhN/Q0H7vtNJ5nPDVMphk1jGUlNTJQwDQiFNg0OEvWNENxtDSCxOg0aoK9NDMI\r\nnDQaCxc14K0hNZKg7TRzaqc0cRCbNDnvtjQxH8U0IGusNH6cqDT6jqQ0ToghNWqD/jRsoAw1HMVf\r\nNQyxhDVshpQ035KtNHevijQRGtg02uGsNAoVZjRswYU0FCyqNXCcWzQnFS01teGQNDjLBDVzyNE0\r\nZPMYNVwiwzTmTyw1SshoNC43ZTUVvsY0ss4FNY9L1jTBexM1dedoNCeg+zTRCto0Or7aNG8d6TTQ\r\nLyI1QvdFNZ3HKzXIHdI0tgm7NEhCFjUHS2I1foPjNNfMnDWrjvY0x0OlNC9hwzT4mNs0m1+tNHQM\r\nNjXq/7k0EMyXNP5yCDV6aBg1SPlLNJNq/DQbI740CQKSNAr93jStX+Q01hWmNHFwHDWoXgg1b26z\r\nNDARCTWgICw1PskqNchVljTQVdw0q/uONKTUpzRq+Rw1UvRbNM55uDROBP00TOvuNAt9JDVUs5o0\r\nkljiNBiDeTSGZvQ0DpqWNJT2fTTmC500LOpENcBEdTRbk6A08GnKNGugATVmIBQ11e4PNfL/CDXa\r\nkM40ZwHdNFflBTVllw41nqPtNJOjhTTFluE0tvo0NS5K5zS4em00UCcqNZIr7TRFq4k0tD0nNbGZ\r\nBjVumf803YrHNNPwwzQSOFk0KbsQNZi/kDSHw7k09gy5NLj4pDS5Z5A0kHoVNQs7nzRh5Ks05krV\r\nNO5b5TR25XU0bFrHNMUEBTW9eYg1HWN4NDRA3TTQIUI0DI9gND5HPTQFS040gE3nNFSktzQAvv00\r\nwYy/NJu73zRCDbU0UiD3NIumvjSAFoQ0MVPRNH4HlDQjwoM0wIPVNNJg1TTKfFM014ZENSvePzSe\r\nyOg0CiOQNOgJSjWp0Ns0ISYSNeQJTjRjF7w07e1sNCRXwzSbtAA14JLmNFVpITW7UKM0R3dCNayb\r\n8jTs26U0MJiyNJDR3zQIsNI0BGOpNOJdWjSm+uk0tmAoNR1IEzUGwqs0CtXhNHTsATUsprs0SCVc\r\nNY/B9jSDLDI1GjFvNM+phjRk+L00vOqTND8o0zQm+v00+HLoNNYjwTT9IVE0FCWtNB1flTSElw01\r\niQ2gNCmaMDWXtYQ0xnQyNRYEgjTGMOc0GrNsNCPrLjUu4l01uXKFNPgcAjUxxq00kgGtNDehYTWA\r\nCeg0vx0PNYs81jRq6/g0UrLRNAk0hjQ9cbQ0IEwoNY8x7zR+giM1hl7mNEb7szTDhOw0NPyZNKkg\r\nAzXtHuY0Nrn1NMwczTS/j5w0ncOYNHF3ZzQXK7g0FLDDND1PMDWZS8s0HobeNJSrrDRLvUY1NB6N\r\nNAUTrzR+xnk0LF3bNPnl7zQ+D700QLreNFL/vTQKIAk1PyrPNH1V+DT6y3w1kcyJNLCU6zSMfg81\r\n1s8MNcPV3zScBGQ0NqCnNGCJKTXajYo0srGSNDx+1TRBGR414hyvNNhm+TT6udA0aR3kNA7EFzUk\r\nQx81R9wHNbdyFTXauAs1LDEXNZe1sTRpvL80MJuTND844zSxSJg0JIysNOXo1jTEt600FSwlNSLO\r\nCTU37Xc0FTq7NPplNjQ4VJI0XWSZNEFXcjT6poI0YWnkNADsszRWHhY17XnINPD+rDQ1QYo01gYt\r\nNU/+uzQiSZ40C0mLNAiSRDU8q9Y0GoMvNZ7dRDQnQT81VTrKNIVTuDQ4rqw0AABENQ==",
                            "noiseTrainingType" : "default"
                          }
                        },
                        {
                          "effectName" : "WinCompression",
                          "category" : "categoryAudioEffects",
                          "parameters" : {
                            "attack" : 0.0,
                            "gain" : 9.0,
                            "preset" : 1,
                            "ratio" : 10.0,
                            "release" : 3500.0,
                            "threshold" : -20.0
                          }
                        }
                    ],
                    "start" : 15128,
                    "duration" : 2674,
                    "mediaStart" : 0,
                    "mediaDuration" : 2674,
                    "scalar" : 1,
                    "metadata" : {
                      "WinSubProjectDisplayName" : "",
                      "clipSpeedAttribute" : false
                    },
                    "animationTracks" : {

                    }
                  },
                  {
                    "id" : 103,
                    "_type" : "AMFile",
                    "src" : 15,
                    "trackNumber" : 0,
                    "attributes" : {
                      "ident" : "Narration_fracture-2-czm-element 11",
                      "sampleRate" : 44100,
                      "bitDepth" : 16,
                      "gain" : 1.0,
                      "mixToMono" : false
                    },
                      "channelNumber" : "0,1",
                    "effects" : [
                        {
                          "effectName" : "NoiseReduction",
                          "category" : "categoryAudioEffects",
                          "parameters" : {
                            "denoiserAmount" : 20.0,
                            "denoiserThreshold" : 0.0,
                            "noiseProfile" : "yZUBQdmkpECsdgtBUYE6Qa6vTkEBfQtBDPtpQN7I5D+09qU/+g9ZP9hg4j5UhGg+YS39PST2UD0O\r\nrAY+sPLGPVByhT2Gfg09yJ1cPXap8DwK62k9J8V4Pd3POD2rFbI8cC/TPJwdbz0QCRA9YV2EPFCX\r\nDD1CVsM8lT19PEqjjTxcSUw8FcRIPApoJDzvIVU7s5h6O1qzpTuAKEI7E/QeO78U2ztu+s07Q9CL\r\nO2SLQjtEq8868Bs6Oz7mwTpNaik7mb7QOzwOvzoHqVA7LE+TOjlt5jqgyJc6Y56JOh2kCTvgOwk7\r\nnEe1OnDQtzqa1Jc6LD8iOlifjzqe/MY6dcgjOs/WADtYc8o6PBPEOuSOfzpz/II6Rh1rOkRBqDqK\r\nrkg7jzQROxgLXjppksc60RINOwJXmDpwBhw7lf6kOolpbDtoseU67cBSO7J/DzvuiVw7r7QWO3Gc\r\nFjukck07eOVJO8LUcjtVxrY7605PO1MOYjtkfyg7BU0FPPan0ju0tVE7ovV+O60rZDv5GTM724Wy\r\nO9OT0Don/hU7qNs1O8gzUDum6Ag71R5tO3qXLjsZX+k6u0DIO0CFIDtLg1M7VgCaO68pnTsqmQI8\r\nXXhaO8OPWTv7KLs7fryPO3wZAjwQvDA8MMz4O55jXjxtNAM8s5UiPG8w5DsNGXM8fjj4Ozmmbzwq\r\ni1g8dfVuPHBFODxosIg8za6DPIQ1YDyAe7E8H5OFPHRhjjwQqm88kvGvPI14Wzz9psQ8nDinPKIR\r\nujymePI8PlTpPCXj3jzsYdw8yTUDPZG7tTyGY/A8x7jdPMi41zzVd608W7HkPJmupjx/nqY8axHE\r\nPCJxjDzqeJM8UIJ2PIxcXjw4Tz081HdAPISkCzwSDic8KP36O8qWBzzKn887Gc27O3+xyTu2oIU7\r\nBG6LO0KMMjsyCkM70zgVO4i0ITshPN86+EUaO1bA6DoGLlo7DNgMO3JpCzsMVtY6oDYwO4ho1TpT\r\nGyk6SChEOnU2bzo0gHA6HgdfOkbB9Tr1EY86IdBYOjTDRjqZbG86LZGPOkswRzp6fDM6MKDXOUQn\r\nCzqA1yg5oDwDOlLtBTqEiqA52V4EOnLR7DkOxLY5/OLBOT9DDTo5GJ45GFjYOXMryTmjs805nHL9\r\nORaZGzpO/BA6XCf1OdDTFToil9Q5wnwROpdEJTrMiRo60R1wOlScCDqGYL8547sDOpI71jkaPAs6\r\nduqoOcphpzmoveM59gpSOQ44lDkA3wY6YuaIOXiBSDpTNSg69PIrOb6wejkpzsE57li/OSqirDkg\r\nf/s5rmZtOgJlNjrCtho6kycmOtfkmzlSbYs5AM0VOsPRLzr4axM68CvhORxsITp19pM58hmUOUGG\r\nkjlGVXQ5gHR5OVjhHzlPlYA50fP3OeioyzkeAng5NZcPOvuO5DnpkO05RlogOonmPzrEFP85gDBE\r\nOp/aHTr9ZlA6BHOCOo7tRTq+who6S3xaOmcoETqDH/o5qXcjOohSRTrrkiA6EnYyOixMiDnGppY5\r\n4K+HOe1kijmWaw85EyaxOe7fOTn8N485jWF4OQbe5TlRTAI5rJbBOcjwvjmxP4E5kGWZOQC9hjk9\r\nsQw5d/6YOUBhJjpuTAI5+4CsOfSvrjl+6Y05lvvrOeAh5znyTXs5oAXMOTY93jlu+P843AcAOl9B\r\n4DlQgTQ595XGOe46Dzo6Qg85qLrPOXubAjp0DiQ5X+HEOYpSADqyL0Y5pBeSOShG6jlCYy452J2/\r\nOS41zTkqWQk6/O3hOe49HTqEkl460ktJOs51bzpM85Y6+R6GOqrfiToI9oc6TmiFOs21cjoOfXs6\r\nK3ylOif2hjpsOkc6UIOVOuT/SjrcPjw6BTKDOiVmCzol8SE6Cr6NOvCoGzoxIww6dMsCOhG12zmZ\r\n18E5mrysOevbBzpqOxE5hREUOir2yjkE6rE5Mv58OReG9zltA7E55aINOlG6OTlgoWc6e7dLOgwi\r\nLjqIpDY6GKrwOTBrMjrreXw6mEEoOl6bJTqZ5rc6RKE0OW2ddDqHuWs5a7kKOqTgkjkf3aM6n90W\r\nOt3fmzom+Yw6UAs9OgSPQTqzWIE6lGQvOpHI2Dmoe6w6b2+OOf3+PTosOwc6/AJ9OprYKjnEP7Y6\r\nlKOSOlbjGDqSRZQ6KySLOhhJGDr3jS46tKaGOpgzcDncUm86NqOKOWv9ujki6+E5dhOUOhF5tjjZ\r\npW46FydGOrNM7znUnDo6ybVrOiDE1jlsCvM5AC2BOks+HDmwrck56hC7OQxtoDkZwnI5u4oOOv3K\r\njjmJ0ss57hAhOudhrjgl76E5FrdOOYp4jTmiWKU4y7w2OldLgjl/i+U56l31OTsSyzmcONw4wME3\r\nOgYOijmGVjw5ulDIOUTxgzkAuUs5wAepOegKcDndDrY5+GTCOTBwjjl9v3Q5U9WhOe1ajzmoJqA5\r\nSyJ5OcPLYzkgPjo5fliCOcezMTmM9+A59eMUOUVu1jkCWCw69tdLOSsDqDmIZAw6jCcFOTSanjnj\r\nVwQ6CoocOYqhtzljX+E4WEKAOadojzniE/Q4zTC5OagHyjm6hzM5cfyuOQnilDljptw4wz4FOtRC\r\nIzigtfI45PoYOWHxvzlUuz05ZHQzOn6nuTgbH9k5REmROJjceTntUxI5TMvrOTBlCDnAcb05qsPC\r\nON98EDkIfBs5dXeJOKhjETn07W05TUJnOGOFOzktqMo4cJiQOHOGsji1QZ44nm5AOH/oIDkAaA04\r\noHcfOMHYaDj6BdY4wBkHOLrG7jilmm04xi5pOPrIOTj6aH04iHaRN2ZMcjiGg3g4xcO/N3CRtzc0\r\nVk04vQ0aOKVXhTh2Sc83tFMQOAapADhhCA04pje9Nwe9TDi5zNg3UBgeONAEUjgPUvc3UrAROBwe\r\nPjh9xh84jX2kOMVzdDgKkso3BngrOLkxujhHxGU4YoE2ODeYvTdgzPA3EjAnOJWEnjjMGss3XZv+\r\nN6B9yTfARCw4pWeFN+M3Bjg+ofI3j/qFOKmZ/Dewgc437t6vN4hLxjc3kr43xl4COC5z2je/IA84\r\njLWwN22MCDiyjQQ4rDdKONhqwzcbgus3greZN6nZLTfvmqo2Lu1nNiCnBDcLkaY2nh6QNhS+VTbk\r\nDoE28S1wNr4RSzYs+nQ2ZLtHNpeIQDa0f6Q2EweGNqkjhzZcZk42jLtKNsgvLDZ+InI2LNT+NTBi\r\naTYO+iA2o46BNoh7VjZqSY02vFRDNo4zgzYoaC02tsc4NhodcTbSXP01ItsTNvLLmTa/2FQ2YbFH\r\nNi5JYjaPJIs2/3UcNukoYzZSgXg2DWHLNgFd1jZv4Iw2exUAN7Qw6DYCMXo27UjeNlDJZza8uiE2\r\nqhJbNoBLfDZeeDI2aiaPNiaJNzYo83w2cCNJNikyGzZbZQM2ZAMNNphtWDbc9jA2GsESNjrRCzYc\r\nXC822vlrNjjkMzbO7hA25i0/NihUFTae/Dk2RJCANoREJTZGRUQ2ANArNuxvTTa2kkw2wd8lNrwq\r\nYTYMSI02YBAUNhEDXjaOR002one/NeQqJTavTRc2KhI3NjGbpjbuCvo1+JigNqJTFDZJiUU23B4k\r\nNnhdWTZCn1Y2AGV+NpnvDDaOizg2vuHSNbkRUDZn7T02QLSGNrkkOTbkJy42O4YUNrUQWTaS+As2\r\nFpsaNuJ3RDZQjBU2uvA7NhRVCjbaoeY1C0QWNoavBzYi2QE2zguFNpjeLzYt6ks2OJ5HNrKHTjZ7\r\nR3o2VJTqNWx+CzaG5BY2lKEJNlmpMDY8twg2reQuNtQdWTbpAB827NRTNoQgPjYQGpw2WuBaNhPa\r\nJTbgEkc2dqMqNvCpFzbWdSc2ABoANjY/5DVqTlU2WSxbNocDUjaUBUo20wxCNtSDFDbEuUY2U4Mb\r\nNh3n+TVUBjw2c7LtNQGpNTbPjxA2dxsgNqoJIDbS2u416+8LNpbCFzaGcQw2uDzXNQaTAzbaPvo1\r\nIQE8Nt5bOjYaRhg2XLBKNlKaITbGYzQ2vkU9NkdBCzarIP41K+gzNichLjbIGg42cNQzNnDtyDWQ\r\n3iI2PxfvNaBYADaTcoc2TUxJNuGIyzW2HUU2i8AmNgHQQjZLyDA2CC0DNj697DWYsRM2mx5lNsW4\r\nITbNcc01Rq4KNiSmPDb0/+I1XI2ANs7pFzZJRuI1+433NRkpDjaFngs2Z5XDNcqXLjZWXRk289oI\r\nNnMoIzalTMc1/tlsNiTevDUSvr813iXXNavlQjZ3pUE2zSzlNUeb5jVQ5SQ23SUeNmE4IDZSPfA1\r\n46MZNuVFCTYryE82u0O8NVz7Uja8Dfg1BvD2NTUNJjbjBTA2mgQYNlBvIjaeGSA2YQ6uNbU/oTWN\r\nTto1eZLlNSrWsjXV/BU2TW37NboPJzb2xxg2yLocNnEbDDYixCg2vvfjNWaBwTW2AzE2eiNINnAL\r\n+TUcNgY2S3yLNSraAjZc8CY2C6HvNQqW9DXamjs21n+nNd+ILjb2jSc2iHsENu43WjYcdAM2WQU3\r\nNhvkLDbftOU1dn0VNr6eEjYmTwI2EpGqNVQzmTUM9Hs2YqcCNgeAXDYljto18+InNtRTDDY+mQk2\r\ncOiwNWt8LzYyve41dXwONrBg6TVt7Nk13f4bNlR84zWz7QA2W673NfL0DzbE1p41Nky8NUR1HTZH\r\nni424gzUNcF3Gjb35yM2fUMeNoYTHjb8VwE2c7f3NSdkGjY80bE1NGDpNXpVyzUUphQ2bj0FNt+/\r\nwTWgnSI2vHHfNXQ4mzVHjwI2UicnNqpjATb0qbA1lZHnNW9fEDa3IAw2/0jSNcfKLjZE9Rw2UFid\r\nNa+PSTbUhTA20oPKNfoDITa0FR429GizNWVsqDWQuSQ23oT4NeO1+zWS6gM2TrkHNrl2+DWLICk2\r\n2jQVNsY8ojXy3gg2YfALNlTfKjYvELg1+LkhNo9HIDZ2X8k1lcC7NU/1tzXUWTk2ND8RNnky3TWs\r\n1OI1KoQANk0hFTYqf9E1OCs7NhmMCjbHnhA2oCkZNt7QHDbSMxo2IP4ONm777zUr8H02LsbkNa/e\r\nZjYPXa011jIRNit98DVo+zg2ekoNNjxoPDZCHxs2OqAkNk8F7TX7cMg1lMP5NRcOGTbcWr41Mokl\r\nNpRkzzXtc3Q22MOSNVyxhzYQYe01iS4YNm6h1DWsVek1o97NNdVgDzbzafA1qrEMNlOe7jUq1A42\r\nMbLeNRsVGTYslTM2BcsyNpKTCzbw0QA2UDK2NT5sYjYz7Ck22lm9Nd/zCTbyhU82feLWNdTdETYk\r\nexQ2Gk29NbH4zzXP7/c1AJkCNj11zjXU+AA24WjCNT79nTXelKw16BTxNcRVdzY9+cw1pxLiNdxl\r\nNzYD+Ew22zvlNZVPyzWC30o1ES8/NhuS3jXayTo2vtjgNZgbAjb6IAo2nXsbNgToEDY2Sh02iPPK\r\nNR8rCDbPRgg27J2+NXONAjZknBI2IviMNXsZDjaBP/M142oxNgALEDaeRL41czH0NQAg5zUcbUNA\r\n1uWZPafhBD1wtuc7/qMWPFZNODtTi1M70ga/Oo+ftDoiY1I6j4udOstoZjrMK4s6hlGEObQPyzrl\r\nwOI5eD/SOU3yKzoUGLw5mSimOQ18Mzp0NGM5vh+SOc23qzlCg7k5ZjcyOa5IbTkeAEU5smBGOYgd\r\nCzk7WJM5lDOkOH4M4DkMLAQ5LINDOT/wajkFNlE50k35OMs2iTgoPM84tEX2OOALTjkCJCE5zqj8\r\nODLx2zgSBgc5GwMCOQ3B8zjwjaU4tVaoOCrItTimn0g51ZaoOA0HBjkRUck4k73BOPx4ETkWPYE4\r\npOfPOEd30DjHZsg4I29dOIIO6TgfPgQ5yNw5OcHmlDggLsQ43hsKOfUYQTl0lMI4Hh0ROXElUzhK\r\nf085107tOKe1jzjhSKE4/bmnOLGsiDizYhc5VtymOCQtxTg1vGE5PyoCOcxP5Th98Mw4quctOSe+\r\nJzmNL2A5JCwfOdpQyjlHkSs5i85MOZ5jIzo8GVw57Ho1ORNgADkZeAU5ck8rOV63njivS9c4Nu7e\r\nOBIlMDj+d4Y4JHF8OET6KDmuEck4xxTKOLm1NzjDxks4vKRPOKPdZjhp8Jg4jepkOEL10zdvm5w4\r\nPXcHOWAHXThwsEQ45iOUOKU6MTi8xCI4ZGhgOG4oITjinBc4TriWOAPooThgiB84quJhOP5NlTjQ\r\neNE4zkEuOG5myjiw6Ik4Bw5DOOV8mjj1wG840WUPOL//jzhwH9k4wnabOHa3jDjEsg44KWMaOGS0\r\nGzgEHbs4yKpPOEQAWjh2WdM3U58TODUwuTfb2lg4hgD2NyozCTi2EYs4BtswOIJ06jeEmF04X2TW\r\nN7HERzio5OQ3+jNUOBbyfjhrNGU4lJiQN8hLjzhumks49uBSOGDUhTh4QwA4rvO5OBYSbDgJSDU4\r\nXwkwOMx1Ejjz10w4rPqhOFQAMTjaJ1E4ygBiOO6yEzjCLE44hVIOOMLfnDhpEyM4iE3mOJ8oujid\r\ngFc4kPqzN/xIIjgNYVs4yVXZN8dvIDg4dT842kAUOEL11Dc9Xo84xFNEOMCMIjigGJE4cKsxOIAf\r\nLzffLe03J8R7OLi4njjUkzg4hNwYOLu5hDhdd9g3YVQ+OBTn1zffkcQ3O+PrNzXOpjcC6d43qPW7\r\nN5DubTh/zMc32VWGN5evKziaWII3C7L2N4jDDzhmieI3DtR6OOqdoTfF0943bfovOOoSKTiR2Dg4\r\nS8SjN3I14zfoc3842po5OEV30jeSLOw3iE79N3wjRjg+8jw4YK8zOBYawDdoFRM4WgUNOJGuyDfV\r\nGCY4GnVfOIYvqTeyDKg3d/KIN1IcRjiOXqE3sgPYN4KaMTiYQ9w3bhhYOO7y+DfQKL43l1VEODwy\r\nhzjbFsM3HHfIN2ZZ5DfzDM43RKy2NwKAJTgzRik4Ze1AONq02TdCmYQ3Fk0uOObKAjioLvQ3zbeD\r\nOFodcThf5as32BOtNxJJIzjKNNs3sBIdOESivjeEip84hzHuN0N/1Tel/d03FNMBOIsZ9TeIuLo3\r\n6mR8N0GOBzg6Ayo4aEPYNwFOFzhomwk4aLs4OJbDvTdFrjw4VpzYN0MurTcMnsE3/pcfONXzCjjx\r\ngJQ3HladN6Ny3jeYOl04WHqCNzJ59zeqRfg3QtHiN8NMyzfwv5w3WkICOMWdvTeYueI3+Zb5N2KN\r\nATgkngM4M7kkOFQ1rzcfCAc4ca2xN7tpRjj6W6s3LkTWNynXljciKvI3NsRXOCyygjdWdgg4XmB+\r\nNx+H3ze7w6k398gAOD/ffzd0E8s3PPCgN9AVvTeMcys4D1mmN/LYKTjMjQI4/sV8N9N6Dzi4Jic4\r\nGqjrN5azozfBffo3d657N5rH0Tc/9c03phKUNx7W7zeX7sU3UvkWOKQ/lTeNXOc3cshXN6RBKziI\r\n6wk4H3GwN8iFqjcCGtA3xxnxN7TwoDdZ7bg3tRuCOM6V6jes5HU3FySRN2pdkDgZJAM4hMxSOKmP\r\nvjf0Ysw3xVKKODLq1zfwjxo4MjnUN7xZ3zftxyY43NfNN/CJ9zfHjIA3CJ6MNxDoJDiNHbw3Mi4Y\r\nOOJxxTd8Er83YHL6N0wMsjegxSo40/y4N84EUjg3TkE4W8p0ODDnuDfwUeo3Gt/nN/BAgjejmls3\r\nV6BVN8/sjDdnXJI3u+maN7wNQTi2jss3OxukNx5PjTcAGrQ3DHgzOEav2jeCZfw3R5zMN6A73DfY\r\n3Q04slm0NxRg1Dfy2s03IZYTOCRxRDcH6bc30vusN5DaJjhnnYY38EUCOLaajTfH0BM4KEpxN72c\r\n2zeSfSA4w+GpN+j2yzeYyTM4kNLhN7gd7jfSCww41CedN2BygTeamzQ3DsWHN+xiVzi6FJw3z2/g\r\nN8gT5jchaZU3ku+UN1Y5jjeQquQ3vPYEOHjuKjiKrvQ3omrNN6fJPTiEhr83C+WMN4agaTcQX+43\r\nlXwVOA5LpTe0ubw3qhPnN0Y2Kjg20OI3NZHcN2KToTe2bRQ4JgeWNxcMqjf9B6Y3cwmIN1tMYTcC\r\nB8c3UC7BNznIBziHkg043K0BOLvYGThZ9IY3M2EjOJ6wCzhGMl433k66N8V2BTgCUwQ4hgDdN9n8\r\nmTcZnic4KELaN/EM3zcs3PI38eyzNw6oUTitieE3LCmON5gT4TePUZs3xqmzN06TVDdQ0YA3rGJw\r\nN9D+6jcgpl44jrD9N+3JDziS+OQ30gpyNyGcLjgm/qE3GMPZN5nFpDdkg1A36t1zNwCxEzim/Vg4\r\n2jjZN7CxozdrQ483wAKyN62nDzh60WA3ofSQN561kTe7UgA4p6PSN13Z5jcwf+c3lVISOAFzXziy\r\n7K83TzVWN62YlzdTHR848pQqOD5ADzh0ij04YufzNya6rDdN/5037OMzOPO6JTibXJM3NfWUN365\r\n+Tc14QE4ue6fN+yVFDiknXs3L7TKN1FaIzc9YvY3GoKAN1LXBTh3uKs3Rae9N2Rp9zf5sNc324Ke\r\nN/moiDckgAU49V6lNzhuDjj9/403/6L3N3433TfZHq43drnPN0d92TdFQAw4xPgCOKHKUzdrTWI3\r\nNwrXN4Sb0zetQAc4BKKdNxVkqDc1vJc3MEbdNeMzMjX7Epk1eyNuNeCwJjW35GQ1SLNmNUmgnjUH\r\nU081L6ZcNdaReTX2b1A1SJ0TNcscTDWYsUA1u2MhNTLMITUmK1Q1LMb+NMI9KzWCQ6s0vjsaNYAa\r\nJTXBVJM1TKJBNUrycDUaLgM10roINkRLHjWwKJ81lvtzNQ87YTXLxCc1cQ8RNX/FajVNDiQ1hg0N\r\nNVtuYjVd8vg045wONcyh8jSWXl01jNdaNT5nEzUhIiw1ECj4NEAVkjQwjFQ1F5IcNSKedDWntI40\r\nSlIJNdU77zQKj1Q1qBN7NL4/QTXyqgk1NnQaNZMAOjXks+804QoONWgmXTUYLMk0/juzNG7UGjW8\r\niCY1RFfmNCPy5zSpQa008ITiND6vzjSIie00JhsZNcvZBzVBFIU0FA0INZfQ+DQaf+A0OBHCNCT+\r\nxzSahPc0Y+yZNTkCqDQh4B01WfQINZMQyDWqEJ80eSeXNIvGgzXd+oA0pwb1NB0uMDUezQU1NjU9\r\nNXQVKTXQbB81BoIVNaCQnDRE3LI0/pFVNfjIjjRwxkA1RuOtNLyAEjU+ONE0S67sNNAE+jSEpCI1\r\naCHkNLz3+TSOqNs0VE/MNBwv1zSOYUs1I6ShNJsp9zTiGAQ1rjsBNUhbEDUyPjE1nHnVNNaVRjUG\r\nbA01lICKNWj+zDTLYQ41IewoNSyrpDTFPRc1nZmWNLsmDTXUM0E1IGzPNPpmTzV6jeo080TaNK+z\r\nAzWfyPI0M1I7NYRHGDVgFMg0MmvdNMkgxjSfgXU1wjbeNCse1TQgbBk10yAXNalc4zSi7/c0uxK+\r\nNGD8yzQb7S019ehgNTgstzTglxo1OKzIND8xQzUMrP80faAfNYW8yzT5Wzc13I/ENKvI0jRMLXI0\r\nxWufNCW09zRws9k0VJeDNP4cFTXo4rE0mwsDNUNhXjTAqD01ImPLNKlT5zQhQdw0AUk1NUSUTjWr\r\nnis1tXZuNIFZ1zT4Drk0QwnBNMoQjjSTU6w07CPXNAKxHDV9HMg0dkotNQobwzS1KxU14sfVNE4C\r\nlTSYcgs1sWBINSLqhTQ/KIY0OKeoNAJfjjRCWP00mpbINJiPuTQc3ho1yfsjNVvH3jTsbAY1fRsY\r\nNZda9jS2BjM1AmsKNWgMHTXvL+E04LORNET0yDQlcgs16kLbNEwvzzTUdl00GFRWNZ4+2DTVORU1\r\n0VYoNQw5bjU81RM1tlxWNZZ4FjWOjaM0rRgCNcYZ6DReAZY0HqwWNUzMGTUHcuU0576iNBQ0EzXM\r\nSrs0r6b7NJ8nzDQ7xeE0LhIfNfxDBTUbxto0pflENbAuyTS4mdc0c/T6NEa+qTTsNjk1HR46NUcv\r\nqjScXes0rH6jNHroKDU+aDM1L5IVNQkGMjWm5Ek1QP5jNTHeKDW9gM40T6iKNcPSwDSaUA41ZLUk\r\nNU0L7jREV+k0RQm9NKoNBjU45fU0OQVuNLZaETWgNrk0MGUqNfk30jTQ1aY0/WmcNIDhTzRHP9g0\r\n/+9RNQD3BzX9mMo0mo+FNIPm/TRmVq80NOwzNSVnkTRNN1c1ni/wNC3LlTSCfYM0Rcs9NHSoxTQM\r\nqVI1dz6MNC1dEDUGg700PkIJNRbJvjRAdCg1mwvmNLLe6jSH2600IgLoNPRvFDVkxUk1WAbSNInH\r\nczXFthQ1toECNW8VNzSccwY1WW7XNHS0hjRKzeU0ATKmNKzn9jRqVDs1/866NOfOiTWY6QQ1AecO\r\nNW0VhDSiXDA1HEEHNa201jRkNmI0NrvtNAY8BzXGcQM1v3+/NEQDpjTwb3E1NYX8NOMHwjR5CGw1\r\nyjWpNMSeCDVZUas007hoNZlr2jR5ppU1qPoqNRX4njTSXqM0rkUANYzqijSB5MQ0ySMbNdvE/DTE\r\njcM0uCEJNVKmsTTiOus0CeB2NDTcQTX8nQM1/tZtNZqlVTSFrZw0stK3NA0kJzX4uMw0BgCqNEm1\r\nmDQ+rvs0KijlNMeI9TT+ad00ijp0NBFk9jQ2OLo0+d69NEd2ODXzO/w0j94QNbIqWzVR4go1BvzY\r\nNPqWuDRSGwQ18IEZNerYqjQkUa00rPK/NIi9EzXXav40FO+/NFUK4TRQOB41YEuRNNpdSzXx2cs0\r\noyH3NBEQ/zT7kg81QbkCNXAiCjXefOA0KpfXNPXcezT2LRE1PBeVNJ7pCDWk6a00uNQNNaUTFzXV\r\n0OI0ijuUNCDVxDRL5rs0BrL7NA/OrDQolTw1NP8CNaE44jTzK5E0MMqKNMh+zzR8ups1hYJONaCC\r\nczTug540np3xNKH6rDTKNZk0jAzgND1PDTVsW6A0eYZaNRT2eDVL9Ck1H935NESC1jROe8A0xls6\r\nNbsS4DQL2hE1dNdpNdfx6DRGcDM11zfFNLQiuDTwyMg0fFvFNAThpDSwAhA1AAAQNQ==",
                            "noiseTrainingType" : "default"
                          }
                        },
                        {
                          "effectName" : "WinCompression",
                          "category" : "categoryAudioEffects",
                          "parameters" : {
                            "attack" : 0.0,
                            "gain" : 9.0,
                            "preset" : 1,
                            "ratio" : 10.0,
                            "release" : 3500.0,
                            "threshold" : -20.0
                          }
                        }
                    ],
                    "start" : 17802,
                    "duration" : 2364,
                    "mediaStart" : 0,
                    "mediaDuration" : 2364,
                    "scalar" : 1,
                    "metadata" : {
                      "WinSubProjectDisplayName" : "",
                      "clipSpeedAttribute" : false
                    },
                    "animationTracks" : {

                    }
                  },
                  {
                    "id" : 104,
                    "_type" : "AMFile",
                    "src" : 16,
                    "trackNumber" : 0,
                    "attributes" : {
                      "ident" : "Narration_fracture-2-czm-element 12",
                      "sampleRate" : 44100,
                      "bitDepth" : 16,
                      "gain" : 1.0,
                      "mixToMono" : false
                    },
                      "channelNumber" : "0,1",
                    "effects" : [
                        {
                          "effectName" : "NoiseReduction",
                          "category" : "categoryAudioEffects",
                          "parameters" : {
                            "denoiserAmount" : 20.0,
                            "denoiserThreshold" : 0.0,
                            "noiseProfile" : "PFzSQDI9fz/IsX1AjlbFQMgw1kBndYJA4sFhQMaGsD9+en8/jjHJPgzQbj9QvIA+TpZRPqSkgT4B\r\n7/w9/tDAPZPjlD04IyM9LG/8PCKG1j25Hb090dsiPkZlnD1W+hU+JuBtPcjAfD1mywA+2ojiPJIx\r\ngz2Gbu88cubhPMhObzx2uzA8Yt8gPHnqkDxzM9U7Ra7gO7gUGzxRfdo7aLxnPO3Nlztuj9A76Kwk\r\nPNCBCzzsMoE7ad4cPP+AIzvY0Co7KNABPMJIUTysuos7wsG1OyNcpTtEF8Q7WrtJO818ADyc8aA6\r\n7PdUPDLnsjtQ/JY7CoWVO+gpJDtYTO87gH6uOyCvijtWEhM8suRmO94WATvpWdU7hhZSPBHWjzsV\r\n9EU897qmPGnyLzw2vHk8bs4wPEcO/DsTBmA8E7wAPWHfNzxWgZI8l/DGPEvTbTwyyao8YSjPPPR9\r\nKD1Zgrk8HzVEPSOQBT0Y16s822VJPTZQJT2cBdk8+L6CPQJgbD3OdvM81k3aO1tXpDxobAg8PG2X\r\nOxoEwTyyiFw8hnpUPLnthjuVaok8LZsqPKTzAjz6IeA8buS3O7Qg4TuFHVU8W4zUO65HwzsnU6k7\r\nWSyjO7ZvzjzDLqU8szSUPLlN7zsqksw8vecUPCpxQzwKMGg73ONYPIfZiTtqEYc7/swVPGQFSzvP\r\nk0U7JIbOOsxRDjy+P4c7AraYOrKHgDu58BU700gJPE+Q6joZNSo8CGooPLdlRTsUnz48fPtrO7+5\r\nJjtcUXs8WEisO8N1oDtnd6g79KIdPFBO7jvM4r87wtYKPKo6uzup4EM8ilWuOw9AXzz1qU87SVoH\r\nO4AbPDth+yw7EIwMOxfZVTuxOHM7EtjKO76BLDsJH4I7hssTO8qcMTuO74E7eC8EO7sfyTsftYY7\r\naxcmO1D2mTuAHm47CwphO+KAvjrl0/Q66ahMOwpDyztn6W07GBIQOyEfbjtTnvQ73f4iO/iSWjtj\r\nmiY7Y/1tO4jNTzsuTAI8SjMnO2BXaDtG4CE75aLxOoj1zTuTt/M6yt2OOxQOKTtpcF87st8fO9dt\r\nAztYM/06lXYgO5hcmzvFx2U7wXlaOyqwDzsHpA07J74bO97RVztWq4E7VIufO6P9bzsS+kI7MFtR\r\nO1XtVzvKTnk7qoWMO0IjhTsnsWs7PrdhO+1mdDvp+Vc7AqNpOwrRgDugT1U7fOyEO6hKajuw2Y87\r\nNfqyO2mmUDs5BWg7xHcUPLBjtjvyjog7ggocPCIHHTyFO+k7FzonPDieDjz8ZEk86rszPLg+DTxo\r\nJFE8fbs7PDrOCTzNGE88aow5PM6bBjzTwiw8rZsXPCVYLTzKHFw80qwBPFRpMTxbYGk8cMXpOywa\r\nEDzaYU08dfv2O6cj5js/TA88ApvVO4+/qTvAIaw7FLbHOwfB1zvE5qs7CkKkO9gkvju51Jw73T47\r\nO35FfzsssYI7LFR6O7V9MTsovwo7/QQnO02pTztbS3s7vURkO3mhFTuSEdg6zo/nOmZiIjsBERg7\r\n3+QFOy+MRjuTY0I7iIY/O/afPzs3uQI7YqPoOmpODTs8N586hxTBOoEH4Tqreq06E0ClOkuHUjp8\r\ntys62koiOvKLTzpp9Io68gxROnQ1MjrhMKc5KwR3OfWqIzpQ2Wg6oyaKOsBaEzqAybA559TbOTXO\r\nnznfFBo6xqpyOvUZpjoV/o46N4gBOoV9tzmIoAs6IqalOpDlxTo2MKE64mdLOgVx6zmb5A86nb2r\r\nOrnBjDrq5VU6RJEAOl/KjjnM1Bc52B2fOVrUHzoA5As6huG5OU2igDnwaxA5btAoOSAXQTlvnbo5\r\nfSw9OQg4CzlTUj45kE9tOdHCCjnqUDY5mimiOQo49jlLiII5iWoxOQ61Izp7ogg6VAYHOrJwijoA\r\nklg6ymV1OhCWbzriuPU6ImG0OgV5+DoFnuU6HPoHOxgELDuqPi07ZyQ8O/hSPDt45VQ7iBg2O87Y\r\ngzuh1V87QXc0O7avizuzHGY7lio0O/cTbDu8ZS07ijciO8ykJzs/iAc7QQzOOqvtwzrODYY6fFIq\r\nOjK1ZTolSz06gvJIOpGUrDqcUcI6teVlOrHg0zoYfPM6B2+ZOvHvITsYZwU7RooTO8KCeztQAoQ7\r\npT5mO3KkmzuOv6w7HtaPO++ZqDvoBN47fK+4O0sGujsbZN47HIG+O9+5jzv4rNk7SRydO/9FbDtU\r\nuNA7LR5bOwjkOjs+j5c7FFjgOpjTDTsE8Y47eSulOkD7+jr+KFE7NNsWOgq6yTpkSv86OuLAOpxX\r\nqjoKfrM6qh9kOiX1tTrx6q46AWmpOlColzq5Ero6INGZOkSAazpc/t0667CHOjG0tTrGHLE6XLV2\r\nOk01pDpODVI6TOxyOiKIcDo/DFQ6dIx9OsneQDoR+086SsyYOlonQTpxc4s6lK1COmvLiTqYOyA6\r\nIptVOhxeCzqdPkM6j1otOmJ68TnYcPU57HADOtIuEDoiPSI6gPstOjdMMDqI4YU6Aop1Onv3Njr/\r\nNQI7yU6FOvSotzriAv065TOuOkIW2jpbp9c6CqSUOhIc2TpWI6g6npGeOncE3Dop0bM6Pi/WOma5\r\n7DqmyFY69VaROtUTljrCYQ46mK0TOgXH/jmb9cg5DQIMOpiGXTle8Jo5A2VQOVrYLDkodyE5wH0K\r\nORjBcjmLqk85DbhbOf90OzkzvMI51Ly1Of0N+TkhbqQ5hEEtOlkwJjp3e805NwogOsRnUTqAnvQ5\r\nUAZTOiRrQTqPi0k6imauOiZcRDpg7EE6dOu0Oj8eajryZQ86wh54OhxWaTogTyo6pUwNOgAXRjrg\r\ni3k6iCImOjStzDmqdDk64rzTOcXexjn/1oQ5CrhhObXhaDn6wv84cA/mOPCNdDgo9ng4ypewOGD9\r\njTilWFo4hC5/ODINvjja4Aw57KdKOHRXrzn9F9U5rwwHOp3umjmHffA5caMDOlNnHjoGdFM6BN8L\r\nOmxfXTqNEFk63aJNOsUyBzrdTCw6lvNJOijkMzoWTdA5ZHh3Oleo0zk3hvw5gkgiOrKkEzoosak5\r\nTFfxOeVTjTkCPSM5UOukOZCwFTnRWgk5FpcrOYURXDg8Vns4oAKdOKEwzTeI2dI3vzOnNzo9zTbe\r\nTd427pq9N7tXgDdqnf42mMzfNhadMjdHwYw3eTR0Nxc5njdYSKM3W4GkN/ZFmzf4J383wrqwN0bg\r\nyje6Okk4cAR1OMMWrDhF38049fPPOKFexjikCYY4QkSvOAKQ0zi651A5AFGzOMwoRzlTk5I5kSYY\r\nOWqCcjlGY5k5Ms5HOSIMVDmecFU5cl1DOFRYQjmZrAU5PnzKOCEImDnKjYU3afICOVIiPzlb2Qg4\r\nZsOMOHvk/zi/OTE3RjyVN02VNjh2iLE2rHh0Nw7PoTcjLZY3mojJNu4HGjekPEs4roF9N0xbhzaE\r\n3TY3PY+ZNxSDoTaKbqw2kWq0NnAPpDZsoLE22f48Nv+oqzZQgJ42fjayNqVg1jY6vMc2c7vaNorW\r\nqza+Jqc2mnujNs5+BDdf17c2C17CNqzu0zaRdJA2ahq0NkN0wjaqw7023a/JNuOVfjYC1mw2S8aJ\r\nNrD7cjaARZQ2hGWeNrWvlDZ0vno2/kG9NncGyTaSyn02MIXrNlHKlTaaj6U2tOmcNl/FozYX37s2\r\n5IDNNq0Gfzba1Ig2cXa4Nui1yDYArbY2DdfDNrz5hjai8Ng2vX3TNh7FvDa4GLc2XDK6NrTTNjb0\r\n0sk24b5aNlIRuTYspbk22pSoNqw3ljbkxJ02XN5YNil9sTa0UZ02Hkx/NrRwlzYiu6Q2ImWsNuD+\r\nZDZ4vVA2+D3aNjCXRjaMy5U2LVh4NvI2gjbu36A2+lJ0NvJLmDb5sbI2q7FkNv+ptjaYMpM2PAal\r\nNoTupjbQA502cIyONvqutTaanzk2E3GFNiCEiDag55c2QqU0NrURpDbeo4w2sPOPNr0bhTbOgx82\r\n8lSWNv/VMjbC6ZU22UmhNgAWhTagU7Q2ZMQrNmW8jzbqJow2LZALNlzvkjZ+QoM2nYqJNv/5fTbk\r\ni4M2uK+fNqYJcDbQMjU2sP2KNitZWTY1Lns2cHLMNrYIYDaU7Xg2wviGNl7nbjbWKJg2+SOANuIE\r\naTYVfX82geexNmYtezZb0JQ2Tvt+NmwGgzag/3g2Bu6INpbUbzYSHoA2LdCGNiLAaTb/nNI20lp7\r\nNs8spjYdy5g2gylBNnadmTbF84w2p4qPNh+TkTbFOVs2jgonNkBoiTa4jHc2RRGcNpV9Hzbi3Yg2\r\n37dnNj6KfTZ0YV42X/+lNlVOXTZofkE2VW5FNnHbnjZcUm82LKGaNpL8jzYXhgg2qBN4NoO8mzbC\r\njVU263CLNl1mlzZGYXE2/utQNiyiizas/Kg2veuINtEjijZZFjU2ZhqUNqP2QDYdr3s2WtpINpgc\r\niDb831w2m+hoNnCydzYqJK02nlI8NgILpDa/5Gk274ifNscZXzZvOSQ27/eBNuMTVDapeT02onB5\r\nNg73OzbBpqA2N4pNNi64Zja0Uyg2441eNj9rajY+4Y02B0teNnhJkzbrSHE2URxaNuA1nDZ7ALc2\r\neZpvNtNgYTZCG4o2QieiNv5MezYbK5M22fugNkZgiTZNE3I2mDtuNlexJzb2aqI2vcTsNbvkWDYT\r\nXIs2eMAZNrOtXDbelH828NWPNoCaeDYgEYs2pHuSNqLtKzZQmmw2cFCSNoJhWzYWNoc2ShJwNsJx\r\nhTbokpQ2OOV1Njo/ZTYs3Ik2xclINhSDRDaQzlA2FAZGNnfTvDaq1zU2XbnoNsiBSTahh742OkiR\r\nNpX8uTU+kjI2rC2NNtF9jzaPdps2qEWRNlrBkjYuRpU2gnCJNjNggzZ1uks2ad6INvvoKDYbSzI2\r\nSptUNpfWOTabV442lVZfNvDejjZD4EI2I0WbNsjsbzYp5zw2Lck9NujQhzY7Eis2eAKENmYokzYg\r\nXoM25pNzNl3fSjZjd4U2VcK0NtW8aTY6P7A2vds1Noy5WjYcXy82jgaxNt5bXTaKtYY2JDl9NtW2\r\nhDY4vVo2r60vNvDTVDbVg4M2xu6ONo8lKza6nEk2LO5QNqCAYTbcTCg24mibNkGhjTaY2mU2rSyC\r\nNvOyGTZ33SY2ukgwNoxclDZR4202rLyANlU7LTYRoYE2slBVNta+0DaXvdk19TxGNqpiVzbWmCQ2\r\nWzk1NmNglDYBVFA2oe2fNrfrATbPIi42extTNtcqPDbU+ms2hgBENqJsnDaev4k2nEqQNqHwgTbm\r\nzd81d2U2NpwsiTYORQc2jRCBNvn/WTYZE1g21GboNV2nKzYPinE2D7p0Nh2wTTa5Kw82wbapNvTI\r\nXTZw6ow2G4YjNviogzaKPF82omaBNhMMUTb5nLU2VQlyNiqakTZnz3M20jUrNrsFRjYdybc2SQoz\r\nNiqmDTbdHEw24sCzNv1mKDbFG0U2wY1SNu2/njamtyU2G7+XNq5DQjZdoIU2BlV7NgAARDb3lVRA\r\nCsChPfSjPzy9vNQ7B78TO2VzNjuFFY46TRI1OgCUITsrYBo6t+gOOlz1xzmyLp052N5+Obj0qzoc\r\n3Zk5UnGBOe6vTjlT0mU5poRaOXwKlDlMTUo5UnVMOf2COTkiuwA5y6AYOdj9SDms/hA5/G9MOUqa\r\nkTlz3gA56h18OIZ6NTmmlLw54LZNOQky6jhIzno5JcMAORiOKTnPwdQ42auQOQ+HjDhG8vs4nqkL\r\nOUsQIzk8r1o5769COU/Ijjkx4ao5UksnOQKjMDnX2VE5fhPtOZ7NwDg/Tns55DpSOeNLczgfccg4\r\n/M1pOUT82jhy/0c5EhSAOPjLoTjmLzs5fD5ROb6YHznUaqU4CxiyONJ9pjjaEq84clWnOOn2pDiE\r\not04/NeJOGLOpThSaJM4JNQ0OWhg6Dg9ajE5f4fpOCLOHjlToDk5Zpb0OHHhGDnednA5BECPOTVA\r\nRDnMRZk54iN1OUpqsDjgGPI4H1MYOujRATpuqeg4Tcg0OSa7dDjtb+o4KTsjOaf3ozjm8NY4aEGp\r\nOMJwmDg2Foc4FpKgOGVhjzi/kqQ4TiDJOIyyEDl27c04KRk8OB0NMDnUX9U465mHOPCWijiwxYo4\r\n2vOEOD6UwTiZpIc4TR2WOErpZjjytIA4IQGQONrn1jj9ZqI4gsM2OP8Oyzh0j0w4XzxdOJ3V4zgm\r\nDXE4CTBkOMzKNzjJh6A4kGG9OOLqbThUuGE4WDH/OEjOQziRKBQ4IGKeOLMNejgOW3k48MOgOIaQ\r\nQDgFUUw4uWahODqERjiSE4s4Eow1OPUH+zjhu0k4whExOGh8QDg8PZU4s0yiOFmvKDgMplI4ZdcX\r\nOMOPHzjruGw4TDuLOHx/Vzji2BQ4YrASOHpI/jeTTJI4Cy7sN3mUwzgNUpw4WvUHORSvRzhGuMs4\r\nbFtHODlERDijfLg4pWHUNzQaJDjU11s4r7AiOKeYXThDvPk3JRpcOK1f7Tcz8zE4CKiIOCCUTTji\r\nXLs4iKtqOEJKzDeklBA4unLEN3ONmzdDoAo4XqaDOGrwLDgQc4Y3ubufOLZkGTha3KQ4VKYoOMtn\r\nEDjUlMg3rbLRN21bBTieFTU4BsrJN2xeAjg+hLs3zy6iOK7d9Dcg3Qs4QabSOGhHADhQ+Lo3SAIO\r\nOP1qIzgZvjk4oXlKOLavujfblyY4g/CxN0cZsTfQuaw38yeSOMSiNzgkxfo3olhQOO4jBzhlV/o3\r\nVkXmN9DrBDiW+xA4c3NJODbXJziYU3k4VjgoOIIzCzjgP1M4eB5cN3oFATiscNs3RvbfN+HIuTe3\r\ns4Q3wlezN8n5LDcMkmk41H4AOBAZQzgEVww46yLFNybKHzho9+A3WOU0OAnJEzhbef43CqTVN67Z\r\n6zf6RqI3Sum/N2XxRjjjreU3hAQSODdN1TcrbDc4ww3MN70A1zcapA04kFTsN9VG3Df3K4g3WAvN\r\nN43fQzfVr+438icFOFejojcomFI3N2bDN+DT1jdzmBQ4f07zN6AOQTh0bpQ3TKQGOJe70TdU4ko4\r\nHS5rOL2SFjh9Re43Bzz1N+0izTdVq1k4eBetNxiBmjeofpA4elz/N/vt7jewoAY4/AWCNyr3IDhR\r\nZuY3je3aN6bLCjgwKdA3Ar6FN4Merjdu2qE3ATbKN87XvzfubL43ufmQN+wJIThRS0E40vupNwot\r\nXDd22ak3We5VN1GAhzflaPU3dhugN7T0Ozf34so3IOjzN752pDeT3bE37suyNwaIvjf4sC84aH8g\r\nOAMPrjeRAK83v0bCN2QPjjeI5Zc3pJZIOFrcvjcyfeE3qxpiOKbUdTcTGgc4u+uHNzSC3TeW3cs3\r\ngoz8Nx6RxzcYlOE35BXvN5WqwDdTizY41rzEN3wqpDfgmmA3z8L2N24faTeuFSE4r+NdN0SlBjgh\r\nl6432EuHONDmATjS8M8322jCN881mDeZtYg3+kwwOBhZFTgOSaY3PC2CN7Cw5jdUmbU3QjoPOCfW\r\nmzcxLg84WAV1N2dSuDcut5A3Z3ZsOCj6SjcDshc4AqfrN/3sfjcsfK83hUHGNyyPjzd7Gq83Ke7K\r\nN7tO1TdOgZU37pCHN87p/zfrkYI4WFbXN5m+pzccm0o48D88OLiSCjh7KIo3ha0QOFl7pDcpj+U3\r\n62toNxJiBTjIS+E3NjLmN0NO5jdohRU4xsbZN1+uozeogZU3/tMtOAbV6zdQ1Hs4Lm/KN2IvdDf4\r\n8rM3Gh0aOPGRQDhXPhY4APjTN162BjiRQxs4QJWxN9Z5Kjh0SYA3yoNYOC6dgzefmkE3xFiVN7C1\r\nsDfiMXk3WumBN8r6ljcu4sM3R4gVOBzZ+zenrfk3zes3OIhgejeMlfY3Wng4N/Su5ze7p4o30s6i\r\nNwJGJDijGPE3jjA3OA3Z8zcP9t8355rJN5bUmTcvc7s3Y6qXN8cByTfowb83GOwQOPh7zDdlWwM4\r\nnnx+N7F0hTdsqHk3C2IbOAZiKDjG1BA4Fn+MNzP9AzgEC7Q3H/n5N+B+RTdMw/k3m/DFN3Vdwzcv\r\n6d03O24LOBdkxDesCR448A3/N5CBBzhw9983RpSQNxjBpDcsgaI3uAeONzHJBTjPss03K6f+N8tz\r\n3zeU7EA42DnCN7AZDTja6jY4baGXN4FfdzfuKag3syz/NyoGHjc+i1A3ZBnYNnOwHjgMW7E3m15L\r\nOCk3pjc7Vg04pljKN5cK6zfjqtI3j23INyrvEThLnBk4LvGlN9xthjc4rsw3VSgKOABEjTekHcY3\r\nYhF6N/Dy4TdREPE3gDzON1VkFzgkdQQ4mDNAOHAFrjd1IAM4fNVpN35WkjfMEfs3BompN57b+jem\r\nhKM3dYmTN4cBjzeX6Y03uuK+N/MiyDeD/aM3dQZcODYv0jf8Z4U3p26bNxWX2Tc2CR04RtXTN57u\r\n9TeEcmU3d/2fN5fdEjdYm7k3EeNYN6lrmTdJ5cY3fJKIN1LERDcFloE3+wvUN9DT9DeoQ8w353ju\r\nN+ktYDfWbL43+SIJOMVVLzimVig4jbekN5Drtjfmps43wmCxN04k9zczdps3uXqVN3S2lzd43A84\r\n0WZTN7e3HzfF0AA49jacNxhRfjescP42eZwkN5pfGjdFdpU2nJGANoBcxDXmwL41gUYONn63vzb8\r\nGFY2egPKNjDMNzVdQpc2zI47Nl9eUDdCjMc3dqNrN5zn4TY6htU1lLNqNa3bTTWRM2s2ols9NvK2\r\nTTYwCRM2kacHNwUHQzfZmbQ2Nl4TN96EoDZ+Wlw2OqSTNWV2lTahEJ41QTuENj69qjXuR7E1xtof\r\nNfsgzjUCt6I1v7fKNs9XSDa7RHM23sFYNdimUjeEtTo3YwBrN0ORkDb9L2I2ixZpNqs5ADcMcRg3\r\nlxMmNiDTBDaPHhE2MBGNNrKOPDbUbnM2QXR2NljgXDZqnlk3PHOXN400kDY52YE1AdRENjl3DjU7\r\n1OM0bQcVNZiuyTUKdNA09y8RNWWtHDUwUmg1ODTWNJAz1TQ0Dfk0E/B7NfdQGjV1jeI0EewJNaZO\r\nuTSKZio07QAyNXgTmTR0iAw1ohwSNSoXAjXzWtQ0fDr6NL4smzT9OOU0bmDXNEh15DQqgfg0AL/T\r\nNKS2FzXJgJ80NjTWNJl7NjV2MvE0pQwBNRvWtzTUPqA0Bv3JNBatSTUEHuc0ZEWjNDFzADWZZCU1\r\ngrVBNMxcCjVcixQ16h3kNHrLADU6Ed80MFHhNJGmGjXUe+80Wav7NA6wTDSDiOo0VwVpNLM9hTS8\r\n0100RBotNeAY1jSFRJg0nGzhNOY8qzQpqHA0cBuKNTTfvTRCdxo1ANYcNffYOTVpFYc123OwNCLJ\r\npTRQcqQ0wm0oNa1cVDUFU7w0MO4BNWJD8TTSVyc1LSSpNLp0HjX27vw0t1PjNJW4DzUjnDg1tz/L\r\nNKl22TSzLME0LWE/NV2+yTSlu740v23nNHHYAzVqpa40lNDlNLIM9jSUDOI0yni9NL4a1jQJqZc0\r\nwa0SNQjl1zSP35A0TMgDNQAfxjQg1OE0897DNCV9szRx2ro011p/NE5xkjTDAOY0eJG7NBlh4DT+\r\nYQo1JBXaNDKKeDXGIMc0BsK9NPBeBDVeEgo1EOe8NNOvojSbbDk1w0acNMp04jQOP4o0H+oFNWki\r\n3zSz9Gg0/QIqNQjejjQn4ZE0+UaSNMP1hTTfLGQ0d8CMNI7BjTQMRCw1aCuxNNu3CDWTPK40nk9h\r\nNE7DkDSwp7E0gIkHNYy4CDUI2Fs0xa3ENFFcKjUCO7k0YH3kNCtlhDSj+Io0+lcoNQQapzTO0t00\r\n1i5yNOfD9jTqNL40BHceNEPnxDSKdek0fJ2iNKinmTSWt/c0gpQxNR4MgzTHqFc16on5NEjgBzWc\r\nU4E07L6RNG1+vTQPu8Y0SiwfNSmnNjULB7w0pJboNI7CCjUe5JY0060aNdxPojR4ZgM1WlAhNUCN\r\n1TQHoio1MYMINUxxFTW9gBk1E0nENCZVrzRdagg1Xsb0NJQ1vjQfsUM1U6cCNXWGQzWPhA41pwnY\r\nNIjFzDQv0vU0dCpnNeF/DzXS0Ho0SPeiNF1TRTVwCjY1oBJLNcYkjzT4WBE1uy8WNefmEjUz4oc0\r\nDG0+NM27aDXP1RI1N/YENanPkjQU47o0GdMKNaPXoTTChes0p9zmNDH9nTTKDbI0KWXgNEj49DSk\r\necs0IWqQNGLw1jTEMwo1KWibND54lTTltaA03+fjNFpaxTQw7Qw1jcMINayZrTRwd8Q0SH7QNNRr\r\nxDQ0Ues0e2uiNGrn2DQQUfU0hKuSNJBieDSmHsM0OHnCNDECyTRaAZg1Sq4FNaxtLDRI9ZA0mxo0\r\nNW6CCDX2Rss0vhMTNYA5ATVefJY0ibAjNbbXLTUzTQE1GG8KNYY8MzU228k0tErfNMD8qzTgwhY1\r\nHMmNNCSAmzTva5U0aU3ANH/NpjSz0CI1wcYfNS0WnzSSTxw1W3SUNEzegzRINpc0SOoyNWPu2TR8\r\nEQ00ouTgNC/MgjSGvzs1g1I8NCnWjTTKywQ1RQWjNKZ4pDQ1aYo0P24FNaQlETW9Fao06U7+NJCC\r\nnjQOICs1Dr0MNdSQxzSe3DQ0MdQhNZBn0jSZSVM0K2ExNXiNjzUMxZs03TYfNWBptjQusZY0GnYZ\r\nNUYJ/TSwU580sH+UNJq6nTSyQJQ0vBLUNF6/yDRD1Zo0YkIDNY2snDT86fA0UEXTNOwdpDRQAVI1\r\nSBqkNHJsrTRwYSw11jcsNeSzODWc5w01jhDUNMqHwDTsaPQ0wiQdNa6DhDRIBoY0LFU3NVXBUTV0\r\ns5g0TXMrNJbEkDS2U+U0zKBvNO92BTXOrPU0WdbyNKl49jRFUaU0b4W5NHjn5zTNQok0F/W6NG/P\r\nMDX28AQ1amLqNJvnhzRs8w41fUzLNHcrgDT3fJc02EgpNe634DSZxM001m2DNNs+DjVlyQs1eQgt\r\nNZJhijQfzcs0Ej+vNEc2mjUM1Yo0aXu5NMvU2jTCMkc08+XENMe83zR+rLU0AACiNA==",
                            "noiseTrainingType" : "default"
                          }
                        },
                        {
                          "effectName" : "WinCompression",
                          "category" : "categoryAudioEffects",
                          "parameters" : {
                            "attack" : 0.0,
                            "gain" : 9.0,
                            "preset" : 1,
                            "ratio" : 10.0,
                            "release" : 3500.0,
                            "threshold" : -20.0
                          }
                        }
                    ],
                    "start" : 20166,
                    "duration" : 1793,
                    "mediaStart" : 0,
                    "mediaDuration" : 1793,
                    "scalar" : 1,
                    "metadata" : {
                      "WinSubProjectDisplayName" : "",
                      "clipSpeedAttribute" : false
                    },
                    "animationTracks" : {

                    }
                  },
                  {
                    "id" : 105,
                    "_type" : "AMFile",
                    "src" : 17,
                    "trackNumber" : 0,
                    "attributes" : {
                      "ident" : "Narration_fracture-2-czm-element 13",
                      "sampleRate" : 44100,
                      "bitDepth" : 16,
                      "gain" : 1.0,
                      "mixToMono" : false
                    },
                      "channelNumber" : "0,1",
                    "effects" : [
                        {
                          "effectName" : "NoiseReduction",
                          "category" : "categoryAudioEffects",
                          "parameters" : {
                            "denoiserAmount" : 20.0,
                            "denoiserThreshold" : 0.0,
                            "noiseProfile" : "cP5YQJTjOj4rEfc9/rCgPTqxpD28vhM+ZSu3PWNb8D1gT+o9C+RIPZqDxj3F0Aw9Do33PJxnVTxf\r\nH5c8+WSHPPw2PDxs1Ls8h5QOPIRl1zxmHRI8zTaAPKZeKzym3Ig8OtCuPEbY0ju7qk48ffq/OzJ0\r\nOzz5hko7v8JAPIzfVDuCjlA78TL9Ok5f4DplSBM79/QPO62t3DqMeRw7l6msOhyDcjsR8wQ7BhyJ\r\nOxgahTq1Ulg6LK8FO0+f0ToAGSo7GVjpOn3sYzqaPl06yHvvOnqkLToSLjA6xhWmOlSsmTrrM5c6\r\niOQdOmi2pDmWYMs6ySQHOp0ncjrM5D86KC3WOlgOzjm4RVk6AgzZOnSMETpnLLg6QctlOnoUnTmC\r\nobo6hEJxOuwbjTpCuBE7djMzOzBWFzvaHgI7OjNaOsQthTqCEGQ7w7rZO4rzuDuxMR489AISPOVi\r\ngTveNi07ji+tOx64RTt6sdo7rqkSPF7k0Tr9PYM7+2sfO6TjBztbwKo7NnefOpq8uDr4LYw6jsOo\r\nOkmWJzrsMwE6lcdBOl98mDosnnM66objOpZgJDkUhPw5vmAGO9DYijl7UJY5aQBOO3RL6DpCMpE7\r\nFmmIOpXh2TpU8Jg6sKZfO0z+ATrMmhM6BJMkOgy3DjryQIc5rZq+OaS4ejmcXJY5A2sROnBr+DlS\r\nRbs5m212OTLiNTp+XaQ5skPTOYFEODrUKJk5S13vOYJrqzkohb858lYKOhgabjlRnrY5jD72OX86\r\nIzmPc9w5csCKOSclWzq23os5SPPQOUkvfTnrms059h0sOmx3azmsScU5InzGOeawSjnQssw56RXM\r\nOYwiBzrs9Ks5VPWYOSTFlDnCKSQ4E5b/OSqztjkHj2g6C1ebOaMVbzpYDyE6S7WJOcxBWjncppg5\r\nexPXOPZWrzkNY3U5wuGRObLZCDl645w40FX9OHgdNzllqIM5iqXEOCKRBTk0rAU5jhd6Oezlozmb\r\ncmo5sWXROD09XTlSBpE4qBPDOZYoxzhK1UQ5Lj4qOdjLBzifWxo59QAmOQrFmjgg61M5u1hOOSa6\r\n9TioZg85MsuQOHv/VTihsiY4if0pOTWoWDnsIB0548hrOe6u1ziD9zQ50SP1OBN4YzikqTE4wCMX\r\nOeY4IzmhRec4YZY2OGgBwDgwsss4vU5+OCUBhDmiObM3Y9+GOOK5gDhW1lM4vwGuOIEH0DiVg344\r\nRNw6OLrLZDiER5w4ZfUJOYIxYThbRC44LASBOIQONzmxyo04mZ8EOBtlLzg/GQ45+e/IORd7Djiz\r\nwRc59TetOG7P8jh62484QDuKOECoAznYKOY4pHHeOB8wYDjROGk4CyCAOOGnHznCAAA4/MkYOSa2\r\nGjgHwoI4o7NFOKfRAziewqU43t+6OJjk1jeWtbw3UvojOCIRkzeizfo3TAkhOCLT5Dd207E3di4B\r\nOChT0zdQnQ44BvZIOKBofziKsOE3VPCDN5Q1ATiFgnw4o0njNwaABDj4lAU4TvVaOCw6Ijhftuk3\r\n35TGN9cytzfvzaY3vpzfNwJ1lzddGE84fvoZOBA4GTjAQC84cKCwNxrUMTiKxgc4KLi3N1hXYTj3\r\nNtE30ehlOJfeQjjj0pU35inAN2A7gDde4mk4py+MN3j9+zd006U3Se3LN3pFKzhcolw3yWEpON+z\r\nIDg+PNY3gv0aOG1q4jhloPo3mgKaN2DOlTe/NuM35QLEN5/o3jcmqv83nQHHNy76/Dc4Psc3t7xF\r\nOKjkEzhe+LI35r/7N4aR4jfk1P03XLQpOFpT9TetPsg3YFf8NzZ5AzhsrWE4ttahOKnLGjjsnR84\r\nKvJoN/p+EjhMkaM3t/XMN3TlazjvUxI4eBb9NxjGSjdg7BU4IusQOBj++DemlWk4i3kvOKgSTjfL\r\n2ws4V/UxONY53jc87+M3yroIOK5YaThpxqY3nECAOFqm2TeRDJY3CL3nN0+7QjdOwwg4JTmnN7dU\r\n+je95mg415xoOFPT+Dd50603rd47OAHpDTiVX+c3QBbnN9bFVzjVY6k3Tk/2NxbI8DeEkKQ3XQED\r\nOOXoqjdmfMo3Ku6vN7pCyTfQaC44qXhZOGLAAzg0YjY4xvWzNxyJGji6T0c3cEP3N1BQqTiwhgs4\r\naRLwN5kpxzcHNhQ40JeKN2ByEjh977s3TRevN/KvLDiFaJs3twGtN46nkzfOngM49UQ5OAApDDg8\r\nK8s3cncrOHBxxDcUqtM3cB4XOKhY8zemorM3tIvPN/iwtzcNXFE4TI8aONCz8DeP0uc3GB4IOK1q\r\ntTe6mSM4bU60N2wXZjhA0eU3W8u5NzCVLjhs1cY37g2qN3KfaTeD+ig4oc4GOKlQWzc118835K+d\r\nNwoDgzitYh4497kFOH57yzdFMdA32apXOCoazjemALs3lPS5N3hH0jcIEyE46DovOMXi7zdqKAM4\r\n5FegN8aClzedxMA3YRsIONYeiDdCuV44WHckOMebIzdkfwk4bRLmN+joLDekdYA4NKW1N+aTDjiX\r\n+7A3U0WKOIFnIThu++43GIKONyvlBTiCxI833AgNOMlbMThPsko4s8xqN+/n3jdOYRg4MH7XN6We\r\nCzjxqZo3CziJN0bU4zcEF1c4xycxOOuFETgBlG83YtD7N+rK5zcP8YI3RKHTN4QTQjjlD9g3W3jx\r\nNzgf8ze1ZHk3+a2SN67SjjdyM6g3lRLDNwoTDzh8gyg4QKBHOKHUFjicFeE3TuqgN/F3dzgA1JE3\r\njBapNyOdhjf6N+k3STkDOFHYmDe3j1g3y5GpN7fX5jfgIMU3XMS+N13ZVDclr7w3mpvsNyh4xTc/\r\nNNc3jBmbN3qoiDdoPs83QtLKN2AbJDgtqq03n6xrN9aEEzf3+6g3N7wPOIiLjTdrS6I3+K75N+mP\r\njzfyRsw3dGvjN8StHTiT/YQ32R3XN4aNlDeMKUE4StEGOCIaujfGjPw3I7YLODRzozdrHZg3CPCE\r\nN7yJizdaGZ43fFCBN2HssTdqnJA4s+wLOK4kyjds0rk3YNyxNy0sYjdwsgg4zxSmNxtqvTduR8A3\r\nXoWaNwQ9rjeZl883NEr2N+rgjzejk8o3990dONwVPDZH4Lo1JiFgNblIwTXLY6E1lEbDNUtbDzVN\r\n51E1OBR9NR6hfDWhoCM1b91ANda8PzVgV6I1AhyINSNmrDWvTJ01MusnNTjaSDV22VE1XO8SNSsZ\r\nMjbmtTs1pRyxNZ683TR8qJY1jMxmNfotQDVcF400Q1BjNUyRjTVi45c1O/CTNbAluTSEd9g02tZr\r\nNbDN1jRUikM1UvymNZOONzXwK+E0gxGLNXzYSzX+qNo1je5dNQrEfjV4pTY1bdLUNBEBQTUwjgQ1\r\nI/RMNTqbDjUkPMY06BRuNNqyIzWK05A1fPCYNSBpkzXq4LA1JikINX19fTVsbZ41ToQ2NXlvhDQN\r\nPH41Blg+NTF/jDWWQ8Q0gMl3NUwhGTVB+x81TrYGNX4iZjUUbvE07DkaNTV/YjWen4w1hZAQNULc\r\nDDXa+j41XjQdNbbAozXEhkg1phyyNb7lIzX6gag1hKwaNVAvJDX8+C01ImK4NTBIKjW2K2Y12e5j\r\nNXiQoDUsRDk1vU4MNRkRlDThz3Q1jNFTNc6MpzVrF4Y1lkddNUiNzzRa2Tg1RIZ9NVAPETUc+7w1\r\nefHyNDHlvTQbRyI1BshSNaxfqzXBZwc1s/NANQumKDVMp6Y1oRR8NYbezzXXFgA18X8vNbbeqjW4\r\nupU0GlpJNVTHoDUEz2U1a32KNeFhKTVC93U1BJd/NSmRjzXxWH41SBCyNHxXmjVI/Kw1mNFJNbf5\r\nsDWX7xY1NTy5NM5YPjXBtoU1qbQhNYtbEDVlE+k0XA9sNeJ4nTWExxE1/N9ENf03WTU9EyQ1SZwl\r\nNSAt4TSvtYs1V9BaNdckczWGphg1LNNYNRp7iDW2aSg1NA7rNNLpnTXbSDc1b86PNRmwPDVvCjI1\r\n8nopNaGsmjT1Qxs1kmsbNanKijUkY/k0hNvSNLoRMDU3G6s13Sz+NC5cdTVeuZM1OKUdNQg56TSJ\r\nHqQ1FxMtNWE8ZzU//0s1CBAqNWx1EjXWIUk16TCtNSb9FzW6q7k1XDgyNRmF0DSHtAw1KK0/NXj5\r\nxzQ7nt41NzYHNTcCZDWVqIA1tJ7YNKY72DSBYps1zAURNUx6zTTQXfQ0RALsNNbxVTW6zgs2sCcU\r\nNabL7TXxOIk1luUSNXwgHjWfitE0mGkJNczpVzXs0eE0To20NQnUGzUVnmM12PoJNdBI+TRY5C81\r\nGlkxNX0zzDQ5/ps1UpRUNeyp+zTw3XE1ANDhNAnTgzSCnB01RsMQNaJQLjXN1/80zfJWNfcCpzW5\r\nv6Y15gL3NExuqjRGUHc1tCEoNW3d7TSISso0XCK+NA0PCDU/Ogw1+3uBNc/JJjVi2EQ08xtZNVq4\r\nOjXHWWU1MEVmNdNsiDVPkcY018mkNICTLTV6GBY1SyokNaLSBjXTkGk13kwRNZWLYDURDQ81dgFo\r\nNdTNpjTxLhc19E8qNbtdODUUIhM1kJG0NDfEuDRLdr81UMJzNTQm/zQKbU418UAENT3xMDUAAy81\r\nEofFNMh/0TTxW7M0kSQoNbkTLDXz3Yw1d/EdNWFPTTV5fpU1V8GMNeCzBjWkBSg1O+qVNFZnrDVt\r\npxk1iMh5NboFDzU0OBo1a3HVND8XszRigPE0pQCNNMwHTDXb4Ro1KKASNTgbiDVWrfc0SSyPNf3r\r\nFTXVx5U1+m+kNG4dBTWK2lU1bFDdNZxg1TTswUI1u84VNdCZhTTcfMA0YTjENVsZFDXVk5k0jXu+\r\nNB7QsTSZ5PQ05ssbNcdVMTWUEnI1fFMWNcCzyjSEu8E0J6udNTDckzVgWvY01Pq9NEHQwjSayxA1\r\n9L7NNO5oCjWjUU8182IFNZcf5zSJEQo1Dn5hNRzjRjUbV840uHMiNUA1QzXN5lQ1/R4HNb/BTDWF\r\n8Fw1a6AENYmRjTUopUE1JfY3NQj37DQcdgs1ahUuNTa4fTQUR+g0/AzaNbJl3TTrkpo1f0E0NVlA\r\nBDWfkdE0JI2vNV3cBzUWlh01ADhiNRZemTQUya00mDJ4Ne1pUTXmi0M1mxNGNet2XDUxylw1FogG\r\nNgzaBDUFZx01pL23NJ40PDWj+SA1cLsdNVk5NjXJKdo07oUXNaz7QjUpl8001MYqNUiSETVFckE1\r\nHd36NMRu2jT0lCg1V/08NYW6ujR8HAo1H/W5NMBOajXhA780qkm+NJJnzjQ0LMo0JgReNQ624DTb\r\n24o0apBQNVSxKDWuRJc1rOxLNYzdXTXHUg41Dvi8NL6KoDXS7u40NMkdNUpNzjRb5WM1Tc3uNA7z\r\nMDUytLQ1k0oaNfSroDX8HA01QPUhNfdRtjT7ZQ01lDRzNeClEjUX67k0+q6VNOWKqDQmdh01l3gf\r\nNZq9GzUGAyI1StsDNc5sEjVspGA1Ay4jNfv1AzW0sd80aAuaNT0GPTXrvww1iqf7NABAcDUFelNA\r\nJw8lPs3ZAz2lTYU8woIlPCbErzsUZ4U7GZs0OzM/oDqkiZg6aDzJOkXFfjqSoTQ6E++JOt6CCjpb\r\nX4U6TRHSOZZWmzrJMxY6Jy86Omg31zmCk6E5dkAWOUaRjjnoA4w5UZ5EOcvHSTkyO305ULy0OaPg\r\n3jhTK+g5ShkVOeJrUDkENV05gJlEOIRmvzl8z1w5XqPjOBZHhDnOa/c4LhlAOYtRvjhia7k4kDS9\r\nOOAOyDhxBvU4XuhmOTNpEjmaPg05fo4pOVD6xzgAIig5QsToOJvk1jgw7QA5COT6OIeTsTmTa/U4\r\n5M4vOScSMDgGX6I4ppO2OA+JzThubZA4VrwWOTXYpTifn9Q4InhlOdwG1TjX6P843+KmOIv0LDnO\r\nfRc5oY84OL+G2Dii17w41BhbOfJ52jhp3os4zxaXOH5wXTjRfbc4u4YeOQ2TFDkQHyQ5sluwOCrd\r\niDl2YiA5t+KROUXbIzky7Yc51AjMOazz9TkYYIE5l5KBOe7gXTliikQ51b/hOO7AvDg6jAY5lLYE\r\nOWg+9jj1p6847B3SOHhSdzhiMMc4jdjlN7pbxzjumX84XTogONqQEznLB0I4IojFN9nohDiLOcM4\r\nKqVtOH6mADidqDM4LA4cOEGuYDjmto44cZOFOPd3ADjqjEc4EE/BOBEGfTh475A4l3WCOL81lThj\r\nxXs4YvkfOA4jMzi4BFU4Adw5OIo0oDhNgLY4o2HMOIkRXzjQcpI4rMyoOETNJThzJgY5VasXOM2O\r\nOziZKok4JDxyOG0dqjjcZEc4yBiEOB4NuTgkGKs4e7tGOF+P9Tc8i904pVFOOFXQJDjYiLo4otur\r\nOEIegjj+7Gw407GWOCB+lTjqlMQ4KuElOC22ZDhhHyg46dgJOWVdkzjSzXI4F43tN9pkbjhQvZk4\r\n6nJFOEYcXDika8s3JEgTOLLuDThgS+Q3ppdDOLlGsTj9A7U49Oh5OBrhgjgznlQ44XR4OJeSpTgf\r\nbmQ499ydOKZqXji23T84b5z7N0CdNjh5dDE4RM24OHePFzgiCdU3iSkPOHE/RTg/wRQ4L1xHOJAR\r\nFTj2+ys4KX+1NwcRsTf+KI84aCDIN30SrDc5soo37fpdOJngnDetuuo3bXfHNyT20TeNTjo4640t\r\nOH/47zc/fB44r4yiN+jB8DdycBY4PFmXN9QpAjguSRs4Pk67OHI1TTjrZCI47KdFOOGZ6jdB5s03\r\nxyemNwhiLDjNZgc4OnITOAL4BjhEkg04+4ZdOGkA3jeijjM4/w7qN3mwBTgf7xE4q+2DOFvqGjj6\r\ndRw4ahLEN/3FDjgb2gg48Fe6NxniVTgI+Ao48o8+OOrB3DdmYfA3Kqn0N/ggKzj/3a83C6UQOILx\r\n0Tcrj7Y3HGQWOHdMbTckaKs3l+tGOK5OCjjMLF44bWhMOGg2CTizVEU4IY0GOO3ejzdRlhM4s9rr\r\nN2NNcTgJ6bI3/odcOCj36Df0RBw4iKvqN5h0mzcsSbY3oE5lOAP0Izgg3zE4GnkNOH/kNDfyvbs3\r\nLpjQN2Yn4DdDoCM4szXhN0JQsTeRhLY3zfz1NynfDTj5vgE4KTRsNzVZTDgiDN833vXLN6i7QDgt\r\nLlg46ah+OE67STcKD/A3sfeVN67F9zcLkio46dTaN+BN7jcJy4E3Ki0ROEgy2jdEHMw3mYsROIGA\r\n2TfRlvQ3KTYtOGJsADgY8GE35nBNOFO8NjhYINU3ePW8N3QbQjhKLa03/YwAODIAkDf//Ak3XdQd\r\nOEcj6zdBhvo3fvbIN36Q1jdllTM4PuuCOABrDDjaB883MgAgOKKWPzhalE03+vS5N9HFpjdUKNU3\r\nL5XRN87bvzfH5Qs41Rs+N15nyDdK5683zmvNNytuhDh8Caw3tH3fN/ZlpTdMRE041rzPN817kDeI\r\n5Ts4fm6fN9ho+jfcpnk33tICONw7Pjh76Kg3PJU5NyCfITeVNwg4HV5fNyACszci4qk3UDL5N4U1\r\n3DcjtJg3a2QeOPuYvDeQb0E44/KYN9zszTfTsbI3ij+0NzJspTfdecQ3bJnoN0QR1zdIvsY3yPHo\r\nNxJcDzisltg3qr9rNyQMujdK4244ChjeNwSL2DdabK03XEOON/qY+ze9Ar43r3ORN0yfgzdiZXg3\r\ns6TBNy2zvjf8xVU3Q0gpN1XEJjgIm/U3SaEgON1qSjhGeJc3c+cLOKtdrDf/9ds3IVZYN+pc1Ddj\r\n/6k38gnMN7ylxDcejgg4Os/xN5EBtzdPus43us48ON7PIjhGAw44lAviN/326DcI25E3DLo4OPpR\r\nATgouV83zC9nN0YbpTd6I7A3N/rbN5R+3TcEl7g3FPV/N5m3Yze1By842Y0pOG7TMjijL5A33IKv\r\nNxoeEzjcFtY3c8yWN6DOjzekAi041Le2N9RIsjfWUL43PmKMN/SM5DddpPY3CvPUNgAmXDeSUwI4\r\nvCKyN4ybGzia0nA3UhNaOHKukTcpSQc4itrHNybkpzcujyA41debNx8WATjfVtc3MNi/N37Ukjel\r\nCek3jNugNzXFmjfJWpg3oR2lNwXJtzcKsoQ3dAHbN9DUmjfdIfs3d1hwN8EiWTc0QgI4TN6COJiD\r\nsDdcR703Gpe0N2ktNDd0jJ03mChQN5Fyuzf80+A3OaLNN2pNuDeL0jU3aIZ4OO+GFjju3BY49sef\r\nN5CsEDjW5lw3vIDNN875nTeXwrA3/Ml8N3p2AzjiWy44Cr8AOHmLxTemar83sCTSNwByCTgxgRo4\r\nQ/wIOFAPBjj3AaQ3ntpIN/atkzeAisg3HPaHN9Dt6DfRqCA4rp1bN3PLqDdrIW43JY9bN9KB7jdT\r\nzOQ3bGzBN1XaAThk7YM3B5hhN3U4kDcrgv03SsdjN/ODnTfzezs38TcjOH3XqjexAL43nkWrOLSR\r\nDTjfmpA3buVgN+qvPzdIlAE39ImxN8OAIzikX5k3tXFBOJl+YDh0bCk3eSflNw8rhTcQLNo3Sm2B\r\nN1a81DfWm8k3i8QhOIjCBzhaWDE4fPMVOFuqgzeBYZo3Hpo0Nx/hHTiZwNY3e6VuNxoHYTe8R/U3\r\n4AtpN+W58TeoDM43xpHfN6tjDjjfD1U3SuwBNpVrlDXG9kE1oPqTNXrh/zRUep41WkevNASBfjV/\r\nV8Y0S9BWNW5EuTS8U1Q1/KIZNWSjiDVvAFI1jiNSNQUXwDSJ+Cc1ptn9NLxxnDT65/o05aUrNSIh\r\nFjX1YTY1RJA5NRoOsDTl/A41Xc4yNZGg8TQ7uQY1oKMhNVpvmDWel7c0hoTrNMgyzjQylSw1pcgZ\r\nNYmAAjW6R1Q1ZEEnNejklDRbgFc0GNwGNdFeEDUgQc80oA45NStuPzUBlC012hQNNdJ4OjVmOk01\r\nyx81Nf4b6DSFTyY1dqUBNXrkIjVijHo1VKlNNf1NOTVq7E81ub7QNO9IzzRTDik1i9FWNWSyBTVp\r\nLVI1ZbbzNCjgFjW+3ww1fwcVNZG+KTUQGIw14L42NVJrPzXib5c0FhnwNERZ0DR4Hvc0SJUHNa3c\r\nijU71eU0TC12NRwKtDTQ65g01PTENN3ySTWxg7s00KcJNS5+yzTg80Q1JtF/NKcyIDWVxcc0PQqx\r\nNDo4PjUNuUc1b82lNf9zZTQwE2c18OMvNQAlpDQEMA418sanNMzdBTWIURw1tgqoNMFGlTT99rI0\r\ng6dsNGFDCTUOjBE1shwJNWWaNzXBEzc1qMJONRpPITXzqPs0sc3KNChA4DQeEZg0nSQjNS9TkzWJ\r\n1900OXM4NTICzDRAd980GuEBNXX+LjQaRiY113b9NAxXNDUdDiM1ibWNNCsM4TQEweA0GQkSNVE3\r\nwjQWHSY1FWd+NLDh2DQ8Rys10pkxNYypjTTuCcM04tPeNMJ3zTSWkxw1LP3LNCyA5DTsADA17bwZ\r\nNcJH2jRlcBY1MBIGNb7fjzTI34U1oCpVNXMLNDUpsk81dHqWNYfVeDX3BYY1CgSrNMgE0TTMxz41\r\n3GcsNXRW4zTPT680to0hNfaglTU+Ecs0WErONB14qzRJnhc1afwfNaZzaDT/S8I0YGB3NFa2+jRF\r\n6dg0LvO2NEM8eTWtKPQ0CRemNPqXGTUUEus0H3FnNCL56DTUr5c0AoDZNCnB9jQAJMs05K+2NXrh\r\nBTXKpDs1fCHTNGZO5jQ1XNQ0taLfNFAHEzVrIAY1Zv8lNSrZMjUsLdQ0PQ+ANBK01zQ2CtQ0N5+Z\r\nNQgLEjUy5+c0xjbvNLDVFjWceRw1VfxwNZWpFjWI4DI1CUe7NPp88zS0q780BAANNd4d6zS0L6I0\r\ntpHVNBqJtTVqogI1A+hjNT566zToX5U00IsDNdMjFDUBcwE1d8UzNA4pWzS49SE1MOH5NNzxDjWc\r\n7J80ZocENeMkGjX2+cM0+2q+NJbv9TSSISY1CBE1NV/SpTSCXH01bu3JNBE8GTUsQAY1mXY3NYZf\r\nxzSCjCU1f8gZNdXhtTSceSk1ZCP7NF7lqjRYFwY1JKaWNDsG/DThXIE0U4UoNZFo9DT1Ngo1na7M\r\nNGh1GzV0u/8063RINYPLWTTx5ww1uRjvNGtJIDXV1io1NaaQNB5ZujR/TGA1EFPrNFAGGTV3e380\r\ndfKWNVR2ZTRX/Ig1sL/INOsDeTQ7xTY1mqTONC7FszSBKdM0SMz7NLYwHjWgA5c0pI4dNaVH7jQb\r\nZZk0yG6eNMgfRjX44/Q05vPxNFX3KDXRUNM0HF1uNbgvIzV8u+s0AgrpNMId7zQHK0U1umMaNU6x\r\ndjXdgbw01qiUNfO2AjUdvx81vVwlNWn0uTTELzw0VzO+NB3ipTTOqSU1oD7ANKTCEzXXB780aXKu\r\nNB4TVTQ879c0hOV6NLGJqDSRkN80djUyNXJNRDWGHow0hVa8NMsoADWMQCw1tgaBNDX/+jQysmI0\r\nxo0GNdNjGzUWTEk0EEQnNXkOJzVo84Y1jgYwNVEPlTTlXqI0I2lZNSZVFzU3NX41G6LQNPC2pjTd\r\nxxc1dJ8ONapDaTTadBc1pJsfNUBqJjUo2zc1/2gTNaZxCzVdfIc0GPgNNeokcDXgDyI1W3MPNQVz\r\nMzWyQtA0ULN5NYm4oDRIGIw0IqOINfj2PzU6B0w13oVtNL6PsDSGsaI0P9BRNYWXBTUcVjs0P/AM\r\nNQBMLzWOVic14cf+NAglCDVG5yo1VaLRNEwT9zQWSVo0HDgyNUPIrTSBaZ40r9MDNYkeoDQQaIg0\r\nWFECNTC3kTQr9QE1QhwHNRRALDWXVhg1UHjfNNMUojRMAI00IbiHNNRG/TQMgJQ0unSnNLU2kzQU\r\nEA41jGXhNChfFjWo4Qc1S8oONWT1kTSYYqM0M5y7NNC+hzS1u1E0yz8ENVbUizRUYEo11jPhNLC0\r\nnTSd7fY0/3wWNeytujR7s9U0ymTkNAiWgDQ70QM1NpbVNPWF8jTqjc80hPAdNW1rAjWuTjY1hmgZ\r\nNQyEVzURqGA0pMkDNUA1FDV2edM0AkX0NLX7aTSE7CU1b/sSNf9J6DTsgAU1AACiNA==",
                            "noiseTrainingType" : "default"
                          }
                        },
                        {
                          "effectName" : "WinCompression",
                          "category" : "categoryAudioEffects",
                          "parameters" : {
                            "attack" : 0.0,
                            "gain" : 9.0,
                            "preset" : 1,
                            "ratio" : 10.0,
                            "release" : 3500.0,
                            "threshold" : -20.0
                          }
                        }
                    ],
                    "start" : 21959,
                    "duration" : 1343,
                    "mediaStart" : 0,
                    "mediaDuration" : 1343,
                    "scalar" : 1,
                    "metadata" : {
                      "WinSubProjectDisplayName" : "",
                      "clipSpeedAttribute" : false
                    },
                    "animationTracks" : {

                    }
                  },
                  {
                    "id" : 106,
                    "_type" : "AMFile",
                    "src" : 18,
                    "trackNumber" : 0,
                    "attributes" : {
                      "ident" : "Narration_fracture-2-czm-element 14",
                      "sampleRate" : 44100,
                      "bitDepth" : 16,
                      "gain" : 1.0,
                      "mixToMono" : false
                    },
                      "channelNumber" : "0,1",
                    "effects" : [
                        {
                          "effectName" : "NoiseReduction",
                          "category" : "categoryAudioEffects",
                          "parameters" : {
                            "denoiserAmount" : 20.0,
                            "denoiserThreshold" : 0.0,
                            "noiseProfile" : "R2QxQUZ3yUHSG41BrxkBQvJeyEH7cp9Cj/w3Q0jfp0OrO09FbEOnRdtEAUQgxylD8sT/Q34PdEJ+\r\nqBxDK4sLRNtmPUQ6/IFFP8cNRViHA0V5LBBFQa8hRDMPJUPL0upBcEMoQ6H/B0JL9MJBdO8NQxCC\r\nlkLuCrpABALKQJOB+UD+UXFASh1YPwC86UDQKpFAc+QvQRpRAECQ269A/ZoiQbTK3D9Zg0s+5m2a\r\nP1bjRj+yiIg/N6ijPo49BD+XpxtA6reGP05wAz8WzrA+SBPrPwuYjT9Om3A/JzbKPzkvkECgeUw/\r\nn0NPP5VhWEDVs0tAZorlPjpk2z6hOL4/YBBJQA7cdD9K5Uo/Z9zjP2/DkT9treE+6CmfPhZgZD4n\r\nnic+K3B6PorvlT6+v8U+5fWrPtfQ2T3Uv5M/f0m6P3VSST+kPiw/7SCLPtclgz4Ls4M/lva4PzIo\r\npz7ga4JAFS0bQDd0qj3TzhE+/xbcPm6kAz/NZdg+EpxvPlL7ST/Qcfs+qN9gPrRg+D0MvxU/QBS6\r\nPoIrfT4PwH8+hn/WPdIRWj+aVUc/JXe9PpsVgz4mbJc+e/ImP/LYfj/sGsE+NFpdPmi/qT9PVBdA\r\nLOupP3WNEj/NC88+UlGEPmuA2T6ehRE/QZogP1iAFD/nlQ8/jKO4PsyGqD0PJRk9IuKiPoCEsj4T\r\nwKc+rk2PPmrQiD7q0tk98ipGPht5YD4s/z4+MWK1PTwfmT2AylY9EV6ePUHgyjzGMrY9zx5cPmpU\r\nCj51adI8TMi2PnZOsT5QLyk+kGRFPrPzAj/c3UM+49EGP31ZjT8O9CI+efLCPbsCNT6rMIA+2tYV\r\nPqsCTD3UqhE/AC+HP+W/hz5Qt2E+P8ppPihWTD0Xe7A9eCkmP0mu3z5sNEs+BTCMPUJZyz2OVug9\r\nuy/zPeUstz38FSE+RT3iPao+vj3fnS4+N5XRPeq6Fz76xbA97L89PrgKVzxBDo8++sqmPzQtCj7L\r\n7ho+cFUnPUvY/D0M0is+UY6VPQT4dj7Eoq09tQhlPjjwLT7+Jw4+1WedPYRvjz1oBzs9YheJPVwt\r\nuz2HWRk+TlmdPRCtgT5Tbo49YQgkPtD+1D3WiTo+4FWfPrQfzz6YGaA+cAQZPmjSiT0schg/bOAu\r\nPxRxzD7mJQ8/L1rwPhJRhD9UR0Q+Gew7PsxnLT94UBk+pedJPjFaDz7uqQc+4uhAPkIjHT3XMvM+\r\n1FYuP+xH7D4SZBI+Z2JjPs1+3j4mn/8+EMLcPr/Iez8ST3Y/RjceQPHCSz9WQ5Q/JeGRP85h4T88\r\ncZI++gJXP1iQBkDdY1o/xuySPnPyGz86AD4/EiWTPwaS0D/ZViM+TqYRPyWX0j6pbYE/ughHPwtu\r\ntz+y6xk/eA8HP8QVpD6cVLY+5XMmP2LXzz7mIWE+81GMPh/ZtD5w5QA+kke7P8PJ+z8njEY/sIJ6\r\nPs1xjD6k8R4/ZrtyP8tclD/BHsU+Mxv+PpHZ2T6hYeY+AGNLPjySxz68SYU+6lhQPvS7QT2qFU8+\r\nNuuQPj5Uiz4IMjk/lqfEPtBLMD7WMh8/1oWaPpSCSz6qlFU+/DaiPsRUbj8YQBg++l0pPR9bTT4u\r\nxEc++6xjPhg8Ij6yjok+GNU5P2gYiD7810k+OFGkPT7zOz4At3s97j3DPDcy+T0aL8U+nKRWPeZL\r\nkD2dzCQ+s1ZKPe0CTj534A89kN8nPT0rpj3O5Fw+3RQcPk+m+j1gaVI9Fd7cPbVDzj12Py8+LqYY\r\nP57k1j2IxGU+kr8JPZwl9TxWqGM+9mmPPeB4hT52amY93OjpPRx8Yj7FVvo91yiePbuSHT1E+CQ+\r\nPaTuPX5igz9P2g09CTAlPkCbuTxumqk90XGOPRsg9D6IdqI+m0gDPzXd2j4ir00/JhogPl59UD2g\r\nT+4+XoOgPu7Joz5QZgc/+sMXP6/CGT5cjME8CtgrPRccmD5oqKM9kSdFPhCshz7x2I89CM0mPk01\r\nCz6CBBc/ZG+HPzekij9Ggok+IWaTPchQ2j9yC1s/kK4EPi4oGT/WHCE+yvGPPiqPvT2MNK4+jKmy\r\nP6Jc5z7UeR4+329tPtusxT41dG0+s2YDPwzWdT7fSQs+LE6dPpqC5T5/aB0+egGqPR9mzD6kyI4+\r\nTsQgPxfnfT66ySM+9rioPgrfUT5419Q+7vyuPgZKMj5Iybo+Me09PslERj4Mtq09HAHbPa0//D5H\r\n4no+lrFKPU9r6DxKzKc92SysPRQXgj0AZSo+q1CBPltEXz4WaUg+jPtwPrwUbD1/ZbA+8M5nPZgO\r\noD2Sat89CaCvPdFOOD48Un0+tYwuPsIgzT4+6QA+7keHPrL2mz02iHw+sFygPCziET0nQ2A+sGz6\r\nPcAzOD4j+0499BTRPDUWJDyEPXg9pKHiPcaq1z7fhog+LiKcPbL9oj0jh6E9vFUEP35W3z3+las8\r\n2FOuPszGnD7Zfw8+kJT/PfrSAj1yhPI898EjPhBhrj7HWWQ+S6tHP1JuFz+S7ao9DnKqPc3mAj5m\r\n5KM+OI19PYotUz3ujeI9CbI9PUAcgz5PQD8+ibEPPnJz7zz4e5g81z7SPdAmCj58Fh0+USbMPiBb\r\nHj5Ov0w9STMbPryfFz07kto9wOwiPuRj1T0AH9k9hy5kPaLn+j37LHE+wYZxPrO4AD1IEXc9UVmU\r\nPGkiQT74PEI98tnAPQgUSD24Sbs8TeuHPb4caT5WFiY+iQRdPgpORz1sam88wTSIPMTwtjw8XdI8\r\n3vNuPZqmJz5vn2E8xDsmPaZ2WjyJc5g9h2QLPky7HD6yA5o9zbkKPoycJz7YA9M8MeOBPbgUWzxs\r\nJB888PlEPdFnRTy9mKQ8o4JJPKS9EzyGVPo8UTROPTHIQjy8H0A+tvfXOwzeNzwqs4I8DRqYPKRp\r\nTD1VmS8+sYZhPP4GxjytOis8uJsNPTDCODw1tvk7U2/VPHXkJDxAKQk8Qm7FO+jhhzzIh5w80Iuv\r\nO5vdyDzowpA8PQoMPVJ6Pjzie9w7IKZjO8Tsyzv39QI8tt5OPI7kSzwB1Pc722O/O0F4eDug6447\r\nXtQuPETf2zuYvL87eFedOzx0Yjw628k8FOeOPGEpcTy+O888zKI+PA893juPAd07lH8MPCaqTDuF\r\nwZk86v3FOiR7OTyVYQI7h19XPO91Czvg8887OA93O68qvTvnQEs74ckHPD9yQjxugKI8ICZIO6bD\r\nHjtxe8I75UvGO2ghpjsvj+87Uuw9Ow7dUDvGygI7GClqO6ZagTuwgB47whuyO2dUvzuWJgU7LYKn\r\nO0R+vztPR7s7Lco0O8OYQzuPgNw7vviNOzL1yzqyMo071jyCO78hnDu5r5o7TPl9PKseozsMsko7\r\n5m4iO9TdEzyrYmI7PC0sO+gSNjugj007Lc4mO5JhYDu44EI7DKaWO/Pk1TsMMiE7kB4jOyYIAjvW\r\n8cg6a4qZOlpEkjspCZg67CuLOsEGATvXkSw7BMKTO5eqjTsWKn87TgtvO+T3QTur4Pc6PoRWO0MU\r\nRDufEc86pNrQOv69jDs92Xg7G5cBO8Bl0jrbZo06zoNZOiw6DDspejo773vHOnwtQDuwawY7p35c\r\nO6rvIjss8XY71ciCO82Y5jqMvlI7ux2MO/Cd+joXKxo7Oa4NO7xF5jr3UA07eVjdOhMFATt5vHc6\r\nWMdKOoz7FjvSM7A6Mp3cOzguGztNru06xAEWO6/kyjqcugY71iE1OxuMMzpLT5g6rEinOqUH6zo0\r\nSwE8zriXOmZCiTrgQ9862KAmOwIk6DrBaMI63LbCOoO3xDqp4MU6DIXCOoHkwjrmD8A6O6K/OrRa\r\nvDrKm8M6UAPgOuUQxjr+ubc62ye7OsZtuDqFjLk6ok66OmEAuzrX/bY6R3a3OsFptDpoJrk6jSu2\r\nOjA7szrS/LQ6FNixOmtcuDq2rrI6AduxOnyPrTrPZa86xjKyOvLrszojRbY6jEywOmwDrzpeRrA6\r\nfbS2Oo7hrTpaaKk6aMSsOohprjqMR6k63vGvOv9trjpWVqo60gCtOmXHpTo2U6s6cnWrOoGYqDpK\r\noac6TZaxOhqGpzrNoao6xs6oOjvdpDo1Fqs67hWoOoLYpjqwbqc6R0qmOnWAqDr5V6Q61ZulOhxH\r\nozrJEqI63uepOvk2pDprW6U6tXShOli7pDoAb6Q6PNakOkGdpzqDN6U6QB6eOlpcnzo9FKI6CqSi\r\nOh+5oTpvBJo6yVKdOhSAoDoCc6E6G6GkOl1boDqfN5468lKhOg0onjr/p5w6DFabOrIunTriZ5k6\r\n0GKeOm8xoDr8/J069myZOvAjmDrM1Zs6RS+XOvGsoDoJCJc60vmdOvFFlzr8LJc65RmVOlj4mDqe\r\nK5s66HubOkTAlzrUZpc6jh2dOrX1lTpVup06GjmVOvIgmjqT2pY6D8iXOiSgmzopZJg6+IaWOikg\r\nlzqB0pc6AAqTOpCulTri5ZI6PPiSOvjamDpToZQ6ZAiXOiBfmDqrT5I6WIOUOtplljqp85A6PfiQ\r\nOp5ckjrLj5A66g2UOguxljqx7ZI60l6QOpzTlTqURZA615WSOiKZlDrhYZA6s9WROg4ekjpizJE6\r\nl5CTOtqijjr5/JA61WmNOovFkDrGQ5U6Q92UOtAVljrRmo86dLiOOiF2lDrrIpE66OKMOp2CjDr1\r\neI86bAeNOul5kDpz6JA6f62JOspQjjqrxo86kieQOolujzoMB4w64gONOsUojTqxaIw6liiOOm8H\r\nizoDH4w6TKSOOo72jzpoiIs68/SKOnSBijqSmo063KiMOlxJjzoqhYs6Nw2LOhb6izrDl4w6yw+K\r\nOsNQijrEQ446MVCLOkcRjTqUDIY6REaMOjpUjTrsuoo6+UuGOvAEjzoxvYs6ceaPOgloizrb1Y46\r\ncY2HOu1Xizqvcoo6YkGLOk97ijqsx4c62buKOpREhzpsXoY6zvmHOgRZijqeDYw6a1aKOikKiTrJ\r\nEoc6Y0KLOqrehzpgMIo6jZmEOjTuiDoAQYc6wU+LOnS+ijp0C4k6HfyIOqHQjDo3Yos6TQiKOsQ4\r\nhzr2t4c65UmMOjOhgjoPuow6GV2HOo6xhjqpZIU6ny6KOrFdiTpt0IQ638GIOo5wjDrEloc6TLmF\r\nOq7Cgzqck4k6w+KEOmTNiTq9zIs6svmIOnZqhDoGtYs6vESIOpf6hDpL74Q6IDyIOpsSiDodGYY6\r\n+XKEOpSagjr0nIg60nKKOomhhjpE2IY615eGOrMJhjrs+4Y6Y8WKOmqBiDpiU4I6uY6IOmjHizqn\r\nfYQ6YBGEOq2Whzqw44Y6erSDOnkwhjoXVII6g+GIOs+6hDqvO4U6eh+KOnhehjriJYQ6oPWBOtRl\r\nhTo8t4Q6LUqFOoJohzrb8YU6nHiGOmnUhDrfCoU6eqaJOm67hTo2UYY61a6FOhEahzre7IY6PAOG\r\nOhUWgzoMqoQ6IxCEOnY0hTrA/4M6nxmEOmuchzrAqIk6SPWFOqCtgjplBIY6bVKDOiCBgTrrfjFA\r\nn8HWPS2vCj1vaZs75/9dOy3xOzrwc8U6v3kTOoXF1jrydB06q0yqOu2+MDpVEp85i2pEOS99wjnV\r\n2cI5QTQHOqRS/DmhOdU5GAXOOH6zkjnkb5I5Q8WgOR/OmTmqSAw5E/dWOcHhMTkyKPM4VgCEOUZg\r\nDDlgOvI48rzFOCQv2DjwmSY5G+krOQr3Bzn4S4w5xz5oOhEBEDkjgfo4xNnuODpKYznqBog5P8zA\r\nOcs5wDmFIW84gIlOOT2XNDlaNeA4IcnzOMDmADkwfzc59w0rOUOR3zi0cRI5isTQOCYd2jgG4tk4\r\nWQmAOGUFsDgNtcA4CgUOObn87zgZW+04hGDdOIOrVjiqHQc5bKUTOVtZ/zgGSEs5dkV6ONeQkDgb\r\nM844QYm0OBhJjDhcbAE5MmzNOFFAtjiPCaY4SkrmOXrHsjioCs04TJflOBDksTi557I4ofPoOLtk\r\nHzmz1aU42wkHOZZh2Tmdjqk556v8OX880znLOVI5hin8OIv9Njmt5js53bY7OU447zjoWAw5lVvJ\r\nONomojgMrQY5CPKAOEyO2jicm6U4913HOF7ADjiQwG44+dmhODlRhjhUzoU4ge1gOOc2GzkGegw4\r\nV6bEOPardzghlW4453aMOI1hUDjF/qU49m8gOHtZ7Tg2/4o4Kd+COOex1zg1v78459xqOEhNfzgs\r\nlyE5Zy7ZOHwDnDgYo2k408CZOBIqrDhs0o04IZghOF/Pvjhxcjo4TIbZOGCgcDjUGsk32H0FOPxO\r\nIDmt14s4iQ7GOP+svDhtIzU4NjzKOHzmjDhRBnQ4ZqdzODWidDiWHVI4Pq8NONrzBDgKP0k4myts\r\nOCKSijgarnE4VEOCODXCPDi00yI4xAVBOHnPYjj0Q7c3/txUOGi7FTgsOq44pQ66OEiTFDlvj843\r\nu7YSOAklMDioBhI4JAuDOFy8yDcF0c84WoYhOIOD1DcBn4k42XCCONmWwTeGUJM4Fp1dOAYMfzh/\r\nSls4ePUSOcvPIDgwCSc4Ij9GOD6AGTiXZFM4gBoSON4BBzh+VBs4NsDWN45wEDjmU/c3jWcKONVU\r\n3jeEBfU3sgpPOFb/oTdpEEE4R4p9OAIjEThUBP83FKIbOFYEvzcFCPs3y+1cNyqM8DcKwxE4OWGJ\r\nN+wbzzdstrc3PrATOBZmTDdwAcw3a6g8OCBwdziaSyA4VBQtOADV0jch8Os3DnFLOMo/MTgOCeQ3\r\n+SsaOGfQBDjiegc47djCN/Y2FjgX47s33vUiOIaVpTdckms3IiJNOKSn9TfsRzA4nckHOKpTVjc2\r\nvfA39AsHOBA7TzcCdwI4TtDIN4Iv5TdLUwE4bDEKOGSCgjcMnKU3v02MN/eaWjie4AQ4UMIBOK/Y\r\n2TdGJcs34Om4Nz3sIzj21nY3GyKJN67B0TdVD7M3blklOJVn9jeUavs3Zr0MOFs3AjhrXNE3KoZh\r\nN94d+zcHCw84djYCOMAw/jcsgg44KkwkOBi5HDgocws4yyB2OGbuvDcEGek3mzETOKZ7ujd86xI4\r\n8qWLN/BglTefCLo3v6v1NykP6TfciuM36wHwN+Argjhulrc3I8fONxRyZji2A+E37BuwN0vVKjjm\r\nzOc3h+WBOOr/izfaNZQ31IuYN5+egji523o329jvN3KVSjjaI8k36zQwOFLmYzfgk5w3mzlRN06p\r\ntjftDdQ3iC4BOHy93zesr/s3TQEEODKw2jez1pI3nfDcN0ncGjjw6Gg3kRLZN+YL2Tc2QMw38FOE\r\nN/9GhzfkUhQ4FsRwNyNN2DeijRA4TORYN7Co5DeICX03VDLTN8qLuDdYiBE4ROr1N8J6DTjCI5o3\r\nyhKTN/uTqzdyc3E3KX+1N5/TgjdaO5Q4f+z6Nw0gBjhx/wg4rHHbNwPOXTjFWvI3OkDYN+69jDfg\r\nmpQ3OwKwN6xm2zenXjQ3QGykN4lQNjfdQhA41CUIOLwakjfKKa03soKXN5VmlzitVgE4AjEIODye\r\nlzfYzQY4xv6NN9qygjcLjrg3qlveN0jZ7TeQJ6Q3LGFvNyfhWzivxF039ZmLOOLrzDebqMU3UtKK\r\nN0OUyTczezU4hpcJOPwBEzhidYA4ac7LN9RuEDiXtyI4Vj2zNzGR4jfAvdc3dnoEOCrD3zdI7Q44\r\n8ExjOIU9zTcye8Q3KFugNxzERjh1iuw3DaIeOMpJ9jc92KA3Pv66NxdalDeyRxw4U2ikNyYxazdv\r\nCAk4036fN8CtxDft67k3hjeoNwt3jzcHVrg35oLFN7zdLTh39Io4m9qoN4pOBTgmeMg3JVILOJHa\r\nxTe2vzI3mFSMNzY4FziOIxk4dIUoODWXoDfaaI83gp+oN+kC2zdqk0E3dgDWN/BhYzecR6g3KodJ\r\nNyQXozeEAig42r9IN5aigDc8HFM4qUCLNxhC0DfD1l84mDiqNyIp8je1WoE3WTrEN3Oq+ze4k+s3\r\n7dyAN+uIuzcy+sg3B7u6N7nrMzikCCA4gBrZN42jkDdt9h04gmuqN68Kljf7uAI4S9cEOJJOpTcG\r\nt443QUfyN1Jw2zfaEcE3kgI7N5s4Szf90aA3983aN1HXwjfzvjc49m0WONRKHziBlpA3LszcN/+/\r\n3TeJopo31e7mNzF+gjcMdBM4gaKsN2U3Bzjuelg4tgEDOCaU6zfe3LI3/4Z0N2V78TeRA6s3RjKJ\r\nN3omBTjAtsk3HOdnN4+cTTe0Ztk3dl8DOJYQHTiEkew335CPN1Bxgzf6muA3C3CfNwCCCDglZVQ4\r\n6PzJNyEPnzft/5Q49Fp+N2N6wjdeSRQ3KIGnN5x02jcp9oo4b6Q8OIGgqzfqBLg3sdz5Ny0Kjjd0\r\nb7w3DmO6N95RwDc+MFI4HqDPNzB92TequPo3hyPzN/tXxze12O03bARtN9krBThsLbA30FQnOJvF\r\nvzc6Fww4KeiON4xPSDdr1AE49pq1N35kHDfCu5A3itsAOJCK+jcCmgw4bB85OFKQoDfax8U3s0sf\r\nOLImFzjG3Wo4g0CkNx7OsDcu6xI4D4oqOEODvDexMYE3pw/5N2rfFDgvXMk32ymrN+P4WjdQlSQ4\r\nU3LaNwG/ojfZ6483e9thN+SAjTeMkBo4bDcUOICW0jfq5Fk3SYxvN/d/KDcKNR03VkGHNyQgrjf5\r\nZ6E4yQchN48sRzfMIms3k2blN8gQXDhXcgA4kGYHNzpZHTd9/zQ3cdqoNlnS3zY6P/Y2V6qBN5et\r\ndDfOOFo36M87N05tnzfCFEg3SHqsNs02mTYoWdg2zTeNNybsRDd6mL03CJyEN+o8HDd2IFc2FENA\r\nNyTTrzadTZc3SW46N7C2eTdbHHc2QMawN+fE7Tb+Xno3e10HN4xYsTc2ECs3ptrRNiQ6sDdp4Dw3\r\nc5IfNyh84jeODNI1avikNl6Ymjb2rCc35PZ2Nnz6UDefKXU2zNLKNsGftzZYCVI3Yr92NuLiljf8\r\nZaM3sBZMN/k1ljc/y183NrQvN6etfzeCbCc3LiKwN+BCLThQ4283EjZqN/6JWzec8Zg3vlA3N92B\r\nazcKMI82WpMrN5VbtTY6Qbg24wzAN4VVlTeC8t828FMuN44KVTeQyh03beSHNgo25TYkIbI2oBtT\r\nN5zJVDfeFF84lbsBOJbnOzVrWMY2MERhN3ZXkjdcE8c2a6ChNiBKJjeJwfY2YMvkNKnr0zbY2vc2\r\n2dkPNraOIjegsA44DCf4N/lXAjftfxE3SYfMNu/hBjfe1PU2UYIBN0/T/TYCIFI2yGvDNFEmlDTQ\r\nyII2kqOrNlHenjaz6Pg0XIKpNoGCDTjmXk04D0vNN6/LgTcoEsI3WoQ5N4j0mjcNUCQ4xUiHOKja\r\nDDjwgUo3Bso/Nz9utjfrIQU3AhK5NnTIvzdfEcU3ZoLENqwwRjcygyg3tisSN0KV2zaNSik3zmy7\r\nNqQxfzXmduE1J6QKNpKQvDYZsL83VInCN5tvyTZTR/g2VGX1NGlIpjTwaOs0G4y4NFRGATV0NGU0\r\nkw6xNOBaQDWKB5Y0OS+6NK2GcDT1ReY0jNRoNG3X4TS4fto0QmH1NEkBZzWE/jk1zeXoNNfUrzSc\r\nx4U0PCIYNVIu6DSTNdE0mEx4NP7PxTRzUQk1r4PtNGeSODVTOxc1otvFNDrx9zTj6vo0hO9uNNuj\r\nwDTy8oo0IpK3NBvMjjT/XeE0TO3mNN1TyjSHTz41LewjNXCpCzUSJpI0dP7vNPkGDTU/8kA1SY+n\r\nNKNOYDS+Bjs1c7loNHBpMzU6CBY15kaWNPxN7jTNH5E1nCitNLB+/jRy9OM0t9S1NFcRtTTOD3Q0\r\nAV28NDvlJDUtf640Fx24NJbnqTQMXKE0yCyQNZlHZTXfoMc0Dvj0NKRhAzUyT580hDoBNa/zSDV9\r\nmXo07rXrNEZ8EDXSGH80cGkINXxxHTU+32807AmiNGppCDV4O+s0rKLHNCe/DTWjzlw0XcXNNI4n\r\n3TScuqM07JW1NDAi+TQorr80p2mFNJDIJDVRHKo0g23XNCf9yjQvqac0hZfbNOq7rDRSuzY1TyEW\r\nNfBHojSaLJc0YDu7NKTyQzUKzDU1PovcNMnz2TQea6M0t+IwNXb4fDRp/d40AOSoNFyNejR0EUA0\r\nVefhNPbekzQTIA41xGqING2dkzQ4LP40wv9WNRnmiTTqDqE0SNtcNCm0yjRoGLs0RmHFNCg9ljRE\r\nwIE0a5SbNJxwEDVSOXI0e8sGNchdEzXRFOA068mqNBCFAzUKYjQ01f6BNAWkGDX92fE0SECPNIVW\r\nczUYfuQ0LkE8NYhsiDS+rvU01nEFNQe+kTRX/+Q0xojGNHeAhTSibD41uOBENEe2BTXtU5o0S5QJ\r\nNT9h0DT3ASs1PDIYNa++sDSNYtY03gKBNKLFtTQqnEE1KvRuNP1ypjR7beQ0eay4NCh7sDTbixg1\r\n/RYKNc+SlzROWNc0f50CNaRQrTSat4c0TqqsNOygFzUwo6I0/CbyNPbMlTRcp500fCgeNUMKjTRr\r\nmcQ0ZNwYNb7kCjWMVaI0AYEJNRsWrzTSwQo1kZaLNMyW3TSITg41ugYVNZHxLzXsF480lSmsNPsT\r\ntjTbaps0rI6jND3CoDR0hh01+VV0NXgLwDR/tQ419V2FNCoovDTowhM1RoZZNXdedjSCEvM0R0mR\r\nNKLfkzRSu700I1NuNPSnWzUoIyM1aJ4FNdmi+zS+WxU11moGNI+SGTVwfAA1jCYhNMC37jSU3NA0\r\nxEXdNPC9lzStmL40et+NNAAxETUsQno0ZbNyNOC/9DQ4ktI0C4uvNOuv4jT9dOk0QjEDNVUcoDTR\r\njRw1I1DONA6fQDXAI6Y0+5WRNKINsDR2JSA1cKsKNXiO/jSx7ME000klNN6FkzR4KIQ0J6JANYr9\r\nuDR25GU0eJmRNTYi6zRlrpY0n7eyNOBLpDReZtU0K7K2NENTGzUR1gw1ZlxXNc5rtDRDJIU0ReTJ\r\nNC7E9DTHfPY08xDINBf5uDWTmRA10Vu6NJPRnTRsLls1aFapNM8MiDQ22JU0AEAENQ==",
                            "noiseTrainingType" : "default"
                          }
                        },
                        {
                          "effectName" : "WinCompression",
                          "category" : "categoryAudioEffects",
                          "parameters" : {
                            "attack" : 0.0,
                            "gain" : 9.0,
                            "preset" : 1,
                            "ratio" : 10.0,
                            "release" : 3500.0,
                            "threshold" : -20.0
                          }
                        }
                    ],
                    "start" : 23302,
                    "duration" : 730,
                    "mediaStart" : 0,
                    "mediaDuration" : 730,
                    "scalar" : 1,
                    "metadata" : {
                      "WinSubProjectDisplayName" : "",
                      "clipSpeedAttribute" : false
                    },
                    "animationTracks" : {

                    }
                  },
                  {
                    "id" : 107,
                    "_type" : "AMFile",
                    "src" : 19,
                    "trackNumber" : 0,
                    "attributes" : {
                      "ident" : "Narration_fracture-2-czm-element 15",
                      "sampleRate" : 44100,
                      "bitDepth" : 16,
                      "gain" : 1.0,
                      "mixToMono" : false
                    },
                      "channelNumber" : "0,1",
                    "effects" : [
                        {
                          "effectName" : "NoiseReduction",
                          "category" : "categoryAudioEffects",
                          "parameters" : {
                            "denoiserAmount" : 20.0,
                            "denoiserThreshold" : 0.0,
                            "noiseProfile" : "nY06QlkeMUKuVhRCZMktQo9lckJqIKlCriRJRJe770Ucc6NFTKVuRc9DK0P6TvFC2wl4Q6kXDUVE\r\nlGlF2/qpQxTfKkUjzyRGoMM9RCs/A0MZM8VEYUztQ/6NS0LfgrhCtHAWQ//SzERPVBBELcKWQhy0\r\nFkGeBU5A99ZVQIKn7T8k5YJALolMQqNSE0I4BvFAPo/JP0lj9T+dt6c/AIBVP/6hvj/ywc1AaHZG\r\nQPjI9kAS6jNAcb1mP5waYT8KUoI/REzUPwtzlT8/xEJAXHywP4Eu5z/dDQs/DIMfPx4hUz85cuw+\r\nSMnFPmj3fj9faAk/1k3OP0UTNj8drOE+6bgVP4FD3D4qYi1Aqv1zQMT6fEB5KGA/l08qQLisGj/q\r\nyb8+dT0lP9ZLU0AN3QlBtNY6QR43jkFWlAJBkj7ZQcJLhkDJM5c+oh6mPhDFYz+9tL4/CIBGQL4Q\r\nB0DHu8JAalkQQAsJeT5lPi1AL2CHP/gSZEDaxkRA8M3wPzwHIj+kzxxAzWfiQOxflECDmqBAv8kc\r\nQHi3zT8RPjRAI6s6QdsaX0Heh9g/dTANQPT6Fz+DYw0+3bMQP7TMqD9hVwJAZt0TP9/IMD98fwU/\r\naOxTPhz2pz5Oy5A/MUlOPvC7VD90xu4+uvqIPr+CUT+/PoI+cAPRP+pz+z4j8CxA9rLSP2aXnD/r\r\nl1c/1rc9QJPfRkDOIGI/8qAyQDywjD8+o10+6PdYPg/Ltj8ezJY/yEkFP/mUNj9Oev4+O4/jPdDe\r\nRT42NJE+wwchP4zNlD48Wp8+kuZQPnffvT2q7fk96poMP5Qlxz2KPNU+u8hvPj42Bj4iTME9jJi2\r\nPbLjzz7Cw5c+eAewPgTgNz7E6y8+blkXPk8wdD7XIUw+1LKTPdq17j5UGF4+q8y8PRiXyj3ITos+\r\nOy8FP65E7D1wmHM/9JADPzutjT44zAY/8orCPp6bxj68i+w+3JUKQJSpmj8fryM/GCJkP5Q1az84\r\nRaA/g5SLP9zlZUBwBwBA+1WQPyqbSD9if4w/Ct+ePyFkbT5fRYU/kTUdPyiuIj5i5Wc/pl+FPsa9\r\nYD4Vn0k9kCS+PfmSED7oQms9QPzJPfg33j1XOrU+9+SCPQJUHz3bpec95xOHPTojvj1jn+k90FeF\r\nPgjiiz7O1UU+9dwrPpHZdz7sGV8+mtGePsAwiz75KUY+tHgnPXoekT77t90+r5m7PsEz+z6eNCE+\r\nLlvGPmS1xz4q1e8+fGjMPt58lT79HcI9m/GHPrvs8D5MuCo/G0JCP0j+gz+CLvE+AV78PrUjEz6g\r\nJzQ+S3FbPzzYGT8ZlbE+pCS0Phf/kT/38VY//gEIPm4gDECb6gg/FG12P9oSiD42m2Y+FO2RP7gY\r\ntj/ZSys/RDNfPhZe4z3vC1A+Ix2gPt5PoT1aC4w/+HBMPrBNrD6MciY/oMbNPbtCoj/8WHs/8Tmm\r\nPrnagT6HCWs+yK2KPgT/FT4R9NE+JpRLPmLzjD4XTMI9hUxfPowW+j7AhBM/V0I+P/TDqD4VMIg8\r\noIOMPq+YEj5t7RY/sCSQPhvqJT/SbQY/caEMPvqlAz8MkEI+RDSWPlSo7z5U98A+yQYKPmThqD2g\r\nTIM+MhsFPi64lT3KnQk+HM+tPLgIbz3R16U9KMyPPVhcGT0qjK88V3EQPucRJz6CfKI+fd0/PurO\r\nDT5WV9o9jFniPZkpmD1XzMw+eV4aP/27xT5b7BQ+1/mCPUKJMD7eTSI+VC3QPE9DmD3bvrQ9IswR\r\nPR9tuj1Z2Y89+RPKPLAoZTyTLek8PZG2PUStCjyZdtY9VTDaPfuoST68CM49+c8SPsiq2TxReJk9\r\ngthMPS6BMT71N708BuMtPThTaT1z4SQ+4xkAPu0D+jzsChY9xJozPD7Q1z2U8fY9klwHPvgq3j3K\r\n+a08/Sb9PVjjGz79Kao8lVc7PoRvMT5m56w9mNPVPDnSND11cnU+Y7xKPQ+QYTzmJTw9c9icPND6\r\n+jzxupk9Pi6OPele0j1BVTE+tE86PkoaAD0eDYo+irjzPqIHcz6tI/c94CmlPV+kEj77ilU8LJpD\r\nPhZFhD0ePu89GikpPiJ1Cz6JvJI+vUH9PfGhlj4a6L89/oOAPRhwRj5a01o9Dl4HPe6s/zzvVMM+\r\nxAcsPrE6oz7GVn49dZwOPsFuXD3J6us9FBk2PoOuBj1DXdg9X2WZPVBsMD61KeY9RH2bPZJoCT2a\r\nKGM9PsIpPqyULT0I7rM8me2zPP5fUT1oKXM9N6+IPXzQWT2ieAk9/5EVPjIx2D0UeIA9b8IIPrIx\r\nnj3bzEs9IUyCPsTxdD4ICX09W/ZxPYYBXD1RTvU8cBlFPpam9z2SIE49X0frPGqt6Dzlkrw8gDB0\r\nPY1/DD5BUUA+aXB8Pf+oRT29GKg9QzzOPRHhQj6WnaI9Bm04PT/ycz4URpA+M3FJPYwfTD0dSQg+\r\n1B82PnrikD0iAhc+NeMKPtX51T0xqYo9blTWPPCbsD28K3c9LnPbPJtl5Twt1GA+QMKkPkM9Tj3X\r\nTy89NSJRPXhXoz0nVAo++TRMPlCw3D5J2pY9sCYWPYLRmj0MOIE9pYBOPpJoHD7ZFvk+0YoXPiRX\r\nmD2dTRw+c4sVPRmsST74L609jiQ2PXygZj6eeG49YeSKPiSmeT1+WKk9UbSMPUQEgz0XNi4+AbBB\r\nPRE34jwgXdo9uk5EPUk98TzlsE09XOxZPVTfhzyGbcU860M+PXQ+nzz49nY89Tq3PGcwZD2a2Io8\r\nmFGOPGQzfj2cNrU8EoM1PMqcXzyZ24E8Ku/KPLjoOD38POE8zs8CPe2kWTxndOk7MmkOPOJ/7DsG\r\nTbE8Ccu2PIU4QTyWA1E8I6jyO2QJYT1oqyY84j0zPFawBTzHG6k8WP6KPFjy1zuj0AM87sELPVqK\r\n1jzx/Yo8yie0PD5B9jt0bgw8EmBxPHDr6jv6EM872anIO7oSNzz+dhQ8mM4QPUL/Dz2qAU08pxEl\r\nPc2gKz2YfMw7KEHVOwFxozzVoQs8bLDpOzni3TyVC9I8DSdHPM4pXDyEEg09WjQgPPf9sDvu6sI7\r\nF/azO9BgTTyVl7A7HCorPNKbTTzddgg829sFPDbirTyblyM88e9uPGDLyjsS7Cc8+UAQPEfwJDyt\r\n4EY8jtDHOyn8qTvr1Lc7ZLkIPa6rcDx4v7A7/nmsOxtwvjv/Ha07INoAPIjfNjwZsuA7u+PAO0cC\r\nrjvrMAE8u1LWO30Grzv8jwU89K4MPI65rDu7WxY8b2fGOwoypztMB+k7t+3NO7zjBjy+LQw8fXms\r\nO9h5rjtvGwA87N+tOwh+IDymsKQ7v/OkO9zepTujb6U7oTqmOzLXpjvw+4I8TzWqO2DZqTuFVQQ8\r\niNyrO/3UrzvF77A77w67O1Uu8DvO+ac74wqmO3dsoTv+2K07guOfO2L5qDvTWqI7bLegOz43oTuE\r\nMZ47sS2nO2MgoDuu0aA7RcWeO26iojsWmqE7uiyiO9JdnzutIJ873h+dO17emzvPuZ47Wd2dO89D\r\nmzs0tJo71pSbO27KmjteUJw7doGbO6/tmjvwdpo7JCKcO2+wmzu4jZk7ZZWYO8cpmjsEipg72PmV\r\nO7VzmTvg15k7JmmYOxt2mDsZLZg7xs+YO8sWljt/bZc7reyUO9JdmDtM7ZQ7LuCVO8FPljuxv5U7\r\ncKeVOynukzsVTJQ7tk6UOyRdkjtwqZM76yuWO+E6kzsrxpE7NNiPO661kju8rpI75WWQOxl7kDsC\r\n/pI7mwSSO33ojjsqWI87eoKNO8wFkDuLe447LmOOO05Wjzu6tY07koaNO6FTjTuW/I47dBSNOxhy\r\njTvVtI07w7+LO3yujjvACI07QQmNO+8jjjsBmIs7vWOMO6zNiDutM4w7tcWLOyaFjDti14s7LC6I\r\nO2CNiTu5nIk7/yaLO0HRiTufmoc7ToqJO0o1iDs5QoY7v9SHOx+LiTt4gIg7dLuGO7C0iDvR4ok7\r\nnzyIOza3iDuTuYU7xjiFOyxHiDubyoU7+NOGO0wBiTsAcIU791OHO0sohTtOS4Q7JrSEOw00hDtC\r\nV4Y7Y/CFO9g3hTuHIYU79kKDO/9PgzsH2IU7YVmDO0zhgzvDIoU7H9CDO8nqgjvp3oE7O0eFO4jP\r\ngjt8lIE7fP2DO0uDgjsCA4M7EfOBO1W6hDuXvYA7URGBO2I1gTugFn47do2AO/jOgDs/GIA7RLuB\r\nO94JgDt6d307IzOAO0LffzuoZX07atGBO45jfzvt4X87L1Z8O/m8gTsFIH47C4x7O71xgDuOaoA7\r\nrVB5O/N2fjvK7Hc73UR+Oyfaejs8c3w7E6x7Oz7cfDv4O3o7sgR5O9YKejv+j3Y7kQN8O7q/dzu2\r\nAXk7Ghh4O/jfdjslwXY7/7x2Ox6KdjutpnY7nud2O3NUcTuOGHk71WR4Ozu7dju/onc71LV1O/B5\r\ndjuPo3M77mR0O9wZdDs+hHQ7MUZ0O3TbczvOlHQ74q90O6Y3cztsYHM7/c52O/Q7dju0BHQ7Pc1x\r\nOyiBcjtyhW47Trt0OzW3czsinnA77lZwO1hCcDtJu287135wO2EMbTtb/XE7mgxuO64scDsiCm47\r\nWm9vO8txbztJx2o7W45uO8ybbTskJmw7ThJsO4KibTtaBm47ZV5uO+GYcDsdSnE7Zl1uO8ckaztZ\r\nJHA7KjJuO3mwaTuYGmk7zSBtO9kfbDvTY2k7tdxkO7Z6aTuYO2s7tCRpO+bubjtc1Wo7l9VsO3hz\r\nbDutpmg7p31qO2c8aTsggGo7OI9oO7eUajvJjms71u9nOw7xZztlomg7fsFoOzTmajvgeWg76Lll\r\nO/ZeZzsos2c707NjO8yfZDt7kGg7XcZoO7M8aDudLGI7eX5nOyuYaTtHlmg7MgZnOwMKZTuaYWY7\r\nhQRqO0coYjtjp2Y7miJmOyKJZTvgSWE7hHxjO3PRZDvuXGo7gYpnOzRkYTtZQ2U7JHRjO9hWaDtI\r\nQGc7RiljOzkGZDv59mI7cdpgO1pUaTtoRmE7OHhkOyE9YzuWMWQ7/BVkOyRdYTu9RmQ7ULZiO8Lc\r\nYjsiImE7ln5kOzY5YTsiJWE7Km9oO1E1ZTuklGE7199fOwH7YTtGo2I7RW5iOywqYjvCsWE7xPJi\r\nOwhmXDsPNmE7xbBdO21oYzs61mU7LwRiO4wgYzv212M7l8RjO4iyXzuo2GA7IdNdO4F1Yjtx5l87\r\n/FFgO4vZYTvECF47zRxhO/eYYDt8Ul87KONkO/LmXjsEml47LgJgO/4lXTsy6F07LbdfO2NuYDu6\r\nyl47+4JiOyC1YztdAGM7IOpiO7LMXjuikGA72PxgO+iAXTsfi2A7e4RhO06ZXzsfcGM76NVfOy7n\r\nXDsdrFw7ey1hO5OQXztPJmA7Yb5fO5vQYzutcFw7pttgO1W8XjvfyF87nMNdO39EXzuzSGA72Bdi\r\nOzjNXTufTGA7QElhOxnPXjvTA107xdVdO76eYjsR8F87fWhhO4h/Xjs/YV87Bi5jOxAGWjvwkypA\r\nGtW8PaWQWzzwCMM726xbO6zB2TpBI8c6k1CIOmlBUzrMxUo6KSX2OfR12DmZ4ag5vnAvOk7NGTpy\r\nal05wnEkOtze+jnceok5Q6lfOco8QzlynjA54/JlOaOQxjkUU505U2YzOUNrhzl/HS05pWH7OWxL\r\nBzkQd0A5nCWfOSQeMjlZvgk5gvV5OScyzDiUxIw5AjYdOeiQsThpf+E4nhlPOcfjBTlVobs5/p9a\r\nOVOXVznisQI5GHB4OahLKTla9ek4ykLFOIJ0rjjenY447kEtOVDopzhs+X04kNcUOOBNSjjsucU4\r\n2STpOLWzlzhGCKA4avaUODtEQTgFy1k59nCnOD7DezhluYg4cqmVOBCCNjgeo4I4NxoGOfLgKTiX\r\n+ts46LeGOOIO/jhTH7g4L9lVOAEugzgLVMo44Ix9ONKzoDhXyOo4ZXahOIk4vDgZ5Tg5PEUdOVgr\r\nQDlm8h05kIkRORWjvjj0oYk5tzeuOX64KzrOqiA5PfjzOG6+3Th2tHE5aXZNOKPjzTg47q84gX9L\r\nOG7JQzmOkis4tKa/N8JpZjjK2pY4rP9WOJ1GCDgFz2s4slWLOOu5ejjDn4s4vkwWOS7+jjcUqT04\r\nIwlpOGw3nTgs/II4+aOHODjQPjgyUx84TDCVOA4ZpThtPo44naFSOBUuaDjUMos4PbGcOCvzGDh+\r\nCug4XVBDOFrbuzfGb5Q4yQy3N0DgIjhSUCc4SkA3OGtwgTg4hVs4up8BOF7BPjjyn7w3m4lzOE54\r\nEDiImP83Y3WBOL0FlDfZppA4WR+LOJQlQDgVyZ44jKcqON3gRjgemFc4od/gN4o5wjfoxZE4ShuL\r\nOOd9nThYnDY4FSSfOEl/BjhiJM84vdYpOEEBaDiek4E4zlc/OP/32TfUJZI4ltSoN0WQuTjSy144\r\nKjcfOOTKYjiENwQ46FpwOPamMjg+pvo3CJS3ODR+EDhxc284QmMZOGH8hjiC6Dk4b92AOD3JiTij\r\nOrw4xbZ0OBBqSDgXmB04Wyx5OMTsnDe0GyE4x7wKOL1FHjjx9+E3rxVuOLiVATjlfoQ4xrUDOA48\r\nvjfMB+o3S7W7N6VYHjiElwg4Hc7bN8w2qzeDEP832M3vN/6CqDd2REE4eYgcOPfxCDg4p/03Un2v\r\nNzQ5yTfxq/I3cMLWN7gtAzihR5A4XC10OG3RCziQPwU4ObEJOPcwOTiw1gA4kN3FOGHu1zcyngc4\r\naD8iOPbjOzjXOgc4BpVZOMOHhDjb5qI3tyoeODRMKjgX87k3ivZvN7Zm0jdqjuo3IPs6OHFIADgX\r\nRs83lMkMOInmLjgrPfc3E6cZOCpLEjg+VPw3ScsqOMv4FDi8sCs4Qp0oOMlxAziXhPk3Uqf4N8pP\r\n6zcBlc83sgqIN5enIDg4TdA3wka2N2yXTzekFAg4xUHrN9Cu4DdHhAM4V/BaOKHeOTeG65I3sESb\r\nNzyIHDhVPLs3XiL7N1a2+jdPxIo3kHPAN3FC9TfJicY3ClGlN87hGjjUpqM3dNCuN+RDwzdDVIA3\r\n4n/TNwud6zfo6bY36E/IN4ji9jcwNi84PYUaOMz1lTetbSo3AK0rOJlaJjg2ow44x7PIN2We6Tde\r\n68k3paQnOElDgDcSOLg3CQ7FN+iD9TfyKvs3DKEeOLsKZThogAI4/GDsN+o3yTf4Lgo4/+2nNwwb\r\nAjiWNkc3kO0MOLtDmzeDgdY32FMNOG6kojc40qo3H6mQN/xMSzjCcGw3NdfvN7Y6ajdyvVc4yBOl\r\nN+ebzTeJZfc3oHWeN2dbcDhFZpM3sDAwOGIGAzjWl9039I0eOE1LWTfOraY3/KKKN+444jcM6g84\r\nES2wN/HMEzinCL436SrVN1BtnjgMp983aNb3N+9aCDjwC7E3LGqwN/J8uTc+1bs3J/6+N15akzdq\r\niqg3463YN0KUQjgsDX43GgrgN4M0lTfd3Yc3f3n2N59sVTeuU5I38JK7N3u0qTc0DwE4HRfKN8rj\r\nEziFgpg3gytBN4K8wTe2RjM4q0brN8lztTezOtY3gO3lN7zGZTiYpgA4wssnODzHPziS+O83DrY8\r\nOLxhsTcmur03onmYN7Lo9jcy/s04+BcKOIB2sTcEbss3OAkSONIo8zfgG6g34v3uNygq/zeuD1k3\r\nz9hWN0vngjcpbJg3skBxOADzCjhutfA38TqRN8IP/zczMMY3I7fkN0EC0zdbyTM4PyqLNy398ze5\r\naJQ3HLenNxG/1TewUec3DHsKOIwQrzcFogs4r/M9OIzlIDj6iHM3V7rkN0LBBTgAthU4pRaVN6sl\r\nsjfujok3CXvKNziG1jfCZM03kjedN4Z1ojeiR0I4DrPMN4RI8zfI2wo4y8akN/QjjzcQxSw3mJzY\r\nN1Ck6jcysbE35JsgOEX1/Te0rZA37go9NzVmojfD9B84S22XN40ieTcMfsU3CuNBOFvQADhN+dE3\r\nYLIBODEC2zcAsio4Lsr4N2RcEDiy6y44MQUKNxm3Zzgw9aU3JD97NyjzKThXYVQ3YtK7N8h4wjeb\r\nVp43eeaXNxAAxzf6n243yrxwOAT6OzdBSsg3JEwFOGpyijcNKqo3deLFN5bsvDdSf043SNddN0jH\r\nBDjturE34yGZNw1UzjdQADg3PJnZNwSlczf6ybc3gxsaOAeEqTdXE5w3tg22N6ESTje+Dpk3vAHo\r\nN/uTQzfONSY43brIN6ix0DdmW2I3NGPlN8JsnDeEndk2Kqq6N3di3DeUBM83qI1UNwAyvzec1fI3\r\nzsm1N4T8FDiHjtA3meY7Nw4l+jciR+E36B4cOM2nrTfXH+Q3FGfJNwYdAjjygmk3PkfKN0+oljek\r\nNlc3VHinNxB11zdc06A35QqyN/jmHDiZucQ3cN7eN1tzwDe/6oE33D78NzO1GTi+cZ430BJ8Nx9k\r\nFDcG4Vk3vo73Nz2lUje3zrg3zg+1N1w5OzflgTo4YkBnN++r1DfM/Ro3JN/+Nw6xezf2xnE3KP+7\r\nN38Ugzd6eaw3N00ENzrsATjyftw3ChS1N6GPSzjEUgo4Ce4+N7wXtzcuOb033WNKOGRJejdPREc3\r\n0N70N/Z+bTeofng30NdsNxd24zctJrs2MZQcN5BYyTdesp83EuDcN5jYIThjUnU3AtwiNzhvwTZu\r\nx9I2lVubNt3xKTYoTF83k+2DNqQY8zb/Oy03pnVFN/KCgjYKLaA1Ye+qNjQhyzZ+gv82xzrvNma6\r\n2TaIliU2rto0NjRgnjZ+C7Y2I8cIN2HQ5DZzU7g2/By7NhzZ8jZRfAE3czaPNxCfYzeMQn43ugAU\r\nOD6PPTeVb5Y2/AuQN/HGmzeY48E3WhvJN1gFGjZHtlc2XUeSNrh2bTdEF5w3bO4vOIhU/jf/YSQ4\r\n6NWXN4XBzjaY7KY23ydXNgzYSzd/q9Q3gtiKN64wDDd8eKQ3+bx5NxZPDTc5KgQ3D5ELNzFzYzeG\r\n9io3fdoBN7LqnjZ6oG83k3qINoVtKDdb8rE3OseMNwQauTejXkU36kvfNk7CDjeEKcs3e8SaN1nj\r\nIjdU2KA3PSajN92lAjiwvVA36CMEOCglBjjPUyA3NpriNshDuzZKONk2dn8ON3WLTzddyyo3jnKb\r\nN1NOuDd1N2A3tQy3NyjvXDfuwog2tNUZOF3VEzguyuU3DjEgOCOlnTdNnqo20OOCNqoOMTdE24c3\r\nNBngN5e0zDfkwWs3CCxRN7G3rzbUZpg3jY2nNyGb9TZHbno2RgjkNhx9UDcCvjU3Hr/lN2/3YDeW\r\n34I20iEdN6HmWjfFa6E3DH3kN+Axpje2Da82qnwXNxxkODfG1qo2pOIHNmsVFzX0peU0xG53NsKx\r\nOzZk6/o1usCyNSvZ5DWit2Y1llVYNWxbgTVloIM1ANGkNklkVDcpdQs3Es2cNqU5Jjb+Cg02kFjg\r\nNU1UOzX1GPw0ycxONlFODTeASvg2HLzENhwbQzbHWc017ly1NR9L/zQkGC01rH8nNaFiLDW0xig1\r\nIA1HNc8jpzZMrOI2m5m/Nr881TWzCbs0JWnUNVyKfjbZOuM1lg6lNIpdEzXJuQo2Jb53NnaO/TXw\r\nyGQ0KRAcNfw5LzUIqsQ18cgUNh5WQTY2ioA23qm2NYmoyzRTj1s1W327NUjCqjU+E4w1RJtLNX4i\r\nETU+00o1XkLfNDlrETUmSmM1BYbkNOrHaTU7iOQ0mBgBNQoGujQ4pBQ1El4GNbDPGzWYFnQ0Tj4o\r\nNSOs1TQN5tA0srbBNI2gozVp8u00762VNaMmhTXb1rQ0L5tJNBLmFjVVWYo0ESI3NbmrtjRmKxg1\r\nppi0NAwbXDRmqBE13VcTNWNltTRkrt00j+Y1NQ6jLzWE+oM03ZwHNSpvGzW4+mM14GyKNJN4iDXa\r\n4SE08M5LNVQrKTWxlR01L7iMNFzzNzX0Hwo1sS3tNDTd8jQEDRQ126+1NAGvGzXLE6o0nJWbNBi4\r\nrTS++Pg0+3CLNAFfqjSKbJQ0/aD2NK6d6zR/vzY1CHqDNGTOgDWrpDg1PNA3NYX//jRZx1w0oIfo\r\nNH4TCjUiHBc1MU2nNF3YqTRzzQg1HGnDNDZZBDXmVOg0ZAirNIi26DRbLfs0PtkANSizBDX8Jo01\r\negu2ND3JpjSRy/g0UkJ8NNpQ2DQwPPA0E7FHNXUG2zRt2w012HPANBTUvTTfbZ400q9ENU4l7zQL\r\nO6g0zpaMNDt3LDW4G8g0yY1UNVJ9iDR515k0OGj+NPRo4DQgOJM00kKpNOffNDVrzQc1fHn8NMLv\r\noDTKvNs0E0AFNXvy9jS6wOU0npyfNJWT/jRgpiU1QfGJNJgxvjRMzNI0s28kNSKM0jQxFbM0WTCi\r\nNLKGqjS1IHQ0pLqvNHvQATWhdLs0wauSNGZP6jRlQeg0zmvbNMO55zQk6EE0bfVQNBIaDTUUGQU1\r\nGFa/NNX08jRsmeI0W00PNR/1mDT9FCg1E9HRNJgutjTrb4k03UWdNL8TYTSoeBk1v5DANIcdLjTi\r\n56U0hgXvNKSk8jSma+s0yFU2NCfwmjSoJHI0VkkINUC6kDS0se40jWkTNCSWljR4MXA1ftNHNck7\r\n1jSN4aM0m5EPNetAKDW8VBQ1IJB/NJIVpTSOCrA0UwaMNP8agTWq0DQ1yLZ2NXPSZzTMVr40r/ti\r\nNH1+sDTS7Ks051BqNXbpmDSOI9M0qnHdNMLLxzQxH4E0ihrhNKPwUzSQ+O00SmTuNHaYvDRIAM40\r\nIplqNZmApTQC5WY03935NEO4nDRwBY803x+qNPLcBTWes3E1DwfoNIPLcjTu8JM0NCCpNLJd6DQ+\r\nSJg0Bbm0NK3hCTXsKbM0hu/iNJNWCzWqLwo1rMURNbzCMzXG5wg0akygNAxNijRoyCQ1yZj3NExI\r\npzTkldg0rt18NCSVsDSu0Bw1VD6zNNcOezTo5xQ1wXfUNOu6njTQvuY0adQFNSXptDTGl6Y0e6jC\r\nNPcYiTReslU0jBf3NC/3ADXSTAE1cLOENMn4DzXVHQc1W6i7NIHRPTWi2j80AABENQ==",
                            "noiseTrainingType" : "default"
                          }
                        },
                        {
                          "effectName" : "WinCompression",
                          "category" : "categoryAudioEffects",
                          "parameters" : {
                            "attack" : 0.0,
                            "gain" : 9.0,
                            "preset" : 1,
                            "ratio" : 10.0,
                            "release" : 3500.0,
                            "threshold" : -20.0
                          }
                        }
                    ],
                    "start" : 24032,
                    "duration" : 2370,
                    "mediaStart" : 0,
                    "mediaDuration" : 2370,
                    "scalar" : 1,
                    "metadata" : {
                      "WinSubProjectDisplayName" : "",
                      "clipSpeedAttribute" : false
                    },
                    "animationTracks" : {

                    }
                  },
                  {
                    "id" : 108,
                    "_type" : "AMFile",
                    "src" : 20,
                    "trackNumber" : 0,
                    "attributes" : {
                      "ident" : "Narration_fracture-2-czm-element 16",
                      "sampleRate" : 44100,
                      "bitDepth" : 16,
                      "gain" : 1.0,
                      "mixToMono" : false
                    },
                      "channelNumber" : "0,1",
                    "effects" : [
                        {
                          "effectName" : "NoiseReduction",
                          "category" : "categoryAudioEffects",
                          "parameters" : {
                            "denoiserAmount" : 20.0,
                            "denoiserThreshold" : 0.0,
                            "noiseProfile" : "XZ8AQRir9z9yxyNBoFpxQXWZxUH+Mo9CsRDaQqwJiEWGD89E+dX0RRiJHkN4E8dCkka1QqjHF0Qa\r\nXqpE8+O6RHjOB0OVtElDpVGCReX0RETXp5xCUM/VRCBW10S5GE1CEKHdQZF1SEJVDXpCRd11Q9/P\r\nP0OQt1lDjklnQk4VzUGBozxBv2GUQQzIJkEZcjRBo9w5Qf78NEDKnLU/7fBiP+Isjj9MaUA/xwq9\r\nP+BevT9m+wpBhfgUQFQFej+usfs+XXkyP3Jx0z+m/L4/XGhRP1f/VT+OmQg/xFE0P78osj7Bywk+\r\nSJS5Pk6lpj+clI4/xxeBPsXuiT58a6E+HABBP8irCD9nPxs/pWABP53glD5++H0+UgOrPrnvaT6K\r\n3H8+a71jP3slA0Ah8Lk9SOCHPlrZJT6EvJc+Xoo1PofUFz9o89E/4tA0QAcxuz8kBWg/j5W2P1ov\r\n8D8nLKpAJdEgQfCg9EDH7vA/bqgEQe2U10BV3ek/zxS+P+YCdEHzpypCmNv+QA7FXUDljjlBnNNp\r\nQBVJmEGiWwFB8qm8QebSQ0FsvvZAaOGVQCcMP0Az6B1BN+7IQJcy4EDg9y9B6TEKQQmsrUDwDIRA\r\n5zQfQEKKBkB7FT5BISryQM5adkG/dVRAwERnP/YoBD8vwHE/HKqxQFMDKUHZUIpAyKKuP1ZlwT9S\r\n2wE/lextPx0BA0HdEExBSaG4QBpokz+mWiRA8hGxP1APTUAReag/gCiEQOaoQEDMlao/HPCHP3e9\r\ntj74yCI/YVfVPgon0j9rt1NALjWpP/HIAz+i4Uw+R+w0Ppbahj5w6xBARP70P+pC0j97cMQ+DNaD\r\nPp8Tcj69e34+lFh9PxfYF0Cf/1NAw24rPxOIBD/6c1A+7HaLPgBwBT9uNjlAogNuQMrRWD+mx34/\r\noiIbP4guHD++joQ/sgXFQKK67UAzpYNAFpoPQEUriz9hJmc/axyMP8yphkD2OkxBwyIuQUhKDEBF\r\n2GhA5PivPy+h0D9atzI/RNmJQHvmckB6Gnc/NIDSP9ma5j69IlI/gC7XPgLSbz7KBQ4+RIIaPrn0\r\nxz7M3sY+XBwdP6IbXT6d+zY+IsjjPXAHGD58zdU9peobPp6IQD7Jo/w+lEChPmiymT2p/0I+FoSL\r\nPf1JvT25SlI9XnkFPSm+ED6CJ0A9tgUgPbu9EDxXJLM8bOQ7PJrdGT1b3No8xPuTPO2iAz1UW1Q9\r\nO7oAPY2lez2EzB89Cih7Pdq6qT2S/BE+AbMDPczRTj5eRqM+Hel2PvvtOD6oVqA9jFjOPa/2YD2u\r\n4AQ+lGNBPtB/cz5AKKc+n5yKPurTBT32Hxc+yjcCPXuDfj3K5Gs9sCjaPFwIgT02v+E99oZDPtXu\r\nmj2gwQE9Huw8PHoOdzy9YuU8zmpgPZgocjyY7q88juAJPAB3ADwYN2E75vSlO7TQrzsjJIg7zPQH\r\nPNw1EDzJoxc8sqkMPD4L1Ds428Q7DsOYO9w2VTtEArA7J0txO3Zm6DolDK07h9p0O14ijztVlk87\r\nFlNLO4ochDv4CRA8lz0IPFJWqzvQV1c78R6fO2WilTsWxF873j9DO7cdoju5rmk7F3q0O38CtTtt\r\nD5E7AL+YO6POmDtuvls7YvKFO4EmKjxpsw482h9tO8xEDDwTa2c87WCvO1lUPDyjMYk7pJAGPABC\r\nvDtnZEs7kIIiPE7xODstQZI7ByjGO9OcYTs4t1Y7FlxwPICqhDuQAtw7OPAYPOAdTTxxgnE81s3I\r\nO8b6WDsfF8Y7LvQSPObnMDsQxMs8fpCOPL82Mzyes5s7Lr3MO/iPfjxGKsw8OrA7PfNDsDyCIAs9\r\nKmACPCk5qDwmWU08wUQjPVqMkDwz/O48zEM1PB6wFzwj7zc9xD0iPeL9PDx6p9U8yhg2PPQm4jvC\r\nPcc8UqtlPLkjZzwepLY8bTgvPXGZIz3CNwI8DDtmPNCkcDwcCFY85OuQO6ZorjzWwOE8UNIUPVnW\r\nxTx2NWg8Ki26PNs8xDsSTMI7zjE7PIK1Az0uT8I8/XBEPS5fwzx9xNc8Tz4JPfXFiDwKgpA8wQ/c\r\nPL295zwQJqA8q22bPAKbHj2LoGM8OmhgPZIFsjxzgVQ9TTIFPQBkCD0VTdI8ALKKO90IBz1391o8\r\nYqpTPMz1Ej00mTc8VvUxPL/f/Dtal2I8KlJbPFTNTTvSHsY8996zPKvhojwGJd47WU7NPC+mfzxM\r\ne1I8Ap+dPCLm/TwYdIs7kuZ7PLZPrDyabqU8qKYHPR649jxZnEA9a32BPdQWjjy53Q48GM0APEfa\r\nVTyAQhM8eQgfPM7oKDxiirk8vvQNPJMvnzxsuqQ7V3+jPAhmozyZtYI82C34PI0flDxJau08Ebdg\r\nPPDibTxpDgQ8XIZcPJnBSzwyJ4A8gFe3PGxVWTy7arE8Lp5CPNteHjy2/Jg8FiscPXLLGzyV2AM8\r\nb2v9PM5dDD3EgmQ99awWPOSU9DyINEE8JIUkPMiI7jvUHSk8HgPbPF8jID26ucE8HuV6PDNDMT3X\r\nVIA9zG8zPebRtzxGQOM8DMq9PD5tQzyLY/082yiTPKABEjyVRj48Ss8XPTwBiTyI9y48rajEPJ1h\r\ngDzAO7s8snTPPKrtUjzIOEg8CNVuPMTBhDtEE4Y8mLtkPO+eBjs3fRA8IFrkOzL8fjynEIU7ZybK\r\nOzqEQzy+vvs7T0sUPLtb4js4LfI7WfE1PCiDQDyBCtQ7aNwjPP0DHjw+waM7OetBPFyfVzvIMkM7\r\n3t+aO1Q8WTwhBBw8SN0FOzyEIjxzXnw8DIjCOpgorTqkYEQ8p0/vO8XfpjtngDA8wV6jO9dygDvb\r\n7g08yYexO8EyIzsp8QY7fsF0O6YnGzx8S0Y76NaUOpYVvzvIvpU7Uq2VOjmy3joLoS87a+z2OyTM\r\nkDr+sg07ttRAO0IKVDvTGfc64+oPO6tAQzvSUlM7BowcOx8iWDrSy7g6QNAAOxZK7jpbHC870Tq3\r\nOnZ8qzrE7TY7isijOrgIozpSIqY5vmK0OoLJuDqkkhY7rkLlOoZdfjtuY7w6JP1pO7HeEDuWFgk7\r\nymftOg1xuzozAo06dI24OmgmDjuRy1I7MGcXO3Tb2TooTKo69svyOqNrBDtSSd86UK0tOstpdDpr\r\nBIY6BLJ1OtPLgTpcxg479FqUOh7+ljrqhIE6lFuPOsgaozoPn6c6QHPBOm4Q6DrkBtY6CrabOsjK\r\nqTqyNNU678LDOnfoeDq8mFY6Yd6MOnDYlTq3pIg6oRD2OtgCJTqRsNI6OVnmOqMItjpm30Q6KR60\r\nOpGDpjp5Nqw66lOwOiM7kjpRRbY7PE2fOhYh1jqPY8s6QCGgOlFlkzv4tKg6FKGeOniHgTs0w4w7\r\n2p8dOxTSwjpTkYg6iWr0OlbgpzsKHBA7FG69OwH8YDv+MIM63ACzOgpNZTrdjIc6yUGPOi66dzr9\r\nxgA7IKYqO8+HgTpKN3E6/7dvOhCcgDp0EoE6TsVzOliRbjr6TLQ61KmSOjMMbTrs6Go6EqFxOoDr\r\ndzr3K5Q6RGZuOt8ZdjrU0Jc6NlxxOqqbbjrX0Wg64DNsOpD8kTpHD286WPZvOqhlaTqnE5U6Artl\r\nOhFs3zogwoc7puMPOxjqwTpkNGY6CNRgOlYIqDqTPog69pjgOnzWCTt2JGs6VnZtOljYYTqmSGU6\r\n1gFmOqymYzrJiGM6oTJ1OjkaZDp0o2Q6ehhoOnREXzpWiWE6SW9fOiG2gTpQhWU6sMKAOsuqWzqe\r\n1l46pxVdOrL4ZzrfpFk66tJYOlyZVzqVhmE664FeOvSFUjoQKlk6rVdfOlTdXTqkI1o6QVBaOtRw\r\nXjpgaF46WF5YOiGMVzrOwlc66PVYOkCPUzoSS1Q6MnJNOhw2VjoJOVY6kXlTOrCQWDqm8VY6rQBX\r\nOm0ITzpe5lU6je1ROu5WUjrUb1g6CxJNOpBIUzq+IVo6fClSOixFVDrqGk46OTBWOiEHVDqOkVQ6\r\nYYtQOv/PUTpSEFU6hWhQOryJTzrdYU46UB5POgwWTjqtM006RUpSOm3DTzrJDUw66FZLOu/WSDqW\r\nc0Y6D2FSOi2BTDpGXUg68hZIOk+9STog+VA6pAZFOlkBSDrypEg6uA1FOrY5Rzoaej46p+9HOpjS\r\nTDod7EU6P89GOtapTDrSOUs6FBtCOm3iQzpsBEs6mFVLOqxBRzocCj86XW9FOmoCRTqjBkM6EzJH\r\nOjihRjqkPkQ6n8M/Og58SDoIKT86Nu1EOq/JPzoCbUg6ZlE5OjiXRjqQwkI6b/09OjpzPzrYpUk6\r\n735BOkRsQTrsmTo63mE5OosNSjrxAkM6ub0/On+PQDr/PUc6UzpFOnbSQDoJXz06M4pDOlQgQTq5\r\nqzo6+HxGOg5hOjq12kI6qksyOmj0OTpwxzk6ye07OvSDQDpIBzw6x0Y6Oi1lQDov6zo6e+gyOqp3\r\nPjrMKjo6/b1COr69QDq9P0A6YgA8OpktNjp24jU6rL1AOoJTNzpiFzo6YcI0OnMFPDokSDs6hH47\r\nOvnpNTrxXDg6k+c3OkQxOjq2fzo6K1FAOhdGOTrXPTw6mYVAOg1APjp6NDc67p1AOs5xNjpyrDQ6\r\n4Q40OkZNOTqd1zo6KmY3OoNfNjp5+jg6+MYyOt3uNDpp/Ds6/Rk0OkCHOzp4ATc6Fk46OvpiNzq4\r\nKDU6LOM1Ol+6MzrAEDs6g6E3OgSgNjpZATY6yqsyOtCINDr8VTE6UHwuOjGnOTq48S06yg06Ooo8\r\nLzpjXTM6OHU2Og3zMDqz2jE6XwA5OqiILTqjUDM6ATUvOgRxLzrVUTU63Mk1Oq/LMTp6Eyw6HNww\r\nOtoEMjobDDA6i48tOplqMzrrRTQ6yCstOh45MzpSWS460HEyOpVtMTru7S866J80OmI7LzrsCSo6\r\nfPEuOvycMDqKKzE6uWMtOrnTMjoTVjM6Cv4nOi5BMDqGvC86qB4tOkfAMjpBIy46ZI4rOpYlNjrM\r\n1Ss6CwQvOks8MDolRjA6gzk0OuNlLDpR2y46LAgvOk8eKjoThC86ceUpOsB6Jzr6eCs6/xUtOoc9\r\nKToHZy46iGYzOpBxNjpady46JLcyOu3NLjrCPzQ6To8yOiMaKzps4i46+WwyOtZyLToU+Cg6fMcr\r\nOp4pJjpk3zY6Ro8qOs58KjoODTM6Ac4xOnEmLDohNi06kOwoOg71JzrEkCk6C7gpOg6uKDpRSiw6\r\nJ/4tOtXVJzqNSTE6u0YlOrPPKjqUMyo6thMpOiSMMTqBmSk664ooOgaRKzo6wiQ6gfgqOuWCLDrz\r\nXCY6atcyOsYNMTpFAS46u8ooOumBJjq7MCk6gJ4pOjJkMTol0S86JFklOunOKzpSLi06O+YsOlix\r\nIDqpjyo6LvsrOmuUKDoYly06HzYpOmzoLjqlFS06jYgvOpQnKjqPvCI62+YrOscwLToRey06BxEq\r\nOrbKKDoN+Cw6+LclOqtaMToqoyY6HxsuOpZ/MToREy864CcsOjDKMTr0mys6zMMpOgCQLzo2brs/\r\nQ0cBPqgxhjzAiuw73q2tO+cjWzss8n47KMTPOgQZDzsU3w46iKzNOY81Szoqi4Q6TsJEOsDXJjp8\r\nDUY5rXeXOvstuTn0u5M561RhOY4RGTnoIx0529JUOfQwlTmT7Fc5isKTOfZT+zgKvSY5s7vCOBru\r\nITn0oqU5rm9xOZykQDnklPo4yEJUObQe0DhG9/44IuwVOfU7rTgy4944uKe0OWZF8jjRs5M5lLR1\r\nOa8yLjkc4R05NECbOI7qMDl7UzY5JGQ/OSpkDTm1w2I5aHPSODxDUjnAFjk53UzhOMbGCjmj7Y04\r\n37AhOUzj6DjYVPg4BPLqOEJ4kjhECgo5DBUeOTocKzmGSmQ4fSvkOMMtYTnOGKY4dgHMOK+kKDmq\r\nUTM5E9sROQlPljiQWsQ4Fr6SOLACyTjkrYE4RsVPOK6wjDi29wY5D9jjOGjXTDks7Q05lLENOY+9\r\nBjk021I51Z4cOZUzrDn3qJc5JbcxOYAIzzlQuXw59E6XOV4lGznb1pQ4NWSdOLHI6zgbExg5MHDT\r\nONstmzlIqWY4Qu7kOPxyrDjCI+04q6AFOYs9kDiY9Z845YZrOCKBoTi8aDQ4i7HMOGR+fDjklkM4\r\nFiYwOGd4zzjsEX848yaXOJ3QXTjTPF44UBS4OHY/kDhKc/c3G4FnOJedUDjvD484XATwOIf+oTiu\r\nu/Q4m6W0OEO1bDhlnI04lfqkOFqhajh1EIc4ckbcOHT+mziluzU53Z+lOCxIYzid0cc4upTTOD55\r\n/ThdV044NNWiOMeusDiYvC44cdmvOATyIjgwu9M4w8ahOBW7IThxUR04vD06OCvCJThEf1U471cy\r\nOJbfaDj4FJ44zvWfOJDlYDgFB+c3nUyOOCy+NTgPoVU4sWzON7hBhzg4Zx84f6QdOBw/DzjpuT44\r\nxkJ6OFgdejjWhTQ4DwqlOBoOiDjMgF44yDvjONjokTiuLbE4hf3fN2BdozhKZw84eatfOBbRrTiY\r\nMJI4ONt3OP2KgzgUkS04YqozOEvDgjgASMI34fkUOESqBjjG/Pw3wpw0OEUKlzik86o3JyvYN83A\r\nKjgi5Z83D+aGOG3+nDeamwc4msR9OMByAjhsUjs4PC0VOJS/hTcJquU34mUTOBOyFzg5GZ84bufu\r\nNyIubTjSb583ZwYsOD+9sDeLPgo48VMMOKQC2DeBE743Y6F3ONaGADjA4O44eD5LOPhZ4jeIGYY4\r\neZ7MNzJc+DfsJaQ321iAOKYYrTcY6m84lWpROMhL7DeEuB44aN6AOMD4GDg4du03KIIyOCD7wDeT\r\nWic4xrOPN8bAsDdZnAY4W37uN2A1QzhzA7o3Uu3xN0cmgDcyS6U3PxhZN1HnJzgH4xc4xxMJODSP\r\n8jeg+2k37c4vOMf0Gjjl4LA3v/BjOMxhHDg3UrI3xyEEOLLRjTi8igc4aB0+OItuBjgzCfI33liQ\r\nN7qM7TdC6lc39VgfOITtiDc78IM3pi09OMWfrDdRAOc3zPnKN2yq3TcjhCQ4XIzjN0TSpTcQSR44\r\ndCK9N6J2mTcxFQ04knOIN+exBziuHls4bQbuN7OIpDeWTS04hwYzONQXMTgL/M03bv57ODkTgDgq\r\n9MU3npXMN1+BqDe03Vg4+IUMONKLPzjksA04nnHyN2yfLTgKVGE3qk25N9aK0jeQb3o4xbAAOLgv\r\nZjht3ag3shWVN/wk2jcoaLc3wiv3N9JPoTdiEw449Ov9N+xW2ze8nCU4+In4N8JGRjdHFAI4hmzM\r\nN2JrzTcmr6U3f2DCN9OiGjhA28M3j3vtN13P8TdClvA3kPksOGxwUjgeGmo3qDH6NwxFFTe5EII3\r\neiyHNwXyDjhgpt43R3sCOAEMeTeYaPE4R37yN+prDjgqbX03wbTFN9Oy5jcCRu434cPTNwQoOTgH\r\n3843TqP6N6vL1zepiN83iKLaNwv4ljdNgd83plQWOBdqrTcD2BM4aw1VNyoquTdZqMI3xmOPN+0j\r\nNDiywTE4AjcXOK5FLDga1eg3ou/RN/sCATjuVfQ3pnmxNzwmcTivpa03V8KSN12vpTcWAxI3CpQv\r\nN1OEnjdtPlY4M80ZOJkznTfU9fE4AJNxNyLkrTfqjOA3DHIgOLrqJjjmuwQ48CXtN5L1qzdSVJU3\r\nG1CVN/0/yTfW3/434iWZN2U9pjfaedM3067tN5I02Df6esg3kksEODZVDTjCKoM41j8TOHCDZDhO\r\nHaU3POQHOPwTlTduvMs33EoBOHTTsDcIpxg46c3qN+UphTdXVAQ45vbON+vKCDjbAbs3gmX2Nxv8\r\nFjiWKZ43mOWbN27cCzhjdJc3C622N5IH8zcI5sk3kqrJN7XaozeoHJg3DnexN8AT2jeHQ6M3ijHM\r\nN8hD3TdoXaA3QvvjN1b73Degq7w3yQzsNyEp5zd6ahM4nCyKN2kmATisJ6E37oZPN1g2pDf/s4Q3\r\nEj/tNzUr3jdqUZk3yl2mN4OG1zdZJN43IZ85OB51GTjRhgU41Te6N0DfVjioE9A3ea72N+txBTic\r\nQX43EnQKNxccFTjsD2s3e8GuN71/ozeqdcc3iD6mNzJpNziuTuY3NkiiN27awjdRxT43DBevNwB9\r\nBjjcRDY4oC3uN2tVNDjPKrk3oYH6N5R+Hzjb1pc36zE7OE7rLDhTSl83QQZNOMDTLDjSg5s3dha7\r\nN/lPwjfy4LQ3gdW5N+Fmxzf/J8s3CK4dOCjOwDcg8wE3KeKpN4IgwzdFQ5038ukoOACSzDeZNps3\r\naJoUOIdUNDhXtbM3EErGNwuvSDdxFk04SjAEOBJYCTi9t/U3z8ofONHICjgIp6A3ItykN5YY7zfG\r\n2VY3K8itNxU1zjdYr9o3i3EtN9NdzjeNCHI3SiK4N8zQ8Df0BoU3oCeAN8obBzgwdo83NOZlNy2+\r\njzfm7hM4Y+GwN91CfTjdt9I3BiDmN4vyVje7JKg3G6kmOKnZGjhloio4ob6rNzrruzcGO+437pjK\r\nNwp77DeIMfw3vDqQN6WCXTdvX3U3Y4qjN9M8hzeJs704NOfgN8vBxTcMRTE36MqrNzbMWzdE98E3\r\nU+3IN0J+0TfuntM3+a+MN3KjUzjQiT44AsKIN6Ch/zeXShM4fijEN4vILThRBj43WX7GN7RNszeY\r\nTMU3u90dOA3I2DeEFbo3IdyvN8fckTc4mpU3vJNtNw73ETeuAhw43i9NN8F+EDjZzxs3sqa1N48+\r\nKjenf503uefXNzqJtDfdhkA4kdWpN7foEzhBqc83BJwMOAlVkjdC9hc4iSSJNxNprjdMBYQ35m4I\r\nOKUdgzdGmOo3nHkrN1eLTThiSz03Ap0jOI69GDcgbjw4ro0+OJIoUzgggGc3uYSsNxCy3DfxMgU4\r\n1ZHON6R3bzddzKw3BKGwN9/2dDiV9JQ3Mby7NxLXXTdk5gc4eiliN/hjhzcsFws408OaN0JY9TfC\r\nwI43YGemN3vRLzgowTI4zLMuN9pHVTe6zKI3Cj8KNzpSZTeotCs3b5LLN2ix7ja6Zcc2LwgqN5It\r\ntjeEfgw4p4toOB593DczRIs3ZN7mNsIVWjhRVoM3kw/5NvkQpTfaTIY3cGKzN2lEszfg+aA35MuD\r\nNg4XEzjg6jk4O74OOGdC7DcMp/E3gzZGN71aJDffx7037j3BN1ycujcveOA2gaTYNprmzzbIriE3\r\nsMIxNwORUjcGD6w3238lN8q8kjc2vhc3AvjPN2TKEjgysUM4j/8OOCB8uzfytBM3vjYhNjKp9jbS\r\n/UY3+TqxN2Tq/TffvjI3ruDTN2l1vjasGEY20/njNe4jKTYlKP80a8tWNdURtDXCmpE1O6eWNkAw\r\n0zbOfo02umyZNtMOWTacl7I1b0ULNT5M0jTPMMU1qwF9NczkJjUsfCg1uYGTNcbnyzXP7hQ2HQtJ\r\nNoCMljUtB7k0HkwGNRr9sDWg5NA12kaFNTQJsjW77IU0zBAeNmI0LDXmxyY1KMl7NZyLLzWbZYY1\r\nHyZpNSCTjjXhXA81snbCNf4Q3zW1cBk29YkfNmZf5zUxlVk1hgaxNehuHTZgwGg2m3AtNgn9yjZn\r\ncgs37h+2NutkpDaAMVA2kv74NS56fDW5mL80jmMXNpdRVTUCmjA2Fyc2NlLTcDU2jh010ibONDJJ\r\n/zQKL1k1HgQtNR/qIjVzjJ800W74NJxxuzRLWRU10pvoNH3wuzTxiAk147oONeaQwzRot440lGtb\r\nNQOckDQ9wr803xYmNS1VYDWypJY0WMXrNIj5JjWsIiI1Vs27NNDKzDTUdl00uOL6NDT4MTWyZc80\r\nMhKUNC1B9DTaedY0PtxYNYhmBDVuhhU13KNfNA8aOjXV5Jk0gzs+NSg73DSF/900UqXYNL3i6DQ0\r\nCcs0ftvwNHHSNDUw8qM00RSZNK4vCzWkB8o02eAsNXsUXjXadS81YkfqNFIqxjQ4BOo0Qt2oNH5K\r\nvTSSP800TBXENO4pFTXt2pE0vqu8NO0whDR5w+Q0cTYDNX6DWjWC8qA0N40TNdrHYzSr2wg1rC9L\r\nNaoyojTaIA01dJpENCGV8jR2wVg1qqArNGR8fzXLoEs1srxzNG+r1zRUiC81zDHoNKpSnzUHH4E1\r\nv1LdNODcnjT/rws1Me57NLGa1TQSZ4o0xGFDNQWvtDSpL6g0laIPNUDXtTQMKUU0v6cWNTCD8jR8\r\ndl00YD2PNJbxYzTAJq40CYsxNR5KATU+DGU0ednTNCWapTRJR5c0prQgNWnvxTS1ctU0NqjrNAIV\r\nFTXO3pg0IjDiNEBYjTT5DSM1Ug61NAg74TQI1WA1S/nGNJf7IzWJ0f40NP1DNDz8kjTtF9M0KjPw\r\nNGBRADWH/KE0IjQONS3dmTQssX005bXZNKAOFTXn2IM1wrSNNBcG9jQvpME0k4jLNGVseTSQBeY0\r\n6ivvNNOE6DQLC7s0+c2CNTmqBTXXuBY1jaKcNKxpOjW+nfw01OoNNZF/qTQb3Ao1ibWMNLpPCTVG\r\nAk01zgFzNbKGQjViiQ41HxwFNR9v1jREOwY175//NERKvjQOZuI0Vl0gNa4pkDRsDo40TuycNLuu\r\npzRM1AA1lsy6NNY+mjQ9JKY0ZmwkNbYQwjRSN7o0c2TDNLAdozSv5X009WFENRTt0TRZAjw1jJcr\r\nNb+o5DSz9jI1PLPyNJOG7jSA38Y0mIi/NMVepzT4w5Q1gEScNJTzkTRiI640Ci0tNR5CxzQQIFk1\r\nsMLkNNgXzTSGZDM1MaiiNFD71zSbV/Q0SjgMNeO1DDUWaIk0wd3RND7apzSmcQY12KgvNSxxPzX3\r\njIA0W6a9NA264DRa8VE0hR5PNdiJrjQtAWQ1+XDENDkhDzXhcRE1qTgVNUbTgTSl7600rgZUNESf\r\nIzWcTZM0m17wNJrPbjW6X7A0DK6xNCAUrjQJ1Zc0riUMNdapkTREMMY09dMLNV/ETjRo/XU0h84+\r\nNahlsDRDQAw1UX9nNAZaFDW5nIg0G4XVNDQL5jRWn8E0JYYoNbGtoTQ0SKI0AABENQ==",
                            "noiseTrainingType" : "default"
                          }
                        },
                        {
                          "effectName" : "WinCompression",
                          "category" : "categoryAudioEffects",
                          "parameters" : {
                            "attack" : 0.0,
                            "gain" : 9.0,
                            "preset" : 1,
                            "ratio" : 10.0,
                            "release" : 3500.0,
                            "threshold" : -20.0
                          }
                        }
                    ],
                    "start" : 26402,
                    "duration" : 4224,
                    "mediaStart" : 0,
                    "mediaDuration" : 4224,
                    "scalar" : 1,
                    "metadata" : {
                      "WinSubProjectDisplayName" : "",
                      "clipSpeedAttribute" : false
                    },
                    "animationTracks" : {

                    }
                  },
                  {
                    "id" : 109,
                    "_type" : "AMFile",
                    "src" : 21,
                    "trackNumber" : 0,
                    "attributes" : {
                      "ident" : "Narration_fracture-2-czm-element 17",
                      "sampleRate" : 44100,
                      "bitDepth" : 16,
                      "gain" : 1.0,
                      "mixToMono" : false
                    },
                      "channelNumber" : "0,1",
                    "effects" : [
                        {
                          "effectName" : "NoiseReduction",
                          "category" : "categoryAudioEffects",
                          "parameters" : {
                            "denoiserAmount" : 20.0,
                            "denoiserThreshold" : 0.0,
                            "noiseProfile" : "RHwzQNT1sj2k/Bg9YfKjPbJ69z2gwSE+Szv5PZdooj643og++4oqPtdhJD5FVM89IlcjPgX5Nj3e\r\nVNg8/RJsPdcHhT3GuAI9thsLPeKlTj3R5hc9QKMyPN06rDyHqXA8qOiQO0EvSDzZWY48ttklPGSk\r\n6jtYPKI7ZolqOygKWzr/MRk7aFRFO7RMHzvAjBY73UorO/S7oDpPuiE77GsMO+Awkjovv5Y6WxAn\r\nOxJhsjrUWYo6BZmJOyfm6zpSyaY6ANqtOiZTITov9Q47NliuOY6v0DmvBVY62mGIOh+HMjo4R1M6\r\nYYGQOkKXSTrY92Y6exP/OqXMNzp4vm86zPLMOqd7gTq6uGc6GJ8IOjVpdDoM/Z066UmwOhRAuToK\r\nNTE7KvrCOsL4NzpMIUg7J++GOlaQkTmSSX86g2eyOgC3fDpyCsk6WIT3Oqy7qDvFPH47wsOTOr7n\r\nETxo48k72XlPPLWGIjxejrY7zjrNO8wSCTveJR077KESO5RsDTuaK906CE8wOsFYPDqCqpo6nK+1\r\nOrc1PjokoTc6kHgKOoTzajpx63k5aXLzOX8nAjv7vxw6n+ZPOS2LmjplutI6bGtwOjw00TlypO45\r\n2j5wOtYPSDuky586AnxxOgnYHzqx5Lg5JjrLOp5EwjmINyM6GwfNOVl2GzrMf4I5OW3tOft+QTqe\r\nRTo6bkuZOSGHXznlFZE53z6ZOf6ygDlERdk5uFWjOQUaxDh1gDI69XDUOV5/EToitiw6ikurOZ5I\r\nYDpDcPk5NReIOTC9nTnFxKM5PA5nOV9b9Tk7dow5GCVoOTwOETkTaQA5WkoiOcu0pDmCggE6Hn8I\r\nOvwTkDkrUDg5TpeCOfwaAjrEehI51XKZOfuZIDqkEW45WkCVORjIHjlyYQE6AXoUOeho9zkVdY84\r\nMKJ7OfmTyTm6qbk54qWJOYfcGjnwKVQ5P5tCOb8CsDlngLM5bjkhOZw1xjlF0XI5eOwSOeSJhTnQ\r\nHQI5PiOJOYiiBjm0mro4rkB4OJupDjmaI+E4KjyQOG3Nrzg38oQ47x0SOT7ALzmmJlM4MqOCOPuU\r\nMzlUdbw4FAvBN55HNji1ZDU4tjkwOMmxLzj/Qwc40PzkOFB+iTgis1A4YsUCOQNtkTiqt404XpGO\r\nONSwmzeZ45Q4SOG1OLiGjziIh1o4HIysOGBisThBSoc4ymbHOFJp+ThHRiQ5bqRSOTwFajiKstc4\r\n5nrqOGyG1DiZG40428oQOf7CbThxUIQ4s2spOBtKAjmwxYE4d0f/OBt31zh5ycI4pW6POKsVFDjg\r\n7wc5zCCAOLC4STmYkxA5yLlyOFUpDjn0Hao4zMcOOSCDqjgEiZE43klwOPaCZDjyOPE3vUIROE4t\r\n4zdicBE4iFftN0GaDjgcSOo3bsR8OIaOKjh4If43wttvOJ0QnDgxDRc4bcf1N57wyTcw3mQ4K5th\r\nOLOFSjglcUg4YMDLN0OD/zftWTw4TnsEOBUnFTg+EDc45V91N6WoEjhh2wc4jiuGOPMbDzi6eNE3\r\n9r6BN56RfTdgfgI4U2MPOBtoWziBc483qVPhN1fYCDjJvZ03yXGTNxbN6zeskq432ywiOK1M2DeM\r\n8xY47GfoN1RfQjg8yJo3bkx+OGfvHjgoM4g3odK9N3TOFTjldYA3TkNOOP0ukzcpqCU4FpvYNwYu\r\nXDf+XIw3TlCZN+DxsTeuuyM44PcdOMDyGDivYuA3iQUZOHP5vzeGnkY4UxrzN9zsoTc/PCY4CCRc\r\nOJJI0Tceb0g48s8dOIkVxDeR8NE3oHq1N+VqEzggRQw4lC2aN6CzyzescVQ3cIQ0OP2b6DdtHWU3\r\n4m2gN1qw9zeo7z04rNOQN5omrzcgmgI4edjoNx4HzzcwsE44jIieN9S62Dcw4lU3oGkkOIf/Czir\r\nKJM3a9yWN9OvLzj2cMI3WhpBOMIF1DdFpo43tImzNxevMDgxvwY4GJ9mOPa5IzhkVRc46pZNOA1w\r\n5TfakGU3W/bxN2xmADg4CDo4KWyGOJCpwDfSbwM4dqKHN6cHOzjtCQA48TavN2PSDDgi6tE3LtCY\r\nNz9CDji3VRk4RDPgN8KqITi34lE4GIujONxsnjewpNY3kmhTN4yvVjgJEIk3bnL2N/7P0zeQ0Cw4\r\n1qv7NwRPyzdewgw4ZaSXN3a0yDc1nIU3hZIaOIrB+Td4gaI389f9N+zRBzjEP+c3IuDrNy7C2zew\r\nrQI46dopOEPr9De+kJQ3faxuN8cy+zc4zfk3+nH1N2OzpzfW7fk3aziCN5lYkzefpas3ZZrJN63+\r\nKTd59PY3IiuQNxs3LTjHUtY33ycmOF2W6ze+Klo4LHw7OBYZnDfE1O03pR3FN7QzPTim8So4AZWF\r\nN8IfrzfBgxc4PRRnN/JsojeWSM43jopWOH56VzeFnak3swkNOPK+rDcYkLU3EhfkN6hL3DdFlgM4\r\nCV72N1RTsTd+V4g3pH7dNzTEkDdq4RQ4lkbQNxZjSDiYg7Y3oEynN+9jFDhLJlM48ofONwkglDdS\r\nUnY3nEzTN4xePDgeNZ03woz1Nz/dGDhy1cY3JmufN7UvyzeWhfc3TEjpN+l8fjhPkMw3RGPQN4LY\r\nwjdKJFc3eoUIOK+edTe0h2c3ZibQN52Dujfksnk3mycDOLWmTDjrXC03SZ8MOHE3FTiICZY3ijLu\r\nNwjEizi6xdg3P2jIN3YtxDeqljA4l06KNy+gizfSWpk3PNPlNwe0vTdv6n03frznN/Pd6TcAGpk3\r\nyhnJN+YAFDihoZo3nl7BN7V1TThj5II3K1oiOCNgizcK68w3dHroN746wjcLdvI3uTEmOI6WCDhW\r\nK8E33XKINyYdKjiotn83f0xkN2ViZDjZ7SI4nxwOOH53FjgSYSo4SX6xN3AxlzfId5U3U+HZN60A\r\ndjf+2YA3lTyeN5ZsljfKGiM47pZPOK4w2DdqGZI3nXIHODyL0TcIAec3Cx+0N/XCKDivhiM4r/a9\r\nN0Q6KzjL9Mc3LlrEN4KrZDcaoR04tIACOFR4Njj83oQ3670hOAhE6jctqQE4ujo3OEGJTTf0uHw3\r\n4hCcNzKOHzeDDAU4UCUOOCpDCDgP8Aw4ERflNzq00zXutEA1IlYRNuooyDXCGzg1dnOXNcgB1TUo\r\nAs811Op5Neo5LzaaGI41vuNcNeGMPDUAFoM1YlqWNR6+/jUSrZg1/6uENRaBrDUzhks1TndONfCE\r\ndDXuufE1RaXMNRPFSjUHC6c1eMPaNe/LoTU467o1xhCTNa3Y8jWEuz81VC6HNRD+JDVggLo1OWGB\r\nNUIq7zXXAoY11OgwNR6SzDUgWns1ARaRNYaA1TV+xP41zNUDNky4rDUSbWc1mjFJNRXFDjXmJlg1\r\nWLyLNSsPbzUGMDs1EXRbNThepDSVPUM1IYCuNUa3sjUDt7U1BX1NNaqRJzUOaZw1ShOsNV6hbzV4\r\nlRA2EPCSNeKAlzVY0Vc1XqhfNYR1IjUA60U1YId3NSFQfzW5DJQ1fp+TNZ6GhjX6mrU1SzzVNbMZ\r\nUjWE9oY1iONaNexTaTUcg5E1vnp/NfHksTWG5RY1kYBRNf0ArjV8u+g10PWDNeudjjUo+kw1BP+0\r\nNczmzzUOkAA2aWmTNTPKqjUekL01YWYYNhgYTDXBJ1Q1oLBtNT1fbzVRrak1VY5ENaALhDUvlSo1\r\ntCthNWDHNTVoBVY18FqENaColDUk5LQ1T+UDNT7NLTUmwmg19uWINcwqRzXNw0o1x4qmNeUgQDV5\r\n5Dg1ZZx2NfMMsjUE4n01+jWCNTS8bTWdMH01qbKfNWxRczV/cEA1Uh5bNbwnjDWA6oQ1HsyLNaLs\r\nozUDEFQ1PtpPNfHwJTW8P701jTkQNo7xKDVg4/c1QmmVNXl3RjUpAWs1nuh+NeaYrDULsN00zSad\r\nNfZmkTWt9wQ1uW07NVf13zUy+zY1Df4aNuDe2DWbrMI1YnFnNSBJozXzs881uTGPNSvlrjX4t581\r\n3ifvNfIemDVqfYo1iFcCNliehzWnQ3415bBINTR7RTWNf5o1X8BjNZ54yDUZ8mc1+936NA8SUjUw\r\n+dY1/LwSNeG5gjWGZG81s46HNdOqxTUZb3M1KIZZNQxMWTWfBoc109U7NbyCDzUXljw1YhwoNejU\r\niDVwHLU1C42cNbqLLjX0fis1E9HxNKkFkjUVwRo1hRiONQoqBzXwUjQ2pLWBNdDHBTWqYqs1v6NJ\r\nNVvwRzXjFA02Bt3YNTooizWSMIA1CSAsNdcBYDVsJKM18i6ANQHVNTXa5lQ1eZIbNcYggzWqpz81\r\nUqiMNaIhlzVAf8Y1YQlpNae6RzW/RR818tC6NY6TpjWeoUM1YLUJNmcsMzXuSnA1UjWCNRsNsjVo\r\nF2k1dGYkNYfehTWSxuM13uZpNbCUhjVNpSc1vQupNe5JSDXZzzA1/hIoNQ7BHzXmygM1KhFaNRcn\r\nKzVxpks1Qa1rNTk90DWwFpA1QNKONUq+mzVeo+Q0kf2INSWOlTU7mTg1pV94NWN26jVtOew1zCJl\r\nNYTpdDUgaFc1gMgsNatotzUphb415mL9NJJ/KTVXMjg1VWmLNYSUlzVVdmg1XC3xNC3eKjVhF1M1\r\ns2Y9NXn+OzWobCE1q0RCNTiJhjVoXZ41pMaYNchoUzWE7rg1kzVwNeKrPDUSgSU1ltBANUcsOzWK\r\nXjg107T1NMbOaTWOVJg1VS19NW5vVjX6NQo2IPlANWygqzWBnyk1qLdoNSajUzVof5I1808NNcH6\r\n4jUQAiE1oCNhNUtVRDVU0z81NHFqNaCDuDUg50Y1cy9eNbQbojWw24Y1HIKTNZBSgzUCvEQ131Sj\r\nNeLHAzUQDBc1iKBdNS60PTWcHGY1pf0kNV/hUDUx6201+7KHNSi1bjWaAJY1UmqbNZLwwTVUsAs1\r\ngKGCNVsiVDXE7Zk1E0EpNSgKJDUlWZc1e4JTNat9iDX+Mu40raAlNXTsYDXLfIQ1kisgNUHsLDWY\r\nK081DlzlNBt2CjWbsH41620HNSyPvzVImjY1PgBHNfHDnzVhI9M0Ijo6NSUWFTXpnS01XZkyNXUM\r\nWTUNi7Q1t9kXNX5hITVopIk1EVGjNctAcjWgtP00nkuwNekLIzX1m3A1/k8MNVd+BjXd9mM1SHRl\r\nNTxnOzUVv2Q1LXmvNSIHczU5HAc12hfYNd9OHDXmb2I1wLUgNVwGMjUiMc81436HNdqhCjV4Sn41\r\n9Md3NdIxcDXcTFg1IPlHNTLONjWKzd00HO2QNZbDbjWTJYk1ftLqNNrDYjUsXdY1x3Z6NR5mDTVk\r\nfpM10zwNNcHSvjTxkAo133IBNZHVbDXk8yA1IPYINjJS3TSHb3w1O0lxNZ8/NTXx46g1KyuoNSB/\r\nezUFL2k1vpS8NZsZIjWZlXE1A8A7NZKQpDVkw2813iaCNYWzWDUr4P80xhNBNTzRozWABTo1hDqH\r\nNbz6zDUT3UY16ZhkNWq4ejUoM3Q1cx0BNeDWXzXgPKE0Z8AVNWFUyzS2A241YsI+NQAARDVLrGJA\r\nYlztPcs3mzwozgQ8S7RrOy6IgDsRqOM6agSvOn7G7jp7nA06BuiOOm99IDopWAM6y6wnOgBnADpx\r\nnRI6BlRcOpvl8Dl+0xs5ufh+OWfdezmWFYw5V3rxOabCjjl1kr454nonOXwHMDlQRSU5fnLFOT7Y\r\nWjmU9+o4g+L7OAjADTl5svE4k2gOOUVS/DinKXk5TJD6OCaSOjj9ESE5+631OIU8lDgsWLk4EKOT\r\nOBIaDTkKoI04lXOzODcauzg/Pb449QzPOEp2iThiHZQ4GZqIOLtLBjnAEL84FiTFOGHN7zhGwBs4\r\nlbJSOE6KpTiLNG843UNfOTLdlDhR5sk4JNqAONBv5jiup484JPhFOLtu9jhb/3k49IWjOKk+WDhK\r\n5JY4osO1OHzVGDihABg4VigSOeyxwzjUkTQ4A70LOFy58TfMhDw4YISHOOKEkThvBIg4FCkkODa1\r\ncji4ATc4GoFmOBPpeziSN4o4OPSCOKNPNjiAPbE4I8+sN6IBADiKehU5sFOIN7vuXDjLRUU47JE7\r\nOKzcNDgEEgk40k3POHDOhDiqBPg3XL/gN5qOPTgkhGs47vAjOB6/OTiy8zk43Mc2ONmHhjiUOko4\r\n3L/GNxXPCTh/G4M4L2LyN4pCijflce03g00OOLfRbzh6Z6c3uqY0OCrEhjhPf904Xv+dONijTThY\r\nW8w486uSOPtMyzdBr8U4GwwhOIijRTjMmCA45k3+N2CvPzgzwLc3toB0OFm5pDiovUY4hXhWOHYq\r\nJzhKeg04hyZDOBUOjDiQkJU3/xHgN8jl3DduIx84eFqTOLJ1wjc7N8s3sCMrOMoSCTja2lQ4xXnw\r\nN6f7/Te0HRg4F/IMOMxgXDiUnyk4dpf8Nx42OzhuHAg44LqoNwvOwTd+grE4JbJGODiuCzghDTI4\r\nLsYoOBdEyzdw8/I3GsvbNz/+BjjdUsU3EQf4N6DNMjiuLyc4nnQROJXHKzj6j/83fUaEOF/N+zd+\r\nhgQ4/btoOO4XZTgmOx04bIscOFSABzjMzaw3hU6aNyZ+AjgmzhY4IAbfN8QSMDgdmIk37k0UOGQY\r\n1zfPBb83Nv6VNxWCYDg2p683fgUzOC6poTcXoPw3QICXN2osKjgvYkU4z0L5N2DQYjjjnDA4dt/3\r\nN0Z8wDdGWUw43/OQNwm9wjehoIg3yLIlOBxbODewrO83e32yNy53DDjHq/03qJ81OMqcIjjkb7Q3\r\nVWa/N0HFXTgIuCM4CpwFOG61HjjLSvs3DZKyOIPW9zeUOro3SJMMOF6TITjhH9c30Wf6N9VFsDeb\r\n9iw4kzQvOEr7FTjBsoU48r2pNwdr2jdNnBk4pCwoOFpTdzjCIUE4A5UDOI7RAjgm3H04L5ITON5n\r\nrzf9P683A+KbN7XPuzfpqxA4YIgQOPTcmzdh/qo33X3RNxPnCzhim603jJ83OAbL5jdZ0R84CIj7\r\nN6m/jDcu4pc3FfX1N+Ar+zceTRY41k9HOJHY9zdkdF84skqaN1hqjzeBUIs3POtVOPAA1zeVMgQ4\r\nhg/RN4JKAzgePYs341CCN6SmwjfUv9o3NxAKOKI9zjc+VVI4CW4gOE40bjiiF8I3NaHaNyrXNjg/\r\no8k3odH3NiGODzikpz046j3VN1BjnjcnuPk3jBaIN5iVCDhKppI31QD5N26U7TdUKJ43a7GHN4GB\r\nrDe3td43T2k1OFDgtTdm+sI3zEkoOF5pyzcWcI43LzjSN0fYSzhW9B04CJooONvHKzgM08c3AB+4\r\nN9f/4Dc0TZA3zPE1OFqmwTfTkxw4h0TQN0P4LzhCBwU4aEatN9laBjhXeVA4crZIN9yNyTekJl03\r\noV6VN8ycTTdScNo3Ih+LOPE2Ezi411w4UGEbOOkhjzdLqr03Xhz0N7tM3jey2uQ3drjcN1CpsTdU\r\nYgM4AxsxONPPFjj+3o43uSYNOKoY9jdGHjE3aKKJNwd8nDeW+qk3z51QN+54zjeYpJA3CJt4N8dt\r\nRjeHpw83FmjKNxE0BjiHBeY3kuqdN2JV9TfJhzw3aGWcN2FSODglJGE3G7MZOAxohDdYlNQ3A7k6\r\nOEIfXjisyfI3VIoaOL8UqTe/5cE49gvxN5ydKDg9i+03aLOPN3w/Bjip7683WhO5N6iomjeSGB84\r\nRiLxN5QKuzfcZec32t/RN1AMHDgpVN83jG+QN+alizeaCfg3IazNN47MczdZv7I3oB3rN7fHyjfJ\r\nzLI34B7DN5L93DfZXD04A+dUOOVbfDegpOo36jRPNzhO2DeGsIQ3mlyuN8ac3Tfe73834YplN9Q+\r\n/jfoKws4NcyxNwFRkzcua+03TIBaOI60hzfuk+I3yTTKNwbJqjfcy7c3wLObOBspaTcZBx045wqh\r\nN3vDojfLMd033zWxN707FTiltQs4iZ2DOIY8tDfu2M43gAPvN4C1ATgTj/A3emx/NzMv3jcS1Dw4\r\nyrXBN45YjjdF/JA3OEYIODC3xzcnkVY3PYmEN5axgzfISA84KpXBN31fVDinFb43FkC0N6gYmDfa\r\nCGc39HIZODWaoDeRCyE3eLkROGBTjTdl18A39i+YN0zy3zfMvwU4/LbtN557+TeCmeg3YqzmN2Vg\r\nljfgeAo4ohLONzOXFjjjlww4mrehN1Jymzf1Lhs4XAy2N6CmMjdWrxg4F+P5N2y6uza+ceA3aGCU\r\nN1KihTfKY/43foGjN3SaBjc2lrM3JhxsNzGNCDjjxyI4bg2rN5WtsDdRHvA3yG4AOADxFTi5rEM3\r\nQSvmN8OTOjiIWCY4UDSXN7rKnDfz0+A30jluODCpLThmXM43RBMmOAZmwjf0Iv43fZu0N3OWSDjk\r\nKgo4TGYqONL9TjialoY3OhSHN15PNDeAZGc3zoyRNyhwrzfED+I3+FXyNylfMThaWLM3E+OrN2RR\r\nijeAPrY3rvAHOHZ+Ejf/pAc4CSMEOFTP4zfPbMY3GlyQNwkP/DehJ903HrC5Nx1OmTfQb6Y3RQ6i\r\nN2qdJzd2lQM4HXxROIJZIThQOAM4dJyeN5BL2DdMKa83ziGCN6S3WjfCXFo37Or+N/6HozczwMA3\r\nub9JNwyNnTfCQfI3odErOLAGvzfxqrc3QYgZNkeDcjUUQpE1KtbbNEyVNzXE3GY1YcV7NfPqYTXQ\r\n/AE1yvYjNbFMPjUGcfI0TCkiNb+IAzVkVgk1PX0ONTy6ATXL6RI1FlkDNRrPrzRXL+80Wwz7NDMb\r\nODV6sag0evfQNOZZ1zQuGMI0/E1KNT3F4zTQVi411O4BNTPv2zTqXhM1h9AjNYxlJDVavpo1iKvp\r\nNOdMpDTqs2M1oAJANTpnkTRM8uI0UK4MNcJuETX+afE030KQNY0OCTVwtfE06P83NWZ1ljSggHk0\r\nEF4kNdJ6ZjRQXgQ1X2s2NfDAJTWoujI1AFwMNfkZuDTWK+I0Kp4FNTaWOjVCmgo10CshNa/LnjSE\r\ndzA1AOoJNSrRuTQShf00lyXZNN5lszQcxAc1iFSkNMCI9zRsZ940kP8INfwUMDSJkV41qQhFNdZQ\r\n9TSqjhI1RNHcNEie2zQgqjA1gbHRNObqcjR0I5o0Q5UHNQQnrzT9Ehk18iLJNEl2BDVeFBY18SAj\r\nNV8HtzSzKFQ1ivQQNdqyiDUTGwc1pIMhNWYILDUqC5w0XOv8NLZA6DTkWco0OLoCNTmNFDVFclg1\r\nSceyNB52FzVLbsA04vuGNY+DujT+af806sIPNaWbODVuVMA0vmOxNC7zrTTKnDQ1YxpHNLzvbjWT\r\nyfA0ZXixNOhn4DQbzRU1oAYDNYeYHzXzVLA0Hp9VNbUlIzUcZs40i/fUNLfuITUWwbA02hJ+Nc+D\r\nfzRnb/o0QI/3NNqRGjW2ur808RgxNWwVGTWu5fY0We+oNJYtwjRiEuk0bfo8NWVDLTW6GLI0vjh5\r\nNJIcdDSnWBY1Z4HeNO2CBTWQw1Q1q+eWNJzhFDW34aU0fa62NL+q5zQVo4E0wyTrNPQSOzWrKrM0\r\nVlohNeDAmzRbezY1sGz0NKY9QjUNTt00ujGHNcjY+zREyiI1F0X/NM/N7jT3pp80jBSyNE/0sDSz\r\newg12j75NARs4jT06Zo0CDZkNW3/sDRKxuw0/6OBNPuhIzUEkJA00d1wNCyEqzR2/Lc05mrnNCNP\r\nuTSaggk1IlUANWB5ADVDn/Y0mQKrNDuuAzXfC4o0jWdFNezHpTTuQbA0HvblNPy8FzW+kcI01MgI\r\nNRliyzSFtgk15pQBNdh7VjTvM9s0LhukNJApqjRvIE01+vttNNuiWzXUdl00R1h4NAR1/jSoHQ81\r\nG+0ZNdEb5zSMEOI0HImGNJDbATXh4W01KDprNLh/rjS+Tq00zp0VNZ5P7zQuwuM0xBeoNC7GfjWH\r\nNs80iN8zNNZW0jSGbN4067mVNH1ezDR86GY1etESNRyQqTTOXE41WRPENPHDnTR94b00YOqqNFd0\r\nezQecPc0xK/mNOMBzTTP7Ko0rOSdNNUlfjQmPes0nOSONOUEsDWd/wQ19TaxNKECOTWEan81MGzf\r\nNJO6OTWFLI41BrEqNeshvjSCkuU0yjqfNP6JMjSn4fQ0M/KtNBrkFzUYuvU0g1OBNA7AWDUlO/E0\r\ngnUqNTzGmDQyaQo1UPgDNUvWnDRRi8k0aHECNU3IKzV0fBs14bhhNZR88DSDyYM1cEP+NJRtyzRU\r\nPd80uZKENG+wpzRUDqs0EM1cNViYazR+WC811uoKNbGM/DQ0LMw06ACGNL5FOTWBTs00pMxbNdNI\r\nkDSjC2A0FyauNPhHhzQMxvo0cWAPNdJevTSLiLU00rcZNR72pzQER6400fwXNaWpjzQYoDk13Yc3\r\nNYyytDR8KRw1O9PBNHc4ITWIrgk1z3MSNQrMnzTczsk0KYvmNKvAzTSDWX000s9VNai7uTSrVCc1\r\ndK+2NGMI9DRDbgI19HPnNG/JhDRt1bI00neCNCJJkDQciaA0vclcNVDZYjQYtZg0e5S7NM661zRr\r\nVAY1nnOfNM6YvTTCeZU0BMjKNHgkOjUZM9c0KbctNa2MwDRfqQc10g50NBobpDS/Euw0+NcZNQ4T\r\nzjR4r+k0VlCpNA6kljQdhJw0opV1NJVR4zTIliI1aOAdNVuXjDWc2q80S0IANXCdgDTOroU0/VOx\r\nNI0FDDXkedI0iAeINXw5KjUC6do0yKb9NCuXJjS2/600bJz7NJxUHTUadNs0uKgKNY1IjDUA7N80\r\nMl9oNHXc4DTCzxs1oM3ZNIPpLTXoa5Q0hEbwNBkcrTQ5wNA0ju6TNAS5NjUrJx81aE+YNG4RxjTv\r\nO0c1dujTNPy+BTX2SJ00XncnNUhFHTUKRKs0s9Q9NELusDQTyzM1+2L0NGkICDWsLco0BgdfNDG1\r\nJTVidC01ksw5NX4NlzSkm/w0Y2b7NNk/mjT43sk04hDtNOpswDQercI0ufq5NP58wTQYGqE01B4M\r\nNSVocDUFPLo04bYANYgG/zQWr8005726NDuxkDTk4pI0ujX9NBtLvjQZ2IA0AADyNA==",
                            "noiseTrainingType" : "default"
                          }
                        },
                        {
                          "effectName" : "WinCompression",
                          "category" : "categoryAudioEffects",
                          "parameters" : {
                            "attack" : 0.0,
                            "gain" : 9.0,
                            "preset" : 1,
                            "ratio" : 10.0,
                            "release" : 3500.0,
                            "threshold" : -20.0
                          }
                        }
                    ],
                    "start" : 30626,
                    "duration" : 925,
                    "mediaStart" : 0,
                    "mediaDuration" : 925,
                    "scalar" : 1,
                    "metadata" : {
                      "WinSubProjectDisplayName" : "",
                      "clipSpeedAttribute" : false
                    },
                    "animationTracks" : {

                    }
                  },
                  {
                    "id" : 110,
                    "_type" : "AMFile",
                    "src" : 22,
                    "trackNumber" : 0,
                    "attributes" : {
                      "ident" : "Narration_fracture-2-czm-element 18",
                      "sampleRate" : 44100,
                      "bitDepth" : 16,
                      "gain" : 1.0,
                      "mixToMono" : false
                    },
                      "channelNumber" : "0,1",
                    "effects" : [
                        {
                          "effectName" : "NoiseReduction",
                          "category" : "categoryAudioEffects",
                          "parameters" : {
                            "denoiserAmount" : 20.0,
                            "denoiserThreshold" : 0.0,
                            "noiseProfile" : "JnshP56WPD1W0sw8rLCqPDjJWT0uThM9Aog9PXrfyjzGB/Y7lbyuPKd8hjyDhRI8vsoQPZZi5zs4\r\nXcA8uL0HPJ0ztjtWc507NCVeO2ypvTsyn1M80PAdPJSLaTy3dlY8TbVfPDjWrTuBCrs8RHFkO8SL\r\n8jqS3QM7Uk8sO6U3Tzr0P606nH2sOvj0pDrgr9g63GyaOjQDOzoEyQ06cuoiOoWaGTvdA8s5y8al\r\nOiaXRjqQ6ro56yNsOmRaOjrs0SY61cxZOk3FCDrDdFU6mKsQOoSaEDrdbW8659WEOtYqVjqCBhM6\r\n65NDOn9k0DnmfwQ60TqpOcjdKTq6VTQ5elWiOvtRqzrnBp46fpYHO59i2DqrK306Va2KO4snZTqC\r\nJag6yLhPOg4JWjryiao5YfEJOrYRCDpK4AI6nyjfOfWHlDkm/L45X3CKOncYBjsF6MY5oMVxOb/V\r\nCjrjDMI6P7h0OuCkETqTngY6PCw1OQ4Lmzo/EoE6EC4cOquHtjlNxuo4f7AhOX+O2TiP1zU5ypcb\r\nOfdjCzkvx7M4i1mnONYZyDh1ZZU4wm8LOd/5azmbFIY5jifeOD6+ijn/Cew4JcvWOOFGIjkwNMY4\r\nsHo7OZ6d5jiIcIs5NQ4AOTgYnjhTuCw5aGzHOPvexzjhyqc4P4SfOMQGNTk7hCQ57N7iOLdRnTjC\r\nzKA4iKwEOb50gTiACIM4hANWOE93vDgMcuk4OPbAOEjBlDh21qQ4S4CNOM11kTjigtg4VouCOLL3\r\ntTjEgFc41xlpOBxr1DjVUKs4CqNeOOy/yTjJbGs43NkjOarJpThlyvY4cxaLOdRMpDhV2xI5/VRs\r\nOQnERDqpE4c5dqGBOJIg3zhovqw4ZAMDOV0SxzgIhqI4uXklOUZrzTjk+5o4PIenOO5usjnasUc5\r\nHQCnOMV70zjqAlI4aQjJOOXdHTkH6L44O/euOPMvATkDdaM4cfWeOQbpwDg0hbM43j98OOUDATkc\r\nlfQ31u4yOVD10Dj0FnA4I10XOFMtbTgCzk84kcIlOFZuwjjULBw4cHHvONOdrDeUkj84gln7N5BF\r\nzTdaHDY4DJ47OCh9Gzjm3fI3Q9g8ODAtDjjiP9E3GxIrOJF5hThCWb447CM8OD6nTDjYeQU4LTEy\r\nOKpHODjMbWY47hGPOH7nfTjIL1Y4fDOGOLatNThO/bU3/tSjOJuV8DcDZSA410/UNxNqOjgkwQk4\r\ny6YgOLHIczhjw3c4CAqlOIwkIjgEVho4Yp9gOA076zdIgd437W5UOGPf0TeQS1c4E3knOIIhhDj+\r\n+1I4DmnhN803QjiTf9Q39gyJOMvqQzjmFec3txc9OEW75zfEmEA4I6I8OENPvzdS9uQ3AwMCOKaH\r\nHjjAjYg3j147ONbWBDgxIrQ3/pcNOLbtojjzEYE3UEyWNz5qZDiQ7w84hCD2N32wFTgTPp83JX07\r\nOEwo1jdKe9U39sS7N5RFADh32io4bcxAOCJh7jcuqDo4BrMSOJZ96jfwBx04PBsvOHbvITimwis4\r\ndkzzN859iTcLtpg4WthWOJrPxzfH3E04+ITpNzbE1Tf0Gso3osAxOKp1BjhA3Io38KQTOOV1mjfC\r\n0bk34lonOCpTUzgNijE4sXJDODUjmjfoaFo4kIpMOC5XFTjl3Lk3uvrJN4vU2TfXqNk3lQrdNynO\r\npjekMX03feUGOJzxojcOV0M4dRQ3ONj2SjjPILE3yuk7OLmlUziTVwM4QcIBOI2YOjhKtrY3Jq8V\r\nONAWyjfat8s34/4uOGc4AjhUN+A3tr0iN20rKjgUUA044lXMNyD5ojcBQsk3TCalNwj9sDenSJ03\r\n16OmOCXauDdlKBY4BFcAOOHZzjfKccA3qGszOPRllze9s044ld3dN41+AjgSKW43bJ5qN5in3Ddn\r\nfbo3VNPeNy1ZzDfCRwI4YMjhN1IdFTgNI1E3ySaeN7t0AzhWM/43G4XQN76wDTiCF4M31fvyN826\r\ngzfM/hE4/vgWOAyntDeylu03y6LCN4ri+Ddflao36VC1N8a9CzhIbOs3Wc1DOHDyFDiJoDs4fZgy\r\nOK3HDDhBfY03LROfNw6evjcokG43/skgOG8hFThi9eo3cZIKOFY4fTd0vMk3QEMSOG1T3ze+7sw3\r\njemUN6HSATjASp03AqF2N8bj3zeUF4g3mNtROFsQ0Dcliws42mnUN0DtCDi8XL03GSG2NyGI4jf6\r\nTQ84wbv4N/SB4zdkQKA3ll+BNyTRQDhcD+s3j50gNw8TszdiY5Q3v8ysN7tfxjfpDS03ZJELOGrL\r\nnDcxkIU3ji7INy50HDhnMNw388cBODg1QThoWMA3TwiWN+GUjDewaqA3bgPRN2QM8TdvXwM4OwWr\r\nN1lUvje6k8M3dF2xN7Rlujfovaw3VgsvOOt+GjjXrss3h3tdOMcWpzdm+6Q3umXVN4es4TcWqo03\r\np9ggOH7c3jeOh8g32ArvN1+eHDivzBE4gr4mOEdr+zcCZTg3ZtMWOOA/jzdVjJo3LFxfN2e1yDdg\r\njIs3fmHVN75rtDcwjNE3ca7WN3PU0TfjFf832taCN9wU+ze9jjM4n4+vN2qn/zdSAzE3ZNq2N1Iw\r\nyjdvtbo3bNjON9ZhATh/w6U3/PV5NxbCHzieSas3XrXTN8x59zfWyII3KwjnN5BP7TdQbdc3Wnod\r\nOM/7BjfEwvQ31LshONXbozf+boo3XewmOFjSqTeZdg04wemnNxAbkzcIVYw3VEwUOIU7ijcAEOE3\r\nfpUzOL1yCjjOr4g3/lqrNy3LzTeNHq03vd7zN+WA/TcNS/M36q6uN3brljfDKpo3t977N/o9ZDex\r\niLQ31jrYN5/kOziuYpg37PI8OKiKDjg2UGk3TrbeN9IpLTj3qFU3WpuvN3XeODiwMn03EB70N6RL\r\n8zfcbe43fPinN1KpyDd8rto3sB8DODXAXDe6V9Y3oriIN6AhQzcqy7I3UATUN1Tm9zcqr+Q3PsXI\r\nN79xuzeidy0490esN5oB6zcyT4s4/px5N9or9zdW8ZA33tkgOAYOKzizjKY3sfemN3kGWjdzVxU4\r\nSATmN95Xizeraro3FTcNOCrsZTfaL8032OutNpGjPTaNyko15Ed6NbDsxDWAhGY1gh1rNcgtADXA\r\n/h01XuAvNRboBDVH2/E0sq5MNceWSDWiNxU1snTfNMEBtTVQGQE1sUQ2NRA1PDWkcrE0qwsxNRap\r\nBzWny840Oz6GNXx+4jRonig1Fa8QNT4erDWQyGs1hhU8NdmoBjXM5Cc1+U+LNVRslDS+us40yMPt\r\nNMsDWTWoJCA1TlEoNQEcNDWgvwc1VBGDNZb/JDVuog01FkO+NBZevDTi5gI1wT+vNAid8zTL5Nk0\r\nUtwINVFjazUy73I1gFAQNbaTJTUy4P40HF5ZNaZmCzV6JKc0VBS3NDOz/DT+7uA0Hr+ENcr7LjXh\r\niRI1HkD+NJGgDDXdWlo1HF+wNKzu6TS6Fh81iFbpNEASJjUy+SA1X8AZNTOiGTWAjh41Mko/NbvD\r\ntDSIN6001BP8NCew7DTCuwI1mgkmNVlHNDUTSM009lpFNS1R0jQPrGo11Vn5NAMA4zT3YKM1wVfa\r\nNPJxtjSTbeY0Pi9zNdbCMzXwM0A1SIILNQbm1DQEbMs0VyUsNdQ/3zSh5YA09TotNSgxrjW6mko1\r\n7MlUNV+4ATVuiQ81Du7JNCzqnDTm0zQ19YtlNVrchzQ59oI0KIDUNHAr1DQYBHQ0yk1xNb9eDDXR\r\nmQw1rVwfNRdTKDWY4Cw1vEzVNJYjGzXqXZI102jINAiHujR6xbY0YNVbNSU2FTXIo6g1S8rkNBFN\r\n+zSqd9U0PqVNNbVE1DTaUMA0720yNchsuDTHiTU1C7mnND70jTSEIC41P1/7NBYKWDVydsg0/izU\r\nNUFWbDQs2Lw1oqoQNaaBSDXaxIo0huCWNfaf3DSYRwI1TJAkNUy3GDWcarQ09n/nNGQIvTQxgRM1\r\ncBfYNGKNITV+l6U0XepKNefNjzSXtKQ0lOnlNAZFTDXO/T812xV0NeAw7zQJlmU1rLsINTArhjS2\r\n5/s0bjHENBzqsjTwaHI1LRHWNNjRHzWumdE05+bcNJ/F8jQQZL40jKtFNT3KDDXR9MM0LlgGNaUx\r\nAzU7XQA19Vm2NBDQLjXkjQM1vJAPNYtyyDRqDOk0Q4LcNH+Z4DQmcE01bw6JNWhBvjRvNfk06y6c\r\nNJ2B+DSwNJc0llEKNeOBEDXPfjI1Cx9kNZNXyDQdxc40HriMNRoNRTWI+w81BPo1NGn5TzUIwjI1\r\nMMEANbwItjRSbfg0qN3NNAzTRTW7JBY1YTgfNR/l6DTkUbA0KMEJNXJ9EzWWolg0RYaJNQgYCjVh\r\n4gc12EKwNObcETXMGPs0ysMFNdMZCDWJFTU1WBbGNHAuozQJugQ0eyMHNZsaDTWaTKc0kYyaNQhd\r\nuzRg16o08OzSNIo+8TQLsCA1uHc3NdL7PzUHaMc0vbApNbCtXTVJfOQ0i7+4NGFC1DRpR+00SmEF\r\nNZJt0DS2ORw0vncDNR9MLDUIpeM0+l9ZNQyztTQKEzE1tTK2NGc7rzV1+c40QoHFNLczHjWsWOY0\r\nUhgFNeQr3TRcUsY03EkiNQ7HRzXUtB81JXnGNC1UTzUab8M0rwQhNe474jSsKWk1sPx/NToL6DQ6\r\nxpA0DayhNG+d4zTriS81UJjkNLtNDDUkIrA0Ypv8NOLtPDSwHko1qO3UNGV0GTWY3B01IIAPNXHv\r\nAjU9eRg1ylc5NeZ0ITV9fec0Nyh3NVtiQzWKRmQ1xzQqNa3yMDU9vIk0N4H0NBtpdTWUytA0LoEZ\r\nNU08SjVDqoM0mADGNIUFEjWsZbM02dq/NBG99TQSFkI1dJArNQK7xzT2YxI1u0v8NGG7KTXPjtA0\r\nFuQUNaIGvTSEuA41eRhpNBro1jSCfbg0ilfrNP6BJDUEW8o0xJ8JNcl3IzVmwTA1YuwNNUllqDRY\r\nOuo0doCONYRoUDWKXhg1W9xENaay5zSguOs0sNYFNYtPBTXoKt00YgTRNHBCzzTOBxs1m37+NM/m\r\nSjUDcac0NOG1NIGk3TT7nxs1rzkINZVYsDSgbCQ16p+jNHV83jSBgoY1ATPcNNqkwTT8xcA0CDHz\r\nNCRCGTUBPSI1xHrONC88/jQ0YEE1BRO/NJvMETVZMc00LojENG2PMjUIzes0rr40NfaZozR9N/s0\r\nV2q0NBAiMDXoXBg1PLH/NJT47DRbNE41f9cdNR9axTRSxDA1HqsdNf+txTR4tec0NBhdNSaSszRh\r\nrxY1hlzPNL4p4zQrgOY0ZrDXNLAvjjQo94k08Jm/NEfcHjVLAmU1DN38NP7jpDQyssU0GyUWNW1b\r\npzQtTRk1h+QoNVhGATXY17E0wk+oNGK1HjXDXQA16bDFNJ4EQjXYpCQ1DaoXNVHR+TSK0Ak1uq4E\r\nNd6wuTQzdks0IrDWNNBUFzVcAGQ1Ag/oNItT3jSKfm41Fh0zNbij/TQymAI1xvwbNQCA3DShnjw/\r\noYNtPUB3rTwwjzA8enEnOxYl7jocUTc7nfXyOZBfuDpws4U6gl6HOVwvHjpabvo53sYFOv7RNDr4\r\ni7I52wKzOT2OiTnn/oo5QpXfObehTTmk3U85Wl8UOdFWiTkMMiY5rPAHOejpZDnF2gY5KiJmOQg3\r\nzziyy3E58NPaOJz8TDlhJAo5VDI8OR6G5jjCINA4qH/TOHOr0DgWkjU5nxL4OHwVvjiLiS45eKk6\r\nOTj8WTkAwAU57LfqOZF/iTgM+kI50F/lOJ4/FjljYiA5LnXcOBXlzzin0bA4NwkSOXiK3zgwpwo5\r\nCoeqObBM0DiZvjY5Uoq2ORvriThhQxQ5qJzwOJpJHzmxKp04OtIGOa6IATlOXJk40KfPOC7q3jgx\r\nYuk4BGyrOKrAaTicac84Cs7LOE4tuzhetOU4uf+BOEvKITiFigE5Vl6dONw7QDkRQxQ5RtxNORc3\r\nJDmHpyg5bvtaOTK8YDm8WX05ye+COQ/XtTmlHGU5pkMIOc9vDDmx8o440xq8OE2tRDnJ3yE55eGV\r\nOH6twzg4xaQ4kHJuODLiizg4pyg44FVHODxNkThhIKI4/FZeOMe+zThIbCY5XPpkODpzuDiqrq84\r\nF2NQOA/y9je1jj44AIWJOHtHFzhdaW84nq2KOLcBgzjIlN04/FneOHRMmjhEHOc48HR1ODhOdjjS\r\nZA455GLuOOVC9Dja5YE4hZhsOF8LhjgXo384IpodON4kNDgee+44dXpuOIWdqTgHAog3AsmZOAzr\r\nDjhwF4A4coSNOKLukjjzJWQ4TpWFOFBXIDhhYbw4JPVAOJxMHTgLkUU4urHOOGaApjgyZEk4TWiN\r\nOG58ETgJPi84aBzrN5xNHjgFPkU4ol9IODdtJzjpg7430RFfOOaXizgg85Y4MEslOGz1zziZilY4\r\nHbFMOHlskzh+rUs46hUjOD13LzjE85Y4ZmzJOIRrgjiY4984WghxOAFyOzgSgmg4CtIzOOe0HThR\r\nIIw4Sm4tOOxyMzgFx703W5QZODk0HzjvHFc4kFmyOC6sYji8cz04zv4ROLNAgDhADBQ47KMoOPz9\r\nCDj58M03yBotOELJiDhOTA0490whOJx53zdg0Ns3yl3CN7/dRTjCQfw3Pq0pOPB+XjidBAw4OgX1\r\nN2hMojdsfZE4t/GbNwpwvjc8uhk43lzyN8OfEDiV39s3nGMkOCwaDziFHXU3D6TKOK6yuzfwxSI4\r\nqktFOIDiUjho6Us4KQROON+TyTc7xLM3r0EROOGuijj2KWA4Su2WOPfiGTihjQc4QwR4N77bHDhv\r\n2Pc34ZSVOAx2OjingEU4vhyNN75NDTjojoQ3QdiIN3sSvzeeRQs4b3+jN3QnzTcbpNk3WIDBN6I1\r\nJDgw8XM3akE4OGBzMjiHz3c49663N/qk4Dezu8I3gDvlNy06PzhGW9A3TPLwN7OvTzjCnqc3wUAJ\r\nOMxqCzg3hxE4nZFfN1jZyjeXifM3JKLpN26pIjjrbfY3FIkwOJLqwDfuqRI31bhvOCSUAjg3GSQ4\r\nEImZNxizRjgl9BU4MO1HN/u+xzfnWzY4SnEmOLP2NTg63pw3W/+YN10mAziVKMQ3zIOmN6RYHjhi\r\nSeo3g+C2N/E2/jdMOvs3q7oHOIYJJzgIl6A3bWeVN9iSujcIH203zfGkN2yusTekZQA4u0IXOMHD\r\nETia6sU3BXcjOM/ctTdmUtA34um0NxedxDckSks4m+ooOAPpvjcq0xY46SD8Nyhp+Td9qMc3Wbpj\r\nN3ZEizdPUo03SOoAOGuDGDiAJ5Y3D7X1NwcxRjeUmOs322a6N386rTcgQsM3RzSnN2kP2ze23YM4\r\nM5IlOP1hDDhQWLw3y0xyN3zA9zfwDxc4PSCnN7R8lzfwJXo3I1ExOKaP+zc+UwU4YImJNwOkFDjC\r\ngog3IvbUN0j4ijecdPI34NkaOCWhnjc6nEg4uBLeNypcUDdcHn040eT3NxozwzfS89o3ujCXN3h1\r\nuTedB4U3Tl35N46szTcimjo41yCEN4QF1TeoYcY36XOQNxxIBTjZI6Y3jFqoNyCYrzcuIkg4MjB2\r\nN+B8Dzi+NNU3yHWRNwURrjeEuZM47vNsN8/yFzinIEo4Eq8XOEh5NTgvuwM4FbyVNz/xnzdG67Y3\r\ni+LIN2/qJzgqoDM3n9qTN4YsDDgG0aM3Sd6RN8IiVjj2pqU3nlD6NxhxqTey+Ys3WM8COIkj0Ddq\r\nUIo32I8dOGA+EDizz+c33deHN/7qiTfbdcA3U9TNN0NFIjiBWXo38bLFNyZ08je7xzU41oteOJfV\r\nHDgnx7k3LPbXN0peijeuwpM315HaN3TUeDeBPvg3Nl8AODq7rDduos03unfFN0DVOjjSyjE46sIC\r\nOKlDKTfSRps37nnTNydb9zeEc9o3rV4nOOi7IDg0ff43HsbpN0iKOjd81sU35Ev1N3wllTccNho4\r\nnoDeNx4PvzfN9HE32uP6N8fFSzjTeIU4nUNbN/TKVjehGbw3SjCyN1FCwjgFbo436cTwN0b9CjhP\r\nbwU4wUutNzP+mTfOtjs48oSfNwX2OTiCiIM32NuUN67zmTcOSj04xGqyNwT2vTcuSJE3C2/iNxFh\r\najfIYHY3vtXbN9pWhDejfLs37Q0COCIuoDc5Q6w3aYf8N5qIAjgjnxM4CmDQN1drUjcnSzQ3hAu8\r\nN364ljeCGnQ3op55N4tcPTcdOag3WgVFOMbPXzfR9ZQ3LTS1N5JTlzfiUVA42rWINwCA3DdssvQ3\r\n/2OJN5r+rTcrcI03nnkjOBbnhTdj5kM4NiyhN4hz3TeJvPo3Q1uoN1hq/zcMcEE4eJxAN1BVDzhB\r\nmbI30nMFOCBV2DcgvGs4EgS6N4YCgDhW95s3X3spN89hODgUnac3yphNN6OipjfFY4s3p0XCN6cF\r\nuTdpUa437YarN1gxZjhedI43W7rAN/9NozfwSiE3UotfN2ECWjeunAc4o2JjN6QEFjiFKBk44YRY\r\nN2pgkjcVlrA3giOpOPY/0zcmiP03xaiQN0Fkyzea1wo4pab9NptPCTjWZ7M3g9WnN2XgNTgl8743\r\nw4U7ONvwEzhvuWM3tXSBN9ZvETjE/pA3v5HsNe49QDX4zDg1d67LNAYXvzR3Jw01bMsWNcHeUjXG\r\nDOM0Dw54NSpM4jQrVMU0CsvDNPQr0DSTauA0cR58NavpDTUh2qA0PkbjNPWKjjTReOo0nLHMNLdj\r\nHDULe9c0XOIsNewxOzWZIyc1qS/cNAiN5DR64d40FBb/NBWmBTW6fO006n3rNMunJzXOhfc0+e+H\r\nNNWvtzQEzXs02wRzNM8gHzV+xwE11G9lNIDrNzWtEfQ0zpaDNI4M7TTTDIM0DtRKNVnX7jQIm6g0\r\nlNKTNJreGDXwChw1G+ffNPQRiTTrqN40MH8GNdKItjQG3IU0TFo/NQrI+jR7vAc12qysNP5dGTXT\r\nVAM1t+NiNNYKCzXljNw0UxCHNXW1lzSJkHk0bdHBNFLeVjVqx640HqpINRDhvTSypTE1UdWNNAKB\r\nxTTw2No0JjhONZr0wDQUxyg1F6R1NDbX4zRN36w0Zg2CNGx8SDXXWgU130uKNOdr6zSACLY0KKrb\r\nNFK4UzWqNFs1G5/ENLjFzTQevq80DPV5NUbUqDTFHkc1ypLjNJ7nxjSRhyg1C+MUNVPQGDV88QY1\r\ncv+gNPk2CjUvrhA1PXDxNPtcgzRLGDY1LpS2NKL82DR86v80ET4NNesWqzTZoOI0sKUlNb5v0DQ4\r\nOaY0RLgbNREO0DQn1ZA0pJrMNMRIazUD5Xk0tE9uNT73JjQmTAk1yH6mNAdOsDRJ6lI01AzFNEgH\r\nPzXAwsg057oDNeUGbDXCFKs07C+lNKw3HjWez+400IaxNKZy0zSgxkA0G59aNbQfHzVXkyk1boXE\r\nNFx81zTeE6A001CfNIQFEjVYBMQ0SCHxNOBxmjTmY7c0hlTvNCgCZTQ4b2Q0IIUNNe59OjU9H4g0\r\n01C/NPDbtTT57Bg17eu/NET3FTWFkOM05tCHNIOqvjQQAz802gm6NOg5GjXiyrA0wZ17NFNiCjUk\r\nHNQ08BH9NGNw8DQ6Jv405L06NfuXsjQmNtU0GmL6NOQhODWpe9Q0BUvANHoTmzQFMPA0B0C/NIXy\r\n7DTfwSo1QlzINMvdlTSgq5s0La6zNFmORTVWpZQ0IPKNNYV70jTa3VE1DrzcNDhfqzRas4k0FmwJ\r\nNUUXUTRryx01lriaNFgtGjWU04s0ZwrINAaoDjX+OHA1Z1HKNEsk1TSUC9I0gKSqNEYGNzXMjls1\r\n/pxENXBYHjUVL7I0RNcZNcDVpjQCQi01Vh/5NE+4STXMVLI0VsQ2NZe+4TRhrUc0AhBINOIpXTUv\r\n+qg0DdqUNP5LyDQJSBw1CNJuNRcM1TR2D/g0RFvZNM8WZzQ3MPU0YSCaNMhSMDXsI5Q0TvHYNHJg\r\niTSoab80FAQLNYhpBjURMdw0usjzNPBTODTiFkk0X8+RNGK9VzXQXXg0qpKjNDF9uDSiuwA1PNLq\r\nNFCsDzXzmZc0FKmaNPIn2TTDk740bZ1VNBe3TDUQtrc0Kj56NePjoTS4prE0NdbkNGxuEzUvWQI1\r\nLJH+NBKjAzXqLhM0SNccNXXKPjXtdEk1LKAENdAJajQVP8E0xgfyNGKmpDT7BuM0WdlMNdoTFDWz\r\nd9E05fYINYI3HDXdHxM1haK1NCL86TR+Xhc08dL3NDZSHTWVOds0ihUBNUevFTRbwOI0FFcENXbM\r\nFzWgwKY0CM0wNNcPmjSBuvs0eVoBNXTw6zTqA/U05pMnNXRz6DQG7YM0iKHHNL6xkjRTfeQ0SbqQ\r\nNMW6yjQX1I406LrbNKhz5DQ0lMk0rEjkNGoCoDQ0o8k0kIEyNQU07jTXZXI0jvX0NHnBsDQD+GA1\r\nleKBNGigyDRCqhQ18K8fNdRvkDQpmxk18H6oNP1MpTR5E4c01PPoNJF6PzSufLE0+VRGNV52mjRI\r\nUaY0iujGNPA6zDSIMpA0U8AENRLLEzWtBcE02smUNEoHgTTGf7A0i5vmNBalgDSeYDY1jDSYNKQ6\r\nsDRbjhE1DbA9NDxBozRZxNQ04UrgNPcYATVtWtY08h4NNYnY3zT+HqQ0GXoKNT6CgDSwy1A1Qr2S\r\nNDf7JDX6C900E0uVNJYVCTQThR41m8oNNdQDGDXinKk0uuoRNeG7mjT3b6c0a8aGNFZOUTUETQA1\r\nvRGUNOkBhTRfuQk1yZ/TNGuTCDW3CwM1VFvnNG7VtTT0Otw0wt7NNDiugDSAvo00WrITNQthxDTj\r\nOnI1OLehNGu1LTXv+dE0Ya3QNJPrpjR0Y5I0lt2hNESrbDTIOLg0XpOVNKKYvDQw/xw1FIsiNAHS\r\n/jRWLlY17nxuNJApuTTaGDY15Hn9NP6DvjRfrkk0WTmkNJSqeDR8NuQ0gvgnNRjj1TTSgfY0JGQH\r\nNcSUJzW20EI1Fr4eNWkpGzVEH4Y0zBVJNbvs5zRCdl413jdjNVdRrDSLJaU0AAAQNQ==",
                            "noiseTrainingType" : "default"
                          }
                        },
                        {
                          "effectName" : "WinCompression",
                          "category" : "categoryAudioEffects",
                          "parameters" : {
                            "attack" : 0.0,
                            "gain" : 9.0,
                            "preset" : 1,
                            "ratio" : 10.0,
                            "release" : 3500.0,
                            "threshold" : -20.0
                          }
                        }
                    ],
                    "start" : 31551,
                    "duration" : 564,
                    "mediaStart" : 0,
                    "mediaDuration" : 564,
                    "scalar" : 1,
                    "metadata" : {
                      "WinSubProjectDisplayName" : "",
                      "clipSpeedAttribute" : false
                    },
                    "animationTracks" : {

                    }
                  },
                  {
                    "id" : 111,
                    "_type" : "AMFile",
                    "src" : 23,
                    "trackNumber" : 0,
                    "attributes" : {
                      "ident" : "Narration_fracture-2-czm-element 19",
                      "sampleRate" : 44100,
                      "bitDepth" : 16,
                      "gain" : 1.0,
                      "mixToMono" : false
                    },
                      "channelNumber" : "0,1",
                    "effects" : [
                        {
                          "effectName" : "NoiseReduction",
                          "category" : "categoryAudioEffects",
                          "parameters" : {
                            "denoiserAmount" : 20.0,
                            "denoiserThreshold" : 0.0,
                            "noiseProfile" : "iCcaQTG98T28BdM9joAkPZh2VD0eDHI+lJr1PnqYzT8eKnA/PN1fPvRhnT2e0oY9yGJFPTjeXzzj\r\n04483sgQPQmujDxRQUQ8Ag7aPLDVOTxqrBw8duFhPMRCnDw+hrc77tkXPIvrKzzmotQ79d1ROm/k\r\ntjuC3Ug78XKHO7zNgDv00yw7zO7NOhSdhTrARLk6fiYeO17MFDrhDq06Dzq5Oi5lCzqKdyU78a2H\r\nOt368jlGywU6U8qUOkbywjorsgk6nfEAOqkzTjr1Jco5eL6OOaMHzzlkMBc6vFE8OhL9uTk03yA6\r\n8Rf7OXRh7DnXOPU5/onPOS39GTrnvLU5bI2tOaH0GToyMKs6QnyROdq6/jlgkSc6rmpLOj7buTlK\r\nqis6EXAMOv4GgTl0TS46KTqAOmjaGjogh7s5OJWKOuxy5jlToGQ6vN7sOb4dozqvdyo7JvgdOwFt\r\n3zpq5yw6TBQvOg+kSDo3+6I6z2/JOmwGbTp+AlM6T+a/OZel/jmrQwQ63HryOWorNzouJJg5cXtU\r\nOXTc5jkeV905PBh7Oby9xTn2pKk5EUGNOXIqpDnK5TY5vT2tOSO8JDoEPFg6I67tOUL1Tznsr2Q6\r\n/WEeOnOqbjknFMQ57NhhOtY0Fjkllwo6r/5mOsY0CzqYzkI6/gHQOeobtTiyE9I5FL22Oc7W2Dji\r\nTF0564C/OD3+HDm+lMY4Yzy+OC7ApzmKfN44snkTOQ48ezmGG6U4R7MGOWP8WTnnvlU59L4bOR+Y\r\nZjleLN85VhH6OeYUFDrcMjM5dr3mORFnUTjW8Jc4pcyGOUG0GzkVhMM59d2dObmJYDlsF4I5MSbT\r\nOIkf7Dh6hm85CA+oOeUvrDgFy2c5G+ynOADlpDg07e44EvSDOI1ZMzlXkS851ovxODrzijjgOGE5\r\nkL2zOdYGjzhSIt848c1DOXb23Dhpa5g5QticOM8yYDlktiU5fUCTOLZKfjgD+rs4PearOKNF8Dim\r\nQA45EwQDOe2gPziF86E4UG2TOF42XTgw+ZE4sVd8OMQ/MDic6zE4HjexOKd7YDjCQbo4SB7hOF34\r\n8zcW4KM4BCaQOJxpiDgF3Is4CsO/OCy3yDjGzUI4cHdWOBRWaTg95yY4/oyMODkPlzjN6Qw4cIYN\r\nOX8aRDhed4Q4EG2SOLEvgDgm5Ls3LXYUOA681Dh29Rs4p4VJOMZ0rzgwDYI4szo+OBWxgTjqYVE4\r\n//kGON/TRDgBm983Lt5kOLmBgDhm99o4pz4AOCBUqzfm/fo39GYcOR/MKTg81zI4nzKUOOo2QDhu\r\n1eQ49JiOOLqVXDkNwXE4Rs6QOIVU8DfxhT04nSqkOCBllzjWVZI4rJoUOFpglDjZmi84HIkXOHTk\r\naDhdbFU4h+iJOL2sTzhiCjc4us7JN6Ch5TdFoUQ4kghaOI4ZYDjiRiY49lLDNyyU1TeKJTs4sgLd\r\nNxD5TjhEZ1A4/nwBOFb7zjd2JIw3hPFBONCxCTiLoRg4VHgpOJobSziJyS44dSwROPCNCDhnNl04\r\nP3EAOIqSFjglwoE37fVbOBylKTi007g3kIi0N0rzkTh3mS040S+uN4oCozfEp9s3BY/GN7SRwTf0\r\nGQk4l48xOMRHCjjQf9033hHsN25H3ze/RUU4B6gaOKIA/TcI7nQ4ER8kOLk8CjidSWU4jNaVN0ro\r\nDzix5iY4ERvvN1ximjicGSQ4ilYROIed6DfxREI47nkzOCSgAji+ODo4kEUUOIeRGjgVAmc3A+kg\r\nOCPbBzjwkhA4GB+2N02NAjh6Eps3560mOIQzxzfQoRQ4qukAOMmLEzgZ/Qc4qy7rN9wgsjfv9h44\r\nRHGPNzKf2zfkqy830L+UNxzjXDjvgis40x8uOP6+TDho1tA4c0+2N74SajfsCR84y36TN0oAAjgM\r\nBD44V0NXOK9rwjc3gBQ4ghUYOOzn1DfBGwk4HNM2N7P38TeYOfM3m4wdOFY07Tfap4k3E+kJOC2m\r\nxjev8Ec44guoN8EWgDe05sQ3o2PlN4Pu+Td7ud03whAyOHn6ijeia9E3P+wrOPQSxjd+pfM3A7cB\r\nODspODh04Ek4rnmFN/wUMzjyr503ffwKOQZyeDf9XQ84AC2rN0YE9TeZ4w44+R8IOGnRLzjq/LI3\r\n1dKKN2ncXzd8DkQ4bvYCOH/SODhe1Rw4RGeLN56Ltzeay9Q3ALPGN5T98TcVuyY4lGvbN86nnDcD\r\nRW03/6ZkOCbgGzjqIEU41v0oN+B0izciJN83T1WVNy83wTc+l0Y4kH20NylKLDjydG04OhgLOAhd\r\nAji+D0E44G6mN4qcBjieX3w3YGWjNxV0wzek2cU3GrLjN2O0CjiO4LU3vYuLODq6BTg/esE32j2q\r\nNz5xODfMrf83NDBeN39kLjhpNwM4DOvINz32uzejiO83ErJCOKTgRzjdIss3BjXsN3wJGzjZVsg3\r\nGU3LNzoRxzcCrs832qO4NzoEuDe5WtE3jIgCOOhjQDh7Big47hjLN9Rwsze35Bk4usLBNw67KDjg\r\n+7w3fJFhN1SNpjeL+4k3OwdON8Id2zcWLDI4uWYxN5T51jep5NQ3gz1cNwQL1TcXfJ03WV6MN6WD\r\ntjf2MKk3ujV7N9QjnDcUzCo3zRqSN2n+wje4Gkk4tL01OK7MLTgLRnU4Er2eNyCTIzhw69w37IYv\r\nOOG3uTfnAak3pbq9N6vGqjeI3ac3sceSN9zemTcyj+c35s3IN+AD1TcOrG04sOXQN2syTDgAICQ4\r\n9HeON+By9jfg08E3bVUsOAiG0zcQyyY463tcOEgRhzfIZVQ4bFKCNwaF+jeXWMY3lIvpN8KRKjjI\r\nIKE3UdMbONhn4Td7d/A3X7VgN6J5GThDS483l1AAOL3twjcGlg44KxvFN/OSlTc4nAE4puttN7L3\r\nsDc7gnE34CKkN4A+DTjPUEU4ejAROK5MODd05gE4gBzXN+IIZDfEqQE47IHuN0rtczdwP6Q3uUZb\r\nN+JvCTilvsw3JWTGN3sabTcQTvw3m/awNwji7Tcfd/438FfrN8w6uzc17u83um0TOChSaTca4sQ3\r\n/kuWN4MtDziwl9M3P67tN4+WPjiMUK03WE5ENxN07TVB7w42tnPjNUsyYDUF5AQ2pgm/Ne7w6DVY\r\nvEE17XO0Neo6SDW+8cM14BBWNeaThzUaPK81rjibNXvpzTW7j5Q1ZOaUNadHkTUCsJM13uGONepa\r\nYzUgOMM1YP6vNTwtsTXEeps1tpDSNRwAUDULjjg10XGWNVTGajXdHkU1bh8QNTEfVzXbGYY1tgJ/\r\nNSurZTX7UX01bGbDNZLe3jXYn541KO3HNaS6NzUZS641h8egNU3auTVGzkg14hXKNfj/qzVQkpE1\r\nXq4/NQZ0yzUCnMY1pHRcNZqEyjXh8Vk1EzqqNQTTPzXuATA1BKYUNcp5fTU4BAM18o6aNQrNpjXd\r\nKL01pERoNQiQmzX9cYY1YAtXNfiwQzVyhZI13PY8NcJnlDXiGEE1qGulNb9HPjUyzYs1pQG5NfiZ\r\nFjW0aEM17y7pNeRExDWAHhs1DtqzNeY0mTVWpoo1zPgfNdpTQjV+FpE1JFukNTpvfzWONdA1mKNh\r\nNZTbvDXtdD41QLyBNeBb0TXbOVw1gQSuNd8hTTU/2IM1T5S2NZV4hDVMes01oLubNWnPkjUlXz41\r\nyvB2NTDz8DUu6pA158XoNMqxYDXsuYo0/yPeNZP9NTVAnqc1vzRdNTqSlTWrO0o1lqC2NSzJCDVn\r\nzFg13xyGNaaClTUrv4Y1HtQCNWeE+jQQGvY1Qu/fNTkF8zSW1A42yPRiNR/THTVQmz81vPhqNURG\r\nRzVU34U1+yxTNV4wYjV4a0k1QoPdNZ5rpzVCiGQ1nKNsNaT9jDVZzpM15zHnNHT8PzVPrf40Wluo\r\nNfzDjzWdEJ41te2vNXR5qzXFfpU1dcaMNfJqWjXyikw1S79PNbytMDVvv8A1rhqnNbrZmjUumRE1\r\nmze+NWlnwzV91+s14NA8NTLwBjbXwBw1c8XaNcTxYjUsvqI1x1DENEeiYzVwW1M14D+CNTKuQjWy\r\nrj01YlI7NS3EljVKF3M175oyNXpLMjXR0SM1BV7gNdrskDXNG9c0Op9oNUUBAzWmYMY1SKAQNYIm\r\nATbe74M1KD9kNfYGMTU3X4w1CrmYNYndcTXn9Fk1EM4pNWIdHjVy1IQ1kaNdNbHJwzVTtoA10EAm\r\nNVK0wDX4lYE1ZIs1NYgoNjV6OE412cYNNQ3qPDXZ4X41W8E1NXIiazVp+QM1MIAONZw4YTWuFJs1\r\nsKk3Nd4IFzUD+oE1Dhk1NT/8gjWuWs40cJJfNWpClTUiQL011jFcNRJPRDWmgj01LeAHNeHnOTUA\r\ntA01v3sINdL64TT532c1SmcPNZeUYjXkQc41AZM/NePPbjX5F0w1JUyINZMzyzWZHEg1O4G3NTNQ\r\nhDVM5eA1zuiSNcat0DS6mFM1f8bWNaElrjXn+mg1btjjNWYLPDURKC81Im8uNWTVSDVVbMk1gtI1\r\nNRqyATWSeoA1RrtbNfSWMTXEjFk1wqMyNXv0DzbnRrA10X+VNWf9ajUawmM1MxzKNSxDXjWbGiE1\r\ngl3iNFjwOTVUejk1PxuTNX07uTVjkEY17dutNVRvsTXJvkQ1Is9oNeBtAjawfk013AA4Ne4ekDUP\r\nw0E111ZrNd14YDXEkH01ZnNrNX0lejVkWzM1st0RNR9FHTWYmeY0dh9hNb7NKjW1TGs1oEwoNVmh\r\nGDVRvgE1kVk4NWtp9DXNl9Q0HuDGNR37OTVuBTw1s2PINVMKjDVv/Ds17hDLNAsfUzWTjE41TfyO\r\nNWS4WDXxWkw19o9cNfCJ3jRoYiU1iXJPNXVqnzVjKlg1UFUMNSRLkDXwP2Y10/2fNTk07TQa9OA1\r\nmiUqNS9IpDXokaY1TY0sNXEOFzXuX0U2l2MYNUMfRjVmiFI1yNVoNSWDwDWnHeU0Kr06NVhLVzXY\r\nmkc1SMGHNY4sOzVKvuI0KiiyNcVvqDUu2II1C1h6NZkrUDUJR4U1lpRONQ1olzWmp3g1KUg9NeT1\r\nhDU++gU1l5QiNQrwoDVzSY01kCzvNDuNjDVaspg14GAxNXaVcDWDJlA1HpWmNYngijXVzHQ1xWYn\r\nNfW9PjUwPg01TTeLNVt3jzWBaRU17jntNMIBbjUesTI1bsFoNeS3QDUCHWA1mBinNdHGkTUqujM1\r\nzq41NdlKZTXzkQc1hB2YNe1w9TU+TL01hTFoNfdJbTVpghU1+myFNaK2NjVUEDY1nm0HNZHkfzUq\r\ncB81ciKFNXyoHjUx3ys1au8dNSTJVDWLaLw1EyMNNW3pijUsCnw1VhmINWoNbjW3Jz81o5mRNWBO\r\n8TTpHWI1Qd/cNfq4ezUt/dU01hNONQMQVjVq8QM1QZFmNSX1hDUO9jY1xz1ZNa/AiDVRcXA1rM1S\r\nNSPuZDUGYKU19C4RNeTtbjUypUs15iygNQd6nzVeybA1c9k/NYCpyDUjmbE1XeCZNQAARDV2RrdA\r\nfyO5PVRswjwX3jw8OH/fOzlkkTvR/TQ7MmMCOyzQKTsmsrs6LF9oOuluETowlZ46Bub8OTm3XDop\r\nmSw6Xx0EOp5m3TlnA0I60CqoOf9Orznmgnk5J1+nOZ2XjjnlmtQ5QzsjOX/6UjnFik85dji6OYR0\r\nJDnIbIc5QtGoOPPQpDmv/WA5qqk2OcJ4gzlRmcU5Jc8oOWLRHTkyQ0E5upuyON8injhqnyM53GYx\r\nOYOxwzjjxHk5omi+OBbktThg6Vc5D70GOVhTBTmysNQ4ILfeOPJuBjlo7185h828ODxEpTi4pFw5\r\nFNAhOR9biDjByRQ5sO6wOLuGxjg+tdM4k+v5N0/n3jh2vNg4F9C8OLlRmjipNrE4a7wIOdQ8xDgA\r\nwJg4OJVSOMBjVDgCk9g4qtDeOJh40Di4p604TYFUOOYCejhbNkE5QaXpOGiTrjicHAQ5UjUiOd5/\r\n1zhRkjM5v6IIOQK/dTiIRS05RGmAOHTBvznpd4M5W7IKOn9cjjhGOfs4FdutOOgbczkdx844y9ID\r\nOaDUVzhEcW44r9PROMgZTDgkvj44+UtJOONfDjl7y/I4MAT2N14XMThJsHo492OzOM+dSzgF3Dc4\r\nMwRjOEMOCTjZqJc4opXxOJC0zjfKoUs4tqpSOLzsyze1PfE33pJ7OKWv3DfNsAw4k82kOPaxhjg8\r\nQOY3u+lbOPgKITh2NMg4b061ODJ7LTjwQWs4ivAyOBtn3Dimf4g4T05iOBV42DiOAm447/r1N1YV\r\nMjhT5t840fLZOAaGHThcLSM4YbtmOLH1cDgbbno4qx0yOCwgLzht7fU3uk6kONVU1TipnTA4HkI7\r\nOOJ0Djhu6is4Cv63N8XJgzjCNQQ4m7AkOOY5xTcVXzM4b6fbOGf6jDh5tWM4zq2eOIYHNDimslU4\r\nfHEhOLsyzTeC/eQ3Y+EcOMwLGzg32OQ3FDlwOO5/+zfQVww4XSJcOMA/IjhzQik4u2VwOKW5iTiM\r\n4z84o06POI7WNDjmLOI35F88ODpouzhGDyg4Hr0BOG/F1zdUEhg4d0WqNyE2Dzi7yVY4stuPN7WF\r\nbzdNk8k3fgE8ONe8LTj1KBw4/hAWOMuWnTgi5wg4AuAsOErAHjhIxcw3hwADOO0B6Tc+jQc4o+8e\r\nOIvWgDi4etI3rOX7N2bVCTjO7z44Km2NOGNc+Tdix6U3WmhJOOQ1TjgJy7w3t7MAODZxKTg6Faw3\r\n7DpXN9Z8vjeRXfk3gkXcN5te1zeMalI4m/ePN2ywpDeZGso3WoSMN7Jo+jd6JRk4OOusNy4RozcJ\r\nWCg4zpPDN3XIIzgJcgQ4gmWcN+FEYDi5+PA3ogfANw+R0jfqvP03eBmBNwwOJjhTUw04CBdOODEv\r\nNjgXz743ns7nN/78xTcz7QE4fNUYOFBKyzeFDd43OaLNN4+twDdkQX03eAUSOCnJ4Tcqkq037H2h\r\nN2ErDDiT58o391udN7iacDePzMs3KPXhN0vzPjiRKww3ZMe5N/eSuzdyM743zSqROLm3sDeLoPQ3\r\nNdAuOCJWkDeSmGM3qhYFOPSC6je4aBk4fxj8NyK1nzdKXAw4Iq9oOK2etjdeC9U3CjIIOA/lwDed\r\nhi046kRIN76gtTfntZ83twUvOBiM4TcANhM4RnAWN6O7yzdOedI3t8UzNxlSEjj0Tg44KBWhNxil\r\nuzfzbjs4NpM0OEgDOzjlLx44ay3RNylY9zeFea43zmoKOK985DfS6YM3fvOmNyOYtzexcI83jVNg\r\nNxyG+Dc+TyY4cW/XN8CWazcLlZw3CuGwN7MPfzdVoIE3Ru4LOBbl9DdUQvg3szkAOAzZMzgmJNU3\r\navBKOJJkEzjylmE4HjbwN+v4Rzf5Geo3TMa1N5/guTe2K8A3gC7qNyl76Dc8B6Y3NDvVN+aQojf2\r\noEE4X6J+N7IYXzcKVes32GSINyJ3GzglEjM4/CW4N7a1Czic6U433PqPNyLXYDia/J03QuZ1N5GV\r\nCTjBuI4398ILOMyVYTh3xDI4N1QpOMMAmDe3P6s3E4nwN6ZiCji98I83bzu2NxYsnTdRWLE32uOy\r\nN2HgCzhr2mI3jQMgOBcT0Dfw7yw4qe2cN7yL/DfE4tg3CtmaN7DjrjeZ6wc4CPfLN/wTtzdwF6w3\r\nnmEcOLZZnDigMp83mE0dOOPfoDc1GJw3O0OEOGA6vjdD55A3yy69Nyj5DDiV7Iw3cyvONxK+6zev\r\nqbI3HDkCOKjbrTebmLU3LpqbNwZOsDdn8ko4StarN8BB+zd7+nI3O/qaN3YiZDdShQ44TL2AOFD2\r\nUTg6xbo3H/JlN1PmjjcUZRI3tOzGN/9XRjhuaj03quShN55YKzglrgw4pfPCN6JPKDhMbcU3SjcH\r\nOFaPujehoMM3NVaTN8joODe04ZU37aWbNyeSnDezKEc3OgO2N6TODDiEvpM3K5PxNxZH5TfEytA3\r\n4eaMNy1AfDerLro3PEbeNzYXmzcasQU4pUO0N/odtDcjV543TzqqN+JG2Dcy5aA32QsBOOztsze+\r\n1t83A1XQN/YjHzdRVo03938AOL+R4zejoY03p6e2N4SRmzc1HsM3HCkWOIo23zcYe8A3FrMeON3R\r\nxDe7Wb03ruICOKbWzDdUN6s34FZ2ONqy6zfCjUU3qDhLN3bZwjdyvsM3Bo1uOFqMPzjYg+g3c+AA\r\nOP+gxTdaQhg455gROCV3XzcOUC443uzINzwNoDdB+ao3m2A/OO1MwjfDB2k4iILONgAgGDiauqc3\r\nATqvN3ZGjDcP+bk3Z6kFOJ5VhDf591I3pSR6N8oTcje+7MY3OqiHNwBNjzf/h+M3XE44OBi56Tew\r\n1F43HODaNwphpTfrDI43dS7PNxshVDjqWdU3tNR8N5Crwjecs9k38Ai9N8iFJTcV9pg30hL9NxA9\r\n8TdgZiE4dQqwNwr9gjdyccE39M4NOExfMjiFOwE4VoU1OJ2zhjfL17g3ur/LN11FUDhuXyY4PFdL\r\nN5X/lzcLZ603jT24N7xhkjde/oo3lhfgN8NqiDcIfrk3yVCSN6fErDf9u184lCoCOEAx6DeDRbE3\r\nugXPNy0q/jfrw8U3n1EoOOd3wjdgTP82CHnMNSr5dDVL3Ic13ldbNW7QMjUnXD81dvGHNfJjVjXD\r\ngSM1XQzINQ1FPjV+h1U1ir4sNQ8bgTXuQOM0gwQ5NcAKjjTi7RY1WC5HNfZWHzWsZzs1Jz3yNDwr\r\nfTXC9/A0CwcxNeAjvTSZsvU09rIxNeBxujT0eZY1J0SFNBCCxzS79Qs1R+9lNZTXWjXtdg81JrQD\r\nNdghQjVREiU1ufHxNLSV/TTC/8Y0A4PMNIEORzWXX9Q0OjWYNDcETjWwIO40bNakNHBvYjWOqa00\r\nkB8LNSooBTWqmH01ZD6oNCECjDUj+gc17y1jNc7+gDU4V680rq/eNAIKTzUF+DA1OjTrNBZZJjUP\r\nOo01wtNLNZyYOjVXwlM1HinZNApVATUgAkU1CJ8vNd4AETXQx/c07tPnNLABJTWVMbs0StdfNSIw\r\nFjXExPc0MLA4NVFT2TQSgDU1PGf/NOsVCTVARhQ1juIPNfCSFjWjBDY1ULgYNdJMIzUwniw1ZcIZ\r\nNTbk+DSu7t40hwKlNGJR1TQOtNw06ndCNaDnBjVSuFc1UFPJNPQP6TQaTdk07Lt8NQCwEDVCR2U1\r\ntEIYNRKNBjUqlf40+nPSNNG7szSmVEg1+GgYNdabHzUnTRs1B0dBNdUXyTT9ph01xyPuNOhlpDR9\r\njs40B04tNej6sjTkYDg1zMIINUj6vjR1TcQ0osu2NPyAUDQPqQk11HK9NAKlODUN0CY151zPNFwU\r\nHjVuaLk0Y12BNEoEozSy8800gUXzNNeBlTQkcK018x0LNXkkQzW67h414J1dNan+FTV+Wgs10zrV\r\nNJY7MzVoiwo1YJ8wNVigBDXiOLQ07NEENX4AaTWZcjM1qAtSNU7OTDXY7TE16PW/NELI9DTrArY0\r\nYbgfNdi+lzRo9Fk1OJQaNWomFzVQS2o0T9XCNJjg/jQRcCQ1Gn3FNFS1SDVG/RI12AQRNUxNZDT4\r\neQk12ur7NO+CLzWxMfU0ZlMFNYj8EjUFCA419fLPNFQ/pjUj2bM0Kqo0NVicxzQg4dk00Qz+NPZv\r\n6zRDhpc0iBuBNUXqBzWi4bQ0bESwNI66ijVw1lM1vPUxNR3DnjWB+nc1FPHBNKKnEjU4rgM1sDZS\r\nNORcBDXyQFI1MjDcNAyqWjU2lgU1mde/NB9BtjQpgU81SXMBNURVHTXp+900MULSNKomqzRF1jU1\r\n6b6rNMj60jSh2Qo1IncZNaA5PzVVDl41t3rYNPdwqzTi2e00ILDENJD4DTVhH0M10WO0NACpyjSE\r\n9bw0XDjdNEjj3jS0h/00eT6hNBrOEjWS0OA0aEyWNf7KIDU8Naw0lJH9NBNXwjRYwuU02ycGNdYh\r\nDTWS9hM1zVfeNNCvqjTioJ00evrDNIDGajR4sWg1M6MUNUe1CjVJ5J00BfwGNd3UADV8m4k0cXG/\r\nNBUSmDUnqbY03F1cNRBctjQs09Y0+GsZNYi6hTWWqiw1+ZNeNc4H3zTZc4E1pw62NLBHKzXtI7U0\r\nVMQ0NSpejjQoGdE0QocqNYoerjTWTAQ1krQKNQvW8zSH7g81su8HNet+2jQhGNM0C3C3NPHbzDTA\r\nMmw1dJiyNDoJ3DSf/gI1/SjzNE6JcjRADhY137SNNPg/LzXjx7Q0A36wNFq1CjVl2vc0VZchNZhc\r\nDTVCgb00sEFnNaL0mTQtOuo0GTrRNNz8GTVtYWQ0JvUYNe4x5zQpbLU1zrrONHwcnjVUU/g0/kwn\r\nNQCAzjTJzig18MoMNabM+TQejd80kw4mNRUbwDQU/j81Wk8fNapYYjXb1QM1mV0VNSVvPDVqReI0\r\n8SPrNLT+IzVhotI01zcONVguTzX4RQE1Odi/NFawUTVwMJA02NZLNDd03TTESWA1inTbNKL+pjS8\r\nv9A0VExyNc9xwzQwycs08Kr9NIq7GzWdCgQ1FsgKNb++szTwOy410IeNNH762DQnGEQ0W3GrNOAU\r\nfDSG3cc0BDwXNQfaQzUYvOs07ZPgNGQqljSXoZg0mlFvNBZvwjTrV9k0EbghNamJCzXV00I1duzn\r\nNEgW5DQsVSw1q21mNZRtCzVEBR01qhOmNGpt9TSLVtM0FweKNMHq4jRER7g0jra5NLvclTWkapM0\r\nsjHnNJBC9DRVue80wNCFNOERAjUeaQc1pzZKNX3wMDVxYXQ1vwnENCfaqTQT+gM1HU6fNKMwqTS4\r\ncQo1WAKdNFJNCzVIJgY1bXpNNQc0BzW28Mw0RDCmNIyzhDSvOtQ04tCKNAAZJDV0SD81KNjeNCqX\r\nvjSnfYQ0Ws6gNAE+3zTmGZ00C6C4NNs8LTUkn9E0EVvdNB0i/zTlGBg1rkOKND3JsDTuaGs1g4uv\r\nNLMiwjT0Pp40pVeRNLKQNjXg5Go07GgMNZftvDRr4/M0VnsPNQLl5zSdHnQ0AACiNA==",
                            "noiseTrainingType" : "default"
                          }
                        },
                        {
                          "effectName" : "WinCompression",
                          "category" : "categoryAudioEffects",
                          "parameters" : {
                            "attack" : 0.0,
                            "gain" : 9.0,
                            "preset" : 1,
                            "ratio" : 10.0,
                            "release" : 3500.0,
                            "threshold" : -20.0
                          }
                        }
                    ],
                    "start" : 32115,
                    "duration" : 2873,
                    "mediaStart" : 0,
                    "mediaDuration" : 2873,
                    "scalar" : 1,
                    "metadata" : {
                      "WinSubProjectDisplayName" : "",
                      "clipSpeedAttribute" : false
                    },
                    "animationTracks" : {

                    }
                  },
                  {
                    "id" : 112,
                    "_type" : "AMFile",
                    "src" : 24,
                    "trackNumber" : 0,
                    "attributes" : {
                      "ident" : "Narration_fracture-2-czm-element 20",
                      "sampleRate" : 44100,
                      "bitDepth" : 16,
                      "gain" : 1.0,
                      "mixToMono" : false
                    },
                      "channelNumber" : "0,1",
                    "effects" : [
                        {
                          "effectName" : "NoiseReduction",
                          "category" : "categoryAudioEffects",
                          "parameters" : {
                            "denoiserAmount" : 20.0,
                            "denoiserThreshold" : 0.0,
                            "noiseProfile" : "BK9tQLUqEj60lOk8IMIWPAaJ9ztOHYY7CsYTO0QzUzsu3BU74Le8On2chDpzQrM69Ri6OhA9iDq0\r\nFEo6/NQhOmDLBjopSMI531pCOgOjGTqWGyc6IknGOaDkBDqumMs5aYApOeQnzjlq/WU5seZuOcVU\r\nhzkhnX85uIx4OVeilTn2rR468CS0OWkEBzk9A9E4N8s5OXxXEzmtQRE5MOIiOfUJRzleg+049oD2\r\nOPCtNTkH2gA6ca/3OJO6AzkH0S055jcCOScyLjns++U4YvECOQTP2ThD9YM5ZivdOHXMMzkfJ7w4\r\nsrAMOazVBTliLuQ44D5kOf/JjTgDEag4TqieOPB3HznCajY516feONzqWDhgWiU5PsEEOVHqDjmw\r\n42Q4ZlBXOV33ATnCHwg5H+wfOZZBWznaPko59i0kOSb5EzkzNDs5tiMLOQRiGDkG3os5d/n6OKdD\r\nhDnY9ZU5nPNfOczfRTli3Lo5LqUmOUrygDkqjos50QyYOdcGNTl2uss4IYlZObykVTlhSv84n/UQ\r\nOTfqCzksZ+g4lF7bOAq77TjEyNA48Oy5ONxXBDln3QQ5UlihOCLiXDjlbg05nq6yOAUg0DgyBtU4\r\n7iZ9OOwRwzhRxS44z2G7OBgfhzjCZxg5yydVODrbkjgXJw443iqcOAe4VjjGq1g4zGirOF06BTkg\r\nqak4UtEKOIaNqTiuDYo4JrhOOBqimDiZFNo4L1+LOFE9nTiMIKg4dKBIOU6ehTj+ZK44h/RIOP6u\r\nJDja38w4khM4OJTJkDg5L/o4YN+BOBYlIDh8z4w4euwDOTbwwjhUWwo5EkogOdgmoTjkSmY4i2zl\r\nOIEvsDnZ8L05jj0COu3rXzl9F/U5x3+6OdHcATm4EnY5mFmROWVPiTnnzVI5/M1BOfPzRDlkd+U4\r\nDOmCONenSDkeAYo4TRGqOPV2mDit15c4RpygOIJ+3Tgy7L44IEgAOThZhThMMyg4z7mnOKaeAjlO\r\nuAA5XWoHOQno+ji2ZU845V25OKAAgDiQF8I4cZdIOHBOWjiGF6U4GmSqOFjvkzjcRG04qSjdN08+\r\n7DfwYGE4OOslOFeoSjgpXog4BcOjOJS11jhG1CQ5860UOKkGADj+n8k3AI9OONQ43zctPmw4RXUf\r\nOP43jTjOmaA46aHXN0j8Izimo9c3kblGOLo/tDd8Xl8442FoOF8jOzhCkxA41vE/OMdzTzibkJs3\r\nTjsYODI8mjg9f1o4JshYONbD2TcE+/E3MxsnOGG4jjhPDEg4IFf2OOlETThbpnc4VwYCOdrc0jgx\r\nP5U4RRQjOHqrDDgGrsE4Xv+1OLqI8TdCrWM4IyO4N56++De63Ls3B8sHOAj2hzjrWME3WceaOP8Y\r\nHjgajCM4OLagOPkvbDjDGww4D0O9NyCG7Tex9MM3x0bdOGUvADm71YQ4+oiJOITVbzjQ+WQ42qC9\r\nOEZnXTh+I0k4OFFGOIDF9Tel5pI4n7IFOa5LhTizdFc4KseCOEXCbjgRfhc4wE5BOP85UzistzM4\r\nrWuiOGAThjjX9wM4DqFOOAo/Xjg9vhs4wV0zOC2vvDeL/Kk3xKzwN9rfmziJm+03chymOH85aTi4\r\ncDo4Aq5KOFkvtjcImDg4eQ76NwYV9Dc6HeQ34jIvOBxDJTgJmgg4WyJAOLrVCTgG9Rk4P1FuOPjY\r\noTdRb8g3wlYlOF+tPjja9ho41m4CONHCEzi2WwM47KXxNzkgiDfBTzo4Fqg7OIBMczizaIw4lXBH\r\nOFGdsjdC2C04pFpZODD25Dekc/E3HrkBOB/3mzi+yZc4k7PpN6NOLzj8YV83gnqiN6SGOTjo+lE4\r\n9MXBN3asKjh41ek3hM5JOPQgLziCEec3QvMfOLzlhjjv3zI4N2EEOFndrDf/iJU4qOheONipRjjv\r\n69U3+pQaOCI5Tjj4xBA4Bw7KOJ1hzzdYN1s4ObDtN6PwnjfAjMg3lfv5N+ACzDfmmgw4mYrPN5AE\r\nrjfGNFM435s9OCMfJjh4FSY4k95SOEqtkzhE9k04UwikN5DsIzg1Umg42rfSN+zuhTj6Rks4JrYH\r\nONztzTdtE304kzrSN15PbDfgpJk4xsJnOP747jcX7iI4PFf+N9ldqjf07zo48x0hOIFGUTiBTXI4\r\nLlhzOIX/BDhARys4YEKCOALspThAWnM4kLi9N6n5Bzim1KQ3NEboOO7i+jcVeLc3GoHsN/m3qjds\r\n2nY388SqN6k72TdqhRM4Rg+nNzkMhDeTxn03d6vbN7PNnTfJCPQ3A2YoOIbczDfibfg3eDVhODkN\r\ncji2i8k3pPVsODGAWTilkBg4Y1F4OApRejitV4I3+wUkOB4UCjgXWVU4gz5QOJJYyTfmyp43nW/Y\r\nN8p9dTcAUh04XVn3N7/RLDj8C/o3nu+6N4MqGziVCKI4Vk+hOOYM2zfcQ503io22N1FPoTe2fzU4\r\nBokHOBZ3tzf0aCQ4fEAFOCOzgDgVyBU4je/hN66SbTe6dQM4IbRZON8taTiaiK83GFyzN4F9gjek\r\n+2o4hP4COPWtVjif0rk3ikiGN9wGCjinscc3TS3kN5cEczgjjqE3s5qROAdmLji/Zcg3jApkNxPl\r\n1Tf4/i04mPBwN0jqsDdYmDs3LlLUN3cHpzdFUiY4fZnENwgpXjhvGOQ3Z9TtN1upCThBY683LirY\r\nN9Y7/TeXcd037k+iNz6B8jeRLNI3wOv5N3yaujcgTj44gOClNzNviDdi6bE3MEUDOCNapDcAFK43\r\n8LgSOBDdZDfQXY437P92ONy9tTfZxEY4h5zaNyLmNTiNEjI4wGuxN8atxzfEvgc3xzCtNzX11TeP\r\nCrM37tarN1GKjTfYVPs3t0KYN+zP7DcOrk03nbDzN04EJThaVtc3j1rPN/F0qTfpc643byIqOPpJ\r\nujer/hY4zL/pN2VUgDdQ0Eo4QHrONy5eiTdIc1o33DYeOJ/QUDgskI0326SqNwoV9TeeOYc3enem\r\nN1EliTeTHaM3LsCCN9WdhTjYq0I4RgrWNxz+mzdDbhA4xrlPNxbbnjfB9w44BKylN/7Ukze835M3\r\nom7vNyq1EDjWbGw49qkaN4f0BjjvYfA356MCODNeKjYeX/I16fiJNca6VDWzRJk1NGmGNWZFRjVC\r\nI1Q17dB4NXhj7jSVOAk1mhQMNT+HKzVzNBE1xK4qNVxpoTWATAA1ROw7NcPfMzU+BXo1u/IpNeX4\r\nxzRInXw11FY/NWZujjWa9h41z7MKNT4ALDVudzs1xzwyNZDJIDWzht40VX1fNclhCjVbuhQ10FZI\r\nNaJcVDX8MyU1HNojNRCICjXs6XY1M1QxNUzCEzXBJBI1DoaYNOcKYTVpmVU13kRiNVrRFDWEeks1\r\nM/YcNbjsEjVCXBg1JDUVNVrlJjXiToA1EGFkNXLY6DR10GY1X2wnNZ7ZATVRHJk1dpCrNDf/pDTt\r\nYhs1VS70NMwyuzTOiCg18HM+NR5rgTWc5yA1VTqDNTD7kTRG1T81AbI7NcmPGjWu/gQ1TrU3NTAO\r\nIDUKK6M0yEclNV2ovTSliBo1mtFfNcH50jS75tg0EK8+NWUzxDXdo9U0AsB1NUVh5DQPJwI1AFwI\r\nNWyHtzQH/qU0X9E/NVVTKjX7Hqg09B3eNHhgmzXeQ4k1QesCNQAEHDV+4eY03zsENf1+wjQTx9I0\r\nWhM5NUtz2jSEvv80M3C0NN3VIDUlE5k03sakNNVyMTWgg4w1wSOuNQ1d8jT0d1s1+oYzNWGdAzW0\r\nNfc0YvrENLgD9TRUzWY0Epw5NSko7zRQeHA1+inSNLxOwjTAYCA1Ui6WNUQhCjXylto0HpaTNKm3\r\nyTWsAt40zRkJNXUtFDVBZxo1iCJLNQDPlzU/wWU1q9JNNUaR0TRgjQM1/YALNQHLLDU/tSU1MHpg\r\nNHCXKzUFqgU1doLxNGVBHDWcyzw1Kl4vNdF1FzVTfxA16qKiNDLeOTW5FrE0KPcaNUPQ9jTe/gM1\r\nt3wDNX0HbTUWbpM0hE3pNU6CwDRAfVg1qCQINQVEJzWZGZs021wFNR0cTDVO0xU1flYQNX7yFzXE\r\n2lk1nHdANVeV2jRLPJk0sB3CNEXAxzSmK+I0WhsiNXFGRDVBdNE087gFNWY0hTX+VxY1QVc+NaIl\r\nPDWURlI052UFNQRFRDV+8Qo1e2p2NFn+LjXq++o0Gq5uNRDeEjWsKzw1zusnNUUlJTVegR01K6oy\r\nNT7ZhTWz77I0njeLNaDlwzR4NCc1ZN8nNbiLQjV0hUY1Y74ZNQKpRjU0etw0J4b3NDphsjQhu9g0\r\n9jZZNS7f4DQtG+s0htXdNKDPuzXyJys1eXrnNHkPJTWKWZ01/sTjNBtygzSOwj41o/FDNUzqrTTK\r\nwoA1kz1dNRh4izQUvvs0LmleNSuPjzSy3aU0aC++NOFp5TSS4qM0DgzjNNILLzV/3401rdl4NHGL\r\nDTXFyAo1fjkrNS6prTTMeSI1LdobNf86eTV7zbE0lPk2NUYGGzXE2pg1Cj4BNfJmQjX/5C41xCl9\r\nNdEyHTWaLN40Ee+ENHBibjWV9Bk1VlQGNRXTLzWOM0U1SMffNGz0hjSb2/c0C40GNYKqmDSOX2k1\r\n/JdsNCWwXDRWBxI1+wq+NDLGszReHfw0rCDeNJ/VITVsuyI1qOgoNaBrhDRzIQ81RUfYNHciezRI\r\n1S41kL+3NKCy+DQVPN805erINKzaCzXUxtI0k9xCNU81uDTem281AnPcNA0cYDWIH+g0DcQ9NYAE\r\nWDW9Ugw1FHYgNV4VsjRAVmM0Nl3VNL+aoDW+diE1kdjXNKAS2zRgTIk0DO+LNUUW4zTk5ZI19An8\r\nNIDBRzXdnfY0dXYQNbQZ6TRG83c1eQgQNQglpzRreh40tooPNbj8BTVIkxM123bANITuxzRaha00\r\nvBgHNYtvnjQXT181jvIXNbh09jQo+3c0jvu1ND5eiDTIz7Q0IPDzNMqDdDWsxLU0rkOVNDkh3jQl\r\nJOs0FrdrNepToTSoBOU0eYguNVMetjQklY40Q8sDNWVrXTVIoQw11bMgNT6d9DQ33Z41AsHkNIUO\r\n8DS53180dR7mNNQfujToNRA1pRciNS741zQl5yo1i9aDNXTiGDUpqSs1XWMANUB67TTKmmE0+9un\r\nNC8FvTTQaRk1IEzaNJZUGDVyFF80JkerNFPIPTVAwdE0ejxYNegZaTVj93s0Ih36NKCctTR2Dlw1\r\nrOcZNSOlPTWSjrs0hDDtND6qATWOK581QH71NE6aoDRXmOQ02mtDNDSo7jRkCw413LhXNQioIzVX\r\nyIc06F7dNO5TBzUnBhU1g/IrNT2lMjX1/rY0wLMCNX9SxTQsCZ810PLxNOrjCjV6j0A1YO5HNTYM\r\nrzRggQ012dJHNVu3BTWEAbw0uAsJNaFVrzSI2zM1pnoONa90zzQuZ0c1saQNNfOv6jRl7681RMvl\r\nNJy6DDVdZM806G0yNf/9lDQeGBE17TKrNNJtwTQ9aKc0nkAPNSpmwjSUOAQ1KkARNQCAkDT/bhZA\r\nJKG4PRFpNj0Fgnk8ySDnO9v9kDuYFOg6071AO0gHyToxtt862eFkOoYVozpXAXg5pMwQOmcBcDp+\r\ncc45qpfWORtPRzqqLD06HGIBOnG+mzk08AI6DzQUOtsXuDkGjBY6W4b+OLupbjkkQVo5GL7IOZ6r\r\ncTlMdN44XkUJOYbvnzk7mEQ5htr6OFgGaDnwvbQ5V77oOLE3Azk2RAw5kPheOTRkoTiuHmY5pleS\r\nOAYcczkup+U4XdUFORXssTi47A45dmzyOKyewTitMSY56FdpOJ4xDzm6Ql44DziBOM5boDhwTSs5\r\np/lAOd9HAzmBAtU4e3MlOQMvFznlEqU44HL3OLTycjg8MaY421CcOIsjLzmcmT45YB/8OKEZVjiE\r\nd8k4dQqUOMxeUTn3UK44VC/DOGq0yThxUgA5qRXrOP+9vzgooSY4rbYBOVYFaDkrKAY5hhokOamj\r\nzjkMjJQ5H2XQON/9qjiWj0U5d3dWObiO3TnGI3I5Qk7oOLo5WDnJhzg5cpOYOERPJjmMSZg4ejTb\r\nOB30nzhp5DA50QvmOD7BuDhGU3s4oQ64ONSu3jhjpAA5J2hJOIoRnziratc4EChCOEr4izgD72o4\r\nf0FLOInuqTgYieY4CHqqODw3xDiFIk84DE4uOIwvgjgcyOk4piNPOMLjTzjOd8A47YCSOJFFGDii\r\noIc4GEV6OG7RKDi4WJw4V1aOOB4m1jiIwUo4OHZ6OCF7kzhDSNs40FrRN3naCDjsb7M4NtjeOFFV\r\nTzjqVio4Ue0OODtIBDnJRAE4P1JWODO0LTiPn3E4mJMtOHAYhTiEqcE4sgx9OILNEzhxScE4qJxB\r\nOFWAtziLvz04Z6FDOEI5wThsymg4SLJpOJ/9KjhHzFc4sth6OBBJjzhnBzw4Apo7OGunhDjqFR84\r\nC/BgOLtUXTjkrwU4dbMqOLKRezgztWY4pMK+N+xQSjiF3WI4XjIrOO4TfDhOL8I4kyQ4OJkSzjjw\r\nems4g1yROBqVSDgzRXc4+00sOKgXUzgRz+k3Os5nOCZMEDhMCyY47hhVOM07GThnFAI4akAEOF5e\r\nCzj2/Ok3Agl8N5L3uzfcz5E38c4jOAJelDgBo144DMMeOHH8Bzivj303LV4MOLjutzdQMAI4VJMF\r\nOGOjGzjmK6o3hHfyNynr9zfMbqE3qKecN+sPhjcEfOE3cACuOB4KLziKrfE3eRt+OBCwMjgOxh84\r\nABlLNyV2BTj70AM4fk3ANxpFXjiAXyY4EkHHNzkOaTjZVWw3pHmeN90Apzdt5bI3mrChNxz4MThv\r\nM+Y3nMDiN98lyDe0lbg3MM+5N/IgSTjZoxA4mv5EOHvuszfaiLM3otIuOEgeDzh9OgY4GblWOAyu\r\nQDivdoY3WjajN+KkCzh0dlY4QFEMOMxDhTe0zDI4EX1yOKW9WTipAdM3zmMcONCq3je5NRE4kibG\r\nN/zDrTeWrC84sOb+N+2+qzdcosM3bBYNOEo4/zfy2xY4JmoUOGUZJDgpyPU31UbsN9aCoTeYMSM4\r\n3PmXN/oLZDcplzY43v8MOEzDsjfuRuA3FNcVOAntVTiSqKQ4Euk9OKiuFTgWCmg3sqYFOK4ISjjz\r\nfLI32LikN34e3zcURWg4hmcjOKMDLTiYAy44ZGodOHagrzchC8w3QiPMN5IViTemQCw4Ir8VONHZ\r\nBDjCZqE3IuHmNzbWgDd26hk4x6DVN7GCAjidpJg3n/wDONmdxzc81Ss43ETlN0SmuDdTVhc4V81w\r\nOEavszccBKM3rds5OBc+sDfZ1NE3EirxN2GEbTf4XzU4W8QROBAAYzfKl443jaUeOLEbvzdqJgk4\r\njO67NzvfnjdKG7k3TAEdOCA+FDgAXjQ4WxXQN5GVHzjSi6A3Ryb6N8wdNziuBP03EwQCOFXEmDeW\r\nSA44EJzhN8dGLzhcZsA3TkL6N+FnrjfsCJg3ZaOxN6xD1jeBMBU3epjNN5Cq0DckmvA38GmxN95T\r\nUjhyuBY4GI6ZN877ijcxQsc3BNp2N/+gATjHcQs4jtTYN0p4Ajjac/c3OgkwN0KEpjc5bxs4xTay\r\nNz/yUDgcIsU3LGL1N/kQCjgS+Xo4IkkHOIb3FDfTAuw3+cXoNyLHdTelaAw4MvauNyov4TdNSto3\r\nncjYN6pFwTf52/M3ZqnnN+20jTcdxOc3mQmFNyRaujdw/6w3W86aNyebyzcfSsw3QK1UN0APqjc4\r\nmCA4HNYCOK+L3Dcwe8o3xjnhN+MGwjc6Rbs3uee+NwnaNzeBQ2M3iLxoN9vAMzj58Bk4ZH/gNyXI\r\n6DdKeBc4/zaJN2C29DdhmQU4GYGRN6qnhDe3Fa43pJvUN3SnQzg3CN83ktQAOGD1MTejXy84B/bB\r\nN4s6njeYgm44chWrN0lg4DeCvgs4iiDiN4wC5DdOxgM4BDuvNxUIyzctzdg39zaYN5wefzgsqJ83\r\nLHFCNzLZCDiFu7c35OXLN+VuJzhOZPI3/LtMOA/P0TcdVG84i87nN5RvVzieB8s3ZjDDN+uiJThA\r\nq7Q3HLqWN8Gr7Dc/2dM3WuNbODSNzDcWrQM4iTiHOPV0Jjegc643LRwCOP7IKzjtebI3bYupN/SF\r\ntDfIO74312daN/oSETjquZU3zNYrNx4nBzg7nug3nnijN5C/jTeV4JE3dNf/Nz2BrTfUTwk4A5GR\r\nN+pVGTeONko4P6DLNy5TtDctr4A4oO7/N5hcFThcUOs3VLfnN8B0UzdV3dA39FZJNwD5HjjDYuQ3\r\n9/+gN7ksmzfjgSg34BytNxBsCDh0ncY3DOwiOLR90jf8f7g3NpjfN9SZkjdJG4U3d4hbN1a+1Tfn\r\no3g3Y/IFOFjmFjgdPbo3uYfGN8RXIziDkuo3BTYaOBb8LDig14U39+bzN+m9ljdjlEc3nVzUN5Ce\r\nYDhexJc3KBJdN5IXDzhizDM4CjNQOASQLTjW+9k3eRwlOImE6TcIy7s3SwT7Nx4BQThYWvs3nzq+\r\nN7jU8jezVXE4j3sIOI+UgDjNcMg35wMNOGrm2DdfOss3AurINxmizzfQ+LM3WsWtNzEY+jfh+Q04\r\nXJsaOIYHmjeCUqk3ueCTN+C8ejhKihk3InygNf6gaDUs7541ZRtPNR4+szSWR7A009CENS63TDUJ\r\nvTY1nBWFNYZOVTXAgwY22K4nNfA2/TTtuEU1WU2VNWlgGjWJDFk1VaphNJcbfTVX0Vw11IhXNeT0\r\n0jRrdmY1Xm1jNeq6PTWy+RE1aAB3Nd2UMDVRlxI1zenhNFytiTVPxhY1T+YsNZ+j9zSiPxs1Fgg2\r\nNcYVYDWrJx81ezIuNROJGjXT+FA1XZzyNOhCHjVCtp80RXJvNcAoazWR+jg1A5HkNGbEgzVpnFg1\r\ndE9zNXQbtDSeoXQ15d0INfBdXjVA8os0kT8TNbRiTTUd/BQ10jnDNIwB8jS5ODw1MEHONElNhDRk\r\nSc4012YVNYJQlzW6yOI0ibsaNcAJ9DSpb0E1HRQlNUyrCjUWAzM1gsgbNYtyIzUwbnM1aT6hND7F\r\noDV1EeM0jfvpNAJYKjUHP7A0z+P5NHeOSDVByBc1nHRYNUxQfzS3ERs1oW0bNXNrRjV4FtQ0CxiU\r\nNTD6szTglyo1DWOhNOWmazUXCb40ZVMPNY4RQjXYFRs1TAYKNYLJ2DR+Avs07UtzNVg38TRdxfA0\r\nH01RNb4zxzRv8wc1ipW2NHRxyzR1ITI13pcpNaqx1zQIhug0EfYaNfsaHjXoCUo1cTozNVfbETVM\r\n3BQ1dH0FNZg8uzQ+MQE12OIKNSMJDTWqTgY1XzkDNTJbuTS9sHM19vfUNAfGCDTM5O401YYuNfVE\r\n1DSvbBI1UIJsNHqmqzRX2QM1TEEdNQ0itzQiX3w1AOYfNeJfMTWmEf80ad8zNTJA0zTLJiQ1xtRA\r\nNfgU6TQggR01OhF2Nan9aDUzQLg0HzjJNHRFvDRQJss0tRWvNXoIJzXqoIw1JtQrNQYc0jQMPgk1\r\ndiNJNZyS0DQoNu40GIDcNOiv+TQYFmM0BMLZNMiv2jRDl9g0U/DWNMaYajXUHso0iOJWNeEtrzQ5\r\nfzQ1oyAuNaS3zzQDgK0030R7NXEcfDT59SM13rpDNS6w7zSs7to0xMmsNDm82jQvQO40cIJGNUHk\r\n9jRfzrE0NSKdNXqcFzWKCDA1GD3SNOVLJjUbgfg0BK++NG6MvTSCLL40TPPRNIEWuzTlSxo1H0CK\r\nNT9CzTQTEhQ1Aj/ENIJ68TQV8Yk048O/NBFPFzVQ/Qo1l+2dNAywvjQ3/ZQ0qmPsNEm1azWPW8E0\r\n7Iu1NPyhrzShNio1MFI9NVHjrjR8flU0kgzrNKASjTWX5ZE0WezQNFY9uDSWS3Y1eGAONeP0YzU/\r\nx+A0yLoCNRI8oTQiTi41Gan5NGEvLzViueI0eoGJNVZkAjWEZdI0LEDrNHfsCzWi3a00WDZgNWf8\r\nOzXE/jM12OnaNL4v9jRSk3k1am19NYSRqzTREhk1pp3sNAWeZTSGLO002jDHNJo3xTTaSbo0iii1\r\nNB1uMTVne+E0SlZMNX3B3jQAI0o1ID6aNE/tDDXt1XU1pKj7NBVYnTSamiE1Q/kMNeD7GDXoDjw1\r\nz/MrNKsa+DSS7sY0XBeONPyUOjW9Q/M07A14NFBVnzRclyQ11wz/NO5QWDWcMwE1YoFsNYnuQzXQ\r\nPxw1PCn6NCBMojSGHSA1h8EKNb4PjjRcs9U0KP2aNKOi7DSH9eY04LJYNUFSNDVMEw01XXnfNAqI\r\nwTRPm5c0aKr9NB+ECzUCiv80K9bpNKDj8jQj/bc0rn6KNN+KCzVqUNQ0ktk+NTzj+DS0oLU0J7Yh\r\nNTQVwDQLEx01gXrcNEYFEDVXUIM0VCHSNDxcDjU5tgg18snQNCFt2TTUz+80+X70NJR3tDRTnmQ1\r\n5BmgNB232TSG4f006KIoNVCw0jRrZCg1ts3wNC+MJzULB6Q0hFo/NfBlbjUy/1c1Wms9NOpo5TQ7\r\nUAM1QNLqNAT05jSUfVg11MnMNDUiNzWwb/802DghNagAtTQUI3A1qR/ENLDgzTTbmSw0owhPNfTh\r\nJTWoaRI1Z3nYNDzAHzXdxhQ1yojmNAB9tTQ5/ys1jgPNND9qQzWq0gE179IQNTP+RDVSA/Y0l+5k\r\nNJh+CTVoPZU09JgQNRpIBTWW/jA1ALN/NW4+jDRcOiQ1t68kNR56fzXkZwU1iu0nNSBBsjXkXgk1\r\nKkE5NYCRxTQ5p780s1C4NA8r1zSJntc0hCWINGrexTQxDa00FVUBNYsvVDXYCgo18kUiNZTAuDTT\r\nyBo1LEGeNHhaZTXvbLw0QIV4NWgAdjXwcLk0XgMcNVh6HDXAG480DqAtNWkqFjWKYXg0oCfENMAO\r\nJDUldvY0hjEaNdAeJjV3ylI1Ld/TNIy9NjUrOuo0Y4c1NI4FyTRIY5U0zKAnNSdmxjSFyas0z2Sb\r\nNEyRGDXE8vM0wEEKNWMJ4jQBsg81uH8oNW8/vjRYOfI0j1HZNKaOyTSUDeI0AEAENQ==",
                            "noiseTrainingType" : "default"
                          }
                        },
                        {
                          "effectName" : "WinCompression",
                          "category" : "categoryAudioEffects",
                          "parameters" : {
                            "attack" : 0.0,
                            "gain" : 9.0,
                            "preset" : 1,
                            "ratio" : 10.0,
                            "release" : 3500.0,
                            "threshold" : -20.0
                          }
                        }
                    ],
                    "start" : 34988,
                    "duration" : 938,
                    "mediaStart" : 0,
                    "mediaDuration" : 938,
                    "scalar" : 1,
                    "metadata" : {
                      "WinSubProjectDisplayName" : "",
                      "clipSpeedAttribute" : false
                    },
                    "animationTracks" : {

                    }
                  },
                  {
                    "id" : 113,
                    "_type" : "AMFile",
                    "src" : 25,
                    "trackNumber" : 0,
                    "attributes" : {
                      "ident" : "Narration_fracture-2-czm-element 21",
                      "sampleRate" : 44100,
                      "bitDepth" : 16,
                      "gain" : 1.0,
                      "mixToMono" : false
                    },
                      "channelNumber" : "0,1",
                    "effects" : [
                        {
                          "effectName" : "NoiseReduction",
                          "category" : "categoryAudioEffects",
                          "parameters" : {
                            "denoiserAmount" : 20.0,
                            "denoiserThreshold" : 0.0,
                            "noiseProfile" : "woDFQL8580A9EidB1TdYQVY+BUJD9LZCmzrYRGUt+EQKodhE+AgpRd7uYkTU5c9Cr5CNREhgYUSd\r\nEqFDzRE2Q+0gVkI35wxDjlmRQ5PiqUOO1vJCobQnQ2OrOUMx9q9BcNEzQZihAEIjUg9CjrKtQUZl\r\nv0COj8JAxs/6QHHM0EBDsBNBq5m7QCUzn0DM5VlAtRtWQUp1bkDkurZAecjTP6N/vD/LY5U+7N1g\r\nPyJT8D4c1SVAtfnHP/F/HT/dkAA/aKFKP1J1gj+QK9w+wqUHPgoJWj88U98+hJICPiSQFT5YWkk+\r\nmfhXPng4zT1WLZM+KtAsPq5ItD7mFkU+0cX8PRKJtj6MAB8++d8UPn3b3D6Lnx4+Zc9LPpCeAz4k\r\nzYk+5k8rPgQnCj9Gamo+8p8aPtQGtT61hz8/EC2sPxE/jT46frc/m8kKQKCaTECbmbc/tSnsP5TR\r\nHUBUycFAzpY1QJdH+kBCXJBApJ5CQDBQuz86590/eUqwPl5LPD/xnjA/wDx7PnLYgz7b8jE+ZU5s\r\nPsUpBT9f7i0+jsm+PkDeVz1pC7U+z6m7PlAAkD5YWpk+vOs0Pg/I8j7Bkdk99fIBPmHy6j2C/ZE9\r\nJl4lPtuKDT5nJ/M9EBvJPa/PDT6d5Fk+S04FPr/rdD5ka6c91yI5P16HIz9BHg0+qO2LP+dGuj6O\r\nLCc+tuTqPllIOz4NRgU/IgxcPmIe6z7QA2s+8e6jPviahj2KF5Q9YbZbPh7Fnz157q09PGuSPX5U\r\ngT6SsJ498IkuPZzAwj0LIcU9TzuMPaQrnD2dEsU9zRK3PbJ+Vj38Ykk9hkSZPYdYOT1/qJw9+sMI\r\nPbefHj2ETWo9FNBWPQSHuD0jb2I9C2BxPTk+Az055Dc9n+xWPXxEXz27pxQ9HS0rPYqkczyjVig9\r\nKc3/PPz0kz3Y8Io8JWkEPpDDcT1oco09dYy/PJlrDj3y44E9CiELPdBnTz1iWMg8a7g5PTS4Qj3n\r\npM08cu0TPZKFrT0NOCs+XMviPb35lT3sbqs8SOXiPTkcOz4dPhc9TgCyPcjxmz6fdYw+KqvSPWW+\r\nLj4Cy1E+4bCuPVIzZz7d+mk+cZRCPoLGJj/a6h0/8S/jPns8fD4RRIQ+VndqPiVqGD8A+Zw/Wmgc\r\nP37SAj7QO7E+wNaPPrLZjz54f7U/6IQTPnXlCj7fW78+DG69PrNzDz+vLwY/F1rIPeeamz+CmF4/\r\nNGScPq/Z4j5q1C8+iFyWPohZ5D0+5Kw+R1FFPzpoXT4uJE4+HHufPuyScj9ZHRE/rgXwPpvNhj2K\r\nfSo+EQB4P4XgdT9wc6Q/kV50P0aTGT+wMjs/VKm9P7qJ7T4kzT0/oHrKPzeY9z5xfKk+huxTPwi6\r\nmj5O8N4+el+dP9VQtD9h/QE/eWyaP1h7IT8b5Io/JWolPzLpCT+f8oA/DMIePhStAj87R80+Usb+\r\nPkjNkD6qaIw9sRGTPsnMDT5Qy3c+ojE3PnI+Cz+zvFw+xFKXPUYWPj7VI40/eo5kPb7SKz4mlRY+\r\nkjL3PpJ00T6+rJo+rBMQPYYcwD0N25Y+hK02PmaQWz7Kgb09ssjqPSA8vj5wAnA+GlovPv4hYzwd\r\nbz49xg59PiKnMz2NKyk9GM56PmNswj3Uydw9yhAsPo/pnz5r2iY+sF8APtFBUz5OqDc+rlu3PRRb\r\nXj7iTbE+y6+APVNukT5O8AE/Y365PVqMbj0QK4M+5dRyPnLXTT5sV9U9YlqmPhMfkz4isw8+Atgu\r\nPg4XPT0wtaE9sDGSPdrWWT7JB8E9bwdVPb4jpz2crOk8hWK7PH4Mgz2QCWc9zl0YPmSR7jw43Rc9\r\nBIUaPlVXbD0Mr2Y9ylU3PckAzT3T20E+6BvqPsg9MT0e4Vs+7odLPZvkDT5Rytw+9QuAPRb3nz7s\r\nrtY+t96JPjpLtj4qU+8+YD/zPtO1rD1s+g4/cihLPsKuDz6cP00+b6ePPVP6pT5gK0A+athKP4IK\r\nDz/pP50+gG3CPQYPTT6krgU+tiecPhmwwT6sDRY+1BzjPT9HLD7yiuQ+AvLWPgD5iT7uikQ+QOs3\r\nPVoRDz0R9eA9KPG6PZZQez6UUns+0vC2PMxodz3s7Fg+mhLZPcehwj1CbJI9zXUEPiBm/T7QORg/\r\n+BuiPrSm4D7seas9TheGPjC9Dj4Lthw9/we4PsB2DD7siKg8NkmEPtzWXT0pC8U+ROgXPRNHpj3U\r\nH7U+cNlSPiOcAD089RE+slCtPZW4Rz5yIvk9gbLwPGQhDT4aLqw8CPu+PX5OjD3zHq4919TRPceI\r\nDj4jDFk9AyGHPV5L0zz+9yo+037CPRUR9D2rfgI9sKOrPXLVIz30nPA9jhjtPICbuzxjmoU9Uhug\r\nPbCedj04xyk+uwiFPdw1vTxSCso+ox+7PXaG8DyRyAs+UETFPdW78D68hqU9WhxjPUOjoz0TH3w9\r\n2SU0PsSJZT0r4I09+3YTPvDQGT3d8N08cNn6PUTc9z2ZepQ+umuGPW+qGz7rRao+valpPXMNUz5P\r\n4Vw+gKJFPu98dT1sAOY8UeOaPXWNHD5KQh49eEu1PWNclT176Kk93ZGoPcovpD5VVeY99GcoPqo6\r\n9D141tA9uCWSPVBpJz3Ct+s8vQZoPjySoz28IAA+8ASiPR9TGz6b4RA9cCH5PAj3AD0iSTc9zshO\r\nPoDqCz78ams9FB/iPWyWBj0g/1I9dQemPAmXvDzq5Q0+voM2PfN0XjyFMtM8fNH/POn7CTzyyI88\r\nxN7CPU3C1j21pwE9QuswPgAEqT1LdR896AqcPfIlcj3Wtt88zP+gPXu3KD1/g/Q83hlZPfWZjD3u\r\nkUo9kFR+PauwhTz3Wvo78KkxPZzVHD37Te48HNCGPBrsLD02Vdc88zxvPM1bpDz8WJc9uEWePA/+\r\nNjy2cHc9qvEjPDB9UDwCHMk8+AKQPORHHD0ilJI85N/1PNk2+jwl2M07nq3+O8GboDz5NI48Hc9O\r\nPQSWUDzcnLI8fReBPSHB+zwBSzM8VJcPPP6txTwNYvU70gxXOy8ZAj1DFEY9JD7QO0SixztFq7Q7\r\nydaPPCmOajxjyHY759oJPPyaBDy1BZI8yqFSPH3W7TvMpp07MvMZPGD/Qjw1YZc87H90O4tYHjzs\r\nM0I8OMynOxQDYjtDxx88RhJdO6lcAjscm5E7m7eCOzgVSTuJSg07iuBMO/zRGTuJ9d07EfQQPD16\r\nbTvcRaY7cqjTO9+i1TsfIgQ7xIUdOyy9/DoaSg87WVLYOrgfQTzF55E7mOm+O03OhjtrOyI7fgwF\r\nO3iPBDsYjw87eE0FO+Q9ljshuQA7gMydO8PiADv8awA7WJYDO4C6ATuc6Ig7r5T/OkIERztWP/86\r\nhGoBO+T1AzsKxv86+CkBO/gA/joEeAA7ev8qO/LffztwnAA7/toZO+tQBjveC/46hBEIO6tzDDtU\r\nzCs7Kyu+OtNoPDt92hg7L+TMOtwyJjsh/Jc7SJdEO6Cn8jp5CRQ7sNg1O2BcGTvMj4Y7EGzoOu2g\r\nKDvQ0uA6TV31OvS3YjsSA5I7aQpVOwOujTvevsw6bGgEO9z1EzuVFoI72HguO2Eu7jowlwY7juqb\r\nOiylXDsX4tY62spcOyhN+zohe/U62/RFO8XfNTsh1uk6AHrqOr4e6TrwWRk75ZISO7FuFDvd+Ok6\r\nVanqOssU/DrlbOY60lYXO6SM5Drw4OY6sMriOoqN5TparQk77HPmOnfgHTtd5t46OL7mOuon4zr3\r\nyBI7f5bfOptvEjuQLvY6b+cSO2q83DpWzd86vgnbOiZJ2TqKF9o6NLLgOn6f3DrJhto6grrhOum9\r\n2zr6m986lGHaOoKH1joY69c6ldjXOmwr1Tq5ANY6uT/ROr+f0DoWqdc6mMrfOrqJ1TqCm9Y6p3zV\r\nOncM1TqeJ9M6WDjWOqRp0TpaEdQ67PfROh1P2DpQus86effROhFAzzoW/9E6rAvOOtLA0DrQUdA6\r\nTrbLOhaxyzpfr806py3NOnU70Tq31s86DXHPOsiq0ToWIM06wDDJOjpfzzpmy8s62bnSOkrczjpD\r\nAs06gXXKOrsTzjpyHdE6euXNOrkEzDpWkMo6227OOuIOyDr4Acs6YF3GOgFxyDqpctE6HaLKOq0L\r\nyTo2+sM62VHGOi4jyjpvAcg6SnTDOmPixDpWKsk6iiLEOs3pyzpXH8I6jG7IOjpxwTo23cY6F5G+\r\nOunOvzqDmsY6KqvGOl/1xTq2Gsc6fuHHOp5kxTp/Y706H6jAOm+vxDqqz8Q6SwPIOodRwzoC1L46\r\nilDAOlGdwjpkDMI6PMi+Oom5vzoKLcE6MKu+OvjiuTqfGMQ6xjW9Ose7wTou9cA6pba/OgWlwToH\r\nj8I6sBXAOvx1vzq4yMM6IVvDOtDjwDpcPLw6ReTCOjaCvTr2Brw6Dt66OlqewDofYrs6BAq+OkxO\r\nuTqYsro6ADW5OsdzvTpus746i1O6OtDYujo327o6uMu/OoxZtTptY7g6QAu+OtGRtzrfx7Q628i2\r\nOq7vvDobjbc6Soq6OrK4wTo2JL061X+3Ol7jtzr0Gbs6ChOwOhfvtToCEbY6rqC7OjHCujp7H7o6\r\nGzS5OqMEtTriNLc6d2S5Oiawtzotjrk6e3+3OiMYsTpM3bY6mA6yOiV5tzr6ILw6VlK7OkTFtTqj\r\nhLc6WEG3On/itDqU37Y6ane2Op4ktjoYt7E6R9yzOv39szq5YLQ6dEC5OoSFtDqk5LM6MrSyOqdF\r\nsTpzHbM6Of62OsvqsjpgIbM6mnCxOlNvsDp8RrA6ErG0OjtSsTpAv686Ec2wOiNVsDoxLK06e/uz\r\nOgELtjrcurI6R6CyOn1Jrzqh06s6gFitOgTitDqk1rM6b+muOtd1rTqz7rI65G6qOhivsDrsV686\r\n3sSxOr1PsDoe1bA64KWtOlIvqjoP5a46sfa0OoVTrzq42q4665KuOgroqzrziq06Ov+0OjUlrzqA\r\n5Ks6aU2uOq/crjru16s6xZ6uOlxcrTpa9as6mUOyOkbgqTrX86w6bqyxOta7rTqjPa46IvKvOlLL\r\nqzq5S6w6sXeoOvEQrDr0j6o68+usOtzKrjrxHLA6yzGuOlsHqzr5E6w63KmvOoxmrDpUNKk6kAmr\r\nOjbmrDpln686iXOrOu5kpjrLI6s6l7utOq3jsDoDy6s68S6qOo3usTrAyKk6KmWpOtU5pjrlSK06\r\n2mmtOhWvqjqU7606uXarOrqiqzp086s62fSsOnZ2sDosDqg6BnqqOmgfqTqdiag60GirOm5mqToy\r\nALA6396rOkNTpjrcYKo6XFGwOkVppzqbBac6LZ+qOh6eqzp03K066+2sOtNuqTpyk7A6ulunOmDM\r\nqjolNK06M+6tOsXlrTq5Eqs68EGlOjJCrzpUtqc6pNCpOnTXqjpsf6s6+LirOi3DrjrjC7A6ZqSq\r\nOtdTrjpIh6k6/OuuOtC0qDqvsqk6QtOlOiCirTp7nKg67vqrOjvFrzoVhqw6K1mpOoCcrjqvaX0/\r\nQHWMPbqCoTyingU8OR+KOw57yzpM6Vk7lbOiOvQemTrss0Q6JtEYOtiB0jlkqkc6Z8nFOVoljzra\r\noSo5laOMOdyguzmn2JM5FeJpObFwGzkiLnE5pc0JOc/SZjlAsoo5MWhIOVKGKDmI98A4IEfFOQHz\r\nVzn1Gms5MaKoOQ2jnDk5TzY5IhIgOWkKJzm03ZI5ZBCtOGlowDj3GSI5lx5MOXQRyzipCaw4F5/R\r\nOBLIvzk3D/M48yHcOPI8yDg+GAA5bSX5OLkxAzn2AhA5GrTqOBUSBzlWfoE56mfqOErEDzllhtM4\r\nRYf8OIy4NTmGch85a9U5OegRtjhnB884usa6OJiwzTj6kKU4zfIDOfhmnzhIoQc5ZgmTODQCPjjw\r\n60g4a0O5OOHAwzgEZHc4jw64OETK9zgr2qg4rH2+OMuq4Thdbh842ndrODMMbjiuZ7k5pDTFOEqQ\r\nCjmfvCs5LivEObWgsTnso405rr8tOjnagzkcyFE5DBUTOdtEuTgolKI4amytOIBNFzknspA4ZSh7\r\nODo8szgHNQU5Pnd/OG/isjhO7aM3V9SuONTgWTjIaVk4muulOGF9JTj2OgM5/9qbOEQXVDjFSRQ4\r\n2S8QOEa2eThHmIA4a0OKOCfSuziYosg4v4qeOO0XYDgueik5dKFtOC4a8jhMsAQ4MDGSOIkriDgW\r\nIiE4qYR3ONSGEzhlGM84/RtsOG/xhzgZoH44ho1cOKSWPjjYKfE3/F3uOBuXUDg0nKo4Jo6TOGfQ\r\nJjgMV6Q41K0yOFjz6jcUzow4r/8UOeYAcDhkPPg3PFJKOKIDQjgBGTA4o7hOOBluQDgX5JI4oy9n\r\nOJvrcjjdxeE3uKWgOJimHjhOJug3Gc1BODLaZTi/tko49WwaOGQm0jcdJ8A4OElJOHm6IjjhJTA4\r\ny+OOOMjSkDjDLy441twxOKMJkDhLnmc4pl4gOG+3aThCa3Q4C5McOVFyoDiVU+03oh9rOHDukTgN\r\n9+43whQXOC+ugjj6iEU40hPXN0rnJjgN7CI4dTFgOBrgxzcgSy44++4lOKrGkziknwE430gXOMF8\r\nTTj14Pg3enpgN/j3XjjWTsU3UJ29N4dcJzhyTZo34JIkOJAFaDfkc/M3UKv2N/EfGDiqxEM41aCL\r\nN4atxTc2t8E3ALkCOEHzMDhECek3CB2+N2Yx5DerNyQ4saqLONF3OTjMoW03OJcxOIzr1jce68A3\r\npO8JOPo9Pjj6Z3A3OunFN5T+IzfIpaM3lV7AN+1aZTgDxDc4WoFPOAdZ/TdiswY4uQL+N95GrDc8\r\nj9k3PSS2NwbD3zc1xik43p18N8J1CzjWu4E4rtx0OOJj1zd+wtk3J6ikN91evzeZCVQ4v/uIOF4Y\r\nSTihHDg4WpfKN/qR+TdyvB044S2ON7ikijeFFg84kIoEOBpJyje3s4o3Pcf6NzSBmDcqCuM3vHNj\r\nOOY3Ujh1RZM3+WO8N6ML3zdmryk4lVoNOPBu+TcAfTU4QfuHNx5k1TftlyI461L0N3YyMDhN9pE3\r\nXSKINzCfkTdlqLc3OwCYNxGhNThOnrw3/wRXOOZH9DdgM0E4sIoyOIoZ/DdDbq036UQHOK5NCTiy\r\nGhU4Wkj5N8XvBThEdYY4pHIOOIPXqzecveA3dhGyN6cnojc1qsk3dLQAOKnRVjiTORE4O9XeN5b7\r\nOTiElsU3AtQcOMdPaTcdhzo4vmGFN5F3BTjsqIk3L1WEN3jKUTeeQwo4n/qtN/+SDjgLaKE3ytpC\r\nOIvO1zdlLUo4rOdGN2Tt2je+LyY46K+3N8lr8TcZG8w3LyafN3w01Ddh1Lw3P5PiN76a6Dcoxx03\r\nJeCQN3wBHTiD0rg3MkoZOJsjCzhqdo03dRFKOLnQbTcFjzo4g/WNNyah6Tck32A382XgN1cJnDem\r\nrPA3hs7cN66hzDdKPCQ4OOKWN99vvTerU7k352FnOGKWgjdBMSM4fXKUN8SvvTf+gMU3N3E4OJb4\r\nATiV8+E3T9a9N5BrlDdozAA4PLXFNxvBhjfMia03O8FxN2SeCjipOkc4rsfTN4UbrDekFRo4Ic2m\r\nN5W64TeQPaw36YjLNxbr0TfCAUU4QHIrOA9ApTcmjOc3X9FeONlvyjdJoes3l13nN/KrADhodt43\r\nMRGvN43hEDhW6+Q3lT7wN77aLjjF7qk3+jzdN1T8wzdPUA44UMvsN3rjezcRYU04YBtcOI0YhzcZ\r\nGiw4/UsEOFptqDcRwgk4zitLNy3L8TdjreE3Ji8gOGcUwDehUDA3WOERN/MBHzfyxug3FdcPOCjU\r\n0Td2z1E3xGp9N8fuYDdgHY83pfybN7BSuDckaZM3gzCsN048GTjGvgU47B32Nxwpezdfh2A3JHu1\r\nN4pmszdQRRE4x2MfOPZg0TfYos83Z72TNxg8qzfAaIk3oeAhOO4+8jfZbMs3xmIQOK4BADgQZJc3\r\nZj4tN8aaCjip64c3aOKYN/b95jc3YaM3GO26N9lyrjcqGtQ3rDetNxBiADiDCL83N9zzN+WvSjgG\r\nKXQ30BeJN4w1hzcSfp43wuFbN1ZLDDh1zoo3J40QOJ9WVDfIoO03sD39N95gBDj1+zA3YmMyOBiv\r\nJThO/pY3CkHBNzLiQjjDsxE4V8W1N6J4+jeasqo3iVXAN5QqjzdCLOE32nm5N/qBmzdaQkU3Ll4E\r\nN4alXjefTAQ4fDjIN/XozTdFwFQ3auoDOOZN0Tdswro3BMHcN5aTOTjkrRE4ObKONwB0bDfszS43\r\n9tblNytX+TfCJes3f3kvOB5I6Dc5ia83Bo/FN21INTgtnTI3fsGxNzs/1jfWguM3HVoXOIcJoDfg\r\nrNc3IS5sNxA20Df9HtU3PK7fNyi10TclAQQ40ZbLNzOIkjdAaP43joCkNzNQVjfylbE3sp8JOKJJ\r\njTcv9Cc4XLy8N9iHzjfbD9I3UOUZOLpoyjctN8k2OMr8N0P6DjhTP+g3k40KOGqx+jdPEak3H74J\r\nOLP17zd0YPc3Fuq1N9R3hzgQf883fnxtN8q+fTfXq9w36FxGOMPhqzfmYNo3VMrTN7pqnzcnXrI3\r\nwgupN4Xc2zcPUpM30JeQN8anVjc6l4A3oEbtN2VGOzg2G403kOAyODmHJDgKfjU3xbPUNxaDdzek\r\nHBI4bPZKOJgj9zcPT4M3rAJgN0JTPzgC0DM4XlA/N0GMjzdsbhs4QqibNx7HGTdWgls37tRcN4mQ\r\nozf/Yaw302U0N4ILKDcrhcQ3FbW2N5GZEDg52ZE3nvxWOKqEMDhT6pg2J7alNo+3lza2mm43kg2Y\r\nN2ZiGjf8MBM3wNmkN+0LmDduA6M2pjPHNgtLQTYPBgU3XNAYN1bWCTfsNHw3V7ATN/1OgzaUEJ43\r\npk7iNmMDrDfbc9k3Omo9N0Vpgjeh/P03i4nzN+4RpzcNatI3yCWUN91eMjgF0oM3oxMJODzOkjg0\r\nvlI4GCGPNwFTYzhxgYo3eI3BN7Rd3TYNCLU3Ve0OOCCXvjY4xkw3xBLpN4YWzzdc9JE3CUczN4Wn\r\nhziNZX04v+4AOJ5bgzfHKgs4ZQA+OIyv8TedbrE3YEehN3m2WTd2s1k3C0QQN47BGzglIVE49Fge\r\nOE4g+DfSAhw4/OrmN3CsATgo76g3eWguOOk09TdWLTI4uT56OLnfljdyilw4luPJNw63kTdOXZg3\r\n2F2FNyq98jcru4Q43wSIOI0emTglNuw4NHpFOFMjZDcXN5E3P4SKN0IB8zeOvsw3t50zOKMjQzf1\r\noBU4MWtdN2YAnTeUj3M3glKiN2bmUDcQztA18kXcNtyrNja4qrY3L7KRN3YhTDefPt82csf+Ntx1\r\ngDe5+ig3/j78N+O6JDg4lhk4nknSNpJi5zfoyII3A+NeN3ZcLjcxMIQ2qoSpNodG+zaHdSQ3bhDN\r\nN07QVDduu9c16FnmNtSHxDcI7Wc2iZA8Nz+3hzZiIq02lN0XNyq+dDQhlDU2/btHNb5roTbEglg1\r\nz9CrNpYeYTUDyqI2N+eONuyRXjfekZ42divNNmfzSDcsUQU2jiaENppzZDY/w5U1V2QXNuALATbz\r\nSXA2uudFNQQ70TbaGt02CHtdN5rFMzcTfJ42IJs2NlqEgTVGsv41Fx9ZNYnB5zXeO9g19B6JNV7M\r\nIjWsZcw0mLpKNSaj5zSSd6A1pOhANa7CcTRN5SA1S0KgNK87mjSfjg81t4uSNErQxTRkDQM1vRQu\r\nNcoaATX1Rd80hEINNQKUcjSEwZ40b9onNbDMITWr5cg0vm92NENarzSszBE1LqBINPWcpDRmlgY1\r\nuaTQNElDFjWw3TE0HqoDNcpVjjSL8bM00tWINXqfNDV+UIo0MgGfNHgHITX0zc40qYi2NJrH9jRU\r\nTsQ0jkT1NL/T+jRwAsw0PkOwNIvGzzTPWow0UuS5NFzl2TR3YPg0ApUdNfcSvzRerfQ09B3GNKgG\r\njDSFFa409L9kNH5xjjSccS01dr2JNSgbkzR9uxY1slEhNQaYjzSs6JI0c+gtNZG+DDU4kzc1QjL2\r\nNOacmzQnCh416km/NJCMYDX+BiY1IyUzNajDRDV0BgY1q6ybNIAC/jSkh9c010KVNMPgwjToEQk1\r\nuuAHNQKy8TT3fyk1DtLONKzy4TR3+9M0cEEVNZJbvjStlc40W0Q3NA5liDVGWhs183yDNK/lEzVl\r\nZL80JwhRNPRwzjTCLrw0aFW1NC3m9TSUNaE0v+DDNI/AODWZ3rQ04qTWNIq8nDS4Rh01tpmDNbw+\r\nAzVstps1ae24NJG5EDUn/cw0gdysNGT3uDSv5Oo0MSXtNOoISzQLUR81DK85NEAo5zQO7EY13dKq\r\nNNlvSTWP4cc0Q7+dNII6+jR1Lpo0KKEzNWx/kTRdIHk0RI7wNI54NTUkRuw0oPkBNR/4oDR8Jkc1\r\nfaByNd5RVzVuJXY0aIXsNEM14TTic9o0KVDeNK3fOjUQQO00SUXYNBwvFDWhafE0pf8kNbM8cDUM\r\nyr80ZnjgNLLh2jT6Vvo0UvbbNCL6cjQWBns0WP/sNPnb9zRiQws12Vf3NNKOojRvSLg0JPRuND1N\r\nbTRCkRE16JuKNN93mzSoBFE1fmj5NGiUCTXZvEw1PCTINOn2mDVpTPY0qEdNNU5+izSKFQo11fqy\r\nNGGbAzUircI0xZpWNF48FjXkEew0qnv6NHIBDzXqCCo1SYV6NGEjeTRbRZ80tNCvNAkCYjUog6s1\r\nsXqtNFxeiTRNapw0FBOqNDLejDTxXaE0X7cNNU/PATV077Y0etHTNKvVqjSfVIs0gFAgNZTB3TRI\r\n13Y0BMydNNUM6TQUJeQ06n2dNAUQtDS+yYo0cQQpNeqHiTRnlq40V2zcNNQbwzTgVj415HL4NHiT\r\nqjTlRBg1YglCNbZPSzQCAOg0Su+iNGY2gDRkU/Q063iRNGadrDSmAUI1uKLZNMpcODU6YBc1uAQC\r\nNY0eHjX4JPg0dr4NNccp9zRjfA01fDKPNCaA5zR+BeQ0sFrsNAygpDStmeQ0AAAQNA==",
                            "noiseTrainingType" : "default"
                          }
                        },
                        {
                          "effectName" : "WinCompression",
                          "category" : "categoryAudioEffects",
                          "parameters" : {
                            "attack" : 0.0,
                            "gain" : 9.0,
                            "preset" : 1,
                            "ratio" : 10.0,
                            "release" : 3500.0,
                            "threshold" : -20.0
                          }
                        }
                    ],
                    "start" : 35926,
                    "duration" : 189,
                    "mediaStart" : 0,
                    "mediaDuration" : 189,
                    "scalar" : 1,
                    "metadata" : {
                      "WinSubProjectDisplayName" : "",
                      "clipSpeedAttribute" : false
                    },
                    "animationTracks" : {

                    }
                  },
                  {
                    "id" : 114,
                    "_type" : "AMFile",
                    "src" : 26,
                    "trackNumber" : 0,
                    "attributes" : {
                      "ident" : "Narration_fracture-2-czm-element 22",
                      "sampleRate" : 44100,
                      "bitDepth" : 16,
                      "gain" : 1.0,
                      "mixToMono" : false
                    },
                      "channelNumber" : "0,1",
                    "effects" : [
                        {
                          "effectName" : "NoiseReduction",
                          "category" : "categoryAudioEffects",
                          "parameters" : {
                            "denoiserAmount" : 20.0,
                            "denoiserThreshold" : 0.0,
                            "noiseProfile" : "x0OuQPgcAT9sS2U/Fb2UPyOVmT92KIw/LgaiP2LclT9p1Is+qwpjPgnq2z0go6c9wvr1PeTphD18\r\nQT89FL3VPbK1az35AAE944CfPGJCgz2/l/w81TSqPN+E6jzyAOs8AGSJPCPcTT2XzaM8INuBPH41\r\n5Dwjw7M8hOpaPLxcOTxizf47jmCMO+H90Tu9Te46XegzOxfY5zsmq4w7sSnGOxABRTtE8pk79y7v\r\nO23CizugOno82oOZO50xjjvwLGA721zLOwOLODs9Rjw7s39eO+bZdjvzKhc7+cegOyxN0jrTowg7\r\nH7RIO3gd/joGBPQ6260rOjy1ATu2kEk7WrhAO7YUAzyNhl07V04mPIYlODvwEAQ8VMkTO5Z+6jpl\r\n6+06IiWXOlZGUDvcaoU7b04aO7k/ozqkOig7xL2BO+P8wTsIOA87r2x7O4llATvwhYs772MyOyg5\r\n2TvaGew7uCLqOoBK3DsYO2c7UjUGO2eFZTtG30c70sSmOyO1Mjvd3nM75HiMOybMLjsHlFI73xOI\r\nPCjUIjs6hbc6R8XvOgSpjDqym0w6iO+yOs3Ovzoolzg7utGiOtkgFTzePm07FiGkO48ukDsoNI87\r\n6JfTOsOd5TqPwxw755bAOpiAhTtSyKU7/HymOmlgBDsuazw7yfoLO8e00jpvRfM6d/o3O0pRKDti\r\nJH468ORAO3FNIDr+P7g6RkmVOXfhPzrMN6Y6OywPOghlvjriujI6WqY/OmEYODogeJw6lDkSO5M3\r\n+jrF4+Y6k8R5OyK7oDqAzOw6sspKOzw3hTrESzs6aL5tOlp3BTuUt006xFpuOmzTjDp6wmw6U5xQ\r\nOhAZ/Tk4qt06P1+jOv/+ljqnquc6V3wNOuRqMzt967k6JwZcOvSBtTpJLoQ6sZBIOllIaTpWk786\r\nIX0AOjnmfzpwZAA6PEUPOmsrXjrhEvU5c5dBOut0OzqFqyU6ClaFOkJvQDmAP5U6DGTmOfBejzqM\r\n08I5P7o7OmY7sTkjyC46DKi8OQiQ5TkZoIc5dB1FOlQnujls4xo6395UOSZVATpVmA45Nt11Obk9\r\nezkeymU55J8wOSHukDksmIU5A7CiObKVMjlQBGM6GPeqOfSbsTnqAnE5zMnDOZFRJDqW6Lo5mW31\r\nOf/9+zmTbuc5hRBiObtkQzrE/wg6YmZ6Oc4mbjkooSM6dNihOZ9bwjn1j4I6OrS3OuAHqDkepv04\r\nRAjiOew5FTrKWRA6BRxNOQMDmDmtksM5DOFXOfbhrzkccA06RdiiOXaqvDkp7FM50u2aOcEOlznx\r\ntYQ5x07xOYCI7DlkTbw5okmaOWgkUjmAmtc5KO5COTtkfTlMte44cgdMOSy+LDnIIlE5Av8TOThT\r\nDjn92ww5BBchOSj9VzmLGUw5oPgBOTzvDjkfEhQ5SYWKOFfwvzhyzYM43CUyOA32oTgWoZc4vXDq\r\nOBZa1jjnCTE5Y66UOH0M4jhIp7k49aaPOIJ1oDiVu6o4i+rhOASuXjipkrs4jmiFOKzJWTkc1uk4\r\nKqvoOI1cKziWsyI5+mKyOMlrujj1Upk4radMOAQowDiOFqQ4RxSgOKc0TjgMXLQ4WDGDOJ6SQjjF\r\n5sM45JCpOLpVOTj61jE4d+vBOOwcJjiGbGo4HCFsOA5Gnjjumls4ItaGOLbTljjcYcM4PoNqOEI3\r\nPTiVPEc4cOUwOCHTDDjnQZQ4rId4OI6qvji4j1M4UzOEOH83iDjF2JU4LkK8OLOmeThgJo84dEDW\r\nNypaqji///k3/HDoN/nXETg3DbE4xcLzOIueXTjvnjI4NGAIOIN9SDjwkuo3xSUXOO0Gsjff9yU4\r\nDegpOIjtDzgCWTw4QPU5ODQ0ITjgOh441zBvOExtSDiNmWw4DNgRONikYTj8LYw4m7BAOFTzJTic\r\nMhM4Nj2NODC2YTgEcrQ4iIb/N+7KAziuz0k4JC2rOOJmRTje/Tc43aNAOIsNVDhtDkE45tsXOErK\r\nPji0xKQ4l+q9N4eFhjhLO2w4royxN/WwOTgC2Dk4CPW3NxsXdzisKPk3yt0bODEhXDgw3EM4Ymdp\r\nOL7/4DfJdhQ4ID3OOJaIWzj+eCY4ept5OBCa7TcwoU84jKv5Nzh5yzeBLk041Ug0OIqJujdpMRA4\r\nnH3aN7+wAjg8FWE4EM0JOA4dNDhuGxg4sNbfN/LzmjeIysg42BcgOBiq3jhOaqE32l/MNyqMYDdD\r\n8eM30bQZODredzhXD7o4SKrGN8pvHzjTUh84IkhIOMWHYDjfGSM4QPQZOKKTbjj8ZCQ49mCpOO7M\r\nQTjQCRI5FIr8OJ/AKTk36Yk4fhPUOK5hAzhSGTM42L6HOGEC2zixItU4vPWJOcVmMTm/FQE5Hvbm\r\nOBAhADkK80I4bybKOG4nTDikeHc4EYGZODM0GjietzQ4TJAqOSF/1zjiPzA5FkpBOFmIMDl+0og4\r\nzpwVOUrrwzi/b+I4BN+bOLRYNDjpqrc4MC2WOOhaHDi2Dac4B1fSN1JO9jh/F5c4BL/pOJZMNTjH\r\nB1U5kISqOFzIFDnUydw4jJN4OJ3QcTg+IME4acjjOFA65Dj/66g4hNF5OLp70zfPpRE4jL5kN+Mb\r\nCjjhdUA4jk+0N41mNDjfB9o37xjQN18WHDhWlnk4FrhoOIgJ9jer8z049jaROIPdCzg+Baw3qzjj\r\nOIUx4DdW2qM3hofxN6lXmDfdyDY4oI4NOAT/Vzh47KI3kRQYOJnSkjeY/Iw31aTRN2z1gzcANMs3\r\nT12sN6RH/TeCv4g4rJw7OGiFezdkjho4UZPNN3HkMzhMz9Y3AC8LODjg4TfusYE3bEIoONQ91jeR\r\n6P43B/xDOGLokTiVQs03mTclOBQWFDipHyc43Z4XOLnBHzjEOx44pT28N9CibzjQd9I3gQECOGIJ\r\n/zdeOKo3BQiaNzEx7DcN6K43xUoKOJhh4jeHF/M3xiG2N/D6rzd6H2s49tPjN24d/jcnROE3LIgs\r\nOFD45Tfu/Mo3KlHtN8YR2zeqm1Y4JM+SNw54JDiOFso3tSGqN6p/Bzjbgrg3lrYAONgcAThEzOU3\r\nxHV+N3TlYzi46zQ43/7zN+uuwzeWN7Q3l+/hN6R2WDb81Sk2+B1WNikGlzXdE5s1T6ELNjB9iTU1\r\nrwU2/ZRHNiAgiDU/GcA1AnjuNSASCDZrnJk1h82qNT5NpDX51Jw1d5ObNWJbsjXwpo41TgSCNYh8\r\nijWacsM1dNAZNrKrlTXK6JM1nOiaNctypDWUsJE11UwgNQ8SATXj2og1OvLTNaJu3TXgL/I1V0yN\r\nNeugSDWEQqo1uLqjNSZqtjUgdZI19uuYNZr9jTUi6Jo1OODRNYuO0zVd60416TyVNW5ZqDX6Dzc1\r\n5jHANUhZFjW09Ik1os9FNQ5nyTVKAJc14lyoNdKvSzXhSrk1ULajNVZJZjWtw1Y1Pm6WNeqRnDVI\r\nulk1lC+3Nd44WDX+PnI1iNVYNU0+ljX0q441WIOZNc1HLDXYyoc1bNXSNTcf2TW9G441MqWINUIl\r\nrjUMQnk1PpSfNTaQqzVCBVg1FuYaNf4QTDW2/FA1XniGNWpKjTVqKaA1WHRYNVyrSjVu13A1T342\r\nNdI5DjXAXJM1xyNGNfSYkjV3BoE1TB6CNYE6UTXUMBo2SAVuNWWzdDVRQLQ1YktvNbE1NjU8tuA1\r\nRmtuNfqrZDVtlWk1+19oNdM4bzUnbE8139kcNYadjzVWVKI10r4iNQJJHjWbXEo1Cx9MNWl2dTUH\r\nIqw1tBOyNcL3ITWBoCk1GxaNNQvOZTVs6JQ1I+rJNS4IHzVWKqc1N01cNZmkjTXFde80p4mpNSb2\r\nZjUbEH81NhNVNUXXBTXal5M1Tz3ENcgmKTVf36g1nwxSNS5DbjX5k5o1iuKpNaOhWzVTQhg1z0DH\r\nNer3cjVWKNs0jESANWGOeTUZYl417Rs6NVB/hzXKQWE1MOxFNUztpDUR3qo1t2K1NSYrkjXG6Gw1\r\nj/eZNc0HVzVzYFU1Yc3cNf7zjTUikEk1Q566Nd/5BzVQLF41TRqmNRltEjZh2ow15J2UNbX1iDW+\r\njMo1CuK1NUsbjjXAooQ1pg1bNRCxeDUGzHU18KwmNZvvgjWu+5c1Xbs0NWs6szU1Bb81mpSZNUTo\r\n3TUy9IU1aaqnNQEziTVq2JY1wntKNS/+izU8pRg1SqBjNSljLTUKsm41DJ+ENau9lTVStYI1GltN\r\nNc4jHDXf9y81w46oNPI+iTXb5pY1LPkFNWRgSTWozAg2bs3CNXJ9pDW7WF81QZmkNcgJBjVOT3Y1\r\nyr6uNX1YhzU4pZI1ghqWNaBERTVRbTA1uCI1NX6yjjU2ypk0NGp7NeYWTDWghoY1qiOtNQ8tFDVI\r\nX0A1qNJYNc25DzUiPrU1ZKovNae+vjVUZEY1MKYmNaa2QzUF4NI1ablmNYKjWDWtsRA1i6igNcp/\r\nfzXjF2s1OAiZNQHjkDVwFVU14vvKNY5AdjUtWcg1GnXhNCtyBTUsUJw1+bW1New/qjWdMpw19o47\r\nNc63STWi/3E17NBPNf6YcDXdtkc1EmLmNMDvMzWNa0s1wSM0NUz9TTVcECc18qDXNOjsGjUfzIM1\r\n8dHUNKDF2DSAQ5s1ZNSQNaviCTX2C2k1RPywNDC7njUqwUE1CMUJNflFBjWpq5g18F5YNUJJXDXK\r\ntLQ1EvF/NQXGsTRyyx01ACRrNYp8jzWOWpk1lS4sNY5OmjVqbT81A65SNae+JzXX30g1CbUiNQuA\r\nnTWjGXE1LEdaNbOjHDX4i6w1UdMvNSJFNDWHyU01HveNNSFq0TQCYD41qEZWNcXgLzW892E1RJfA\r\nNejzVzV2M581II5tNVllMzW9h3s17gx6NXCqRDVNCJE1Gb1bNStNRDW4rHU1Ce+ONSwmeTWSlS81\r\nXMmfNS/zJjVpjRw1vqZsNdioZTUiZZk1PTRJNVRL9DXItWY1D0RRNatTMDUbRZ81Q5mqNZ+JTjVc\r\ntDs17a/jNdXgUjUUuzM1m4ZGNZZ/MDVTuCY1Nl5LNciBRDWVJoQ14NtgNYLSGzUDJig1MuEjNT0j\r\ncjUxuHU189mPNaIjhDWHLUI1q49rNZKQDzXAE2k1aIJTNZwBaDXGDoM1xBJXNfVIYDV7IRQ1bUBs\r\nNVh0GDVUee80GpKdNfzy6DSzqAU1m+oLNdK6kDXmg3I15vlxNTkDeTVw6zs1AMoUNQATETXz3ys1\r\nZ3+fNYf4mDUjeE81Db5ENXBuvDVIhPY0HQxJNT3//zQG/cY1LceYNfwuTzUYQ4A1tLp0NbD8ZzWY\r\nh4w1kc5XNQekHjVlt4c1mn96NbV5pTVU1Q81PqNQNfowRTW4cyw1nXiMNXwGkzRibeI0sDoiNVnT\r\nfDU06Os0ZFhnNa0FgTX4Vcg16pZkNYtTrTUeBy01EbWNNVh5mjV9SQc1G5BINTR8NzVyv1E1cuIr\r\nNeuhljXSaF41MLuENcirhDXU8pQ1n82tNfQoAjU/qgs1ZKVTNdfXLTUkMCA1+JYoNQAAYTWTiixA\r\nqJihPe/KnzwiF308sm3AOwDBWztTzgU7lVExO8xl5zrGZo86q6uXOm7LUToi0eo5Gg3sOUzoIzpi\r\nmHQ6/dbzOZE3lzlAsTc5xMBdOZh4xjnE44w5icxEOXaVcjljG4Q5PvuIOYhbXDnkdwc5snEvOdte\r\nbznEuio5rXwkOa1mkDnblZQ4Q6oLOQQQ8jiCdyY5e08zOZQznjgnV/M4PckeOShYcjnHnrg5wFUM\r\nOX5xFTpMwLQ4Cy7AOUT0GTlFLEM5e31UObhV5jl54OU4uCpyOUsM+zhHwDQ5OpkAOW3bcDnSv4Q4\r\niiVkOVxsmDjZogQ50S7DOAWjxzi4WyI5CMFlOWV3hjlnF+44rQ4oOWQDiDkHeKY419qMOOoJ1Dha\r\n7sc4xNfkOMRysTiukAI5H633OCsbhjj/pMU4MNa+OHdUEzmcSfU4L7vrOIa/zzgu1NM4GV89Obf6\r\nKTltlRk5Wf+bOC5f/jjDJIw5WOzyOdqzJzojKoo57PHCOa58KDmaNNk4gAKnOGKEljiHzbo4KA3t\r\nOEWi6zgIUbo4ssXaOBaAnjjbJcA4LTG8OPYZlDjQ5GQ4pkQMOaq0ljhjcAY5IwTDODoQJziG6WM4\r\nyrFfODNtuThLXVU4nvSpOApSMDi5PJc43EGxOHo4Bzh0epc4v2mGOH6Qrzhc32s4lwkAODAtHjju\r\nCxk5CUyAODTdFTiiXVs4Q3wdONv/dDjGeqM4IDbEOORX8jiR3iY4/lMsOIYogTjD/xE462huOG08\r\nZjh6Sws5pgeqOOnggzi+vYQ4PAxMOJtPgzg8X0I4VCQxOBj8Kzi5tAw4fDQ1OCt3bDilJI043lyC\r\nOMnjgzjN+hU481VhOAwVcTgJ7C04AuseONxgtjiKlpc4WIAjOM6L3TiuXeg4SJZ8OL8kOji+JnQ4\r\naocuODFkCzhoFVU4UF6pOOdchDiW9Uk4DX4IOJpJDjj68vk449gYOF6IeTgSMck4NrvQOBb5wTgr\r\nV/44V5h1OImZhzjotQk4F1BjOProiDimzZw3IPdMOECK0zeLOCU4U6xaNzue9TdV8+s3NvxEOPgW\r\nWDi2eIg46lh2OLpfSTgUGnI485nsN5z6KTifstw3cMMxOAv9mTckQdo3qbS3N5fNzDcGBeM3snXV\r\nN2i/CDgVpk846bQJODnmBzikWtk3sQRGOOKdMjjHFiU4rmkYOCyxRzgybVw4xVGWODlNNji8Ixg4\r\niHn7N5qO+Td21Sk4W+l4N8ov8TfvCBQ40RDwNw7IFDiDrgA4+kUmOPuzcDeK9Fw4RwTzN7YldjdY\r\n4LE3qWrZN4umKjhRepo3hMCIN/it1Dcv4/Q3GA4POAli6DeecXQ3Nh2IN5HrqTcVM7c3hVVxNwBg\r\npTcgn+o3YXYgONC9sTfSKn04EV2kN/Kc/Tf6DIM4V2McOEkbizfUIiI45KUaOEb3pDdq9gk43THe\r\nNxbRtDcwfL43XFDPN2JTszdKJwE4mjEaOAJaszd4K7U3ifqAOMDlPzjGoRw4W/YEOAVIwDdLcu43\r\nR+7bN9A5KTjgbQY4fK3ONyTyADg2h0s4+pkjOGJpqTfw3NY33iMQOB7CqjcEmFg30WyhN8zm9jfr\r\nsxE4T97gN/BO7jc39AE4iqnVN+jp3jfEYsw3wepYOCegyze734s3Po0hOCCZqTc8NYg3eQUNOLa5\r\nGThPYNU3i7q3N8qsDTj/etE3bgePN9IHEDj9v6k34qi/NzyRZDe/n+o3elm4NxCU5Dcisg04rqWq\r\nN46Yszc2Nrs3QZQIOLKEqzcc8xI4DidbOPmFHDh/88E3z1JLOGoJ3TdF6eQ32CPNNx+ZYjgJ5RA4\r\nnA4LOE4IlTe2JTI4+hXdN/NWITjorhk4DWRcOMC1gTciBPM3f1bFN5YB6DeyUOA3owA+OAftNTjm\r\nDgA4VMZ6N8m5qzd+m+I3f1BgN+16BjjuNzA4+mqqN8YU3jfHNO43UHHiN5mYAjjeRZA3n0MGOJTe\r\n6zcbEfA3WIp9ONmr8TcIPSI4X62XN2WWSDcdZZg38djxNy75lDeEtwU4mv8mOKJrqTcU5BI4y6CK\r\nN4LolTeVFh84DmEXOIuCszeAFpk46MJ0N3SUkTe5y243MNelN2mZqTc+EnU3MTWRN6i09ze2q+43\r\nKPNmOLC+wzdw2k43DCNuOFwpDTgfZT44M9mtNwqJrTcvQBw4mjqiN6aHuTd1Zp432KvYN86r3jck\r\n6us30FBIOA7A0Tdq+2o3WpaiN3b7BDjVQHA3/Eb2N/GwJzjS6QY4mTdTOFfhJDiq2pE3QI2CN1nq\r\n1TecekE4qhK+N6NZHjj0OLY3gikXOFPvMDi8+d034DCqN8m8sDc12RA3pKTaN5qSoTdtyps3E/4A\r\nOO62jzdn5sE3IM0EOJuT+Dd0u/431rq9NztcvDegYlo3mMC5N7i5pDePma03QtBoN0vt3DcNhrg3\r\n4q3NN9ZXqzdBi6o3Yz7XN5y+Nziyv+s3m7sTOFjCATfz6iE32hfFNyInuTdrwWU3pXhcOLRkQDjC\r\nLfw3zJKGN26HBTggTAw42fjFN5HJNTeTA7Q3Rb6aN/6aBzjwo7s3h8X/N9i0JjgbqV03A37PN3Nb\r\nyzfLzZo3oKcDOEmhlDfWO5Q3vFAvN85xFDgBTx04hrgROHh2sjfhUZo3ILohOG/egjes38A3Ufuq\r\nN6rt8DcMNR04EjZkNwaTize/Uz83xq63N0w+kTcJb983fbn3N9rqETg/WuU3mv4MOAAgojcgML83\r\nIAwNONY3uDfDYrY3pv+NN6pGDThoP9439hKbN5IqZTfIkJQ3nKkLOOppnTfohL83G9uxNy1g4DfV\r\nqg44opfPN8RniDcgkdc3UOKFOEHNZDczFyE3ivbqNz/foDdKP9c3u9XoN2ix2DcCQ6A39QDMN/Iv\r\nKDh5OZE3NoajN9iueTd0RNE32xfIN/vJtTdOZoA3LmTlNy19jzek4Jk3fVRKOIQmJjiytwY4tQII\r\nOB01UjgoQLo3J/LiN1QgtjdbZww4o5SsN4He+jcF4pc3X91vN5BqmzfEBQM4ysuXN8K97Ddwr5c3\r\nHF2/NyZopTfGlbA3RMOLNweSuTc/8pQ3WcQNNvK6gTUxIL81tL41NTT8fzXddCc10ygKNcodIzW2\r\ny+g0Yq/CNJ/nODWImxI1UlgpNd51izXRQcc0poKYNf74qTSKPs40SduqNOBi2TRqWTk1sjxsNcg7\r\n1jQtgkA1ZWu8NPo45zQZi7Q0dzeaNUdbJzXFUo81oF4GNTXpGjVGXzk17rwgNd90FjWIqS8193yt\r\nNAfyITV4vgY1fDCqNEQqlDQe8bY0EvICNStJUDWnYA01D6v/NMiaVDVyexw1rBLgNF2bCTVGNC81\r\noKaJNETPxTS/7T81gpuwNCA9CTWEugY1UikFNbqJPDW0sD81+WrMNLySYDUx9pI0c7vxNMEAGjWb\r\n/h81p/JUNZlxIDU7NtM0D1CnNLEqDTVcXT81tNWvNI/XJzUPVYc0aXjFNBGP5DQ00Y80nHe0NN/K\r\nxDTpz/00t9weNahLUjXcRP80O/eYNNbmVDWccJ00w9R+NDQ8lzQBgfw0pXJwNKFmJzUO+A0147QE\r\nNXHdATUbyik1qjDzNF2MNDXe4PY0zOLYNLSE9jTp7ds0qDynNMPWOjX+HSE1Fgr1NDbvmzTm2iE1\r\nbP7jNEiTATUkAPw0jMUUNblG6zSJLzA1SiMSNVu95TTI/CM17iaSNSuAAzWipig1JrT0NELuBjXI\r\nZDE1js22NazfKTVSbgo1YksmNaDbbTU+J340MgwWNZ1HpjSbRNU0mrHQNLoapDUR1LI0ERTsNEb2\r\nzDS9UrA0boeZNIYyBzWo6FE0fT6wNAo2djT3Nqg0Ip3jNOpnYTVQS+A0/l9SNRw4OTWeVcE02Dfv\r\nNMpbcjR4Tc80wz4DNdKb9jRGTxU18mg6NXg4tTS9UWU0N5cbNcLfBjWPVNA07iCHNJeCsjR6xSo1\r\nnbo/NbWM/TS2r7g07T7xNOU8ZjUyzL00D/3qNEBr5jSQdmY1JUUtNUhDXzWiT9g0800TNQxbxzSI\r\n/6E04mnSNBrnHjWqhQg1U5nWNA0a3TRo5fs0x+ERNRi/pjTAxPE08xaBNSyUlzS+dto0qmX8NEQ/\r\nNjVF5wY1CFxGNcVKBTV1FPo0CmvrNEWPGTW0aUQ1IIQINT4THjVWoSY187EHNVpl5jRtDuc0LxzP\r\nNFq+CzXaXME0EtIANYLAxzRcixU1EDxBNX4a/jStph81XMSBNPV/GjUvdcc0ScRqNdbrmzR2AjY1\r\nWoXbNFxGPTVmdJU0Rj42NaeDtDQdBQI1l7dkNAPG2DSAeO00dQeZNF0wKTVdefE0bKa4NDmJgzVT\r\niCw1w20INcACsDSEijI1XeoDNd5vGzUYp+E0R5EaNYCbEjUsHRM1UxCbNPaGEDWvTwc1vInoNEAf\r\n0jQj+qU0uiDlNKnHazWkIQU1ZrycNQMGzDS0xoA10guYNMY14TT6fdA0gkIxNRBO0jQAl3k0868E\r\nNQpJ6TQmcG41MIEPNbyjSjSmtek0aa+mNJYWujS9gag0FSsqNYTZRjUEbQg13WDxNJvQFzW4OUA1\r\n4u4xNQyO6TQp/Rg1I39gNFerFTVJf9w0CNLENGB/pDS5KAA1FazANMwHWzX+6P00CUm2NARh8jQA\r\nMQY1mOmaNBadHTUla8o0BvzCNCBIxTRJioE1EtoCNQ3YEjU5+9Q0o3U6NbucZDQ01v40mUPXNLr1\r\n4TR8xYE0D6cSNdgoCzVyw+A0yvaJNIkqADX6k/E0UPwQNSlIzTS11N00XdL9NGUYlDS6SMU0LjUI\r\nNXQWlTTy59o0kOiVNN3ORDV/Bjc1u01FNUysCDW8Mak1G13JNM9AqjRbVk00WHywNP7pyjSkiNs0\r\nVpKWNDawFDUZr/w0jzhcNY1FrjSOxBE1q0sRNQ5g9zS3UYQ0/lefNCL9zjRtl6008wz/NIH3izTG\r\n+JI0IfRJNVKG5TT2zN40LsfFNLN0WTVqVRA1sENzNVGd/zS8y7o0L+sLNf5AozR/cOU0h1knNYyq\r\n/jTCcSM1thZeNOLE6zTU56w0oM3rNIj7CzV/N8I0kBrNNKTPADVG9J80TfcZNWEUsDQQaZk0ZnFy\r\nNALORDW12BE1Syr9NF5cEzUSgPI0boM1NPLr1TQFWwY1WOZNNXARmjRAP4c0eX2GNEAaGDWbDJo0\r\nWhnLNLeUMjR62Qg1Cxv3NKtdzjTJHZg0NFGrNKJm4TTTg9Q0ELU2NSd14TSoIr00zFDNNLyX3TR2\r\nI7s0N6irNC2+pDR7ezE1kt1ENYPv9jSmBcE00yFZNGn2MDVAsx01HyMUNXGsIjX/ju80rGv6NBje\r\npTS2mQc11y8BNWRz4DQeAyI1PFr4NK/rdTVQZpc0Wo+2NLj3NjVucAo1KhqwNKT4ITXJPZg0vd9w\r\nNQrWsTS2WWM1kSimNDbZ6DT0ggw1yAwWNeDsgTVvukE1nSUhNebkbTRVwnk0AEA2NQ==",
                            "noiseTrainingType" : "default"
                          }
                        },
                        {
                          "effectName" : "WinCompression",
                          "category" : "categoryAudioEffects",
                          "parameters" : {
                            "attack" : 0.0,
                            "gain" : 9.0,
                            "preset" : 1,
                            "ratio" : 10.0,
                            "release" : 3500.0,
                            "threshold" : -20.0
                          }
                        }
                    ],
                    "start" : 36115,
                    "duration" : 1719,
                    "mediaStart" : 0,
                    "mediaDuration" : 1719,
                    "scalar" : 1,
                    "metadata" : {
                      "WinSubProjectDisplayName" : "",
                      "clipSpeedAttribute" : false
                    },
                    "animationTracks" : {

                    }
                  },
                  {
                    "id" : 115,
                    "_type" : "AMFile",
                    "src" : 27,
                    "trackNumber" : 0,
                    "attributes" : {
                      "ident" : "Narration_fracture-2-czm-element 23",
                      "sampleRate" : 44100,
                      "bitDepth" : 16,
                      "gain" : 1.0,
                      "mixToMono" : false
                    },
                      "channelNumber" : "0,1",
                    "effects" : [
                        {
                          "effectName" : "NoiseReduction",
                          "category" : "categoryAudioEffects",
                          "parameters" : {
                            "denoiserAmount" : 20.0,
                            "denoiserThreshold" : 0.0,
                            "noiseProfile" : "G/UZQTiCO0KB6gdBjteyQWHmt0GqQVNEABgiRFhulkS7QdpExAmTRe6bX0XCzB1ElpQqRW7FjEWr\r\nBcFENWH3RCh7kURWoppD329vRJQ0s0RiTZlERWdaRKwZZEN5tJBCrU2LQTMt1kJqq/VDmb/8QfEK\r\nzkCrJ9dBMgOwQDk/LkGIWl9AZJJrQIr3ikB0CtVAahe0QFd1g0BYlWlA8804QPe8wD/XJJs/cRZH\r\nQK3nlT8rO6k/TPygP5ynmz9yIfQ+QkYEQN5Inz8WOBNAekkaQHTZ30BMfx5AMK64P4Lccz9nXTk/\r\nJPCSPxLZsT/BpH1AJQ5fP5ElBD8YaIM/UbgfP73CZT9ilZs/ev82P6xIAkDz9t8+7KhGPxOo6T6t\r\nNJM+emlqP5ZUaT/3Qg0/PSw+PgK0A0AQuPU/UI7vPu/GRz9fnXA+79p3PyXf3T62ERc/LdwdP5DS\r\nJz/JGV8+SJMOP56j3T7q5II+dV4oPmfxkz6G3S4+9Wo5PuL8OT5D/kE+8l/GPmgKqz5gMEw+u2XV\r\nPmX4VT7CGWg+JtGzPjCLtz/OwUA/6mgUP1AHKT7Q16o+AjSZP+6oTT8P0Qc+rQfsPaNjHT8VMhA/\r\nNnqXPqgFzD6WZV0+4+UsPkJqRT9SHqU+MGEmPu52gT4u5yM/HAnwPZnr4j4VVBo/db3OPtevaD5w\r\n3vI+1+tJPvQCPD5yUqM+Yw03PiTxMD81CxY/FKeTPVgR4j42QGQ+jooTPxYM9T4ICh0/it7VPujH\r\nFz41mBE+X76yPWq4TD5zswE/EsCxPdv+8z1wVKs9mY5SPnoc2D402qQ+dEwJP3ydtD5GuV0+kHOn\r\nPvE74j2LmNs+BUlhQAQrUj9cfiY/VxUOPxx4zz7puI4+rqH8PmiQyD7q6QE/uE2ZPy7KRj+XX0M/\r\nKJ8IP/LBPD6SL1I/a8vsP+DTcj/Nom4/L67VP1Rx3EDXdu4/WcxYP6RbmT8zwnA/YV7FPy5dwz9C\r\nGf4+bNtCP5BthD/tl6s+GHFtPhibcz/p3H8/uuQCQIYagj+3sZY+kAd5P0JnoT/DkoM/2kr9Pg7o\r\nC0C6sog/M6mXP1TOsD5DovQ+WHzDPtYZJT/S6QM/Cw5HP3p2NT8tkMo+lLe0PnS5AT9aW+4+dCyl\r\nPxHvSj+Vy9Y+miBsP3M/AD8Z2xs/R6CoP6wZfD4QBB8+Jk3FPmtP/j7KFOE/LIM0P8L64z8DgnQ/\r\nDInHPuWXOT/JJ4Q/QKEgPxfq1D+vDz4/Sy8YPya7wz7V8h9AjCTUPiZxNj+mJSY/6NgwP+mqjj/R\r\nxuE+xCXfPsLMLz+mwuY+chvEPnq0Iz7kLPY9wO4GPiCBGz6ozkw9VorjPjhKiT/noYg+2gVpPnqE\r\nJj+p+04/igkJPxVniz6atOA+bqgfP5wZUT+GyHY+0OaqPvxYpD9qAZE+deQYP22H4j/KdrY+7CeS\r\nPqujcD7pDug+we5FPgr0tT5y2Qs/8ILBPoIMrj7g+Q0/+yjdPbe/CT6LJo4+lIUmPpz4kT3JRpw+\r\n1g+KPja1Fj/dViY9GsqYPTHNBj7Me2w+szM0Phwa9jxEwCQ/KXzoPhY+jT6MOi0+MXVZPl6tgD8V\r\nhKE+hMfuPTq1Dz/odTU9O5FqPoJSEz4g6tg9jOAlPm5Njz7+8hw+fXm7PsobRz65R6E8p3/3PV4G\r\nuT5YCGo+tsMIPWR8fz3qLCA+f8y9PXSs1Tyy0909LReiPdKFxj4U+II+guAyPgdzBD6BcxQ+EXFt\r\nPhEC2z3GxF0+nU6dPTcF7T0tUdM9TYqePri6Ij8tO0M+uQgjPYrEHj2hvwQ+7MHLPvU3sj3KHPo8\r\nKZIiPrrhIz6aGzo+Q+dvPqDDKD7//xU9rr8aPnfKiD4aTSo+SG7qPdHVrD2NAS4/zGAhPppoMD8s\r\ngJQ/azWGPz7C0D7d9Y0+M41vP3ZF0j4qFow/OlHCPWyuBj9gR2E+JFurP5mrhT+fxF4+melBPnwg\r\nUj9z7r8+wqGPP0UDij7wsxc+mDmWPwYWcT84XYw/9WZXPzRhdz8nX7I/YBHCPmi3HT9kjr8+mO5F\r\nP1yMRD/uurE/wOw/P0S5bT+kKu4+Lia0PtgaSj9QYIQ+yWaSP4nHiz7jkJY/yTVsP+V5zT7wnDg/\r\niJiCP5Hfyz6AdZM+v/oOQC6LdT7fUg0/LeQdQGpGNj+HCb4+bbmFPjNlqj35xaE/eTMVP4a99z3q\r\nLO0+d/Y1P7KN8T2Tdd4+GVOZPgM0wD9I5LE+8UcGP5PNEz/Hp3E+xPgPPmGsAz1qsj0+pKdVPtRm\r\nfz4R5II9CZK8PYyGpD7xihw+ctgPPhD/Fz9VHmo/dkkKP1BYOz6F7II+8LPaPvRqgD+O1Tk/Pq6k\r\nPxTuTD5kw/Q9wA+YPgAXgT44vIY+x5aFPsILgD1E7/k+xMdTPkwJxz7ZDFc/4JkIP5sLZz+0J5I/\r\n4GyUPo4s6T6syvg+hf9qPyQE1T7Q1mw+LDAYP76LLj9KaxQ/ug6dPBz6xj75W70+OlxCPXLUaT8A\r\nKrU+39MiPqfA+j06BJE+C8y3Pd99gT5pGVE/ovT+Pro/wD4UVto+gzKvPlzK+z0sj6c+YKFyPkjI\r\nnz5K8oE/COq2P8ToDz9MMFw+7ZZIP0CvCT7hCWw+ZIi5PXLrdj6AsLc9U+WmPrfjmD7Mq10+Ejyi\r\nPuILbD5/r7c9fnbePVIoxz4VoWQ+02sEPvpidD5Nn6M+qczVPDWw7D0dEAM+2U8dPsCPwD0C7JA9\r\nA2SwPUdKCj3I3lo+JPHiPKAfxz3SIwk9iYypPfmg7T1YPdU9QAvDPvReEj37I1w9+GbVPIssQzxb\r\n7zU+dXUKPu1LYz1oTL08//XJPHZJKD0QiEE9DJ/hPfjyKj0Sx+o9+NTLPagwXD0/ZDQ9JAQaPRoj\r\nUz1GJG09/LkLPUG7Gz2qM8I9/VQ+PE53Aj1mOwE9gY/qO/8Plzz9ooQ8+nAQPa/xCD0124I8TGAB\r\nPWg/kTzHX748YEFVPLOhLDziY/M7MXO5PAwuDDxs/sM8ZqQHPPkkcTy8Cvc7BmjyOy/F6TsSUxg8\r\nLzG2PLYNADxZGds71ukJPH169TvwB+87R6fyOzl5ATy6v+I7kCrlOzz54DvGpQI8o6RGPE47GTwi\r\n2CE82NgAPLlK1jtYus87XtDTO9os1zuzbgo82L34O4RI7TsCqtQ7UmraOxh1DzybXOA7aj7XOwj9\r\n6jtA8Ao82JPuOyWXHDzb0eQ7VPDkO2MJ0TuM2s47xvrOO6eG1jupD9Q74hDTOzIY0zsE98879LHQ\r\nO37CzjtpXM87uEHMOysgzjuVr+I7gerKO8alzDsvEyI8gDDKO+gnyzsDWtY7VpnJO/IGyjso39M7\r\nvAzxO2Kg6ju4ngc8ZD/nOzK+2DvKAMc7skfFO8yrxjuHT8c7dnnFO4R5FDwtgtc7I87BO0Rdwzts\r\nVsI7zYTAO5vzwTtuxcE7unG/O2Wbvjvf/8E7om+9OzbsFTy8p747Qpe7O0DGvTs4zb476J68OySV\r\nvDv3Rbo7dAy4OzCouzspFLk7BPe6O8iMtzvqhrs7+gW/O7Td0Dvzs/Y74HzUOw+G2TvCoLg7B2W3\r\nOyhIuDsNpNo7xvy3Ox0MNTwolAY8tmG4Oxu7sjtOMLY7llO2O6jy0TvwUbE7utWnPCZmtjvp7wQ8\r\nIODVO3kusTtGNLE7tIetO6ZrTjxcfy48y7G9OwWmyDv37lg8wt3tO+xszTvS/vU7B6j4O5If8DvC\r\nTuo7Ps8UPHWh1juv+647YhOtO+dlAzzNe6o7nRSsO5qi1Ts1Lqw7Zh6rOzOhqTsZTao7MAaqO83P\r\nqTsdc6c7neqqO723qjv+Xak7dDCqOx7bqTvSv6g70HOsO7TvqTuv0ag7qg6nO2IfpzsGfKc7wm6n\r\nO9R9qTt7Gqc7FROkO/WDpDu/dKM7skKjO6yyozsqA6Y7PgakO7jLojt53qI7BQ+hO/eVojsHb6Q7\r\nbI6kO6ZeoDu+D6Q7sMejO9qrojtF0aI7jPyeO5pinjv7op87EkCgOxwUoTsRm6A7PBCeO005nztm\r\nxJ07Z+meO4+FnTuIzJ47xaGfO9n8mzvz4Z87k0+fO+4snjumRZ07GFSeO6zSnjvREZs7vtOaO9BM\r\nnju+Zp07J5+bO6DhmTsDHZ47WEGcO39jnDtK4Jk79xyeO7dunTvzT5w7qzObO7m2mjtHn5k7glqa\r\nO2VhmjujCZo7iRqaOz/MlzsfGJg7okSXO4FsmDuryZg7eCKYO5sYmDs0zZc7+P+VO8y9lTuMgJY7\r\nHECYO57RmDtHIZc77TKXO7lEmDsWYpU7ipeWOwqTljtfWpY7446UO+rOlTvbMJU7atKTOyKUlDvD\r\nZpU78E6WO9yZkzs/0JM7fiCWOwXWlDt+/pM7IyiWO21wlDt9OpQ75vySO3uwkztp5ZE7Ji2SOw4s\r\nkjvk35E79RSRO/6NkjuL85I7qq6RO+TykTvLGpM79fKSOx2EkjvDSJI7yT6RO/YEkzved5E77R+S\r\nO40ykTulEJI7kTCSO9mKjzvD3ZA7rNePO9OHkTvjMpI7VpSQO2AWkDuVcZA7tS2QO0g+jzuvao87\r\nftOOO83Ajzu/a447bRePOwW2jTuxdY878HKQOxnajDvVco87lV+QO5PDjTuH6447ka6KO1GijTv8\r\nkow77xaNO17EjzunIYw7Ig6LO/IZjTvdiI47lS+NO4NbjDs8RY07C1CNO2cwjDv4y4s7nOGLOzGL\r\njTuEmYw7OMmMO4iNijtiKI07H6aKO+I9izu5NYs7tSeLO2CMizvbU4w7OSyMO2/+jDsnYIs7qbGJ\r\nO1igizusXYs71wmLO5CcizusM4s7/FiIO4XLijs/0ok7w1mMO1XiiTvJwYk7LjeIO2kPizu+2Yg7\r\n83eLO1PxiTuFqIo7cYiJO+XLiDvvAYo7T3GJO4LUiTvamos7Dp+JO1Zqizv7sYk7Jc+IO8gbiTu8\r\nf4k7XXaJO+jKiTsMmoY7Ux6KO1s2iDvHj4c7g5KIOwDIiDuHZ4c7jTSHOwhEijtaqoY7xUmGO7R0\r\niTvJsoo7gECGO1c2hzuqu4g7vMiGOyP2hzuI64Y768iHO7iAiDuMmYc7fbWJOy/YhjvGJIg71FKF\r\nO2EIhzvHbog76biHOyeDhzteLIc7XNOIOw2NijsrZYU7XM+GOyxRiDuHYIY7rq2HO04Vhjst3oY7\r\n3aaGO4sdhztqyYc7/pWIO2jxhztn5Yc7LvOGOzoahzs4uYU7NJiGO8SViDsxgIc7y+SIO3HihTu3\r\n9IQ7ssaGO8yzhzvpUYc7UrmFO+7NhjvVcYY7kNKGO+kbhztatYU7TEKHOxM/hzvLloU7Fq2HO7CR\r\niTsSxoU7JWGHOxfohTvvBYc7jeSFO/ZbhTtnFIY73qaFO6kRhTut4IQ7VT+GO2dHhDvyOoY7M3mF\r\nOywQhjsB/IY7YaqEO33ghjsUTIc7ruqFO0NvhDsWdoU7EPmDO1n/hDsUJIY7XQKHO7KqhDuC2mBA\r\n4PGMPaDN4DsgF6I7AOHyOgREDDsPzNw6A6+uOlj4qDri/+w5jphROugeFzpuRPM5HbXrOVIFnTnS\r\n2PU5w3AlOitS0Tm2LZs5zDOBOeARjjmUGS45ZxcsOSUEDTk4Kj45gDccOX1EaDkmqss4w+8ZOdEA\r\n2jhYp945qUS7OOF/Cznj/jY5svi2OUrcmzgJSm859QghORQv1ziJ1vw4nQ93OSSngDnkjRg5IMgU\r\nOcyl5zgyKts4jcvoOLAjNDnmScQ5pB2VOETDmjjjhcU4TsTlONFEGjlNgwE57IF2OPCngzgOlkY4\r\nbQ03OUpIDjgilqA4lgZyOCrylTinNrY4/GKWOMWtnTil7Y047ac7ODRuizibhhg4YIuZODXCtzek\r\nnoo4JGtpOPXSxDhIBUA4V2BHOE+DnTf3Taw4BYqHOCpggjiYBaY4CnuQOCnqBzguYR84SN45OJJ2\r\nDDhWj4Q4QtiiODRn+DeIv+I4FAdDOIs3XDiQqjs50r94OGR4QzgfZWY4fT06OIGHUjjiYSk4X7sn\r\nOOKSPjhPXV04wu1RODC98zdUR4g4FntYOLJ4JDj6lws4Qnl5OFJ5FDiXXJI4UGdLOLTDBjiYMGw4\r\nCUs9OCo2VzhlTz046sZoONA1VjgsdAo4gmtTOIKvBTgh9YU4qPYJOKI6IDhfzl040iYhOFQXZjiD\r\nuRU4Yg5WOCZQSTgs8zE4TcwUOEYUWzjTcYU4H7s2OBuisDhqAVI4Z3UbOGkYvDe40V84Y52hOKL3\r\nSTgG2Cw4rpmKNyqq2TeeGRw4kGOOONaOrDeK0r04TKO/N5BDHziy3g04RD48OLUeBDhKSxg4Htai\r\nN5AIjTfdozE42jXnN6kmzDciIBE4buujN+gsIzgEb1c4jHy2N02GDDigP/43+CXjN0t9+TegWtw3\r\n3zezOOQpRzhUH2A43+/PNxRegjhh8Os3fpYYOPY2aThFsfA3dB4IOM+tVziKqdU3h4eROHrPTzhu\r\nhXk4/NdEOBY96TerJvc3rrrmNz76xDe5sV84tWd2N47H9zeJHh44aNW8N2C+Ezhjx+U3sxkFOLFV\r\nIjgmi5g3R2vTN+3X2TdEEWw4oacfOdPqHDhUIV04gbcyOJsKXzjYCsA3Y/ASOJbe2zemIac3Mowy\r\nOA5AaTiYByI4WteyN8cF+Tc0+9g3PvXyN54N+Ddx6Zg4iLDcN9JbQjjzenM3W+GgNwrXxTd3gl84\r\ngsLONzfUeDeBd803cTWwN3GGkDePdgs4pOq2N9G08zdCQqA3xUYrOGJ3djeXRT84KuM/OHvYLzgj\r\nnP43FEtOOBVtDDhDcaw3NkMiOA+itTfVRno4VEEkODSN0TeccnM4JLuCODHr2TczsSg45ybCN4PU\r\nzjfao283DVDhN7ItFjjxAW44GIh9N6FWkzeSrqM3b8khOAMbQDde7oc3TrXCN0DqbDiTa/g3dpk+\r\nOM4/zjcW9/w3Pk/WN7CC6DcttMY3j0/aN65QRDiQYrU3G0uZNwcTejjiYsc3tBZCOLVmyDeHkzU4\r\nZxPvN6/y+jev7mE3phn6N+jDajc7F7M33D28N52k+zchM8o3NOawNz2lozeXMak3nxAEOJwOBTiu\r\n69A3IvyNN2c1EzjHzpw3LH8fOOm6XzdmaAQ4EViqN4f8vzegFqs3C9wIOLV6PjjHZtE3J2WPNys5\r\nrjfjTYA3lJI7ODXbjzc+RV4447LsN1IO7jeWGN03vgflN9SvpDfuhWM4WIWZN22sxjcG64E3K5Hc\r\nN+LDSzjmgYk3l6FQOPCscjcNoHM3knCmN4VThze8z/03/fEvOJU44DcGix04P2LEN0BYVTh9tO03\r\nc5kNODdz5zeG8K83mz+ZN+whwjeDGgU4cUDkN6ZenDdsohA4o7QCOBVWgTfdtes3MJSSN6endTcU\r\nr6o3fNYcOBbfMDj3e/M2/vExNwI2bDe/Rog3I3DpNx8mpjfWZ7o3WQ4mOJlSdzc0GFA4UOnTN9ga\r\njDdPH583BjLgN3auqDfbdo03yUo4OCHdyjdML4s3yE33N3trjzizEyQ4wr0hN07/xzf2zgA4pVgL\r\nOHSRozcQdEo43CnIN8AYTDjLfkg4LCLWN/zvYTfPuw44pvDUN1E5DzgO3pM37ONkN1TNmTcWeLM3\r\nslQROEvKmTeVCL039eL0N+md1Te2tyc49kCyN8GNKDikN+I3s0cKOEaO5jecuuU3FFvPN7LtszeE\r\n+5I3+4EkOJunRDjOYMs3wf+0N0HAmTfi7d43z9kcOAo0pTfyHbs3N2eCN1gjuDc6WyI4rTgOOOFk\r\nyDclzuA32CCfNxqiWzcNp403AoKlNyXUIDjbLQ44WYmfN0SyAThYn5w32fCbN/VQTje+UOo3Cx09\r\nOMGj+TdUDPQ3WnKYNy2iFzj6CMs3fCq5N1YczDdYLuQ3EoScN8SCgDdH0bM3KrqjN1ay0zeltes3\r\nzVgFOC/1tTcg9xI4aRBFOCYHjDdqWD84BgG0N1kJkjfDxso3FkOKN5YHKTix/go4V1DBN0S4tTcc\r\niKw3MrgzOL4kATjargA4K3OcN3eUvDcuRPg3MDtXN0m6ozeRlPE3y3/QNwonxTdWjjA4AJ7SN3In\r\nCji+VBs4lXKEN8Av0TcgclY3jv32N6dNzDdSg0s4UFTeNziKsTf2+4E3t/C9N5dZnDe4fsw3Lpqq\r\nN4JxcDdpM144NxZ7NwJlHjgmgQI4OMj5N4VyGThT2RM4Yf6mN1JluzdS4JU3wnLhNwAU4DcNAYo3\r\nbdCcN1tThzeb5AA4kZ0rOCv80jfU9MM3k6i/N/XSQTjK3ZA3vskQOBLRyTfmifg3CcvMN9PiCzfU\r\n+ac3O5v8N8ORFThJcGo320TFN8yt2TeQ3qE4BMEDOD4PLDhuCrs3YoaxN3TGuTdeeHk30mEVOMUr\r\noDeCO8k3IHXPNy8YyDf8+N43t52lN4jG5Tf9HTI3LTq2N3TuTDg5Yck3mG6wN7VIJjhQOBQ4l8r0\r\nN0DSiDd/X5c3Kxr1N0SfajhqcIk38prMN8gSbjcgegs4dCGFNwPUtzcAhvo3SE+QOOWVRTfGS283\r\nmLifN49/nTe4g5s3k+EGODLNlTcT4LQ3Ri/iNwM3gDdyYQA4pImHN7+2IDe1i0o3NHSFNy6Uszfa\r\npuo35nV+NyBSqzbRHRw4Tpq8N76FEzcboYQ33BkcNwgznjfKfE83Y/stN4nU9jckpDQ3Vd85N29Z\r\nQzfyxM822mfRNznZRzfb5ng3VsThN9iJBTcORBU4wfelN5zmyjfYW4A36jB1N5tAdzfYhh43xvSu\r\nN2LJ3jd3HDQ3IstUNyYuSTeFLVM3lvZXN2ysyjcGYL83bsHENwH5vzdFOqQ3nHv2Ny90Qzi/++E3\r\nWmdPNzYQMTc2OH83ZXYaOPWQgTfzk5g3zdUpN6TUATfiOR44sfEqOIX+XDgsb9U3y48jN7oxHTdG\r\nAek3xh+uNxFTKjfHXLY3Rl7ON/6eizfenZ03JiQsNzcfKTiqh6E4TS8+ONpp/zc6inQ3YUTHNxLC\r\nxzeyomk36Q+MOD1CoTjaBDU3dMZSN1znzDiNvUo4ozOxN0rAvzeZlJI3eJKhN5FopzZoZck3uOKT\r\nOHYY9DjvL5E4UxnbOEdDgDggmYg4WXR0N7atBTfD/Qc37BvINx3HgTfEhYM3YZRdN6S9NTddwro3\r\nf3FnONBd5TibLRI4sxclOGiWWDho3MU3hf8bODxWfzhNEow2ZzS0NyBehzeb9So3/sIJNkJ3YTfn\r\nl283UnwGN/hPUzbN/lg28CiZNkQSIjjFJZo4dmcaN0UhJDmjPIs4forVNsz2bDhxzq845TvON0ut\r\nazi96VA5nOOEOOCDxzeXnTw4UwAYOYVTFDmv33E3m8OROJTSkjiOsd04bq8PODS0kDfFuK43fIXJ\r\nON4pFzi6kao4kn1wOO09YTdaQGo34OD4N7TRuzfyGMU3fYZbNq3hEjUqLA017tX2NPr8xDTDDhY1\r\nX+krNaAHkDTa0OM0SQUrNXCE/DSliMA0vfYCNZT/STTJ2A41LUGSNMjKxDRdit8040DzNNdMrTTY\r\n8Qw1huu+NACNGTWvmeE0orCsNPbTJDWl2kM1zKp8NATdNjUDg4c0YfQMNSpcjTQIoaM0BPvkNH42\r\njDQh7bk0teUaNaNK0jRgf5A02a2oNE7WyjQRFFU0bCYpNX/bmDTw/XI1dVngNIgKEDVu/eM0n3V7\r\nNJHrijQnkOI0X++6NGsC0TQCcxI1oFo6NZsvujRR7Mk0sjO/NJ8NlTRrwYM0jw4gNfubtTRGRd80\r\n5Z2gNFVzGTVUP7cznP69NALb/DTXmls1H5vMNPzoaDQK2g41Hi/YNFJyrzS0b300DOfANEMbGDWy\r\n1xE1O02ZNOdDwDQ0Zdk0czh6NeHV2DQANQM1P9yiNOJz0TThEis1Tk12NGYXqDSC7Qg1oBMcNYDi\r\n2jRfOiY1FqKkNOiiHTWfMDc1V+DSNKCuyTT59Es04EaWNKIsyDTe5fk0ft+mNDVL5zS0U2Y0vZn1\r\nNIhILzX/Gdo0uTSQNDKMoDR1DJI0c02KNMpknTRwIuk0l8t7NF8FqDR2XoA0SNK4NGIo4jR1NQM1\r\nqf+7NBoBHDWEnuM0Zw2mNEY31TRMgns0esALNa/OBjXshi01/D1nND7CJjWVlN804aTxNDFgDDWe\r\nfwY1ZqMFNflpwTT1Cq803BfgNKl8dDQEXvs0/0gDNWrZ5DQp9w81MkTBNI5MQjSzybU0y8MqNEQG\r\n8zS08Lo0J5OnNIQVjzS12cw0M7CANIp2CjWnjNc0LWDLNLy0tjR/ZI80LOLhNDreEDWnFoE09V91\r\nNPJcizQ0Ls40osmLNDZrGDUcGn00krTwNEsuDzWwIak0vkS6NG5bDTVIsQQ1yQsgNRQ7mTThzas0\r\nFN3XNICBsjRP+O40GCHiNPRIATVykYA0iWPSNIdMxzS39bQ0Pk+8NNN3mzQnp500BXSkNC6pGzVk\r\n0Ik0ULkRNbZBvzSH0eQ0OtuPNC/9SDQceZ80yLQyNBc12DSoNSk1XHXSNKh2kzQcfZg0CQTlNOd2\r\ntzRZICA1LMkXNRhCzjS1NdM0swClNI4TYDTQS5A0MnPoNI2FwzRFyWM0FrLtNP/qqzSoiqI0Wovd\r\nNJteCDXKEq40nAd7NCreVjS1eUs1UrQQNQTS1TS/lrE0mYicNIahjjScBd00G1r9NCUrSTX/zK80\r\njb0tNEQNnjThXow0aYipNKSzDzUUgCw1/etTNfBDATXSCbc0+J6aNHpowzQ6ZKM04+x8NHE0NDSO\r\nSu003ncINbpoyDUu3yk1yqkHNbNijzSQ5Lc0rPjwNDtpjzQA3AE1TsevNH2oozQ5t1g1jTC5NKZF\r\n7jRSwUE0D/0QNVN+gzRcjK40gn1+NFSgoTRWSiw1tENkNIYSeTRD3tQ0mgNxNLPIFTRQeAo1VlKv\r\nNL4P+jQapeI0DqeiNMxflzRbfpA0fEbNNIL77zQl7v80TGu5NCFOqjTx1OI0AIC0NA==",
                            "noiseTrainingType" : "default"
                          }
                        },
                        {
                          "effectName" : "WinCompression",
                          "category" : "categoryAudioEffects",
                          "parameters" : {
                            "attack" : 0.0,
                            "gain" : 9.0,
                            "preset" : 1,
                            "ratio" : 10.0,
                            "release" : 3500.0,
                            "threshold" : -20.0
                          }
                        }
                    ],
                    "start" : 37834,
                    "duration" : 1056,
                    "mediaStart" : 0,
                    "mediaDuration" : 1056,
                    "scalar" : 1,
                    "metadata" : {
                      "WinSubProjectDisplayName" : "",
                      "clipSpeedAttribute" : false
                    },
                    "animationTracks" : {

                    }
                  },
                  {
                    "id" : 116,
                    "_type" : "AMFile",
                    "src" : 28,
                    "trackNumber" : 0,
                    "attributes" : {
                      "ident" : "Narration_fracture-2-czm-element 24",
                      "sampleRate" : 44100,
                      "bitDepth" : 16,
                      "gain" : 1.0,
                      "mixToMono" : false
                    },
                      "channelNumber" : "0,1",
                    "effects" : [
                        {
                          "effectName" : "NoiseReduction",
                          "category" : "categoryAudioEffects",
                          "parameters" : {
                            "denoiserAmount" : 20.0,
                            "denoiserThreshold" : 0.0,
                            "noiseProfile" : "5/tFQRsG9T82jfI/UkZJQIZSgEBk55FAwIJEQL7/7j/QUgRA3qWQP5rsJj+NOXk+h+pEP4WmvT66\r\nEnM+ZKccPmttDj5qRmE9q4k9PbGVCT40uAo+yPz2PRdZ/D1GWdA9sKjiPSBiiT2gG7Y9Bna2Pdwj\r\n2jxK2gs9xacVPUeIuTxVCLg8gzYZPVJtvDwdv8g88BSdPDhQFjzZzMo8h25lPMfwATy89q880AuA\r\nPEhSITwYkAI82S+QPLAUkDwgbe07uLLxO273TDzdCio86o7qO61wxTvAjeg7Gq3PO5NuBzyxhO07\r\nDB9SO8WSNjsVmGc7BNliO9+hijsNrqg73CpEO0w5izvWQpc7NJgxPItDjjsSflk8qyGQOx8hczxm\r\ndKE7gbWfO4+plDwCULQ7uvW3O4IsdDsL3QU8QKl5PIAG9DzhQ5M8wkQGPQM4ODwHhEo86CsfPSZn\r\nKT1mIu08WuwgPUJywjzNbvw8fcKRPcra9DwsrHA82p4aPL5PfDzukYw8IHZFPX9sEj1eMsM843MP\r\nPOrgQjyxmCs8UiCVO10Vnzsq5Kw7QN0cPIgFEDwK35c89jAGPNItyTy1qcA87bLOPIThtTz2pDw8\r\nYBzZPI1p0TtsAZs8wU4cPKqdUTsL8Qg8nx0QPE6p1zv8yc87L0sTPHuisTu0+Rs8Bw4iPG27xDvb\r\nSkI7E6Z1PB2BKDxSkww8H2pdO2ahgzv2fsQ7cw4jO2y0CzwX3Po7TXsGPPJ8QDyKojA8Id5xPIha\r\nuzsb7gw87Hi9O6MeVzxcuDE8akE2PCBiBTxoXQU8uhpJPPeKhDulTrg7IonpO6pgfjttQHE8yEsE\r\nPPaR2DtPwy08Q6UYPF0WrTu5SIY7MC2UO7ZCFTvmxRg8LnqWO7eTUjucy/g6XRQDPEAaRDwIfB87\r\nfDKRO87nWDv5xEs7AFJROz5vyjt6uaY7PmMDOxoNYTtjGB47QUmvOhQw6zpEiJ47IE5FOuCsBDuC\r\n5gU8x6AIOzrI3zqwrwA7lIROO8xfKDtb7pQ7rNalO71gQDvmaSo7puttOjL6sjvTXvU74EekOtKE\r\n+joXl0A7GosIO/9erjp2HaU6mBMrOmiC1jrNvdw6qSm5Or7ogjrw4x87T078Oq/3GjsvCsI6uvVj\r\nO290MTtE9/A6MMKHOnWozDpkHvg6IrefOhfOXjpn9xM7MD8CO+z0pTrWMkQ7YuoOOxQ+bjsJ4+06\r\nxIjIOid0zTqf9uM6cNwmO2C0Rjsiiqo6OgOFO2MfKTwyBpQ7+sXVOk2hNTsEAj47gDNuO2i7Azza\r\n6/M6jeoAO84OCDvXp7k6EHIqO+Eayzt4/iE7TcVsOlYEODr033w6Jm2QO1BTsDp5sI46H5WROo0h\r\nGjt3QM06kQEoOpDv3Dky5I46rh2IOhqmQDq+Gq05m5BSOSE8ZTrAeHY6u8P1ORZuZTqnVyI6i3c1\r\nOsyuxTnYrf85zMkLOtxtETpHvCA6W0nJOUDwAzqGf6k5sI+AOti+CDpY9NE5UkdjOTdgZDr2vrk5\r\nd+IWOSkUfjk04kc5h7FlOSCCOTnqkMw58MfqOB72Azl0bcg5rsIDOY0noTmC6Zk5srbNOD+2LDkx\r\n5hw5ECnSOP560Dhlq2w55conOTYKUDlr1oQ5F7aCOXZhJjnOTfU5Hs3JOcesFznkbKo51vKgOffK\r\nMjlLwqg5ShyUOSBb6ThVXkM5RB2iOdeUtTmCqXU54bx7Oac1vzlEt3w5fn7ZOH7LGDmGs1U52C3A\r\nOADhazmMFmo5D/XuOORmLznhLLs4O+SNOKwPxjgYTGU4lyGYORANyThpjpg4sc0NOTHy5TiO4XE4\r\n5On6OLrDEjl7JRc56x54OUszgzjboDo57rzMOOb9yzgtTvQ4sNAOOdE2IjnJ5Xs4lZJdOcT1ZTg3\r\nUQ85s4MHOQkyrTh5qt44xHAWOR9RmTlOSRE5TjUQOYggnzjIQJ84BwmWOAOPnjhB35Q4fmjQOBpr\r\nCjnEUJ84+u3zOEr4YjgJbZw4wfUjOeSQsDicRb449M0oOUo6XDkzNMw4+eHUOI5ryjg0gmk4IR0Y\r\nOaVeBznUXvk49OzpOMaOhjhkVvg5OtWKOdp3CznP3zs5JKbiOFRaFzl1B2k5hL7YOW/GlzoijC85\r\nJs4kOcTPZjl7jnc5qUECORL5kjmO5JM58OFrOVv9kzmgZ245NMUqOWL5UDmaKlQ5y2ylOC5DjDmd\r\nl4s5wqedOBofQDnTIek4+HKeOXPbFTlpFwo5mKw1OcK0NDngpuE49cZ5OZgsjDnixC85TzeJOExB\r\nNzlH8R859DweOV4FojlOKec49NKEOQEyzTjMAwc59A5iOAHdrTniWwg5bK6VOZplfDm4XpY59ZlW\r\nOpwN/DjH62M5+BQ1OUbzqziaqtA4f4CTOOH1GTnPlsE5wzjaOPEoODm+8ew4xYEiOe9sQTmE+DU5\r\ncz6aOD5YGDkAm8845W6TOXqsNzm2LCc5o6gwOeEgFznZLks58WYpOOEVpjjO5u04YsaEOE5cnDh+\r\n2KI43DOOOUBsIDmiLeA4xMu3OM2/+Tg43Lk4zrmtOD6CADmQPi04birVOCz+ujjUWzk5St8FOgD4\r\nkTn7atU3b9sKORlNLDmQ5ok4yG57OBRwmzi8+Ls4n16OOAI5EjkrFdY4nIatOPgnjDksLgc5LI64\r\nOA/4fDjoqTM4dwGLOGSkozi5Trc4xO3+N6x+EzgvYrE47TADObgS/jhauP04Y2rcOK+XbTkACWU5\r\nUQnAOOy+NDj1XyA4aXkhOO7CMDitp/Y4OLiYOOmYmjjkVQg4vR9kOBosNTjPpXU4POqmONZzETje\r\n8mg4HpoDOHG2FTjmN944GRK0OMBKGDh2B7Y4xJC+OH8DVzgQxUE4NIFFOEYUCDiENlY4wDy6N4Cn\r\njDicmi84wm5wOIwJGzhB4BU4LmpGOP+QgjiIqoc4ZMGLOFBUrjjmLBM4TmFyOIYdpTgaiWc45+Id\r\nOMgiSzghuwc4ryYkOKj+AzkMBlE4AN4yOEnY0jdHq4A46qcKOB8oATiS/Tg4QskxOBB96zfelTI4\r\nMPLwN/6nzDj6UVM48PFLOM9d/jd4WK83akGPN/rh/TYULRA3oEA9N2SoFTdrvQw37lIANyLF+DYG\r\ngBs3YQcwN1zsEzctMis3cckdN/IlCze7nug2y3o3N2ATLzdbQTY3UeEfN7zcJzfILi03mO/5Nlol\r\nSTdKoDE3nYg3N5oRNTcelT43710NN1BZCzd2Ryw36UP9NnsALzdHhQw31ExHN7vKADcHJ1c3wJo1\r\nN+yEBTfkgVk3lo4rN1XiKTelbR03cOCAN9VgGjfbKhs3uCk3N5bUAzeUIQQ30n87N5ChVzdGcis3\r\nBqfoNsj4JTcmvN82X90mN2jZSzenyyU3/1c2NyWmLDcsQBI3GARMNwB0NDfYj103v5wIN4wh9DYQ\r\nlkg3xOIAN83DHDcIp+Y26xk4NyhKFTfE1EY3i2EiN5TZETd2WgU3DyzVNivX7jY+MC03cNIFN1YS\r\nNTcEywA3MhsZN+S+OzeQP0c3h8g2N0Z3ETc9jCU31sf8NvRBKTd8Gkc3Sg8aNxaZJDfdlhU3XDgU\r\nNzAYFDemixg3jCUUN7jHDDflYc82LJgTN5QG3DZrzCo3AA0UNzmA/zbr9zs3FPmmNgRsqTaxKDk3\r\nCqs5N8TuGjcwNwk3sMkLN8S2OjfkMCI3l/QFN4q+FDdIti839pgVN5K3Dje5ywg3No0GN3E9DTd6\r\nyyw3dHQBN1N5DjeaxQ43oe8rN2DGvzYEXRw3Ago+NxoqADf7yiQ3xIgcN2D5+zbynkA3PMwyN+5t\r\n5zbk9jw36kMFNxYu/TarGiY3k9MNNxLy9DaaJOU2nfQiNzbKDDdcvNE2hrjbNtxrujbAqws3KmQ/\r\nN1FwSzdsHyI3x1BLN2QXEDeo6x83DuAPN9ZbJTc+mwQ3CLBCN+j55DbjrP02TEwfNxeVFzctWNA2\r\n/5omNyLlMjec5RQ3+nrPNpAruTaKxCM3XnnqNtkQCDesCjs31XraNvuQEDfs2gQ3QCnnNnJLFjcr\r\nfiM3bHggN9i5wjYpjxA3l+wKNxAQOjetkDY3biEAN7DeGDf6PSA3hDH1NgeOGDfyhqw2Wv8JNz7Z\r\nBTcC+tA2GrikNv4O4DbOmc42wcY6Nw7xJTey9782ku/TNi67Jzc65Qg33ED8Nr16LjfUVQ833gxE\r\nN7KFCjeTmjY3gUglN1AcVjfQ/hc34AKXNsKX/jb1vAQ37DQfNyz63zbjaRY37zLkNvLj/zY/6R03\r\n2owxN4xqDjfKMdM2i/fQNnH5ATeV/bM2wvW9NiBq6jb8bu42/dXoNi14CjcyBQo3mlkFN0LJ6jbN\r\n8go3nqTRNr7C7DayHhc3DJ73Nu9PEjesneA2l78hN8uBGzdoZSY3oE4eN+a+CjeJsRc3klm0NlLj\r\n/DaeaRE3TC7xNu5kAzckkQg38DcMN5cVCTd2ddY2wKgSN/Fd+DaXLhg3TFXgNo6hKjcwnw83YvUY\r\nNzsM8zaVlRk3MZDXNrj49TYAsQY3zojnNrf4GjewU/s2RCc3Nwat5jZ23gA3TEX5Ni991TbVkt82\r\nv8mQNrv+9Taglwg35HseN0a/EDcAX8s2I74CN53E8zYr8g03KwEENxKRLDdgS5Y257L0Ni3Juza5\r\ncAY3DLfaNrg77DYmBAg3jP7UNg0nyjasGQg3AEkENyGV5DYmKSE37+/qNqwLPjeAXuA2bjsIN1A7\r\ntzYIPh43idDdNoow0TY4seQ2j/rpNruN1zYHcvE2jtPRNrMToTYTfAg3ClAENzMaHTetoOk2fbXP\r\nNmb9yDYumAk302r3NjgICzdkkrU2iwUNN6o1+zajuBc3iuGfNmcxBzfDCgU36voFNx6PrzZpIJw2\r\ni1YBNwm3sTZXp8Y2OEYYN3Ub2TZrWhY3aCwJN/GYAjdDQdw2LJnyNp8JnDbKTM82ETjtNu8IuTY8\r\noOE2ABLONiqryTbci9Q2r2UMN1QsmDbQ++Q2e+sHN749Ezd3SQk3VTEJN5tI8ja3S8k2QUslN9Hr\r\n7Tabjfw2lNuLNskvCjepkQI3rkk6N5VKCDf7ZtI21xamNuA2GDdzqhQ3BrfpNpXz4zapRtc2MlH0\r\nNmXq0jYEy+A2WoEZN5spLDfekwI3fWDGNkn+0jaxPgE3p1oqN4zJhjbWcPU2Oo38NqgiCTf1pOQ2\r\nzYKONjwc/Tb7NAM3RI8CN/2z0jbRwPo27rjgNvxw8zbvTcE2XvHyNscr3TZNftk2eYGoNmFFDzcl\r\nqO82hnv3Nrys8zZysrI2SFToNp+38TbRGrs2WiOhNr8OCTfgevk2LAbaNsDpxTaME+M2ND/0Np42\r\ntjZ8P/g2GD0YN40aFDeeRw83sXYKN0imBDfEuv424gqwNih49zagfAU3NHunNorRADdZNKw2Dyr2\r\nNtKO3TZCNsw2E2oPN9sW0zYkO/I2ym0TN3pZ/jbvJQs3yTziNptZsjbL4x033oPBNgAg/TblZKFA\r\nAcSxPVDYrTyvHto7cbDNO9WNLzv6v0Y7dqqpOlYczTokhm86R6RPOvMUDDqF+F46q6qfOSQD/zlm\r\nrwA6sJf8OfqLmznGgrA5VIFHOSz12Dn/m4o5S2W4Oc94BjoMGZ05A+R7OZgjYTnq3aU5rBuPOef9\r\nCzlzgKE4Ta7dOL+8DTnJiAE5aG0LOemGgjlQUSI5ZiwVOcH6ajmnhz85Y0McOb9nYDlD3BU5VibF\r\nOHJDyTjPq305Fi6fOUySkjlM5TQ5VwO2OVnePjmso6E59LdxOfYlBDl4X3A5RHiXODWhSzl3PDM5\r\neEKNOd4yTTlhcrw48MfCOIaY6jg64K84R0nYONGe2zhgIac4kJmJOYq4Kjn1aXo4iVq9OBsaDjk7\r\nsyQ57tAZOdgALDnizuk4ZuH4OK0LmThiDcs4nR6cOMA8FTm4ARc5kJrYONQHyTiYQUY51eUhOQMn\r\njjk3U2o5jh1GOSZDDTllIAM5MX8rOiS2ujmJSoU5iNJ+OWKQ9jgboGs5O1uJOTA1Ijm4XwU5dM7C\r\nOAOvuDieXg45YCGwOMqcFzkaBrQ4S1CwODkcYjiErpA4cZ0kOJ6v0jhCl0Q4UrUnOMVMhTirEg45\r\n0qQYOBBXVzh+dAE59EQFONqKQzi0a4I43s9/OKp7Ozg2J1w4A2fsN1aUYTjteTE4tzseODsDIziG\r\nDG84U8XKODFYhDgOi3Y4I4MkOGNAPDg4TlQ4ipY/OGR7jTj+WWs4a5BaOIWzRTg3/+83TfyXOMYU\r\nWDjjQEU48+yROITdKjhl+Ws4HeYBOKWkPDj8tKc4VA0ZOOhogzg8egE40U0fOI+0jThJsP03OYT4\r\nN1V4TjjBxog4zrJCOIh8jzifBbw4ASRHONb/+Demhx44FixOOCbjmzjqFek3Yq1qOJwBWDi+pD84\r\nti2WOPBoKDiTpkY4EQgOOBwYajj7N4g4Q1V6OGiVrDjRLZ44tsGmOJQjiTiY5jI44vOdOCGjXjhh\r\nEiQ4OhcSOBogaziuzU444bKKOBP/UDgegHg4c6EBOGP8IDhAMes3DZz+Nw7PlDfrQC04egqQOOQ7\r\nWDiFpQs4nkeROCxHejg3RoY4pyKUN1/aATj9Rec3laYHOE/eCjjfPhk4zOUnOEEoLjgOr6k3uoo3\r\nOKBACjinyxY4PAfdNzzWHzjOwAw4ono9OMoc4DevVoY3P5NgOA7RFDj/+JI3+wl0OB1xFTgBJ1E4\r\nzxu8N+C7WTgtWoA4QKUkODTEwTdnu+43+8jiN4BQAjh6QGs4hYLrN3DFjTi/lXs3mPD7NyzkCTjk\r\nvRg3Bww0OP0KFjhN4JQ3oKrUN/4jKTibXk84n34jOPrrIjhrMUg39jZzN1DxxjffFwo4WoZsOK36\r\nzjfWMxw4s3MuOCCfrjdglyo4iiEpOHZO1DdTa6s3Bz7SN5NjCzhhfL03MsPPN0Um1TfleVA4ept6\r\nN7a/tjen+vI3k8MBOGZ+ijdWZwY4Tv4BOBTbJTimWLs3O/XBN3B0AzipcwA4MJPAOAukijfGnY83\r\nF7bVN8wf/DenRLw3HIdDOMhfujcn38A3p0wQOP6CJTjGxfE3EryuN1zGvDeVLwY4Kp73NyYhLDg2\r\nVA04cNDjN65u8jdZ0ho4GbqpN2zmDjg6u7o3rnuQOI/1njeuy4I30A1+N8b7xjcpupA3AaAFONIr\r\n/jcY1/I3LtkzOOOr6TdObzY4CrQPOHOljze2tw44hOYpOPtdGTgkpgg4YUzPN0kuTziNGu43H3ji\r\nN1XjpjfXDas3ZL2WN7M0vTfuflo3NOhgOPBcATjd37I3DCkUOFoGjjdey7I3ZKcVOJKmszdEFFI3\r\nBlciOPUvKzjnbcE3nYAVOJ+gATgAIAU4pP+zN5BTAjhIev439BT4N+zf1zcfl643+JcQODbPDzi2\r\nJ9U3pDA8OGJGfDhQCdM3g7lPOJoEwTczmBk4qlXANzDOMDhMXtA3KRMNOJ7zADhPQQY49J3mN4hJ\r\nGTjSYwM4knciOLFvWDcwKoo38w0hOAIOlzf6XSk4sKpWOE2FRjg9kxA4as6fN/7vBTjXzYQ4k/KM\r\nN5UY1Te4L5w3i1HgN+auJjg8TGc4wzvZN1Su1TdYTk44Do7ZN8s3Ajjoq3Y3VKkMOMqeADh4q/03\r\nQ3PsNwyt0DcDiso3vBfWN5NsujelLYY3RB98N0OS/zdJiH43RGT+N+h1Azg/gqY3B40OOJrCpDcp\r\nGB84KqUIOIz2kDe/WLY3EizcN7+mzDdc2CA4PGnON+YFrjfEOc03WQ4NOBrI/zdIPA44P+cLOBAN\r\n7zcxGZc3NhWtN0oo+DeA6rQ3sHTHNwfFIzgdgKg3X2oDOBkmNTgAEMo3jkWdN5Z3tDdJ0vs3P3Gh\r\nNzkiKTgJU503SlOxNwROgzhwdCI4Tko5OCIVFzg0jRA4OHuyN6gJCDjuMcI3jnWFNzF42zdLl8E3\r\nWIw4ODArijcGVNo3ZNHIN9LQ4zcLdQo4WEoUOAeLtTcwqgA4Sym9N0KcCzg68603N+oGOAXLnzdZ\r\nWLM321cUOPTM6zftV8g3vlS3N3D+nzf4s4Y3wupqN4zdpjcmm943xeLhN9Wz1TekGco3xsu6N7xL\r\nMDjTD/o3uvf9N9PTBDhklq03JtbwNxZ0mzeejT44OF6ZN2zjDTiuvxE4r2csOFTW3zepBB04Zgqv\r\nN0zqqDdZSC84IUv0N35e7jfcaOc3zOYPOLMCDziYyTc4YXMvOFjUlDeZlRg4ccwzOACazTe6S443\r\n+A86N1bDWjgjo4k3eIqaN3PyFjgKkyg4vCp9N/5RpzfWjvk36DQcOEaPyTeAGiE46Q+hN9GO2jcS\r\nsZQ3ZRqyN7ZYkzdzdGQ3MHLuN5fy0DcVCQc4pubyN0pkEjhKO4k3mcnVNwqwijdj6i44gLbtN/pI\r\nyjey6b03GL+zN15qnTc1qwI4S03dNziRmTf1zoc3Z2XwN/iQdTg00wA3GIETOAck9TdAKZI3tR2s\r\nN7bjwjf+AYA3K7laN8ieKDgozz84c/mCN/9XUjil1FU37fOyN9cdEDjr0+s30PmoN2IJKTdsDNE3\r\n1A9dN0mApze7aMo3qtqvN3PyWTdS8sg2QIoWNuDMHDUTdAg1FLDTNYAy8DRjWbo0ggCBNeH7KTVv\r\ncCE1q9RJNUBoGDV7X6U0zRdUNfIMETXO7lQ1Dv4ANR/G3jQxU+o0AYcBNWl9ujXDjek09uODNWLo\r\n7zTmg/80iLoYNRa6cDUtUhQ1vB91NShbizT2Tp81EkoKNTIwzDS08u40CDcnNTYE+jRo7ik15rie\r\nNG/x1jRLIS41pn9MNUM6ETV3o7Q1d78INXhhwTR07gg1UgkkNerg7jSa7IQ1fgP0NIG2AzXFjNU0\r\nzfsTNSkaHTVxG/00SO8INfPBMDV9F740N0s2NQ0EJTU0Cr80e2wlNZVG4TSnsyE1z+wpNfsc8DTS\r\nbzU1XwEzNabepTTYJIw0tM7INH9csDTwESE1m5sjNVqtIzWOxK80fyCQNQx0oDTBOwM1dR74NG7P\r\nGjVyj800x60+NZnhEDVJnog17BbFNHsPAzUrfhY1tFFgNYDZTDWiOfI1IwIuNYQWKzWrP7o09VP0\r\nNAwo5DQc/iM14M0QNTT2+TToIbg0xKZ9NAJK0zSMHLk0rkrtNKD1oDT+Vw81UAxGNdC9xzRjGj81\r\n7QuxNOfuODUprQI1bC2kNJO+yTT6qXc1lWB8NDq7hzUQrOM0Fv4tNXXyZzVLeME099jrNBgCGzXc\r\n2YY1TVGTNd87rjQ5WSw12FM4Nd7eAzVfv2404ut6Nbs2cjSqLMM03Nx5NT0P9TR8Q+006JttNTlf\r\nCjV0/z41Gd7BNXxhFjUOFPQ03twsNeJlwzQ/8wY1YrloNCHsbzUithk1HUpANXhX9zSi5kQ12OMV\r\nNdcH/jR0glk16T03NTaQUDXWg5w0+bIANUUHTTWK8Mc0N4dmNaerrTTUFrg0eSu+NC0G7zS913Q0\r\nyS4KNXQs1zTBkZQ14EbyNB6btjT0mQE1dIo5Nb5JGzXAkcI0M7D2NKP7RDUOjxQ1Xu+MNZaHIjXA\r\nXyo1jK2oNOMnsjRtlp00WW6nNaFvMTXxeew0waQfNVHppjWbi1E1z3Q6NeQN5DSwMf80d9pnNQx5\r\nqjSu+co0dQCJNanCqjQAShI1fOA2Ncrz6zSkK+E043j4NO9r8zRlAQU1brnBNHB1pzSAYRM1/nXh\r\nNFIl6jQPTgI1Eo6eNCtJbDWDhYk0UF5TNbH2DjV/+BA1pFm/NNeGETVtJ5E1s3gnNex6rzRjfRs1\r\nR4PPNKLKwjSZ0r404ozCNEhhATUk/Lk0RnurNGvpxDR0Psk0bo2XNBRrqzSEr900vFnxNFYeADUC\r\nnsY04FvUNCuoiDSR33U1BAMYNdtcAzWvwZc0NnCsND3+8DSY0AA1mI8ENSxwDzUHJaI0aUYoNS/J\r\n4jTHsdo0IO0GNR66RjRs8do0LDQWNUBtQzXKLkM1KGUgNfq4RzW8nME0Uj0ANaXfBDV2IDs1IRLg\r\nNHg7cDWVkyU1Dk4TNdJO0TS5Pic1DDRoNHvcTjUq+io1g6cGNSGWCjV6swI1IsyaNP/ulTSQz940\r\ng5hkNQ2+KTUv1RI1sDDgNBPYGzUO6DI1efSYNKK9ATV+B5w05qvLNHAJRDUMs9M0fuRHNZSIETV6\r\nYxY1uLLkNP5ICDUgozA1o7kUNayD8TRQO580ckyjNPP5MTWmNO80z2/sNKeWtDSp5dg0qr7xNHRz\r\nxTTKSMY0bla0NKbY7jQgCsg0Ls30NM+yBzWoqNg0qMBMNQKDDDVMYeo0kcqHNDfftjQgHAM1Vvjd\r\nNOoPvjR5PSQ1qKsGNUYPvzTjiaM0X2mBNBd6vzT6s700kM3rNNyWJDVQDB01ZMW6NPdk3jShwKU0\r\nDBe/NIZXazUvrJk0rnMeNS2JKDWoWAE1bSifNJHBITWnHJk0Zj2zNOXx2jTohBA1MhsXNcZ9YTXR\r\nHd80ZHcnNck+1zRkzqc08SbMNI0cKzXHPG40lG+ENWAHoDSaRJ40wvCiNO9mwjRczPk0OvWfNHJc\r\nnTRiEXY1CH/ZNDq1QDVG3x416An0NAiKkTTiYfU0BMipNHZIJTWnIoA0FBUCNbiqQDWToLE0xMl6\r\nNEb0wzRD2yI1ODmqNMKkwzQ2jAk1jJKWND0OdjSy6LY0bB2SNfDC+zSTYwU1m+btNFYScTSNJsg0\r\nnkvfNFHBnjS6HIQ09RuTNFRQYjQSMZ40OQxCNJPOwTRXXIc0SE2nNNqD8zTx7pI073sENXxeITV0\r\nTTs1HPDpNA7jMjUKq1U1i6gENYxXtjTOBoI0QmEmNYvZHjWymxE1cYxcNTyQsDTtU880Bg3ZNNHm\r\nIDQF+kY1TRBhNcgg/TQW8r40QEfnNIK/qjVfWxw1blxkNZmH3jT+aCs1KPTDNE/YhzT+Su80WghG\r\nNYQ6CzVQDQU1iHS2NMajoTSEt4E0u67wNM4K8jR1B0g14kzQNKx0RzVsn9U0AEAENQ==",
                            "noiseTrainingType" : "default"
                          }
                        },
                        {
                          "effectName" : "WinCompression",
                          "category" : "categoryAudioEffects",
                          "parameters" : {
                            "attack" : 0.0,
                            "gain" : 9.0,
                            "preset" : 1,
                            "ratio" : 10.0,
                            "release" : 3500.0,
                            "threshold" : -20.0
                          }
                        }
                    ],
                    "start" : 38890,
                    "duration" : 702,
                    "mediaStart" : 0,
                    "mediaDuration" : 702,
                    "scalar" : 1,
                    "metadata" : {
                      "WinSubProjectDisplayName" : "",
                      "clipSpeedAttribute" : false
                    },
                    "animationTracks" : {

                    }
                  },
                  {
                    "id" : 117,
                    "_type" : "AMFile",
                    "src" : 29,
                    "trackNumber" : 0,
                    "attributes" : {
                      "ident" : "Narration_fracture-2-czm-element 25",
                      "sampleRate" : 44100,
                      "bitDepth" : 16,
                      "gain" : 1.0,
                      "mixToMono" : false
                    },
                      "channelNumber" : "0,1",
                    "effects" : [
                        {
                          "effectName" : "NoiseReduction",
                          "category" : "categoryAudioEffects",
                          "parameters" : {
                            "denoiserAmount" : 20.0,
                            "denoiserThreshold" : 0.0,
                            "noiseProfile" : "HjGRQQkCHkJlxQhCYsTUQSBzIkJdxZVDKK3XRfwCWEJA8Z9CKm3EQuHgrEJNHqVDZqS4RXq9NUPk\r\nTf5Bp6F+Qt5zrUIChUtD6OhCRRJDpENyX7RCzaMGQ5CTMkO9C35DdluCRPNUFkNgo45BerTGQRCu\r\n10G6Yb9BFvhOQtYQBEHyWhxBiV+WQATduEAFCJRA6bgVQMXBwkAZeGRA/GCIP/j4Zz+29Ak/mttA\r\nQXhMa0D2GfBAvTzQP7W9AD8yqtE/3nGWQa+BG0CsLoE/at5IPih2wz8+MFBAXLpNPxC0pj9n3Bk/\r\n/02lPgN8PD/B+DY//EcgP+b2BT+WTws+iArdPku6Nj5WwyA+eJfpPfNz9j1f8h4+kBHZPTh+Aj5S\r\nGwA+xMu1PRdvwT1OzoU9nDyiPUT1hj2VhIQ9CNAFPnWSoD2ouLc9MIscPaKC0T2RNqM91qdlPnC1\r\nlz6gycw9UFCQPZBpaj6+oeA9XE2pPYIH4z0FIQw+cqzIPatAuD3ZS6s9SGGlPYevFT2JKag9m76J\r\nPXbBkT2jd389W5MCPRBFYD3MsXo9mgFvPegm9j20uHU9HykBPqbBnD29rYI9aV4MPnxBBz3tWoM9\r\noPPSPXYE/T1oPvk8UY/dPM9FRj3u98Y9rqitPRWtAT5A6Yk95b3IPWojMj0BR2o9J+2DPG4UBT61\r\nI+48YSTVPXimTT2PMyE9zBxEPBzU2Dw1QaY9LEhUPSRvRz2AUrU9A0rPPaEu9z2j7sA9qr8dPfMR\r\nlzyBojU9nM9ePXg3Pz1XtS49Ok/MPC3+RD0V+xo9jMmKPpWhzz0Ar089TCa9PIC/gjwVncc8rQkG\r\nPZaP9DylegY+EynZPH7hMj3hvYs9nPOGPe5vuD123Vs+bWPqPBL/DD0LMYk8+9VgPDQj5jyyATQ9\r\nfibSPPHBnDzDSYg8y3iEPIwi8zwrtGg9lrYMPkA3uT1RUro8WZ0OPoBMeT2irF89eyIBPbirgT0P\r\ntCY9b0qMPHZ8QTxuD3c9WsL4PVKA2DyVZZE9Isp9PBANczxGkj09gke9PLuxZD2cg7o8t+UyPIb6\r\nzzx1sAY9YUAHPUwQTDxm9o486vuCPKJ1bTx/h+88bokfPLuiSj0Dvis81FJTPCv3szw1KkE94Pvl\r\nPMfKIzzifVk810I+PWUuejwdHog9C23xPGObAT1YgzA8VqY+Pc5saTyv6zA92kIMPeH3WzyCbK88\r\nLYeCPE9SVjwCdv4772H3PPdsYT17ptM8kohuPMbKTTzxKlE9UHdwPcTmuTyDhIM9K4NwPHiSAD3W\r\nTnw8fABXPCFrjTxtxYs9mtmxPP6FzjwXEtg7WB76PG2QvzzU7nc8no4PPCTCqTzdL9k7avuuPPMl\r\nqTw0UjU8jCPjO0wbzztTtGs8bai+O4QePz0z4X080HMpPPnhvTsmosc8hPQaPbHqPj07PbE7J8Kh\r\nPPZk7jwn6pU8IGHgPCZibz2K0Rw98raQPGszkTzevSE8lFMDPLSHDD1gPSs9P1k6PUdFez316rs7\r\nMuMkPKpvsDx5akY8FHjnO81n9Tufmrw8VUaRPP4NqjxWFBM99C0oPGgkUj0x04Y9nhKFPFCZOj0b\r\nEL08ACIaPf0c/zsmKJk7bxdjPHL7CT0C6Gk8D/gSPa8Mgj37Ic49N0CNPK+ehDtwr7o8UjKuPbp6\r\n8TxaeRA9Koo+PXcPzjyUGJQ8fUk6PMqxmj3IWb88u9UgPFRd0zyW3JU8PubIPJjf4Dzeb748go+R\r\nPFnjszwjvPY8u2+COwHeOzxgFoE8JIirPSHaOD0XbGo8hHngO0T/7jxoBWE8WAoDPSHABzw+iKg9\r\n2eoTPmKdsT1MwY48YhImPBl7DD2aJ4E8AEbqPLICaT0siqs7FLJVPWJ51zzIuxA94BGZPLQ4Rjzs\r\nhTo97QSyPFhowjtNetA9LPwUPgn+jDw4DIk8qDsHPD4nrTwIPjU9wHO3PerB4zwG8z89C5tpPdzc\r\nVTw6oyU9FZXTPJrkFz1TiTI8rl28PKYxiz2j17s8gBt7PFokpjxmWEM93cHjPLZNsTxZcyk9NlUj\r\nPdezMj3kVhs89UMyPKXopTxv6Ms8a4IZPXjSBz3u9rc8ckwkPGdQRDxHeds7zCzLPGOuGjycdP88\r\ntSmcPO36ITzXaW08Zi3PPJs36zwSgmk9MZuUPGfe7jwlzxw9OqzdPcfqRT0RWbA8MDi0O/B02DuW\r\nbLo7932AO31bzzyIHUA8KemuO+ijfjy3WCU7WBXNPOcr4TyR8bU9UJZ0PBV5LD2EcVo8kWJuPX6b\r\nDTwzro88ivcaPG+oHDyCeA48dKbnO+AuQjsRsHo7X8rePBHzKzvtE4E73isWPCK+EjwaqlQ8uEuQ\r\nPX21Dj0ubE88g1XVOxYURD21xSg9dCzPO875czy/n5A7hg7YPPBgkzzsrcM7jgCyO0UIoDzcewQ9\r\nbApVPeQRXTwGmGk83PVPPBKCVjtYsD88ragOPUi5LzwIK4Q8/9EDPCR9MzzruZ48MPQ6O5CKeT3W\r\nTHc9kj5qPGFpsDtFvAI8ljrFPBx+xTuhREk8y6bIO5fu6ztopQg9yni9PO0KmDvsC7I7aHTAO/G+\r\nIzxLd8A8wnL+Ozpj7TyR51Y768N/PKK1sTyNFI88tQD7O2LQgjvb00A8MmMyPLIGwjscOQM71Kdv\r\nO+4CiDvjoaI87Ty/Oy9hljtPqY87x5zqO0hmDzz1Ckg7WbZaO/xyfTt+eK07eEu1O7j+2jsAqeY6\r\nKAZKPAS7FjxXJBs7l3QaO5GTKjtg6NE7WAFtO5VKwjtaxUE7KcafO1M7UDsezKg7Ni7zOy6DpTud\r\nvYQ7yLH4OoqM8jp/+zE7EoagOySKhTtK+rA7Om7qOhN60zqSV/c6puxPO8yUyjqOhPs6MKfMO9/h\r\nADvO/5k7YCRiO/nouDuWxQA7dlddO8r9ITtvrus6XjfdOrzBUjvQngo7gKTMOrrrhDtOevI6QDlv\r\nO06GCjsGOeU6nY8GO+iAJzvE8fg6oSn5OuA7EzsaGhU7SPzLOtWp4TrUKOQ6gjDLOpU/ODvmYSE7\r\ndzgFOxkFTztCXrs6VjFLO7eoQTsiX+s6LfHFOkjN3zoj2tQ6pg3IOvgR2TqVDkU7hgHHOjTzRztu\r\ntjY7hLQxOxqWMjtuT8s6CnDNOgw7zjrOocs6/xDFOg476Tod/8U6PInBOvhAxTqPK/k6wNXHOq0n\r\nzjoWGzU7Bl/FOvKrvjoK8cE6KoMeO/ZUFzv89xI7K7YTO15IwTqCViA7PlXHOprZEDuMhL86VhAv\r\nO3EowTodtCk7dpK8Ovx9vDoEEPs6Y6/lOpzwGjuSavA6UNr7OkYZvDpgZ946w0i/OkZG7zrYc906\r\n8qS6Ogj4uzoA0vA6NpfHOoxouDooz7c6CprqOou0sjqeqrs6vicKO+CZtDoeewY7KWgYO/k6sDow\r\nerM6U2S/OkRf1DokeNY65IuuOmo2wjpC67c6bKaxOlZGFTueuq46a9evOjSFrDpDILI67S2rOm66\r\nqjow0Qo79FqvOgv7pzotFbE6TUytOo5erTrYBAg7JiqnOquErTpHF6w6ZkGtOlIzqTqUdqQ6kofS\r\nOlPTtzr98aY6t2b5OozaqDpXx6g6XVyqOnKdGzsIWqU614fJOqSSpzo/1sQ6sTylOn3IPjvYXKI6\r\npiQzO3zUDDvVUqM6GoOkOhyI0zolvbI6l8PiOkpLoDqmCqk6ssTXOuNTBjskk+U6rereOqPJGTtV\r\ntKI6bxGrOjEg4Dpqlwk7Fhq7OqOinjqWM506otKaOpRmnjqcMZ065EaiOpxPojppMp46HA+bOpb0\r\nnjodZJ46twWeOjxxnDo89Zw6DheeOio3mTqFRp46eFSbOutdnDrHkZ06L36dOtT5mzo6I5k6a1aY\r\nOpsQmTo4M506kxabOqJNnDrFYJw6A16bOpVrmzoecpw6igOaOveHmTqNbZg62NKYOmD2nTq4VZk6\r\nPmmYOgM3mDriz5g60uaUOrJYlzpYn5s6f1uVOg8umzqQ4Zc6dA+UOuQslzouRZQ6MHGVOiEXlzp0\r\nMZw6m3mVOky4kzr1MJU6ue2UOtOjlzrZeJQ6TNuUOqbSlDpNxJc62s2UOmjMkzq+jJE6/MmUOkuu\r\nlTpMgZM66OWUOuJHjzpRUpI6lCiTOoTckDqwppA6Y/uOOlU8kDouE486rHeROtSokToXZpA6vkGS\r\nOsbCkToAJZI6OsqOOozkjTpqBo46lmSQOqUmjjpSuY46N/mPOtbMkTpQz5A6b6uQOpdikDqi+I06\r\nrM+POuZmjDqqj4w6Y6qPOoKzjDqCa4s6IgqNOg8DjDrxoIw6BY2NOgdRizpfi4w6nIeLOumyjDqD\r\na4068iOOOo9xizoZv406Mn6HOn9KiDolgIw6KbyKOouLiTpzLIo65wiNOv60izrB7Yo6+76MOmzH\r\niDrcoYc6FfqJOma8hzoFb4065ByKOry8iTpIZ4g61aKMOs7/hzpZs4U6HniGOj1BiDr0kIY6bemK\r\nOoe3hzrn0IQ6EaqEOtfnhTqse4g6VmyGOplqhDopB4k6p+eHOjOOhjquO4M6ElOHOgE3gzpti4g6\r\nLlKJOrSUgzq8pIU6e6mFOt1ihjoZFog6KueDOrBfiDo+nYc6PWuDOqDIhTpPrIY6mWiFOvSugzpc\r\n+oI6buyIOjw5hzq9+oY6rhGEOkR8hTppK4M6ouGBOhxPgzpmp4Q6/X2HOrXJgzqEGIA6/S2HOpF9\r\nijqjNYM6B3yEOlHtgDoh0oM6iAuBOtFFfTpon4A6zxSGOmDFfzrvU4M6JVSCOo7YgzpOyoI6fH2A\r\nOkFIgjqdvH46ta+AOp2GhTrHMH86I8KCOvwbgjrHz4I6zXuCOncVgzrhHoA68n+DOnMAgjrVQoE6\r\nCHqAOrqvfzrbZIE6bMOBOiMygDrKo4E6kip+Ogpafzp8f4A6Ty6AOoWdgTozSYA6X5GEOtq9gjo+\r\n6oI61fd8OtbMejrunoE6IkyBOjc+fTrIv3w6YDuAOteWfDp+RX46sRp/OkNHfTrbQ3g6KER5OiDf\r\ndzq68X46J8d/Opw0gDo1NXk6i2CAOkuyfTpeNnk6tRZ7Okp3fjpcRYA62Vp7OsbIezp2XYM6rLB2\r\nOnw/fTqlNXk6GP59OilGfTpB7no6mmh7OkkNdzr5rno6hkJ9OtmTfzpRjHk6YWKAOrCfeDr59IA6\r\nr5F1OjBlejpdino685OAOr+SgDpIy386DaR7Og8qdjoK0Hk6yG9xOjyfezpvjX06fP16Os3ffDrx\r\nX4A6AX9zOsdrfjoM14E6Ky54OmxHgjrIHH868lKDOrMTgjpvgn46U8R5Og0SeToea3g64iV/Oje7\r\neDr4tX06+696OnYedzqha3o6KwuBOtSjeTpUrHk6tbp7OpJSfzqrWHo69Tx3OoqPdjqganM6UGZ8\r\nOn+7fTqUe306/+N8OgTrfTqkY3s6hXOBOpAzfjrQU3k6f0l6OuO2fTr8sHs6+pR8OhChdDqIzd4/\r\neNlFPSw5kjw63h07IqSrOoCq6zrW4zo6QpkDOmqEyjlfcbI5aCtHOtNz0zkuGr458lt1OS6dBjpP\r\nocY59zVCOexSvTlNX385GWj8ONQJUjmmUNQ4m9cLOkuTpTmnL4M58ILDOQNP3Dh7Dx05E9SyOax8\r\nDzlxgSM54FxsOQNbxTj9MhQ5sigvOUnP0ThoJ2o519WAOQNVTznDdFM5XxM3OdeIzjl7Hi85iKEe\r\nOVqYCTk+xCY5L95pOfmFFDm8E4k5GLI8OUKFJDnm8PE4QRvoOJqLijk+YDo5aeAtORgwBzkukTM5\r\nT3UbOSNLNTkk2PI4T4CnOMuZvzjs8+w4lBUoOTvS8zhccPY4vnSPOblumzgGjHI4ylaCOKvYoDhd\r\npd84Sls9OZw3Gjl4w8w4Ly4MOaYa2ThPw+g4R2zeOLUxijiIlQ45/v0KOSp5jTi7gCE5KvWdObjo\r\nnjk8PWE5l1BeOUwbBjnxLSQ5YlSZOW7TyjkA3kQ5YBmJOcjJuznJess4uO+fOAMOITn1iBM5/9Df\r\nOGRztjj4MQ85GCWNOFeezTjC/544mHipOLzdUzgN8eg4qbB7ONfxODgZNtI4HQiiOCtrsDjw6dQ4\r\ntR3cONA61Tg+qAw4bfwmONLelThCVVU4TcMhODhzlzjTQP84A85iOFyujDjEwKM4glSbOAzshzhL\r\nDVA44X6bOC3zdjgE1lk4dn0nOK9jJjg4FCk4WOmYOAoIDzjX8Yc44zV2OLFyvTj8iIQ49o52OD/d\r\nDzgBFoI4HYYcOF/ytDi9zcA4DGwoOAa0fjjICvo3FBBBOKITbzh+nGw4UC2NOLOMJjhw4204MiIF\r\nOOihSziaeVM47Kb0OB39fjh0lVI4Ar2iOLp8eDgLO3U415GZOOxbYzgt2Zo435E1OD7zgjh2zZQ4\r\nHmpIOK5RGDhmw5c4WQDGOKUlKzi2XUM4SfE2OCgjeDgjUOc38xkaONh26Df8ak042nUZOXJTcjiT\r\nvQk4iERqOMpYaTgC+FA4711eOPcBRjh1FIc4U3PjODc2EjihZ/03JAC8NygjCzjVQ+w3hw43OAIZ\r\nVjgHUuI33ZqbOIevuTf2fRU4f0EgOH4wGjiMMiQ4jcq5N34KhTe13RE4Q5vJNxD5QDhImqA3pUPk\r\nNziOuzdUV4s3TDC5N2pB2jcVvAc434ISOOO+tjclizs4EQgpOO68/jcZLsI34v4DOD/ShTeHoq04\r\nsShQONQGLTgpTwE4cRMaODGe9DfhVsc3a3NNOFZRizdRHmo4gZEEOAzcxjdGGfY3e3ruNy7S1Dd+\r\ncbY3vouqN7khpjdwl683anMROM+1BzjTc6Q3HAffN4wxFTgdnDU4H8VcNx6cBThQ6283BEQzOGbT\r\nEDgnuAA408MqONKD/Tc07Us4ULUKOFiZLDi+51w4oP24N8NOujc1Rek30BGVN17M7zfsNHs3w/oI\r\nOOYlgDdoA/M3m0eyNyXWizdwHxY48eniN8JHIjhF2LI39aFaN5PK4zcBuDU4QLgAOIS2HTgxXxk4\r\nFpoFOEyjvTcTZAQ4ntrDN47IPzio42M41685OKocHzgrWHg3cl8bOMsQgje6BFM3Te0POI48vDfe\r\n2jY4hh8lOOvy+zd7uvo3UBfMN0P2HDg8jAo4+31AOCPomTfyhEc4CAU9N4momzcxsIA3HloQOIas\r\nDThO2LQ3X135Nw5UqjdtrvY3Kt46N5yomzfMPQ44kMIWOIzrRDhWnY83uAJsN64JBjjMLQI45r2R\r\nN+cJhTeBJ2k4Us6iN0xcjDfcDqQ3OMTCN/G1/jfdTiU4C+2VN/UMHjgj+fU3oV8MOH1KAjg4I4g4\r\nuPxMOI7z0DdfvDE4cbWxN0KHbzdyG+03kjBKOGmtuTfFtCM4/SEsOD+wFTi4TkQ4YHmoNxfuNzik\r\nUAM4Y/+lN97NBDhXOL83nKOIN47TtzcRt9E3NS6pN7JhsDfqMIM39nLhN7huMzhO5s43BrPLN19v\r\nizeSrpM3p6GhN/khOjguPfA371/2NznQOzeIpYQ3EKctOBT8sDcjRbc3rKmJNzw6KDcz8po3rTe8\r\nNxYzxjd1Us83vBi6Nyf6ITh74zU4DPMjN1Y3BjgJczs4E9E8OGj2BTiwEpw3pPvKNzjaMzg5mUI4\r\nxYcnOIB7Yzccc6M3hGScNyhooTeYiYE4HMF3N7wzcThE5583Uq0gOI2OZzcfb6Y3aCaIN/5lpDcO\r\n7UI3xvzYN0SHxTciyAM43LqQN1w1GDgXyLA3ZCShNxKjCDd0mYg3zL7DN3xj4Dflb8Q3yEnNN8Gi\r\nETiK0Oc3IN4WOBK9xjc/bps3AROzN02DFTjAbu03i9j3Nx/rUTiUlLY3jeDMN1gECzjFaIQ3RSkG\r\nOE55CDgP+OQ3O2wDOJJ3Njg6iqQ3U+7qN0cNiDefN5w4YlvtN5fZDzj6PKs3At82ON3DtTcAVaI3\r\nhNzHN8zwRDc1vdA3m8XlN1HBVzcZY/43miBDOLIYyzfHadw3dXLeN7gW/zfPDyI49HS7N7cB5Dck\r\n8/k3tUDMN+qtKzeFbYg30KM/N11/DThQFig4og5uN4l14zcC5CM4FHj8N245RTeQCPk3rCz7N0v9\r\nFjhrbxo4iTlNN1W6lTfcFyQ4T6PGNzybbTiXtyw4HyOHN2PLkjeVmgc43avLN8BCcTibCgk4OQ60\r\nN1xvsDeo7HU3MKwmOA/OBTjet/43UHhQN+ifxzdMLlQ30vK2N7KOKDg+xNQ3e7G/NwAkWTevsqA3\r\nBSnIN5/vCThv8t835bfmN5ZsSzjZG+A3GQEOOHF7STfg2eI3CVYtOP5h4Ddcndk3piGON8nqzzeg\r\nWyk4SaIFOGPtiTcg4gc3vU+3N7IsmTcs3JM3vMmdN4xv1TfY9rg3pzifN1odHjiwcjU4AnwXOEkd\r\nIzhcBVY3wq6RN4nW6Tf044g3RHhQN7fS3DeeWYQ3FY4AOPg7QzfEKvE3GvRhN5ygqTd25MQ3/79Y\r\nNwXWHjgWFjE41APcN3OZ7zeKqQM4/wuHNxApzDdr5TU3tWzmN025/DdnGcQ357B7OFIQjjcn1qY3\r\nmu72NqU39De85yA4yi7BN+w92zcSa083aPtaN/i0Kjfhkb43eA4hN+4HDDhitdA33QKsN5gX6Tcj\r\n3oU32ru1N54o2TcuuhY2VyDsNwaNEze0XPQ2ft/hNxWPoTfo5pI3tfOJN/teDDcgHrc3dxGNN0K3\r\niDf3zXY3qxqjNgRoaTf+sUs3k8sjOB64fTdhtmU3oluCN11Wqjfco1c3uYcWN0xo2zaCiBQ4+u/c\r\nNytB4DeNzsc32VS6N0BT6Tai4ss3IHVHNgXarjbBKJM2isumNxx6RjgiSSc2MYO5N1LLHTcySwU3\r\nYHSMN1rd8zZvVM832upjOJAx8TZ1WmA4vXmBOKqNUTc6OYc3QaZKODfp1zfQOc43fSGyN+oK9Tc4\r\n+Lk3rXoNNt/OozbmhMw2JlBGN+VY/Db4BHk28ETdNjnvxjZ0RJ433tHZN8gEgDcaz7I2ytQoN1nl\r\nazdSLfE3HRKRN+VMJDdo1jY2OGCONrBbYjbuF8E2/w8uNwT1RTcUc2o2Zr4nNl+Z5TYQMAU3TeMN\r\nN2V5BTjpa/k3dV0LN13VATiUBIg34cfhNsra0TfCW403OAOCN/5y2TdadyY3GJT1Nhnf0TfewwQ3\r\nIOyAN/SbFzfSKnw3FrR8NyG0KTYmW7838CQ4OONZTzhq3pw4C/+LNyafFjcWni03B47tNlTvAzf0\r\ntV82OZ0uN9zt1jf2t3c3kR8YN/wKBze621o1DJKBNAA9dTU+78s1xu2hNFbDIjVMfuY0qBAYNZgL\r\n3DRWrdU0l8tJNThuqDR6rW810g8WNcDjRzT/ziI1aO8+NQfRADV9dPs03frNNAIC2zTg0PM0SFMi\r\nNeRmCDVbtCE1gx+MNF7kvTTDQeE0sEueNJyTGjVl1FI1qeD1NIJljzTGYIU0hFuDNJwe0jT+j380\r\nQJKxNCYSDTXDLmY0bNmyNErkbjSPBoE0KvEINflXbDQiYvU0Rnj5NLfKWDX4XqY0FTsaNSNhzzRU\r\nNPY0r1odNVvU2zSKA7Y0RM0FNT1JjjQDEzk1WmIGNarDmjSUkfI0JoCVNGczBjWK7wM1YULfNPzK\r\n3TTTdKo0AgWlNBbokzSUFPg0+DjQNE9XujReWeE0lOsHNbnQkTRpPR414U2ZNJhbrzT3rYQ0Vq6M\r\nNAJS+TTiGW80haUBNdWyaTSd5OQ0YCiKNGj8FzWbYBc1onrCNIJx8TSEJRY1gUmWNGp4rjRNgYM0\r\nRDg8NNrk1DRobhk0UNLCNCgasDR5KAk1n0OaNM/15jSAP5U014IANc6/hjQAu8Y0+RmSNHpBujQc\r\nvOQ0VyITNcDAJTSG+x41hE0uNcbrqjTw2u00+FPlNI5LpTTZjaY0oPlKNX7MsDRwdAo1OnRJNZll\r\nuDQd0K40SjZTNdyttjTvAuI08RyNNItJTzQrTbM0BiebNPJnCzUe9os0ZrnLNIP+KjTCEAM1mJ+C\r\nNND6tDSE+3M0vXgMNXaV9DQQB0U1VPjjNMD8CzUj+4g07KPHNFMLEDXsims03j55NMqSrTXU/LI0\r\nUDwvNMYsZTQ2GZM0J7MnNd0KhDQfCYY0SBjENB76rzRJQJY0zO3zNBLbzDQRx5s0KzydNNV3tTSP\r\nBKU0vlNlNFoutzTiNKw0dsXcNB6A6zTpHM00UdEUNcsctTQrgxM1NZU2NcxD7DQH4uk0yUGTNDTe\r\nwzSawjM1vGRINPWGdjWiFtU08TIeNampzzQNIdA04iU/NaVR8zTU87s0ehUUNeY+GDW/1NA05H22\r\nNCU6KjTbsJc0vUH4NNRTDjUzJ700efWeNE7vcTRYkts0fWrVNHKuhzR25JQ0+3CHNEJjhDTJ/4M0\r\nUE1iNFcXejRdTiE1/5TINORYljROWZM0pxdxNHz/xTRa+G81+EdFNY9e5jRB2II0VcW/NMxpATQg\r\n2NI0UMabNJ5XjDRlCeM0UK+8NLfPojSClNY0FuTkNBJv0jRIJ5Q0Mz20NJal7zR6NN40W9MGNbTs\r\n2zSX0NY04NO1NMBrxzRpacM0dkv2NK586DS1LCI1xCCCNGLIojSoYaI05iTXNJ8VkzQXYD00qemn\r\nNPaexDSltes049uWNDIOTjUrLQc1bJ+dNGS9mzQzJ2k0SaYJNRSq6jQr1e00U8m5NGQdZjTES9c0\r\nIc/+NMCRIzU09Ok0hzsBNbm1izTxyKY0kZMGNYj6mjTL3BI12ZzDNCr7rzTlF9A0IlyLNOUR2zRB\r\nQqw0nFvjNEpetjTunT00b8GGNMGYQzTKMNg07IkMNTbQLDSkm/o0umvhNCle3DQZa+g0YjK4NK6F\r\nqTTXN+Q0pwwjNfkB5jRWM600xj8ENYUYHTWDNAI1Go4gNQN/rDQqCmc1l9DXNDtptzT4kfI06lWC\r\nNFvsFjSSBQw1rOIxNOh7rTSd+Lo0j8HPNAqoBjUaQRU1bN8HNe/qnjTFa6s0AEA2NQ==",
                            "noiseTrainingType" : "default"
                          }
                        },
                        {
                          "effectName" : "WinCompression",
                          "category" : "categoryAudioEffects",
                          "parameters" : {
                            "attack" : 0.0,
                            "gain" : 9.0,
                            "preset" : 1,
                            "ratio" : 10.0,
                            "release" : 3500.0,
                            "threshold" : -20.0
                          }
                        }
                    ],
                    "start" : 39592,
                    "duration" : 1041,
                    "mediaStart" : 0,
                    "mediaDuration" : 1041,
                    "scalar" : 1,
                    "metadata" : {
                      "WinSubProjectDisplayName" : "",
                      "clipSpeedAttribute" : false
                    },
                    "animationTracks" : {

                    }
                  },
                  {
                    "id" : 118,
                    "_type" : "AMFile",
                    "src" : 31,
                    "trackNumber" : 0,
                    "attributes" : {
                      "ident" : "Narration_fracture-2-czm-element 26",
                      "sampleRate" : 44100,
                      "bitDepth" : 16,
                      "gain" : 1.0,
                      "mixToMono" : false
                    },
                      "channelNumber" : "0,1",
                    "effects" : [
                        {
                          "effectName" : "NoiseReduction",
                          "category" : "categoryAudioEffects",
                          "parameters" : {
                            "denoiserAmount" : 20.0,
                            "denoiserThreshold" : 0.0,
                            "noiseProfile" : "o+HKPjWog0By+wpABt7/P9SD0D+tvJVALtJ2PwZqnj/COPk+eRdpPt8rkD4sohk+7AELPpaRmz3I\r\nyg0+HoBmPWT13D3+tpA9TsuLPbhLQT0xLC49slc0PMwefjydQ4I8xllUPOTiKTw+YFI8mq4rPOV/\r\npzvUuFU7yniIO08pLDusjFE70vs0O+z8Uzs1r4U71D9+O+XuDjupHZE6PobdOmMeADvaGaU7Z0Kc\r\nOgjO6TpDeKY6uAHuOgVVlTooVeU6AgUhO0+WkDpaink6/e1sOky3BjsJnQg6bscLOvm1gTpkm5E6\r\nu7XcOt/s0Dq0bI46i4qkOsjOYTqtWLc5GbtUOovaSTqxABE6dDQXOj3vUTneLpM6nzYsOplMDTpB\r\nm3Y6WlszOsJtUDpsIyo6+hlcOk+iwzoNd8Q6jffdOa13PDrymWE6pcgGOtbJ9DmTCvA5k3A5OtC5\r\nFTvGeGU74RAQOzNlADtzKZM7kaCAO+gSVTv6ARM7IlgXO2r2aTv1tJc7KJDCO3+5pDuUE047UvON\r\nPBMdQzzIj3Q75IMPOx8PIjzCpow7XrqzO0fTazsDZio8zm4LO5ozKDtPXrE7d60DPEYQADxE8h88\r\niH86O+8kojs04hw7a1VtO2a5LDt8cIE71JNyOyVGfDoH6RY6Zh9xOkrJfDqa0F07v5VMO6v2Fjup\r\nhqk6+2UHO5O7xDqFMpg6ZrIeO7QHsjqKVJA63UuzOa+wqDoiLu45kozbOpHmCjpMdOg6ceixOvA1\r\nGjtGGoY6MSz4OloNpDp5waM6UqeaOsmG7jq+C3g6flJ1Os4jhjoay0462CPBOnrCLjp8VXc6xFqA\r\nOonB8DpCw0M6M/8kO8pVjDoGuw87NBEyOjHjCjsXcj867KlBOqapPjpWmHw68BCEOirUWTptPAA7\r\n0bFmOoENnzqFg+E54imDOvOAuDoeESI6YfMXOrTfVTprfdk51bk7OmcLNjpy4m867rEiOoRdOjpK\r\nmAo6BjJeOh2lBTp0+qQ6IRYWOghpiDlyXaA5arQ4Oa3zgznLhsY5k1/COTTwtTkqlXg5GjIjOSQG\r\nfDnTFjc5q+ltOXIuGDlIA1Y5R0qFOfGWWDlrKUo5rRGYOZf7GznZCoY5VTeIOY3paznTj6I5svEn\r\nOXsj+TiD6Iw5yMZnOSdcpDmALBM54xixOdLZWDma2pk5snCKOeZ5AzlOH5Y55FS0OfBqSjng2Vg5\r\nhUO2OaJETjmdjrA5pZAwOdvy/zjQRZE5onNCOVzjNDlxGF855j1NOSs7ojmsBFc5p2ZuOclmODkS\r\nSAI56Mq1OBF+cjmeO2k4NnGcOPmHHDmRUTo5jladOOkIUDj0G1c5qvHdOJIXGDjVhMM4Bp90OJO1\r\nvTgZwvY4COMLORUUpzjInTs4GniROB3+sjiWJCU4mr56OMLtczizlqQ4uXtfOFYL+jfIpW84PAvm\r\nOBaLPjjxeGY4PCChOJPcgzhMX9U47wdGOJIrVzhwe6A4oWK7OGJ6xDh1Ejc5Eie9OCHUlTjcido4\r\ntoRsOHCVgzgDrG84B79YOEzqxzjBzk44lOOcOKKxjjgZfE04zusAOKkefzjeqOM4BmGgN54QLzg6\r\n/a84emEKOCVukDjIfhU5/xXqNwAXCDgUIlY47DkhOGoJBDhuGOY3Q03WN5B1JzgsmIQ4+VT2NzZ7\r\nkjjsE1A4zaQwOAtVKjgQ4oo4Bz8GONbYDDiaZ684vsU3OEoXojhUNeQ3STOUONeuFjh685Q4UecL\r\nOFOfjzhIQ0845PYIOPUBTTgYVC04a2/3Nzn3VjiwoaI3GG7SNzjlBThkiPg3brc6OAIkujfL7yg4\r\nA1T9N23oODisTyA4apOxOCYWujf5PUs4aNWfN5qoNjjC4yQ4xr07N/xZvzdd6fM3JftvOCwrgDiR\r\n4xU46JdcOMkRCzjR4iU4W1GsN7GfADgY1QE4KBNsOBblNThnFS4439kaOCQwTTi+CCc4T7kGODgL\r\n7Tdcs+83cIwFOO8JjzeB5+E3KXDNN9PP7Td47jw4m++SOIQqBzjlwMk3WmcZOM5v8zfAuOs3pFXF\r\nOInAFzjH/PU3QbYyOLHSdDgWMV44P8rtOKtnAzgIoJw4NtaLOIKLQDjkjCY4W9UvOPMOPDguzSo4\r\n4n+zN/aRKDjR2+Q3lnKpN2xeDDj6gyc4uR8iOP7sjjiiYCM4NoAMOMS2dzjHRyA405sxOPz+1jeh\r\n/E84XzRfOO5HRjiiZ143iLm2N0RVwDeQp8E3Imq7N7FpAzgBauc3VhfDN2DBojckjwk4Wc7MN7bH\r\n7TdXg/w3Vlj6N+uPwTi4Ulo4sm44OLwzBThn0mc40z+BOJ0PdDi9IqU4Lt+OOJh++De8q1Y4cnOW\r\nN+e1Jjjhv3A4pOOEODQZrjhfsLg403J3OAqC6ji7Rxk5LD2OODJ+oTj6Stc4rwUsOLm52Ti1/H84\r\nAusfOFozgjgDJ1s45B0eONyo2ji/zmY4CHdJOEdlpziju7A4USlfONtMFTkxIzM4MPS0OK5EJDhd\r\no1A4kRjbNxZE5DfGgws43U4KOFrvCTi1rwE4xpxAOAXdcDghyBY46HzcNz5YEDisyao3a4eqNxYt\r\neDjNEZI3tcQrOO2qhDiouQM4vl4wOF7ZmDfbFDU4cJ2DNy2ApTemcGM4k1yON+TV1Dc6vlU4tKyr\r\nN6f7GThzksc3cKcYOPwPvjhFnys4ajZ7OMVaEjgAXDQ4rMsLOF6PDTjsJOk3Bh3AN1WjRzgAaU44\r\nYd8QOHDtoTcah1c3W/lvNxHdgzcxWVE4PjZhOB5/qjftUu43SJ+JOO0qODheK184OXTFN9UeATjH\r\nhUI4YuXuN9FgBThyaBc4GKzTN8Hs1zfNB5A3k8aPN2SiCDi2kAw4nDKdN1Kc7jcyqAQ43EvTN2Jg\r\nJzgPsQE4vjlpNzOQWji4kaM4VvV0OIBEDjg7b9U3RvrWN/DKxzfEE4s3jmMVOI2VVTirfqo3SCjB\r\nN1QWoTcJ5SI49uXONyB7CzhRUQA4vtTANzBwjDekvMk3EkGcOOIhnzegHLg30lO6N+Q0QTi/XbA3\r\nCtArN7XkHjiYiDg4pKJJOOtlPjjWiss3I4y2NzqGATfuK9s2mA2pNpV1rzZFEZg2sObZNktusTbD\r\nt482xPfONnjAoDYP3KY2j+WCNloAwja7lH42mQnHNqUwqDZOEK02SAuTNhj+ezY+qIg23GikNvCm\r\nijaIrW022cW6NpdUPzYC+Gk2frugNqmnZzY473w2ZlB9NuIUYTYWbas2Bd2kNpDOHTaFQ6Y2k1+Z\r\nNkVtYjbAskI2GAZ8NrskVzb0rqc2vdRONo4FcTZOBzI2ptdRNnIiTDaQGBE2ctdyNjYMlzZJr0M2\r\nzIl4NiM7sjancJM2yueRNr88mTZrBq82EF+DNopInDYavmc20iFvNlt5nzZW0K422jY5Ngatfjbh\r\nJzk2gIJfNv7zjDaixyI2VMdDNk5wJDYs3S02gCuYNkbrbjaxO4s2cXZNNvpDITaOqZ02GC6CNrwI\r\n0DX4vT021J28Nn9upjZugT02evVxNh2odzYC9Yk2HDhPNvWgXzaKfS420vqoNtrChzY8k4k2LjJY\r\nNh4ZkDYosi42QBU6NuaOVTZj65A24r9QNqF1OTYkZxc2I2VoNjyBZTYA9pk2shU6NozYWzaIPac2\r\nzDUeNtU+0zZgNUc2Ovh/NpMRXDbaRW02wBtiNuZJaDYgDJo24q9DNjTzbzbGVJU2ILAiNlo+TDYm\r\nqkA2T5RgNmqDUza2JF82S3uBNsTJJzbA+ko2QXxRNksd5DWF3zA2SSc8NolLKjb+Q2Y27NWLNlIg\r\nRzbCuAc2ENEaNlu2ijbxV2g2jaZiNrO1iTZI/3I2EPJKNqNwUTZ/+1A2n7tgNgSgOTZiH3w2+jyD\r\nNkyulja91i02ZZpaNix+SzZIEDc2aTFTNkd9CzZtcAk25NOONq4jNjYZPVs2PgOZNu7COTaJn1E2\r\naZ9NNje3HDYc+TE25ugvNoT9MTadQVI2sjyMNkSAGDaDef828sRHNp3bJzYwyBM2s9OLNu15NDar\r\npDU2KFSHNgwugTaQ3Vw2BLVfNia+NDYoPD02+w9ENmvbSjYGOWw28M8JNrg3aTZIPTw25gdGNvu8\r\nKDZDiVM20bshNhXbWDZxXW02a6QaNimueTb7MFE2wJqgNpsoADbUpSw2CtZCNku+RzZZtzI2UStc\r\nNhS2SDa5EpU2UtxbNgGnYTagbGc2BUyjNqSKJjbcEQY2R1NPNq3dCjbi35U29txDNj8MVjalvhw2\r\n+kgbNgWYIjYobDI2VKRgNv3fBzZCanA2JDlwNlgqJTZwnvU1eDFBNjpBazaAaVg2LONQNksxYDY5\r\nERQ2v/GmNmzgSTbpg482dDkpNmY6JzZcvkI210RrNt7RKDYukAE2KaouNutOGTZ4mPI1rsAiNpHP\r\neTaCloY2BAZdNvc5VTYiiDM2bctLNupBDDaqmE82UlYINpPBLDatEk42e68wNupXyTWYpmg2Pq9I\r\nNgb78zWUBUQ2kXszNlj5OTacxD822HZENiDy5TVyzSI2JToXNlSyNjbZ/H42O7AiNqjDCDblPkM2\r\nBlcINvbQQTb12B02YMRQNmKuhTZWTUE2BVoONvwPXTbhemo2vN1ONq/15DW9WlQ26NMbNsBV8DUK\r\n0IA2JmluNnjHSjZk4yM2ZNAzNsndaDZ/hyY2PwZ9NgwISjY2vj424EYzNnSPGzYo+Bo2yAFGNlIM\r\nFDbAneY1Si80NmmuFzYQYBs2L088Nn0rUDb/U0M2wVyENoQGbjZJ1Rk2TXkANoWZTjaUP+M1ZtRk\r\nNqmhIjYhIg02hzFZNlk1JjYCxEk2lzoWNrF/Izb29vI1LqBnNkVN4jWXFHI2oKFoNppeLDbiyeE1\r\nalUENoLhMTaGG0c2SH0/NoEtfzYBFCY2/t0wNoiyJzZPvxk2+pf1NW00UTYlLyo2Il55NrfVAzax\r\nVQs29dP5NSTqEzaMGnw2RnLbNagnGDZDEEE20lIgNmswYzYx2As25ggiNngPADa2C1Q29SAENs33\r\nKTZEhgg2SQMONjRPGTa3Ue81U4JCNpaQADZ9DiM2SCEkNoikJTbfOhg28uF4NkN1HTZkLUU2Yl5X\r\nNkdCSzZnJ1A2pXorNtU6JjaIpnI2KSK9NSQqJTZxAO81U/oANie+RzbD4NQ1a/MnNrocITaPikI2\r\nS2faNevOQDZV6zQ25aJFNjc+FzYPz/g12IBkNk0RQjbVBis2q1g+Nm4VbTYB2CI2qoghNoqNQjb0\r\nJkI2Oie0NWNrZjYFBho2fzILNlPBEzblu2k2scJlNiyW/jUdpys2VJJ/NkI3ejZ6oRw2khQnNk8o\r\nLjbE7d01NY1HNoGyOTY4sEE2R3gcNk/RYjZf7z42qjv7NW/IWDbU+kI2neMgNn39ajZLBHc2kDZZ\r\nNp5LNTaCC0Y2hsxqNvYkZDaoNSU2P3mANhxlNjbHF0U2Od0UNlQvWDZR4Uc2S5sVNgAAEDaUtNQ/\r\nS7mOPVouyjztXq07Yi5ROwfaSjtId/k6zEiZOukBrzpUJw86KWINOoasHDoZAqQ6GwqkORAt9Tl6\r\n0JU5i/izOUV/sjmHuUA6lQIeORk1iDkeJGY5AkmwOVgJizmeWg85xyI3OUHKLzkjM9Q4hPKCOZqd\r\nWDmarVk5XPEBOU7D+jlTgwI5SI5TOcnjGTkXHrk520nKOMxHKzlvXys5z0CUOYdjIDnjrzU5yMa/\r\nOJDwkDlKz7g5T5uBOb0+UDnpdo05I4MqOUv83jjRhSk57V4GOdxoNDiMu+84Tw6YOMd44zgSBgg5\r\nXnJqOSUUBjmYQdU4ZRmJOK4eSzniJBk5YCLzOI6dTDh4thw5sGOnOAs6rjiZHd04QngAOSQ5TDiW\r\njoY4q4EgOQxsFjkrDNY4k9XjOLWeFDlXsrc4DR0rOOAt5Dihk3M5MJL6OHjquzgY5qo43okdOa3F\r\ngzmgl7Q5c7SuOVhcvznPKO45EkPnOZbesDl0J/I5/YTDOZiiyTmIN485t52lOA/wADnsDQs52wEk\r\nORYGmThPUZE4+AyLOJ48qjjDmrc4HcIeOVY6cDgEGoc4RBYgOMCs3Ti3+4Y4gzUHOam+MTjP7JU4\r\n0LuBOEVQMTkjzFw4GHlgOKwTtzh+7IE4SiTdOEYSpDjmLgg4nKvKOLQstDhs+XA4GXuJOPSOUTiB\r\nm0k43GaWOJQ+qzgq8kA4XMouOKlAaDjjFzU47T/GN2YtVDhFwFA43nMpOPBLSDizmp84kENdOFTW\r\nSzgJN2Y48zmjNwxkfThqX7s4lm3yOI0npDgMm4I4mG+HOA7hgDjY3DA4+6aNODQE1zdYV9Q4m618\r\nOCO2bziJVGA4ZQIMOIcFfjjsvDg5SQ9SOJpWTzi5SY04MrEMOFOZ3TeG0WI4EedTOK+ENzhDW784\r\nhHDyN3ymfDhBE6M4xwwMOE7n5Tdw7DA4yY8dOAnuaziZfDU4J0wTOHnf8jccWQw5poWjOBdaiziH\r\njEQ4mZVqOLh2djikD9I4ituEOF+cTThUeCI4YSKfN+o5+jdoxdw3jQiwN9ei6jcxMiQ40xDANxqR\r\nxTjKODc4AgpgOOpIIzgK4B04s62aOJ6F6TepzqE3NDQ5ODMqMzgCgiY4bHUDOOcYEjiObik4YgsN\r\nOAiGFjhUFyk4CRDiNyhFtzcQB+I3DmObN/XWITiuQWs4DcubOIYXnzckCwI4aLEOOE8hITh7Yt03\r\nTZYROMPpETgZQfw38Ee/N67STjff8uA3rcS6NwMAuzceIyE4w5xGOOrQlje7DDE4qwcjOFAMwzcK\r\nlQQ4wxcPOHvK5jcy2Rc4uNoCOPiPuDfg1AU4tG7PNy7juDcQ0Zs3xwMaOJ/JSDinKw44virtN0Kk\r\nvTeeSDc4dLUvOPZlAjiGCek3w2cCOJQY+zeseLU3PfLVN7r+8jcpspg3yMecN+7bizf4Ld031CcU\r\nOP3aEThUSgA4mCsKOGVjbzcauAQ4GvyTOF/OCTiC3Q04F8FmN/o7ODjEsD04PgG0NzC5zzf+A0I4\r\ndQgCOMr4wDcLO4A32nCvNyvBzzcxWQ84k0oaOE9uKjiDGA84AF0DOErRDTgrsFM4+aO8N0S2Fjj9\r\nrwQ4z6hRNzfLDTjSLfE3d6pDOJfZojcmM5w3cCQnOFjehjgwGrs32s7kN1lm4jf8uQI4Ws0KOO+U\r\n0jdBts83LBdGN0mYIji0t6s3AHToN81cTTeB2jE4knolOEvPujdoqIs38o4iOLinAThicb83wyuM\r\nN1QdBThzk+o3uZAuOG3muDd0pqI3WPaIN1M+TDiEuiY4EGL3Nzi5Kjg1wF433VOjN5jFHDh+/A44\r\n/pGpN0a/xTcmuyQ4zA8HOF+A7jfHosE3uBLiN0DTmTe12II3ywDwN0HZqzdxNlc3aWOhN+jAwzd9\r\npHc3fc7nN4K9XTg5cXk4IBUMOJ1ypzdV44o3L7vWN90vHTjBk9o3ozALODvF2jfujgQ4GMcpOC/2\r\nAjjbQt43tvkBOIm2lTfEPBM4nOsGOIY4vje08AY4KA8FOGIXuzdl1k84/oqaN81WYzfcZwo4Nana\r\nNx/4czdFb6Y3QpK0NxiNHji04Zc4eTPFN2ZGBTgo6KI3WIFyN3Lxpjdffg84onQTOE13/TeEgrw3\r\nByWNN2BdHDgPfZ83BkBmN5nWrzfNtw84G1EVOB23hjd2fC83n0yeNyIsnzcz7zo4mrnuN+ajdDfl\r\nHhE4VAGtNySlLzjU1Eo3tNugN38qTThI1FU4+J3NN0J5KTeqokI3DkycN2AAkDdmPP435DfcN6l2\r\nlDc91bI3ZLrkN8l47zdwA/83NFuaN4Z/aDiKP+E3i0OUN8B3FzjQxtE35NLYN49HAjhbOgI44hMy\r\nOHaJrjfybME3rf/IN7O2+TeGSqQ3qt9MN4K2czdrUSg4F+wxOAgMyDczCco3gG2aN0TfNzd7P8Q3\r\np6GdN81OfzcbRUs3tOJ6N2MgzDc9QhA481YMOHlg5zdIcT83FJ2oN2jYJjh+OMw31obiN6r4ujcI\r\nYIg3AUwvOPvdFDiK34Y4ZkC+N7Y6KDjaMzY4D6B1N+FfNThFyJg4lzYDOPzKojjAIe43ki8uOBej\r\nKDh9PYY3Sq0mOG37ojeucgg45Ca6N9jD0jfdlek3H+CxNzOaujcYsBY4/v02OEGZqzfGmhY4JW7+\r\nN3QeDDiGQ5A3HVv+N39+1DcSa+s3z3SdN5g65ze5ovo3fcOLN8b06zdKGdQ3jxwMOAAahjeRq6U3\r\nmXWDNwtelDczcA04fUqiN/X5uTc2C9g3m1YOOJn9MzhmXtg3loQROFQYLziTq8M3PJCPN3TjJjh8\r\nTNg3oneYN2I7EThBpJg3Bky9N8JCjzckcqw3BsK5N3GcBjjokfk3kunYN7fyRTcuPBw3fKjEN7n7\r\nyzdmMJA3uRmSN3aTzDd02eE3QAbyN5PNNzgSqp8381zBN9awyjerQQo4NaavN05w5Dc3q2o3zEbP\r\nN0/hyTfWf903/O4qOI5CjTjHRcM3XT19N3XEhje4eQw4wanqN4R25zeyUzM4FU/iN6hGlTeZR0g4\r\n6hMCOEbuujd8oJk3Sb3LN6zbbTf8ZCg3JRp7NfH6jTXnOhs1b0TjNI1rszTPDJk10gxwNZCcSDVk\r\noPc0eZUFNTUmJDUiiA41lrC8NQNSKTUaRxQ1R3v+NHFsrTTylag0ezfnNJAk5DTDC+M0BJeuNHQs\r\nBzVpDFQ1T83GNP5nTDXVGiI1edTwNOp5KDWQlx41oBNDNf4YbjUT++E04GEJNSiGtTQkHAQ1c04B\r\nNeqLlDSCxi017NEDNdqN6jRggxU1IljwNCEkQjUKTrw0lEMeNQV8tjSDufs03Fc4NejwiTX+t8s0\r\nxqfNNLvlhzQdtiI1Ch77NBnwHDUw25I0ysYQNZByOTW2Xrs0hHkONZ6XpzTQwyg14bLdNJ8wBTVF\r\n8YU0umChNDorKzWVYBA1tCHxNESkEDXugdc0el/YNNX7HjUWDz01XQVYNcoIJDVmUxA1NfwENaRB\r\ngDQ4V0I1sx14NIkxPzUe8Ro1kilqNPaAGDXKHFI1kdKgNP5ndTSvo9U0ty7xNGeYcTUqoSM1fuLd\r\nNNQutjTw0zg1yvW+NPoZpTRdQwQ1KagFNeqdyzRrehs1UILkNCqsOzWY/eg0xhvUNOITSzQcNxI1\r\nz5SGNRkO/zSarQM18yCPNLNEXjV7f9U0mi7wNCbcvTQXwRI1Ywi+NNV8ujRHTRk1rekYNZn4QTWV\r\n0aM07dndNFT8VzR78EE1Qz6+NJGzwjTvTNs0cHSyNFStgzRqeq80kK1ANTD24jSWdwQ1Wm3eNMps\r\nITW5/Rk1q8f8NG4tBTVxPyk1SU86NXA95zTAT/Q0+WyANJbBbTVF8Oc0BUM0NWzhHDU2d/Y0NmWV\r\nNElXTzWwuFM1CmzXNOT2DTWNsDU1xyKyNHdtMDUf23g0pI3qNA/MxzTnxqE0lMf8NE/YSDUyORU1\r\nepklNRtR+zT+fsE0BHEwNTrtuzT5GhM1mzBSNYBxCjX2RgM148z8NLB56jTFht40b9hINV3MEzXu\r\n/qA06s1tNGOr0zRzhQY1tq62NMEEHDW9BKY0wknFNDiwJDW44c80WuINNfqgITXOV+w0FPMkNaPR\r\nvjT3hA81EYqlNICrZTVcOhI1xK33NGEo3zRoYZI0q0OvNEIZejRQNjM0NmDWNXYzGzU6JKE0uCbe\r\nNOfq6zS0aCM1ShjgNJwp1TSSGQE1+BtmNatHMTUO/UM1DfjPNByA3DTxIr80wqGyNPV9lDRf6LY0\r\n/cc8NXKXCDV6E6w0VLgVNVNoADXK+ho1kEwONfheITXPnbo0nv1HNaR5nzRZX2000hBiNQ2iOzXQ\r\noc8z98wTNf2RODXYSkQ0QjcXNRz3KzU3QJI0IQONNIFQHzUTyss0rTXINFsaqzS0LhA11glgNR++\r\noTTb1ek0s+8INWE2uDTu5JU08B02NWxbCzVGCPk00gnGNLyd9TSg89Y0N2HcNLa9yTTcbS80FLzJ\r\nNLAtnzSmezo0Zy44NRY2yTQ19J01C8fyNHZe8zQ8ftg0fESrNO6NhzSmOwU1/7ckNVmwHDVvlAU1\r\nv/PWNDTmSzTZpEU12/rQNPKS5TQElzg12GkvNTB6vTTuWPM04juQNFcnzTRCSBE10qEaNY3Q2zSW\r\n6lQ1ohi4NKf5wTQxeZg0jHLNNLcRvTRqX6w0v7nMNIsdYTUt/ao0zKohNQsu6jTMgdM0bQErNcg8\r\nojSzJhQ1QVwdNWAEIzVjn+M0JUQ3NUpxyTTb1wU1gSLQNJPqLjWGqQE17GakNFGU0zTenw81Tmqu\r\nNLg7BTX2+Vk0JeSmNLBx2jRR9M80hyvKNNAhcTQukgc1COzYNOlwFzWnrbg0pWAuNO1vnjTZuKc0\r\nvjHzNGsgxDTLV7M0jbYQNdoNuzSfkFg0x3QoNXAmnzS/pAA1gtnmNA6NJzVeBx81ln0fNfUx6TRr\r\n3wU1vtEnNYhfCzWs7gw1YiwANckoozSW/Ns062LWNCHUyTQNrvI0ZfG3NF61HjSlvIk078c8Nef+\r\nfjT5YL40TA6xNJBfKjWgfug0huiDNERqPDWoH+80LlW5NIrapjQSLlE1eR8kNa/xYzTIjeQ0wGAP\r\nNXdJ8jRJ5aM0RV//NENOpTQXSmk14XkDNfMW6TSstFE0GPrRNNfv5zTovL00Fod4Nc6L+TRSukk1\r\nPJYONUQ9gTSqchc04szkNNOvwzQS0K40VqXwNMCtNjU32to00EuQNMyGpjQ/EXc07tESNUZANTXm\r\n6i01+YeKNFUcpDQgJ5Q0AKT+NHY2tTTZ76U0bKfoNEXpijV0VsU0UB0SNbPS3jR1GQA1knpPNZf1\r\nFjV79Is0rl3WNP3D5TS6of00tpIKNdVctTRiGoM0Vk7qNMD+hjR2/Xw06h3uNEmj/zSuFB41WYmP\r\nNUS2jzT79E81qnOyNFBxrTTcJi81PHnRNIhfRzVsdRc186asNLZ2AzWPBTA1AADINA==",
                            "noiseTrainingType" : "default"
                          }
                        },
                        {
                          "effectName" : "WinCompression",
                          "category" : "categoryAudioEffects",
                          "parameters" : {
                            "attack" : 0.0,
                            "gain" : 9.0,
                            "preset" : 1,
                            "ratio" : 10.0,
                            "release" : 3500.0,
                            "threshold" : -20.0
                          }
                        }
                    ],
                    "start" : 40633,
                    "duration" : 2844,
                    "mediaStart" : 0,
                    "mediaDuration" : 2844,
                    "scalar" : 1,
                    "metadata" : {
                      "WinSubProjectDisplayName" : "",
                      "clipSpeedAttribute" : false
                    },
                    "animationTracks" : {

                    }
                  },
                  {
                    "id" : 119,
                    "_type" : "AMFile",
                    "src" : 32,
                    "trackNumber" : 0,
                    "attributes" : {
                      "ident" : "Narration_fracture-2-czm-element 27",
                      "sampleRate" : 44100,
                      "bitDepth" : 16,
                      "gain" : 1.0,
                      "mixToMono" : false
                    },
                      "channelNumber" : "0,1",
                    "effects" : [
                        {
                          "effectName" : "NoiseReduction",
                          "category" : "categoryAudioEffects",
                          "parameters" : {
                            "denoiserAmount" : 20.0,
                            "denoiserThreshold" : 0.0,
                            "noiseProfile" : "CdysRL3HwELKJURC5WtYQd7YpUHJbwFC7z8GQvpbi0Q7pahEYvLLRDqrP0RV8jhE/VqDREXkHURT\r\nQVVEvK0EQzsdbkMAb45EH91yRL0meEQAufFDRPYlRAiRWkPeyO5CIp3YQQoeTkJjpxJDhkUEQztj\r\neEOgjwJDUVByQo4q4EIa/PdBqdy9QCgRKEHgOhRCSH+lQZjymUHfO8RA5T1YQOxUi0A3Hak/mRtR\r\nP2K3LT/GJjtAwpL+PzyEqkDsPFtBjrGpQWzP8kBoRBw/kbkBQKOZ6z4cUI4/CpbFPn6gqj8A8xI/\r\nZvE/PzYV0T/Vq0I/OauNQBYjskCgq6hAhYOyQDqs8T9td20/uvsaP3eGVz/lQ84/tzuKQNllIEAB\r\n1DRAIKavPmUETz83WSU/A2w6P0s6Hz9e4Qc/JEyCPrT4+z4ZI9E9pzCmPtGSAz6SkTk+XjgBPp6J\r\naD4oawA+mf2APTyaUT5msIA9jOm6Pc2gnD36QLA91exSPaA5wj3IstA9NL3BPbxy+z0sfVs9drQg\r\nPasdfT0fudg8qBhIPQrabT10LMs9cuuRPAfOlD3yDEY+bH9TPpNwDT64U5Q9JHjSPohZaT0qbLs9\r\n5DzvPciOCj4aQL89DnzVPSrLmT3ffaU9hj6zPVFRoz067/o9H1BqPTqQFz53jzQ+byIePgRcgz48\r\nXHk+gOEDPhevCj15d+I9ieyiPfBsyT7WWsI8/LuwPfXIbT0mfNk9MCJ9PQ8A7T17O1093JmhPZ1W\r\nmz2yu5U91wEJPZwANz3ElVI9sDvrPW/luzw26js9Zo98PMipHj132009TmytPeF6iT0jaaw9dSUA\r\nPngq8jwKkSs9iEBuPQ5ePz0sZLk938P2PCJ2pD1mQyg9qMhTPcxcOD12BOY8ZyAMPXo3ez5Bxc88\r\nhB9aPrrAkD5jJaI9XGsTPT1NAj4o1PM9Q36TPQzmAj37Ovs9Ay60PWySgj3bT4o9mvgvPUyduzw0\r\nRVA93JCxPS/Pwz3xZIs9ItJOPdpAlz38+sQ9mxtXPeURCz1U8cQ9UhHaPdKamz2uvJ89WfC9Pal9\r\ngz3GJ649TqNSPY3gez0lWeU8aHu3PeD3Yz7g4QM91thbPpjygD2IVDY+aqY3PyC89D0VP2g+qKpa\r\nPW61SD0zUS8+96nOPbh+6T1mACA+u/UJPCI/Mjw+lCg+BI7aPQaUFT6Vew49l37HPU9itT1+KgU/\r\nyQYJPrKKVj1p76g+xFUuPkf5Bj4Ah5Y+ulQgPuSW3j7JCT4+SszdP5P7oj37ioQ/Ee3ZPayJ6j8c\r\nnl5Asj7lPpjC1D9NdZg+kqQ2P6X7qz+Bqos/7LHTP/ZazT5MNIA/RV77Phs+9D8Z/rZAgigHQDg4\r\nEkC1RKg/eGYBQNH+AUD4RJA/i5RbP5wmvD8Ud9898ZJIP5Wsxj5jTQNA0RdNPuCOgj4bDqI+zgoI\r\nP6KUVT/fkAVAK/vCP5+OKD/zy2s/Ua/JP6u9yz4UElA/aJKUP7pcoT85IwQ/JF4XP+xE1z6BdOs+\r\nlRG9PvDzhT85nZ89x1pQPrQztD19mg0/RHoKP+jVkD3Pm0w/YAx2PkMhdD8CuXg/3A0KP8MZiT7m\r\nas4+yo5KP4fTkD4ikwI+KXvpPUlzyT6nJV0/J+VAP+nIDT/E4I4/bosUP7oA2T56EGA+IFqvPk5m\r\nEj+fzP49e5qWPiTR5j6m5rA+l3oCPidJiD75IFI+veqSPggICz1sg/k9X2zwPUX4yz7psrY9mOL4\r\nPeiRaj7Dv5M+BNQlPjTpnT1yodc9ajwzPat0CD4TRFA+O1sdPXdxmj47frA8DZfIPf6Ruj0ZOco9\r\njUEPPgBENT16AMY94PgjPhgT2T0g4wE+dJWUPU6AZT4oMBE9LHn1PTg9ST6zkQs+ykbvPZzvsj2i\r\nHyY+afwlP8kHHj1Mha48pGGkPTYcWD71WWM//KfNPXQROD44aUc+cI6IPv2Yij6YYLY+tXyYPnDh\r\nRT2SpOI9brTBPT1DPD6VF5Q+JZnKPaqhKz6XiwM+8mcHPfbaTD117Qw/gFV3PgGKIj5nIRM9xJg9\r\nPl0ReTww+kI+TiebPRVniD0gFtA94uoiPnlLCj53cks+kpSkPuyBnjw9xS09qg8GPsj5Iz7q7VI+\r\nAG14PRIdpzyzPS09TMbVPaDGBj02WQ49LMXfPWJYXj3YJbw8HsqRPZIAkD186xM+NPuVPZAO6D2d\r\nDZg9GmscPmuhBD4LID49aAubPYgSdz3LwH48wlRqPbwf6Dwqu2E+BiowPkoZ/Dz9XIc8qVqSPaKn\r\nxD0wZRM+Md5UPYxTFD03ZWU92iKZPHRPiD1FG3o9iazhPT2Vqz0v3bQ9tGI5PS9IuTyi6N08kkXd\r\nPcLIyz26jfU8iQBtPVn+3zukXtw8oYgbPfsKRz1kYZA9vG8iPZ4pTT4MXAU8YySuPX2z/D0m0aY9\r\nP2INPmjU+D1hUCQ+P60kPtunxT33aRE+/GElPaxvpz2lqIU+9dMvPj2VujwDxo08XYVCPnFw7z2O\r\nUj490qjYPRNIpz1W2L89Wb6LPBTOKT0k1M89ZL9CPXtKhD0dLf09Q+aTPN9xiz0tAmI+PEbyPIzB\r\nKj4ecQo+YMDcOyvSkD1OCI882H+pPIfIgT1bqa08gPUMPt9X4ztYdeY7lTCKPXMZrD042po8LbWx\r\nPfgjrT1pxxk90CXLPM/oNjzBsG08LqXwPPSGRT1EtE49Ks0WPWmGnzx7lQA8UPE9PZqbWjwgbvU7\r\nwy+CPAABVzwItg07PlmRPKpnPTx8+Uo8VARjPM+PbzwP02g9iS4FPZbonjsdnXU7nKbxO4ExAz2n\r\nhF483nygPINF5TzipxE86tKpPEz/+DvOARM8fwGEPOiBjjwGsVY8XOuxPHD8nTzD8WA8F2w6PMYD\r\nSDxZOM88B6bbO+g2kDtmRZI8kpuYO8a0MDx3Wvo81IiaOwLZfjxgabc7CQPpO270Rjwo0Ks8fqEb\r\nPVksyjtEASM8OjjoOyDPYjyhtTc8gyhvO6aKKTyH5Uo8ie9uPADWETwbUJs6MKoNPOZkyDuuU508\r\n3GYROyZ2BDwqzHo6FH4bO4TLnTw/LSM9NhcoO1mvBDuUPVM6JKY2OxmBRDz6++86awSGO388njtx\r\nTU479EsqO+3/ZztGwAM8A52cO5hK1Tu205878yE6O6whRjufpAU7tkJWO67lvjvxyaQ6Q9NuOy4T\r\ntjrMKIg6FD22Op8DrDok3TE76wg3O63cOjtvIoI7s/RoOsNT5jogSBY7tjj5OoGwqzo1S5s6SUzD\r\nOoFYgzsHFZ86Ek0KO4EVLjtSh7Y6QO5GO+QRgjotpzE6walvOimqFTvgNYg6Mf0zO3A/SzobLGM6\r\nCs4hO8lSujro7fk6FZRSOnoS5DpkB5A6+DY9Oj3yVzpmd4I6FFncOghdkTqQnmM6SA86Oit8NDpC\r\ndGI60vyFOvC15Tr0H0M6YvJQOtQ9WDp51zk7WwZBOtOTRTqrwMM6ej9EOi0Cdzp7hE860WDlOpoY\r\nSzqUckM634RKOgaVQjpFEMQ6BI9AOmrIvTrSMUA6nCY6OlluOTqvGfw68YJnOsgt1Dqjf3k6Abpp\r\nO3cWjTo15T86bsQzOx8BOTrhLTc6aFU8OjSZgzpMfDg6Vt/FOu6ROjrq+g87jLHVOtWqNjqg8Do6\r\nZM8yOtPiLzpZR1Y6cuspO5YetDqUWmw6mwE5Ouq4Nzro4DE66qxvOqIpijoHZS860Kw1OtIgQDoM\r\nno86S4eWOo63MTq3ZC465fozOqXYMDrC6Jc6/e8qOoYoLjoOmyw6+k0wOkrnLDqYWi06FU02Oh3t\r\nLTptGyo6eZAyOpKdKzrz6jY6U+QsOub5KzqWQCk6bnAnOqMGJzqi4CY6VB0vOqZiLTpjci461xcm\r\nOiqXKDq8Yio6o8QqOpwQKDpscCg6uIEhOrQgKjqKtCk6MvkkOlUfIzqYkyY6sDAkOq68ITr4uig6\r\nWL8lOpf0JjphkR06eikdOjVwIzoE+yA6VPInOkQaJDpz+CY64rAjOjFiJjqmUyY6pT8oOkOAITrB\r\n1Ss6PigmOqJqHToBICQ6JFIgOsLmIzqjMyM6zlcdOm+UGzpLsCE63F4kOiiSHzrgxSQ64g0ZOrcD\r\nHzpzfiE6QSsgOsC0IDp5VyE6XGsfOrg9HTrYXiA6BGccOhrVIDoD9Rw6d/AeOvUSHDoP0iA6Fmge\r\nOrIRHToKDyE6Nn0ZOhJ5IDqibxk64lohOtbyGjpAgxU6CqEZOosHIDp0whs6r0EZOvD3GjpU3xY6\r\nNYEmOgn2HDr76RY6RscbOvZtFTqy3Bs6oLEaOhDrGTrvaR86/NYVOvRaFjoclhk6s18cOiD9Fzrx\r\nzBo6XFATOhROHTp/ih46KKUfOk8gFzpV9hg6KkcaOsJvGzp53hY6bzUSOuPYEzql2Ro6VM4VOm3r\r\nGjpwJRY6pfIXOmldETpxEhQ64rAWOqKSFTrkXBI65akYOgSIETrjchI6354TOucmFDq69hI6kQ4T\r\nOruFDjoV9hE66Z0UOgEoEjqnHBg6pnIQOp3rDzq6aRI6jGsTOn3fEToRiBY6WroUOptADjpQOhA6\r\nY60WOifoDzpZfBU6sqEPOqwnEzotnhU6YwkTOjAFEjrnJA467QsTOtf0EjqKGhE6PJsTOrikEzrL\r\nThI6dLgUOvTIETo/zQw6vAQVOgj8Djp4hw46QuwTOgeLCzqVuRI61+sTOtgPDToHLhM6MYQPOiaN\r\nDTpVtg068zYNOsLWDjoJDBM6R3AQOj56DzrWuAw6HFkOOt3mFTrA2RI6ZpsJOqosEzraaQ86mJsK\r\nOocHCjqVMw46pzkPOuxRDzqN3xQ6VNIJOk0gCzpV7ww6pw8QOqEMCTrJeBI6BK0KOu4ICTqleAk6\r\nkcEOOh3hEDoc3RA6orgLOvapDDoj6w46xM8UOmfRBzohWgs6fFIOOun+DToiVxA6wjwNOuAJDjoX\r\n8go6v/YIOvhlDDrlOwc6c6cPOt2KFDqLTgc6bvUROjzDDTrBWg86UYUMOl5mCzoQFA4699wOOgPj\r\nDzqJVQk6K4ILOmb/ETr2LAo6Pz8IOjgaETreTgY6FZMNOnA/CzrFqgw6wRMOOgFxDjpWwA06BdkJ\r\nOgJFBTq/HQw6QEwJOsHsDDo0lg46hxcMOr/NDDoOFww6rGwMOlvjBjpZXgs6LccIOr4RDTrXLQY6\r\niu8DOiVyDjpkhgU6tOQNOl0ODTrKvwk6ET4IOvuMBzo9Mwk6vmwNOqg3Cjq6/AU6FfoNOlk4BjqG\r\nAgw6VaQKOoZhCjpYhAc6H1ILOtxeBTr4/wU6iSwHOlWgBToMlws6WlMIOsilBjqXdg06lSgHOj1o\r\nCTp8eAk6IJUIOmwmCzobvgE6ZlkJOiiSBzryQwY6RKsMOrgVAjrSPgc6CmsPOgIXBzqmYgg6Ji4E\r\nOlymBzpJZgo63eQEOiJ5CjpRQwo6c94POm6WAjoFcwk6JKULOuqcCTrwMQQ6bjMJOgAEDTrsYhRA\r\nVxYUPr1Xtzx6GIw8lbzQO4xWhzvT1DE75tIeO+bZoDqsEGQ601UPOzHPBjp5fC067cKAOm9QKjoo\r\nw8o5wDLsORLE3Tl0xhE6ra61OTh5ATpyg8g5VqJ4OcyZmTn31yo5NrkHOiCqFjn19xw5fC8aOcUI\r\ngjmo3tc5SxVnOdOnADmGjQ85WgVvOZfX8ThVbds4x0YvOfPoejm6D4c5jA4TOVlVmjlVZD85PFQd\r\nOQ6lNjmppGc5XNK4ODpRDzmj9l45SbcSOXQCRzkufUE5XAMaOYhHWDkEGWs5pAOSOSQq3TgH/O84\r\nTQ0cOdxM+DhXdBA5QvfzOJ5umzibPZ84iJYMOUmYoDiQGE45sfFnOFjd3DiQ1Zg4u/rDOEiGVjkc\r\nZv44PuN3OHb2Hzg4nJo4aFF+OMoWmTiHg4w4K8GOODqA7DjGvl05M2OiOL2mQjkrD/s495hUOfAM\r\nhDlyzB85/3I2OUvOjDjMpMY4uN7POZKY7Tl6RcY5TtUdORmJVzk9HBk5bP4zOXMfVjheSC85339r\r\nOGAveDh+TcY4tGqCOEByiDgMq5w47E6DOLLO6jjAz6M42tV5OBgNQDhyP2Y4yRyeOCM48TgdOGw4\r\ncQAIOEaeoTgy0J04yll6ONjacjhzUFY5VMzZOPpGGzjUEL04nfBMOERoTTjcRBg4jK6SOPMMrDip\r\nBoE4ciuyOMG75zdDRkg4pvdROH+PiTg2yXA4IEWbOA7PQThSGQw483xVOF6FojgG3l04OuiXOLCx\r\npTiUhks4HuecOJQCfzjsouc3ly5TOEy1XTjLLBQ4B16EOMqenzj8a104H5kiOO/vFTgphbc3aeo7\r\nOHGL+jdMpwY4Z1oDOFMspThm0Eg4UCsYOJbSajh0fR84rfxqOOrsIziCuZI4bTthOEI9azhA+RI4\r\nUXsfOMFBFjhmsIw3J39COF0eEDh9/5U4As4aOMkbcDh9Bk44RueQOO1GTTj2S5Q4MWZJOFkwSjgc\r\niyU4RdZUOBEoIjg5tFI448aGOCAt+zeWgIE4g5ddOFaqXTiS9Ik3owRqOBpiVjikqAM4znS/N6Ru\r\nbTjtg+03SfvHN8WCKzhyNtA35L0cOK09zDeRQhs4Yx6HOBo2PTiWguE3bq90N2aGCDhQOHQ4kNgU\r\nOJJC/jczr0Q4H65xOKQm9jfSCZU3vbNQOAUb0zfoSLI3TZBLOFToHTisQIU4mKZ5OKbiHTiKVqc3\r\nbDh2OArgtDc4VgY4nSWtNz54Qji4dB848lH1N4w7KjiHjCk4lM83OE8baDhfzAs4iaugN1lRuzds\r\nttw3i9uuNwC3Djgzaq43HzbhNxyBMjjMcMg3lgmkN+4Znzfp85M3OZnON7+qrTcyBJ040rOZOEyi\r\n3DdR9Qw4WA2vN+ABfDfT8LM3yhl8OOyr3DcuDTw4LW/yN7rWVzhcSss33dAAODRHMzh/CwA4AeII\r\nOC2gRzhrwAY4FgROOKyavzfku9Y3HcshOE6OLzgICBE4MnF8OLn6UTfnBf83rJsNOKQXyDcAZ5w3\r\nJHysN2qpVTfew5M3V4riNxM6JDhgy9Y3/K0HOKyZBjjy4KY3BiTmN/vE8jcUmIc3fBGeN/CqBzjg\r\nXPo3KsrHN3TvgTd3Ae43doCNOKSg+DewK803CVPQN5195jcXKYk3h/wCOD2HsTf4Mlk4o8uyN7aY\r\nqzcYpz43mlRsN+jnODgbL+k3S0kAOHsQ+TaI2gI49PeCOMH/jjcJo+U3XuGkN424pDdcLH83GQkD\r\nOLfAnDdXq6g3j1HVN1UOCDg434k4nfwcOF64/jcPcqw3MbSfN1rE+Dfdnpc3zrlvN7w7mDg1TpI3\r\no666N38grTc43Nk37HZ3OKY4PTgCTwM4f/oIOPGXGzjGfjY34yG+NxyUbzeGrRk4TKg/OHKn/jeI\r\n0eE3sRX8N/55BThjGT04yatrOCqUCjg6yqw3XN1FNw/0xTfm/C83aE/zN3dm9jftZe83mGbpN+bm\r\nIDhS/iM46IK1N5rGGjeMcEc3BO7DN5IbqjfE0Mg3XxKBOBdJEDgadwQ4HaAYOPTtGDj0cPE3YJUi\r\nOAnU5jchTDY4D17XN+5jmzd2x5w49XmMN9DyiTcr7L83sDv0N9DCyDcjHOs3rArAN/Awrje7M7I3\r\nd2YbN/jFkDcw2A04ZWPZN+4YiDfAc+o3/sq5N/UEDTjW0BA4tJHnN8uelzfUlVE4YJD7N7qMUjhx\r\nZC0492z7N0lnrTf4/8o3X5ulN9Am/zaOBbU3Wjr2N+Df8ze0VYU3/GCWN1EWCjihAbI3WUSUN/5I\r\nzTes9w84QTgIOOeVnzeBrp83g6nMN6BxmDfuDOU3UpmgN+LqiDdm+zA47xj2N+ylATiyQg44XVio\r\nNw91BDgTyRU4bW0kON2b1je4Cok3vm4JONmjDTgwOBo4RqDNN975XDffG5A3YZKZN0Yyqjf8SQM4\r\neZDoNwQgUzepGZg3cNcKOLWFEziJ8aA3LioIONaD2Td0g6s3u11TN4DPBjg/rjg3hpKfN9tOADiK\r\ni3s3DPkhN5gZvTeqRrc3bPctN96TRTesaTY4RE60N/VxiDcIpqo3kzjaNyRaFTgDbgA4I0DgN6BJ\r\ngTcSOI83ICrIN2pMwjcLYpw3qkLNNyaFqzegsXE3lkjON0lX8jewxwA4uxP3Nz5TfzdGQro3jmkW\r\nOPudHTjpSRE4BkB+OHa6vjewFeg3EO8eOFo5yTfSwd43ini7N/z2oTfNXKc3/CyONwDk7zcs2603\r\nMIKxN3UIyzeP1s03yt7BN8EEHDifqN836IKNN2BKGjhz7Zw3blXZN3ZLrDdEs203mku/N/auBDi8\r\nezE4XWlLOFKaqjfSJM43l/+5NxG8qDeo6tc3gL0+OGJGgTdKGzw3BBL9NyTF7TeCNtw3uFgROHAg\r\nGDjTrwU4+W6NN2UpJzgz2VU3ffQuN6XDuDfc8v03FYn8N8eA0Dd0SME3CWoKOOTOxjeH/jA4DrTn\r\nN3FfgDcWCEA4BsOaN77azjeQH4A33NQFOAOoPjc+mr037tQxOFos9DcWgLQ3qhixN3BVkDd/SIA3\r\nHlacN/9rtjdCsjI481EMOAxIEzjzjfY3jZivNjBO4Da+uHU2gGqzNlKeiTZ2RrY3Y/3qNyxfiDel\r\n2lQ3T4uiNXaLozYkDOU1hpJqN0NTpDcMsT03cRGjNnOOqza8IdM2ynqtNoeUdTYpp6w2kiSNNanZ\r\nRja4x2E2G79nNqsMajd92QM3n6OwNkp3zzbgY542lTvQNWH3yDZ2km02wshqNtQhHTdUZcI3YCmE\r\nN/z5GzdgoBQ381GmNkq0DzfQcog2mLw0NwW0EDfdHNE2rM/XNqUcFze8tdI278iFNsDg/jf7apY3\r\nIM8TNwoKXzeBcSw346DnNuK/WjfS+Kw3ymGpN5KuAje7DZI2JOW2NgVx0TVwhb82ig/XNhkI4TZu\r\n1TY3wbFvNrFjDjY+l2s261I7N5ZD8zY9aqk2k/w8N3HtvjYw2Pw1DcR2NyhECTcuRuY31p/cNyLD\r\nEzcQjig3RiQkN0T/zzW0q841n/coNj/wCTbvLls2PYRTNtajQzUcDaA2JlQDN84Y+DXk8Xk1aI2j\r\nNTZD9DULTmA1PUkINatmijV6Z1A0TPvDNFjbZDXaI/M0uV/5NOsJijU3WvE0UDvkNNTmYjQYQHk0\r\nzVYqNWoSNTVbIh01WKTXNDG9EzXiVrA0zSQCNQ7WATVQSOQ0vbIbNexxTzSZ25I1WYq6NA9SzjQa\r\nFSA1h2YBNXiaFzV2A8s0y6v7NArhsTRmAeg0f7h1NbYKBDXivDs1PhjfNP4R3DSaNG01TNQwNbmH\r\nMjVlTr00LZUqNYEtuTTk+e80Vxi7NAE8xjR3E+U0tiwENXbZUTXlAis1v338NAAuzjQMK0k1nqtX\r\nNI5sKTW+TGA0yUcoNQw0tzRJ1tI0xH60NNbgJzWxm8Y0zVjINJDvxTQmMfk0eGmvNE4l4zS5AtE0\r\nLjfINByurjQEevA05ghnNI98oTTkTpc0IMgaNRlh0jRcLRQ1MC6lNfT0DjVmK5M0JLPENGl1IDUo\r\n0yk10D7NNLptrTRNx8E0UkUSNVI+pTSL6ug0O/mgNLH2gTQQ1gU1jM7TNNcRrDRGdEA1SPt5NT/R\r\nDjV7UJg0JjINNd7bCjSjBoU1m0oxNWugkTRlB1g0eLHVNKkQtDQpnpc0YkgZNcxRvDRz1Q01dxhC\r\nNOK+KDVj4Tk1ohYXNWo1BTUBf680wJdVNXDpfjTTItE0zdYVNbZrNzUbrdA0SrH8NEytbjRDH5c1\r\nW5P7NPgHHDUK/Lc0vn5iNB1Q8jQkz7Q0PNY8NeG4nTTh3DI1yTeFNRZNtTSTyLY0B4ajNIB5CDVF\r\nm6I0uxq5NBL3ETXyHU81CH25NFO/mjQkOB01pizkNHTKujSG8h01zx/INLM3mzQm9d40M7bONJRN\r\nwDS1SaM0ip8ZNdnqpDSMXvs0UHvBNO2JhjTWs0s0Cg2HNSmztzQK59U0obqbNEXuEjXD3AI1XJFL\r\nNOWyLTUIRBE1YD3zNH8eqjRLo4g0khHUNAYGqzQAOco0Pi9XNA438zQ+LAI1tBF4NCi+mTSSvaU0\r\n7yHXNBsL2zSVH3o0j3mINC+1GDVgpa40DB24NKZhBzT3oEo0FnDENPTlqjRaTyU11IInNYlTmjS3\r\njmg1WxKWNP0lDDXFdsw0XOZ7NaSfpjQ97qA0OPeiNLVOTzW+NkI1wkeDNHK5zjQZYNc0RpjCNMg3\r\nOTVDjhI1WzBDNZrUqzTK4ZE0aHu3NPQJIzXaAz41mmSHNIqE4TRQ/bw0hrZBNQQrLDVrhOM0WuWc\r\nNEM0sTRu3Qc1opOUNBcPgTRbRFQ1vKUDNfAYkzQcb4M0JwpoNHiWwTRu3IY09hRNNXLwAjUwE640\r\np4KTNDVrIDWkl500eQ0vNVay4TQAyeE00M5QNVavnTSOFO80sUGmNYz8TDV7zBc1uin7NABWyzRd\r\n/Qc1eCpENTo8AzWubTg1cUG2NGVrszRcrvQ0YaveNHHHIDWXe/80aTXdNCs/DjXTV9g0RJjfNM7j\r\npzTRHsE0orONNJfOqTRne7I0ACsPNS0hBzXIC0U1rL3LNPX7pTXOjks1zpbYNHkdMzUhXrs0dhk7\r\nNQtJDjXn1fo0DPOpNAftbTSYh0w19GzrNBwnIDUCpbw0VOTQNLbI7TTTqYw0Ki5jNHZaKDVC8ME0\r\ndxYtNHo8DTXkPI80oux3ND3VnzTL3/s0NUugNPL//TQ2+T4119QCNSsXkjTulMY0I+6ONMZ0tTT6\r\n0Cc1uXCaNOU91TSGFIU0FrReNZzMyTRZ4740q4YVNVsuiTXIdrA0K1ZANfzj1DSjlh41wQLpNLyX\r\nCDUoL980qpoGNSCqtzQfg5U1DEMFNRhKajXyoZI0KKaXNFQDyzRm/No0h/mgNF3BzDQhH8U05Z6Q\r\nNO5XmzSMMZ80ppUINZNtlzTWjew0XqSONQ7P3DRzDqk1nB3ONIdB6zQxi9k0AACiNA==",
                            "noiseTrainingType" : "default"
                          }
                        },
                        {
                          "effectName" : "WinCompression",
                          "category" : "categoryAudioEffects",
                          "parameters" : {
                            "attack" : 0.0,
                            "gain" : 9.0,
                            "preset" : 1,
                            "ratio" : 10.0,
                            "release" : 3500.0,
                            "threshold" : -20.0
                          }
                        }
                    ],
                    "start" : 43477,
                    "duration" : 4749,
                    "mediaStart" : 0,
                    "mediaDuration" : 4749,
                    "scalar" : 1,
                    "metadata" : {
                      "WinSubProjectDisplayName" : "",
                      "clipSpeedAttribute" : false
                    },
                    "animationTracks" : {

                    }
                  },
                  {
                    "id" : 120,
                    "_type" : "AMFile",
                    "src" : 33,
                    "trackNumber" : 0,
                    "attributes" : {
                      "ident" : "Narration_fracture-2-czm-element 28",
                      "sampleRate" : 44100,
                      "bitDepth" : 16,
                      "gain" : 1.0,
                      "mixToMono" : false
                    },
                      "channelNumber" : "0,1",
                    "effects" : [
                        {
                          "effectName" : "NoiseReduction",
                          "category" : "categoryAudioEffects",
                          "parameters" : {
                            "denoiserAmount" : 20.0,
                            "denoiserThreshold" : 0.0,
                            "noiseProfile" : "h5IHQNn5Hz9P2oE+VhlAPlRLwz03Opo9iMCLPb/zST0luHo9RO1UPe+3ijwnMZs8oEGXPOrIqTwP\r\n7Y087cA6PSnERj32vFM8RwqOOxegADvU5Ho63iPvOUOxGjqT2mU53k2POYGA4jmrmzs6/T/OObDM\r\noDnmz7k5jv8EOnx31znPXpo5VuzTOcsDfTnhym45gHIvOVumTzmX/QE5LDE2OSywojnXuuM4XYIP\r\nOVD+BDnQ2wc6MrxNOfQiWDmnpgE5t30kOYHKkTnfr2g5mmeGOdOLFznJz6853traOFDTiDkgLDU5\r\n5uC5OQnrPDkL6ac4HSkCOW6cKjlk5eo4OFkEOT0amjngtos4rhgIOW4nGTlCKug4eeGQOQ1zAzne\r\n2Lc4UpvDOE/vvzhcXNw4YlGVOJmYiDhinxo5s70gOefSCDkFu5Q5xe4DOdhLJDk14As5/jlCOfzU\r\naDkg6qc5bk/UOPVSbjkg16c5OTeJOcBigzlb9xU632PgOdL3TTle7Q05bokmOXYuGDm4GRg54wC4\r\nOG7ODzlipus4/qMeOWyJYDjyDgA50MwKOTwXGDluOqI4qi3mOAYrmTgvr+A4arGvOLJ3qDiZyT44\r\nQZNJOAgBqzhAvyA5Q8K7OPgcgjivhcA4BsK5ODbi8TceJsA4AYG0OEDMBTmAfzc5z/DPONdzhDjk\r\nQng4iMvLOOba0zhd2B05+jP5OJDAtzh9KJ441chMOPR41zh7n5k4oK69OJql8zchMgQ5L6oOOPER\r\nwzisOwk5KA7kOFDooThnsns4jcT/OJ77hTjuTZU4Xj4+OOfgjzhJqic4QX20OAxUMTj5ltw3npKd\r\nOFKknDj4k5Q4uZxxOAj+JTieE4I4Zv5gOAGJDTm4HZM4p7nyN1Y1izhWY4o4FtiAOIlTAjndFY44\r\nnCDEOI2P6jj+lNw4GG0uODq6hTjEsm44NlQsOC6teziK/H84sZ3wOMSTbjj870U46DOrOA7PqDi5\r\ne5M4rA6TOEwy5zg8SLg4uhhXODinETh9i8c3e8ZmODxfEDh3Oj84GUhMOBk8GzlKf8M4ZpJJOEi/\r\nSDg6YDY4o3QQOErgPTi5XI04KUlEOFIFMzicC104JZ4oOJLzWTg1z/436LCKN5JOqzjwyHI400oo\r\nOKF6dzi4kms4HDAWOLdjDzjKeoc4qbADONm0nTezX943GukUOFuQNjjGDGY4imkIOER+sTi9sVs4\r\nez43OKIGoThxrno45jqgOER4sDg5FP44zcxdOb9TnDlLCjM5YyaROfWjljkyH385N0K7OesMMDkR\r\nF2I5SEftOBYaTzkCJx459e/TOJBFGzkT4qo4zlekOL0GNTkKY0E5xHbWOFJrazjE1Z84Qfk2ODVj\r\nUTg9rYA4e2kDObbgSDip8QU5zSTkOLl/STinTmA5oz07OcIU4DhHcas5dlg4Of+yjjrAB546wEgQ\r\nO+VLDTpIX6w6il6gOS5dyzkyPKI4EmIgOYye0TgbwbQ5YfJPOXJ6mTlRyhM52eB8OJ7WPjlAmgo5\r\ngpADOZ7+kTiaBak4pPFtOHkqKjiOFRA42MUcOBAYHDhkGYo3XT0WOIj/PDjuGXk4HpYcOF0kDTgu\r\nyh045lRFOLdDFzhvOIs3kc4DOGlUKjj3MCA42Ez8N3a9JTi0H543EbTKN8CzxjeeZzc4mEqyN6KU\r\niDe0nSM4Td10OKkSwDe6Lwo3Wg3vNxTYtjd3hYY3NMtmOHgPEziNHK43KiCZOG3WpDeoqtg3Fixh\r\nOOAvgTcsGkI43IXSOJt8PDiqUVw4TWMaOPYfmTioQV44H9ZRODJXnDcrbx04htJiOMuqRTgqFQA4\r\nYbcsOGZxDDiMmlQ4nmOrOIL/Iji21A04tfT6N6nP7DcjeTc4ggQSOD0jDjiDIhA4oJbBN5uqITjS\r\nflw401FDOOYv3jfWX1s3OAEIOFy7HzidL1M4msAdOJEj4TcF6fI3xogIOKyrCTis6603yXXRNyOr\r\n2TefaTQ4+bnvN3NdbDc68WM4CbAiOBE/FTid6gw4mP+WOPzFMTjJbOo3R5UFOBKqCjlVJqs45k0g\r\nOP7w4jd+pmQ4NseJOIPkPjjJSAo5u3faOInuLzhiAgQ5HZOhOFSHjTjXWh042vGxOEG4BTjsFSM4\r\nL2UJONB8nzfjtoo4t7XaNwx0/DcQt1g4XGE8OPiPijixNjU4ohVRODVv2jeAAx846unuN3c4ADhw\r\nOEc4rKMyOENJyTiDiwY4gEvvN2XPQDgLvxM4hsXqN9sQ+zfyqCw4mEsiOLrcLzhb/sQ42vT2N11c\r\njjePr+I3ERn5OLBjMTi9EFk4KkeBOB/8mThu8cg3PVFMOE4hOjg2A184qyXfN0qXxzeQ3zU46tjz\r\nN8QVAjgLDMk3iU0HONOfujc2hgY4n9ncN8Rr2TepTQQ4fIEsOGLspDhEW/43w2l4OMHYFDiWNuQ3\r\nwdXoNzubVThwykQ4xpprOCXMBzgEFQo4/FDdN9HKJzjjqAo4lnJ8OPrtdzgGmtY3zvKeN2SlljdG\r\nJoQ4aIbgN/JpHjjqN0s4jBHvN2CR7jedcBE46USzN8uwJDgrmv837NarN57N1jcCe2g4k8NjN2YT\r\nmTdgb7A31P3CN2FU/zczpbM3CLhiNwiknTc64wE4ZcO+Nyg4WTinSJA3SQSPNz39MzcEItI33Fw9\r\nOFQYeDfQ/Rk4aNE1OPJaoDdnfqA3uwQXOEJPizccZJA3eGmZN3dwwTfSmi04a3OjNwZoJjgAeuY3\r\no3C2N5V0UzhvmIE4OkqNN2B4PzhI35M3wZZmODZU+ze6HLU3EEUCOKuz4zdbiVI4yGEnOMQRQjgr\r\nbQQ4TwbMNyM7ljf2giQ3koH/NxKGgzfkNIQ34jHNN5R/hTfYNfs3qjC0N6qVKjgfTsI373+eN1WM\r\nIjjDTrA3v36zN27U2DcQNqo3/zClNxZKKzgYRgU49ROJOLXQdDd88b03F06QNyIkwDdCH7A3OUM8\r\nOJhqkziwvzg4sz+AOIaoADjIv9U3jruqN03dvzcyuhI4nzK1N1eVuDdbLtU3GzvxN4ReHDeRTe43\r\nOXcaOO5PODfh3gg44LqmOH0/KjjfajE39jFfN2RVBTZ9wlg1SVIXNX5VqTW67WU1zl7zNCX9VDVo\r\n7QA1ZASHNT4OVDWHhE01UZIcNRaHozWX4lY1HkRVNbD7WDVxHIg1vo9DNcChCDUIIRo12zJFNZRo\r\nBTWTVQs1iZwKNUprNTWpL6w1/JwwNcLYdTUfkwo1HdBVNTE2jTWP25s1WwkoNQk0fjWcNhs1JGYT\r\nNZqTuTWWzHk1nI1ONf5NLDUvOwQ1moMmNaRR5zQXeF01Q40NNXa5VzXOwDU1IA3pNDDMazVQwxE1\r\n6E0oNTMdRDVIOos1NsWZNQpzODWE41U1dukRNc5qwTQOe0c1sPktNQBFpTVXhwI1DsUPNfuFMjVe\r\nvyU1fhSENdojbzVaOvY0iNXRNAaqmzUQkQ81o79HNdFD5zRO12g1N3rpNMaKrzWcnIM1e/XuNJ7p\r\n2zTemWk1U/SHNeXRvTWduxM14Qw0NRKVXzUi/D41RH47NaQjZzXWRvs0lcnENPwiOTVb+lA1xbYK\r\nNcxSFDVFPD41ZtpfNZp5oDR0JJo1oRbENIc/qzVOLi41r9ARNZTZTDWo5FU1OvUpNcizPTU0kg41\r\nbXIlNXgA1zSFwdk0Tij0NNQYVTW11qg0InxYNfFPHDUckTE1hpcDNYEGGjU8aFI1FT5bNZR4MzW8\r\nPCA1lKFfNVQ/NzWuRGA1avGwNTphRjVaYHY1Ri8rNZYU7jTVGSE1PwS/NMrnKTWwDiU1LLRoNf7B\r\nJTUknJM1T4MANWhjMDXYTQg1HD9sNeWsPDW56pk1cNwSNa/30jRD+Vg1arZHNf5vCTVjVAQ1CxgT\r\nNSk8FjV+gEY1opabNZ6WEjVDFLE04m0CNc2ZWzVEEDA10QLbNOqo+zQxYgY1bJ7ZNLDlRjXAifs0\r\njGcMNdBaNTXGk2o1bKevNN4VzTTPDjc19knUNFoGDTUaHwM180kINWbLJTV8/YM14+/RNDbVIDV4\r\nyjo1VBxcNb+SWzWPUCk1ptz1NMnfDTXUl8w0lDsZNVUBuTQs7Sc1uOo8NUK7dTVDPM80YfhPNXuV\r\nQTX0qeo0Nye7NQdShjXu23A1/UZJNbfe0zTo7700kPe9NCDuOjUym4E1yxJ/NfWvwzR4s1E1qbKL\r\nNRlSJjVFgvA0iNMVNTq6HzXNLEA1aBcvNTa4szUX7O80KVORNRqNzTQ1Fwk1xYv4NIMRJjXI8d40\r\nWl6yNLOYhzW2OW41W5QfNcR3TDURhas0cPhWNen09jRIXeE0gRISNe/aOTWSkBU1Hv1xNP11DzXk\r\n9jE12BQpNb60nDUyJZc1LvK+NLj9dTV5xgA1jNUhNU5D/TTpflk1BooXNVd1HDWpoRY1EOXANPS0\r\nOjW8RB41nzj+NEYBCjVCqIE1aF3RNCj/9jQ92wI1fw84NfvvCzUppQE1CyEeNZum9DR2Xe40dOSo\r\nNMG0YTXwyTQ1BsYcNU7/HzUoOio1IxtGNfXzFTUeTmk1pogSNQQ0LDX8HRA13O1XNeKT+DSWnS81\r\nsvJFNQpiUTUmvFo1odZJNZKuEzUIp1M1BFMzNVF+KDWFQRc1BNc0NaBJFjUx1q01cV0ANdf/BzUT\r\n6uk0UclsNQpdXDVbY0I1lwgyNYXDCzWO78c0Pb4hNe6WtzTmNSk0IfGgNd0/EzV4v900IEYHNY9J\r\nYDV5uPw0Eu7INLeJjTSBvTk1cqFoNcLE8TTeG8I0T8XaNIK4qDUOsxA1muBANS9fVjV0Uxw1MtiY\r\nNP6UGDVIcDM1h9tUNVr6WzUrfy81696TNfyc6TTNCpk0z3PVNMH2JjUFhCM1BuZJNRSuLTWigZ80\r\n8ZIgNZo0hzVHQqY09iXKNCMBWzXI7FU1whvTNIB4zzToTR410Gm/NGK8yTSOtBI10nD4NAA0SDXO\r\ntLA0Ns9eNWqLATXmgT413ol6NUDhFTVP/C81ewH5NHaAajWFAfQ0qgELNQF9OzVNqQg1Ug46Nasc\r\nMTUXvRg1rafINMgD3TSyrYM1PCY+NV+NHTWvT+E0N7DmNH/pyDSMwE41y0g0NVMRzjWX2xc1ZD2C\r\nNLrOIjWgBzc1YOYkNcK7DDUw5Bc1Hm48NTq4zDQiCxI1yupSNU4cSDX7yCE1NOxdNZgnBzVCylA1\r\n/J4kNZT3SjVz6Qg1nEkKNQ03DDV7ak81JyKfNQLkODWsRIg1CS09NRTsHDULW3Q1nkLoNCMlIDVt\r\nbAs1TADkNPi8MjVhmRc12NgjNY/HQTWa2zQ151ArNRwoHDXJwyw16iZGNWw4/jTRoPs0NLVBNdel\r\nczX0Huc04se5NOaFaDW4thc1Dw0cNUCgUDWMbiI1CQ0HNUv//jR11xM1+cQPNTYTCTV0sBY1i3EJ\r\nNS5YtjW4vPY0FRSINeTcSTUiKBc1OD9KNb/HPzW/Yyw1aAHbNB5FHTXH6Q01jHfVNAAAojRNLg9A\r\nkhxjPWb4aTw5grw7YkcQO1sPSzvBx7s6ZPy7OuQQJzpuzR06Fg4MOis6GTrOTAY6DObOOXIJjzmU\r\nyNs5Hr1/OTfLazk2XFs5bsxaObqnqDnx9hE5rHqPOdbCeDnPrjQ5tzkMOYXJFTmanmg5LyV8Od7l\r\nzDjIgxA5GLwQOU2bujkIT0s5ElBMORYlJTkMz7k4EbUZORvl+jl+ZaA4pm8mOT1jXzjeQEg5vHov\r\nOU0U1zjjU9449uTpOH4jqzjVYvw47VTvOF/E8zj3roc5x0gnOYVJ+jgLNMM4INNUOPJ2rjguWho5\r\nZr8mOfSgTzkuG/s47PysOOpNgDg4FIw4FpMcOYZboDiXd6o4WAzVOI7lVTiAip44FyAOOdIelDgU\r\nPJ44U5uTOCeBxDj7uAo5ND4DOcmoAzmU/oc4j6zIOEEWOTn1Ik04lubDOAefajkb1uw4bGcWOS1U\r\nQDnAGOM46+kWOc22qjl6mOw5Snh/OQJVAjrIrXA50i8mOWrs7ziL4W45ygesOAK/ADm2rzo5qJa1\r\nON7s7jhVo0k5cA0IOeKa5DiruzA4yo3QOEeGhDh4ffQ3acc0ONVzmDhhYNY4ZeJ2OELdfDio6a04\r\nc5XOOLOotTjBKT84BysWOBYYpjiCNMI4puKrOAcd3zeVzWA4f6OCOOs7hjjnJgs5XV7EOKSAGDgT\r\nGmA4FoM8ODlLFzjIBaE4Jb0BOCnBAjkf0r43bchqOBSRBziIPBg4sBmTOCm1jTiQos84jZXUOJky\r\nCjhFWuY3ZgePOCtAGTiYO4s4E4ExOLZkiTialzU4VUgtOE7MajjwvYQ4GjaCOCjlBTjN/SI4qAPV\r\nOM/qCDjbDrg4A6fuN46EbDg+9qQ4Ot7BN2RCfzi2n2I4DglqOC28YzgC6nE47sEZOIP3xDjOgFw4\r\nALDFOFJkHDnkgAM4l4SCOEairDgkaEY4eTCoOEegMzhkm5I46ExtOFVqmjj9H2Y4mhl3OFoWaTiO\r\n7wE4D7n9N9XmOjghKR44+WJIOBrw4jdlUso3O4gaONpLSzhUbDM4pnFrOElHhDgRof03K8UYOCwY\r\nhTiQkd83hDzfN+DdvDfa5Uw4s8sUOMCS+jdQgus3X6ltNyKCSziaemw4L7daOCKcTDhqCk04AjPN\r\nN4KoVjgsow045iALOCJFBzgMGKQ3BvNtOIGWZjj2Nc03ML4cOIBh4TfMEoc32xH2N1wqFDgEFwU4\r\n5s0WOM7QTThoAxk4U6+6N2KwLzjlUyg4VBMdOKajsDeCxao3AIjfNwT03Dd1iW03n+WdN1epnTfh\r\nFpY4knufN4Tz6jeD+os36EcgOGbbKTjbVu43TG32Nwj9MzhYY+43iBwQOO/XGDg0QNo3UCnfN+em\r\n9TdzBxo4foKkNwCYgTcYT0k42rn7N5aH8zd9NC04St3cNy7mnzf2ZwY4qmpMN7L45jf0T7E3dIM4\r\nOA9o4jfEFKQ3Fn/YN4S6Fzh2NIg3KD00OL/EyjcA8b83OdfwN6jOWjhPc6U3HS/BN7eEbzemfdc3\r\nuUazNxZ+pDeyOL03ma++N3d4+jdB3wk4HRn8N/KyHjiJqbk3xi2kOHu7PjjYpMk3SIPINwc8uDcV\r\n8QI4DyCFNyCsADgibiQ34DggOMLgmjgUMKw3jrZNNyc/Wjd0RBI4uwelNyT5KTgWygo4hnPFN83n\r\nNDjKrO83LivHN1q4HThchSw4TIogOIJAvjdduA04xg2rN6pT4TdW8zE4fVU9OB+KETiNQ9s3+jGe\r\nN3SSjDfckOQ30nUSOO9MTTexgGI3j/AQOMi5rTfza+g37G3ONzhirze/Z7I3c3h+OBc6zjfilR44\r\n3xcgOLxcfjffmVU45vOxN9EnFDhqQ/s3DrHMN/CAozdZaEk4xmezNwITGziKb6c3jTkrOHBDujf+\r\nP583zpcZODvYnzd7rfQ3xPftN7LMAjiLxSw4jtKjN8BCvDfRmw8457hvNxTe7Df8sgI4FuUzOEuy\r\ngzeZ7OU3QnKsN2fW1zdsHGU3vFGtN53XADhzgwQ4rlDyN66+vDcWGZo3srstONMYHzhDYV84o/uG\r\nNwz+nTdZ3RE4s6m3N3vBpDcwlPg4ADSpNzRgXjd6XLg3Lu67N1yEZjfEoy04y3q6N1bFyje9bMk3\r\nQqv6N8dv+DctfBk4Gv43ODbTPDf19hE4AZwdOLX0PjhVAog3FTPRN+FhRThuUc83RByNNza+SzhU\r\nl9I3Fw0MOJkVlzf6aEc3Uss7OJaUoTfZtd43oEZwNwssXTeuUJM3jpHXN8ZI9zc4os834kobOPKq\r\nrzdGUhw49ggAOHfH2jdS66Q3ylL3N0rXwzcUItM3DrkDOG8Xszf8lw04xh6KN65H8zenpA04dWKT\r\nN0vAOTgSxK83I1c7NxVttzcan8A3lIfnN+oIwTfojmI3N/K/N3XDATgxn7M3mt/WN311Ljgq7AE4\r\nPGJBOGQxpzeRFcc3PqjjN2ywNjjGcLM3S/D6N/AGOzjNegU3eDfzN9pToTc9lO83a0mWNwgJHzj3\r\nKBI4NEq9NxYQ4Tew3bo3v4vGN6sm9zcY4co3x0mrN/7RHDgoC+k3h3vRN2sHCzjoqxs49gKvNxL+\r\n/DdRoWM3TeEUOP1UnjdH+9A3KPjZN9IGTjfog/U3CYQDOMrRhDcp5vw3VogKOOhErjdB59o3YfZr\r\nN2j1pjdTWb44LHqAN67R4zebWs43SJ7UNz5Y3jdY29U3Gk8KOBzQZDeYWuM315w6OADKzjfTilg4\r\nvSsCOI4JjTf4IQM4yvTbN+W/vDdJ2tM3HoEROCCgxze7YWo38dq8N3xIkjhBl7k3JO2PN4/LxTf8\r\nOxM4WDYPOJZYQjc4BDc4eLXaNzlMDjiPIs03QMJvOAB3eDeHpJ833jCNN/r4XjhxeYc4/cF3Nz8T\r\nqzdpO6A3YmgQOHooljewvx039vzAN6X/9zfed1w4PKqXN2S3RjjVoDA4XvOlN38oBjgTopI3W44w\r\nOHpc0zdy9yY3tj+oN+GPdjhAKII3lmYBOMQz2jdMYZ830/7HN41Xazckx+U3HJ+NN+1fojdo7Mo3\r\nO9PAN75xMzjA4Ik3OGULOEtRcDepu643JnyNNSgmdDXI6nE1+xR1NZoBAjXG9U01loh5NWTljDWl\r\nNBM1lA59NUYrwjQvw8Y0qMDwNMrsbDXuxAY1SpkXNQMOvTSYSBY1nKgKNfS3+jRvdKY1GvWHNIGa\r\nlTWiMFc1OeC1NLSeGTW9R/Y0ieVtNexuIjU74mU0bAKINNw+gTTGfks0dJX4NLNMGTUOQJg0WF6s\r\nNJD2FDVO2YM0xBoDNVC9dDTQN0802LHmNLRxZjRG98c0qAMiNX5MoDQKVgc1VPfuNPy+UzT2wKk0\r\nIpYiNT8IBjVePRs1IhWSNCbSyzRGj9o0YHzfNBs0GDVa8CQ179SjNOaw8jQ6TZ00ko0KNSgFpjQA\r\nNwA14EP4NFjKBTVfMIw0+ciuNO1mATXoQHY0hVrZNLLZyDTSeGc0ZfR0Nd2UazTBLOw0fA/kNERD\r\n2TQdktI0vSArNY57GzUJY5k0JlsENU/+IDUOiwA1QIrsNClbnzTAF0c1ptKzNDk2CTWC3SQ1O1Yx\r\nNaX30TSJQ/Q0dhbbNCA26TRoTn817Oy8NOKcRTWwWQw1auLWNFePfTUXAwU1nwjwNAyhzDTqoIc0\r\np3s9NeFBQzVuCOg0ZUYMNc1B3jRIo+w0OTPVNKrN6jQA/tc0rgT+NNy3bDROZGs1k4WWNItAAzWx\r\nJ4o0NzBcNZWJIzUZJPg0llAWNXiEETUZ7NE0flzANNvItzRKixs16oqPNAF0+TSg4NM0BzQXNSjb\r\ncDTWUSc14Om3NKjt6zSua9c0pN4VNRJ+2TTGZyM0mq79NEezATVPA+00ihQPNRKhlTTngKo09b3C\r\nNIv+dzTGO4g0AzTbNBD7EzWHJBQ13TgGNVaZojTvVq40NJUpNELwcjRefWU1pAGuNEIlBjXQZ9g0\r\nINUFNTmmsTSQJDc1M7sMNXtZFTXsdwM1jA4jNZrlZjQD+iA1ICHnNMwdBjV+GuUzCJniNDaX3DR5\r\nydY0pCz7NMiW2DR5wYc0aK5vNOLW0DSOjr40cM3JNOdi+zQiUTY0jRPTNOFQ4zQ6Wpw0Zf60NFUr\r\nDTXX1d40xMwfNcAnzTSo1380MkmANJ1JlzRvzQw1noylNOUiETVS0Ic02JVQNHJCBDUW+bI0I4GA\r\nNN4kCzXAKqo0HxOcNDXHijTHobo0zruyNFG2ijTruJY0fABCNQhJ3jSnD/8053M/NSKfojSs93Y1\r\nSw+KNAIe1jQsKiE1BuMnNcmS6jTd3Fc0705vNPpHEDUjj/c010qvNEx1gTTkneI0iLXBNIhczjRA\r\nIAY1ZLzFNKyEDzVWZB81tD3jNAyh3zSp2IE0e48iNVrzYzUIpRc1diWoNMGY5zRk+H406pL4NNo9\r\nnTTykQU1MMHJNJ284DQacwM13WklNXv53TTiidg0+O3xNFP/GzV06AI19OWLNFWzqzQztb40qbOT\r\nNN7S2DRgV6Q08csRNPNK0DQ0ePU0yW54NItUHTUn05c0kp60NM0QkTRGiNA0mLvUNJ3dpjSV6ms0\r\nF9UwNeQ6OjS6+HM0MEa4NGHWzjTpEBM1MGQYNbBPpjTIoE40fv4rNXEAJTUoRek01qCgNKzegDRM\r\nqN40oxjmNLC1xzSIsR41oaWuNDJLxTSsFQ01qldmNIAh5DQbJAk1aUSgNJWqyDSJGPo0eJibNOBY\r\n1TQdxdY08VDZNJijeDQJH5E00EC8NPwHPDQzKo80pzwtNYaLzjQQUIk0RgCyNEPS1DQErdY0KncF\r\nNY/uvzRQRzM1dioVNfiiFDV8Jv80CqrYNEumlzRa+Z002L+mNPKTnDTJaSw11beqNPbBDTWibxI1\r\nvMZ+NM5BkTTDWMs0S962NJBjKjVajFc1ykFmNPoEzTSmSbA06U5pNA9UrzRdmf00euJ2NGRGfTVe\r\nyAM1pogXNfM3qTTvHTg0s/ERNbV0cTTUNQY1XP/ONEv6AzVXZhA11MCaNBu8qzSEPuQ0xbsLNajM\r\nkzUxJOU0rZQDNW48MzVqVcI0EHDTNNZaLTXR86g00Ca7NLXyBDV5Ipo0SGDnNMd93DTX6Jw0CrOx\r\nNBfLkDTBw800QYCiNLP4GDVadiU1Xj7lNFQ+6TT9aao08pkvNPTEqzQyVjg1nN2+NFR/OzUuvk41\r\nFZARNZ6lAjWLz+k0ZvTONF4FrjQgGao0iwseNYtGwTTurqM0pv52NBIOgTTcBdU0gv0ONeTZBzXW\r\nVuE0YjudNHHc9zSEOls03jHONNoHuzQXWbQ0DPnJNBsaljRE5vQ0TIwqNTqQkDSgsfM0bvvCNEk2\r\nqzUBT+E0GL6DNKa4ZTQm0WU0J2a2NJmAFzWrqoM0c3MVNbzx0jQwDBM1S0s3NQQ8kDT+opo0zjVG\r\nNaQliDQ1pqY0yrTHNEIy+DQIHPs0/+vKNHinhzRuXLo0KDrBNOFpKjV1n4Q0AADyNA==",
                            "noiseTrainingType" : "default"
                          }
                        },
                        {
                          "effectName" : "WinCompression",
                          "category" : "categoryAudioEffects",
                          "parameters" : {
                            "attack" : 0.0,
                            "gain" : 9.0,
                            "preset" : 1,
                            "ratio" : 10.0,
                            "release" : 3500.0,
                            "threshold" : -20.0
                          }
                        }
                    ],
                    "start" : 48226,
                    "duration" : 1335,
                    "mediaStart" : 0,
                    "mediaDuration" : 1335,
                    "scalar" : 1,
                    "metadata" : {
                      "WinSubProjectDisplayName" : "",
                      "clipSpeedAttribute" : false
                    },
                    "animationTracks" : {

                    }
                  }
                ]
              },
              {
                "trackIndex" : 2,
                "medias" : [
                ]
              },
              {
                "trackIndex" : 3,
                "medias" : [
                ]
              }
            ]
          }
        }
      ]
    },
    "trackAttributes" : [
      {
        "ident" : "",
        "audioMuted" : false,
        "videoHidden" : false,
        "metadata" : {
          "IsLocked" : "False",
          "WinTrackHeight" : "56"
        }
      },
      {
        "ident" : "",
        "audioMuted" : false,
        "videoHidden" : false,
        "metadata" : {
          "IsLocked" : "False",
          "WinTrackHeight" : "56"
        }
      },
      {
        "ident" : "",
        "audioMuted" : false,
        "videoHidden" : false,
        "metadata" : {
          "IsLocked" : "False",
          "WinTrackHeight" : "56"
        }
      },
      {
        "ident" : "",
        "audioMuted" : false,
        "videoHidden" : false,
        "metadata" : {
          "IsLocked" : "False",
          "WinTrackHeight" : "56"
        }
      }
    ],
    "captionAttributes" : {
      "enabled" : true,
      "fontName" : "Arial",
      "fontSize" : 42,
      "backgroundColor" : [ 0, 0, 0, 191],
      "foregroundColor" : [ 255, 255, 255, 255],
      "lang" : "en",
      "alignment" : 0,
      "defaultFontSize" : true,
      "opacity" : 0.5,
      "backgroundEnabled" : true,
      "backgroundOnlyAroundText" : true
    },
    "backgroundColor" : [ 0, 0, 0, 255]
  },
  "metadata" : {
    "AutoSaveFile" : "",
    "CanvasZoom" : 75,
    "Date" : "2018-04-30 10:38:22 PM",
    "IsAutoSave" : "0",
    "Language" : "ENU",
    "ProfileName" : "",
    "ProjectDimensionsChanged" : "1",
    "Title" : "fracture-2-czm-element",
    "audioNarrationNotes" : "",
    "calloutStyle" : "Basic",
    "canvasDetached" : "False",
    "canvasPositionHeight" : "0",
    "canvasPositionLeft" : "0",
    "canvasPositionTop" : "0",
    "canvasPositionWidth" : "0"
  }
}
